<svg xmlns="http://www.w3.org/2000/svg"><defs><font horiz-adv-x="540"><font-face font-family="SuzukiPRORegular" font-weight="400" panose-1="2 11 5 6 4 0 0 2 0 4" ascent="798" descent="-202" x-height="540" cap-height="720" bbox="-319 -275 990 960" underline-thickness="50" underline-position="-50" unicode-range="U+0020-FB05"/><glyph glyph-name="ff" unicode="ff" horiz-adv-x="578" d="M459 475V0h-80v475H180V0h-80v475H20v65h80v47q0 64 43.5 106T273 735q51 0 89-6t64-12q32 26 84 26 50 0 88-11v-65q-19 5-38 7t-34 2q-33 0-50-15t-17-50v-71h116v-65H459zm-279 65h199v65q0 15 1.5 29t6.5 28q-22 3-48.5 5.5T281 670q-54 0-77.5-19T180 593v-53z"/><glyph glyph-name="fi" unicode="fi" horiz-adv-x="539" d="M441 660q-23 5-64 11.5t-96 6.5q-54 0-77.5-19T180 601v-61h279V0h-80v475H180V0h-80v475H20v65h80v55q0 64 43.5 106T273 743q60 0 101.5-7t66.5-13v-63z"/><glyph glyph-name="fl" unicode="fl" horiz-adv-x="539" d="M379 0v669q-20 4-44.5 6.5T277 678q-97 0-97-77v-61h101v-65H180V0h-80v475H20v65h80v55q0 64 43.5 106T269 743q57 0 104.5-6t85.5-14V0h-80z"/><glyph glyph-name="ffi" unicode="ffi" horiz-adv-x="818" d="M658 0v475H459V0h-80v475H180V0h-80v475H20v65h80v47q0 64 43.5 106T273 735q57 0 99.5-7t67.5-14q43 29 112 29 60 0 102-7.5t66-12.5v-63q-22 5-63.5 11.5T560 678q-54 0-77.5-19T459 601v-61h279V0h-80zM180 540h199v55q0 36 14 66-23 4-51 6.5t-61 2.5q-54 0-77.5-19T180 593v-53z"/><glyph glyph-name="ffl" unicode="ffl" horiz-adv-x="808" d="M648 0v672q-20 2-41.5 4t-46.5 2q-54 0-77.5-19T459 601v-61h93v-65h-93V0h-80v475H180V0h-80v475H20v65h80v47q0 64 43.5 106T273 735q57 0 99.5-7t67.5-14q43 29 112 29 63 0 107.5-8.5T728 720V0h-80zM180 540h199v55q0 36 14 66-23 4-51 6.5t-61 2.5q-54 0-77.5-19T180 593v-53z"/><glyph glyph-name=".notdef" horiz-adv-x="548" d="M80 720h388V0H80v720zM400 68v584H148V68h252z"/><glyph glyph-name=".null" horiz-adv-x="0"/><glyph glyph-name="nonmarkingreturn" horiz-adv-x="220"/><glyph glyph-name="space" horiz-adv-x="300"/><glyph glyph-name="exclam" unicode="!" horiz-adv-x="270" d="M98 240L88 720h90l-10-480H98zM85 0v100h100V0H85z"/><glyph glyph-name="quotedbl" unicode="&quot;" horiz-adv-x="400" d="M150 502h-50L75 642v93h100v-92zm150 0h-50l-25 140v93h100v-92z"/><glyph glyph-name="numbersign" unicode="#" horiz-adv-x="575" d="M498 197h-84L397 0h-71l17 197H201L184 0h-71l17 197H51l4 61h80l17 189H71l6 61h80l17 192h71l-17-192h142l17 192h71l-17-192h83l-6-61h-82l-17-189h83zm-292 61h142l17 189H223z"/><glyph glyph-name="dollar" unicode="$" d="M280 644q-24 0-46-6t-38.5-19-26.5-33.5-10-48.5q0-21 5.5-38.5t21-33.5 43.5-31.5 72-31.5q36-13 70.5-30t60.5-42.5 42-61 16-86.5q0-35-12-67.5T443.5 56t-55-44T316-12v-123h-72v122q-42 5-74.5 21T113 46.5 73.5 95 51 146l78 14q6-20 17-39t29-34 44-24.5 61-9.5q20 0 42.5 6.5t41 21.5 31 38 12.5 56q0 38-11 63t-33.5 43-57 33-81.5 34q-78 31-112 77T78 528q0 75 43.5 122.5T244 708v112h72V707q35-5 63-19.5t49-34.5 35-44.5 22-49.5l-74-14q-12 39-43.5 69T280 644z"/><glyph glyph-name="percent" unicode="%" horiz-adv-x="740" d="M268 0h-74l275 700h74zM60 541q0 42 11 74t30 53 43 31.5 51 10.5 51.5-10.5 43-31.5 30-53 11.5-74-11.5-73.5T289 415t-43.5-31-50.5-10-50.5 10-43.5 31-30 52.5T60 541zm70 0q0-60 18-86t47-26 48 26 19 86-19 86-48 26-47-26-18-86zm279-382q0 42 11 74t30 53 43 31.5 51 10.5 51.5-10.5 43-31.5 30-53 11.5-74-11.5-73.5T638 33 594.5 2 544-8 493.5 2 450 33t-30 52.5-11 73.5zm70 0q0-60 18-86t47-26 48 26 19 86-19 86-48 26-47-26-18-86z"/><glyph glyph-name="ampersand" unicode="&" horiz-adv-x="697" d="M600 349q-6-60-20.5-112.5T541 139L677 0h-98l-79 80q-37-42-89-66T289-10q-45 0-83.5 14T139 42.5t-43.5 58T80 173q0 36 9 64t26.5 51.5 42 43.5 56.5 40q-43 44-71.5 85.5T114 552q0 30 10.5 58.5T157 661t55.5 35.5T291 710q43 0 75.5-12.5T421 664t33.5-48 11.5-55q0-34-9-61t-27-50-45-43.5-63-41.5l167-172q18 38 28.5 82t14.5 90zM301 55q48 0 84.5 20.5T451 131L259 327q-52-33-74-66t-22-81q0-23 7-45t23.5-40 43-29T301 55zM192 552q0-17 4.5-32t15-31 26.5-35 40-44q35 20 57.5 37.5t36 34.5 18.5 35.5 5 40.5q0 45-30 68t-72 23q-51 0-76-25.5T192 552z"/><glyph glyph-name="quotesingle" unicode="'" horiz-adv-x="250" d="M150 502h-50L75 642v93h100v-92z"/><glyph glyph-name="parenleft" unicode="(" horiz-adv-x="340" d="M75 330q0 91 12.5 161.5t33 127T167 721t54 89h64q-25-46-49-96t-43-107.5-30.5-126T151 330q0-83 11.5-151T193 53t43-107.5 49-95.5h-64q-28 43-54 89T120.5 41.5 87.5 168 75 330z"/><glyph glyph-name="parenright" unicode=")" horiz-adv-x="340" d="M265 329q0-92-12.5-162.5t-33-127T173-63t-54-89H55q25 46 49 96t43 108 30.5 126T189 329q0 82-11.5 150.5T147 606t-43 108-49 96h64q28-42 54-88.5t46.5-103 33-127.5T265 329z"/><glyph glyph-name="asterisk" unicode="*" horiz-adv-x="470" d="M258 584l139 60 23-72-146-33 99-112-62-44-76 128-76-129-61 45 98 112-147 32 24 72 138-60-14 152h76z"/><glyph glyph-name="plus" unicode="+" d="M231 288H65v70h166v163h78V358h166v-70H309V122h-78v166z"/><glyph glyph-name="comma" unicode="," horiz-adv-x="230" d="M95-142H39L94 0H65v100h100V1z"/><glyph glyph-name="hyphen" unicode="-" horiz-adv-x="425" d="M60 287v72h305v-72H60z"/><glyph glyph-name="period" unicode="." horiz-adv-x="230" d="M65 0v100h100V0H65z"/><glyph glyph-name="slash" unicode="/" horiz-adv-x="265" d="M66-90h-76l209 810h76z"/><glyph glyph-name="zero" unicode="0" d="M67 344q0 98 14.5 166t41 110 64 61 84.5 19 84.5-19 64-61T460 510t14-166q0-96-14.5-163.5T419 71 355 9.5 271-10q-47 0-84.5 19.5t-64 62-41 110T67 344zm82 0q0-79 8-134t24-90 38.5-51T271 53t51.5 16 38.5 51 24 90 8 134-8.5 134.5-24 90.5-38.5 51.5-51 16.5q-29 0-51.5-16.5t-38-51.5-24-90.5T149 344z"/><glyph glyph-name="one" unicode="1" d="M135 0v69h133v555l-142-84v78l136 82h85V69h109V0H135z"/><glyph glyph-name="two" unicode="2" d="M274 646q-51 0-81-34t-36-86l-78 12q7 36 23.5 67.5t41.5 55 59.5 36.5 77.5 13q35 0 69-11t60.5-34 42.5-59 16-85q0-29-7.5-57.5T438 405t-40.5-64-58.5-74L176 71h287V0H83v71l205 253q27 33 46 59t31.5 48.5 18 44.5 5.5 47q0 54-27.5 88.5T274 646z"/><glyph glyph-name="three" unicode="3" d="M263 53q23 0 45 7t39.5 23 28 43 10.5 67q0 41-9 68t-25 43.5-38 23-48 6.5h-56v67h54q46 0 74 32t28 92q0 66-29.5 95.5T259 650q-26 0-45.5-10.5t-33.5-26-22-35-11-37.5l-73 12q8 41 27 71t45 49 56 28 61 9q37 0 71-11.5t59-34 40-55.5 15-76q0-66-32.5-108T329 374q28-3 53-16.5t44-36 30.5-54T468 196q0-53-17.5-92T404 39.5 338.5 2 264-10q-69 0-122 42T70 148l73 11q3-18 12.5-37t25-34 36-25T263 53z"/><glyph glyph-name="four" unicode="4" d="M389 444V202h96v-65h-96V0h-77v137H76v72l138 491h79L153 202h161l17 242h58z"/><glyph glyph-name="five" unicode="5" d="M258 54q19 0 41 6.5T339.5 86t30.5 52 12 87q0 45-8.5 76.5T350 353t-35.5 29-45.5 9q-40 0-69-20.5T158 320H98l19 380h305v-64H189l-12-230q20 20 48 31.5t63 11.5 67-11 56.5-37.5 39-70T465 221q0-52-14.5-94.5t-41.5-73-65.5-47T257-10q-35 0-65.5 11.5T137 33 96.5 80 73 138l74 11q8-39 35.5-67T258 54z"/><glyph glyph-name="six" unicode="6" d="M301 651q-26 0-50.5-12t-44-43.5T175 510t-13-137q26 32 62.5 52t81.5 20q44 0 76-16.5t53-46 31-71 10-90.5q0-59-16-102t-43-72-62-43-73-14q-102 0-151 86T82 345q0 115 22 186.5t55 111 71 53.5 71 14q34 0 61.5-10.5t48-28T445 632t22-45l-72-13q-16 43-42 60t-52 17zm-12-269q-40 0-72-20.5T162 315q2-75 10-125t23-80.5T232 66t51-13q21 0 41.5 7t36 25.5 25 50T395 215q0 90-28.5 128.5T289 382z"/><glyph glyph-name="seven" unicode="7" d="M246 0h-88l232 630H102v70h364v-80z"/><glyph glyph-name="eight" unicode="8" d="M270-10q-50 0-88.5 14.5t-65.5 40T75 104t-14 73q0 46 15 79t36.5 55 45.5 34.5 41 18.5q-18 8-38.5 21.5t-37.5 34-28.5 48T83 530q0 48 16 82t42 55.5 59.5 32T270 710t69.5-9.5 59.5-30 42-53.5 16-80q0-36-13-63.5t-32-47-39.5-31.5-36.5-18q17-6 41.5-19.5t47-36.5 38.5-57 16-80q0-42-14-77.5T424 45 358 4.5 270-10zm123 194q0 39-16.5 66T337 294.5 289 322t-42 16q-19-11-37-22.5T178 287t-22.5-41.5T147 184q0-57 32.5-94.5T270 52t90.5 34.5T393 184zm-17 351q0 30-8.5 52.5t-23 36.5-34 21-40.5 7-40.5-6.5T195 625t-24-36.5-9-53.5q0-33 15.5-56t36.5-38.5 42-24.5 32-13q7 4 22 14t29.5 26.5 25.5 39 11 52.5z"/><glyph glyph-name="nine" unicode="9" d="M268 51q31 0 55 14.5t40.5 47.5 25 86.5T398 331q-22-31-56-51t-83-20q-46 0-79 16t-54.5 45T94 390.5 84 480q0 58 15.5 101t42.5 71.5 62.5 43T281 710q52 0 89-20t61-62 35.5-107.5T478 365q0-114-17-187T415.5 63 349 5.5 268-10q-67 0-108.5 32.5T101 103l73 15q14-40 40.5-53.5T268 51zm5 269q40 0 71 21.5t53 48.5q-2 75-9.5 125.5t-22 81-35.5 43-49 12.5q-21 0-42-8t-37.5-27.5T175 565t-10-79q0-88 28.5-127t79.5-39z"/><glyph glyph-name="colon" unicode=":" horiz-adv-x="230" d="M65 0v100h100V0H65zm0 439v100h100V439H65z"/><glyph glyph-name="semicolon" unicode=";" horiz-adv-x="230" d="M65 439v100h100V439H65zm30-581H39L94 0H65v100h100V1z"/><glyph glyph-name="less" unicode="<" d="M65 281v90l410 170v-80L128 325l347-154V91z"/><glyph glyph-name="equal" unicode="=" d="M65 391v70h410v-70H65zm0-200v70h410v-70H65z"/><glyph glyph-name="greater" unicode=">" d="M65 91v80l347 154L65 461v80l410-170v-90z"/><glyph glyph-name="question" unicode="?" horiz-adv-x="484" d="M249 670q-45 0-76.5-29.5T134 566l-79 12q9 36 27.5 65t44.5 49.5 58 31.5 67 11q81 0 129-42.5T429 572q0-36-10.5-62t-26-47-34-37.5-34-33.5-26-36-10.5-43v-93h-82v107q0 28 10.5 49.5t26 40 33.5 35 33.5 34.5 26 39 10.5 49q0 18-5.5 35.5t-17 31-30 21.5-44.5 8zM197 0v105h105V0H197z"/><glyph glyph-name="at" unicode="@" horiz-adv-x="920" d="M654 98q-25 0-43.5 7.5T580 125t-18.5 27.5T553 184q-14-34-45.5-59T422 100q-27 0-52 9.5T325.5 141t-31 56.5T283 282q0 81 18.5 135t47 86.5 62.5 46 66 13.5q27 0 47-8.5t36-22.5l10 24h61l-31-258q-1-5-2-14t-1.5-18-1-17.5-.5-12.5q0-45 14-65t42-20q21 0 41 14t35.5 41.5T752 275t9 95q0 147-69 227.5T486 678q-54 0-112-21.5t-106-66-78.5-114T159 311q0-85 24-149t65-106.5 95-64T458-30q50 0 82.5 4.5T605-15v-58q-31-7-68.5-12.5T450-91q-78 0-145.5 27T187 14.5 108.5 141 80 312q0 117 39 197.5T217.5 640t131 72.5T486 735q79 0 144-22.5T741.5 645 814 531.5 840 371q0-50-12-98.5T792.5 185 734 122t-80-24zm-213 59q30 0 53 24.5t31 89.5l26 219q-10 9-22 13.5t-33 4.5q-23 0-46.5-9.5T406 463t-32.5-71.5T361 275q0-36 6.5-59t18-36 26-18 29.5-5z"/><glyph glyph-name="A" unicode="A" horiz-adv-x="553" d="M453 0l-52 187H147L94 0H10l216 720h102L543 0h-90zM165 252h218L276 642z"/><glyph glyph-name="B" unicode="B" horiz-adv-x="559" d="M259 720q112 0 169.5-47.5T486 534q0-57-30.5-98T377 380q27-6 51-19.5t42-35.5 28.5-53.5T509 199q0-58-22-96t-58-61-81-32.5T257 0H90v720h169zm-84-373V65h97q30 0 56.5 6.5t47 21.5 32.5 41 12 65q0 34-7.5 61T388 306.5t-44.5 30T277 347H175zm0 314V408h98q69 0 98.5 33t29.5 93q0 64-36.5 95.5T267 661h-92z"/><glyph glyph-name="C" unicode="C" horiz-adv-x="582" d="M318 53q54 0 86.5 29t49.5 83l83-8q-24-77-77-124.5T316-15q-40 0-83.5 16T153 58.5 93.5 173 70 360q0 112 23 185t59 115 80.5 58.5T320 735q47 0 82.5-14.5T463 683t41-52 24-57l-82-11q-15 48-44.5 76.5T320 668q-34 0-63.5-14.5t-51.5-50-34.5-94.5T158 360q0-89 13-148t34.5-94T256 68t62-15z"/><glyph glyph-name="D" unicode="D" horiz-adv-x="611" d="M237 720q53 0 107-14t98-53.5 71.5-110T541 360q0-113-30.5-183t-76-109.5-99-53.5T236 0H90v720h147zm-62-63V66h66q39 0 77.5 11.5T387 121t49 89.5T455 360t-20 150-51.5 90.5T314 645t-75 12h-64z"/><glyph glyph-name="E" unicode="E" horiz-adv-x="500" d="M410 333H175V68h265V0H90v720h350v-68H175V399h235v-66z"/><glyph glyph-name="F" unicode="F" horiz-adv-x="470" d="M400 312H175V0H90v720h340v-68H175V380h225v-68z"/><glyph glyph-name="G" unicode="G" horiz-adv-x="598" d="M521 0h-50l-13 51q-28-33-66.5-49T310-14q-42 0-84.5 15.5t-77 57.5T92 174 70 361q0 115 24.5 188t62 114.5 82 57T323 736q41 0 73.5-12t57.5-32.5 41.5-47T521 588l-82-12q-11 39-37.5 67T323 671q-30 0-59.5-14T210 607.5 171.5 512 157 361q0-89 12.5-148t33.5-95 49-51 60-15q92 0 133 62v215H322v68h199V0z"/><glyph glyph-name="H" unicode="H" horiz-adv-x="620" d="M530 720V0h-85v330H175V0H90v720h85V398h270v322h85z"/><glyph glyph-name="I" unicode="I" horiz-adv-x="265" d="M175 720V0H90v720h85z"/><glyph glyph-name="J" unicode="J" horiz-adv-x="324" d="M154 720h85V165q0-96-34-137.5T101-14q-26 0-47 4T15 0v69q17-5 39.5-9T91 56q17 0 29 4t19.5 16 11 33.5T154 167v553z"/><glyph glyph-name="K" unicode="K" horiz-adv-x="543" d="M424 0L175 335V0H90v720h85V406l226 314h95L245 377 528 0H424z"/><glyph glyph-name="L" unicode="L" horiz-adv-x="472" d="M175 720V74h277V0H90v720h85z"/><glyph glyph-name="M" unicode="M" horiz-adv-x="747" d="M341 0L171 569V0H90v720h111l180-606 166 606h110V0h-84v569L416 0h-75z"/><glyph glyph-name="N" unicode="N" horiz-adv-x="601" d="M511 720V0H400L171 603V0H90v720h114l228-596v596h79z"/><glyph glyph-name="O" unicode="O" horiz-adv-x="658" d="M70 360q0 105 22 176.5T150 652t82.5 63.5T329 735q49 0 96-19.5t83-63.5 58-115.5T588 360t-22-176.5T508 68 425 4.5 329-15q-50 0-96.5 19.5T150 68 92 183.5 70 360zm87 0q0-153 42.5-231.5T329 50t129.5 78.5T501 360t-42.5 231.5T329 670t-129.5-78.5T157 360z"/><glyph glyph-name="P" unicode="P" horiz-adv-x="528" d="M244 720q53 0 98.5-13.5t79-42 52.5-72T493 489q0-59-20-101.5t-54.5-70T338 277t-98-13h-65V0H90v720h154zm-69-65V329h67q79 0 121.5 39T406 489q0 78-42.5 122T246 655h-71z"/><glyph glyph-name="Q" unicode="Q" horiz-adv-x="658" d="M70 360q0 105 22 176.5T150 652t82.5 63.5T329 735q49 0 96-19.5t83-63.5 58-115.5T588 360q0-83-14.5-146T534 107t-58.5-71T403-2l163-6v-78L314-48v34q-48 3-92 24t-77.5 65-54 114T70 360zm87 0q0-153 42.5-231.5T329 50t129.5 78.5T501 360t-42.5 231.5T329 670t-129.5-78.5T157 360z"/><glyph glyph-name="R" unicode="R" horiz-adv-x="557" d="M441 0L280 282H175V0H90v720h147q53 0 99-13t80-40.5 53.5-69.5 19.5-99q0-41-10-72.5T452 370t-40-41-49-28L542 0H441zM175 655V347h67q72 0 116 37.5T402 498t-44 116.5T239 655h-64z"/><glyph glyph-name="S" unicode="S" horiz-adv-x="548" d="M277 669q-24 0-46-6.5t-38.5-20T166 608t-10-49q0-26 7-45.5t23.5-35.5 43.5-30.5 67-29.5q39-15 73.5-33t60.5-44.5 41.5-63.5 15.5-90q0-41-15.5-78T429 44.5 361.5 1 273-15q-52 0-91.5 15T114 38.5t-45 52T45 146l79 14q6-20 16.5-39t28-34T212 62.5t62-9.5q24 0 47 7.5t41 23 29.5 40T403 182q0 39-9.5 63.5t-30 43T310 322t-79 34q-81 33-119.5 80.5T73 553q0 38 14 71.5t40 58 63.5 38.5 84.5 14q45 0 80-13t60.5-34.5T458 639t26-55l-75-14q-12 39-45 69t-87 30z"/><glyph glyph-name="T" unicode="T" horiz-adv-x="475" d="M450 646H279V0h-85v646H25v74h425v-74z"/><glyph glyph-name="U" unicode="U" horiz-adv-x="609" d="M170 720V214q0-75 31.5-118T306 53t105 43 32 118v506h81V223q0-118-56.5-178T305-15 142 45 85 223v497h85z"/><glyph glyph-name="V" unicode="V" horiz-adv-x="525" d="M515 720L321 0H207L10 720h88L265 61l172 659h78z"/><glyph glyph-name="W" unicode="W" horiz-adv-x="759" d="M734 720L614 0H512L385 624 254 0H145L25 720h87l95-626 127 626h109L562 96l94 624h78z"/><glyph glyph-name="X" unicode="X" horiz-adv-x="550" d="M320 375L515 0h-97L274 292 122 0H35l197 372L53 720h95l133-268 139 268h88z"/><glyph glyph-name="Y" unicode="Y" horiz-adv-x="512" d="M502 720L300 288V0h-84v288L10 720h93l157-344 159 344h83z"/><glyph glyph-name="Z" unicode="Z" horiz-adv-x="500" d="M129 67h311V0H40v75l322 578H63v67h387v-72z"/><glyph glyph-name="bracketleft" unicode="[" horiz-adv-x="340" d="M278-170H75v980h203v-68H153v-844h125v-68z"/><glyph glyph-name="backslash" unicode="\" horiz-adv-x="340" d="M65 720h76L350-90h-76z"/><glyph glyph-name="bracketright" unicode="]" horiz-adv-x="340" d="M62-102h125v844H62v68h203v-980H62v68z"/><glyph glyph-name="asciicircum" unicode="^" horiz-adv-x="500" d="M207 720h90l163-320h-84L252 658 124 400H40z"/><glyph glyph-name="underscore" unicode="_" horiz-adv-x="480" d="M-2-120v68h484v-68H-2z"/><glyph glyph-name="grave" unicode="`" horiz-adv-x="270" d="M240 598h-71L30 735h113z"/><glyph glyph-name="a" unicode="a" horiz-adv-x="506" d="M372 0l-18 64q-23-32-60.5-53T196-10q-25 0-52.5 7.5T93 22.5t-38 47T40 144t18 77.5 47.5 55 68 35.5 79.5 19l93 14v37q0 23-5 44t-16.5 36.5T294 487t-47 9q-43 0-71-24t-37-60l-79 14q22 57 70.5 93T252 555q84 0 129-46t45-137V0h-54zM220 54q40 0 71 16t55 42v176l-72-12q-72-12-111.5-40.5T123 150q0-51 27-73.5T220 54z"/><glyph glyph-name="b" unicode="b" horiz-adv-x="528" d="M80 0v735h80V491q25 30 59 47t79 17q34 0 64-15t53-48.5 36.5-86.5T465 276q0-140-52.5-213T266-10q-38 0-65.5 14.5T154 42l-9-42H80zm185 489q-31 0-57-16.5T160 433V93q18-19 40.5-32T250 48q29 0 53 12.5t41.5 40.5 27 72.5T381 281q0 60-8.5 100t-24 64-37 34-46.5 10z"/><glyph glyph-name="c" unicode="c" horiz-adv-x="509" d="M277 490q-27 0-51-12t-41.5-38.5T157 371t-10-103 10.5-102 27.5-66 40-35.5T274 54q25 0 45 8.5t34 23 22.5 33T388 158l81-10q-7-29-22-57t-39.5-50.5T349 4t-77-14q-35 0-72 12.5t-67.5 44-50 86T63 271q0 77 18.5 131t48.5 88 68 49.5 77 15.5q45 0 78-14t56.5-36 37-49.5T466 401l-80-12q-10 45-34 73t-75 28z"/><glyph glyph-name="d" unicode="d" horiz-adv-x="533" d="M63 271q0 140 54 212t148 72q35 0 61.5-11.5T373 512v223h80V0h-58l-17 61q-25-34-61-52.5T233-10q-34 0-64.5 15.5t-54 49-37.5 87T63 271zM266 56q31 0 57.5 17t49.5 41v341q-19 17-42 29t-50 12q-29 0-53.5-12T185 444.5 157 373t-10-107q0-60 9-100t25-64.5 37.5-35T266 56z"/><glyph glyph-name="e" unicode="e" horiz-adv-x="534" d="M282 54q25 0 44.5 7.5T360 81t23.5 27 14.5 30l70-15q-9-26-25.5-50t-40-42.5-55-29.5T277-10q-38 0-76 13.5T132 49t-50 86-19 135q0 82 18.5 136.5t48 87.5 66.5 47 75 14q103 0 155.5-71T479 257H145q1-63 13-102.5t31-62T232 62t50-8zm-6 441q-52 0-87-41.5T146 318h252q-2 87-33.5 132T276 495z"/><glyph glyph-name="f" unicode="f" horiz-adv-x="299" d="M319 667q-19 5-38 7t-34 2q-33 0-50-15t-17-50v-71h116v-65H180V0h-80v475H20v65h80v65q0 29 7.5 54t23.5 44 40.5 29.5T231 743q50 0 88-11v-65z"/><glyph glyph-name="g" unicode="g" horiz-adv-x="508" d="M468 528l-121 5q42-20 69.5-59.5T444 371q0-47-17.5-81.5t-45.5-57-63-33.5-69-11q-47 0-92 19-16-13-16-33 0-9 1.5-18.5t12-17.5 32.5-14 63-9q51-3 92-12.5T412.5 75 458 28.5 474-42q0-31-14.5-59t-43-49.5-71.5-34T245-197q-99 0-152 39T40-55q0 45 21.5 74.5T118 67q-25 14-34.5 33.5T74 143q0 29 14.5 49.5T125 225q-32 23-53 59t-21 87q0 52 19.5 87.5t48.5 57 64 30.5 67 9q23 0 43-4v31l175 20v-74zM131 371q0-57 32-91t86-34 84.5 34 30.5 91q0 60-31 93t-85 33-85.5-34.5T131 371zm89-330q-14 1-27.5 2.5T166 49q-20-17-33-38.5T120-42q0-19 6-37t20.5-32 38-22.5T244-142q43 0 71 9t44.5 23 23 31 6.5 32q0 19-6.5 33.5T358 12t-51 18-87 11z"/><glyph glyph-name="h" unicode="h" horiz-adv-x="548" d="M80 0v735h80V477q32 42 71.5 60t76.5 18q79 0 119.5-49.5T468 350V0h-80v354q0 73-24.5 104.5T285 490q-37 0-68.5-22T160 416V0H80z"/><glyph glyph-name="i" unicode="i" horiz-adv-x="240" d="M74 638v97h92v-97H74zM80 0v540h80V0H80z"/><glyph glyph-name="j" unicode="j" horiz-adv-x="240" d="M74 638v97h92v-97H74zM-44-89q13-3 29.5-5.5T14-97q35 0 50.5 17T80-14v554h80V-24q0-62-31-100.5T30-163q-16 0-36.5 3t-37.5 8v63z"/><glyph glyph-name="k" unicode="k" horiz-adv-x="505" d="M80 0v735h80V315l198 225h104L247 305 495 0H395L160 285V0H80z"/><glyph glyph-name="l" unicode="l" horiz-adv-x="240" d="M80 735h80V0H80v735z"/><glyph glyph-name="m" unicode="m" horiz-adv-x="825" d="M80 0v540h58l14-64q32 43 73.5 61t76.5 18q100 0 132-86 30 47 73.5 66.5T595 555q76 0 113-49.5T745 350V0h-80v354q0 73-21 104.5T572 490q-39 0-70-22.5T448 414q2-14 3-30.5t1-33.5V0h-80v354q0 73-21 104.5T279 490q-37 0-66.5-20.5T160 420V0H80z"/><glyph glyph-name="n" unicode="n" horiz-adv-x="548" d="M80 0v540h58l15-66q33 44 76 62.5t79 18.5q79 0 119.5-49.5T468 350V0h-80v354q0 73-24.5 104.5T285 490q-38 0-69-21.5T160 417V0H80z"/><glyph glyph-name="o" unicode="o" horiz-adv-x="565" d="M63 270q0 83 20 138t51.5 87.5 71 46T283 555t77-13 70.5-45.5T482 409t20-139-20-138-51.5-85.5-70.5-44T283-10 205.5 2.5t-71 44.5T83 133 63 270zm84 0q0-114 37.5-166.5T284 51q63 0 99 51.5T419 270q0 115-38 169.5T283 494q-59 0-97.5-55T147 270z"/><glyph glyph-name="p" unicode="p" horiz-adv-x="528" d="M80-170v710h58l14-55q25 34 61.5 52t84.5 18q34 0 64-15t53-48.5 36.5-86.5T465 276q0-140-52.5-213T266-10q-69 0-106 42v-202H80zm185 659q-31 0-57-16.5T160 433V89q17-17 39-29t51-12 53 12.5 41.5 40.5 27 72.5T381 281q0 60-8.5 100t-24 64-37 34-46.5 10z"/><glyph glyph-name="q" unicode="q" horiz-adv-x="548" d="M63 269q0 140 54 213t148 73q45 0 77-19.5t52-51.5l19 56h55v-710h-80V71q-25-38-62.5-59.5T233-10q-34 0-64.5 15t-54 48.5T77 140 63 269zM266 56q36 0 67 22.5t55 51.5v309q-20 21-46.5 39T281 496q-29 0-53.5-12.5t-42.5-40-28-72T147 264q0-60 9-100t25-64 37.5-34T266 56z"/><glyph glyph-name="r" unicode="r" horiz-adv-x="332" d="M80 0v540h58l18-79q38 92 119 92 11 0 21-1t16-3v-78q-9 2-18 3.5t-21 1.5q-20 0-37-8.5t-31-23-25-34-20-40.5V0H80z"/><glyph glyph-name="s" unicode="s" horiz-adv-x="457" d="M223-10q-70 0-118.5 31T35 103l75 22q14-32 44.5-50.5T225 56t70 22.5 30 67.5q0 26-12 44t-31.5 30-44 20.5T188 257q-72 22-103.5 57.5T53 404q0 37 14 65t38 47 55 29 65 10q36 0 64.5-9t50-25 36.5-36.5 23-43.5l-72-22q-9 31-33.5 52.5T224 493q-18 0-34-5t-29-14.5-20.5-24.5-7.5-36 8-35.5 24-25 41-19 58-18.5q66-20 104-57.5T406 154q0-37-13-67t-37-51.5T298 2t-75-12z"/><glyph glyph-name="t" unicode="t" horiz-adv-x="329" d="M299 5q-18-5-35-8t-40-3q-66 0-95 38t-29 101v342H20v65h81l6 130h73V540h116v-65H180V131q0-35 13-52.5T237 61q15 0 29 2t33 7V5z"/><glyph glyph-name="u" unicode="u" horiz-adv-x="536" d="M160 540V186q0-39 7-64t20.5-40T219 61t41-6q40 0 68 19.5t48 50.5v415h80V0h-55l-18 68q-26-40-61.5-59T244-10q-75 0-119.5 47T80 188v352h80z"/><glyph glyph-name="v" unicode="v" horiz-adv-x="465" d="M455 540L291 0H172L10 540h86L233 54l141 486h81z"/><glyph glyph-name="w" unicode="w" horiz-adv-x="720" d="M700 540L568 0H468L361 450 255 0H152L20 540h82L206 85l106 455h103L520 87l101 453h79z"/><glyph glyph-name="x" unicode="x" horiz-adv-x="500" d="M290 289L480 0h-98L243 222 105 0H20l181 284L33 540h96l119-191 117 191h82z"/><glyph glyph-name="y" unicode="y" horiz-adv-x="458" d="M292-14q-11-37-22-65t-26.5-46.5-38.5-28-59-9.5q-29 0-65 9v63q17-4 32-6t31-2q36 0 50 24t26 75h-38L10 540h85L239 53l133 487h76z"/><glyph glyph-name="z" unicode="z" horiz-adv-x="449" d="M127 69h262V0H40v82l276 390H59v68h340v-82z"/><glyph glyph-name="braceleft" unicode="{" horiz-adv-x="340" d="M34 358q36 0 57.5 20t21.5 68v197q0 85 42.5 126T297 810v-60q-60 0-84.5-19.5T188 658V468q0-66-20.5-99.5T109 321q38-14 58.5-48T188 173V-18q0-53 24.5-72.5T297-110v-60q-99 0-141.5 41T113-3v198q0 48-21.5 68T34 283v75z"/><glyph glyph-name="bar" unicode="|" horiz-adv-x="320" d="M201 800v-920h-82v920h82z"/><glyph glyph-name="braceright" unicode="}" horiz-adv-x="340" d="M306 283q-36 0-57.5-20T227 195V-3q0-85-42.5-126T43-170v60q60 0 84.5 19.5T152-18v191q0 66 20.5 100t58.5 48q-38 14-58.5 47.5T152 468v190q0 53-24.5 72.5T43 750v60q99 0 141.5-41T227 643V446q0-48 21.5-68t57.5-20v-75z"/><glyph glyph-name="asciitilde" unicode="~" horiz-adv-x="560" d="M184 309q-36 0-61.5-12T75 266v78q19 15 52 27.5t68 12.5q31 0 54-8.5t43-18 39.5-18T375 331q36 0 62 12t48 31v-78q-19-15-52-27.5T365 256q-31 0-54 8.5t-43.5 18-40 18T184 309z"/><glyph glyph-name="uni00A0" horiz-adv-x="0"/><glyph glyph-name="exclamdown" unicode="¡" horiz-adv-x="270" d="M172 300l10-480H92l10 480h70zm13 240V440H85v100h100z"/><glyph glyph-name="cent" unicode="¢" d="M244-7q-33 4-64.5 20t-57 48-41 83.5T66 271q0 68 15 118.5t39.5 84.5 56.5 53 67 25v138h72V552q36-6 62-21t44-36 29.5-45.5T469 401l-80-12q-10 45-34 73t-75 28q-27 0-51-12t-41.5-38.5T160 371t-10-103 10.5-102 27.5-66 40-35.5T277 54q25 0 45 8.5t34 23 22.5 33T391 158l81-10q-6-26-18.5-51t-32-46T376 15 316-6v-129h-72V-7z"/><glyph glyph-name="sterling" unicode="£" d="M427 354H231V172q0-37-12-63.5T181 66h291V0H60v66h7q35 2 58 25.5t23 74.5v188H70v60h78v85q0 55 15 95t39.5 66 57 38 68.5 12q70 0 111.5-35.5T496 585l-76-18q-7 35-27.5 58T329 648q-45 0-71.5-33.5T231 499v-85h196v-60z"/><glyph glyph-name="currency" unicode="¤" horiz-adv-x="600" d="M105 191q-19 28-30 64.5T64 340q0 45 10 81.5t28 65.5l-61 62 48 48 58-58q33 28 73 41.5t79 13.5 79-14 73-43l60 60 48-48-64-64q17-29 27.5-64.5T533 340q0-48-10.5-83.5T493 192l66-65-48-48-63 63q-33-26-72-38.5T299 91t-77 12-71 38L89 79l-48 48zm29 149q0-91 46.5-139.5T300 152t118 48.5T463 340q0 45-12 80.5t-33.5 60-52 38T299 532t-66.5-13.5-52.5-38-34-60-12-80.5z"/><glyph glyph-name="yen" unicode="¥" d="M236 0v140H80v60h156v80H80v59h129L36 700h90l149-342 151 342h82L337 340h123v-60H311v-80h149v-60H311V0h-75z"/><glyph glyph-name="brokenbar" unicode="¦" horiz-adv-x="320" d="M201 800V420h-82v380h82zm0-540v-380h-82v380h82z"/><glyph glyph-name="section" unicode="§" d="M81 308q0 46 24 77t62 49q-27 17-46 48t-19 79q0 37 14.5 64.5t39 46.5 56 28.5T277 710q33 0 61.5-9t50.5-25 37.5-36.5T450 596l-67-21q-9 31-36.5 53T274 650q-18 0-35-5t-30.5-14.5T187 606t-8-36q0-45 32-68t93-38q69-17 112-56t43-106q0-48-24.5-78.5T372 175q28-17 47-47.5T438 49q0-37-15-65t-39.5-46.5-56-28T262-100q-33 0-61 9t-50.5 25-38 36.5T89 14l67 21q9-31 37-53t73-22q18 0 35 5t30.5 14.5T353 4t8 36q0 45-32 68t-93 38q-69 17-112 56T81 308zm79 8q0-29 11.5-48t31-31 45.5-20 56-16q30 9 53 32t23 61q0 29-11.5 47.5t-31 30.5-46 20.5T236 409q-30-10-53-32.5T160 316z"/><glyph glyph-name="dieresis" unicode="¨" horiz-adv-x="360" d="M30 635v90h95v-90H30zm205 0v90h95v-90h-95z"/><glyph glyph-name="copyright" unicode="©" horiz-adv-x="843" d="M426 207q35 0 49.5 20.5T496 275l63-9q-5-23-15.5-43T516 188t-41-24-55-9q-23 0-47.5 8.5T327 195t-34.5 63T279 361q0 62 13.5 102t34.5 63 47 32 50 9q30 0 52-9t37.5-24 25-34 14.5-39l-64-9q-6 25-19.5 44.5T423 516q-15 0-28.5-7.5T370 483t-17.5-47.5T346 361t7-74.5 18.5-47 25.5-25 29-7.5zm357 153q0-99-32-169.5T667.5 74 551 6.5 421-15 291 6.5 174.5 74 91 190.5 59 360t32 169.5T174.5 646 291 713.5 421 735t130-21.5T667.5 646 751 529.5 783 360zm-68 0q0 81-25 141.5t-66 100-94 59.5-109 20-109-20-94-59.5-66-100T127 360t25-141.5 66-100T312 59t109-20 109 20 94 59.5 66 100T715 360z"/><glyph glyph-name="ordfeminine" unicode="ª" horiz-adv-x="475" d="M343 318l-19 49q-20-25-49.5-40T202 312q-54 0-90 29.5T76 422q0 39 14.5 65t37 42.5 50 24.5 53.5 11l84 11v36q0 12-4 24.5T299 659t-21 16.5-32 6.5q-24 0-45.5-14.5T170 626l-74 9q14 42 54 71t103 29q61 0 101-34t40-103V318h-51zM95 0v70h305V0H95zm138 366q27 0 47 11.5t35 28.5v120l-58-8q-46-6-74-24.5T155 432q0-20 7.5-32.5t18.5-20 25-10.5 27-3z"/><glyph glyph-name="guillemotleft" unicode="«" horiz-adv-x="490" d="M60 326l117 205h64l-92-208 82-222h-64zm179 0l117 205h64l-92-208 82-222h-64z"/><glyph glyph-name="logicalnot" unicode="¬" d="M402 141v147H65v70h410V141h-73z"/><glyph glyph-name="uni00AD" unicode="­" horiz-adv-x="425" d="M60 287v72h305v-72H60z"/><glyph glyph-name="registered" unicode="®" horiz-adv-x="614" d="M544 493q0-65-22-111t-56.5-75-76.5-42.5-82-13.5-82 13.5-76.5 42.5T92 382 70 493t22 111 56.5 75 76.5 42.5 82 13.5 82-13.5 76.5-42.5 56.5-75 22-111zm-59 0q0 52-15 89t-40 60-57 33.5-66 10.5-66-10.5-57-33.5-40-60-15-89q0-53 15-89.5t40-59.5 57-33.5 66-10.5 66 10.5 57 33.5 40 59.5 15 89.5zM349 367l-50 93h-17v-93h-50v255h74q38 0 64-20t26-59q0-26-12.5-44T350 471l57-104h-58zm-67 215v-81h23q17 0 27.5 11.5T343 543q0 18-10.5 28.5T303 582h-21z"/><glyph glyph-name="macron" unicode="¯" horiz-adv-x="330" d="M30 646v69h270v-69H30z"/><glyph glyph-name="degree" unicode="°" horiz-adv-x="355" d="M40 566q0 35 11.5 62T82 673t44 27.5 52 9.5 52-9.5 44-27.5 30-45 11-62-11-61.5-30-44.5-44-27-52-9-52 9-44 27-30.5 44.5T40 566zm68 0q0-42 18.5-66t51.5-24 51.5 24 18.5 66-18.5 67-51.5 25-51.5-25-18.5-67z"/><glyph glyph-name="plusminus" unicode="±" d="M231 288H65v70h166v163h78V358h166v-70H309V142h-78v146zM65 0v70h410V0H65z"/><glyph glyph-name="twosuperior" unicode="²" horiz-adv-x="340" d="M169 754q-24 0-39-16.5T111 702l-71 10q11 42 46 70t89 28q25 0 47.5-6.5T262 783t27.5-36 10.5-53q0-38-25.5-70.5T217 559l-79-79h160v-60H47v60l132 134q16 16 30.5 37.5T224 697q0 21-12 39t-43 18z"/><glyph glyph-name="threesuperior" unicode="³" horiz-adv-x="340" d="M167 469q31 0 45.5 18.5T227 536q0 37-20 48t-47 11h-13v51h18q22 0 37 14.5t15 43.5q0 20-14 35t-39 15q-24 0-39-14.5T105 701l-69 9q12 48 50 74t85 26q21 0 42.5-6t38.5-19 27.5-33 10.5-47q0-26-15-48t-46-32q14-3 27.5-10t24-18 16.5-27.5 6-38.5q0-29-10.5-50.5t-29-36.5-43-22.5T168 414q-53 0-88.5 29.5T36 514l71 9q4-20 18.5-37t41.5-17z"/><glyph glyph-name="acute" unicode="´" horiz-adv-x="270" d="M127 735h113L100 598H30z"/><glyph glyph-name="uni00B5" unicode="µ" horiz-adv-x="536" d="M160 540V186q0-39 7-64.5t20.5-40T219 61t41-6q42 0 69 20t47 51v414h80V0h-55l-17 65q-23-40-55.5-57.5T254-10q-29 0-53 11t-41 28v-199H80v710h80z"/><glyph glyph-name="paragraph" unicode="¶" horiz-adv-x="550" d="M211 0v375q-19 0-44.5 3.5T118 398t-39 48.5T63 537q0 55 16 87t39 49 48.5 22 44.5 5h76V0h-76zm239 700V0h-76v700h76z"/><glyph glyph-name="periodcentered" unicode="·" horiz-adv-x="315" d="M107 273v100h100V273H107z"/><glyph glyph-name="cedilla" unicode="¸" horiz-adv-x="279" d="M249-142q0-45-33-72t-84-27q-29 0-56 7t-46 18l30 45q11-5 27.5-9t31.5-4q23 0 41 9.5t18 36.5q0 24-25.5 34.5T90-88l20 108h62l-5-71q42-9 62-34t20-57z"/><glyph glyph-name="onesuperior" unicode="¹" horiz-adv-x="340" d="M54 420v62h92v246l-95-56v73l91 55h73V482h74v-62H54z"/><glyph glyph-name="ordmasculine" unicode="º" horiz-adv-x="475" d="M70 521q0 59 14 100t37 66.5 53.5 36.5 63.5 11 63-11 53.5-36.5 37-66.5T405 521t-13.5-99.5-36.5-65-53.5-35T238 311t-63.5 10.5-54 35-37 65T70 521zm80 0q0-81 25.5-117.5T239 367t62.5 36.5T326 521t-24.5 119-63.5 38-63.5-38T150 521zM87 0v70h303V0H87z"/><glyph glyph-name="guillemotright" unicode="»" horiz-adv-x="490" d="M323 101h-64l82 222-92 208h64l117-205zm-179 0H80l82 222-92 208h64l117-205z"/><glyph glyph-name="onequarter" unicode="¼" horiz-adv-x="840" d="M79 321v62h92v246l-95-56v73l91 55h73V383h74v-62H79zm628-80V130h56V72h-56V1h-66v71H494v62l84 247h71l-88-251h82l11 111h53zM244-100h-86l467 910h86z"/><glyph glyph-name="onehalf" unicode="½" horiz-adv-x="840" d="M639 335q-24 0-39-16.5T581 283l-71 10q11 42 46 70t89 28q25 0 47.5-6.5T732 364t27.5-36 10.5-53q0-38-25.5-70.5T687 140l-79-79h160V1H517v60l132 134q16 16 30.5 37.5T694 278q0 21-12 39t-43 18zM72 321v62h92v246l-95-56v73l91 55h73V383h74v-62H72zm165-421h-86l467 910h86z"/><glyph glyph-name="threequarters" unicode="¾" horiz-adv-x="840" d="M205 370q31 0 45.5 18.5T265 437q0 37-20 48t-47 11h-13v51h18q22 0 37 14.5t15 43.5q0 20-14 35t-39 15q-24 0-39-14.5T143 602l-69 9q12 48 50 74t85 26q21 0 42.5-6t38.5-19 27.5-33 10.5-47q0-26-15-48t-46-32q14-3 27.5-10t24-18 16.5-27.5 6-38.5q0-29-10.5-50.5t-29-36.5-43-22.5T206 315q-53 0-88.5 29.5T74 415l71 9q4-20 18.5-37t41.5-17zm505-129V130h56V72h-56V1h-66v71H497v62l84 247h71l-88-251h82l11 111h53zM247-100h-86l467 910h86z"/><glyph glyph-name="questiondown" unicode="¿" horiz-adv-x="484" d="M235-130q45 0 76.5 29.5T350-26l79-12q-9-36-27.5-65T357-152.5 299-184t-67-11q-81 0-129 42.5T55-32q0 36 10.5 62t26 47 34 37.5 34 33.5 26 35.5T196 227v93h82V213q0-28-10.5-49.5t-26-40-33.5-35T174.5 54t-26-39.5T138-34q0-18 5.5-35.5t17-31 30-21.5 44.5-8zm52 670V435H182v105h105z"/><glyph glyph-name="Agrave" unicode="À" horiz-adv-x="553" d="M453 0l-52 187H147L94 0H10l216 720h102L543 0h-90zM165 252h218L276 642zm179 516h-72L130 885h119z"/><glyph glyph-name="Aacute" unicode="Á" horiz-adv-x="553" d="M453 0l-52 187H147L94 0H10l216 720h102L543 0h-90zM165 252h218L276 642zm139 633h119L281 768h-72z"/><glyph glyph-name="Acircumflex" unicode="Â" horiz-adv-x="553" d="M453 0l-52 187H147L94 0H10l216 720h102L543 0h-90zM165 252h218L276 642zm269 516h-90l-68 51-68-51h-90l119 117h78z"/><glyph glyph-name="Atilde" unicode="Ã" horiz-adv-x="553" d="M453 0l-52 187H147L94 0H10l216 720h102L543 0h-90zM165 252h218L276 642zm173 516q-24 0-39.5 6T271 787t-24 13-29 6-40-10-45-27v71q22 16 45 25t44 9q24 0 39.5-6t27.5-13 24-13 29-6 38 10 43 27v-71q-22-16-43-25t-42-9z"/><glyph glyph-name="Adieresis" unicode="Ä" horiz-adv-x="553" d="M453 0l-52 187H147L94 0H10l216 720h102L543 0h-90zM165 252h218L276 642zm-38 533v90h95v-90h-95zm205 0v90h95v-90h-95z"/><glyph glyph-name="Aring" unicode="Å" horiz-adv-x="553" d="M160 806q0 54 33.5 84t84.5 30 84-28.5 33-85.5q0-38-17-63.5T332 704L543 0h-90l-52 187H147L94 0H10l211 705q-28 13-44.5 38.5T160 806zm5-554h218L276 642zm58 554q0-30 15-46.5t40-16.5 39.5 16.5T332 806t-14.5 47.5T278 871t-40-17.5-15-47.5z"/><glyph glyph-name="AE" unicode="Æ" horiz-adv-x="820" d="M760 0H457l-40 187H161L94 0H10l275 720h440v-65H397l58-258h265v-64H469l59-268h232V0zM185 252h218l-80 382z"/><glyph glyph-name="Ccedilla" unicode="Ç" horiz-adv-x="582" d="M423-142q0-45-33-72t-84-27q-29 0-56 7t-46 18l30 47q11-5 27.5-9t31.5-4q23 0 41 8.5t18 35.5q0 24-25.5 34.5T264-88l14 76q-37 6-74 27t-67 64-48.5 111.5T70 360q0 112 23 185t59 115 80.5 58.5T320 735q47 0 82.5-14.5T463 683t41-52 24-57l-82-11q-15 48-44.5 76.5T320 668q-34 0-63.5-14.5t-51.5-50-34.5-94.5T158 360q0-89 13-148t34.5-94T256 68t62-15q54 0 86.5 29t49.5 83l83-8q-23-72-69-117.5T343-14l-2-37q42-9 62-34t20-57z"/><glyph glyph-name="Egrave" unicode="È" horiz-adv-x="500" d="M410 333H175V68h265V0H90v720h350v-68H175V399h235v-66zm-78 435h-72L118 885h119z"/><glyph glyph-name="Eacute" unicode="É" horiz-adv-x="500" d="M410 333H175V68h265V0H90v720h350v-68H175V399h235v-66zM286 888h119L263 771h-72z"/><glyph glyph-name="Ecircumflex" unicode="Ê" horiz-adv-x="500" d="M410 333H175V68h265V0H90v720h350v-68H175V399h235v-66zm14 435h-90l-68 51-68-51h-90l119 117h78z"/><glyph glyph-name="Edieresis" unicode="Ë" horiz-adv-x="500" d="M410 333H175V68h265V0H90v720h350v-68H175V399h235v-66zM116 785v90h95v-90h-95zm205 0v90h95v-90h-95z"/><glyph glyph-name="Igrave" unicode="Ì" horiz-adv-x="265" d="M175 720V0H90v720h85zm35 48h-72L-4 885h119z"/><glyph glyph-name="Iacute" unicode="Í" horiz-adv-x="265" d="M175 720V0H90v720h85zm-24 165h119L128 768H56z"/><glyph glyph-name="Icircumflex" unicode="Î" horiz-adv-x="265" d="M175 720V0H90v720h85zm116 48h-90l-68 51-68-51h-90L94 885h78z"/><glyph glyph-name="Idieresis" unicode="Ï" horiz-adv-x="265" d="M175 720V0H90v720h85zm-191 65v90h95v-90h-95zm205 0v90h95v-90h-95z"/><glyph glyph-name="Eth" unicode="Ð" horiz-adv-x="621" d="M100 351H30v65h70v304h147q53 0 107-14t98-53.5 71.5-110T551 360q0-113-30.5-183t-76-109.5-99-53.5T246 0H100v351zm85 0V66h66q39 0 77.5 11.5T397 121t49 89.5T465 360t-20 150-51.5 90.5T324 645t-75 12h-64V416h184v-65H185z"/><glyph glyph-name="Ntilde" unicode="Ñ" horiz-adv-x="601" d="M511 720V0H400L171 603V0H90v720h114l228-596v596h79zm-147 52q-24 0-39.5 6T297 791t-24 13-29 6-40-10-45-27v71q22 16 45 25t44 9q24 0 39.5-6t27.5-13 24-13 29-6 38 10 43 27v-71q-22-16-43-25t-42-9z"/><glyph glyph-name="Ograve" unicode="Ò" horiz-adv-x="658" d="M70 360q0 105 22 176.5T150 652t82.5 63.5T329 735q49 0 96-19.5t83-63.5 58-115.5T588 360t-22-176.5T508 68 425 4.5 329-15q-50 0-96.5 19.5T150 68 92 183.5 70 360zm87 0q0-153 42.5-231.5T329 50t129.5 78.5T501 360t-42.5 231.5T329 670t-129.5-78.5T157 360zm229 408h-72L172 885h119z"/><glyph glyph-name="Oacute" unicode="Ó" horiz-adv-x="658" d="M70 360q0 105 22 176.5T150 652t82.5 63.5T329 735q49 0 96-19.5t83-63.5 58-115.5T588 360t-22-176.5T508 68 425 4.5 329-15q-50 0-96.5 19.5T150 68 92 183.5 70 360zm87 0q0-153 42.5-231.5T329 50t129.5 78.5T501 360t-42.5 231.5T329 670t-129.5-78.5T157 360zm208 525h119L342 768h-72z"/><glyph glyph-name="Ocircumflex" unicode="Ô" horiz-adv-x="658" d="M70 360q0 105 22 176.5T150 652t82.5 63.5T329 735q49 0 96-19.5t83-63.5 58-115.5T588 360t-22-176.5T508 68 425 4.5 329-15q-50 0-96.5 19.5T150 68 92 183.5 70 360zm87 0q0-153 42.5-231.5T329 50t129.5 78.5T501 360t-42.5 231.5T329 670t-129.5-78.5T157 360zm330 408h-90l-68 51-68-51h-90l119 117h78z"/><glyph glyph-name="Otilde" unicode="Õ" horiz-adv-x="658" d="M70 360q0 105 22 176.5T150 652t82.5 63.5T329 735q49 0 96-19.5t83-63.5 58-115.5T588 360t-22-176.5T508 68 425 4.5 329-15q-50 0-96.5 19.5T150 68 92 183.5 70 360zm87 0q0-153 42.5-231.5T329 50t129.5 78.5T501 360t-42.5 231.5T329 670t-129.5-78.5T157 360zm232 410q-24 0-39.5 6T322 789t-24 13-29 6-40-10-45-27v71q22 16 45 25t44 9q24 0 39.5-6t27.5-13 24-13 29-6 38 10 43 27v-71q-22-16-43-25t-42-9z"/><glyph glyph-name="Odieresis" unicode="Ö" horiz-adv-x="658" d="M70 360q0 105 22 176.5T150 652t82.5 63.5T329 735q49 0 96-19.5t83-63.5 58-115.5T588 360t-22-176.5T508 68 425 4.5 329-15q-50 0-96.5 19.5T150 68 92 183.5 70 360zm87 0q0-153 42.5-231.5T329 50t129.5 78.5T501 360t-42.5 231.5T329 670t-129.5-78.5T157 360zm21 425v90h95v-90h-95zm205 0v90h95v-90h-95z"/><glyph glyph-name="multiply" unicode="×" d="M270 267L134 131l-54 54 136 136L80 457l54 54 136-136 136 136 54-54-136-136 136-136-54-54z"/><glyph glyph-name="Oslash" unicode="Ø" horiz-adv-x="658" d="M70 360q0 105 22 176.5T150 652t82.5 63.5T329 735q25 0 49.5-4.5T426 715l39 105h70l-52-141q47-42 76-119.5T588 360q0-105-22-176.5T508 68 425 4.5 329-15q-52 0-96 19l-39-106h-70l52 142q-47 42-76.5 119.5T70 360zm87 0q0-170 52-246l194 536q-32 20-74 20-87 0-129.5-78.5T157 360zm344 0q0 165-52 244L254 70q35-20 75-20 87 0 129.5 78.5T501 360z"/><glyph glyph-name="Ugrave" unicode="Ù" horiz-adv-x="609" d="M170 720V214q0-75 31.5-118T306 53t105 43 32 118v506h81V223q0-118-56.5-178T305-15 142 45 85 223v497h85zm193 48h-72L149 885h119z"/><glyph glyph-name="Uacute" unicode="Ú" horiz-adv-x="609" d="M170 720V214q0-75 31.5-118T306 53t105 43 32 118v506h81V223q0-118-56.5-178T305-15 142 45 85 223v497h85zm174 165h119L321 768h-72z"/><glyph glyph-name="Ucircumflex" unicode="Û" horiz-adv-x="609" d="M170 720V214q0-75 31.5-118T306 53t105 43 32 118v506h81V223q0-118-56.5-178T305-15 142 45 85 223v497h85zm293 46h-90l-68 51-68-51h-90l119 117h78z"/><glyph glyph-name="Udieresis" unicode="Ü" horiz-adv-x="609" d="M170 720V214q0-75 31.5-118T306 53t105 43 32 118v506h81V223q0-118-56.5-178T305-15 142 45 85 223v497h85zm-14 65v90h95v-90h-95zm205 0v90h95v-90h-95z"/><glyph glyph-name="Yacute" unicode="Ý" horiz-adv-x="512" d="M502 720L300 288V0h-84v288L10 720h93l157-344 159 344h83zM308 885h119L285 768h-72z"/><glyph glyph-name="Thorn" unicode="Þ" horiz-adv-x="563" d="M175 720V596h69q53 0 98.5-13.5t79-42 52.5-73T493 361q0-61-20-104.5t-54.5-71T338 145t-98-13h-65V0H90v720h85zm0-189V197h67q79 0 121.5 38T406 361q0 85-42.5 127.5T246 531h-71z"/><glyph glyph-name="germandbls" unicode="ß" horiz-adv-x="574" d="M529 160q0-43-13.5-75t-37-53-54-31.5T361-10q-32 0-57 7t-44.5 18.5-33 25.5T205 69l70 32q10-17 31.5-31.5T361 55q18 0 34 6.5t28.5 19 20 31.5 7.5 43q0 22-7 38t-18.5 29-27 23-33.5 20q-20 11-38.5 23.5T294 317t-22.5 36-8.5 46q0 29 8.5 49.5t22.5 35 32 23.5 37 15q5 16 7.5 31t2.5 39q0 39-26.5 65.5T272 684q-54 0-83-36t-29-96V0H80v533q0 52 14 92t39.5 66.5 61 40T272 745q81 0 125.5-42.5T442 587q0-17-3.5-47.5T418 476q-36-6-57.5-21.5T339 409q0-15 4.5-26t15-21 27.5-20 41-23q42-22 72-59t30-100z"/><glyph glyph-name="agrave" unicode="à" horiz-adv-x="506" d="M372 0l-18 64q-23-32-60.5-53T196-10q-25 0-52.5 7.5T93 22.5t-38 47T40 144t18 77.5 47.5 55 68 35.5 79.5 19l93 14v37q0 23-5 44t-16.5 36.5T294 487t-47 9q-43 0-71-24t-37-60l-79 14q22 57 70.5 93T252 555q84 0 129-46t45-137V0h-54zM220 54q40 0 71 16t55 42v176l-72-12q-72-12-111.5-40.5T123 150q0-51 27-73.5T220 54zm84 544h-71L94 735h113z"/><glyph glyph-name="aacute" unicode="á" horiz-adv-x="506" d="M372 0l-18 64q-23-32-60.5-53T196-10q-25 0-52.5 7.5T93 22.5t-38 47T40 144t18 77.5 47.5 55 68 35.5 79.5 19l93 14v37q0 23-5 44t-16.5 36.5T294 487t-47 9q-43 0-71-24t-37-60l-79 14q22 57 70.5 93T252 555q84 0 129-46t45-137V0h-54zM220 54q40 0 71 16t55 42v176l-72-12q-72-12-111.5-40.5T123 150q0-51 27-73.5T220 54zm78 681h113L271 598h-70z"/><glyph glyph-name="acircumflex" unicode="â" horiz-adv-x="506" d="M372 0l-18 64q-23-32-60.5-53T196-10q-25 0-52.5 7.5T93 22.5t-38 47T40 144t18 77.5 47.5 55 68 35.5 79.5 19l93 14v37q0 23-5 44t-16.5 36.5T294 487t-47 9q-43 0-71-24t-37-60l-79 14q22 57 70.5 93T252 555q84 0 129-46t45-137V0h-54zM220 54q40 0 71 16t55 42v176l-72-12q-72-12-111.5-40.5T123 150q0-51 27-73.5T220 54zm185 545h-85l-73 66-73-66H89l122 136h72z"/><glyph glyph-name="atilde" unicode="ã" horiz-adv-x="506" d="M372 0l-18 64q-23-32-60.5-53T196-10q-25 0-52.5 7.5T93 22.5t-38 47T40 144t18 77.5 47.5 55 68 35.5 79.5 19l93 14v37q0 23-5 44t-16.5 36.5T294 487t-47 9q-43 0-71-24t-37-60l-79 14q22 57 70.5 93T252 555q84 0 129-46t45-137V0h-54zM220 54q40 0 71 16t55 42v176l-72-12q-72-12-111.5-40.5T123 150q0-51 27-73.5T220 54zm85 568q-24 0-39.5 6T238 641t-24 13-29 6-40-10-45-27v71q22 16 45 25t44 9q24 0 39.5-6t27.5-13 24-13 29-6 38 10 43 27v-71q-22-16-43-25t-42-9z"/><glyph glyph-name="adieresis" unicode="ä" horiz-adv-x="506" d="M372 0l-18 64q-23-32-60.5-53T196-10q-25 0-52.5 7.5T93 22.5t-38 47T40 144t18 77.5 47.5 55 68 35.5 79.5 19l93 14v37q0 23-5 44t-16.5 36.5T294 487t-47 9q-43 0-71-24t-37-60l-79 14q22 57 70.5 93T252 555q84 0 129-46t45-137V0h-54zM220 54q40 0 71 16t55 42v176l-72-12q-72-12-111.5-40.5T123 150q0-51 27-73.5T220 54zM97 635v90h95v-90H97zm205 0v90h95v-90h-95z"/><glyph glyph-name="aring" unicode="å" horiz-adv-x="506" d="M372 0l-18 64q-23-32-60.5-53T196-10q-25 0-52.5 7.5T93 22.5t-38 47T40 144t18 77.5 47.5 55 68 35.5 79.5 19l93 14v37q0 23-5 44t-16.5 36.5T294 487t-47 9q-43 0-71-24t-37-60l-79 14q22 57 70.5 93T252 555q84 0 129-46t45-137V0h-54zM220 54q40 0 71 16t55 42v176l-72-12q-72-12-111.5-40.5T123 150q0-51 27-73.5T220 54zm-90 642q0 54 33.5 84t84.5 30 84-28.5 33-85.5q0-54-33-83t-84-29-84.5 29-33.5 83zm63 0q0-30 15-46.5t40-16.5 39.5 16.5T302 696t-14.5 47.5T248 761t-40-17.5-15-47.5z"/><glyph glyph-name="ae" unicode="æ" horiz-adv-x="809" d="M557 54q25 0 44.5 7.5T635 81t23.5 27 14.5 30l70-15q-9-26-25.5-50t-40-42.5-55-29.5T552-10q-49 0-93.5 22T384 90q-12-20-28.5-38T316 20 263-2t-69-8q-26 0-53 7.5t-49.5 25-37 47T40 144t18 77.5 47.5 55 68 35.5 79.5 19l93 14v37q0 23-5 43.5T324.5 461 294 485t-47 9q-43 0-71-23.5T139 411l-79 13q22 57 71 93t121 36q103 0 143-79 28 45 67 63t84 18q103 0 155.5-71T754 257H420q1-63 13-102.5t31-62T507 62t50-8zm-337 0q48 0 78 19.5t48 50.5v164l-72-12q-72-11-111.5-42.5T123 150q0-51 27-73.5T220 54zm331 441q-52 0-87-41.5T421 318h252q-2 87-33.5 132T551 495z"/><glyph glyph-name="ccedilla" unicode="ç" horiz-adv-x="509" d="M380-142q0-45-33-72t-84-27q-29 0-56 7t-46 18l30 45q11-5 27.5-9t31.5-4q23 0 41 9.5t18 36.5q0 24-25.5 34.5T221-88l15 81q-32 5-63 21.5t-55.5 49-39.5 83T63 271q0 77 18.5 131t48.5 88 68 49.5 77 15.5q45 0 78-14t56.5-36 37-49.5T466 401l-80-12q-10 45-34 73t-75 28q-27 0-51-12t-41.5-38.5T157 371t-10-103 10.5-102 27.5-66 40-35.5T274 54q25 0 45 8.5t34 23 22.5 33T388 158l81-10q-7-27-20.5-53t-34-47.5-49-36.5T301-8l-3-43q42-9 62-34t20-57z"/><glyph glyph-name="egrave" unicode="è" horiz-adv-x="534" d="M282 54q25 0 44.5 7.5T360 81t23.5 27 14.5 30l70-15q-9-26-25.5-50t-40-42.5-55-29.5T277-10q-38 0-76 13.5T132 49t-50 86-19 135q0 82 18.5 136.5t48 87.5 66.5 47 75 14q103 0 155.5-71T479 257H145q1-63 13-102.5t31-62T232 62t50-8zm-6 441q-52 0-87-41.5T146 318h252q-2 87-33.5 132T276 495zm56 103h-71L122 735h113z"/><glyph glyph-name="eacute" unicode="é" horiz-adv-x="534" d="M282 54q25 0 44.5 7.5T360 81t23.5 27 14.5 30l70-15q-9-26-25.5-50t-40-42.5-55-29.5T277-10q-38 0-76 13.5T132 49t-50 86-19 135q0 82 18.5 136.5t48 87.5 66.5 47 75 14q103 0 155.5-71T479 257H145q1-63 13-102.5t31-62T232 62t50-8zm-6 441q-52 0-87-41.5T146 318h252q-2 87-33.5 132T276 495zm40 240h113L289 598h-70z"/><glyph glyph-name="ecircumflex" unicode="ê" horiz-adv-x="534" d="M282 54q25 0 44.5 7.5T360 81t23.5 27 14.5 30l70-15q-9-26-25.5-50t-40-42.5-55-29.5T277-10q-38 0-76 13.5T132 49t-50 86-19 135q0 82 18.5 136.5t48 87.5 66.5 47 75 14q103 0 155.5-71T479 257H145q1-63 13-102.5t31-62T232 62t50-8zm-6 441q-52 0-87-41.5T146 318h252q-2 87-33.5 132T276 495zm159 104h-85l-73 66-73-66h-85l122 136h72z"/><glyph glyph-name="edieresis" unicode="ë" horiz-adv-x="534" d="M282 54q25 0 44.5 7.5T360 81t23.5 27 14.5 30l70-15q-9-26-25.5-50t-40-42.5-55-29.5T277-10q-38 0-76 13.5T132 49t-50 86-19 135q0 82 18.5 136.5t48 87.5 66.5 47 75 14q103 0 155.5-71T479 257H145q1-63 13-102.5t31-62T232 62t50-8zm-6 441q-52 0-87-41.5T146 318h252q-2 87-33.5 132T276 495zM127 635v90h95v-90h-95zm205 0v90h95v-90h-95z"/><glyph glyph-name="igrave" unicode="ì" horiz-adv-x="240" d="M80 0v540h80V0H80zm106 598h-71L-24 735H89z"/><glyph glyph-name="iacute" unicode="í" horiz-adv-x="240" d="M80 0v540h80V0H80zm72 735h113L125 598H55z"/><glyph glyph-name="icircumflex" unicode="î" horiz-adv-x="240" d="M279 599h-85l-73 66-73-66h-85L85 735h72zM80 0v540h80V0H80z"/><glyph glyph-name="idieresis" unicode="ï" horiz-adv-x="240" d="M80 0v540h80V0H80zM-29 635v90h95v-90h-95zm205 0v90h95v-90h-95z"/><glyph glyph-name="eth" unicode="ð" horiz-adv-x="484" d="M434 345q0-171-47-263T231-10q-38 0-72.5 15t-61 45.5-42 75.5T40 231q0 48 9.5 91.5t30.5 76 53.5 52T213 470q46 0 80.5-20t58.5-49q-7 66-31 113t-56 79l-35-37h-82l70 73q-29 19-58 29.5T106 674l23 61q30-8 66-21t71-34l38 40h82l-71-75q25-21 46.5-49.5t37.5-65 25.5-82.5 9.5-103zm-207 62q-51 0-78.5-45.5T121 225q0-48 9.5-81.5t25.5-54T192.5 60t41.5-9q61 0 89.5 68T354 343q-24 24-56.5 44T227 407z"/><glyph glyph-name="ntilde" unicode="ñ" horiz-adv-x="548" d="M80 0v540h58l15-66q33 44 76 62.5t79 18.5q79 0 119.5-49.5T468 350V0h-80v354q0 73-24.5 104.5T285 490q-38 0-69-21.5T160 417V0H80zm258 618q-24 0-39.5 6T271 637t-24 13-29 6-40-10-45-27v71q22 16 45 25t44 9q24 0 39.5-6t27.5-13 24-13 29-6 38 10 43 27v-71q-22-16-43-25t-42-9z"/><glyph glyph-name="ograve" unicode="ò" horiz-adv-x="565" d="M63 270q0 83 20 138t51.5 87.5 71 46T283 555t77-13 70.5-45.5T482 409t20-139-20-138-51.5-85.5-70.5-44T283-10 205.5 2.5t-71 44.5T83 133 63 270zm84 0q0-114 37.5-166.5T284 51q63 0 99 51.5T419 270q0 115-38 169.5T283 494q-59 0-97.5-55T147 270zm192 328h-71L129 735h113z"/><glyph glyph-name="oacute" unicode="ó" horiz-adv-x="565" d="M63 270q0 83 20 138t51.5 87.5 71 46T283 555t77-13 70.5-45.5T482 409t20-139-20-138-51.5-85.5-70.5-44T283-10 205.5 2.5t-71 44.5T83 133 63 270zm84 0q0-114 37.5-166.5T284 51q63 0 99 51.5T419 270q0 115-38 169.5T283 494q-59 0-97.5-55T147 270zm176 465h113L296 598h-70z"/><glyph glyph-name="ocircumflex" unicode="ô" horiz-adv-x="565" d="M63 270q0 83 20 138t51.5 87.5 71 46T283 555t77-13 70.5-45.5T482 409t20-139-20-138-51.5-85.5-70.5-44T283-10 205.5 2.5t-71 44.5T83 133 63 270zm84 0q0-114 37.5-166.5T284 51q63 0 99 51.5T419 270q0 115-38 169.5T283 494q-59 0-97.5-55T147 270zm294 329h-85l-73 66-73-66h-85l122 136h72z"/><glyph glyph-name="otilde" unicode="õ" horiz-adv-x="565" d="M63 270q0 83 20 138t51.5 87.5 71 46T283 555t77-13 70.5-45.5T482 409t20-139-20-138-51.5-85.5-70.5-44T283-10 205.5 2.5t-71 44.5T83 133 63 270zm84 0q0-114 37.5-166.5T284 51q63 0 99 51.5T419 270q0 115-38 169.5T283 494q-59 0-97.5-55T147 270zm196 350q-24 0-39.5 6T276 639t-24 13-29 6-40-10-45-27v71q22 16 45 25t44 9q24 0 39.5-6t27.5-13 24-13 29-6 38 10 43 27v-71q-22-16-43-25t-42-9z"/><glyph glyph-name="odieresis" unicode="ö" horiz-adv-x="565" d="M63 270q0 83 20 138t51.5 87.5 71 46T283 555t77-13 70.5-45.5T482 409t20-139-20-138-51.5-85.5-70.5-44T283-10 205.5 2.5t-71 44.5T83 133 63 270zm84 0q0-114 37.5-166.5T284 51q63 0 99 51.5T419 270q0 115-38 169.5T283 494q-59 0-97.5-55T147 270zm-14 365v90h95v-90h-95zm205 0v90h95v-90h-95z"/><glyph glyph-name="divide" unicode="÷" d="M220 51v100h100V51H220zm0 438v100h100V489H220zM65 288v70h410v-70H65z"/><glyph glyph-name="oslash" unicode="ø" horiz-adv-x="565" d="M63 270q0 83 20 138t51.5 87.5 71 46T283 555q48 0 90-19l45 97h70l-61-133q33-32 54-87.5T502 270q0-84-20-138t-51.5-85.5-70.5-44T283-10q-21 0-43 3.5T198 5l-50-107H76l66 142q-35 31-57 86.5T63 270zm84 0q0-54 8.5-93.5T180 111l167 363q-29 20-64 20-59 0-97.5-55T147 270zm272 0q0 51-8.5 89.5T388 426L223 66q27-15 61-15 63 0 99 51.5T419 270z"/><glyph glyph-name="ugrave" unicode="ù" horiz-adv-x="536" d="M160 540V186q0-39 7-64t20.5-40T219 61t41-6q40 0 68 19.5t48 50.5v415h80V0h-55l-18 68q-26-40-61.5-59T244-10q-75 0-119.5 47T80 188v352h80zm162 58h-71L112 735h113z"/><glyph glyph-name="uacute" unicode="ú" horiz-adv-x="536" d="M160 540V186q0-39 7-64t20.5-40T219 61t41-6q40 0 68 19.5t48 50.5v415h80V0h-55l-18 68q-26-40-61.5-59T244-10q-75 0-119.5 47T80 188v352h80zm171 195h113L304 598h-70z"/><glyph glyph-name="ucircumflex" unicode="û" horiz-adv-x="536" d="M160 540V186q0-39 7-64t20.5-40T219 61t41-6q40 0 68 19.5t48 50.5v415h80V0h-55l-18 68q-26-40-61.5-59T244-10q-75 0-119.5 47T80 188v352h80zm265 53h-85l-73 66-73-66h-85l122 136h72z"/><glyph glyph-name="udieresis" unicode="ü" horiz-adv-x="536" d="M160 540V186q0-39 7-64t20.5-40T219 61t41-6q40 0 68 19.5t48 50.5v415h80V0h-55l-18 68q-26-40-61.5-59T244-10q-75 0-119.5 47T80 188v352h80zm-42 95v90h95v-90h-95zm205 0v90h95v-90h-95z"/><glyph glyph-name="yacute" unicode="ý" horiz-adv-x="458" d="M292-14q-11-37-22-65t-26.5-46.5-38.5-28-59-9.5q-29 0-65 9v63q17-4 32-6t31-2q36 0 50 24t26 75h-38L10 540h85L239 53l133 487h76zm-10 749h113L255 598h-70z"/><glyph glyph-name="thorn" unicode="þ" horiz-adv-x="528" d="M80-170v905h80V491q25 30 59 47t79 17q34 0 64-15t53-48.5 36.5-86.5T465 276q0-140-52.5-213T266-10q-69 0-106 42v-202H80zm185 659q-31 0-57-16.5T160 433V93q18-19 40.5-32T250 48q29 0 53 12.5t41.5 40.5 27 72.5T381 281q0 60-8.5 100t-24 64-37 34-46.5 10z"/><glyph glyph-name="ydieresis" unicode="ÿ" horiz-adv-x="458" d="M292-14q-11-37-22-65t-26.5-46.5-38.5-28-59-9.5q-29 0-65 9v63q17-4 32-6t31-2q36 0 50 24t26 75h-38L10 540h85L239 53l133 487h76zM80 635v90h95v-90H80zm205 0v90h95v-90h-95z"/><glyph glyph-name="Amacron" unicode="Ā" horiz-adv-x="553" d="M453 0l-52 187H147L94 0H10l216 720h102L543 0h-90zM165 252h218L276 642zm-23 544v69h270v-69H142z"/><glyph glyph-name="amacron" unicode="ā" horiz-adv-x="506" d="M372 0l-18 64q-23-32-60.5-53T196-10q-25 0-52.5 7.5T93 22.5t-38 47T40 144t18 77.5 47.5 55 68 35.5 79.5 19l93 14v37q0 23-5 44t-16.5 36.5T294 487t-47 9q-43 0-71-24t-37-60l-79 14q22 57 70.5 93T252 555q84 0 129-46t45-137V0h-54zM220 54q40 0 71 16t55 42v176l-72-12q-72-12-111.5-40.5T123 150q0-51 27-73.5T220 54zM113 646v69h270v-69H113z"/><glyph glyph-name="Abreve" unicode="Ă" horiz-adv-x="553" d="M453 0l-52 187H147L94 0H10l216 720h102L543 0h-90zM165 252h218L276 642zm113 510q-26 0-50.5 6.5T182 789t-36.5 37.5T123 885h83q5-28 22.5-44.5T278 824t49.5 16.5T350 885h83q-7-34-22.5-57.5t-36.5-38-46-21-50-6.5z"/><glyph glyph-name="abreve" unicode="ă" horiz-adv-x="506" d="M372 0l-18 64q-23-32-60.5-53T196-10q-25 0-52.5 7.5T93 22.5t-38 47T40 144t18 77.5 47.5 55 68 35.5 79.5 19l93 14v37q0 23-5 44t-16.5 36.5T294 487t-47 9q-43 0-71-24t-37-60l-79 14q22 57 70.5 93T252 555q84 0 129-46t45-137V0h-54zM220 54q40 0 71 16t55 42v176l-72-12q-72-12-111.5-40.5T123 150q0-51 27-73.5T220 54zm28 548q-26 0-50.5 7T152 632t-36.5 41.5T93 735h83q5-33 22.5-52t49.5-19 49.5 19 22.5 52h83q-7-36-22.5-61.5T344 632t-46-23-50-7z"/><glyph glyph-name="Aogonek" unicode="Ą" horiz-adv-x="553" d="M564-212q-26-14-50.5-20t-53.5-6q-21 0-41 6.5T382.5-212 356-178.5 346-129q0 26 9.5 46t25 35.5 34.5 27T453 0l-52 187H147L94 0H10l216 720h102L543 0h-15q-19-10-38-22.5T456-50t-24.5-32.5T422-120q0-22 15.5-38t42.5-16q11 0 27 3t36 11zM165 252h218L276 642z"/><glyph glyph-name="aogonek" unicode="ą" horiz-adv-x="506" d="M426 0q-19-10-37.5-22.5T355-50t-24.5-32.5T321-120q0-22 14-39t46-17q11 0 27 3t36 11l21-50q-26-14-50.5-20t-53.5-6q-21 0-41 6.5T283.5-212 257-178.5 247-129q0 24 11 46t28 40.5 39 33T368 14l-14 50q-23-32-60.5-53T196-10q-25 0-52.5 7.5T93 22.5t-38 47T40 144t18 77.5 47.5 55 68 35.5 79.5 19l93 14v37q0 23-5 44t-16.5 36.5T294 487t-47 9q-43 0-71-24t-37-60l-79 14q22 57 70.5 93T252 555q84 0 129-46t45-137V0zM220 54q40 0 71 16t55 42v176l-72-12q-72-11-111.5-42.5T123 150q0-51 27-73.5T220 54z"/><glyph glyph-name="Cacute" unicode="Ć" horiz-adv-x="582" d="M318 53q54 0 86.5 29t49.5 83l83-8q-24-77-77-124.5T316-15q-40 0-83.5 16T153 58.5 93.5 173 70 360q0 112 23 185t59 115 80.5 58.5T320 735q47 0 82.5-14.5T463 683t41-52 24-57l-82-11q-15 48-44.5 76.5T320 668q-34 0-63.5-14.5t-51.5-50-34.5-94.5T158 360q0-89 13-148t34.5-94T256 68t62-15zm37 832h119L332 768h-72z"/><glyph glyph-name="cacute" unicode="ć" horiz-adv-x="509" d="M277 490q-27 0-51-12t-41.5-38.5T157 371t-10-103 10.5-102 27.5-66 40-35.5T274 54q25 0 45 8.5t34 23 22.5 33T388 158l81-10q-7-29-22-57t-39.5-50.5T349 4t-77-14q-35 0-72 12.5t-67.5 44-50 86T63 271q0 77 18.5 131t48.5 88 68 49.5 77 15.5q45 0 78-14t56.5-36 37-49.5T466 401l-80-12q-10 45-34 73t-75 28zm42 245h113L292 598h-70z"/><glyph glyph-name="Ccircumflex" unicode="Ĉ" horiz-adv-x="582" d="M318 53q54 0 86.5 29t49.5 83l83-8q-24-77-77-124.5T316-15q-40 0-83.5 16T153 58.5 93.5 173 70 360q0 112 23 185t59 115 80.5 58.5T320 735q47 0 82.5-14.5T463 683t41-52 24-57l-82-11q-15 48-44.5 76.5T320 668q-34 0-63.5-14.5t-51.5-50-34.5-94.5T158 360q0-89 13-148t34.5-94T256 68t62-15zm159 715h-90l-68 51-68-51h-90l119 117h78z"/><glyph glyph-name="ccircumflex" unicode="ĉ" horiz-adv-x="509" d="M277 490q-27 0-51-12t-41.5-38.5T157 371t-10-103 10.5-102 27.5-66 40-35.5T274 54q25 0 45 8.5t34 23 22.5 33T388 158l81-10q-7-29-22-57t-39.5-50.5T349 4t-77-14q-35 0-72 12.5t-67.5 44-50 86T63 271q0 77 18.5 131t48.5 88 68 49.5 77 15.5q45 0 78-14t56.5-36 37-49.5T466 401l-80-12q-10 45-34 73t-75 28zm160 109h-85l-73 66-73-66h-85l122 136h72z"/><glyph glyph-name="Cdotaccent" unicode="Ċ" horiz-adv-x="582" d="M318 53q54 0 86.5 29t49.5 83l83-8q-24-77-77-124.5T316-15q-40 0-83.5 16T153 58.5 93.5 173 70 360q0 112 23 185t59 115 80.5 58.5T320 735q47 0 82.5-14.5T463 683t41-52 24-57l-82-11q-15 48-44.5 76.5T320 668q-34 0-63.5-14.5t-51.5-50-34.5-94.5T158 360q0-89 13-148t34.5-94T256 68t62-15zm-42 735v97h92v-97h-92z"/><glyph glyph-name="cdotaccent" unicode="ċ" horiz-adv-x="509" d="M277 490q-27 0-51-12t-41.5-38.5T157 371t-10-103 10.5-102 27.5-66 40-35.5T274 54q25 0 45 8.5t34 23 22.5 33T388 158l81-10q-7-29-22-57t-39.5-50.5T349 4t-77-14q-35 0-72 12.5t-67.5 44-50 86T63 271q0 77 18.5 131t48.5 88 68 49.5 77 15.5q45 0 78-14t56.5-36 37-49.5T466 401l-80-12q-10 45-34 73t-75 28zm-45 148v97h92v-97h-92z"/><glyph glyph-name="Ccaron" unicode="Č" horiz-adv-x="582" d="M318 53q54 0 86.5 29t49.5 83l83-8q-24-77-77-124.5T316-15q-40 0-83.5 16T153 58.5 93.5 173 70 360q0 112 23 185t59 115 80.5 58.5T320 735q47 0 82.5-14.5T463 683t41-52 24-57l-82-11q-15 48-44.5 76.5T320 668q-34 0-63.5-14.5t-51.5-50-34.5-94.5T158 360q0-89 13-148t34.5-94T256 68t62-15zm39 715h-78L160 885h90l68-51 68 51h90z"/><glyph glyph-name="ccaron" unicode="č" horiz-adv-x="509" d="M277 490q-27 0-51-12t-41.5-38.5T157 371t-10-103 10.5-102 27.5-66 40-35.5T274 54q25 0 45 8.5t34 23 22.5 33T388 158l81-10q-7-29-22-57t-39.5-50.5T349 4t-77-14q-35 0-72 12.5t-67.5 44-50 86T63 271q0 77 18.5 131t48.5 88 68 49.5 77 15.5q45 0 78-14t56.5-36 37-49.5T466 401l-80-12q-10 45-34 73t-75 28zm36 109h-72L119 735h85l73-65 73 65h85z"/><glyph glyph-name="Dcaron" unicode="Ď" horiz-adv-x="611" d="M237 720q53 0 107-14t98-53.5 71.5-110T541 360q0-113-30.5-183t-76-109.5-99-53.5T236 0H90v720h147zm-62-63V66h66q39 0 77.5 11.5T387 121t49 89.5T455 360t-20 150-51.5 90.5T314 645t-75 12h-64zm144 111h-78L122 885h90l68-51 68 51h90z"/><glyph glyph-name="dcaron" unicode="ď" horiz-adv-x="599" d="M63 271q0 140 54 212t148 72q35 0 61.5-11.5T373 512v223h80V0h-58l-17 61q-25-34-61-52.5T233-10q-34 0-64.5 15.5t-54 49-37.5 87T63 271zM266 56q31 0 57.5 17t49.5 41v341q-19 17-42 29t-50 12q-29 0-53.5-12T185 444.5 157 373t-10-107q0-60 9-100t25-64.5 37.5-35T266 56zm299 480h-56l29 100h-29v100h100v-99z"/><glyph glyph-name="Dcroat" unicode="Đ" horiz-adv-x="621" d="M100 351H30v65h70v304h147q53 0 107-14t98-53.5 71.5-110T551 360q0-113-30.5-183t-76-109.5-99-53.5T246 0H100v351zm85 0V66h66q39 0 77.5 11.5T397 121t49 89.5T465 360t-20 150-51.5 90.5T324 645t-75 12h-64V416h184v-65H185z"/><glyph glyph-name="dcroat" unicode="đ" horiz-adv-x="564" d="M63 271q0 140 54 212t148 72q35 0 61.5-11.5T373 512v101H200v62h173v60h80v-60h81v-62h-81V0h-58l-17 61q-25-34-61-52.5T233-10q-34 0-64.5 15.5t-54 49-37.5 87T63 271zM266 56q31 0 57.5 17t49.5 41v341q-19 17-42 29t-50 12q-29 0-53.5-12T185 444.5 157 373t-10-107q0-60 9-100t25-64.5 37.5-35T266 56z"/><glyph glyph-name="Emacron" unicode="Ē" horiz-adv-x="500" d="M410 333H175V68h265V0H90v720h350v-68H175V399h235v-66zM131 799v69h270v-69H131z"/><glyph glyph-name="emacron" unicode="ē" horiz-adv-x="534" d="M282 54q25 0 44.5 7.5T360 81t23.5 27 14.5 30l70-15q-9-26-25.5-50t-40-42.5-55-29.5T277-10q-38 0-76 13.5T132 49t-50 86-19 135q0 82 18.5 136.5t48 87.5 66.5 47 75 14q103 0 155.5-71T479 257H145q1-63 13-102.5t31-62T232 62t50-8zm-6 441q-52 0-87-41.5T146 318h252q-2 87-33.5 132T276 495zM139 646v69h270v-69H139z"/><glyph glyph-name="Ebreve" unicode="Ĕ" horiz-adv-x="500" d="M410 333H175V68h265V0H90v720h350v-68H175V399h235v-66zM264 762q-26 0-50.5 6.5T168 789t-36.5 37.5T109 885h83q5-28 22.5-44.5T264 824t49.5 16.5T336 885h83q-7-34-22.5-57.5t-36.5-38-46-21-50-6.5z"/><glyph glyph-name="ebreve" unicode="ĕ" horiz-adv-x="534" d="M282 54q25 0 44.5 7.5T360 81t23.5 27 14.5 30l70-15q-9-26-25.5-50t-40-42.5-55-29.5T277-10q-38 0-76 13.5T132 49t-50 86-19 135q0 82 18.5 136.5t48 87.5 66.5 47 75 14q103 0 155.5-71T479 257H145q1-63 13-102.5t31-62T232 62t50-8zm-6 441q-52 0-87-41.5T146 318h252q-2 87-33.5 132T276 495zm2 107q-26 0-50.5 7T182 632t-36.5 41.5T123 735h83q5-33 22.5-52t49.5-19 49.5 19 22.5 52h83q-7-36-22.5-61.5T374 632t-46-23-50-7z"/><glyph glyph-name="Edotaccent" unicode="Ė" horiz-adv-x="500" d="M410 333H175V68h265V0H90v720h350v-68H175V399h235v-66zM222 788v97h92v-97h-92z"/><glyph glyph-name="edotaccent" unicode="ė" horiz-adv-x="534" d="M282 54q25 0 44.5 7.5T360 81t23.5 27 14.5 30l70-15q-9-26-25.5-50t-40-42.5-55-29.5T277-10q-38 0-76 13.5T132 49t-50 86-19 135q0 82 18.5 136.5t48 87.5 66.5 47 75 14q103 0 155.5-71T479 257H145q1-63 13-102.5t31-62T232 62t50-8zm-6 441q-52 0-87-41.5T146 318h252q-2 87-33.5 132T276 495zm-44 150v97h92v-97h-92z"/><glyph glyph-name="Eogonek" unicode="Ę" horiz-adv-x="500" d="M410 333H175V68h265V0h-41q-18-10-36.5-22.5T330-50t-23-32.5-9-37.5q0-22 15.5-38t42.5-16q11 0 27 3t36 11l21-52q-26-14-50.5-20t-53.5-6q-21 0-41 6.5T258.5-212 232-178.5 222-129q0 21 8.5 39.5t22 35 31 30T319 0H90v720h350v-68H175V399h235v-66z"/><glyph glyph-name="eogonek" unicode="ę" horiz-adv-x="534" d="M414-212q-26-14-50.5-20t-53.5-6q-21 0-41 6.5T232.5-212 206-178.5 196-129q0 36 19.5 67T264-9q-37 2-73 16.5t-64.5 47-46 85T63 270q0 82 18.5 136.5t48 87.5 66.5 47 75 14q103 0 155.5-71T479 257H145q1-63 13-102.5t31-62T232 62t50-8q25 0 44.5 7.5T360 81t23.5 27 14.5 30l70-15q-14-37-40.5-69T358 5q-35-20-61.5-51T270-120q0-22 14-39t46-17q11 0 27 3t36 11zM276 495q-52 0-87-41.5T146 318h252q-2 87-33.5 132T276 495z"/><glyph glyph-name="Ecaron" unicode="Ě" horiz-adv-x="500" d="M410 333H175V68h265V0H90v720h350v-68H175V399h235v-66zm-99 435h-78L114 885h90l68-51 68 51h90z"/><glyph glyph-name="ecaron" unicode="ě" horiz-adv-x="534" d="M282 54q25 0 44.5 7.5T360 81t23.5 27 14.5 30l70-15q-9-26-25.5-50t-40-42.5-55-29.5T277-10q-38 0-76 13.5T132 49t-50 86-19 135q0 82 18.5 136.5t48 87.5 66.5 47 75 14q103 0 155.5-71T479 257H145q1-63 13-102.5t31-62T232 62t50-8zm-6 441q-52 0-87-41.5T146 318h252q-2 87-33.5 132T276 495zm37 104h-72L119 735h85l73-65 73 65h85z"/><glyph glyph-name="Gcircumflex" unicode="Ĝ" horiz-adv-x="598" d="M521 0h-50l-13 51q-28-33-66.5-49T310-14q-42 0-84.5 15.5t-77 57.5T92 174 70 361q0 115 24.5 188t62 114.5 82 57T323 736q41 0 73.5-12t57.5-32.5 41.5-47T521 588l-82-12q-11 39-37.5 67T323 671q-30 0-59.5-14T210 607.5 171.5 512 157 361q0-89 12.5-148t33.5-95 49-51 60-15q92 0 133 62v215H322v68h199V0zm-40 768h-90l-68 51-68-51h-90l119 117h78z"/><glyph glyph-name="gcircumflex" unicode="ĝ" horiz-adv-x="508" d="M468 528l-121 5q42-20 69.5-59.5T444 371q0-47-17.5-81.5t-45.5-57-63-33.5-69-11q-47 0-92 19-16-13-16-33 0-9 1.5-18.5t12-17.5 32.5-14 63-9q51-3 92-12.5T412.5 75 458 28.5 474-42q0-31-14.5-59t-43-49.5-71.5-34T245-197q-99 0-152 39T40-55q0 45 21.5 74.5T118 67q-25 14-34.5 33.5T74 143q0 29 14.5 49.5T125 225q-32 23-53 59t-21 87q0 52 19.5 87.5t48.5 57 64 30.5 67 9q23 0 43-4v31l175 20v-74zM131 371q0-57 32-91t86-34 84.5 34 30.5 91q0 60-31 93t-85 33-85.5-34.5T131 371zm89-330q-14 1-27.5 2.5T166 49q-20-17-33-38.5T120-42q0-19 6-37t20.5-32 38-22.5T244-142q43 0 71 9t44.5 23 23 31 6.5 32q0 19-6.5 33.5T358 12t-51 18-87 11zm186 578h-90l-68 51-68-51H90l119 117h78z"/><glyph glyph-name="Gbreve" unicode="Ğ" horiz-adv-x="598" d="M521 0h-50l-13 51q-28-33-66.5-49T310-14q-42 0-84.5 15.5t-77 57.5T92 174 70 361q0 115 24.5 188t62 114.5 82 57T323 736q41 0 73.5-12t57.5-32.5 41.5-47T521 588l-82-12q-11 39-37.5 67T323 671q-30 0-59.5-14T210 607.5 171.5 512 157 361q0-89 12.5-148t33.5-95 49-51 60-15q92 0 133 62v215H322v68h199V0zM324 762q-26 0-50.5 6.5T228 789t-36.5 37.5T169 885h83q5-28 22.5-44.5T324 824t49.5 16.5T396 885h83q-7-34-22.5-57.5t-36.5-38-46-21-50-6.5z"/><glyph glyph-name="gbreve" unicode="ğ" horiz-adv-x="508" d="M468 528l-121 5q42-20 69.5-59.5T444 371q0-47-17.5-81.5t-45.5-57-63-33.5-69-11q-47 0-92 19-16-13-16-33 0-9 1.5-18.5t12-17.5 32.5-14 63-9q51-3 92-12.5T412.5 75 458 28.5 474-42q0-31-14.5-59t-43-49.5-71.5-34T245-197q-99 0-152 39T40-55q0 45 21.5 74.5T118 67q-25 14-34.5 33.5T74 143q0 29 14.5 49.5T125 225q-32 23-53 59t-21 87q0 52 19.5 87.5t48.5 57 64 30.5 67 9q23 0 43-4v31l175 20v-74zM131 371q0-57 32-91t86-34 84.5 34 30.5 91q0 60-31 93t-85 33-85.5-34.5T131 371zm89-330q-14 1-27.5 2.5T166 49q-20-17-33-38.5T120-42q0-19 6-37t20.5-32 38-22.5T244-142q43 0 71 9t44.5 23 23 31 6.5 32q0 19-6.5 33.5T358 12t-51 18-87 11zm27 572q-26 0-50.5 6.5T151 640t-36.5 37.5T92 736h83q5-28 22.5-44.5T247 675t49.5 16.5T319 736h83q-7-34-22.5-57.5t-36.5-38-46-21-50-6.5z"/><glyph glyph-name="Gdotaccent" unicode="Ġ" horiz-adv-x="598" d="M521 0h-50l-13 51q-28-33-66.5-49T310-14q-42 0-84.5 15.5t-77 57.5T92 174 70 361q0 115 24.5 188t62 114.5 82 57T323 736q41 0 73.5-12t57.5-32.5 41.5-47T521 588l-82-12q-11 39-37.5 67T323 671q-30 0-59.5-14T210 607.5 171.5 512 157 361q0-89 12.5-148t33.5-95 49-51 60-15q92 0 133 62v215H322v68h199V0zM276 788v97h92v-97h-92z"/><glyph glyph-name="gdotaccent" unicode="ġ" horiz-adv-x="508" d="M468 528l-121 5q42-20 69.5-59.5T444 371q0-47-17.5-81.5t-45.5-57-63-33.5-69-11q-47 0-92 19-16-13-16-33 0-9 1.5-18.5t12-17.5 32.5-14 63-9q51-3 92-12.5T412.5 75 458 28.5 474-42q0-31-14.5-59t-43-49.5-71.5-34T245-197q-99 0-152 39T40-55q0 45 21.5 74.5T118 67q-25 14-34.5 33.5T74 143q0 29 14.5 49.5T125 225q-32 23-53 59t-21 87q0 52 19.5 87.5t48.5 57 64 30.5 67 9q23 0 43-4v31l175 20v-74zM131 371q0-57 32-91t86-34 84.5 34 30.5 91q0 60-31 93t-85 33-85.5-34.5T131 371zm89-330q-14 1-27.5 2.5T166 49q-20-17-33-38.5T120-42q0-19 6-37t20.5-32 38-22.5T244-142q43 0 71 9t44.5 23 23 31 6.5 32q0 19-6.5 33.5T358 12t-51 18-87 11zm-18 598v97h92v-97h-92z"/><glyph glyph-name="Gcommaaccent" unicode="Ģ" horiz-adv-x="598" d="M521 0h-50l-13 51q-28-33-66.5-49T310-14q-42 0-84.5 15.5t-77 57.5T92 174 70 361q0 115 24.5 188t62 114.5 82 57T323 736q41 0 73.5-12t57.5-32.5 41.5-47T521 588l-82-12q-11 39-37.5 67T323 671q-30 0-59.5-14T210 607.5 171.5 512 157 361q0-89 12.5-148t33.5-95 49-51 60-15q92 0 133 62v215H322v68h199V0zM330-270h-56l29 100h-29v100h100v-99z"/><glyph glyph-name="gcommaaccent" unicode="ģ" horiz-adv-x="508" d="M468 528l-121 5q42-20 69.5-59.5T444 371q0-47-17.5-81.5t-45.5-57-63-33.5-69-11q-47 0-92 19-16-13-16-33 0-9 1.5-18.5t12-17.5 32.5-14 63-9q51-3 92-12.5T412.5 75 458 28.5 474-42q0-31-14.5-59t-43-49.5-71.5-34T245-197q-99 0-152 39T40-55q0 45 21.5 74.5T118 67q-25 14-34.5 33.5T74 143q0 29 14.5 49.5T125 225q-32 23-53 59t-21 87q0 52 19.5 87.5t48.5 57 64 30.5 67 9q23 0 43-4v31l175 20v-74zM131 371q0-57 32-91t86-34 84.5 34 30.5 91q0 60-31 93t-85 33-85.5-34.5T131 371zm89-330q-14 1-27.5 2.5T166 49q-20-17-33-38.5T120-42q0-19 6-37t20.5-32 38-22.5T244-142q43 0 71 9t44.5 23 23 31 6.5 32q0 19-6.5 33.5T358 12t-51 18-87 11zm17 759h56l-29-100h29V600H193v99z"/><glyph glyph-name="Hcircumflex" unicode="Ĥ" horiz-adv-x="620" d="M530 720V0h-85v330H175V0H90v720h85V398h270v322h85zm-64 48h-90l-68 51-68-51h-90l119 117h78z"/><glyph glyph-name="hcircumflex" unicode="ĥ" horiz-adv-x="548" d="M80 0v735h80V477q32 42 71.5 60t76.5 18q79 0 119.5-49.5T468 350V0h-80v354q0 73-24.5 104.5T285 490q-37 0-68.5-22T160 416V0H80zm345 768h-90l-68 51-68-51h-90l119 117h78z"/><glyph glyph-name="Hbar" unicode="Ħ" horiz-adv-x="664" d="M535 720v-95h75v-61h-75V0h-85v330H180V0H95v564H25v61h70v95h85v-95h270v95h85zM180 398h270v166H180V398z"/><glyph glyph-name="hbar" unicode="ħ" horiz-adv-x="553" d="M85 0v613H31v62h54v60h80v-60h200v-62H165V477q32 42 71.5 60t76.5 18q79 0 119.5-49.5T473 350V0h-80v354q0 73-24.5 104.5T290 490q-37 0-68.5-22T165 416V0H85z"/><glyph glyph-name="Itilde" unicode="Ĩ" horiz-adv-x="265" d="M175 720V0H90v720h85zm19 50q-24 0-39.5 6T127 789t-24 13-29 6-40-10-45-27v71q22 16 45 25t44 9q24 0 39.5-6t27.5-13 24-13 29-6 38 10 43 27v-71q-22-16-43-25t-42-9z"/><glyph glyph-name="itilde" unicode="ĩ" horiz-adv-x="240" d="M80 0v540h80V0H80zm101 620q-24 0-39.5 6T114 639t-24 13-29 6-40-10-45-27v71q22 16 45 25t44 9q24 0 39.5-6t27.5-13 24-13 29-6 38 10 43 27v-71q-22-16-43-25t-42-9z"/><glyph glyph-name="Imacron" unicode="Ī" horiz-adv-x="265" d="M175 720V0H90v720h85zM-1 796v69h270v-69H-1z"/><glyph glyph-name="imacron" unicode="ī" horiz-adv-x="240" d="M80 0v540h80V0H80zm-94 646v69h270v-69H-14z"/><glyph glyph-name="Ibreve" unicode="Ĭ" horiz-adv-x="265" d="M175 720V0H90v720h85zm-41 42q-26 0-50.5 6.5T38 789 1.5 826.5-21 885h83q5-28 22.5-44.5T134 824t49.5 16.5T206 885h83q-7-34-22.5-57.5t-36.5-38-46-21-50-6.5z"/><glyph glyph-name="ibreve" unicode="ĭ" horiz-adv-x="240" d="M80 0v540h80V0H80zm41 602q-26 0-50.5 7T25 632t-36.5 41.5T-34 735h83q5-33 22.5-52t49.5-19 49.5 19 22.5 52h83q-7-36-22.5-61.5T217 632t-46-23-50-7z"/><glyph glyph-name="Iogonek" unicode="Į" horiz-adv-x="265" d="M175 0q-19-10-36.5-22.5T107-50 84.5-82.5 76-120q0-22 14.5-38t41.5-16q11 0 27 3t36 11l21-52q-26-14-50.5-20t-53.5-6q-21 0-41 6.5T35.5-212 10-178.5 0-129q0 21 9 39.5T32-55t32 30 36 25H90v720h85V0z"/><glyph glyph-name="iogonek" unicode="į" horiz-adv-x="240" d="M160 0q-19-10-37-22.5T90.5-50 67-82.5 58-120q0-22 12.5-39t44.5-17q11 0 27 3t36 11l21-50q-26-14-50.5-20T95-238q-21 0-40.5 6.5T19-212t-25.5 33.5T-16-129q0 21 9 39.5t23 35 32.5 30T86 0h-6v540h80V0zM74 638v97h92v-97H74z"/><glyph glyph-name="Idotaccent" unicode="İ" horiz-adv-x="265" d="M175 720V0H90v720h85zm-88 68v97h92v-97H87z"/><glyph glyph-name="dotlessi" unicode="ı" horiz-adv-x="240" d="M80 0v540h80V0H80z"/><glyph glyph-name="IJ" unicode="Ĳ" horiz-adv-x="577" d="M407 720h85V165q0-96-34-137.5T354-14q-26 0-47 4T268 0v69q17-5 39.5-9t36.5-4q17 0 29 4t19.5 16 11 33.5T407 167v553zm-232 0V0H90v720h85z"/><glyph glyph-name="ij" unicode="ĳ" horiz-adv-x="488" d="M75 638v97h92v-97H75zM202-89q13-3 29.5-5.5T260-97q35 0 50.5 17T326-14v554h80V-24q0-62-31-100.5T276-163q-16 0-36.5 3t-37.5 8v63zm119 727v97h92v-97h-92zM81 0v540h80V0H81z"/><glyph glyph-name="Jcircumflex" unicode="Ĵ" horiz-adv-x="324" d="M154 720h85V165q0-96-34-137.5T101-14q-26 0-47 4T15 0v69q17-5 39.5-9T91 56q17 0 29 4t19.5 16 11 33.5T154 167v553zm199 48h-90l-68 51-68-51H37l119 117h78z"/><glyph glyph-name="jcircumflex" unicode="ĵ" horiz-adv-x="240" d="M-44-89q13-3 29.5-5.5T14-97q35 0 50.5 17T80-14v554h80V-24q0-62-31-100.5T30-163q-16 0-36.5 3t-37.5 8v63zm323 688h-85l-73 66-73-66h-85L85 735h72z"/><glyph glyph-name="Kcommaaccent" unicode="Ķ" horiz-adv-x="543" d="M424 0L175 335V0H90v720h85V406l226 314h95L245 377 528 0H424zM293-253h-56l29 100h-29v100h100v-99z"/><glyph glyph-name="kcommaaccent" unicode="ķ" horiz-adv-x="505" d="M80 0v735h80V315l198 225h104L247 305 495 0H395L160 285V0H80zm198-270h-56l29 100h-29v100h100v-99z"/><glyph glyph-name="kgreenlandic" unicode="ĸ" horiz-adv-x="505" d="M80 0v540h80V315l198 225h104L247 305 495 0H395L160 285V0H80z"/><glyph glyph-name="Lacute" unicode="Ĺ" horiz-adv-x="472" d="M175 720V74h277V0H90v720h85zm-12 168h119L140 771H68z"/><glyph glyph-name="lacute" unicode="ĺ" horiz-adv-x="240" d="M148 885h119L125 768H53zM80 735h80V0H80v735z"/><glyph glyph-name="Lcommaaccent" unicode="Ļ" horiz-adv-x="472" d="M175 720V74h277V0H90v720h85zm114-990h-56l29 100h-29v100h100v-99z"/><glyph glyph-name="lcommaaccent" unicode="ļ" horiz-adv-x="260" d="M87 735h80V0H87v735zm49-1005H80l29 100H80v100h100v-99z"/><glyph glyph-name="Lcaron" unicode="Ľ" horiz-adv-x="472" d="M175 720V74h277V0H90v720h85zm136-200h-56l29 100h-29v100h100v-99z"/><glyph glyph-name="lcaron" unicode="ľ" horiz-adv-x="310" d="M80 735h80V0H80v735zm196-199h-56l29 100h-29v100h100v-99z"/><glyph glyph-name="Ldot" unicode="Ŀ" horiz-adv-x="472" d="M175 720V74h277V0H90v720h85zm96-370v97h92v-97h-92z"/><glyph glyph-name="ldot" unicode="ŀ" horiz-adv-x="333" d="M80 735h80V0H80v735zm141-385v97h92v-97h-92z"/><glyph glyph-name="Lslash" unicode="Ł" horiz-adv-x="482" d="M185 720V449l135 81v-75l-135-81V74h277V0H100v323l-70-42v75l70 42v322h85z"/><glyph glyph-name="lslash" unicode="ł" horiz-adv-x="260" d="M90 322l-65-44v70l65 44v343h80V447l65 45v-70l-65-45V0H90v322z"/><glyph glyph-name="Nacute" unicode="Ń" horiz-adv-x="601" d="M511 720V0H400L171 603V0H90v720h114l228-596v596h79zM342 885h119L319 768h-72z"/><glyph glyph-name="nacute" unicode="ń" horiz-adv-x="548" d="M80 0v540h58l15-66q33 44 76 62.5t79 18.5q79 0 119.5-49.5T468 350V0h-80v354q0 73-24.5 104.5T285 490q-38 0-69-21.5T160 417V0H80zm245 735h113L298 598h-70z"/><glyph glyph-name="Ncommaaccent" unicode="Ņ" horiz-adv-x="601" d="M511 720V0H400L171 603V0H90v720h114l228-596v596h79zM323-270h-56l29 100h-29v100h100v-99z"/><glyph glyph-name="ncommaaccent" unicode="ņ" horiz-adv-x="548" d="M80 0v540h58l15-66q33 44 76 62.5t79 18.5q79 0 119.5-49.5T468 350V0h-80v354q0 73-24.5 104.5T285 490q-38 0-69-21.5T160 417V0H80zm208-270h-56l29 100h-29v100h100v-99z"/><glyph glyph-name="Ncaron" unicode="Ň" horiz-adv-x="601" d="M511 720V0H400L171 603V0H90v720h114l228-596v596h79zm-170 48h-78L144 885h90l68-51 68 51h90z"/><glyph glyph-name="ncaron" unicode="ň" horiz-adv-x="548" d="M80 0v540h58l15-66q33 44 76 62.5t79 18.5q79 0 119.5-49.5T468 350V0h-80v354q0 73-24.5 104.5T285 490q-38 0-69-21.5T160 417V0H80zm240 599h-72L126 735h85l73-65 73 65h85z"/><glyph glyph-name="napostrophe" unicode="ŉ" horiz-adv-x="568" d="M100 0v540h58l15-66q33 44 76 62.5t79 18.5q79 0 119.5-49.5T488 350V0h-80v354q0 73-24.5 104.5T305 490q-38 0-69-21.5T180 417V0h-80zM57 536H1l29 100H1v100h100v-99z"/><glyph glyph-name="Eng" unicode="Ŋ" horiz-adv-x="601" d="M511 720V-24q0-62-31-100.5T381-163q-16 0-36.5 3t-37.5 8v66q13-3 29.5-5.5T365-94q35 0 51.5 15.5T433-14V0h-33L171 603V0H90v720h114l228-596v596h79z"/><glyph glyph-name="eng" unicode="ŋ" horiz-adv-x="548" d="M468-24q0-62-30-100.5T340-163q-16 0-35.5 3t-36.5 8v66q13-3 28.5-5.5T324-94q35 0 49.5 15.5T388-14v368q0 73-24.5 104.5T285 490q-38 0-69-21.5T160 417V0H80v540h58l15-66q33 44 76 62.5t79 18.5q79 0 119.5-49.5T468 350V-24z"/><glyph glyph-name="Omacron" unicode="Ō" horiz-adv-x="658" d="M70 360q0 105 22 176.5T150 652t82.5 63.5T329 735q49 0 96-19.5t83-63.5 58-115.5T588 360t-22-176.5T508 68 425 4.5 329-15q-50 0-96.5 19.5T150 68 92 183.5 70 360zm87 0q0-153 42.5-231.5T329 50t129.5 78.5T501 360t-42.5 231.5T329 670t-129.5-78.5T157 360zm36 436v69h270v-69H193z"/><glyph glyph-name="omacron" unicode="ō" horiz-adv-x="565" d="M63 270q0 83 20 138t51.5 87.5 71 46T283 555t77-13 70.5-45.5T482 409t20-139-20-138-51.5-85.5-70.5-44T283-10 205.5 2.5t-71 44.5T83 133 63 270zm84 0q0-114 37.5-166.5T284 51q63 0 99 51.5T419 270q0 115-38 169.5T283 494q-59 0-97.5-55T147 270zm1 376v69h270v-69H148z"/><glyph glyph-name="Obreve" unicode="Ŏ" horiz-adv-x="658" d="M70 360q0 105 22 176.5T150 652t82.5 63.5T329 735q49 0 96-19.5t83-63.5 58-115.5T588 360t-22-176.5T508 68 425 4.5 329-15q-50 0-96.5 19.5T150 68 92 183.5 70 360zm87 0q0-153 42.5-231.5T329 50t129.5 78.5T501 360t-42.5 231.5T329 670t-129.5-78.5T157 360zm171 402q-26 0-50.5 6.5T232 789t-36.5 37.5T173 885h83q5-28 22.5-44.5T328 824t49.5 16.5T400 885h83q-7-34-22.5-57.5t-36.5-38-46-21-50-6.5z"/><glyph glyph-name="obreve" unicode="ŏ" horiz-adv-x="565" d="M63 270q0 83 20 138t51.5 87.5 71 46T283 555t77-13 70.5-45.5T482 409t20-139-20-138-51.5-85.5-70.5-44T283-10 205.5 2.5t-71 44.5T83 133 63 270zm84 0q0-114 37.5-166.5T284 51q63 0 99 51.5T419 270q0 115-38 169.5T283 494q-59 0-97.5-55T147 270zm136 338q-26 0-50.5 7T187 638t-36.5 41.5T128 741h83q5-33 22.5-52t49.5-19 49.5 19 22.5 52h83q-7-36-22.5-61.5T379 638t-46-23-50-7z"/><glyph glyph-name="Ohungarumlaut" unicode="Ő" horiz-adv-x="658" d="M70 360q0 105 22 176.5T150 652t82.5 63.5T329 735q49 0 96-19.5t83-63.5 58-115.5T588 360t-22-176.5T508 68 425 4.5 329-15q-50 0-96.5 19.5T150 68 92 183.5 70 360zm87 0q0-153 42.5-231.5T329 50t129.5 78.5T501 360t-42.5 231.5T329 670t-129.5-78.5T157 360zm140 525h119L274 768h-72zm159 0h119L433 768h-72z"/><glyph glyph-name="ohungarumlaut" unicode="ő" horiz-adv-x="565" d="M63 270q0 83 20 138t51.5 87.5 71 46T283 555t77-13 70.5-45.5T482 409t20-139-20-138-51.5-85.5-70.5-44T283-10 205.5 2.5t-71 44.5T83 133 63 270zm84 0q0-114 37.5-166.5T284 51q63 0 99 51.5T419 270q0 115-38 169.5T283 494q-59 0-97.5-55T147 270zm102 465h117L221 598h-69zm159 0h117L380 598h-69z"/><glyph glyph-name="OE" unicode="Œ" horiz-adv-x="894" d="M834 0H414q-41-15-85-15-50 0-96.5 19.5T150 68 92 183.5 70 360t22 176.5T150 652t82.5 63.5T329 735q44 0 85-15h420v-65H504q34-42 55-104.5T584 397h220v-64H584q-3-97-24.5-161.5T504 65h330V0zM157 360q0-153 42.5-231.5T329 50t129.5 78.5T501 360t-42.5 231.5T329 670t-129.5-78.5T157 360z"/><glyph glyph-name="oe" unicode="œ" horiz-adv-x="884" d="M632 54q25 0 44.5 7.5T710 81t23.5 27 14.5 30l70-15q-9-26-25.5-50t-40-42.5-55-29.5T627-10q-51 0-97 23.5T455 98q-24-55-71.5-81.5T283-10q-38 0-77.5 12.5t-71 44.5T83 133 63 270t20 138 51.5 87.5 71 46T283 555q52 0 98.5-25.5T454 446q27 60 71.5 84.5T621 555q103 0 155.5-71T829 257H495q1-63 13-102.5t31-62T582 62t50-8zM147 270q0-114 37.5-165.5T284 53t98.5 50.5T419 270t-38 169-98 53q-59 0-97.5-54T147 270zm479 225q-52 0-87-41.5T496 318h252q-2 87-33.5 132T626 495z"/><glyph glyph-name="Racute" unicode="Ŕ" horiz-adv-x="557" d="M441 0L280 282H175V0H90v720h147q53 0 99-13t80-40.5 53.5-69.5 19.5-99q0-41-10-72.5T452 370t-40-41-49-28L542 0H441zM175 655V347h67q72 0 116 37.5T402 498t-44 116.5T239 655h-64zm137 230h119L289 768h-72z"/><glyph glyph-name="racute" unicode="ŕ" horiz-adv-x="332" d="M80 0v540h58l18-79q38 92 119 92 11 0 21-1t16-3v-78q-9 2-18 3.5t-21 1.5q-20 0-37-8.5t-31-23-25-34-20-40.5V0H80zm153 735h113L206 598h-70z"/><glyph glyph-name="Rcommaaccent" unicode="Ŗ" horiz-adv-x="557" d="M441 0L280 282H175V0H90v720h147q53 0 99-13t80-40.5 53.5-69.5 19.5-99q0-41-10-72.5T452 370t-40-41-49-28L542 0H441zM175 655V347h67q72 0 116 37.5T402 498t-44 116.5T239 655h-64zm139-909h-56l29 100h-29v100h100v-99z"/><glyph glyph-name="rcommaaccent" unicode="ŗ" horiz-adv-x="332" d="M80 0v540h58l18-79q38 92 119 92 11 0 21-1t16-3v-78q-9 2-18 3.5t-21 1.5q-20 0-37-8.5t-31-23-25-34-20-40.5V0H80zm51-270H75l29 100H75v100h100v-99z"/><glyph glyph-name="Rcaron" unicode="Ř" horiz-adv-x="557" d="M441 0L280 282H175V0H90v720h147q53 0 99-13t80-40.5 53.5-69.5 19.5-99q0-41-10-72.5T452 370t-40-41-49-28L542 0H441zM175 655V347h67q72 0 116 37.5T402 498t-44 116.5T239 655h-64zm140 113h-78L118 885h90l68-51 68 51h90z"/><glyph glyph-name="rcaron" unicode="ř" horiz-adv-x="332" d="M121 0v540h58l18-79q38 92 119 92 11 0 21-1t16-3v-78q-9 2-18 3.5t-21 1.5q-20 0-37-8.5t-31-23-25-34-20-40.5V0h-80zm153 599h-72L80 735h85l73-65 73 65h85z"/><glyph glyph-name="Sacute" unicode="Ś" horiz-adv-x="548" d="M277 669q-24 0-46-6.5t-38.5-20T166 608t-10-49q0-26 7-45.5t23.5-35.5 43.5-30.5 67-29.5q39-15 73.5-33t60.5-44.5 41.5-63.5 15.5-90q0-41-15.5-78T429 44.5 361.5 1 273-15q-52 0-91.5 15T114 38.5t-45 52T45 146l79 14q6-20 16.5-39t28-34T212 62.5t62-9.5q24 0 47 7.5t41 23 29.5 40T403 182q0 39-9.5 63.5t-30 43T310 322t-79 34q-81 33-119.5 80.5T73 553q0 38 14 71.5t40 58 63.5 38.5 84.5 14q45 0 80-13t60.5-34.5T458 639t26-55l-75-14q-12 39-45 69t-87 30zm37 216h119L291 768h-72z"/><glyph glyph-name="sacute" unicode="ś" horiz-adv-x="457" d="M223-10q-70 0-118.5 31T35 103l75 22q14-32 44.5-50.5T225 56t70 22.5 30 67.5q0 26-12 44t-31.5 30-44 20.5T188 257q-72 22-103.5 57.5T53 404q0 37 14 65t38 47 55 29 65 10q36 0 64.5-9t50-25 36.5-36.5 23-43.5l-72-22q-9 31-33.5 52.5T224 493q-18 0-34-5t-29-14.5-20.5-24.5-7.5-36 8-35.5 24-25 41-19 58-18.5q66-20 104-57.5T406 154q0-37-13-67t-37-51.5T298 2t-75-12zm44 745h113L240 598h-70z"/><glyph glyph-name="Scircumflex" unicode="Ŝ" horiz-adv-x="548" d="M277 669q-24 0-46-6.5t-38.5-20T166 608t-10-49q0-26 7-45.5t23.5-35.5 43.5-30.5 67-29.5q39-15 73.5-33t60.5-44.5 41.5-63.5 15.5-90q0-41-15.5-78T429 44.5 361.5 1 273-15q-52 0-91.5 15T114 38.5t-45 52T45 146l79 14q6-20 16.5-39t28-34T212 62.5t62-9.5q24 0 47 7.5t41 23 29.5 40T403 182q0 39-9.5 63.5t-30 43T310 322t-79 34q-81 33-119.5 80.5T73 553q0 38 14 71.5t40 58 63.5 38.5 84.5 14q45 0 80-13t60.5-34.5T458 639t26-55l-75-14q-12 39-45 69t-87 30zm158 98h-90l-68 51-68-51h-90l119 117h78z"/><glyph glyph-name="scircumflex" unicode="ŝ" horiz-adv-x="457" d="M223-10q-70 0-118.5 31T35 103l75 22q14-32 44.5-50.5T225 56t70 22.5 30 67.5q0 26-12 44t-31.5 30-44 20.5T188 257q-72 22-103.5 57.5T53 404q0 37 14 65t38 47 55 29 65 10q36 0 64.5-9t50-25 36.5-36.5 23-43.5l-72-22q-9 31-33.5 52.5T224 493q-18 0-34-5t-29-14.5-20.5-24.5-7.5-36 8-35.5 24-25 41-19 58-18.5q66-20 104-57.5T406 154q0-37-13-67t-37-51.5T298 2t-75-12zm158 609h-85l-73 66-73-66H65l122 136h72z"/><glyph glyph-name="Scedilla" unicode="Ş" horiz-adv-x="548" d="M376-142q0-45-33-72t-84-27q-29 0-56 7t-46 18l30 47q11-5 27.5-9t31.5-4q23 0 41 8.5t18 35.5q0 24-25.5 34.5T217-88l14 76q-42 6-73.5 22.5t-54 38.5-37 47.5T45 146l79 14q6-20 16.5-39t28-34T212 62.5t62-9.5q24 0 47 7.5t41 23 29.5 40T403 182q0 39-9.5 63.5t-30 43T310 322t-79 34q-81 33-119.5 80.5T73 553q0 38 14 71.5t40 58 63.5 38.5 84.5 14q45 0 80-13t60.5-34.5T458 639t26-55l-75-14q-12 39-45 69t-87 30q-24 0-46-6.5t-38.5-20T166 608t-10-49q0-26 7-45.5t23.5-35.5 43.5-30.5 67-29.5q39-15 73.5-33t60.5-44.5 41.5-63.5 15.5-90q0-39-13.5-73.5T436 52 375.5 7.5 296-14l-2-37q42-9 62-34t20-57z"/><glyph glyph-name="scedilla" unicode="ş" horiz-adv-x="457" d="M332-132q0-45-33-72t-84-27q-29 0-56 7t-46 18l30 45q11-5 27.5-9t31.5-4q23 0 41 9.5t18 36.5q0 24-25.5 34.5T173-78l13 71q-57 8-95 36.5T35 103l75 22q14-32 44.5-50.5T225 56t70 22.5 30 67.5q0 25-12 42t-31.5 29-44 20.5T188 254q-72 22-103.5 59T53 404q0 37 14 65t38 47 55 29 65 10q36 0 64.5-9t50-25 36.5-36.5 23-43.5l-72-22q-9 31-33.5 52.5T224 493q-18 0-34-5t-29-14.5-20.5-24.5-7.5-36 8-36 24-26 41-20 58-19q66-20 104-56.5T406 154q0-67-41-110.5T252-8l-2-33q42-9 62-34t20-57z"/><glyph glyph-name="Scaron" unicode="Š" horiz-adv-x="548" d="M277 669q-24 0-46-6.5t-38.5-20T166 608t-10-49q0-26 7-45.5t23.5-35.5 43.5-30.5 67-29.5q39-15 73.5-33t60.5-44.5 41.5-63.5 15.5-90q0-41-15.5-78T429 44.5 361.5 1 273-15q-52 0-91.5 15T114 38.5t-45 52T45 146l79 14q6-20 16.5-39t28-34T212 62.5t62-9.5q24 0 47 7.5t41 23 29.5 40T403 182q0 39-9.5 63.5t-30 43T310 322t-79 34q-81 33-119.5 80.5T73 553q0 38 14 71.5t40 58 63.5 38.5 84.5 14q45 0 80-13t60.5-34.5T458 639t26-55l-75-14q-12 39-45 69t-87 30zm41 99h-78L121 885h90l68-51 68 51h90z"/><glyph glyph-name="scaron" unicode="š" horiz-adv-x="457" d="M223-10q-70 0-118.5 31T35 103l75 22q14-32 44.5-50.5T225 56t70 22.5 30 67.5q0 26-12 44t-31.5 30-44 20.5T188 257q-72 22-103.5 57.5T53 404q0 37 14 65t38 47 55 29 65 10q36 0 64.5-9t50-25 36.5-36.5 23-43.5l-72-22q-9 31-33.5 52.5T224 493q-18 0-34-5t-29-14.5-20.5-24.5-7.5-36 8-35.5 24-25 41-19 58-18.5q66-20 104-57.5T406 154q0-37-13-67t-37-51.5T298 2t-75-12zm36 609h-72L65 735h85l73-65 73 65h85z"/><glyph glyph-name="Tcommaaccent" unicode="Ţ" horiz-adv-x="475" d="M450 646H279V0h-85v646H25v74h425v-74zM241-270h-56l29 100h-29v100h100v-99z"/><glyph glyph-name="tcommaaccent" unicode="ţ" horiz-adv-x="329" d="M299 5q-18-5-35-8t-40-3q-66 0-95 38t-29 101v342H20v65h81l6 130h73V540h116v-65H180V131q0-35 13-52.5T237 61q15 0 29 2t33 7V5zm-99-275h-56l29 100h-29v100h100v-99z"/><glyph glyph-name="Tcaron" unicode="Ť" horiz-adv-x="475" d="M450 646H279V0h-85v646H25v74h425v-74zM275 768h-78L78 885h90l68-51 68 51h90z"/><glyph glyph-name="tcaron" unicode="ť" horiz-adv-x="386" d="M299 5q-18-5-35-8t-40-3q-66 0-95 38t-29 101v342H20v65h81l6 130h73V540h116v-65H180V131q0-35 13-52.5T237 61q15 0 29 2t33 7V5zm83 531h-56l29 100h-29v100h100v-99z"/><glyph glyph-name="Tbar" unicode="Ŧ" horiz-adv-x="495" d="M460 646H289V436h119v-65H289V0h-85v371H85v65h119v210H35v74h425v-74z"/><glyph glyph-name="tbar" unicode="ŧ" horiz-adv-x="344" d="M185 475v-85h116v-62H185V131q0-35 13-52.5T242 61q15 0 29 2t33 7V5q-18-5-35-8t-40-3q-66 0-95 38t-29 101v195H25v62h80v85H25v65h81l6 130h73V540h116v-65H185z"/><glyph glyph-name="Utilde" unicode="Ũ" horiz-adv-x="609" d="M170 720V214q0-75 31.5-118T306 53t105 43 32 118v506h81V223q0-118-56.5-178T305-15 142 45 85 223v497h85zm196 50q-24 0-39.5 6T299 789t-24 13-29 6-40-10-45-27v71q22 16 45 25t44 9q24 0 39.5-6t27.5-13 24-13 29-6 38 10 43 27v-71q-22-16-43-25t-42-9z"/><glyph glyph-name="utilde" unicode="ũ" horiz-adv-x="536" d="M160 540V186q0-39 7-64t20.5-40T219 61t41-6q40 0 68 19.5t48 50.5v415h80V0h-55l-18 68q-26-40-61.5-59T244-10q-75 0-119.5 47T80 188v352h80zm168 90q-24 0-39.5 6T261 649t-24 13-29 6-40-10-45-27v71q22 16 45 25t44 9q24 0 39.5-6t27.5-13 24-13 29-6 38 10 43 27v-71q-22-16-43-25t-42-9z"/><glyph glyph-name="Umacron" unicode="Ū" horiz-adv-x="609" d="M170 720V214q0-75 31.5-118T306 53t105 43 32 118v506h81V223q0-118-56.5-178T305-15 142 45 85 223v497h85zm2 76v69h270v-69H172z"/><glyph glyph-name="umacron" unicode="ū" horiz-adv-x="536" d="M160 540V186q0-39 7-64t20.5-40T219 61t41-6q40 0 68 19.5t48 50.5v415h80V0h-55l-18 68q-26-40-61.5-59T244-10q-75 0-119.5 47T80 188v352h80zm-26 106v69h270v-69H134z"/><glyph glyph-name="Ubreve" unicode="Ŭ" horiz-adv-x="609" d="M170 720V214q0-75 31.5-118T306 53t105 43 32 118v506h81V223q0-118-56.5-178T305-15 142 45 85 223v497h85zm134 42q-26 0-50.5 6.5T208 789t-36.5 37.5T149 885h83q5-28 22.5-44.5T304 824t49.5 16.5T376 885h83q-7-34-22.5-57.5t-36.5-38-46-21-50-6.5z"/><glyph glyph-name="ubreve" unicode="ŭ" horiz-adv-x="536" d="M160 540V186q0-39 7-64t20.5-40T219 61t41-6q40 0 68 19.5t48 50.5v415h80V0h-55l-18 68q-26-40-61.5-59T244-10q-75 0-119.5 47T80 188v352h80zm107 62q-26 0-50.5 7T171 632t-36.5 41.5T112 735h83q5-33 22.5-52t49.5-19 49.5 19 22.5 52h83q-7-36-22.5-61.5T363 632t-46-23-50-7z"/><glyph glyph-name="Uring" unicode="Ů" horiz-adv-x="609" d="M170 720V214q0-75 31.5-118T306 53t105 43 32 118v506h81V223q0-118-56.5-178T305-15 142 45 85 223v497h85zm19 126q0 54 33.5 84t84.5 30 84-28.5 33-85.5q0-54-33-83t-84-29-84.5 29-33.5 83zm63 0q0-30 15-46.5t40-16.5 39.5 16.5T361 846t-14.5 47.5T307 911t-40-17.5-15-47.5z"/><glyph glyph-name="uring" unicode="ů" horiz-adv-x="536" d="M160 540V186q0-39 7-64t20.5-40T219 61t41-6q40 0 68 19.5t48 50.5v415h80V0h-55l-18 68q-26-40-61.5-59T244-10q-75 0-119.5 47T80 188v352h80zm-7 156q0 54 33.5 84t84.5 30 84-28.5 33-85.5q0-54-33-83t-84-29-84.5 29-33.5 83zm63 0q0-30 15-46.5t40-16.5 39.5 16.5T325 696t-14.5 47.5T271 761t-40-17.5-15-47.5z"/><glyph glyph-name="Uhungarumlaut" unicode="Ű" horiz-adv-x="609" d="M170 720V214q0-75 31.5-118T306 53t105 43 32 118v506h81V223q0-118-56.5-178T305-15 142 45 85 223v497h85zm104 165h119L251 768h-72zm159 0h119L410 768h-72z"/><glyph glyph-name="uhungarumlaut" unicode="ű" horiz-adv-x="536" d="M160 540V186q0-39 7-64t20.5-40T219 61t41-6q40 0 68 19.5t48 50.5v415h80V0h-55l-18 68q-26-40-61.5-59T244-10q-75 0-119.5 47T80 188v352h80zm80 195h117L212 598h-69zm159 0h117L371 598h-69z"/><glyph glyph-name="Uogonek" unicode="Ų" horiz-adv-x="609" d="M459-212q-26-14-50.5-20t-53.5-6q-21 0-41 6.5T277.5-212 251-178.5 241-129q0 34 19.5 63.5T308-15h-3q-106 0-163 60T85 223v497h85V214q0-75 31.5-118T306 53t105 43 32 118v506h81V223Q524 49 402 2q-33-20-58.5-50T318-120q0-22 15-38t42-16q11 0 27 3t36 11z"/><glyph glyph-name="uogonek" unicode="ų" horiz-adv-x="536" d="M160 540V186q0-39 7-64t20.5-40T219 61t41-6q40 0 68 19.5t48 50.5v415h80V0q-11-5-28.5-14.5t-34-24.5-29-35-12.5-46q0-22 14-39t46-17q11 0 27 3t36 11l21-50q-26-14-50.5-20t-53.5-6q-21 0-41 6.5T314.5-212 288-178.5 278-129q0 24 10.5 46t28 40.5 39 32.5T398 13l-15 55q-26-40-61.5-59T244-10q-75 0-119.5 47T80 188v352h80z"/><glyph glyph-name="Wcircumflex" unicode="Ŵ" horiz-adv-x="759" d="M734 720L614 0H512L385 624 254 0H145L25 720h87l95-626 127 626h109L562 96l94 624h78zm-189 44h-90l-68 51-68-51h-90l119 117h78z"/><glyph glyph-name="wcircumflex" unicode="ŵ" horiz-adv-x="720" d="M700 540L568 0H468L361 450 255 0H152L20 540h82L206 85l106 455h103L520 87l101 453h79zm-178 59h-85l-73 66-73-66h-85l122 136h72z"/><glyph glyph-name="Ycircumflex" unicode="Ŷ" horiz-adv-x="512" d="M502 720L300 288V0h-84v288L10 720h93l157-344 159 344h83zm-87 48h-90l-68 51-68-51H99l119 117h78z"/><glyph glyph-name="ycircumflex" unicode="ŷ" horiz-adv-x="458" d="M292-14q-11-37-22-65t-26.5-46.5-38.5-28-59-9.5q-29 0-65 9v63q17-4 32-6t31-2q36 0 50 24t26 75h-38L10 540h85L239 53l133 487h76zm99 613h-85l-73 66-73-66H75l122 136h72z"/><glyph glyph-name="Ydieresis" unicode="Ÿ" horiz-adv-x="512" d="M502 720L300 288V0h-84v288L10 720h93l157-344 159 344h83zm-394 65v90h95v-90h-95zm205 0v90h95v-90h-95z"/><glyph glyph-name="Zacute" unicode="Ź" horiz-adv-x="500" d="M129 67h311V0H40v75l322 578H63v67h387v-72zm164 818h119L270 768h-72z"/><glyph glyph-name="zacute" unicode="ź" horiz-adv-x="449" d="M127 69h262V0H40v82l276 390H59v68h340v-82zm155 666h113L255 598h-70z"/><glyph glyph-name="Zdotaccent" unicode="Ż" horiz-adv-x="500" d="M129 67h311V0H40v75l322 578H63v67h387v-72zm89 721v97h92v-97h-92z"/><glyph glyph-name="zdotaccent" unicode="ż" horiz-adv-x="449" d="M127 69h262V0H40v82l276 390H59v68h340v-82zm60 569v97h92v-97h-92z"/><glyph glyph-name="Zcaron" horiz-adv-x="500" d="M129 67h311V0H40v75l322 578H63v67h387v-72zm174 699h-78L106 883h90l68-51 68 51h90z"/><glyph glyph-name="Zcaron" unicode="Ž" horiz-adv-x="500" d="M129 67h311V0H40v75l322 578H63v67h387v-72zm174 699h-78L106 883h90l68-51 68 51h90z"/><glyph glyph-name="zcaron" horiz-adv-x="449" d="M127 69h262V0H40v82l276 390H59v68h340v-82zm150 530h-72L83 735h85l73-65 73 65h85z"/><glyph glyph-name="zcaron" unicode="ž" horiz-adv-x="449" d="M127 69h262V0H40v82l276 390H59v68h340v-82zm150 530h-72L83 735h85l73-65 73 65h85z"/><glyph glyph-name="longs" unicode="ſ" horiz-adv-x="279" d="M319 667q-19 5-38 7t-34 2q-33 0-50-15t-17-50V0h-80v475H20v65h80v65q0 29 7.5 54t23.5 44 40.5 29.5T231 743q50 0 88-11v-65z"/><glyph glyph-name="florin" unicode="ƒ" horiz-adv-x="299" d="M-39-94q19-5 38-7t34-2q33 0 50 15t17 50v513H20v65h80v65q0 29 7.5 54t23.5 44 40.5 29.5T231 743q50 0 88-11v-65q-19 5-38 7t-34 2q-33 0-50-15t-17-50v-71h116v-65H180V-32q0-29-7.5-54T149-130t-41-29.5T49-170q-50 0-88 11v65z"/><glyph glyph-name="Ohorn" unicode="Ơ" horiz-adv-x="666" d="M676 681q0-31-9.5-54.5T642 585t-35-30.5-41-20.5q22-70 22-174 0-105-22-176.5T508 68 425 4.5 329-15q-50 0-96.5 19.5T150 68 92 183.5 70 360t22 176.5T150 652t82.5 63.5T329 735q34 0 66-8.5t60.5-27 52.5-48 42-71.5q23 11 34.5 34.5T596 680v75h80v-74zM157 360q0-153 42.5-231.5T329 50t129.5 78.5T501 360t-42.5 231.5T329 670t-129.5-78.5T157 360z"/><glyph glyph-name="ohorn" unicode="ơ" horiz-adv-x="586" d="M63 270q0 83 20 138t51.5 87.5 71 46T283 555q28 0 56.5-7t54.5-23.5 48-43.5 37-66q21 11 31.5 32t10.5 63v65h75v-64q0-30-8.5-53.5t-23-41-33-30T493 367q4-21 6.5-45.5T502 270q0-84-20-138t-51.5-85.5-70.5-44T283-10 205.5 2.5t-71 44.5T83 133 63 270zm84 0q0-114 37.5-166.5T284 51q63 0 99 51.5T419 270q0 115-38 169.5T283 494q-59 0-97.5-55T147 270z"/><glyph glyph-name="Uhorn" unicode="Ư" horiz-adv-x="656" d="M170 720V214q0-75 31.5-118T306 53t105 43 32 118v506h81V573q31 11 46.5 34t15.5 73v75h80v-74q0-37-13-64.5t-34-46-46-29.5-49-16V223q0-118-56.5-178T305-15 142 45 85 223v497h85z"/><glyph glyph-name="uhorn" unicode="ư" horiz-adv-x="576" d="M160 540V186q0-39 7-64t20.5-40T219 61t41-6q40 0 68 19.5t48 50.5v415h80V408q28 11 41.5 33t13.5 69v65h75v-64q0-35-11.5-61t-30-44-42-29.5T456 359V0h-55l-18 68q-26-40-61.5-59T244-10q-75 0-119.5 47T80 188v352h80z"/><glyph glyph-name="AEacute" unicode="Ǽ" horiz-adv-x="820" d="M760 0H457l-40 187H161L94 0H10l275 720h440v-65H397l58-258h265v-64H469l59-268h232V0zM185 252h218l-80 382zm328 633h119L490 768h-72z"/><glyph glyph-name="aeacute" unicode="ǽ" horiz-adv-x="809" d="M557 54q25 0 44.5 7.5T635 81t23.5 27 14.5 30l70-15q-9-26-25.5-50t-40-42.5-55-29.5T552-10q-49 0-93.5 22T384 90q-12-20-28.5-38T316 20 263-2t-69-8q-26 0-53 7.5t-49.5 25-37 47T40 144t18 77.5 47.5 55 68 35.5 79.5 19l93 14v37q0 23-5 43.5T324.5 461 294 485t-47 9q-43 0-71-23.5T139 411l-79 13q22 57 71 93t121 36q103 0 143-79 28 45 67 63t84 18q103 0 155.5-71T754 257H420q1-63 13-102.5t31-62T507 62t50-8zm-337 0q48 0 78 19.5t48 50.5v164l-72-12q-72-11-111.5-42.5T123 150q0-51 27-73.5T220 54zm331 441q-52 0-87-41.5T421 318h252q-2 87-33.5 132T551 495zm-99 240h113L425 598h-70z"/><glyph glyph-name="Oslashacute" unicode="Ǿ" horiz-adv-x="658" d="M70 360q0 105 22 176.5T150 652t82.5 63.5T329 735q25 0 49.5-4.5T426 715l39 105h70l-52-141q47-42 76-119.5T588 360q0-105-22-176.5T508 68 425 4.5 329-15q-52 0-96 19l-39-106h-70l52 142q-47 42-76.5 119.5T70 360zm87 0q0-170 52-246l194 536q-32 20-74 20-87 0-129.5-78.5T157 360zm344 0q0 165-52 244L254 70q35-20 75-20 87 0 129.5 78.5T501 360zM355 885h119L332 768h-72z"/><glyph glyph-name="oslashacute" unicode="ǿ" horiz-adv-x="565" d="M63 270q0 83 20 138t51.5 87.5 71 46T283 555q48 0 90-19l45 97h70l-61-133q33-32 54-87.5T502 270q0-84-20-138t-51.5-85.5-70.5-44T283-10q-21 0-43 3.5T198 5l-50-107H76l66 142q-35 31-57 86.5T63 270zm84 0q0-54 8.5-93.5T180 111l167 363q-29 20-64 20-59 0-97.5-55T147 270zm272 0q0 51-8.5 89.5T388 426L223 66q27-15 61-15 63 0 99 51.5T419 270zm-94 465h113L299 598h-71z"/><glyph glyph-name="Scommaaccent" unicode="Ș" horiz-adv-x="548" d="M277 669q-24 0-46-6.5t-38.5-20T166 608t-10-49q0-26 7-45.5t23.5-35.5 43.5-30.5 67-29.5q39-15 73.5-33t60.5-44.5 41.5-63.5 15.5-90q0-41-15.5-78T429 44.5 361.5 1 273-15q-52 0-91.5 15T114 38.5t-45 52T45 146l79 14q6-20 16.5-39t28-34T212 62.5t62-9.5q24 0 47 7.5t41 23 29.5 40T403 182q0 39-9.5 63.5t-30 43T310 322t-79 34q-81 33-119.5 80.5T73 553q0 38 14 71.5t40 58 63.5 38.5 84.5 14q45 0 80-13t60.5-34.5T458 639t26-55l-75-14q-12 39-45 69t-87 30zm13-944h-56l29 100h-29v100h100v-99z"/><glyph glyph-name="scommaaccent" unicode="ș" horiz-adv-x="457" d="M223-10q-70 0-118.5 31T35 103l75 22q14-32 44.5-50.5T225 56t70 22.5 30 67.5q0 26-12 44t-31.5 30-44 20.5T188 257q-72 22-103.5 57.5T53 404q0 37 14 65t38 47 55 29 65 10q36 0 64.5-9t50-25 36.5-36.5 23-43.5l-72-22q-9 31-33.5 52.5T224 493q-18 0-34-5t-29-14.5-20.5-24.5-7.5-36 8-35.5 24-25 41-19 58-18.5q66-20 104-57.5T406 154q0-37-13-67t-37-51.5T298 2t-75-12zm15-260h-56l29 100h-29v100h100v-99z"/><glyph glyph-name="uni021A" unicode="Ț" horiz-adv-x="475" d="M450 646H279V0h-85v646H25v74h425v-74zM241-270h-56l29 100h-29v100h100v-99z"/><glyph glyph-name="uni021B" unicode="ț" horiz-adv-x="329" d="M299 5q-18-5-35-8t-40-3q-66 0-95 38t-29 101v342H20v65h81l6 130h73V540h116v-65H180V131q0-35 13-52.5T237 61q15 0 29 2t33 7V5zm-99-275h-56l29 100h-29v100h100v-99z"/><glyph glyph-name="dotlessj" unicode="ȷ" horiz-adv-x="240" d="M-44-89q13-3 29.5-5.5T14-97q35 0 50.5 17T80-14v554h80V-24q0-62-31-100.5T30-163q-16 0-36.5 3t-37.5 8v63z"/><glyph glyph-name="circumflex" unicode="ˆ" horiz-adv-x="376" d="M346 599h-85l-73 66-73-66H30l122 136h72z"/><glyph glyph-name="caron" unicode="ˇ" horiz-adv-x="376" d="M224 599h-72L30 735h85l73-65 73 65h85z"/><glyph glyph-name="uni02C9" unicode="ˉ" horiz-adv-x="330" d="M30 646v69h270v-69H30z"/><glyph glyph-name="breve" unicode="˘" horiz-adv-x="370" d="M185 602q-26 0-50.5 7T89 632t-36.5 41.5T30 735h83q5-33 22.5-52t49.5-19 49.5 19 22.5 52h83q-7-36-22.5-61.5T281 632t-46-23-50-7z"/><glyph glyph-name="dotaccent" unicode="˙" horiz-adv-x="152" d="M30 638v97h92v-97H30z"/><glyph glyph-name="ring" unicode="˚" horiz-adv-x="295" d="M30 696q0 54 33.5 84t84.5 30 84-28.5 33-85.5q0-54-33-83t-84-29-84.5 29T30 696zm63 0q0-30 15-46.5t40-16.5 39.5 16.5T202 696t-14.5 47.5T148 761t-40-17.5T93 696z"/><glyph glyph-name="ogonek" unicode="˛" horiz-adv-x="278" d="M248-212q-26-14-50.5-20t-53.5-6q-21 0-41 6.5T66.5-212 40-178.5 30-129q0 26 14 50t35 43.5 46 34T173 20h75q-21-10-46-23.5t-46.5-31-36.5-39-15-46.5q0-22 14-39t46-17q11 0 27 3t36 11z"/><glyph glyph-name="tilde" unicode="˜" horiz-adv-x="350" d="M235 620q-24 0-39.5 6T168 639t-24 13-29 6-40-10-45-27v71q22 16 45 25t44 9q24 0 39.5-6t27.5-13 24-13 29-6 38 10 43 27v-71q-22-16-43-25t-42-9z"/><glyph glyph-name="hungarumlaut" unicode="˝" horiz-adv-x="433" d="M127 735h117L99 598H30zm159 0h117L258 598h-69z"/><glyph glyph-name="gravecomb" unicode="̀" horiz-adv-x="1" d="M-29 598h-68l-117 137h110z"/><glyph glyph-name="acutecomb" unicode="́" horiz-adv-x="1" d="M-139 735h110l-117-137h-68z"/><glyph glyph-name="tildecomb" unicode="̃" horiz-adv-x="1" d="M-114 625q-24 0-39.5 6t-27.5 12.5-24 12.5-29 6-40-10-45-27v67q22 16 45 24.5t44 8.5q24 0 39.5-6t27.5-12.5 24-12.5 29-6 38 10 43 27v-67q-22-16-43-24.5t-42-8.5z"/><glyph glyph-name="hookabovecomb" unicode="̉" horiz-adv-x="1" d="M-29 712q0-34-20.5-55t-55.5-32l-3-22h-56l-3 60q29 4 47 14.5t18 33.5q0 22-12 29t-24 7q-35 0-47-46l-67 14q14 39 42 63t79 24q45 0 73.5-24t28.5-66z"/><glyph glyph-name="uni0312" unicode="̒" horiz-adv-x="1" d="M-270 800h56l-29-100h29V600h-100v99z"/><glyph glyph-name="dotbelowcomb" unicode="̣" horiz-adv-x="1" d="M-125-170v92h96v-92h-96z"/><glyph glyph-name="uni037E" unicode=";" horiz-adv-x="230" d="M65 439v100h100V439H65zm30-581H39L94 0H65v100h100V1z"/><glyph glyph-name="tonos" unicode="΄" horiz-adv-x="220" d="M80 735h110L98 588H30z"/><glyph glyph-name="dieresistonos" unicode="΅" horiz-adv-x="360" d="M30 606v90h95v-90H30zm205 0v90h95v-90h-95zm-38 242h110l-92-127h-68z"/><glyph glyph-name="Alphatonos" unicode="Ά" horiz-adv-x="538" d="M439 0l-52 187H133L80 0H-4l216 720h102L529 0h-90zM151 252h218L262 642zM52 721h110L70 574H2z"/><glyph glyph-name="anoteleia" unicode="·" horiz-adv-x="315" d="M107 298v100h100V298H107z"/><glyph glyph-name="Epsilontonos" unicode="Έ" horiz-adv-x="605" d="M515 333H280V68h265V0H195v720h350v-68H280V399h235v-66zM46 721h110L64 574H-4z"/><glyph glyph-name="Etatonos" unicode="Ή" horiz-adv-x="725" d="M635 720V0h-85v330H280V0h-85v720h85V398h270v322h85zm-589 1h110L64 574H-4z"/><glyph glyph-name="Iotatonos" unicode="Ί" horiz-adv-x="415" d="M280 720V0h-85v720h85zm-234 1h110L64 574H-4z"/><glyph glyph-name="Omicrontonos" unicode="Ό" horiz-adv-x="703" d="M115 360q0 105 22 176.5T195 652t82.5 63.5T374 735q49 0 96-19.5t83-63.5 58-115.5T633 360t-22-176.5T553 68 470 4.5 374-15q-50 0-96.5 19.5T195 68t-58 115.5T115 360zm87 0q0-153 42.5-231.5T374 50t129.5 78.5T546 360t-42.5 231.5T374 670t-129.5-78.5T202 360zM46 721h110L64 574H-4z"/><glyph glyph-name="Upsilontonos" unicode="Ύ" horiz-adv-x="687" d="M677 720L475 288V0h-84v288L185 720h93l157-344 159 344h83zm-631 1h110L64 574H-4z"/><glyph glyph-name="Omegatonos" unicode="Ώ" horiz-adv-x="708" d="M379 670q-87 0-129.5-78.5T207 360q0-59 5.5-107.5t18.5-86 35-62T320 70V0H130v70h87q-21 15-39 38t-31 57-20 81.5-7 113.5q0 105 22 176.5T200 652t82.5 63.5T379 735q49 0 96-19.5t83-63.5 58-115.5T638 360q0-65-7.5-113T610 164.5t-31-57T539 70h89V0H437v70q32 10 53.5 34.5t35 62 19.5 86 6 107.5q0 153-42.5 231.5T379 670zM51 721h110L69 574H1z"/><glyph glyph-name="iotadieresistonos" unicode="ΐ" horiz-adv-x="240" d="M-28 587v90h95v-90h-95zm205 0v90h95v-90h-95zm-38 242h110l-92-127H89zM80 0v540h80V0H80z"/><glyph glyph-name="Alpha" unicode="Α" horiz-adv-x="553" d="M453 0l-52 187H147L94 0H10l216 720h102L543 0h-90zM165 252h218L276 642z"/><glyph glyph-name="Beta" unicode="Β" horiz-adv-x="559" d="M259 720q112 0 169.5-47.5T486 534q0-57-30.5-98T377 380q27-6 51-19.5t42-35.5 28.5-53.5T509 199q0-58-22-96t-58-61-81-32.5T257 0H90v720h169zm-84-373V65h97q30 0 56.5 6.5t47 21.5 32.5 41 12 65q0 34-7.5 61T388 306.5t-44.5 30T277 347H175zm0 314V408h98q69 0 98.5 33t29.5 93q0 64-36.5 95.5T267 661h-92z"/><glyph glyph-name="Gamma" unicode="Γ" horiz-adv-x="477" d="M90 0v720h362v-74H175V0H90z"/><glyph glyph-name="Delta" unicode="Δ" horiz-adv-x="553" d="M10 0l216 720h102L543 0H10zm103 67h321L276 644z"/><glyph glyph-name="Epsilon" unicode="Ε" horiz-adv-x="500" d="M410 333H175V68h265V0H90v720h350v-68H175V399h235v-66z"/><glyph glyph-name="Zeta" unicode="Ζ" horiz-adv-x="500" d="M129 67h311V0H40v75l322 578H63v67h387v-72z"/><glyph glyph-name="Eta" unicode="Η" horiz-adv-x="620" d="M530 720V0h-85v330H175V0H90v720h85V398h270v322h85z"/><glyph glyph-name="Theta" unicode="Θ" horiz-adv-x="668" d="M213 394h244v-64H213v64zM70 360q0 105 22.5 176.5T152 652t84.5 63.5T334 735t97.5-19.5T516 652t59.5-115.5T598 360t-22.5-176.5-60-115.5-85-63.5T334-15q-50 0-97 19.5T152.5 68t-60 115.5T70 360zm87 0q0-153 45-231.5T334 50t132 78.5T511 360t-45 231.5T334 670t-132-78.5T157 360z"/><glyph glyph-name="Iota" unicode="Ι" horiz-adv-x="265" d="M175 720V0H90v720h85z"/><glyph glyph-name="Kappa" unicode="Κ" horiz-adv-x="543" d="M424 0L175 335V0H90v720h85V406l226 314h95L245 377 528 0H424z"/><glyph glyph-name="Lambda" unicode="Λ" horiz-adv-x="533" d="M432 0L266 636 96 0H10l205 720h103L523 0h-91z"/><glyph glyph-name="Mu" unicode="Μ" horiz-adv-x="747" d="M341 0L171 569V0H90v720h111l180-606 166 606h110V0h-84v569L416 0h-75z"/><glyph glyph-name="Nu" unicode="Ν" horiz-adv-x="601" d="M511 720V0H400L171 603V0H90v720h114l228-596v596h79z"/><glyph glyph-name="Xi" unicode="Ξ" horiz-adv-x="555" d="M70 720h415v-80H70v80zm0-640h415V0H70v80zm60 319h295v-74H130v74z"/><glyph glyph-name="Omicron" unicode="Ο" horiz-adv-x="658" d="M70 360q0 105 22 176.5T150 652t82.5 63.5T329 735q49 0 96-19.5t83-63.5 58-115.5T588 360t-22-176.5T508 68 425 4.5 329-15q-50 0-96.5 19.5T150 68 92 183.5 70 360zm87 0q0-153 42.5-231.5T329 50t129.5 78.5T501 360t-42.5 231.5T329 670t-129.5-78.5T157 360z"/><glyph glyph-name="Pi" unicode="Π" horiz-adv-x="610" d="M520 720V0h-85v651H175V0H90v720h430z"/><glyph glyph-name="Rho" unicode="Ρ" horiz-adv-x="528" d="M244 720q53 0 98.5-13.5t79-42 52.5-72T493 489q0-59-20-101.5t-54.5-70T338 277t-98-13h-65V0H90v720h154zm-69-65V329h67q79 0 121.5 39T406 489q0 78-42.5 122T246 655h-71z"/><glyph glyph-name="Sigma" unicode="Σ" horiz-adv-x="499" d="M141 70h308V0H50v73l219 292L50 647v73h399v-70H141l221-285z"/><glyph glyph-name="Tau" unicode="Τ" horiz-adv-x="475" d="M450 646H279V0h-85v646H25v74h425v-74z"/><glyph glyph-name="Upsilon" unicode="Υ" horiz-adv-x="512" d="M502 720L300 288V0h-84v288L10 720h93l157-344 159 344h83z"/><glyph glyph-name="Phi" unicode="Φ" horiz-adv-x="775" d="M427 750V648q46-3 97-18.5t93.5-49 70-86.5T715 363t-27.5-131.5-70-87-93.5-49T427 77V-30h-79V77q-47 3-97.5 18.5t-93 49-70 87T60 363t27.5 131 70 86.5 93 49T348 648v102h79zm203-387q0 67-20 109t-50.5 66.5-66 34.5-66.5 12V143q31 2 66.5 11.5t66 33.5 50.5 66 20 109zm-485 0q0-67 20-109t50.5-66 66-33.5T348 143v442q-31-2-66.5-12t-66-34.5T165 472t-20-109z"/><glyph glyph-name="Chi" unicode="Χ" horiz-adv-x="550" d="M320 375L515 0h-97L274 292 122 0H35l197 372L53 720h95l133-268 139 268h88z"/><glyph glyph-name="Psi" unicode="Ψ" horiz-adv-x="762" d="M421 720V225q49 4 83.5 20t56.5 41.5 31.5 59T602 418v302h80V427q0-55-15.5-102T619 242t-81.5-58T421 157V0h-78v157q-68 5-118 27t-82 58-47.5 83T80 427v293h80V418q0-39 9.5-72.5t31.5-59 57-41.5 85-20v495h78z"/><glyph glyph-name="Omega" unicode="Ω" horiz-adv-x="658" d="M329 670q-87 0-129.5-78.5T157 360q0-59 5.5-107.5t18.5-86 35-62T270 70V0H80v70h87q-21 15-39 38t-31 57-20 81.5T70 360q0 105 22 176.5T150 652t82.5 63.5T329 735q49 0 96-19.5t83-63.5 58-115.5T588 360q0-65-7.5-113T560 164.5t-31-57T489 70h89V0H387v70q32 10 53.5 34.5t35 62 19.5 86 6 107.5q0 153-42.5 231.5T329 670z"/><glyph glyph-name="Iotadieresis" unicode="Ϊ" horiz-adv-x="265" d="M-16 785v90h95v-90h-95zm205 0v90h95v-90h-95zm-14-65V0H90v720h85z"/><glyph glyph-name="Upsilondieresis" unicode="Ϋ" horiz-adv-x="512" d="M502 720L300 288V0h-84v288L10 720h93l157-344 159 344h83zm-396 65v90h95v-90h-95zm205 0v90h95v-90h-95z"/><glyph glyph-name="alphatonos" unicode="ά" horiz-adv-x="548" d="M63 269q0 140 54 213t148 73q45 0 77-19.5t52-51.5l19 56h55V0h-55l-20 74q-23-39-60.5-61.5T238-10q-37 0-69 15t-55.5 48.5-37 86.5T63 269zM266 56q38 0 68.5 21.5T388 128v311q-20 21-46.5 39T281 496q-28 0-52.5-12.5t-42.5-40-28.5-72T147 264q0-60 9-100t25-64 37.5-34T266 56zm15 679h110l-92-147h-68z"/><glyph glyph-name="epsilontonos" unicode="έ" horiz-adv-x="486" d="M249 53q27 0 47.5 7.5t35 20.5 23 29.5T366 144l80-13q-6-29-21.5-55t-41-45-60-30T244-10q-40 0-76 10t-63.5 29.5T61 79t-16 70q0 34 10.5 59.5T83 251t39 26.5 45 11.5q-51 10-80 45t-29 78q0 32 14 58.5t39 45 59 29 75 10.5q73 0 123-32.5T439 415l-78-13q-7 37-33.5 65T249 495q-48 0-77-22.5T143 404q0-42 28-64.5t66-22.5h57v-64h-59q-48 0-76-29t-28-68q0-51 31.5-77T249 53zm0 682h110l-92-147h-68z"/><glyph glyph-name="etatonos" unicode="ή" horiz-adv-x="548" d="M80 0v540h58l15-66q33 44 76 62.5t79 18.5q79 0 119.5-49.5T468 350v-520h-80v524q0 73-24.5 104.5T285 490q-38 0-69-21.5T160 417V0H80zm207 735h110l-92-147h-68z"/><glyph glyph-name="iotatonos" unicode="ί" horiz-adv-x="240" d="M130 735h110l-92-147H80zM80 0v540h80V0H80z"/><glyph glyph-name="upsilondieresistonos" unicode="ΰ" horiz-adv-x="537" d="M268 54q51 0 80 33.5t29 90.5v362h80V181q0-43-13-78t-37.5-60T347 4t-79-14q-88 0-138 50T80 177v363h80V174q0-57 28.5-88.5T268 54zM116 587v90h95v-90h-95zm205 0v90h95v-90h-95zm-38 242h110l-92-127h-68z"/><glyph glyph-name="alpha" unicode="α" horiz-adv-x="548" d="M63 269q0 140 54 213t148 73q45 0 77-19.5t52-51.5l19 56h55V0h-55l-20 74q-23-39-60.5-61.5T238-10q-37 0-69 15t-55.5 48.5-37 86.5T63 269zM266 56q38 0 68.5 21.5T388 128v311q-20 21-46.5 39T281 496q-28 0-52.5-12.5t-42.5-40-28.5-72T147 264q0-60 9-100t25-64 37.5-34T266 56z"/><glyph glyph-name="beta" unicode="β" horiz-adv-x="577" d="M522 194q0-41-12.5-78t-38-65T408 6.5 320-10q-32 0-57.5 6t-45 15.5-34 20.5T160 54v-224H80v671q0 122 55.5 178T285 735q41 0 78-12.5t65-35.5 44.5-56 16.5-74q0-38-11-66.5t-29-49-41-33.5-46-19q22-4 50-16t52.5-35 41-58 16.5-86zm-362-76q7-9 20-21t31-22.5 41-18 52-7.5q35 0 60 11.5t41 32 23.5 47.5 7.5 58q0 46-14 76t-37 48-54 26-64 9v58q32 4 58 12t45 24 29 40.5 10 62.5q0 22-7 44t-22 39.5-39 28.5-58 11q-29 0-51.5-8.5t-38.5-28-24.5-51.5-8.5-79V118z"/><glyph glyph-name="gamma" unicode="γ" horiz-adv-x="465" d="M192-170V14L10 540h86l138-435 140 435h81L272 14v-184h-80z"/><glyph glyph-name="delta" unicode="δ" horiz-adv-x="552" d="M489 250q0-71-16.5-120.5T427 49 359.5 4 277-10q-45 0-84 17t-68 50-45.5 81.5T63 250q0 65 16.5 114.5t43.5 83 61.5 50.5 71.5 17 66-11 55-39q-21 42-53.5 75.5t-70 58-78 40T98 660v60h352v-70H278q96-44 153.5-142T489 250zm-341 0q0-50 10-87.5t27.5-62 41-36.5T278 52q56 0 91.5 48T405 250q0 54-10 92.5T367.5 405 327 440.5 277 452q-26 0-49.5-11.5t-41-35.5-28-62.5T148 250z"/><glyph glyph-name="epsilon" unicode="ε" horiz-adv-x="486" d="M249 53q27 0 47.5 7.5t35 20.5 23 29.5T366 144l80-13q-6-29-21.5-55t-41-45-60-30T244-10q-40 0-76 10t-63.5 29.5T61 79t-16 70q0 34 10.5 59.5T83 251t39 26.5 45 11.5q-51 10-80 45t-29 78q0 32 14 58.5t39 45 59 29 75 10.5q73 0 123-32.5T439 415l-78-13q-7 37-33.5 65T249 495q-48 0-77-22.5T143 404q0-42 28-64.5t66-22.5h57v-64h-59q-48 0-76-29t-28-68q0-51 31.5-77T249 53z"/><glyph glyph-name="zeta" unicode="ζ" horiz-adv-x="465" d="M294 0q-41 4-81.5 15.5t-73.5 37-53.5 70T65 237q0 72 17.5 135.5t48.5 116 73 93.5 92 68H63v70h373v-61q-58-24-110-62t-91.5-90T172 390t-23-143q0-44 9.5-75t31-51.5 57-32.5T333 70q34-4 56-13t34.5-22 17-30 4.5-36q0-32-14-71.5T392-178l-66 15q15 26 27 52.5T365-62q0 29-14.5 43T294 0z"/><glyph glyph-name="eta" unicode="η" horiz-adv-x="548" d="M80 0v540h58l15-66q33 44 76 62.5t79 18.5q79 0 119.5-49.5T468 350v-520h-80v524q0 73-24.5 104.5T285 490q-38 0-69-21.5T160 417V0H80z"/><glyph glyph-name="theta" unicode="θ" horiz-adv-x="575" d="M63 360q0 111 21 183t53.5 115 72.5 60 78 17 78-17 72.5-60 53-115T512 360t-20.5-182.5-53-113-72.5-58T288-10 210 6.5t-72.5 58-53.5 113T63 360zM289 51q30 0 54.5 14t42.5 47 29 86.5T428 330H147q2-78 13-131.5t30-86.5 44-47 55-14zm-1 623q-28 0-53-15t-44-48.5-30.5-87T147 392h281q-2 78-13.5 131.5t-30.5 87-43.5 48.5-52.5 15z"/><glyph glyph-name="iota" unicode="ι" horiz-adv-x="240" d="M80 0v540h80V0H80z"/><glyph glyph-name="kappa" unicode="κ" horiz-adv-x="493" d="M80 0v540h80V302l197 238h98L238 288 483 0H380L160 259V0H80z"/><glyph glyph-name="lambda" unicode="λ" horiz-adv-x="465" d="M453 0h-82L229 482 95 0H12l161 540h41l-57 195h75z"/><glyph glyph-name="mu" unicode="μ" horiz-adv-x="536" d="M160 540V186q0-39 7-64.5t20.5-40T219 61t41-6q42 0 69 20t47 51v414h80V0h-55l-17 65q-23-40-55.5-57.5T254-10q-29 0-53 11t-41 28v-199H80v710h80z"/><glyph glyph-name="nu" unicode="ν" horiz-adv-x="465" d="M455 540L291 0H172L10 540h86L233 54l141 486h81z"/><glyph glyph-name="xi" unicode="ξ" horiz-adv-x="480" d="M445-31q0-36-14.5-72.5T392-178l-66 15q15 26 27 52.5T365-62q0 13-2 23.5t-9 18T332.5-8 294 0q-42 5-82.5 18T139 55t-51.5 60.5T68 205q0 60 29.5 100t68.5 57q19 12 46 15-20 3-38 14-32 16-56.5 47T93 509q0 52 26 86.5t74 54.5H63v70h360v-63h-24q-44 0-84.5-9.5t-72-27-50-43.5-18.5-59q0-55 41-84.5T331 404h38v-67h-58q-35 0-64.5-6T196 311t-33-37-12-57q0-40 13-65.5t36.5-41.5 57-25T333 69q29-5 50.5-12t35-18 20-28 6.5-42z"/><glyph glyph-name="omicron" unicode="ο" horiz-adv-x="565" d="M63 270q0 83 20 138t51.5 87.5 71 46T283 555t77-13 70.5-45.5T482 409t20-139-20-138-51.5-85.5-70.5-44T283-10 205.5 2.5t-71 44.5T83 133 63 270zm84 0q0-114 37.5-166.5T284 51q63 0 99 51.5T419 270q0 115-38 169.5T283 494q-59 0-97.5-55T147 270z"/><glyph glyph-name="pi" unicode="π" horiz-adv-x="527" d="M502 471h-80V108q0-32 7.5-40.5T451 59q8 0 14 1t8 2l15-61q-13-4-24.5-6.5T438-8q-29 0-47.5 10t-29 28-14 42.5T344 126v343H184V-6h-78v472H22v68h480v-63z"/><glyph glyph-name="rho" unicode="ρ" horiz-adv-x="526" d="M80-170v525q0 47 14 84t38.5 63 58.5 39.5 74 13.5q39 0 75-12.5t63-44 43.5-85.5T463 276q0-148-53.5-217T267-10q-34 0-60.5 11.5T160 33v-203H80zm80 259q17-17 39.5-29T251 48q60 0 96 54.5T383 279q0 111-30.5 160.5T264 489q-28 0-47.5-10t-32-26.5T166 414t-6-47V89z"/><glyph glyph-name="sigma1" unicode="ς" horiz-adv-x="506" d="M291 0q-48 5-89.5 20.5t-72.5 47-48.5 81T63 271q0 77 18.5 131t48.5 88 68 49.5 77 15.5q45 0 78-14t56.5-36 37-49.5T466 401l-80-12q-10 45-34 73t-75 28q-27 0-51-12t-41.5-38.5T157 371t-10-103q0-58 11.5-94.5t34-58.5 57-32.5T330 67q34-4 56-12.5t34.5-21 17-29T442-31q0-32-14-71.5T389-178l-66 15q15 26 27 52.5T362-62q0 29-14.5 43T291 0z"/><glyph glyph-name="sigma" unicode="σ" horiz-adv-x="571" d="M502 270q0-84-19.5-138t-51-85.5-70-44T284-10 206 2.5 135 47t-52 86-20 137q0 87 21 141.5t54.5 85.5 74 43 79.5 15l226 14v-75h-89q11-12 24-31t24-46 18-63.5 7-83.5zm-355 0q0-63 11.5-105t30-67.5 43.5-36T284 51t51.5 10.5 43 36T408 165t11 105q0 48-6.5 84.5t-16 64-22 46T350 494h-18q-34 0-67-6t-59.5-29-42.5-67.5T147 270z"/><glyph glyph-name="tau" unicode="τ" horiz-adv-x="436" d="M411 473H257V0h-79v473H25v67h386v-67z"/><glyph glyph-name="upsilon" unicode="υ" horiz-adv-x="537" d="M268 54q51 0 80 33.5t29 90.5v362h80V181q0-43-13-78t-37.5-60T347 4t-79-14q-88 0-138 50T80 177v363h80V174q0-57 28.5-88.5T268 54z"/><glyph glyph-name="phi" unicode="φ" horiz-adv-x="733" d="M670 273q0-68-14.5-119T609 68.5 525.5 15 400-8v-162h-75V-8q-72 4-122 23t-81 53.5T77 154 63 273q0 63 12.5 111t31.5 82.5 41 56.5 41 32l56-35q-20-14-39-33.5T172.5 438 149 368.5t-9-95.5q0-60 12.5-100.5T189 107t58-36.5T325 56v472q37 12 80 19.5t89 7.5q85 0 130.5-66.5T670 273zm-77 0q0 73-10.5 116.5t-27 66T519 485t-39 7q-17 0-41-3.5t-39-9.5V56q46 3 81.5 14.5T542 107t38 65.5T593 273z"/><glyph glyph-name="chi" unicode="χ" horiz-adv-x="500" d="M291 203l189-373h-94L243 127 103-170H20l180 370L33 540h92l123-266 119 266h80z"/><glyph glyph-name="psi" unicode="ψ" horiz-adv-x="712" d="M394 540V55q86 9 123 54.5T554 222v318h78V237q0-44-11-86t-38-75.5-73-56T394-8v-162h-76V-8q-70 5-116 28t-73 57-38 75.5T80 237v303h78V222q0-67 37-112t123-54v484h76z"/><glyph glyph-name="omega" unicode="ω" horiz-adv-x="752" d="M376 89q-7-15-17.5-32.5t-26.5-32T293 0t-56-10q-81 0-127.5 66T63 263q0 81 28 157.5T177 555l62-36q-43-44-67-106t-24-155q0-99 23.5-152T243 53q52 0 72.5 46.5T336 227v159h80V227q0-81 20.5-127.5T509 53q48 0 71.5 53T604 258q0 93-24 155t-67 106l62 36q58-58 86-134.5T689 263q0-141-46.5-207T515-10q-33 0-56 10t-39 24.5-26.5 32T376 89z"/><glyph glyph-name="iotadieresis" unicode="ϊ" horiz-adv-x="240" d="M-28 635v90h95v-90h-95zm205 0v90h95v-90h-95zM80 0v540h80V0H80z"/><glyph glyph-name="upsilondieresis" unicode="ϋ" horiz-adv-x="537" d="M268 54q51 0 80 33.5t29 90.5v362h80V181q0-43-13-78t-37.5-60T347 4t-79-14q-88 0-138 50T80 177v363h80V174q0-57 28.5-88.5T268 54zM117 631v90h95v-90h-95zm205 0v90h95v-90h-95z"/><glyph glyph-name="omicrontonos" unicode="ό" horiz-adv-x="565" d="M63 270q0 83 20 138t51.5 87.5 71 46T283 555t77-13 70.5-45.5T482 409t20-139-20-138-51.5-85.5-70.5-44T283-10 205.5 2.5t-71 44.5T83 133 63 270zm84 0q0-114 37.5-166.5T284 51q63 0 99 51.5T419 270q0 115-38 169.5T283 494q-59 0-97.5-55T147 270zm144 465h110l-92-147h-68z"/><glyph glyph-name="upsilontonos" unicode="ύ" horiz-adv-x="537" d="M268 54q51 0 80 33.5t29 90.5v362h80V181q0-43-13-78t-37.5-60T347 4t-79-14q-88 0-138 50T80 177v363h80V174q0-57 28.5-88.5T268 54zm9 681h110l-92-147h-68z"/><glyph glyph-name="omegatonos" unicode="ώ" horiz-adv-x="752" d="M376 89q-7-15-17.5-32.5t-26.5-32T293 0t-56-10q-81 0-127.5 66T63 263q0 81 28 157.5T177 555l62-36q-43-44-67-106t-24-155q0-99 23.5-152T243 53q52 0 72.5 46.5T336 227v159h80V227q0-81 20.5-127.5T509 53q48 0 71.5 53T604 258q0 93-24 155t-67 106l62 36q58-58 86-134.5T689 263q0-141-46.5-207T515-10q-33 0-56 10t-39 24.5-26.5 32T376 89zm3 646h110l-92-147h-68z"/><glyph glyph-name="afii10023" unicode="Ё" horiz-adv-x="500" d="M116 785v90h95v-90h-95zm205 0v90h95v-90h-95zm89-452H175V68h265V0H90v720h350v-68H175V399h235v-66z"/><glyph glyph-name="afii10051" unicode="Ђ" horiz-adv-x="681" d="M369 62q6-2 16-3.5t20.5-3 20.5-2 16-.5q48 0 65 47.5T524 247q0 53-7 89t-21 58-34 31.5-47 9.5q-42 0-76-25t-60-57V0h-85v646H25v74h445v-74H279V429q16 20 35.5 34.5t40 23.5 41.5 13.5 39 4.5q79 0 127.5-62.5T611 243q0-80-11.5-130t-32-78.5T519-4t-61-10q-8 0-19.5.5t-24.5 2T389-8t-20 5v65z"/><glyph glyph-name="afii10052" unicode="Ѓ" horiz-adv-x="477" d="M90 0v720h362v-74H175V0H90zm202 885h119L269 768h-72z"/><glyph glyph-name="afii10053" unicode="Є" horiz-adv-x="582" d="M425 335H158q2-81 15.5-135t35-87T258 66.5 318 53q57 0 88.5 25.5T455 158l82-11q-25-78-77.5-120T316-15q-40 0-83.5 16T153 58.5 93.5 173 70 360q0 112 23 185t59 115 80.5 58.5T320 735q46 0 81.5-13t61-34 41.5-48.5 24-55.5l-82-13q-30 97-126 97-32 0-60.5-13t-50-43.5-35-82T158 401h267v-66z"/><glyph glyph-name="afii10054" unicode="Ѕ" horiz-adv-x="548" d="M277 669q-24 0-46-6.5t-38.5-20T166 608t-10-49q0-26 7-45.5t23.5-35.5 43.5-30.5 67-29.5q39-15 73.5-33t60.5-44.5 41.5-63.5 15.5-90q0-41-15.5-78T429 44.5 361.5 1 273-15q-52 0-91.5 15T114 38.5t-45 52T45 146l79 14q6-20 16.5-39t28-34T212 62.5t62-9.5q24 0 47 7.5t41 23 29.5 40T403 182q0 39-9.5 63.5t-30 43T310 322t-79 34q-81 33-119.5 80.5T73 553q0 38 14 71.5t40 58 63.5 38.5 84.5 14q45 0 80-13t60.5-34.5T458 639t26-55l-75-14q-12 39-45 69t-87 30z"/><glyph glyph-name="afii10055" unicode="І" horiz-adv-x="265" d="M175 720V0H90v720h85z"/><glyph glyph-name="afii10056" unicode="Ї" horiz-adv-x="265" d="M-16 795v90h95v-90h-95zm205 0v90h95v-90h-95zm-14-75V0H90v720h85z"/><glyph glyph-name="afii10057" unicode="Ј" horiz-adv-x="324" d="M154 720h85V165q0-96-34-137.5T101-14q-26 0-47 4T15 0v69q17-5 39.5-9T91 56q17 0 29 4t19.5 16 11 33.5T154 167v553z"/><glyph glyph-name="afii10058" unicode="Љ" horiz-adv-x="916" d="M197 720h340V426h98q44 0 86.5-12t75.5-38 53.5-66.5T871 211t-21-98-56.5-65-81-36.5T619 0H452v651H268l-62-449q-8-57-21-95.5T149.5 44t-55-34T15 0v69q25 0 42.5 5.5T87 93t19.5 35.5T119 185zm340-360V65h97q69 0 108.5 34T782 211q0 69-35.5 109T639 360H537z"/><glyph glyph-name="afii10059" unicode="Њ" horiz-adv-x="909" d="M530 720V426h98q44 0 86.5-12t75.5-38 53.5-66.5T864 211t-21-98-56.5-65-81-36.5T612 0H445v330H175V0H90v720h85V398h270v322h85zm0-360V65h97q69 0 108.5 34T775 211q0 69-35.5 109T632 360H530z"/><glyph glyph-name="afii10060" unicode="Ћ" horiz-adv-x="677" d="M512 0v299q0 73-24.5 104.5T409 435q-38 0-71-23t-59-54V0h-85v646H25v74h425v-74H279V424q31 45 71 63t82 18q79 0 122-49.5T597 300V0h-85z"/><glyph glyph-name="afii10061" unicode="Ќ" horiz-adv-x="543" d="M424 0L175 335V0H90v720h85V406l226 314h95L245 377 528 0H424zm-91 885h119L310 768h-72z"/><glyph glyph-name="afii10062" unicode="Ў" horiz-adv-x="484" d="M250 769q-23 0-47 4.5t-45 17-37 35.5-23 59h79q5-32 23-45.5t50-13.5 50 13.5 23 45.5h79q-7-36-23-59t-37-35.5-45-17-47-4.5zm60-623q-11-38-23-67.5T257 28 213.5-4 149-15q-29 0-65 9v67q17-4 32-6t31-2q37 0 55 27.5t31 79.5h-41L10 720h89l152-508 142 508h81z"/><glyph glyph-name="afii10145" unicode="Џ" horiz-adv-x="610" d="M90 0v720h85V69h260v651h85V0H348l-7-135h-70L264 0H90z"/><glyph glyph-name="afii10017" unicode="А" horiz-adv-x="553" d="M453 0l-52 187H147L94 0H10l216 720h102L543 0h-90zM165 252h218L276 642z"/><glyph glyph-name="afii10018" unicode="Б" horiz-adv-x="559" d="M447 648H175V426h98q44 0 86.5-12t75.5-38 53.5-66.5T509 211t-21-98-56.5-65-81-36.5T257 0H90v720h357v-72zM175 360V65h97q69 0 108.5 34T420 211q0 69-35.5 109T277 360H175z"/><glyph glyph-name="afii10019" unicode="В" horiz-adv-x="559" d="M259 720q112 0 169.5-47.5T486 534q0-57-30.5-98T377 380q27-6 51-19.5t42-35.5 28.5-53.5T509 199q0-58-22-96t-58-61-81-32.5T257 0H90v720h169zm-84-373V65h97q30 0 56.5 6.5t47 21.5 32.5 41 12 65q0 34-7.5 61T388 306.5t-44.5 30T277 347H175zm0 314V408h98q69 0 98.5 33t29.5 93q0 64-36.5 95.5T267 661h-92z"/><glyph glyph-name="afii10020" unicode="Г" horiz-adv-x="477" d="M90 0v720h362v-74H175V0H90z"/><glyph glyph-name="afii10021" unicode="Д" horiz-adv-x="637" d="M15-135V69h35q14 3 28 9t26 19 21 34 14 54l82 535h331V69h40v-204h-66L507 0H99L81-135H15zm211 337q-8-54-23.5-85T167 69h300v582H292z"/><glyph glyph-name="afii10022" unicode="Е" horiz-adv-x="500" d="M410 333H175V68h265V0H90v720h350v-68H175V399h235v-66z"/><glyph glyph-name="afii10024" unicode="Ж" horiz-adv-x="735" d="M15 0l249 377L47 720h93l188-317v317h79V403l188 317h93L471 377 720 0h-97L407 338V0h-79v338L112 0H15z"/><glyph glyph-name="afii10025" unicode="З" horiz-adv-x="531" d="M261 53q24 0 47.5 7.5t42 24.5 30 44.5T392 197q0 43-9.5 72t-26 47-40 26-51.5 8h-57v71h55q106 0 106 127 0 33-9 56.5t-24.5 38-35.5 21-42 6.5q-32 0-54-10.5t-36.5-27-22.5-37-12-39.5l-80 13q8 41 27.5 72t47.5 52 62.5 31.5T262 735t72-11 62-34 43.5-57.5T456 552q0-69-32.5-111.5T337 389q30-3 56-16.5t45.5-37.5 31-58 11.5-77q0-53-17-93t-46-67-68.5-41T265-15q-47 0-83.5 13t-64 36T72 88.5 45 157l85 12q3-19 11.5-39.5t24-37.5 39-28T261 53z"/><glyph glyph-name="afii10026" unicode="И" horiz-adv-x="645" d="M175 720V201l294 462v57h86V0h-85v523L176 57V0H90v720h85z"/><glyph glyph-name="afii10027" unicode="Й" horiz-adv-x="645" d="M175 720V201l294 462v57h86V0h-85v523L176 57V0H90v720h85zm145 49q-23 0-47 4.5t-45 17-37 35.5-23 59h79q5-32 23-45.5t50-13.5 50 13.5 23 45.5h79q-7-36-23-59t-37-35.5-45-17-47-4.5z"/><glyph glyph-name="afii10028" unicode="К" horiz-adv-x="543" d="M424 0L175 335V0H90v720h85V406l226 314h95L245 377 528 0H424z"/><glyph glyph-name="afii10029" unicode="Л" horiz-adv-x="627" d="M197 720h340V0h-85v651H268l-62-449q-8-57-21-95.5T149.5 44t-55-34T15 0v69q25 0 42.5 5.5T87 93t19.5 35.5T119 185z"/><glyph glyph-name="afii10030" unicode="М" horiz-adv-x="747" d="M341 0L171 569V0H90v720h111l180-606 166 606h110V0h-84v569L416 0h-75z"/><glyph glyph-name="afii10031" unicode="Н" horiz-adv-x="620" d="M530 720V0h-85v330H175V0H90v720h85V398h270v322h85z"/><glyph glyph-name="afii10032" unicode="О" horiz-adv-x="658" d="M70 360q0 105 22 176.5T150 652t82.5 63.5T329 735q49 0 96-19.5t83-63.5 58-115.5T588 360t-22-176.5T508 68 425 4.5 329-15q-50 0-96.5 19.5T150 68 92 183.5 70 360zm87 0q0-153 42.5-231.5T329 50t129.5 78.5T501 360t-42.5 231.5T329 670t-129.5-78.5T157 360z"/><glyph glyph-name="afii10033" unicode="П" horiz-adv-x="610" d="M520 720V0h-85v651H175V0H90v720h430z"/><glyph glyph-name="afii10034" unicode="Р" horiz-adv-x="528" d="M244 720q53 0 98.5-13.5t79-42 52.5-72T493 489q0-59-20-101.5t-54.5-70T338 277t-98-13h-65V0H90v720h154zm-69-65V329h67q79 0 121.5 39T406 489q0 78-42.5 122T246 655h-71z"/><glyph glyph-name="afii10035" unicode="С" horiz-adv-x="582" d="M318 53q54 0 86.5 29t49.5 83l83-8q-24-77-77-124.5T316-15q-40 0-83.5 16T153 58.5 93.5 173 70 360q0 112 23 185t59 115 80.5 58.5T320 735q47 0 82.5-14.5T463 683t41-52 24-57l-82-11q-15 48-44.5 76.5T320 668q-34 0-63.5-14.5t-51.5-50-34.5-94.5T158 360q0-89 13-148t34.5-94T256 68t62-15z"/><glyph glyph-name="afii10036" unicode="Т" horiz-adv-x="475" d="M450 646H279V0h-85v646H25v74h425v-74z"/><glyph glyph-name="afii10037" unicode="У" horiz-adv-x="484" d="M310 146q-11-38-23-67.5T257 28 213.5-4 149-15q-29 0-65 9v67q17-4 32-6t31-2q37 0 55 27.5t31 79.5h-41L10 720h89l152-508 142 508h81z"/><glyph glyph-name="afii10038" unicode="Ф" horiz-adv-x="775" d="M427 750V648q46-3 97-18.5t93.5-49 70-86.5T715 363t-27.5-131.5-70-87-93.5-49T427 77V-30h-79V77q-47 3-97.5 18.5t-93 49-70 87T60 363t27.5 131 70 86.5 93 49T348 648v102h79zm203-387q0 67-20 109t-50.5 66.5-66 34.5-66.5 12V143q31 2 66.5 11.5t66 33.5 50.5 66 20 109zm-485 0q0-67 20-109t50.5-66 66-33.5T348 143v442q-31-2-66.5-12t-66-34.5T165 472t-20-109z"/><glyph glyph-name="afii10039" unicode="Х" horiz-adv-x="550" d="M320 375L515 0h-97L274 292 122 0H35l197 372L53 720h95l133-268 139 268h88z"/><glyph glyph-name="afii10040" unicode="Ц" horiz-adv-x="605" d="M470 0H90v720h85V69h250v651h85V69h45v-204h-66z"/><glyph glyph-name="afii10041" unicode="Ч" horiz-adv-x="590" d="M270 253q-36 0-70 8.5t-60 31T98 354 82 454v266h85V455q0-38 7-63t22.5-40.5 41.5-22 65-6.5q25 0 55.5 3t56.5 7v387h85V0h-85v267q-28-5-65.5-9.5T270 253z"/><glyph glyph-name="afii10042" unicode="Ш" horiz-adv-x="851" d="M90 0v720h83V69h212v651h81V69h212v651h83V0H90z"/><glyph glyph-name="afii10043" unicode="Щ" horiz-adv-x="855" d="M720 0H90v720h83V69h212v651h81V69h212v651h83V69h44v-204h-66z"/><glyph glyph-name="afii10044" unicode="Ъ" horiz-adv-x="574" d="M20 720h185V426h86q44 0 86.5-12t76.5-38 54.5-66.5T529 211t-21.5-98-57-65T369 11.5 275 0H120v651H20v69zm185-360V65h85q69 0 109.5 34T440 211q0 69-36.5 109T295 360h-90z"/><glyph glyph-name="afii10045" unicode="Ы" horiz-adv-x="769" d="M679 720V0h-85v720h85zm-504 0V426h86q44 0 86.5-12t76.5-38 54.5-66.5T499 211t-21.5-98-57-65T339 11.5 245 0H90v720h85zm0-360V65h85q69 0 109.5 34T410 211q0 69-36.5 109T265 360h-90z"/><glyph glyph-name="afii10046" unicode="Ь" horiz-adv-x="544" d="M175 720V426h86q44 0 86.5-12t76.5-38 54.5-66.5T499 211t-21.5-98-57-65T339 11.5 245 0H90v720h85zm0-360V65h85q69 0 109.5 34T410 211q0 69-36.5 109T265 360h-90z"/><glyph glyph-name="afii10047" unicode="Э" horiz-adv-x="584" d="M157 403h270q-3 76-16 127t-33.5 82-48 43.5T270 668q-49 0-84-24.5T136 571l-82 13q9 28 27.5 55.5T127 688t63 34 80 13q46 0 89.5-16.5t78-58.5T493 545t21-185q0-114-22.5-187t-58-115T354 .5 267-15q-90 0-143.5 41T45 145l82 11Q152 53 265 53q31 0 60 13.5t51 46.5 36 87.5T428 337H157v66z"/><glyph glyph-name="afii10048" unicode="Ю" horiz-adv-x="881" d="M175 720V398h119q4 93 27 157.5T379.5 660t80 57.5T552 735q49 0 96-19.5t83-63.5 58-115.5T811 360t-22-176.5T731 68 648 4.5 552-15q-48 0-93 18t-81 58.5T319 168t-26 162H175V0H90v720h85zm205-360q0-153 42.5-231.5T552 50t129.5 78.5T724 360t-42.5 231.5T552 670t-129.5-78.5T380 360z"/><glyph glyph-name="afii10049" unicode="Я" horiz-adv-x="557" d="M15 0l179 301q-26 11-49 28t-40 41-27 55.5T68 498q0 57 19.5 99t53.5 69.5 80 40.5 99 13h147V0h-85v282H277L116 0H15zm303 655q-75 0-119-40.5T155 498t44-113.5T315 347h67v308h-64z"/><glyph glyph-name="afii10065" unicode="а" horiz-adv-x="506" d="M372 0l-18 64q-23-32-60.5-53T196-10q-25 0-52.5 7.5T93 22.5t-38 47T40 144t18 77.5 47.5 55 68 35.5 79.5 19l93 14v37q0 23-5 44t-16.5 36.5T294 487t-47 9q-43 0-71-24t-37-60l-79 14q22 57 70.5 93T252 555q84 0 129-46t45-137V0h-54zM220 54q40 0 71 16t55 42v176l-72-12q-72-12-111.5-40.5T123 150q0-51 27-73.5T220 54z"/><glyph glyph-name="afii10066" unicode="б" d="M298 617q-27-4-51-12t-43-23-32.5-40-19.5-63q22 33 54.5 54.5T293 555q38 0 71.5-14t58-47.5 38.5-88T475 270q0-147-56-213.5T267-10q-102 0-153 73T63 270q0 110 11 184t35.5 121 63 70.5T265 678q61 10 85 25t24 47h85q0-30-8-52t-26.5-38-49.5-26.5-77-16.5zM146 270q0-99 29.5-158T268 53q60 0 92 52.5T392 270q0 109-25.5 166T276 493q-27 0-50.5-12.5t-41-39.5-28-69.5T146 270z"/><glyph glyph-name="afii10067" unicode="в" horiz-adv-x="526" d="M246 540q109 0 158.5-35T454 400q0-42-27-74t-72-40q25-3 47-12.5t38.5-26 26-40T476 153q0-44-18-73t-49.5-47T334 7.5 242 0H80v540h166zm-87-287V64h97q28 0 52.5 3.5t43 13 29 27T391 153q0 49-28 74.5T261 253H159zm0 228V313h98q65 0 90.5 21t25.5 66q0 48-32 64.5T251 481h-92z"/><glyph glyph-name="afii10068" unicode="г" horiz-adv-x="423" d="M80 0v540h318v-67H160V0H80z"/><glyph glyph-name="afii10069" unicode="д" horiz-adv-x="550" d="M470 66h40v-181h-61L428 0H97L76-115H15V66h47q26 12 37.5 36t18.5 63l62 375h290V66zM199 171q-7-40-19.5-65T150 66h240v408H247z"/><glyph glyph-name="afii10070" unicode="е" horiz-adv-x="546" d="M282 54q25 0 44.5 7.5T360 81t23.5 27 14.5 30l70-15q-9-26-25.5-50t-40-42.5-55-29.5T277-10q-38 0-76 13.5T132 49t-50 86-19 135q0 82 18.5 136.5t48 87.5 66.5 47 75 14q103 0 155.5-71T479 257H145q1-63 13-102.5t31-62T232 62t50-8zm-6 441q-52 0-87-41.5T146 318h252q-2 87-33.5 132T276 495z"/><glyph glyph-name="afii10072" unicode="ж" horiz-adv-x="662" d="M129 540l165-236v236h75V305l164 235h91L439 287 652 0h-94L369 258V0h-75v259L104 0H10l213 287L38 540h91z"/><glyph glyph-name="afii10073" unicode="з" horiz-adv-x="482" d="M231 53q55 0 87 26t32 77q0 39-28 67t-76 28h-59v64h57q38 0 65.5 23.5T337 404q0 46-30.5 68.5T228 495t-76.5-28-35.5-65l-75 13q10 37 30 63.5t46.5 43.5 57 25 62.5 8q40 0 74-11.5t59-31 38.5-45.5 13.5-55q0-43-28.5-79T314 287q23-2 45-11t39.5-26 28-42 10.5-59q0-40-17-70t-45-49.5T311 0t-73-10q-82 0-133.5 39T40 129l77 13q3-17 11.5-33T151 80.5t34-20 46-7.5z"/><glyph glyph-name="afii10074" unicode="и" horiz-adv-x="553" d="M157 540V155l238 350v35h78V0h-78v378L157 35V0H80v540h77z"/><glyph glyph-name="afii10075" unicode="й" horiz-adv-x="553" d="M273 614q-26 0-50.5 5.5t-45.5 19-36.5 37T118 735h83q10-63 72-63t72 63h83q-7-36-22.5-59.5t-36.5-37-46-19-50-5.5zm-116-74V155l238 350v35h78V0h-78v378L157 35V0H80v540h77z"/><glyph glyph-name="afii10076" unicode="к" horiz-adv-x="493" d="M80 0v540h80V302l197 238h98L238 288 483 0H380L160 259V0H80z"/><glyph glyph-name="afii10077" unicode="л" horiz-adv-x="541" d="M461 0h-80v474H236l-50-308q-7-44-19-75.5T135.5 39t-49-29.5T15 0v65q45 1 64 22t27 73l62 380h293V0z"/><glyph glyph-name="afii10078" unicode="м" horiz-adv-x="657" d="M300 0L155 435V0H80v540h113l137-422 137 422h110V0h-78v435L353 0h-53z"/><glyph glyph-name="afii10079" unicode="н" horiz-adv-x="562" d="M482 540V0h-80v239H160V0H80v540h80V304h242v236h80z"/><glyph glyph-name="afii10080" unicode="о" horiz-adv-x="565" d="M63 270q0 83 20 138t51.5 87.5 71 46T283 555t77-13 70.5-45.5T482 409t20-139-20-138-51.5-85.5-70.5-44T283-10 205.5 2.5t-71 44.5T83 133 63 270zm84 0q0-114 37.5-166.5T284 51q63 0 99 51.5T419 270q0 115-38 169.5T283 494q-59 0-97.5-55T147 270z"/><glyph glyph-name="afii10081" unicode="п" horiz-adv-x="562" d="M482 0h-80v474H160V0H80v540h402V0z"/><glyph glyph-name="afii10082" unicode="р" horiz-adv-x="518" d="M80-170v710h75l2-46q23 29 55 45t74 16q34 0 64.5-15t53.5-48.5 37-86.5 14-129q0-140-47.5-213T266-10q-35 0-61 12.5T160 35v-205H80zm180 659q-30 0-55-15.5T160 435V89q17-17 39-29t51-12q28 0 50.5 12.5t38 40.5 24 72.5T371 281q0 60-8 100t-22 64-35 34-46 10z"/><glyph glyph-name="afii10083" unicode="с" horiz-adv-x="509" d="M277 490q-27 0-51-12t-41.5-38.5T157 371t-10-103 10.5-102 27.5-66 40-35.5T274 54q25 0 45 8.5t34 23 22.5 33T388 158l81-10q-7-29-22-57t-39.5-50.5T349 4t-77-14q-35 0-72 12.5t-67.5 44-50 86T63 271q0 77 18.5 131t48.5 88 68 49.5 77 15.5q45 0 78-14t56.5-36 37-49.5T466 401l-80-12q-10 45-34 73t-75 28z"/><glyph glyph-name="afii10084" unicode="т" horiz-adv-x="436" d="M411 473H257V0h-79v473H25v67h386v-67z"/><glyph glyph-name="afii10085" unicode="у" horiz-adv-x="458" d="M292-14q-11-37-22-65t-26.5-46.5-38.5-28-59-9.5q-29 0-65 9v63q17-4 32-6t31-2q36 0 50 24t26 75h-38L10 540h85L239 53l133 487h76z"/><glyph glyph-name="afii10086" unicode="ф" horiz-adv-x="776" d="M350-170V46q-48-56-123-56-34 0-63.5 15.5t-52 49-35.5 87T63 271t13 130 35.5 88 52 50 63.5 16q75 0 123-57v172h76V498q46 57 123 57 34 0 63.5-16t52-50 35.5-88 13-130-13-129.5-35.5-87-52-49T549-10q-76 0-123 56v-216h-76zM147 271q0-60 6.5-101t19.5-66.5T205 67t45-11q30 0 55 15.5t45 38.5v325q-20 23-45 38.5T250 489q-51 0-77-50t-26-168zm482 0q0 118-26 168t-77 50q-30 0-55-15.5T426 435V110q20-23 45-38.5T526 56q25 0 44.5 11t32.5 36.5 19.5 66.5 6.5 101z"/><glyph glyph-name="afii10087" unicode="х" horiz-adv-x="500" d="M290 289L480 0h-98L243 222 105 0H20l181 284L33 540h96l119-191 117 191h82z"/><glyph glyph-name="afii10088" unicode="ц" horiz-adv-x="557" d="M430 0H80v540h80V66h232v474h80V66h40v-181h-61z"/><glyph glyph-name="afii10089" unicode="ч" horiz-adv-x="532" d="M152 540V307q0-53 20-77.5t79-24.5q25 0 58 3.5t63 11.5v320h80V0h-80v163q-29-11-65-17t-68-6q-38 0-68.5 8.5t-52.5 28T84 228t-12 80v232h80z"/><glyph glyph-name="afii10090" unicode="ш" horiz-adv-x="770" d="M690 0H80v540h79V66h187v474h78V66h187v474h79V0z"/><glyph glyph-name="afii10091" unicode="щ" horiz-adv-x="775" d="M648 0H80v540h79V66h187v474h78V66h187v474h79V66h40v-181h-61z"/><glyph glyph-name="afii10092" unicode="ъ" horiz-adv-x="531" d="M20 540h160V341h92q59 0 100.5-13.5t68-36.5 38.5-54.5 12-68.5q0-43-17-74.5T426 41t-74-31-95-10H100v477H20v63zm160-263V64h91q60 0 97.5 24.5T406 167q0 25-6.5 45T378 246.5 338 269t-62 8h-96z"/><glyph glyph-name="afii10093" unicode="ы" horiz-adv-x="723" d="M643 540V0h-78v540h78zm-483 0V341h92q59 0 100.5-13.5t68-36.5 38.5-54.5 12-68.5q0-43-17-74.5T406 41t-74-31-95-10H80v540h80zm0-263V64h91q60 0 97.5 24.5T386 167q0 25-6.5 45T358 246.5 318 269t-62 8h-96z"/><glyph glyph-name="afii10094" unicode="ь" horiz-adv-x="511" d="M160 540V341h92q59 0 100.5-13.5t68-36.5 38.5-54.5 12-68.5q0-43-17-74.5T406 41t-74-31-95-10H80v540h80zm0-263V64h91q60 0 97.5 24.5T386 167q0 25-6.5 45T358 246.5 318 269t-62 8h-96z"/><glyph glyph-name="afii10095" unicode="э" horiz-adv-x="508" d="M151 243v63h211q-5 100-37 142t-87 42q-42 0-69.5-18T125 409l-80 12q9 28 27 52.5t43 42.5 56.5 28.5T240 555q40 0 77.5-15.5T383 490t45-88 17-131q0-83-20-137t-51-86-68.5-45T233-10q-42 0-74 10.5T103.5 30t-39 44T40 128l83 10q8-32 33.5-58T231 54q24 0 46.5 10T318 96.5t30 58.5 14 88H151z"/><glyph glyph-name="afii10096" unicode="ю" horiz-adv-x="747" d="M160 540V304h86q4 72 25 120.5t52 77.5 68.5 41 73.5 12q38 0 77-13t70.5-45.5T664 409t20-139-20-138-51.5-85.5-70.5-44T465-10q-36 0-73.5 11.5T323 41t-52 76-25 122h-86V0H80v540h80zm169-270q0-114 37.5-166.5T466 51q63 0 99 51.5T601 270q0 115-38 169.5T465 494q-59 0-97.5-55T329 270z"/><glyph glyph-name="afii10097" unicode="я" horiz-adv-x="493" d="M10 0l142 215q-48 17-79.5 55T41 369q0 48 17 81t45.5 53 64.5 28.5 74 8.5h171V0h-80v201h-97L106 0H10zm116 369q0-26 9.5-45.5t25-32.5 35.5-20 41-7h96v214h-90q-21 0-42-5t-37.5-18-27-34-10.5-52z"/><glyph glyph-name="afii10071" unicode="ё" horiz-adv-x="534" d="M126 635v90h95v-90h-95zm205 0v90h95v-90h-95zM282 54q25 0 44.5 7.5T360 81t23.5 27 14.5 30l70-15q-9-26-25.5-50t-40-42.5-55-29.5T277-10q-38 0-76 13.5T132 49t-50 86-19 135q0 82 18.5 136.5t48 87.5 66.5 47 75 14q103 0 155.5-71T479 257H145q1-63 13-102.5t31-62T232 62t50-8zm-6 441q-52 0-87-41.5T146 318h252q-2 87-33.5 132T276 495z"/><glyph glyph-name="afii10099" unicode="ђ" horiz-adv-x="553" d="M85 0v613H31v62h54v60h75v-60h205v-62H160V470q32 45 73.5 65t79.5 20q79 0 119.5-49.5T473 350V-24q0-62-31-100.5T343-163q-16 0-36.5 3t-37.5 8v63q13-3 29.5-5.5T327-97q35 0 50.5 17T393-14v368q0 73-24.5 104.5T290 490q-38 0-71-24t-59-56V0H85z"/><glyph glyph-name="afii10100" unicode="ѓ" horiz-adv-x="423" d="M80 0v540h318v-67H160V0H80zm203 735h113L256 598h-70z"/><glyph glyph-name="afii10101" unicode="є" horiz-adv-x="506" d="M147 243q2-54 13.5-90T190 95t40.5-31.5T277 54q49 0 74.5 26t33.5 58l81-10q-9-29-24-54t-37.5-44T350 .5 275-10q-35 0-72.5 12.5t-68.5 44-51 86T63 271q0 77 18.5 131t48.5 88 68 49.5 77 15.5q40 0 71.5-10.5t55-28.5 38.5-42.5 23-52.5l-80-12q-13 45-38.5 63T277 490q-25 0-47-10t-39.5-32-28.5-57-14-85h209v-63H147z"/><glyph glyph-name="afii10102" unicode="ѕ" horiz-adv-x="457" d="M223-10q-70 0-118.5 31T35 103l75 22q14-32 44.5-50.5T225 56t70 22.5 30 67.5q0 26-12 44t-31.5 30-44 20.5T188 257q-72 22-103.5 57.5T53 404q0 37 14 65t38 47 55 29 65 10q36 0 64.5-9t50-25 36.5-36.5 23-43.5l-72-22q-9 31-33.5 52.5T224 493q-18 0-34-5t-29-14.5-20.5-24.5-7.5-36 8-35.5 24-25 41-19 58-18.5q66-20 104-57.5T406 154q0-37-13-67t-37-51.5T298 2t-75-12z"/><glyph glyph-name="afii10103" unicode="і" horiz-adv-x="240" d="M80 0v540h80V0H80zm-5 638v97h92v-97H75z"/><glyph glyph-name="afii10104" unicode="ї" horiz-adv-x="240" d="M80 0v540h80V0H80zM-29 635v90h95v-90h-95zm205 0v90h95v-90h-95z"/><glyph glyph-name="afii10105" unicode="ј" horiz-adv-x="240" d="M-44-89q13-3 29.5-5.5T14-97q35 0 50.5 17T80-14v554h80V-24q0-62-31-100.5T30-163q-16 0-36.5 3t-37.5 8v63zM75 638v97h92v-97H75z"/><glyph glyph-name="afii10106" unicode="љ" horiz-adv-x="817" d="M461 335h97q59 0 100.5-13.5t68-36.5 38.5-54.5 12-68.5q0-44-17-74.5t-48-50T638 9t-95-9H381v474H236l-50-308q-7-44-19-75.5T135.5 39t-49-29.5T15 0v65q45 1 64 22t27 73l62 380h293V335zm0-64V64h96q28 0 52.5 5t43 16 29 30 10.5 47q0 25-6.5 45T664 241t-40 22-62 8H461z"/><glyph glyph-name="afii10107" unicode="њ" horiz-adv-x="845" d="M482 540V335h104q59 0 100.5-13.5t68-36.5 38.5-54.5 12-68.5q0-44-17-74.5t-48-50T666 9t-95-9H402v239H160V0H80v540h80V304h242v236h80zm0-269V64h103q28 0 52.5 5t43 16 29 30 10.5 47q0 25-6.5 45T692 241t-40 22-62 8H482z"/><glyph glyph-name="afii10108" unicode="ћ" horiz-adv-x="553" d="M85 0v613H31v62h54v60h80v-60h200v-62H165V477q32 42 71.5 60t76.5 18q79 0 119.5-49.5T473 350V0h-80v354q0 73-24.5 104.5T290 490q-37 0-68.5-22T165 416V0H85z"/><glyph glyph-name="afii10109" unicode="ќ" horiz-adv-x="493" d="M80 0v540h80V302l197 238h98L238 288 483 0H380L160 259V0H80zm226 735h113L279 598h-70z"/><glyph glyph-name="afii10110" unicode="ў" horiz-adv-x="458" d="M228 614q-26 0-50.5 5.5t-45.5 19-36.5 37T73 735h83q10-63 72-63t72 63h83q-7-36-22.5-59.5t-36.5-37-46-19-50-5.5zm64-628q-11-37-22-65t-26.5-46.5-38.5-28-59-9.5q-29 0-65 9v63q17-4 32-6t31-2q36 0 50 24t26 75h-38L10 540h85L239 53l133 487h76z"/><glyph glyph-name="afii10193" unicode="џ" horiz-adv-x="562" d="M80 0v540h80V66h242v474h80V0H322l-11-115h-60L240 0H80z"/><glyph glyph-name="afii10146" unicode="Ѣ" horiz-adv-x="554" d="M175 564V424h96q44 0 86.5-11.5t76.5-37 54.5-66T509 211t-21.5-98-57-65T349 11.5 255 0H90v564H25v61h65v95h85v-95h188v-61H175zm0-204V65h95q69 0 109.5 34T420 211q0 69-36.5 109T275 360H175z"/><glyph glyph-name="afii10194" unicode="ѣ" horiz-adv-x="528" d="M85 540v195h80V540h200v-62H165V335h104q59 0 100.5-13.5t68-36.5 38.5-54.5 12-68.5q0-44-17-74.5t-48-50T349 9t-95-9H85v478H31v62h54zm80-269V64h103q28 0 52.5 5t43 16 29 30 10.5 47q0 25-6.5 45T375 241t-40 22-62 8H165z"/><glyph glyph-name="afii10147" unicode="Ѳ" horiz-adv-x="668" d="M70 360q0 105 22.5 176.5T152 652t84.5 63.5T334 735t97.5-19.5T516 652t59.5-115.5T598 360t-22.5-176.5-60-115.5-85-63.5T334-15q-50 0-97 19.5T152.5 68t-60 115.5T70 360zM334 50q81 0 126 71t50 209H157q5-139 50.5-209.5T334 50zm0 620q-81 0-126.5-69.5T157 394h353q-5 136-50 206t-126 70z"/><glyph glyph-name="afii10195" unicode="ѳ" horiz-adv-x="575" d="M63 270q0 83 21 138t53.5 87.5 72.5 46 78 13.5 78-13 72.5-45.5 53-87.5T512 270t-20.5-138-53-85.5-72.5-44T288-10 210 2.5 137.5 47 84 133 63 270zm225 224q-56 0-95-47t-45-145h280q-6 98-45.5 145T288 494zm1-443q58 0 96 44.5T428 240H148q5-98 43.5-143.5T289 51z"/><glyph glyph-name="afii10148" unicode="Ѵ" horiz-adv-x="577" d="M381 545q19 79 42 120.5t51 54.5h103q-28-11-47.5-31t-33-45.5T474 589t-16-57L321 0H207L10 720h90L265 61z"/><glyph glyph-name="afii10196" unicode="ѵ" horiz-adv-x="502" d="M328 395q17 63 33 97.5t42 47.5h99q-23-10-39-26.5T436 476t-18.5-45-14.5-49L291 0H172L10 540h90L233 54z"/><glyph glyph-name="afii10050" unicode="Ґ" horiz-adv-x="477" d="M452 646H175V0H90v720h284v108h78V646z"/><glyph glyph-name="afii10098" unicode="ґ" horiz-adv-x="423" d="M398 473H160V0H80v540h248v120h70V473z"/><glyph glyph-name="uni0492" unicode="Ғ" horiz-adv-x="487" d="M462 646H185V403h178v-65H185V0h-85v338H30v65h70v317h362v-74z"/><glyph glyph-name="uni0493" unicode="ғ" horiz-adv-x="433" d="M408 473H170V288h152v-65H170V0H90v223H25v65h65v252h318v-67z"/><glyph glyph-name="uni0496" unicode="Җ" horiz-adv-x="740" d="M407 720V403l188 317h93L471 377 674 69h46v-204h-66L635 0h-12L407 338V0h-79v338L112 0H15l249 377L47 720h93l188-317v317h79z"/><glyph glyph-name="uni0497" unicode="җ" horiz-adv-x="667" d="M624 540L439 287 603 66h49v-181h-61L570 0h-12L369 258V0h-75v259L104 0H10l213 287L38 540h91l165-236v236h75V305l164 235h91z"/><glyph glyph-name="uni0498" unicode="Ҙ" horiz-adv-x="541" d="M391-146q0-45-33-72t-84-27q-29 0-56 7t-46 18l30 47q11-5 27.5-9t31.5-4q23 0 41 8.5t18 35.5q0 24-25.5 34.5T232-92l14 78q-80 8-127 55.5T55 157l85 12q3-19 11.5-39.5t24-37.5 39-28T271 53q24 0 47.5 7.5t42 24.5 30 44.5T402 197q0 43-9.5 72t-26 47-40 26-51.5 8h-57v71h55q106 0 106 127 0 33-9 56.5t-24.5 38-35.5 21-42 6.5q-32 0-54-10.5t-36.5-27-22.5-37-12-39.5l-80 13q8 41 27.5 72t47.5 52 62.5 31.5T272 735t72-11 62-34 43.5-57.5T466 552q0-69-32.5-111.5T347 389q30-3 56-16.5t45.5-37.5 31-58 11.5-77q0-48-13.5-85T440 51.5 383 9t-71-21l-3-43q42-9 62-34t20-57z"/><glyph glyph-name="uni0499" unicode="ҙ" horiz-adv-x="482" d="M231 53q55 0 87 26t32 77q0 39-28 67t-76 28h-59v64h57q38 0 65.5 23.5T337 404q0 46-30.5 68.5T228 495t-76.5-28-35.5-65l-75 13q10 37 30 63.5t46.5 43.5 57 25 62.5 8q40 0 74-11.5t59-31 38.5-45.5 13.5-55q0-43-28.5-79T314 287q23-2 45-11t39.5-26 28-42 10.5-59q0-36-14-63.5t-37-47-53-31T270-8l-3-43q42-9 62-34t20-57q0-45-33-72t-84-27q-29 0-56 7t-46 18l30 45q11-5 27.5-9t31.5-4q23 0 41 9.5t18 36.5q0 24-25.5 34.5T190-88l15 80Q136 0 93.5 37T40 129l77 13q3-17 11.5-33T151 80.5t34-20 46-7.5z"/><glyph glyph-name="uni049A" unicode="Қ" horiz-adv-x="548" d="M496 720L245 377 476 69h52v-204h-61L445 0h-21L175 335V0H90v720h85V406l226 314h95z"/><glyph glyph-name="uni049B" unicode="қ" horiz-adv-x="508" d="M455 540L238 288 427 66h66v-181h-61L411 0h-31L160 259V0H80v540h80V302l197 238h98z"/><glyph glyph-name="uni049C" unicode="Ҝ" horiz-adv-x="583" d="M466 0L271 334V144h-60v191h-36V0H90v720h85V404h36v193h60V408l172 312h93L336 375 568 0H466z"/><glyph glyph-name="uni049D" unicode="ҝ" horiz-adv-x="491" d="M80 0v540h80V319h27v135h51V319l120 221h95L309 288 481 0h-98L238 246V101h-51v149h-27V0H80z"/><glyph glyph-name="uni04A0" unicode="Ҡ" horiz-adv-x="553" d="M20 720h165V406l226 314h95L255 377 538 0H434L185 335V0h-85v651H20v69z"/><glyph glyph-name="uni04A1" unicode="ҡ" horiz-adv-x="563" d="M80 540h150V302l197 238h98L308 288 553 0H450L230 259V0h-80v477H80v63z"/><glyph glyph-name="uni04A2" unicode="Ң" horiz-adv-x="625" d="M530 720V69h45v-204h-66L490 0h-45v330H175V0H90v720h85V398h270v322h85z"/><glyph glyph-name="uni04A3" unicode="ң" horiz-adv-x="567" d="M482 540V66h40v-181h-61L440 0h-38v239H160V0H80v540h80V304h242v236h80z"/><glyph glyph-name="uni04AA" unicode="Ҫ" horiz-adv-x="582" d="M467-212q-26-14-50.5-20t-53.5-6q-21 0-41 6.5T285.5-212 259-178.5 249-129q0 34 19 63.5T315-15q-40 0-83 15.5T153 58 93.5 173 70 360q0 112 23 185t59 115 80.5 58.5T320 735q47 0 82.5-14.5T463 683t41-52 24-57l-82-11q-15 48-44.5 76.5T320 668q-34 0-63.5-14.5t-51.5-50-34.5-94.5T158 360q0-89 13-148t34.5-94T256 68t62-15q54 0 86.5 29t49.5 83l83-8q-18-57-49-96.5T408 1q-33-20-58-49.5T325-120q0-22 15.5-38t42.5-16q11 0 27 3t36 11z"/><glyph glyph-name="uni04AB" unicode="ҫ" horiz-adv-x="509" d="M412-212q-26-14-50.5-20t-53.5-6q-21 0-40.5 6.5T232-212t-25.5 33.5T197-129q0 36 23 67t56 52h-4q-35 0-72 12.5t-67.5 44-50 86T63 271q0 77 18.5 131t48.5 88 68 49.5 77 15.5q45 0 78-14t56.5-36 37-49.5T466 401l-80-12q-10 45-34 73t-75 28q-27 0-51-12t-41.5-38.5T157 371t-10-103 10.5-102 27.5-66 40-35.5T274 54q25 0 45 8.5t34 23 22.5 33T388 158l81-10q-11-42-38-81T356 7q-34-20-58.5-51T273-120q0-22 14-38t41-16q11 0 27 3t36 11z"/><glyph glyph-name="uni04AE" unicode="Ү" horiz-adv-x="512" d="M502 720L300 288V0h-84v288L10 720h93l157-344 159 344h83z"/><glyph glyph-name="uni04AF" unicode="ү" horiz-adv-x="465" d="M192-170V14L10 540h86l138-435 140 435h81L272 14v-184h-80z"/><glyph glyph-name="uni04B0" unicode="Ұ" horiz-adv-x="522" d="M507 720L306 291h134v-65H305V0h-84v226H85v65h134L15 720h93l157-344 159 344h83z"/><glyph glyph-name="uni04B1" unicode="ұ" horiz-adv-x="465" d="M455 540L283 47h119v-63H272v-154h-80v154H64v63h116L10 540h86l138-435 140 435h81z"/><glyph glyph-name="uni04B2" unicode="Ҳ" horiz-adv-x="555" d="M320 375L479 69h36v-204h-66L430 0h-12L274 292 122 0H35l197 372L53 720h95l133-268 139 268h88z"/><glyph glyph-name="uni04B3" unicode="ҳ" horiz-adv-x="505" d="M290 289L434 69h46v-184h-63L399 0h-17L243 222 105 0H20l181 284L33 540h96l119-191 117 191h82z"/><glyph glyph-name="uni04B8" unicode="Ҹ" horiz-adv-x="590" d="M326 323q22 2 45.5 4.5T415 333v387h85V0h-85v267q-19-3-41.5-6.5T326 255V134h-60v119q-36 0-69 9t-58.5 31.5-41 61.5T82 454v266h85V455q0-65 21.5-95t77.5-36v283h60V323z"/><glyph glyph-name="uni04B9" unicode="ҹ" horiz-adv-x="532" d="M286 206q20 2 42.5 5.5T372 220v320h80V0h-80v163q-20-7-41.5-12t-44.5-8V51h-50v89q-38 0-68 9t-51.5 28.5-33 51.5T72 308v232h80V307q0-50 17-74.5t67-27.5v279h50V206z"/><glyph glyph-name="uni04BA" unicode="Һ" horiz-adv-x="593" d="M90 0v720h85V472q28 5 65.5 10t79.5 5q36 0 70-8.5t60-31 42-61.5 16-100V0h-85v285q0 37-7 62.5t-22.5 41-41.5 22-65 6.5q-25 0-56-3t-56-7V0H90z"/><glyph glyph-name="uni04BB" unicode="һ" horiz-adv-x="548" d="M80 0v735h80V477q32 42 71.5 60t76.5 18q79 0 119.5-49.5T468 350V0h-80v354q0 73-24.5 104.5T285 490q-37 0-68.5-22T160 416V0H80z"/><glyph glyph-name="uni04C0" unicode="Ӏ" horiz-adv-x="265" d="M175 720V0H90v720h85z"/><glyph glyph-name="uni04CB" unicode="Ӌ" horiz-adv-x="598" d="M503 720V69h45v-204h-66L463 0h-45v267q-28-5-65.5-9.5T273 253q-36 0-70 8.5t-60 31-42 61.5-16 100v266h85V455q0-38 7-63t22.5-40.5 41.5-22 65-6.5q25 0 55.5 3t56.5 7v387h85z"/><glyph glyph-name="uni04CC" unicode="ӌ" horiz-adv-x="545" d="M460 540V66h40v-181h-61L418 0h-38v163q-29-11-65-17t-68-6q-38 0-68.5 8.5t-52.5 28T92 228t-12 80v232h80V307q0-53 20-77.5t79-24.5q25 0 58 3.5t63 11.5v320h80z"/><glyph glyph-name="uni04CF" unicode="ӏ" horiz-adv-x="265" d="M175 720V0H90v720h85z"/><glyph glyph-name="uni04D8" unicode="Ә" horiz-adv-x="656" d="M316 671q-39 0-66-12t-45-30-28.5-38.5T160 552l-78 12q10 30 29 60.5t48 55 69 40 93 15.5q67 0 117-27.5t83-76T570 515t16-149q0-82-15.5-151.5T523.5 94t-80-80T328-15q-77 0-126.5 33t-79 88-41 127T70 382h429q-1 64-11 117t-32 91-56.5 59.5T316 671zm7-620q49 0 82 21.5t53 58.5 29 85 11 101H154q0-44 8.5-91t28-86 52-64T323 51z"/><glyph glyph-name="afii10846" unicode="ә" horiz-adv-x="534" d="M252 493q-25 0-44.5-8T173 464.5 149 437t-13-30l-70 15q9 26 25.5 50t40 42.5 55 29.5 70.5 11q38 0 76-13.5t69-45.5 50-86 19-135q0-82-18.5-136.5t-48-87.5-67-47T263-10q-103 0-155.5 71T55 288h334q-2 63-13.5 102.5T345 453t-43 31.5-50 8.5zm6-440q52 0 87 40.5T387 227H136q5-174 122-174z"/><glyph glyph-name="uni04E2" unicode="Ӣ" horiz-adv-x="645" d="M175 720V201l294 462v57h86V0h-85v523L176 57V0H90v720h85zm35 76v69h270v-69H210z"/><glyph glyph-name="uni04E3" unicode="ӣ" horiz-adv-x="553" d="M157 540V155l238 350v35h78V0h-78v378L157 35V0H80v540h77zm-5 106v69h270v-69H152z"/><glyph glyph-name="uni04E8" unicode="Ө" horiz-adv-x="668" d="M70 360q0 105 22.5 176.5T152 652t84.5 63.5T334 735t97.5-19.5T516 652t59.5-115.5T598 360t-22.5-176.5-60-115.5-85-63.5T334-15q-50 0-97 19.5T152.5 68t-60 115.5T70 360zM334 50q81 0 126 71t50 209H157q5-139 50.5-209.5T334 50zm0 620q-81 0-126.5-69.5T157 394h353q-5 136-50 206t-126 70z"/><glyph glyph-name="uni04E9" unicode="ө" horiz-adv-x="575" d="M63 270q0 83 21 138t53.5 87.5 72.5 46 78 13.5 78-13 72.5-45.5 53-87.5T512 270t-20.5-138-53-85.5-72.5-44T288-10 210 2.5 137.5 47 84 133 63 270zm225 224q-56 0-95-47t-45-145h280q-6 98-45.5 145T288 494zm1-443q58 0 96 44.5T428 240H148q5-98 43.5-143.5T289 51z"/><glyph glyph-name="uni04EE" unicode="Ӯ" horiz-adv-x="484" d="M310 146q-11-38-23-67.5T257 28 213.5-4 149-15q-29 0-65 9v67q17-4 32-6t31-2q37 0 55 27.5t31 79.5h-41L10 720h89l152-508 142 508h81zM119 796v69h270v-69H119z"/><glyph glyph-name="uni04EF" unicode="ӯ" horiz-adv-x="458" d="M97 657v69h270v-69H97zM292-14q-11-37-22-65t-26.5-46.5-38.5-28-59-9.5q-29 0-65 9v63q17-4 32-6t31-2q36 0 50 24t26 75h-38L10 540h85L239 53l133 487h76z"/><glyph glyph-name="uni1E02" unicode="Ḃ" horiz-adv-x="559" d="M259 720q112 0 169.5-47.5T486 534q0-57-30.5-98T377 380q27-6 51-19.5t42-35.5 28.5-53.5T509 199q0-58-22-96t-58-61-81-32.5T257 0H90v720h169zm-84-373V65h97q30 0 56.5 6.5t47 21.5 32.5 41 12 65q0 34-7.5 61T388 306.5t-44.5 30T277 347H175zm0 314V408h98q69 0 98.5 33t29.5 93q0 64-36.5 95.5T267 661h-92zm42 127v97h92v-97h-92z"/><glyph glyph-name="uni1E03" unicode="ḃ" horiz-adv-x="528" d="M80 0v735h80V491q25 30 59 47t79 17q34 0 64-15t53-48.5 36.5-86.5T465 276q0-140-52.5-213T266-10q-38 0-65.5 14.5T154 42l-9-42H80zm185 489q-31 0-57-16.5T160 433V93q18-19 40.5-32T250 48q29 0 53 12.5t41.5 40.5 27 72.5T381 281q0 60-8.5 100t-24 64-37 34-46.5 10zm-25 150v97h92v-97h-92z"/><glyph glyph-name="uni1E0A" unicode="Ḋ" horiz-adv-x="611" d="M237 720q53 0 107-14t98-53.5 71.5-110T541 360q0-113-30.5-183t-76-109.5-99-53.5T236 0H90v720h147zm-62-63V66h66q39 0 77.5 11.5T387 121t49 89.5T455 360t-20 150-51.5 90.5T314 645t-75 12h-64zm48 131v97h92v-97h-92z"/><glyph glyph-name="uni1E0B" unicode="ḋ" horiz-adv-x="563" d="M63 271q0 140 54 212t148 72q35 0 61.5-11.5T373 512v223h80V0h-58l-17 61q-25-34-61-52.5T233-10q-34 0-64.5 15.5t-54 49-37.5 87T63 271zM266 56q31 0 57.5 17t49.5 41v341q-19 17-42 29t-50 12q-29 0-53.5-12T185 444.5 157 373t-10-107q0-60 9-100t25-64.5 37.5-35T266 56zm-65 583v97h92v-97h-92z"/><glyph glyph-name="uni1E1E" unicode="Ḟ" horiz-adv-x="470" d="M400 312H175V0H90v720h340v-68H175V380h225v-68zM218 788v97h92v-97h-92z"/><glyph glyph-name="uni1E1F" unicode="ḟ" horiz-adv-x="299" d="M319 667q-19 5-38 7t-34 2q-33 0-50-15t-17-50v-71h116v-65H180V0h-80v475H20v65h80v65q0 29 7.5 54t23.5 44 40.5 29.5T231 743q50 0 88-11v-65zM168 788v97h92v-97h-92z"/><glyph glyph-name="uni1E40" unicode="Ṁ" horiz-adv-x="747" d="M341 0L171 569V0H90v720h111l180-606 166 606h110V0h-84v569L416 0h-75zm-7 781v97h92v-97h-92z"/><glyph glyph-name="uni1E41" unicode="ṁ" horiz-adv-x="825" d="M80 0v540h58l14-64q32 43 73.5 61t76.5 18q100 0 132-86 30 47 73.5 66.5T595 555q76 0 113-49.5T745 350V0h-80v354q0 73-21 104.5T572 490q-39 0-70-22.5T448 414q2-14 3-30.5t1-33.5V0h-80v354q0 73-21 104.5T279 490q-37 0-66.5-20.5T160 420V0H80zm294 638v97h92v-97h-92z"/><glyph glyph-name="uni1E56" unicode="Ṗ" horiz-adv-x="528" d="M244 720q53 0 98.5-13.5t79-42 52.5-72T493 489q0-59-20-101.5t-54.5-70T338 277t-98-13h-65V0H90v720h154zm-69-65V329h67q79 0 121.5 39T406 489q0 78-42.5 122T246 655h-71zm35 133v97h92v-97h-92z"/><glyph glyph-name="uni1E57" unicode="ṗ" horiz-adv-x="528" d="M80-170v710h58l14-55q25 34 61.5 52t84.5 18q34 0 64-15t53-48.5 36.5-86.5T465 276q0-140-52.5-213T266-10q-69 0-106 42v-202H80zm185 659q-31 0-57-16.5T160 433V89q17-17 39-29t51-12 53 12.5 41.5 40.5 27 72.5T381 281q0 60-8.5 100t-24 64-37 34-46.5 10zm-40 149v97h92v-97h-92z"/><glyph glyph-name="uni1E60" unicode="Ṡ" horiz-adv-x="548" d="M277 669q-24 0-46-6.5t-38.5-20T166 608t-10-49q0-26 7-45.5t23.5-35.5 43.5-30.5 67-29.5q39-15 73.5-33t60.5-44.5 41.5-63.5 15.5-90q0-41-15.5-78T429 44.5 361.5 1 273-15q-52 0-91.5 15T114 38.5t-45 52T45 146l79 14q6-20 16.5-39t28-34T212 62.5t62-9.5q24 0 47 7.5t41 23 29.5 40T403 182q0 39-9.5 63.5t-30 43T310 322t-79 34q-81 33-119.5 80.5T73 553q0 38 14 71.5t40 58 63.5 38.5 84.5 14q45 0 80-13t60.5-34.5T458 639t26-55l-75-14q-12 39-45 69t-87 30zm-50 119v97h92v-97h-92z"/><glyph glyph-name="uni1E61" unicode="ṡ" horiz-adv-x="457" d="M223-10q-70 0-118.5 31T35 103l75 22q14-32 44.5-50.5T225 56t70 22.5 30 67.5q0 26-12 44t-31.5 30-44 20.5T188 257q-72 22-103.5 57.5T53 404q0 37 14 65t38 47 55 29 65 10q36 0 64.5-9t50-25 36.5-36.5 23-43.5l-72-22q-9 31-33.5 52.5T224 493q-18 0-34-5t-29-14.5-20.5-24.5-7.5-36 8-35.5 24-25 41-19 58-18.5q66-20 104-57.5T406 154q0-37-13-67t-37-51.5T298 2t-75-12zm-46 648v97h92v-97h-92z"/><glyph glyph-name="uni1E6A" unicode="Ṫ" horiz-adv-x="475" d="M450 646H279V0h-85v646H25v74h425v-74zM189 788v97h92v-97h-92z"/><glyph glyph-name="uni1E6B" unicode="ṫ" horiz-adv-x="329" d="M299 5q-18-5-35-8t-40-3q-66 0-95 38t-29 101v342H20v65h81l6 130h73V540h116v-65H180V131q0-35 13-52.5T237 61q15 0 29 2t33 7V5zM97 738v97h92v-97H97z"/><glyph glyph-name="uni1E6C" unicode="Ṭ" horiz-adv-x="475" d="M450 646H279V0h-85v646H25v74h425v-74zM188-170v92h96v-92h-96z"/><glyph glyph-name="uni1E6D" unicode="ṭ" horiz-adv-x="329" d="M299 5q-18-5-35-8t-40-3q-66 0-95 38t-29 101v342H20v65h81l6 130h73V540h116v-65H180V131q0-35 13-52.5T237 61q15 0 29 2t33 7V5zM149-170v92h96v-92h-96z"/><glyph glyph-name="Wgrave" unicode="Ẁ" horiz-adv-x="759" d="M734 720L614 0H512L385 624 254 0H145L25 720h87l95-626 127 626h109L562 96l94 624h78zm-276 48h-72L244 885h119z"/><glyph glyph-name="wgrave" unicode="ẁ" horiz-adv-x="720" d="M700 540L568 0H468L361 450 255 0H152L20 540h82L206 85l106 455h103L520 87l101 453h79zm-268 58h-71L222 735h113z"/><glyph glyph-name="Wacute" unicode="Ẃ" horiz-adv-x="759" d="M734 720L614 0H512L385 624 254 0H145L25 720h87l95-626 127 626h109L562 96l94 624h78zM418 885h119L395 768h-72z"/><glyph glyph-name="wacute" unicode="ẃ" horiz-adv-x="720" d="M700 540L568 0H468L361 450 255 0H152L20 540h82L206 85l106 455h103L520 87l101 453h79zM397 735h113L370 598h-70z"/><glyph glyph-name="Wdieresis" unicode="Ẅ" horiz-adv-x="759" d="M734 720L614 0H512L385 624 254 0H145L25 720h87l95-626 127 626h109L562 96l94 624h78zm-493 65v90h95v-90h-95zm205 0v90h95v-90h-95z"/><glyph glyph-name="wdieresis" unicode="ẅ" horiz-adv-x="720" d="M700 540L568 0H468L361 450 255 0H152L20 540h82L206 85l106 455h103L520 87l101 453h79zm-485 95v90h95v-90h-95zm205 0v90h95v-90h-95z"/><glyph glyph-name="uni1EA0" unicode="Ạ" horiz-adv-x="553" d="M453 0l-52 187H147L94 0H10l216 720h102L543 0h-90zM165 252h218L276 642zm68-422v92h96v-92h-96z"/><glyph glyph-name="uni1EA1" unicode="ạ" horiz-adv-x="506" d="M372 0l-18 64q-23-32-60.5-53T196-10q-25 0-52.5 7.5T93 22.5t-38 47T40 144t18 77.5 47.5 55 68 35.5 79.5 19l93 14v37q0 23-5 44t-16.5 36.5T294 487t-47 9q-43 0-71-24t-37-60l-79 14q22 57 70.5 93T252 555q84 0 129-46t45-137V0h-54zM220 54q40 0 71 16t55 42v176l-72-12q-72-12-111.5-40.5T123 150q0-51 27-73.5T220 54zm-20-224v92h96v-92h-96z"/><glyph glyph-name="uni1EA2" unicode="Ả" horiz-adv-x="553" d="M453 0l-52 187H147L94 0H10l216 720h102L543 0h-90zM165 252h218L276 642zm222 618q0-34-20.5-55T311 783l-3-22h-56l-3 60q29 4 47 14.5t18 33.5q0 22-12 29t-24 7q-35 0-47-46l-67 14q14 39 42 63t79 24q45 0 73.5-24t28.5-66z"/><glyph glyph-name="uni1EA3" unicode="ả" horiz-adv-x="506" d="M372 0l-18 64q-23-32-60.5-53T196-10q-25 0-52.5 7.5T93 22.5t-38 47T40 144t18 77.5 47.5 55 68 35.5 79.5 19l93 14v37q0 23-5 44t-16.5 36.5T294 487t-47 9q-43 0-71-24t-37-60l-79 14q22 57 70.5 93T252 555q84 0 129-46t45-137V0h-54zM220 54q40 0 71 16t55 42v176l-72-12q-72-12-111.5-40.5T123 150q0-51 27-73.5T220 54zm135 658q0-34-20.5-55T279 625l-3-22h-56l-3 60q29 4 47 14.5t18 33.5q0 22-12 29t-24 7q-35 0-47-46l-67 14q14 39 42 63t79 24q45 0 73.5-24t28.5-66z"/><glyph glyph-name="uni1EA4" unicode="Ấ" horiz-adv-x="553" d="M453 0l-52 187H147L94 0H10l216 720h102L543 0h-90zM165 252h218L276 642zm270 516h-90l-68 51-68-51h-90l119 117h78zm65 177h110L493 808h-68z"/><glyph glyph-name="uni1EA5" unicode="ấ" horiz-adv-x="506" d="M372 0l-18 64q-23-32-60.5-53T196-10q-25 0-52.5 7.5T93 22.5t-38 47T40 144t18 77.5 47.5 55 68 35.5 79.5 19l93 14v37q0 23-5 44t-16.5 36.5T294 487t-47 9q-43 0-71-24t-37-60l-79 14q22 57 70.5 93T252 555q84 0 129-46t45-137V0h-54zM220 54q40 0 71 16t55 42v176l-72-12q-72-12-111.5-40.5T123 150q0-51 27-73.5T220 54zm186 545h-85l-73 66-73-66H90l122 136h72zm65 177h110L464 639h-68z"/><glyph glyph-name="uni1EA6" unicode="Ầ" horiz-adv-x="553" d="M453 0l-52 187H147L94 0H10l216 720h102L543 0h-90zM165 252h218L276 642zm270 516h-90l-68 51-68-51h-90l119 117h78zm-305 40H62L-55 945H55z"/><glyph glyph-name="uni1EA7" unicode="ầ" horiz-adv-x="506" d="M372 0l-18 64q-23-32-60.5-53T196-10q-25 0-52.5 7.5T93 22.5t-38 47T40 144t18 77.5 47.5 55 68 35.5 79.5 19l93 14v37q0 23-5 44t-16.5 36.5T294 487t-47 9q-43 0-71-24t-37-60l-79 14q22 57 70.5 93T252 555q84 0 129-46t45-137V0h-54zM220 54q40 0 71 16t55 42v176l-72-12q-72-12-111.5-40.5T123 150q0-51 27-73.5T220 54zm187 545h-85l-73 66-73-66H91l122 136h72zm-302 39H37L-80 775H30z"/><glyph glyph-name="uni1EA8" unicode="Ẩ" horiz-adv-x="553" d="M453 0l-52 187H147L94 0H10l216 720h102L543 0h-90zM165 252h218L276 642zm269 516h-90l-68 51-68-51h-90l119 117h78zm177 102q0-34-20.5-55T535 783l-3-22h-56l-3 60q29 4 47 14.5t18 33.5q0 22-12 29t-24 7q-35 0-47-46l-67 14q14 39 42 63t79 24q45 0 73.5-24t28.5-66z"/><glyph glyph-name="uni1EA9" unicode="ẩ" horiz-adv-x="506" d="M372 0l-18 64q-23-32-60.5-53T196-10q-25 0-52.5 7.5T93 22.5t-38 47T40 144t18 77.5 47.5 55 68 35.5 79.5 19l93 14v37q0 23-5 44t-16.5 36.5T294 487t-47 9q-43 0-71-24t-37-60l-79 14q22 57 70.5 93T252 555q84 0 129-46t45-137V0h-54zM220 54q40 0 71 16t55 42v176l-72-12q-72-12-111.5-40.5T123 150q0-51 27-73.5T220 54zm185 545h-85l-73 66-73-66H89l122 136h72zm192 94q0-34-20.5-55T521 606l-3-22h-56l-3 60q29 4 47 14.5t18 33.5q0 22-12 29t-24 7q-35 0-47-46l-67 14q14 39 42 63t79 24q45 0 73.5-24t28.5-66z"/><glyph glyph-name="uni1EAA" unicode="Ẫ" horiz-adv-x="553" d="M453 0l-52 187H147L94 0H10l216 690h102L543 0h-90zM165 252h218L276 612zm270 471h-90l-68 51-68-51h-90l119 117h78zm-96 137q-24 0-39.5 6T272 878.5 248 891t-29 6-40-10-45-27v67q22 16 45 24.5t44 8.5q24 0 39.5-6t27.5-12.5 24-12.5 29-6 38 10 43 27v-67q-22-16-43-24.5t-42-8.5z"/><glyph glyph-name="uni1EAB" unicode="ẫ" horiz-adv-x="506" d="M372 0l-18 64q-23-32-60.5-53T196-10q-25 0-52.5 7.5T93 22.5t-38 47T40 144t18 77.5 47.5 55 68 35.5 79.5 19l93 14v37q0 23-5 44t-16.5 36.5T294 487t-47 9q-43 0-71-24t-37-60l-79 14q22 57 70.5 93T252 555q84 0 129-46t45-137V0h-54zM220 54q40 0 71 16t55 42v176l-72-12q-72-12-111.5-40.5T123 150q0-51 27-73.5T220 54zm187 545h-90l-68 51-68-51H91l119 117h78zm-97 146q-24 0-39.5 6T243 763.5 219 776t-29 6-40-10-45-27v67q22 16 45 24.5t44 8.5q24 0 39.5-6t27.5-12.5 24-12.5 29-6 38 10 43 27v-67q-22-16-43-24.5t-42-8.5z"/><glyph glyph-name="uni1EAC" unicode="Ậ" horiz-adv-x="553" d="M453 0l-52 187H147L94 0H10l216 720h102L543 0h-90zM165 252h218L276 642zm65-422v92h96v-92h-96zm206 938h-90l-68 51-68-51h-90l119 117h78z"/><glyph glyph-name="uni1EAD" unicode="ậ" horiz-adv-x="506" d="M372 0l-18 64q-23-32-60.5-53T196-10q-25 0-52.5 7.5T93 22.5t-38 47T40 144t18 77.5 47.5 55 68 35.5 79.5 19l93 14v37q0 23-5 44t-16.5 36.5T294 487t-47 9q-43 0-71-24t-37-60l-79 14q22 57 70.5 93T252 555q84 0 129-46t45-137V0h-54zM220 54q40 0 71 16t55 42v176l-72-12q-72-12-111.5-40.5T123 150q0-51 27-73.5T220 54zm-22-224v92h96v-92h-96zm206 769h-85l-73 66-73-66H88l122 136h72z"/><glyph glyph-name="uni1EAE" unicode="Ắ" horiz-adv-x="553" d="M453 0l-52 187H147L94 0H10l216 690h102L543 0h-90zM165 252h218L276 612zm112 465q-26 0-50.5 5.5T181 741t-36.5 34-22.5 53h83q5-20 22.5-37t49.5-17 49.5 17 22.5 37h83q-7-32-22.5-53T373 741t-46-18.5-50-5.5zm17 243h110L297 838h-68z"/><glyph glyph-name="uni1EAF" unicode="ắ" horiz-adv-x="506" d="M372 0l-18 64q-23-32-60.5-53T196-10q-25 0-52.5 7.5T93 22.5t-38 47T40 144t18 77.5 47.5 55 68 35.5 79.5 19l93 14v37q0 23-5 44t-16.5 36.5T294 487t-47 9q-43 0-71-24t-37-60l-79 14q22 57 70.5 93T252 555q84 0 129-46t45-137V0h-54zM220 54q40 0 71 16t55 42v176l-72-12q-72-12-111.5-40.5T123 150q0-51 27-73.5T220 54zm30 539q-26 0-50.5 6.5T154 620t-36.5 37.5T95 716h83q5-28 22.5-44.5T250 655t49.5 16.5T322 716h83q-7-34-22.5-57.5t-36.5-38-46-21-50-6.5zm23 282h110L266 738h-68z"/><glyph glyph-name="uni1EB0" unicode="Ằ" horiz-adv-x="553" d="M453 0l-52 187H147L94 0H10l216 690h102L543 0h-90zM165 252h218L276 612zm112 465q-26 0-50.5 5.5T181 741t-36.5 34-22.5 53h83q5-20 22.5-37t49.5-17 49.5 17 22.5 37h83q-7-32-22.5-53T373 741t-46-18.5-50-5.5zm48 121h-68L150 960h110z"/><glyph glyph-name="uni1EB1" unicode="ằ" horiz-adv-x="506" d="M372 0l-18 64q-23-32-60.5-53T196-10q-25 0-52.5 7.5T93 22.5t-38 47T40 144t18 77.5 47.5 55 68 35.5 79.5 19l93 14v37q0 23-5 44t-16.5 36.5T294 487t-47 9q-43 0-71-24t-37-60l-79 14q22 57 70.5 93T252 555q84 0 129-46t45-137V0h-54zM220 54q40 0 71 16t55 42v176l-72-12q-72-12-111.5-40.5T123 150q0-51 27-73.5T220 54zm30 539q-26 0-50.5 6.5T154 620t-36.5 37.5T95 716h83q5-28 22.5-44.5T250 655t49.5 16.5T322 716h83q-7-34-22.5-57.5t-36.5-38-46-21-50-6.5zm44 145h-68L109 875h110z"/><glyph glyph-name="uni1EB2" unicode="Ẳ" horiz-adv-x="553" d="M453 0l-52 187H147L94 0H10l216 690h102L543 0h-90zM165 252h218L276 612zm220 633q0-32-21-47t-55-23l-3-22h-56l-3 51q29 3 48 9t19 25q0 14-11 20.5t-25 6.5-26.5-5.5T229 874l-65 18q17 36 48 52t71 16q43 0 72.5-19.5T385 885zM277 707q-26 0-50.5 5.5T181 731t-36.5 34-22.5 53h83q5-20 22.5-37t49.5-17 49.5 17 22.5 37h83q-7-32-22.5-53T373 731t-46-18.5-50-5.5z"/><glyph glyph-name="uni1EB3" unicode="ẳ" horiz-adv-x="506" d="M372 0l-18 64q-23-32-60.5-53T196-10q-25 0-52.5 7.5T93 22.5t-38 47T40 144t18 77.5 47.5 55 68 35.5 79.5 19l93 14v37q0 23-5 44t-16.5 36.5T294 487t-47 9q-43 0-71-24t-37-60l-79 14q22 57 70.5 93T252 555q84 0 129-46t45-137V0h-54zM220 54q40 0 71 16t55 42v176l-72-12q-72-12-111.5-40.5T123 150q0-51 27-73.5T220 54zm29 539q-26 0-50.5 6.5T153 620t-36.5 37.5T94 716h83q5-28 22.5-44.5T249 655t49.5 16.5T321 716h83q-7-34-22.5-57.5t-36.5-38-46-21-50-6.5zm109 259q0-34-20.5-55T282 765l-3-22h-56l-3 60q29 4 47 14.5t18 33.5q0 22-12 29t-24 7q-35 0-47-46l-67 14q14 39 42 63t79 24q45 0 73.5-24t28.5-66z"/><glyph glyph-name="uni1EB4" unicode="Ẵ" horiz-adv-x="553" d="M453 0l-52 187H147L94 0H10l216 690h102L543 0h-90zM165 252h218L276 612zm112 465q-26 0-50.5 5.5T181 741t-36.5 34-22.5 53h83q5-20 22.5-37t49.5-17 49.5 17 22.5 37h83q-7-32-22.5-53T373 741t-46-18.5-50-5.5zm61 143q-24 0-39.5 6T271 878.5 247 891t-29 6-40-10-45-27v67q22 16 45 24.5t44 8.5q24 0 39.5-6t27.5-12.5 24-12.5 29-6 38 10 43 27v-67q-22-16-43-24.5t-42-8.5z"/><glyph glyph-name="uni1EB5" unicode="ẵ" horiz-adv-x="506" d="M372 0l-18 64q-23-32-60.5-53T196-10q-25 0-52.5 7.5T93 22.5t-38 47T40 144t18 77.5 47.5 55 68 35.5 79.5 19l93 14v37q0 23-5 44t-16.5 36.5T294 487t-47 9q-43 0-71-24t-37-60l-79 14q22 57 70.5 93T252 555q84 0 129-46t45-137V0h-54zM220 54q40 0 71 16t55 42v176l-72-12q-72-12-111.5-40.5T123 150q0-51 27-73.5T220 54zm27 548q-26 0-50.5 7T151 632t-36.5 41.5T92 735h83q5-33 22.5-52t49.5-19 49.5 19 22.5 52h83q-7-36-22.5-61.5T343 632t-46-23-50-7zm59 173q-24 0-39.5 6T239 793.5 215 806t-29 6-40-10-45-27v67q22 16 45 24.5t44 8.5q24 0 39.5-6t27.5-12.5 24-12.5 29-6 38 10 43 27v-67q-22-16-43-24.5t-42-8.5z"/><glyph glyph-name="uni1EB6" unicode="Ặ" horiz-adv-x="553" d="M453 0l-52 187H147L94 0H10l216 720h102L543 0h-90zM165 252h218L276 642zm65-422v92h96v-92h-96zm47 932q-26 0-50.5 6.5T181 789t-36.5 37.5T122 885h83q5-28 22.5-44.5T277 824t49.5 16.5T349 885h83q-7-34-22.5-57.5t-36.5-38-46-21-50-6.5z"/><glyph glyph-name="uni1EB7" unicode="ặ" horiz-adv-x="506" d="M372 0l-18 64q-23-32-60.5-53T196-10q-25 0-52.5 7.5T93 22.5t-38 47T40 144t18 77.5 47.5 55 68 35.5 79.5 19l93 14v37q0 23-5 44t-16.5 36.5T294 487t-47 9q-43 0-71-24t-37-60l-79 14q22 57 70.5 93T252 555q84 0 129-46t45-137V0h-54zM220 54q40 0 71 16t55 42v176l-72-12q-72-12-111.5-40.5T123 150q0-51 27-73.5T220 54zm-18-224v92h96v-92h-96zm47 772q-26 0-50.5 7T153 632t-36.5 41.5T94 735h83q5-33 22.5-52t49.5-19 49.5 19 22.5 52h83q-7-36-22.5-61.5T345 632t-46-23-50-7z"/><glyph glyph-name="uni1EB8" unicode="Ẹ" horiz-adv-x="500" d="M410 333H175V68h265V0H90v720h350v-68H175V399h235v-66zM222-170v92h96v-92h-96z"/><glyph glyph-name="uni1EB9" unicode="ẹ" horiz-adv-x="534" d="M282 54q25 0 44.5 7.5T360 81t23.5 27 14.5 30l70-15q-9-26-25.5-50t-40-42.5-55-29.5T277-10q-38 0-76 13.5T132 49t-50 86-19 135q0 82 18.5 136.5t48 87.5 66.5 47 75 14q103 0 155.5-71T479 257H145q1-63 13-102.5t31-62T232 62t50-8zm-6 441q-52 0-87-41.5T146 318h252q-2 87-33.5 132T276 495zm-48-665v92h96v-92h-96z"/><glyph glyph-name="uni1EBA" unicode="Ẻ" horiz-adv-x="500" d="M410 333H175V68h265V0H90v720h350v-68H175V399h235v-66zm-37 537q0-34-20.5-55T297 783l-3-22h-56l-3 60q29 4 47 14.5t18 33.5q0 22-12 29t-24 7q-35 0-47-46l-67 14q14 39 42 63t79 24q45 0 73.5-24t28.5-66z"/><glyph glyph-name="uni1EBB" unicode="ẻ" horiz-adv-x="534" d="M282 54q25 0 44.5 7.5T360 81t23.5 27 14.5 30l70-15q-9-26-25.5-50t-40-42.5-55-29.5T277-10q-38 0-76 13.5T132 49t-50 86-19 135q0 82 18.5 136.5t48 87.5 66.5 47 75 14q103 0 155.5-71T479 257H145q1-63 13-102.5t31-62T232 62t50-8zm-6 441q-52 0-87-41.5T146 318h252q-2 87-33.5 132T276 495zm104 222q0-34-20.5-55T304 630l-3-22h-56l-3 60q29 4 47 14.5t18 33.5q0 22-12 29t-24 7q-35 0-47-46l-67 14q14 39 42 63t79 24q45 0 73.5-24t28.5-66z"/><glyph glyph-name="uni1EBC" unicode="Ẽ" horiz-adv-x="500" d="M410 333H175V68h265V0H90v720h350v-68H175V399h235v-66zm-84 442q-24 0-39.5 6T259 793.5 235 806t-29 6-40-10-45-27v67q22 16 45 24.5t44 8.5q24 0 39.5-6t27.5-12.5 24-12.5 29-6 38 10 43 27v-67q-22-16-43-24.5t-42-8.5z"/><glyph glyph-name="uni1EBD" unicode="ẽ" horiz-adv-x="534" d="M282 54q25 0 44.5 7.5T360 81t23.5 27 14.5 30l70-15q-9-26-25.5-50t-40-42.5-55-29.5T277-10q-38 0-76 13.5T132 49t-50 86-19 135q0 82 18.5 136.5t48 87.5 66.5 47 75 14q103 0 155.5-71T479 257H145q1-63 13-102.5t31-62T232 62t50-8zm-6 441q-52 0-87-41.5T146 318h252q-2 87-33.5 132T276 495zm55 130q-24 0-39.5 6T264 643.5 240 656t-29 6-40-10-45-27v67q22 16 45 24.5t44 8.5q24 0 39.5-6t27.5-12.5 24-12.5 29-6 38 10 43 27v-67q-22-16-43-24.5t-42-8.5z"/><glyph glyph-name="uni1EBE" unicode="Ế" horiz-adv-x="500" d="M410 333H175V68h265V0H90v720h350v-68H175V399h235v-66zm3 435h-90l-68 51-68-51H97l119 117h78zm65 177h110L471 808h-68z"/><glyph glyph-name="uni1EBF" unicode="ế" horiz-adv-x="534" d="M282 54q25 0 44.5 7.5T360 81t23.5 27 14.5 30l70-15q-9-26-25.5-50t-40-42.5-55-29.5T277-10q-38 0-76 13.5T132 49t-50 86-19 135q0 82 18.5 136.5t48 87.5 66.5 47 75 14q103 0 155.5-71T479 257H145q1-63 13-102.5t31-62T232 62t50-8zm-6 441q-52 0-87-41.5T146 318h252q-2 87-33.5 132T276 495zm159 104h-85l-73 66-73-66h-85l122 136h72zm65 177h110L493 639h-68z"/><glyph glyph-name="uni1EC0" unicode="Ề" horiz-adv-x="500" d="M410 333H175V68h265V0H90v720h350v-68H175V399h235v-66zm11 435h-90l-68 51-68-51h-90l119 117h78zm-306 40H47L-70 945H40z"/><glyph glyph-name="uni1EC1" unicode="ề" horiz-adv-x="534" d="M282 54q25 0 44.5 7.5T360 81t23.5 27 14.5 30l70-15q-9-26-25.5-50t-40-42.5-55-29.5T277-10q-38 0-76 13.5T132 49t-50 86-19 135q0 82 18.5 136.5t48 87.5 66.5 47 75 14q103 0 155.5-71T479 257H145q1-63 13-102.5t31-62T232 62t50-8zm-6 441q-52 0-87-41.5T146 318h252q-2 87-33.5 132T276 495zm158 104h-85l-73 66-73-66h-85l122 136h72zm-306 40H60L-57 776H53z"/><glyph glyph-name="uni1EC2" unicode="Ể" horiz-adv-x="500" d="M410 333H175V68h265V0H90v720h350v-68H175V399h235v-66zm4 435h-90l-68 51-68-51H98l119 117h78zm176 102q0-34-20.5-55T514 783l-3-22h-56l-3 60q29 4 47 14.5t18 33.5q0 22-12 29t-24 7q-35 0-47-46l-67 14q14 39 42 63t79 24q45 0 73.5-24t28.5-66z"/><glyph glyph-name="uni1EC3" unicode="ể" horiz-adv-x="534" d="M282 54q25 0 44.5 7.5T360 81t23.5 27 14.5 30l70-15q-9-26-25.5-50t-40-42.5-55-29.5T277-10q-38 0-76 13.5T132 49t-50 86-19 135q0 82 18.5 136.5t48 87.5 66.5 47 75 14q103 0 155.5-71T479 257H145q1-63 13-102.5t31-62T232 62t50-8zm-6 441q-52 0-87-41.5T146 318h252q-2 87-33.5 132T276 495zm154 104h-85l-73 66-73-66h-85l122 136h72zm165 110q0-34-20.5-55T519 622l-3-22h-56l-3 60q29 4 47 14.5t18 33.5q0 22-12 29t-24 7q-35 0-47-46l-67 14q14 39 42 63t79 24q45 0 73.5-24t28.5-66z"/><glyph glyph-name="uni1EC4" unicode="Ễ" horiz-adv-x="500" d="M410 321H175V68h265V0H90v690h350v-68H175V387h235v-66zm14 402h-90l-68 51-68-51h-90l119 117h78zm-96 137q-24 0-39.5 6T261 878.5 237 891t-29 6-40-10-45-27v67q22 16 45 24.5t44 8.5q24 0 39.5-6t27.5-12.5 24-12.5 29-6 38 10 43 27v-67q-22-16-43-24.5t-42-8.5z"/><glyph glyph-name="uni1EC5" unicode="ễ" horiz-adv-x="534" d="M282 54q25 0 44.5 7.5T360 81t23.5 27 14.5 30l70-15q-9-26-25.5-50t-40-42.5-55-29.5T277-10q-38 0-76 13.5T132 49t-50 86-19 135q0 82 18.5 136.5t48 87.5 66.5 47 75 14q103 0 155.5-71T479 257H145q1-63 13-102.5t31-62T232 62t50-8zm-6 441q-52 0-87-41.5T146 318h252q-2 87-33.5 132T276 495zm157 104h-85l-73 66-73-66h-85l122 136h72zm-97 176q-24 0-39.5 6T269 793.5 245 806t-29 6-40-10-45-27v67q22 16 45 24.5t44 8.5q24 0 39.5-6t27.5-12.5 24-12.5 29-6 38 10 43 27v-67q-22-16-43-24.5t-42-8.5z"/><glyph glyph-name="uni1EC6" unicode="Ệ" horiz-adv-x="500" d="M410 333H175V68h265V0H90v720h350v-68H175V399h235v-66zM200-170v92h96v-92h-96zm224 938h-90l-68 51-68-51h-90l119 117h78z"/><glyph glyph-name="uni1EC7" unicode="ệ" horiz-adv-x="534" d="M282 54q25 0 44.5 7.5T360 81t23.5 27 14.5 30l70-15q-9-26-25.5-50t-40-42.5-55-29.5T277-10q-38 0-76 13.5T132 49t-50 86-19 135q0 82 18.5 136.5t48 87.5 66.5 47 75 14q103 0 155.5-71T479 257H145q1-63 13-102.5t31-62T232 62t50-8zm-6 441q-52 0-87-41.5T146 318h252q-2 87-33.5 132T276 495zm-47-665v92h96v-92h-96zm204 769h-85l-73 66-73-66h-85l122 136h72z"/><glyph glyph-name="uni1EC8" unicode="Ỉ" horiz-adv-x="265" d="M175 720V0H90v720h85zm64 150q0-34-20.5-55T163 783l-3-22h-56l-3 60q29 4 47 14.5t18 33.5q0 22-12 29t-24 7q-35 0-47-46l-67 14q14 39 42 63t79 24q45 0 73.5-24t28.5-66z"/><glyph glyph-name="uni1EC9" unicode="ỉ" horiz-adv-x="240" d="M80 0v540h80V0H80zm147 712q0-34-20.5-55T151 625l-3-22H92l-3 60q29 4 47 14.5t18 33.5q0 22-12 29t-24 7q-35 0-47-46L4 715q14 39 42 63t79 24q45 0 73.5-24t28.5-66z"/><glyph glyph-name="uni1ECA" unicode="Ị" horiz-adv-x="265" d="M175 720V0H90v720h85zM85-170v92h96v-92H85z"/><glyph glyph-name="uni1ECB" unicode="ị" horiz-adv-x="240" d="M73-170v92h96v-92H73zM80 0v540h80V0H80zm-6 638v97h92v-97H74z"/><glyph glyph-name="uni1ECC" unicode="Ọ" horiz-adv-x="658" d="M70 360q0 105 22 176.5T150 652t82.5 63.5T329 735q49 0 96-19.5t83-63.5 58-115.5T588 360t-22-176.5T508 68 425 4.5 329-15q-50 0-96.5 19.5T150 68 92 183.5 70 360zm87 0q0-153 42.5-231.5T329 50t129.5 78.5T501 360t-42.5 231.5T329 670t-129.5-78.5T157 360zm122-530v92h96v-92h-96z"/><glyph glyph-name="uni1ECD" unicode="ọ" horiz-adv-x="565" d="M63 270q0 83 20 138t51.5 87.5 71 46T283 555t77-13 70.5-45.5T482 409t20-139-20-138-51.5-85.5-70.5-44T283-10 205.5 2.5t-71 44.5T83 133 63 270zm84 0q0-114 37.5-166.5T284 51q63 0 99 51.5T419 270q0 115-38 169.5T283 494q-59 0-97.5-55T147 270zm89-440v92h96v-92h-96z"/><glyph glyph-name="uni1ECE" unicode="Ỏ" horiz-adv-x="658" d="M70 360q0 105 22 176.5T150 652t82.5 63.5T329 735q49 0 96-19.5t83-63.5 58-115.5T588 360t-22-176.5T508 68 425 4.5 329-15q-50 0-96.5 19.5T150 68 92 183.5 70 360zm87 0q0-153 42.5-231.5T329 50t129.5 78.5T501 360t-42.5 231.5T329 670t-129.5-78.5T157 360zm279 510q0-34-20.5-55T360 783l-3-22h-56l-3 60q29 4 47 14.5t18 33.5q0 22-12 29t-24 7q-35 0-47-46l-67 14q14 39 42 63t79 24q45 0 73.5-24t28.5-66z"/><glyph glyph-name="uni1ECF" unicode="ỏ" horiz-adv-x="565" d="M63 270q0 83 20 138t51.5 87.5 71 46T283 555t77-13 70.5-45.5T482 409t20-139-20-138-51.5-85.5-70.5-44T283-10 205.5 2.5t-71 44.5T83 133 63 270zm84 0q0-114 37.5-166.5T284 51q63 0 99 51.5T419 270q0 115-38 169.5T283 494q-59 0-97.5-55T147 270zm243 442q0-34-20.5-55T314 625l-3-22h-56l-3 60q29 4 47 14.5t18 33.5q0 22-12 29t-24 7q-35 0-47-46l-67 14q14 39 42 63t79 24q45 0 73.5-24t28.5-66z"/><glyph glyph-name="uni1ED0" unicode="Ố" horiz-adv-x="658" d="M70 360q0 105 22 176.5T150 652t82.5 63.5T329 735q49 0 96-19.5t83-63.5 58-115.5T588 360t-22-176.5T508 68 425 4.5 329-15q-50 0-96.5 19.5T150 68 92 183.5 70 360zm87 0q0-153 42.5-231.5T329 50t129.5 78.5T501 360t-42.5 231.5T329 670t-129.5-78.5T157 360zm333 408h-90l-68 51-68-51h-90l119 117h78zm65 177h110L548 808h-68z"/><glyph glyph-name="uni1ED1" unicode="ố" horiz-adv-x="565" d="M63 270q0 83 20 138t51.5 87.5 71 46T283 555t77-13 70.5-45.5T482 409t20-139-20-138-51.5-85.5-70.5-44T283-10 205.5 2.5t-71 44.5T83 133 63 270zm84 0q0-114 37.5-166.5T284 51q63 0 99 51.5T419 270q0 115-38 169.5T283 494q-59 0-97.5-55T147 270zm293 329h-85l-73 66-73-66h-85l122 136h72zm65 177h110L498 639h-68z"/><glyph glyph-name="uni1ED2" unicode="Ồ" horiz-adv-x="658" d="M70 360q0 105 22 176.5T150 652t82.5 63.5T329 735q49 0 96-19.5t83-63.5 58-115.5T588 360t-22-176.5T508 68 425 4.5 329-15q-50 0-96.5 19.5T150 68 92 183.5 70 360zm87 0q0-153 42.5-231.5T329 50t129.5 78.5T501 360t-42.5 231.5T329 670t-129.5-78.5T157 360zm331 408h-90l-68 51-68-51h-90l119 117h78zm-306 40h-68L-3 945h110z"/><glyph glyph-name="uni1ED3" unicode="ồ" horiz-adv-x="565" d="M63 270q0 83 20 138t51.5 87.5 71 46T283 555t77-13 70.5-45.5T482 409t20-139-20-138-51.5-85.5-70.5-44T283-10 205.5 2.5t-71 44.5T83 133 63 270zm84 0q0-114 37.5-166.5T284 51q63 0 99 51.5T419 270q0 115-38 169.5T283 494q-59 0-97.5-55T147 270zm294 329h-85l-73 66-73-66h-85l122 136h72zm-306 40H67L-50 776H60z"/><glyph glyph-name="uni1ED4" unicode="Ổ" horiz-adv-x="658" d="M70 360q0 105 22 176.5T150 652t82.5 63.5T329 735q49 0 96-19.5t83-63.5 58-115.5T588 360t-22-176.5T508 68 425 4.5 329-15q-50 0-96.5 19.5T150 68 92 183.5 70 360zm87 0q0-153 42.5-231.5T329 50t129.5 78.5T501 360t-42.5 231.5T329 670t-129.5-78.5T157 360zm329 408h-90l-68 51-68-51h-90l119 117h78zm175 102q0-34-20.5-55T585 783l-3-22h-56l-3 60q29 4 47 14.5t18 33.5q0 22-12 29t-24 7q-35 0-47-46l-67 14q14 39 42 63t79 24q45 0 73.5-24t28.5-66z"/><glyph glyph-name="uni1ED5" unicode="ổ" horiz-adv-x="565" d="M63 270q0 83 20 138t51.5 87.5 71 46T283 555t77-13 70.5-45.5T482 409t20-139-20-138-51.5-85.5-70.5-44T283-10 205.5 2.5t-71 44.5T83 133 63 270zm84 0q0-114 37.5-166.5T284 51q63 0 99 51.5T419 270q0 115-38 169.5T283 494q-59 0-97.5-55T147 270zm294 329h-85l-73 66-73-66h-85l122 136h72zm175 110q0-34-20.5-55T540 622l-3-22h-56l-3 60q29 4 47 14.5t18 33.5q0 22-12 29t-24 7q-35 0-47-46l-67 14q14 39 42 63t79 24q45 0 73.5-24t28.5-66z"/><glyph glyph-name="uni1ED6" unicode="Ỗ" horiz-adv-x="658" d="M70 345q0 99 22 167.5T150 624t82.5 62 96.5 19q49 0 96-19t83-62 58-111.5T588 345t-22-167.5T508 66 425 4t-96-19q-50 0-96.5 19T150 66 92 177.5 70 345zm87 0q0-153 42.5-224T329 50t129.5 71T501 345q0 142-42.5 218.5T329 640t-129.5-76.5T157 345zm330 378h-90l-68 51-68-51h-90l119 117h78zm-96 137q-24 0-39.5 6T324 878.5 300 891t-29 6-40-10-45-27v67q22 16 45 24.5t44 8.5q24 0 39.5-6t27.5-12.5 24-12.5 29-6 38 10 43 27v-67q-22-16-43-24.5t-42-8.5z"/><glyph glyph-name="uni1ED7" unicode="ỗ" horiz-adv-x="565" d="M63 270q0 83 20 138t51.5 87.5 71 46T283 555t77-13 70.5-45.5T482 409t20-139-20-138-51.5-85.5-70.5-44T283-10 205.5 2.5t-71 44.5T83 133 63 270zm84 0q0-114 37.5-166.5T284 51q63 0 99 51.5T419 270q0 115-38 169.5T283 494q-59 0-97.5-55T147 270zm295 329h-85l-73 66-73-66h-85l122 136h72zm-98 176q-24 0-39.5 6T277 793.5 253 806t-29 6-40-10-45-27v67q22 16 45 24.5t44 8.5q24 0 39.5-6t27.5-12.5 24-12.5 29-6 38 10 43 27v-67q-22-16-43-24.5t-42-8.5z"/><glyph glyph-name="uni1ED8" unicode="Ộ" horiz-adv-x="658" d="M70 360q0 105 22 176.5T150 652t82.5 63.5T329 735q49 0 96-19.5t83-63.5 58-115.5T588 360t-22-176.5T508 68 425 4.5 329-15q-50 0-96.5 19.5T150 68 92 183.5 70 360zm87 0q0-153 42.5-231.5T329 50t129.5 78.5T501 360t-42.5 231.5T329 670t-129.5-78.5T157 360zm124-530v92h96v-92h-96zm204 949h-85l-73 66-73-66h-85l122 136h72z"/><glyph glyph-name="uni1ED9" unicode="ộ" horiz-adv-x="565" d="M63 270q0 83 20 138t51.5 87.5 71 46T283 555t77-13 70.5-45.5T482 409t20-139-20-138-51.5-85.5-70.5-44T283-10 205.5 2.5t-71 44.5T83 133 63 270zm84 0q0-114 37.5-166.5T284 51q63 0 99 51.5T419 270q0 115-38 169.5T283 494q-59 0-97.5-55T147 270zm88-440v92h96v-92h-96zm206 769h-85l-73 66-73-66h-85l122 136h72z"/><glyph glyph-name="uni1EDA" unicode="Ớ" horiz-adv-x="666" d="M362 915h110L355 778h-68zm314-234q0-31-9.5-54.5T642 585t-35-30.5-41-20.5q22-70 22-174 0-105-22-176.5T508 68 425 4.5 329-15q-50 0-96.5 19.5T150 68 92 183.5 70 360t22 176.5T150 652t82.5 63.5T329 735q34 0 66-8.5t60.5-27 52.5-48 42-71.5q23 11 34.5 34.5T596 680v75h80v-74zM157 360q0-153 42.5-231.5T329 50t129.5 78.5T501 360t-42.5 231.5T329 670t-129.5-78.5T157 360z"/><glyph glyph-name="uni1EDB" unicode="ớ" horiz-adv-x="586" d="M314 735h110L307 598h-68zM63 270q0 83 20 138t51.5 87.5 71 46T283 555q28 0 56.5-7t54.5-23.5 48-43.5 37-66q21 11 31.5 32t10.5 63v65h75v-64q0-30-8.5-53.5t-23-41-33-30T493 367q4-21 6.5-45.5T502 270q0-84-20-138t-51.5-85.5-70.5-44T283-10 205.5 2.5t-71 44.5T83 133 63 270zm84 0q0-114 37.5-166.5T284 51q63 0 99 51.5T419 270q0 115-38 169.5T283 494q-59 0-97.5-55T147 270z"/><glyph glyph-name="uni1EDC" unicode="Ờ" horiz-adv-x="666" d="M375 778h-68L190 915h110zm301-97q0-31-9.5-54.5T642 585t-35-30.5-41-20.5q22-70 22-174 0-105-22-176.5T508 68 425 4.5 329-15q-50 0-96.5 19.5T150 68 92 183.5 70 360t22 176.5T150 652t82.5 63.5T329 735q34 0 66-8.5t60.5-27 52.5-48 42-71.5q23 11 34.5 34.5T596 680v75h80v-74zM157 360q0-153 42.5-231.5T329 50t129.5 78.5T501 360t-42.5 231.5T329 670t-129.5-78.5T157 360z"/><glyph glyph-name="uni1EDD" unicode="ờ" horiz-adv-x="586" d="M325 598h-68L140 735h110zM63 270q0 83 20 138t51.5 87.5 71 46T283 555q28 0 56.5-7t54.5-23.5 48-43.5 37-66q21 11 31.5 32t10.5 63v65h75v-64q0-30-8.5-53.5t-23-41-33-30T493 367q4-21 6.5-45.5T502 270q0-84-20-138t-51.5-85.5-70.5-44T283-10 205.5 2.5t-71 44.5T83 133 63 270zm84 0q0-114 37.5-166.5T284 51q63 0 99 51.5T419 270q0 115-38 169.5T283 494q-59 0-97.5-55T147 270z"/><glyph glyph-name="uni1EDE" unicode="Ở" horiz-adv-x="666" d="M435 870q0-34-20.5-55T359 783l-3-22h-56l-3 60q29 4 47 14.5t18 33.5q0 22-12 29t-24 7q-35 0-47-46l-67 14q14 39 42 63t79 24q45 0 73.5-24t28.5-66zm241-189q0-31-9.5-54.5T642 585t-35-30.5-41-20.5q22-70 22-174 0-105-22-176.5T508 68 425 4.5 329-15q-50 0-96.5 19.5T150 68 92 183.5 70 360t22 176.5T150 652t82.5 63.5T329 735q34 0 66-8.5t60.5-27 52.5-48 42-71.5q23 11 34.5 34.5T596 680v75h80v-74zM157 360q0-153 42.5-231.5T329 50t129.5 78.5T501 360t-42.5 231.5T329 670t-129.5-78.5T157 360z"/><glyph glyph-name="uni1EDF" unicode="ở" horiz-adv-x="586" d="M389 712q0-34-20.5-55T313 625l-3-22h-56l-3 60q29 4 47 14.5t18 33.5q0 22-12 29t-24 7q-35 0-47-46l-67 14q14 39 42 63t79 24q45 0 73.5-24t28.5-66zM63 270q0 83 20 138t51.5 87.5 71 46T283 555q28 0 56.5-7t54.5-23.5 48-43.5 37-66q21 11 31.5 32t10.5 63v65h75v-64q0-30-8.5-53.5t-23-41-33-30T493 367q4-21 6.5-45.5T502 270q0-84-20-138t-51.5-85.5-70.5-44T283-10 205.5 2.5t-71 44.5T83 133 63 270zm84 0q0-114 37.5-166.5T284 51q63 0 99 51.5T419 270q0 115-38 169.5T283 494q-59 0-97.5-55T147 270z"/><glyph glyph-name="uni1EE0" unicode="Ỡ" horiz-adv-x="666" d="M390 805q-24 0-39.5 6T323 823.5 299 836t-29 6-40-10-45-27v67q22 16 45 24.5t44 8.5q24 0 39.5-6t27.5-12.5 24-12.5 29-6 38 10 43 27v-67q-22-16-43-24.5t-42-8.5zm286-124q0-31-9.5-54.5T642 585t-35-30.5-41-20.5q22-70 22-174 0-105-22-176.5T508 68 425 4.5 329-15q-50 0-96.5 19.5T150 68 92 183.5 70 360t22 176.5T150 652t82.5 63.5T329 735q34 0 66-8.5t60.5-27 52.5-48 42-71.5q23 11 34.5 34.5T596 680v75h80v-74zM157 360q0-153 42.5-231.5T329 50t129.5 78.5T501 360t-42.5 231.5T329 670t-129.5-78.5T157 360z"/><glyph glyph-name="uni1EE1" unicode="ỡ" horiz-adv-x="586" d="M344 625q-24 0-39.5 6T277 643.5 253 656t-29 6-40-10-45-27v67q22 16 45 24.5t44 8.5q24 0 39.5-6t27.5-12.5 24-12.5 29-6 38 10 43 27v-67q-22-16-43-24.5t-42-8.5zM63 270q0 83 20 138t51.5 87.5 71 46T283 555q28 0 56.5-7t54.5-23.5 48-43.5 37-66q21 11 31.5 32t10.5 63v65h75v-64q0-30-8.5-53.5t-23-41-33-30T493 367q4-21 6.5-45.5T502 270q0-84-20-138t-51.5-85.5-70.5-44T283-10 205.5 2.5t-71 44.5T83 133 63 270zm84 0q0-114 37.5-166.5T284 51q63 0 99 51.5T419 270q0 115-38 169.5T283 494q-59 0-97.5-55T147 270z"/><glyph glyph-name="uni1EE2" unicode="Ợ" horiz-adv-x="666" d="M283-170v92h96v-92h-96zm393 851q0-31-9.5-54.5T642 585t-35-30.5-41-20.5q22-70 22-174 0-105-22-176.5T508 68 425 4.5 329-15q-50 0-96.5 19.5T150 68 92 183.5 70 360t22 176.5T150 652t82.5 63.5T329 735q34 0 66-8.5t60.5-27 52.5-48 42-71.5q23 11 34.5 34.5T596 680v75h80v-74zM157 360q0-153 42.5-231.5T329 50t129.5 78.5T501 360t-42.5 231.5T329 670t-129.5-78.5T157 360z"/><glyph glyph-name="uni1EE3" unicode="ợ" horiz-adv-x="586" d="M234-170v92h96v-92h-96zM63 270q0 83 20 138t51.5 87.5 71 46T283 555q28 0 56.5-7t54.5-23.5 48-43.5 37-66q21 11 31.5 32t10.5 63v65h75v-64q0-30-8.5-53.5t-23-41-33-30T493 367q4-21 6.5-45.5T502 270q0-84-20-138t-51.5-85.5-70.5-44T283-10 205.5 2.5t-71 44.5T83 133 63 270zm84 0q0-114 37.5-166.5T284 51q63 0 99 51.5T419 270q0 115-38 169.5T283 494q-59 0-97.5-55T147 270z"/><glyph glyph-name="uni1EE4" unicode="Ụ" horiz-adv-x="609" d="M170 720V214q0-75 31.5-118T306 53t105 43 32 118v506h81V223q0-118-56.5-178T305-15 142 45 85 223v497h85zm89-890v92h96v-92h-96z"/><glyph glyph-name="uni1EE5" unicode="ụ" horiz-adv-x="536" d="M160 540V186q0-39 7-64t20.5-40T219 61t41-6q40 0 68 19.5t48 50.5v415h80V0h-55l-18 68q-26-40-61.5-59T244-10q-75 0-119.5 47T80 188v352h80zm59-710v92h96v-92h-96z"/><glyph glyph-name="uni1EE6" unicode="Ủ" horiz-adv-x="609" d="M170 720V214q0-75 31.5-118T306 53t105 43 32 118v506h81V223q0-118-56.5-178T305-15 142 45 85 223v497h85zm241 150q0-34-20.5-55T335 783l-3-22h-56l-3 60q29 4 47 14.5t18 33.5q0 22-12 29t-24 7q-35 0-47-46l-67 14q14 39 42 63t79 24q45 0 73.5-24t28.5-66z"/><glyph glyph-name="uni1EE7" unicode="ủ" horiz-adv-x="536" d="M160 540V186q0-39 7-64t20.5-40T219 61t41-6q40 0 68 19.5t48 50.5v415h80V0h-55l-18 68q-26-40-61.5-59T244-10q-75 0-119.5 47T80 188v352h80zm216 175q0-34-20.5-55T300 628l-3-22h-56l-3 60q29 4 47 14.5t18 33.5q0 22-12 29t-24 7q-35 0-47-46l-67 14q14 39 42 63t79 24q45 0 73.5-24t28.5-66z"/><glyph glyph-name="uni1EE8" unicode="Ứ" horiz-adv-x="656" d="M336 915h110L329 778h-68zM170 720V214q0-75 31.5-118T306 53t105 43 32 118v506h81V573q31 11 46.5 34t15.5 73v75h80v-74q0-37-13-64.5t-34-46-46-29.5-49-16V223q0-118-56.5-178T305-15 142 45 85 223v497h85z"/><glyph glyph-name="uni1EE9" unicode="ứ" horiz-adv-x="576" d="M312 735h110L305 598h-68zM160 540V186q0-39 7-64t20.5-40T219 61t41-6q40 0 68 19.5t48 50.5v415h80V408q28 11 41.5 33t13.5 69v65h75v-64q0-35-11.5-61t-30-44-42-29.5T456 359V0h-55l-18 68q-26-40-61.5-59T244-10q-75 0-119.5 47T80 188v352h80z"/><glyph glyph-name="uni1EEA" unicode="Ừ" horiz-adv-x="656" d="M351 778h-68L166 915h110zm-181-58V214q0-75 31.5-118T306 53t105 43 32 118v506h81V573q31 11 46.5 34t15.5 73v75h80v-74q0-37-13-64.5t-34-46-46-29.5-49-16V223q0-118-56.5-178T305-15 142 45 85 223v497h85z"/><glyph glyph-name="uni1EEB" unicode="ừ" horiz-adv-x="576" d="M318 598h-68L133 735h110zm-158-58V186q0-39 7-64t20.5-40T219 61t41-6q40 0 68 19.5t48 50.5v415h80V408q28 11 41.5 33t13.5 69v65h75v-64q0-35-11.5-61t-30-44-42-29.5T456 359V0h-55l-18 68q-26-40-61.5-59T244-10q-75 0-119.5 47T80 188v352h80z"/><glyph glyph-name="uni1EEC" unicode="Ử" horiz-adv-x="656" d="M410 870q0-34-20.5-55T334 783l-3-22h-56l-3 60q29 4 47 14.5t18 33.5q0 22-12 29t-24 7q-35 0-47-46l-67 14q14 39 42 63t79 24q45 0 73.5-24t28.5-66zM170 720V214q0-75 31.5-118T306 53t105 43 32 118v506h81V573q31 11 46.5 34t15.5 73v75h80v-74q0-37-13-64.5t-34-46-46-29.5-49-16V223q0-118-56.5-178T305-15 142 45 85 223v497h85z"/><glyph glyph-name="uni1EED" unicode="ử" horiz-adv-x="576" d="M373 712q0-34-20.5-55T297 625l-3-22h-56l-3 60q29 4 47 14.5t18 33.5q0 22-12 29t-24 7q-35 0-47-46l-67 14q14 39 42 63t79 24q45 0 73.5-24t28.5-66zM160 540V186q0-39 7-64t20.5-40T219 61t41-6q40 0 68 19.5t48 50.5v415h80V408q28 11 41.5 33t13.5 69v65h75v-64q0-35-11.5-61t-30-44-42-29.5T456 359V0h-55l-18 68q-26-40-61.5-59T244-10q-75 0-119.5 47T80 188v352h80z"/><glyph glyph-name="uni1EEE" unicode="Ữ" horiz-adv-x="656" d="M367 805q-24 0-39.5 6T300 823.5 276 836t-29 6-40-10-45-27v67q22 16 45 24.5t44 8.5q24 0 39.5-6t27.5-12.5 24-12.5 29-6 38 10 43 27v-67q-22-16-43-24.5t-42-8.5zm-197-85V214q0-75 31.5-118T306 53t105 43 32 118v506h81V573q31 11 46.5 34t15.5 73v75h80v-74q0-37-13-64.5t-34-46-46-29.5-49-16V223q0-118-56.5-178T305-15 142 45 85 223v497h85z"/><glyph glyph-name="uni1EEF" unicode="ữ" horiz-adv-x="576" d="M328 625q-24 0-39.5 6T261 643.5 237 656t-29 6-40-10-45-27v67q22 16 45 24.5t44 8.5q24 0 39.5-6t27.5-12.5 24-12.5 29-6 38 10 43 27v-67q-22-16-43-24.5t-42-8.5zm-168-85V186q0-39 7-64t20.5-40T219 61t41-6q40 0 68 19.5t48 50.5v415h80V408q28 11 41.5 33t13.5 69v65h75v-64q0-35-11.5-61t-30-44-42-29.5T456 359V0h-55l-18 68q-26-40-61.5-59T244-10q-75 0-119.5 47T80 188v352h80z"/><glyph glyph-name="uni1EF0" unicode="Ự" horiz-adv-x="656" d="M259-170v92h96v-92h-96zm-89 890V214q0-75 31.5-118T306 53t105 43 32 118v506h81V573q31 11 46.5 34t15.5 73v75h80v-74q0-37-13-64.5t-34-46-46-29.5-49-16V223q0-118-56.5-178T305-15 142 45 85 223v497h85z"/><glyph glyph-name="uni1EF1" unicode="ự" horiz-adv-x="576" d="M219-170v92h96v-92h-96zm-59 710V186q0-39 7-64t20.5-40T219 61t41-6q40 0 68 19.5t48 50.5v415h80V408q28 11 41.5 33t13.5 69v65h75v-64q0-35-11.5-61t-30-44-42-29.5T456 359V0h-55l-18 68q-26-40-61.5-59T244-10q-75 0-119.5 47T80 188v352h80z"/><glyph glyph-name="Ygrave" unicode="Ỳ" horiz-adv-x="512" d="M502 720L300 288V0h-84v288L10 720h93l157-344 159 344h83zm-175 48h-72L113 885h119z"/><glyph glyph-name="ygrave" unicode="ỳ" horiz-adv-x="458" d="M292-14q-11-37-22-65t-26.5-46.5-38.5-28-59-9.5q-29 0-65 9v63q17-4 32-6t31-2q36 0 50 24t26 75h-38L10 540h85L239 53l133 487h76zm10 612h-71L92 735h113z"/><glyph glyph-name="uni1EF4" unicode="Ỵ" horiz-adv-x="512" d="M502 720L300 288V0h-84v288L10 720h93l157-344 159 344h83zM209-170v92h96v-92h-96z"/><glyph glyph-name="uni1EF5" unicode="ỵ" horiz-adv-x="511" d="M292-14q-11-37-22-65t-26.5-46.5-38.5-28-59-9.5q-29 0-65 9v63q17-4 32-6t31-2q36 0 50 24t26 75h-38L10 540h85L239 53l133 487h76zm63-156v92h96v-92h-96z"/><glyph glyph-name="uni1EF6" unicode="Ỷ" horiz-adv-x="512" d="M502 720L300 288V0h-84v288L10 720h93l157-344 159 344h83zM365 870q0-34-20.5-55T289 783l-3-22h-56l-3 60q29 4 47 14.5t18 33.5q0 22-12 29t-24 7q-35 0-47-46l-67 14q14 39 42 63t79 24q45 0 73.5-24t28.5-66z"/><glyph glyph-name="uni1EF7" unicode="ỷ" horiz-adv-x="458" d="M292-14q-11-37-22-65t-26.5-46.5-38.5-28-59-9.5q-29 0-65 9v63q17-4 32-6t31-2q36 0 50 24t26 75h-38L10 540h85L239 53l133 487h76zm51 726q0-34-20.5-55T267 625l-3-22h-56l-3 60q29 4 47 14.5t18 33.5q0 22-12 29t-24 7q-35 0-47-46l-67 14q14 39 42 63t79 24q45 0 73.5-24t28.5-66z"/><glyph glyph-name="uni1EF8" unicode="Ỹ" horiz-adv-x="512" d="M502 720L300 288V0h-84v288L10 720h93l157-344 159 344h83zm-185 85q-24 0-39.5 6T250 823.5 226 836t-29 6-40-10-45-27v67q22 16 45 24.5t44 8.5q24 0 39.5-6t27.5-12.5 24-12.5 29-6 38 10 43 27v-67q-22-16-43-24.5t-42-8.5z"/><glyph glyph-name="uni1EF9" unicode="ỹ" horiz-adv-x="458" d="M292-14q-11-37-22-65t-26.5-46.5-38.5-28-59-9.5q-29 0-65 9v63q17-4 32-6t31-2q36 0 50 24t26 75h-38L10 540h85L239 53l133 487h76zm3 639q-24 0-39.5 6T228 643.5 204 656t-29 6-40-10-45-27v67q22 16 45 24.5t44 8.5q24 0 39.5-6t27.5-12.5 24-12.5 29-6 38 10 43 27v-67q-22-16-43-24.5t-42-8.5z"/><glyph glyph-name="figuredash" unicode="‒" d="M65 287v72h410v-72H65z"/><glyph glyph-name="endash" unicode="–" horiz-adv-x="400" d="M0 287v72h400v-72H0z"/><glyph glyph-name="emdash" unicode="—" horiz-adv-x="600" d="M0 287v72h600v-72H0z"/><glyph glyph-name="afii00208" unicode="―" horiz-adv-x="500" d="M50 287v72h400v-72H50z"/><glyph glyph-name="quoteleft" unicode="‘" horiz-adv-x="258" d="M120 726h47l-39-143h31v-95H59v94z"/><glyph glyph-name="quoteright" unicode="’" horiz-adv-x="258" d="M122 467H75l39 143H83v95h100v-94z"/><glyph glyph-name="quotesinglbase" unicode="‚" horiz-adv-x="258" d="M122-143H75L114 0H83v95h100V1z"/><glyph glyph-name="quotedblleft" unicode="“" horiz-adv-x="417" d="M279 726h47l-39-143h31v-95H218v94zm-159 0h47l-39-143h31v-95H59v94z"/><glyph glyph-name="quotedblright" unicode="”" horiz-adv-x="408" d="M122 467H75l39 143H83v95h100v-94zm150 0h-47l39 143h-31v95h100v-94z"/><glyph glyph-name="quotedblbase" unicode="„" horiz-adv-x="408" d="M272-143h-47L264 0h-31v95h100V1zm-150 0H75L114 0H83v95h100V1z"/><glyph glyph-name="dagger" unicode="†" horiz-adv-x="490" d="M430 461H286V0h-82v461H60v69h144v190h82V530h144v-69z"/><glyph glyph-name="daggerdbl" unicode="‡" horiz-adv-x="490" d="M430 206H286V0h-82v206H60v69h144v186H60v69h144v190h82V530h144v-69H286V275h144v-69z"/><glyph glyph-name="bullet" unicode="•" horiz-adv-x="315" d="M80 252v145h155V252H80z"/><glyph glyph-name="onedotenleader" unicode="․" horiz-adv-x="500" d="M200 0v100h100V0H200z"/><glyph glyph-name="twodotenleader" unicode="‥" horiz-adv-x="500" d="M95 0v100h100V0H95zm210 0v100h100V0H305z"/><glyph glyph-name="ellipsis" unicode="…" horiz-adv-x="690" d="M65 0v100h100V0H65zm230 0v100h100V0H295zm230 0v100h100V0H525z"/><glyph glyph-name="perthousand" unicode="‰" horiz-adv-x="1050" d="M719 159q0 42 11 74t30 53 43 31.5 51 10.5 51.5-10.5 43-31.5 30-53 11.5-74-11.5-73.5T948 33 904.5 2 854-8 803.5 2 760 33t-30 52.5-11 73.5zM268 0h-74l275 700h74zM60 541q0 42 11 74t30 53 43 31.5 51 10.5 51.5-10.5 43-31.5 30-53 11.5-74-11.5-73.5T289 415t-43.5-31-50.5-10-50.5 10-43.5 31-30 52.5T60 541zm70 0q0-60 18-86t47-26 48 26 19 86-19 86-48 26-47-26-18-86zm279-382q0 42 11 74t30 53 43 31.5 51 10.5 51.5-10.5 43-31.5 30-53 11.5-74-11.5-73.5T638 33 594.5 2 544-8 493.5 2 450 33t-30 52.5-11 73.5zm70 0q0-60 18-86t47-26 48 26 19 86-19 86-48 26-47-26-18-86zm311 0q0-60 18-86t47-26 48 26 19 86-19 86-48 26-47-26-18-86z"/><glyph glyph-name="guilsinglleft" unicode="‹" horiz-adv-x="311" d="M60 326l117 205h64l-92-208 82-222h-64z"/><glyph glyph-name="guilsinglright" unicode="›" horiz-adv-x="311" d="M144 101H80l82 222-92 208h64l117-205z"/><glyph glyph-name="exclamdbl" unicode="‼" horiz-adv-x="500" d="M328 240l-10 480h90l-10-480h-70zM315 0v100h100V0H315zM98 240L88 720h90l-10-480H98zM85 0v100h100V0H85z"/><glyph glyph-name="fraction" unicode="⁄" horiz-adv-x="270" d="M-56-100h-86l467 910h86z"/><glyph glyph-name="uni2070" unicode="⁰" horiz-adv-x="340" d="M29 611q0 108 38.5 153.5T169 810q31 0 57-11t44.5-34.5 29-61.5 10.5-92q0-53-10.5-90T270 460t-44.5-35-56.5-11q-62 0-101 46.5T29 611zm74 0q0-41 5-68t14-43 21-22.5 26-6.5q13 0 25.5 6.5T216 500t14.5 43 5.5 68-5.5 68.5-15 44T194 747t-25 7-25-7-21-23.5-14.5-44T103 611z"/><glyph glyph-name="uni2071" unicode="ⁱ" horiz-adv-x="172" d="M56 858v66h60v-66H56zm4-438v376h52V420H60z"/><glyph glyph-name="uni2074" unicode="⁴" horiz-adv-x="340" d="M248 660V549h56v-58h-56v-71h-66v71H35v62l84 247h71l-88-251h82l11 111h53z"/><glyph glyph-name="uni2075" unicode="⁵" horiz-adv-x="340" d="M163 468q31 0 47.5 20.5T227 544t-17.5 53.5T167 616q-22 0-35-9t-25-24H51l12 217h212v-56H122l-5-102q13 12 32 19.5t43 7.5q19 0 38.5-7.5t35-22.5 25.5-38.5 10-56.5q0-63-37.5-96.5T163 414q-56 0-86 25.5T38 499l68 10q5-16 18.5-28.5T163 468z"/><glyph glyph-name="uni2076" unicode="⁶" horiz-adv-x="340" d="M177 756q-24 0-43-25.5T111 640q28 34 80 34 21 0 41-7.5t36-23.5 25.5-40 9.5-57q0-35-11-60t-30-41-43-23.5-49-7.5q-27 0-51 9.5T76.5 455t-29 58T37 602q0 57 11.5 96.5t31 64 45 36T179 810q50 0 77.5-25.5T295 725l-68-9q-6 17-18 28.5T177 756zm-13-137q-17 0-30-6.5T110 596q1-39 6.5-64t14-39 19-19 22.5-5q23 0 40.5 20t17.5 55q0 75-66 75z"/><glyph glyph-name="uni2077" unicode="⁷" horiz-adv-x="340" d="M159 420H75l146 319H45v61h249v-67z"/><glyph glyph-name="uni2078" unicode="⁸" horiz-adv-x="340" d="M170 414q-27 0-51.5 6.5t-44 20-31 34T32 523q0 23 7 40t18.5 28.5 25 18.5 26.5 10q-26 10-44.5 33T46 708q0 27 11 46.5t28.5 32 39.5 18 45 5.5q22 0 44.5-5.5t40-17 28.5-30 11-45.5q0-32-19.5-53T230 629q12-3 25.5-10.5T281 599t19.5-30 7.5-42q0-29-11-50.5T267 441t-44-20.5-53-6.5zm64 113q0 16-7 28t-17.5 20-23.5 13.5-25 9.5q-19-9-36.5-23.5T107 527q0-23 17-40.5t46-17.5 46.5 17 17.5 41zm-9 181q0 23-15 38t-40 15-40-15-15-38q0-14 7-24t16.5-17.5 20.5-12 20-5.5q4 2 12 6.5t15.5 12 13 17.5 5.5 23z"/><glyph glyph-name="uni2079" unicode="⁹" horiz-adv-x="340" d="M166 468q24 0 41.5 25t21.5 92q-29-33-80-33-21 0-41 7.5t-36 23T46.5 622 37 679q0 35 11.5 60T79 779.5t43 23 50 7.5q27 0 51-9t41.5-31 28-57.5T303 624q0-57-10.5-96.5t-29-65-44-37T164 414q-49 0-76.5 25T49 499l67 9q5-17 17.5-28.5T166 468zm10 139q16 0 29.5 6.5T230 630q-1 39-6.5 63.5t-14 38T191 750t-21 5q-23 0-41.5-19.5T110 681q0-74 66-74z"/><glyph glyph-name="uni207D" unicode="⁽" horiz-adv-x="245" d="M50 610q0 50 9 92t23.5 77 32 63.5T149 894h56q-15-28-30-59t-26-66-18-74.5-7-84.5 7-84.5 18-74.5 26-66 30-59h-56q-17 22-34.5 50.5t-32 64T59 518t-9 92z"/><glyph glyph-name="uni207E" unicode="⁾" horiz-adv-x="245" d="M195 610q0-50-9-92t-23.5-77.5-32-64T96 326H40q15 28 30 59t26 66 18 74.5 7 84.5-7 84.5T96 769t-26 66-30 59h56q17-23 34.5-51.5t32-63.5 23.5-77 9-92z"/><glyph glyph-name="uni207F" unicode="ⁿ" horiz-adv-x="372" d="M60 420v378h38l9-45q22 31 50 43.5t51 12.5q51 0 77.5-34.5T312 665V420h-52v248q0 51-16 73t-51 22q-24 0-44.5-15T112 713V420H60z"/><glyph glyph-name="uni2080" unicode="₀" horiz-adv-x="340" d="M29 92q0 108 38.5 153.5T169 291q31 0 57-11t44.5-34.5 29-61.5T310 92q0-53-10.5-90T270-59t-44.5-35-56.5-11q-62 0-101 46.5T29 92zm74 0q0-41 5-68t14-43 21-22.5 26-6.5q13 0 25.5 6.5T216-19t14.5 43 5.5 68-5.5 68.5-15 44T194 228t-25 7-25-7-21-23.5-14.5-44T103 92z"/><glyph glyph-name="uni2081" unicode="₁" horiz-adv-x="340" d="M54-99v62h92v246l-95-56v73l91 55h73V-37h74v-62H54z"/><glyph glyph-name="uni2082" unicode="₂" horiz-adv-x="340" d="M169 235q-24 0-39-16.5T111 183l-71 10q11 42 46 70t89 28q25 0 47.5-6.5T262 264t27.5-36 10.5-53q0-38-25.5-70.5T217 40l-79-79h160v-60H47v60L179 95q16 16 30.5 37.5T224 178q0 21-12 39t-43 18z"/><glyph glyph-name="uni2083" unicode="₃" horiz-adv-x="340" d="M167-50q31 0 45.5 18.5T227 17q0 37-20 48t-47 11h-13v51h18q22 0 37 14.5t15 43.5q0 20-14 35t-39 15q-24 0-39-14.5T105 182l-69 9q12 48 50 74t85 26q21 0 42.5-6t38.5-19 27.5-33 10.5-47q0-26-15-48t-46-32q14-3 27.5-10t24-18T297 50.5t6-38.5q0-29-10.5-50.5t-29-36.5-43-22.5T168-105q-53 0-88.5 29.5T36-5l71 9q4-20 18.5-37T167-50z"/><glyph glyph-name="uni2084" unicode="₄" horiz-adv-x="340" d="M248 141V30h56v-58h-56v-71h-66v71H35v62l84 247h71L102 30h82l11 111h53z"/><glyph glyph-name="uni2085" unicode="₅" horiz-adv-x="340" d="M163-51q31 0 47.5 20.5T227 25t-17.5 53.5T167 97q-22 0-35-9t-25-24H51l12 217h212v-56H122l-5-102q13 12 32 19.5t43 7.5q19 0 38.5-7.5t35-22.5T291 81.5 301 25q0-63-37.5-96.5T163-105q-56 0-86 25.5T38-20l68 10q5-16 18.5-28.5T163-51z"/><glyph glyph-name="uni2086" unicode="₆" horiz-adv-x="340" d="M177 237q-24 0-43-25.5T111 121q28 34 80 34 21 0 41-7.5t36-23.5 25.5-40 9.5-57q0-35-11-60t-30-41-43-23.5-49-7.5q-27 0-51 9.5T76.5-64t-29 58T37 83q0 57 11.5 96.5t31 64 45 36T179 291q50 0 77.5-25.5T295 206l-68-9q-6 17-18 28.5T177 237zm-13-137q-17 0-30-6.5T110 77q1-39 6.5-64t14-39 19-19 22.5-5q23 0 40.5 20T230 25q0 75-66 75z"/><glyph glyph-name="uni2087" unicode="₇" horiz-adv-x="340" d="M159-99H75l146 319H45v61h249v-67z"/><glyph glyph-name="uni2088" unicode="₈" horiz-adv-x="340" d="M170-105q-27 0-51.5 6.5t-44 20-31 34T32 4q0 23 7 40t18.5 28.5 25 18.5 26.5 10q-26 10-44.5 33T46 189q0 27 11 46.5t28.5 32 39.5 18 45 5.5q22 0 44.5-5.5t40-17 28.5-30 11-45.5q0-32-19.5-53T230 110q12-3 25.5-10.5T281 80t19.5-30T308 8q0-29-11-50.5T267-78t-44-20.5-53-6.5zM234 8q0 16-7 28t-17.5 20T186 69.5 161 79q-19-9-36.5-23.5T107 8q0-23 17-40.5T170-50t46.5 17T234 8zm-9 181q0 23-15 38t-40 15-40-15-15-38q0-14 7-24t16.5-17.5 20.5-12 20-5.5q4 2 12 6.5t15.5 12 13 17.5 5.5 23z"/><glyph glyph-name="uni2089" unicode="₉" horiz-adv-x="340" d="M166-51q24 0 41.5 25T229 66q-29-33-80-33-21 0-41 7.5t-36 23T46.5 103 37 160q0 35 11.5 60T79 260.5t43 23 50 7.5q27 0 51-9t41.5-31 28-57.5T303 105q0-57-10.5-96.5t-29-65-44-37T164-105q-49 0-76.5 25T49-20l67 9q5-17 17.5-28.5T166-51zm10 139q16 0 29.5 6.5T230 111q-1 39-6.5 63.5t-14 38T191 231t-21 5q-23 0-41.5-19.5T110 162q0-74 66-74z"/><glyph glyph-name="uni208D" unicode="₍" horiz-adv-x="245" d="M50 91q0 50 9 92t23.5 77 32 63.5T149 375h56q-15-28-30-59t-26-66-18-74.5-7-84.5 7-84.5T149-68t26-66 30-59h-56q-17 22-34.5 50.5t-32 64T59-1t-9 92z"/><glyph glyph-name="uni208E" unicode="₎" horiz-adv-x="245" d="M195 90q0-50-9-92t-23.5-77.5-32-64T96-194H40q15 28 30 59t26 66 18 74.5 7 84.5-7 84.5T96 249t-26 66-30 59h56q17-23 34.5-51.5t32-63.5 23.5-77 9-92z"/><glyph glyph-name="colonmonetary" unicode="₡" d="M284-102h-40l14 95q-16 4-32 13l-16-108h-40l20 133q-40 36-66 109.5T98 343q0 100 16.5 167.5T159 620t63 62 73 25l16 103h40l-16-100q17 0 34-3l16 103h40l-18-112q24-8 42-18v-70q-13 11-25 18t-26 12L307 51q6-1 11.5-1.5T330 49q35 0 63.5 11.5T448 87V19Q430 8 397.5-3.5T317-15q-5 0-10 .5t-10 .5zM179 343q0-69 7-117.5t21-83.5l77 496q-54-22-79.5-93T179 343zm160 306q-10 0-13-1L239 88q13-15 30-24l91 584q-5 0-10.5.5t-10.5.5z"/><glyph glyph-name="dong" unicode="₫" d="M54 271q0 140 54 212t148 72q35 0 61.5-11.5T364 512v101H191v62h173v60h80v-60h71v-62h-71V0h-58l-17 61q-25-34-61-52.5T224-10q-34 0-64.5 15.5t-54 49-37.5 87T54 271zM257 56q31 0 57.5 17t49.5 41v341q-19 17-42 29t-50 12q-29 0-53.5-12T176 444.5 148 373t-10-107q0-60 9-100t25-64.5 37.5-35T257 56zM98-116v62h367v-62H98z"/><glyph glyph-name="Euro" unicode="€" d="M424 389H190q-1-5-1-11v-66q0-5 1-10h213l-15-60H194q6-54 19.5-90.5T246 92t43-33 51-10q35 0 63.5 11.5T458 87V19Q440 8 407.5-3.5T327-15q-31 0-65 10t-64 38-53 78.5T113 242H25l15 60h69q-1 5-1 10v66q0 6 1 11H25l15 60h74q10 79 33.5 129.5T202 658t67.5 40.5T342 710q54 0 89-14t61-33l-17-64q-32 24-60 37t-66 13q-66 0-104.5-48.5T194 449h245z"/><glyph glyph-name="afii61289" unicode="ℓ" horiz-adv-x="457" d="M40 152q21 15 44.5 34.5T133 229v287q0 54 12 91t32 60 45.5 33 53.5 10q60 0 89.5-33t29.5-90q0-41-16-84.5T336.5 416 277 332.5 210 257V154q0-63 12-92.5T276 32q37 0 62 25.5t36 63.5l28-11q-7-23-19-45.5t-30-40T311-4t-55-11q-68 0-95.5 45T133 152v34q-23-20-42.5-34.5T57 129zm170 154q30 33 56 67.5t46 70 31.5 69.5 11.5 66q0 42-16 64.5T290 666q-24 0-39.5-9.5T226 631t-12.5-36.5T210 552V306z"/><glyph glyph-name="afii61352" unicode="№" horiz-adv-x="1029" d="M511 720V0H400L171 603V0H90v720h114l228-596v596h79zm113-199q0 59 14 100t37 66.5 53.5 36.5 63.5 11 63-11 53.5-36.5 37-66.5T959 521t-13.5-99.5-36.5-65-53.5-35T792 311t-63.5 10.5-54 35-37 65T624 521zm80 0q0-81 25.5-117.5T793 367t62.5 36.5T880 521t-24.5 119-63.5 38-63.5-38T704 521zM641 0v70h303V0H641z"/><glyph glyph-name="trademark" unicode="™" horiz-adv-x="793" d="M497 324l-92 320V324h-61v340H226V324h-65v340H45v56h401l85-327 80 327h100V324h-63v320l-88-320h-63z"/><glyph glyph-name="uni2126" unicode="Ω" horiz-adv-x="658" d="M329 670q-87 0-129.5-78.5T157 360q0-59 5.5-107.5t18.5-86 35-62T270 70V0H80v70h87q-21 15-39 38t-31 57-20 81.5T70 360q0 105 22 176.5T150 652t82.5 63.5T329 735q49 0 96-19.5t83-63.5 58-115.5T588 360q0-65-7.5-113T560 164.5t-31-57T489 70h89V0H387v70q32 10 53.5 34.5t35 62 19.5 86 6 107.5q0 153-42.5 231.5T329 670z"/><glyph glyph-name="estimated" unicode="℮" horiz-adv-x="945" d="M218 339V126q16-24 44.5-42T326 54t73.5-18.5T473 29q36 0 73 6t71.5 18.5 64.5 31 51 42.5h58Q736 63 657 26.5T472-10q-86 0-159.5 26T185 89.5t-84.5 113T70 347t31.5 145.5 86.5 115T316 683t156 27q80 0 153-26.5T753.5 608 842 491t33-152H218zm509 230q-42 46-104 74t-150 28-152.5-26.5T218 570V379h509v190z"/><glyph glyph-name="onethird" unicode="⅓" horiz-adv-x="840" d="M640 50q31 0 45.5 18.5T700 117q0 37-20 48t-47 11h-13v51h18q22 0 37 14.5t15 43.5q0 20-14 35t-39 15q-24 0-39-14.5T578 282l-69 9q12 48 50 74t85 26q21 0 42.5-6t38.5-19 27.5-33 10.5-47q0-26-15-48t-46-32q14-3 27.5-10t24-18 16.5-27.5 6-38.5q0-29-10.5-50.5t-29-36.5-43-22.5T641-5q-53 0-88.5 29.5T509 95l71 9q4-20 18.5-37T640 50zM232-100h-86l467 910h86zM67 321v62h92v246l-95-56v73l91 55h73V383h74v-62H67z"/><glyph glyph-name="twothirds" unicode="⅔" horiz-adv-x="840" d="M243-100h-86l467 910h86zm-66 755q-24 0-39-16.5T119 603l-71 10q11 42 46 70t89 28q25 0 47.5-6.5T270 684t27.5-36 10.5-53q0-38-25.5-70.5T225 460l-79-79h160v-60H55v60l132 134q16 16 30.5 37.5T232 598q0 21-12 39t-43 18zM656 50q31 0 45.5 18.5T716 117q0 37-20 48t-47 11h-13v51h18q22 0 37 14.5t15 43.5q0 20-14 35t-39 15q-24 0-39-14.5T594 282l-69 9q12 48 50 74t85 26q21 0 42.5-6t38.5-19 27.5-33 10.5-47q0-26-15-48t-46-32q14-3 27.5-10t24-18 16.5-27.5 6-38.5q0-29-10.5-50.5t-29-36.5-43-22.5T657-5q-53 0-88.5 29.5T525 95l71 9q4-20 18.5-37T656 50z"/><glyph glyph-name="oneeighth" unicode="⅛" horiz-adv-x="840" d="M638-5q-27 0-51.5 6.5t-44 20-31 34T500 104q0 23 7 40t18.5 28.5 25 18.5 26.5 10q-26 10-44.5 33T514 289q0 27 11 46.5t28.5 32 39.5 18 45 5.5q22 0 44.5-5.5t40-17 28.5-30 11-45.5q0-32-19.5-53T698 210q12-3 25.5-10.5T749 180t19.5-30 7.5-42q0-29-11-50.5T735 22 691 1.5 638-5zm64 113q0 16-7 28t-17.5 20-23.5 13.5-25 9.5q-19-9-36.5-23.5T575 108q0-23 17-40.5T638 50t46.5 17 17.5 41zm-9 181q0 23-15 38t-40 15-40-15-15-38q0-14 7-24t16.5-17.5 20.5-12 20-5.5q4 2 12 6.5t15.5 12 13 17.5 5.5 23zM232-100h-86l467 910h86zM67 321v62h92v246l-95-56v73l91 55h73V383h74v-62H67z"/><glyph glyph-name="threeeighths" unicode="⅜" horiz-adv-x="840" d="M639-5q-27 0-51.5 6.5t-44 20-31 34T501 104q0 23 7 40t18.5 28.5 25 18.5 26.5 10q-26 10-44.5 33T515 289q0 27 11 46.5t28.5 32 39.5 18 45 5.5q22 0 44.5-5.5t40-17 28.5-30 11-45.5q0-32-19.5-53T699 210q12-3 25.5-10.5T750 180t19.5-30 7.5-42q0-29-11-50.5T736 22 692 1.5 639-5zm64 113q0 16-7 28t-17.5 20-23.5 13.5-25 9.5q-19-9-36.5-23.5T576 108q0-23 17-40.5T639 50t46.5 17 17.5 41zm-9 181q0 23-15 38t-40 15-40-15-15-38q0-14 7-24t16.5-17.5 20.5-12 20-5.5q4 2 12 6.5t15.5 12 13 17.5 5.5 23zM233-100h-86l467 910h86zm-39 470q31 0 45.5 18.5T254 437q0 37-20 48t-47 11h-13v51h18q22 0 37 14.5t15 43.5q0 20-14 35t-39 15q-24 0-39-14.5T132 602l-69 9q12 48 50 74t85 26q21 0 42.5-6t38.5-19 27.5-33 10.5-47q0-26-15-48t-46-32q14-3 27.5-10t24-18 16.5-27.5 6-38.5q0-29-10.5-50.5t-29-36.5-43-22.5T195 315q-53 0-88.5 29.5T63 415l71 9q4-20 18.5-37t41.5-17z"/><glyph glyph-name="fiveeighths" unicode="⅝" horiz-adv-x="840" d="M190 369q31 0 47.5 20.5T254 445t-17.5 53.5T194 517q-22 0-35-9t-25-24H78l12 217h212v-56H149l-5-102q13 12 32 19.5t43 7.5q19 0 38.5-7.5t35-22.5 25.5-38.5 10-56.5q0-63-37.5-96.5T190 315q-56 0-86 25.5T65 400l68 10q5-16 18.5-28.5T190 369zM637-5q-27 0-51.5 6.5t-44 20-31 34T499 104q0 23 7 40t18.5 28.5 25 18.5 26.5 10q-26 10-44.5 33T513 289q0 27 11 46.5t28.5 32 39.5 18 45 5.5q22 0 44.5-5.5t40-17 28.5-30 11-45.5q0-32-19.5-53T697 210q12-3 25.5-10.5T748 180t19.5-30 7.5-42q0-29-11-50.5T734 22 690 1.5 637-5zm64 113q0 16-7 28t-17.5 20-23.5 13.5-25 9.5q-19-9-36.5-23.5T574 108q0-23 17-40.5T637 50t46.5 17 17.5 41zm-9 181q0 23-15 38t-40 15-40-15-15-38q0-14 7-24t16.5-17.5 20.5-12 20-5.5q4 2 12 6.5t15.5 12 13 17.5 5.5 23zM231-100h-86l467 910h86z"/><glyph glyph-name="seveneighths" unicode="⅞" horiz-adv-x="840" d="M209 321h-84l146 319H95v61h249v-67zM606-5q-27 0-51.5 6.5t-44 20-31 34T468 104q0 23 7 40t18.5 28.5 25 18.5 26.5 10q-26 10-44.5 33T482 289q0 27 11 46.5t28.5 32 39.5 18 45 5.5q22 0 44.5-5.5t40-17 28.5-30 11-45.5q0-32-19.5-53T666 210q12-3 25.5-10.5T717 180t19.5-30 7.5-42q0-29-11-50.5T703 22 659 1.5 606-5zm64 113q0 16-7 28t-17.5 20-23.5 13.5-25 9.5q-19-9-36.5-23.5T543 108q0-23 17-40.5T606 50t46.5 17 17.5 41zm-9 181q0 23-15 38t-40 15-40-15-15-38q0-14 7-24t16.5-17.5 20.5-12 20-5.5q4 2 12 6.5t15.5 12 13 17.5 5.5 23zM200-100h-86l467 910h86z"/><glyph glyph-name="arrowleft" unicode="←" d="M157 329l135-171H187L24 370l163 213h105L156 411h360v-82H157z"/><glyph glyph-name="arrowup" unicode="↑" d="M226 490L57 355v102l212 163 213-163V355L312 491V128h-86v362z"/><glyph glyph-name="arrowright" unicode="→" d="M383 411L248 582h105l163-212-163-213H248l136 172H24v82h359z"/><glyph glyph-name="arrowdown" unicode="↓" d="M313 258l169 135V291L270 128 57 291v102l170-136v363h86V258z"/><glyph glyph-name="arrowboth" unicode="↔" d="M353 582h105l163-212-163-213H353l163 213zM24 370l163-213H82L-81 370 82 582h105z"/><glyph glyph-name="arrowupdn" unicode="↕" d="M57 444v102l212 163 213-163V444L269 607zm212-321l213 163V184L269 21 57 184v102z"/><glyph glyph-name="uni2196" unicode="↖" d="M161 418l-25-216-73 73 35 265 266 35 73-73-217-24 256-256-60-60z"/><glyph glyph-name="uni2197" unicode="↗" d="M319 481l-216 25 73 73 265-35 35-266-73-73-24 217-256-256-60 60z"/><glyph glyph-name="uni2198" unicode="↘" d="M378 318l25 216 73-73-35-265-266-35-73 73 217 24L63 514l60 60z"/><glyph glyph-name="uni2199" unicode="↙" d="M220 265l216-25-73-73-265 35-35 266 73 73 24-217 256 256 60-60z"/><glyph glyph-name="partialdiff" unicode="∂" horiz-adv-x="484" d="M434 345q0-171-47-263T231-10q-38 0-72.5 15t-61 45.5-42 75.5T40 231q0 48 9.5 91.5t30.5 76 53.5 52T213 470q46 0 80.5-20t58.5-49q-7 70-34 119.5T254.5 602t-76 49-72.5 23l23 61q44-12 97-34t99.5-65T403 523t31-178zm-207 62q-51 0-78.5-45.5T121 225q0-48 9.5-81.5t25.5-54T192.5 60t41.5-9q61 0 89.5 68T354 343q-24 24-56.5 44T227 407z"/><glyph glyph-name="uni2206" unicode="∆" horiz-adv-x="553" d="M10 0l216 720h102L543 0H10zm103 67h321L276 644z"/><glyph glyph-name="product" unicode="∏" horiz-adv-x="630" d="M570 629h-80V-60q0-32 7.5-40.5T519-109q8 0 14 1t8 2l15-63q-13-4-24.5-6.5T506-178q-29 0-48.5 10T427-140t-15.5 42.5T407-44v673H227v-799h-83v799H60v71h510v-71z"/><glyph glyph-name="summation" unicode="∑" d="M154-102h321v-68H65v71l227 414L65 719v71h410v-69H154l226-406z"/><glyph glyph-name="minus" unicode="−" d="M65 287v72h410v-72H65z"/><glyph glyph-name="uni2215" unicode="∕" horiz-adv-x="270" d="M-56-100h-86l467 910h86z"/><glyph glyph-name="uni2219" unicode="∙" horiz-adv-x="315" d="M107 273v100h100V273H107z"/><glyph glyph-name="radical" unicode="√" horiz-adv-x="580" d="M630 750h-99L328 0H209L81 367h83L268 53l201 757h161v-60z"/><glyph glyph-name="infinity" unicode="∞" horiz-adv-x="684" d="M484 188q-39 0-78 19.5T342 272q-24-42-60.5-63T200 188t-75.5 14.5T75 240t-27.5 52-8.5 58q0 27 9.5 56T78 458.5t51 38.5 74 15q39 0 77.5-20.5T345 428q23 42 60 63t82 21 75.5-14.5T612 460t27.5-52 8.5-58q0-27-9.5-56T609 241.5 558 203t-74-15zM210 452q-48 0-73-28.5T112 350t24-73.5 69-28.5q21 0 40.5 9.5T280 283t25 36.5 13 41.5q-1 8-9 23.5T287 415t-33.5 26-43.5 11zm267-204q48 0 73 28.5t25 73.5-24 73.5-69 28.5q-21 0-40.5-9.5T407 417t-25-36.5-13-41.5q1-8 9-23.5t22-30.5 33.5-26 43.5-11z"/><glyph glyph-name="integral" unicode="∫" horiz-adv-x="280" d="M-39-94q19-5 38-7t34-2q33 0 50 15t17 50v710q0 29 7.5 54t23.5 44 40.5 29.5T231 810q50 0 88-11v-65q-19 5-38 7t-34 2q-33 0-50-15t-17-50V-32q0-29-7.5-54T149-130t-41-29.5T49-170q-50 0-88 11v65z"/><glyph glyph-name="approxequal" unicode="≈" horiz-adv-x="560" d="M184 409q-36 0-61.5-12T75 366v78q19 15 52 27.5t68 12.5q31 0 54-8.5t43-18 39.5-18T375 431q36 0 62 12t48 31v-78q-19-15-52-27.5T365 356q-31 0-54 8.5t-43.5 18-40 18T184 409zm0-199q-36 0-61.5-12T75 167v78q19 15 52 27.5t68 12.5q31 0 54-8.5t43-18 39.5-18T375 232q36 0 62 12t48 31v-78q-19-15-52-27.5T365 157q-31 0-54 8.5t-43.5 18-40 18T184 210z"/><glyph glyph-name="notequal" unicode="≠" d="M232 191L141 40H62l91 151H65v70h130l78 130H65v70h250l84 139h79l-84-139h81v-70H352l-78-130h201v-70H232z"/><glyph glyph-name="lessequal" unicode="≤" d="M65 281v90l410 170v-80L127 327l348-139v-77zM65 0v70h410V0H65z"/><glyph glyph-name="greaterequal" unicode="≥" d="M65 111v77l348 139L65 461v80l410-170v-90zM65 0v70h410V0H65z"/><glyph glyph-name="star" unicode="⋆" horiz-adv-x="682" d="M628 228q-29-9-69.5-28T472 153q-20-12-39-25.5t-36.5-26-32-24T340 57L50 280q31 31 64 42.5t56 11.5q37-1 59.5-12t39.5-25l123-96 22 14L54 494q29 9 69.5 28t86.5 47q19 12 38.5 25.5t37 26 32 24T342 665l290-223q-31-31-64-42.5T512 388q-37 1-59.5 12T413 425l-123 96-22-14z"/><glyph glyph-name="lozenge" unicode="◊" d="M316 0H210L30 350l181 350h105l193-350zm-52 647L114 350 264 53l162 297z"/><glyph glyph-name="rupiah" unicode="" horiz-adv-x="971" d="M526-170V0h-65L273 282H165V0H80v700h144q53 0 99-11.5t80-37 53.5-66T476 488q0-40-9.5-70.5t-26-53-38-38T356 301L526 50v450h58l14-55q25 34 61.5 52t84.5 18q34 0 64-13.5t53-44.5 36.5-80T911 256q0-132-52.5-199T712-10q-36 0-62 11t-44 31v-202h-80zm185 619q-31 0-57-16.5T606 393V89q17-17 39-29t51-12 53 11.5T790.5 96t27 65.5T827 261q0 53-8.5 89t-24 58-37 31.5T711 449zM165 635V347h64q71 0 115.5 32.5T389 488t-44 111.5T226 635h-61z"/><glyph glyph-name="uniFB05" unicode="ﬅ" horiz-adv-x="598" d="M568 5q-18-5-35-8t-40-3q-66 0-95 38t-29 101v342h-80v65h81l7 131q-20 3-44.5 5t-51.5 2q-54 0-77.5-19T180 601V0h-80v475H20v65h80v55q0 64 43.5 106T273 743q63 0 107.5-8.5T449 720V540h116v-65H449V131q0-35 13-52.5T506 61q15 0 29 2t33 7V5z"/><glyph glyph-name="parenleft.case" horiz-adv-x="340" d="M75 320q0 91 12.5 160t33 123.5 46.5 99 54 87.5h64q-25-46-49-94.5T193 591t-30.5-122.5T151 320q0-83 11.5-149T193 49t43-104.5 49-94.5h-64q-28 43-54 87.5t-46.5 99-33 123T75 320z"/><glyph glyph-name="parenright.case" horiz-adv-x="340" d="M265 320q0-92-12.5-160.5t-33-123-46.5-99-54-87.5H55q25 46 49 94.5T147 49t30.5 122T189 320q0 82-11.5 148.5T147 591t-43 104.5T55 790h64q28-43 54-87.5t46.5-99 33-123.5T265 320z"/><glyph glyph-name="hyphen.case" horiz-adv-x="425" d="M60 253v72h305v-72H60z"/><glyph glyph-name="at.case" horiz-adv-x="920" d="M654 98q-25 0-43.5 7.5T580 125t-18.5 27.5T553 184q-14-34-45.5-59T422 100q-27 0-52 9.5T325.5 141t-31 56.5T283 282q0 81 18.5 135t47 86.5 62.5 46 66 13.5q27 0 47-8.5t36-22.5l10 24h61l-31-258q-1-5-2-14t-1.5-18-1-17.5-.5-12.5q0-45 14-65t42-20q21 0 41 14t35.5 41.5T752 275t9 95q0 147-69 227.5T486 678q-54 0-112-21.5t-106-66-78.5-114T159 311q0-85 24-149t65-106.5 95-64T458-30q50 0 82.5 4.5T605-15v-58q-31-7-68.5-12.5T450-91q-78 0-145.5 27T187 14.5 108.5 141 80 312q0 117 39 197.5T217.5 640t131 72.5T486 735q79 0 144-22.5T741.5 645 814 531.5 840 371q0-50-12-98.5T792.5 185 734 122t-80-24zm-213 59q30 0 53 24.5t31 89.5l26 219q-10 9-22 13.5t-33 4.5q-23 0-46.5-9.5T406 463t-32.5-71.5T361 275q0-36 6.5-59t18-36 26-18 29.5-5z"/><glyph glyph-name="bracketleft.case" horiz-adv-x="340" d="M278-150H75v940h203v-68H153V-82h125v-68z"/><glyph glyph-name="bracketright.case" horiz-adv-x="340" d="M62-82h125v804H62v68h203v-940H62v68z"/><glyph glyph-name="grave.case" horiz-adv-x="274" d="M244 768h-72L30 885h119z"/><glyph glyph-name="braceleft.case" horiz-adv-x="340" d="M34 358q36 0 57.5 20t21.5 68v177q0 85 42.5 126T297 790v-60q-60 0-84.5-19.5T188 638V468q0-66-20.5-99.5T109 321q38-14 58.5-48T188 173V2q0-53 24.5-72.5T297-90v-60q-99 0-141.5 41T113 17v178q0 48-21.5 68T34 283v75z"/><glyph glyph-name="braceright.case" horiz-adv-x="340" d="M306 283q-36 0-57.5-20T227 195V17q0-85-42.5-126T43-150v60q60 0 84.5 19.5T152 2v171q0 66 20.5 100t58.5 48q-38 14-58.5 47.5T152 468v170q0 53-24.5 72.5T43 730v60q99 0 141.5-41T227 623V446q0-48 21.5-68t57.5-20v-75z"/><glyph glyph-name="exclamdown.case" horiz-adv-x="270" d="M172 320l10-480H92l10 480h70zm13 240V460H85v100h100z"/><glyph glyph-name="dieresis.case" horiz-adv-x="360" d="M30 785v90h95v-90H30zm205 0v90h95v-90h-95z"/><glyph glyph-name="guillemotleft.case" horiz-adv-x="490" d="M60 306l117 205h64l-92-208 82-222h-64zm179 0l117 205h64l-92-208 82-222h-64z"/><glyph glyph-name="uni00AD.case" horiz-adv-x="425" d="M60 324v72h305v-72H60z"/><glyph glyph-name="macron.case" horiz-adv-x="330" d="M30 796v69h270v-69H30z"/></font>
</defs>
</svg>
