<svg xmlns="http://www.w3.org/2000/svg"><defs><font horiz-adv-x="540"><font-face font-family="SuzukiPROBold" font-weight="400" panose-1="2 11 5 3 5 0 0 2 0 4" ascent="798" descent="-202" x-height="540" cap-height="720" bbox="-347 -275 1098 960" underline-thickness="50" underline-position="-50" unicode-range="U+0020-FB05"/><glyph glyph-name="ff" unicode="ff" horiz-adv-x="679" d="M562 440V0H422v440H235V0H95v440H15v100h80v10q0 47 15.5 82t43 58 66 34 83.5 11q49 0 88.5-4t87.5-16q39 30 106 30 37 0 65.5-5t48.5-10V629q-19 5-38 7.5t-34 2.5q-35 0-50-14t-15-49v-36h111V440H562zM235 540h187v30q0 16 1.5 29.5T427 626q-10 2-22.5 3.5T380 632t-23 1.5-17 .5q-49 0-77-18t-28-60v-16z"/><glyph glyph-name="fi" unicode="fi" horiz-adv-x="632" d="M511 621q-45 9-87 16t-90 7q-58 0-78.5-18T235 566v-26h327V0H422v440H235V0H95v440H15v100h80v20q0 96 57.5 140.5T313 745q27 0 49.5-1t45.5-4 48-7 55-10V621z"/><glyph glyph-name="fl" unicode="fl" horiz-adv-x="632" d="M422 0v637q-11 1-24.5 2.5T371 642t-24 1.5-17 .5q-49 0-72-18t-23-60v-26h97V440h-97V0H95v440H15v100h80v20q0 47 15.5 82t43 58 66 34 83.5 11q36 0 68-2t63-5.5 62-8 66-9.5V0H422z"/><glyph glyph-name="ffi" unicode="ffi" horiz-adv-x="958" d="M837 621q-45 9-87 16t-90 7q-58 0-78.5-18T561 566v-26h327V0H748v440H561V0H421v440H235V0H95v440H15v100h80v10q0 47 15.5 82t43 58 66 34 83.5 11q27 0 50-1t45-4 45.5-7.5T495 711q52 34 144 34 27 0 49.5-1t45.5-4 48-7 55-10V621zm-416-61q0 36 9 65-10 2-23 3.5t-25.5 3-23.5 2-18 .5q-62 0-83.5-18T235 556v-16h186v20z"/><glyph glyph-name="ffl" unicode="ffl" horiz-adv-x="958" d="M561 440V0H421v440H235V0H95v440H15v100h80v10q0 47 15.5 82t43 58 66 34 83.5 11q27 0 50-1t45-4 45.5-7.5T495 711q52 34 134 34 36 0 68-2t63-5.5 62-8 66-9.5V0H748v637q-11 1-24.5 2.5T697 642t-24 1.5-17 .5q-49 0-72-18t-23-60v-26h97V440h-97zM235 540h186v20q0 36 9 65-20 4-48 6.5t-42 2.5q-62 0-83.5-18T235 556v-16z"/><glyph glyph-name=".notdef" horiz-adv-x="582" d="M70 720h442V0H70v720zm324-602v484H188V118h206z"/><glyph glyph-name=".null" horiz-adv-x="0"/><glyph glyph-name="nonmarkingreturn" horiz-adv-x="220"/><glyph glyph-name="space" horiz-adv-x="290"/><glyph glyph-name="exclam" unicode="!" horiz-adv-x="270" d="M60 0v140h150V0H60zm17 240L62 720h146l-15-480H77z"/><glyph glyph-name="quotedbl" unicode="&quot;" horiz-adv-x="440" d="M200 631l-34-173H94L60 630v105h140V631zm180 0l-34-173h-72l-34 172v105h140V631z"/><glyph glyph-name="numbersign" unicode="#" d="M499 179h-84L400 0H289l15 179H200L185 0H74l15 179H11l8 98h79l13 153H31l9 98h80l15 172h111l-15-172h104l15 172h111l-15-172h83l-9-98h-83l-13-153h84zm-290 98h104l13 153H222z"/><glyph glyph-name="dollar" unicode="$" d="M277 606q-42 0-64-20.5T191 528q0-31 22.5-54.5T296 425q46-19 84.5-39.5t66-47 43-60T505 200q0-36-9.5-70.5t-30-63T412 18t-81-28v-125H219v124q-46 7-79 26.5T85.5 60t-33 51.5T38 160l133 20q4-35 29-62t73-27q16 0 32.5 4.5t29 14.5 20.5 26 8 40q0 27-9.5 46t-28 34.5-47 29.5-66.5 31q-74 34-118 81T50 516q0 75 45 125t124 64v115h112V706q40-8 69-25t48.5-39.5 31-47.5 16.5-48l-131-25q-5 33-26 59t-62 26z"/><glyph glyph-name="percent" unicode="%" horiz-adv-x="792" d="M317 0H198l275 700h119zM40 541q0 85 43.5 127T193 710t109-42 43-127-43-126-109-41-109.5 41T40 541zm108 0q0-51 11.5-72t33.5-21 33.5 21 11.5 72-11.5 73-33.5 22-33.5-22-11.5-73zm299-384q0 85 43.5 127T600 326t109-42 43-127-43-126-109-41-109.5 41T447 157zm108 0q0-51 11.5-72T600 64t33.5 21 11.5 72-11.5 73-33.5 22-33.5-22-11.5-73z"/><glyph glyph-name="ampersand" unicode="&" horiz-adv-x="721" d="M638 354q-12-115-61-204L721 0H559l-58 58q-38-32-87.5-50T301-10q-57 0-101.5 14T124 43.5t-47.5 61T60 184q0 70 32 113.5t93 79.5q-24 26-39.5 46.5t-24.5 39-12 36.5-3 40q0 27 11 57t36 55.5 64 42 96 16.5q53 0 91-14.5t62-38 35.5-52.5 11.5-59q0-60-35-106t-101-82l110-115q11 29 18 61.5t10 65.5zM318 103q29 0 54.5 10t46.5 27L268 292l-7 6q-32-21-45.5-43.5T202 198q0-40 32.5-67.5T318 103zm-74 439q0-13 2.5-24t9-23 17.5-25.5 29-32.5q48 25 67.5 52t19.5 54q0 29-19.5 48T317 610t-53-18-20-50z"/><glyph glyph-name="quotesingle" unicode="'" horiz-adv-x="260" d="M200 631l-34-173H94L60 630v105h140V631z"/><glyph glyph-name="parenleft" unicode="(" horiz-adv-x="340" d="M30 329q0 88 12.5 158t33 127.5 46.5 105 54 90.5h124q-25-46-49-96t-43-108-30.5-126.5T166 329q0-83 11.5-151T208 52t43-108 49-96H176q-28 43-54 90.5t-46.5 105-33 127.5T30 329z"/><glyph glyph-name="parenright" unicode=")" horiz-adv-x="340" d="M310 329q0-88-12.5-158t-33-127.5-46.5-105-54-90.5H40q25 46 49 96t43 108 30.5 126T174 329q0 82-11.5 150.5T132 606 89 714t-49 96h124q28-43 54-90.5t46.5-105 33-127.5T310 329z"/><glyph glyph-name="asterisk" unicode="*" horiz-adv-x="470" d="M266 595l121 80 43-133-145-7 114-90-113-82-51 135-51-135-113 82 113 90-144 7 43 133 120-80-38 140h140z"/><glyph glyph-name="plus" unicode="+" d="M206 262H65v118h141v141h128V380h141V262H334V121H206v141z"/><glyph glyph-name="comma" unicode="," horiz-adv-x="265" d="M205 1l-84-163H40L95 0H60v135h145V1z"/><glyph glyph-name="hyphen" unicode="-" horiz-adv-x="405" d="M50 261v121h305V261H50z"/><glyph glyph-name="period" unicode="." horiz-adv-x="265" d="M60 0v135h145V0H60z"/><glyph glyph-name="slash" unicode="/" horiz-adv-x="340" d="M144-90H11l185 820h133z"/><glyph glyph-name="zero" unicode="0" d="M45 349q0 98 15 166.5t43.5 112 70.5 63 97 19.5 96.5-19.5 70-63 43-112T495 349q0-96-14.5-164t-43-111.5-70-63.5T271-10t-97 20.5-70.5 64T60 186 45 349zm144 0q0-79 6-129.5t16.5-80 26-40.5T271 88t33 11 25.5 40.5 16.5 80 6 129.5-6 130-16.5 81-25.5 41.5-33 11.5-33.5-11.5-26-41.5-16.5-81-6-130z"/><glyph glyph-name="one" unicode="1" d="M96 0v107h133v465L87 488v130l136 82h145V107h109V0H96z"/><glyph glyph-name="two" unicode="2" d="M263 601q-34 0-56-24.5T180 506L47 523q7 39 24.5 73t45 59.5 65 40T267 710q42 0 79.5-11.5T413 663t46-61.5 17-89.5q0-34-10-65t-28.5-62.5-45-66T333 243L231 119h234V0H58v119l162 191q30 36 52 64.5t35.5 52.5 20 44.5T334 512q0 27-6 44.5t-15.5 27T290 597t-27 4z"/><glyph glyph-name="three" unicode="3" d="M254 95q13 0 27.5 4.5t26.5 16 20 32 8 52.5q0 41-10.5 65t-27 36.5-36.5 16-39 3.5h-32v99h40q13 0 29 4t29.5 14.5 23 29T322 515q0 28-7 45.5T297.5 588 274 601.5t-24 3.5q-31 0-52.5-22T171 521L40 538q9 39 29 70.5t48.5 54 64 35T258 710q40 0 77.5-10.5t66-33 45.5-57 17-81.5v-5q0-32-12-57t-30-43.5-39.5-30T342 377q8-2 19-5t24-8q19-8 36-22t30-34 21-46 8-59q0-57-19-97t-50-66-70.5-38T260-10q-50 0-87.5 14.5T108 43 65 98t-22 64l132 17q1-16 7-31t16-27 24-19 32-7z"/><glyph glyph-name="four" unicode="4" d="M419 444V244h96V137h-96V0H289v137H56v114l136 449h135L189 244h107l20 200h103z"/><glyph glyph-name="five" unicode="5" d="M265 95q14 0 29 5.5t27 20 19.5 39T348 223q0 45-7.5 73T321 339.5t-27 21-30 5.5q-20 0-42-12t-35-38H79l19 384h351V598H220l-11-182q20 20 48.5 33.5T321 463t66-12.5 54.5-40.5 37-72.5T492 229q0-61-18-106t-49-74.5-73-44T262-10q-50 0-86 14t-60.5 36.5T77 91t-19 57l131 17q5-34 26-52t50-18z"/><glyph glyph-name="six" unicode="6" d="M290 612q-14 0-28.5-6.5t-27-27.5-21.5-61.5T201 409q22 23 52.5 38.5T329 463q81 0 124.5-57T497 231q0-67-19-113t-50.5-74.5-71.5-41T274-10q-51 0-91.5 17T114 64 71 169 56 330q0 121 23 195.5T137.5 641t77 55 79.5 14q49 0 83-14.5t57-37.5 36-51.5 19-56.5l-134-17q-7 79-65 79zm-12-257q-38 0-78-25 0-84 6.5-132t17-72T247 96t27-6q13 0 27.5 4t26.5 18 19.5 41 7.5 74q0 39-6.5 63.5t-17 39-24.5 20-29 5.5z"/><glyph glyph-name="seven" unicode="7" d="M267 0H120l220 590H54v110h421V580z"/><glyph glyph-name="eight" unicode="8" d="M270-10q-50 0-91.5 12.5T106 40t-48 63.5T41 195q0 38 12 65.5T82 307t37 30.5 35 16.5q-18 9-35.5 23.5t-31 35T66 459t-8 59q0 49 16.5 85.5t45.5 60 67.5 35T270 710q43 0 82-11t67.5-33.5T465 608t17-83q0-31-10-54t-25-39.5-32.5-27.5-33.5-17q17-6 37.5-19.5t38.5-36 30-54.5 12-75q0-56-17-96.5t-48-66T361 2t-91-12zm81 212q0 29-8 48t-21.5 31-30.5 20-34 15q-11-5-23-11.5T212 286t-16.5-32-6.5-52q0-57 22-84t59-27 59 27 22 84zm-7 321q0 32-7.5 51T318 603.5 294 617t-24 3-24-3-24-12.5-18.5-29T196 523q0-26 10-43t23.5-28.5 28.5-17 25-7.5q7 4 17.5 10.5t20 17.5 16.5 27.5 7 40.5z"/><glyph glyph-name="nine" unicode="9" d="M257 88q17 0 31 8t24.5 31.5 17 64.5 8.5 107q-22-23-53.5-39T208 244q-81 0-124.5 58.5T40 470q0 67 19.5 113t52 74 73 40.5T267 710q102 0 159-79t57-251q0-119-17.5-194.5t-49-119-74.5-60T249-10q-44 0-77.5 13.5T114 39 75.5 88.5 55 145l135 17q12-74 67-74zm2 264q40 0 80 25-1 78-7.5 124.5t-17 70.5-23.5 31-27 7-28.5-4-26.5-17.5-19.5-41T182 474q0-39 6.5-62.5t17-37 24.5-18 29-4.5z"/><glyph glyph-name="colon" unicode=":" horiz-adv-x="265" d="M60 0v135h145V0H60zm0 405v135h145V405H60z"/><glyph glyph-name="semicolon" unicode=";" horiz-adv-x="265" d="M60 405v135h145V405H60zM205 1l-84-163H40L95 0H60v135h145V1z"/><glyph glyph-name="less" unicode="<" d="M475 541V405l-266-85 266-89V91L65 256v120z"/><glyph glyph-name="equal" unicode="=" d="M65 361v120h410V361H65zm0-190v120h410V171H65z"/><glyph glyph-name="greater" unicode=">" d="M475 376V256L65 91v140l266 89-266 85v136z"/><glyph glyph-name="question" unicode="?" horiz-adv-x="520" d="M192 0v140h150V0H192zm70 632q-30 0-51.5-23.5T184 546L45 563q9 31 25 62t42.5 55.5T178 720t93 15q42 0 79-11t64.5-33 44-56 16.5-80q0-51-21.5-85.5t-48-61.5-48-51-21.5-54v-63H197v92q0 25 10 45.5t24.5 38.5 32 34 32 32.5T320 517t10 40q0 42-20.5 58.5T262 632z"/><glyph glyph-name="at" unicode="@" horiz-adv-x="923" d="M659 96q-46 0-72.5 26T555 188q-6-15-15.5-31.5t-25-30-38-22T421 96q-30 0-57.5 9.5T315 137t-33.5 57.5T269 282q0 95 22.5 151t53.5 85.5 64 38 54 8.5q35 0 58-11.5t34-25.5l13 28h85l-27-248q-2-16-3.5-33t-1.5-31q0-21 2.5-33t7-18.5 10.5-8 14-1.5q13 0 29 10t29 32.5 22 58.5 9 89q0 85-21.5 137.5t-57.5 82-82 40-94 10.5q-42 0-95-15t-99.5-52.5T216 474t-32-162q0-95 26-156.5T275.5 59t88-48.5T457-3q43 0 83 4t77 12v-89q-35-8-76-14t-92-6q-70 0-139.5 23T184.5-.5 94.5 126 60 311q0 77 19 138t51 108 74.5 81 90.5 55.5 98 31.5 96 10q78 0 146-20.5t119-64T834 539t29-162q0-58-15.5-109t-43-89.5-65-60.5T659 96zM481 482q-11 0-27-7.5t-30.5-29T399 384t-10-105q0-31 5-49.5t12.5-28.5 16.5-13 17-3q21 0 41 17t24 55l20 211q-8 6-17.5 10t-26.5 4z"/><glyph glyph-name="A" unicode="A" horiz-adv-x="626" d="M462 0l-44 167H196L152 0H5l221 720h171L621 0H462zM224 269h167l-83 315z"/><glyph glyph-name="B" unicode="B" horiz-adv-x="609" d="M267 720q60 0 110-8t86-29.5 56.5-59.5 20.5-97q0-26-7-50.5T513 431t-30.5-33.5T444 380q8-2 19.5-5.5T486 366q35-17 56.5-55.5T564 211q0-60-18.5-100.5t-54.5-65-89-35T281 0H80v720h187zm-37-392V102h58q24 0 46 4t39 16 27 33 10 56q0 60-33 88.5T293 328h-63zm0 290V424h53q15 0 33.5 3t35 13.5T379 471t11 55q0 26-10 43.5T354 598t-35.5 15.5T280 618h-50z"/><glyph glyph-name="C" unicode="C" horiz-adv-x="603" d="M327 94q45 0 70.5 33t29.5 85l141-15q-5-34-20-71.5T503.5 57t-74-51.5T322-15q-48 0-95 15.5T143 58 83 173 60 360q0 112 23.5 185T145 660t87.5 58.5T333 735q55 0 95.5-18.5T497 669t43.5-65 21.5-71l-139-17q-4 24-10.5 44T395 595t-27 23.5-38 8.5q-23 0-43-12t-36-42-25-82-9-131q0-80 8.5-131.5t23-81.5 34.5-41.5T327 94z"/><glyph glyph-name="D" unicode="D" horiz-adv-x="646" d="M267 720q64 0 122-15.5t101.5-56 69.5-110T586 360t-26-178.5-69.5-110-101-56T269 0H80v720h187zm-37-108V109h39q30 0 59.5 9.5t53 36.5 38 76T434 360q0 79-15 128.5t-38.5 77-53.5 37-60 9.5h-37z"/><glyph glyph-name="E" unicode="E" horiz-adv-x="515" d="M435 309H230V113h235V0H80v720h385V605H230V417h205V309z"/><glyph glyph-name="F" unicode="F" horiz-adv-x="489" d="M424 295H230V0H80v720h374V607H230V403h194V295z"/><glyph glyph-name="G" unicode="G" horiz-adv-x="626" d="M552 0h-75l-29 53q-23-26-60-47t-88-21Q257-15 214.5.5t-77 57.5-56 115T60 360q0 112 23.5 185T145 660t87.5 58.5T334 735q47 0 84.5-13.5T484 685t47-54.5 30-67.5l-137-17q-10 34-30.5 58T332 628q-24 0-44.5-12T251 573.5 226 491t-9-131q0-80 7-131.5t21.5-81.5 35.5-41.5T329 94q32 0 56 14t38 34v172h-86v104h215V0z"/><glyph glyph-name="H" unicode="H" horiz-adv-x="655" d="M575 720V0H425v310H230V0H80v720h150V418h195v302h150z"/><glyph glyph-name="I" unicode="I" horiz-adv-x="310" d="M230 720V0H80v720h150z"/><glyph glyph-name="J" unicode="J" horiz-adv-x="389" d="M164 720h150V192q0-42-8.5-79.5t-30.5-66-60.5-45T117-15q-28 0-58.5 4.5T10 0v112q17-5 37-8t34-3q18 0 33 3.5t26.5 14 17.5 30 6 51.5v520z"/><glyph glyph-name="K" unicode="K" horiz-adv-x="619" d="M426 0L230 313V0H80v720h150V420l183 300h158L355 383 609 0H426z"/><glyph glyph-name="L" unicode="L" horiz-adv-x="502" d="M230 720V118h257V0H80v720h150z"/><glyph glyph-name="M" unicode="M" horiz-adv-x="822" d="M352 0L207 509V0H80v720h186l146-523 140 523h190V0H605v509L464 0H352z"/><glyph glyph-name="N" unicode="N" horiz-adv-x="668" d="M588 720V0H410L206 523V0H80v720h191l192-516v516h125z"/><glyph glyph-name="O" unicode="O" horiz-adv-x="683" d="M60 360q0 105 21.5 176.5t59 115.5 89 63.5T341 735t111.5-19.5T542 652t59.5-115.5T623 360t-21.5-176.5-59-115.5-89-63.5T341-15 228.5 4.5t-89 63.5T81 183.5 60 360zm153 0q0-76 9-127t25.5-81.5T288 108t53-13 53 13 41 44 26 82 9 126-10 126-27 82-41 44.5-51 13.5-50.5-13-41-44-27-82-9.5-127z"/><glyph glyph-name="P" unicode="P" horiz-adv-x="578" d="M273 720q56 0 106-9.5t87.5-35.5 59.5-72.5T548 482t-22.5-120.5T466 289t-86-35.5-101-9.5h-49V0H80v720h193zm-43-107V351h51q19 0 39 5t36 19 26 39.5 10 67.5-9.5 67.5-26 39.5-37.5 19-44 5h-45z"/><glyph glyph-name="Q" unicode="Q" horiz-adv-x="683" d="M60 360q0 105 21.5 176.5t59 115.5 89 63.5T341 735t111.5-19.5T542 652t59.5-115.5T623 360q0-80-13.5-141.5T572 113t-58-71.5T440 2l158-12v-123L324-71v56q-57 3-105.5 24t-84 65.5-55 114.5T60 360zm153 0q0-76 9-127t25.5-81.5T288 108t53-13 53 13 41 44 26 82 9 126-10 126-27 82-41 44.5-51 13.5-50.5-13-41-44-27-82-9.5-127z"/><glyph glyph-name="R" unicode="R" horiz-adv-x="603" d="M419 0L278 267h-48V0H80v720h198q57 0 106-11.5t85-38 56.5-69.5T546 494q0-41-9.5-72.5t-26-55-39.5-40-50-28.5L593 0H419zM230 612V374h56q18 0 36.5 6t33.5 19.5 24.5 36.5 9.5 58q0 37-9 60.5t-24.5 36-35.5 17-41 4.5h-50z"/><glyph glyph-name="S" unicode="S" horiz-adv-x="587" d="M292 629q-36 0-62.5-17.5T203 553q0-14 3-26.5t13.5-25T251 476t58-27q47-18 88.5-39t72.5-49.5 49-65.5 18-88q0-44-13.5-84T480 52.5t-77.5-49T287-15q-65 0-110 18.5T103 49t-44 58-19 56l141 20q2-17 10.5-33.5t22.5-29 33.5-20T290 93q16 0 33 4.5t31 15 22.5 27.5 8.5 43q0 29-13 48.5T336 266t-55 28.5-71 31.5q-45 20-75 42t-48.5 47.5-26.5 55-8 65.5q0 44 16.5 80.5t47.5 63 76.5 41T296 735q59 0 100.5-16t68.5-40.5 42-54 21-55.5l-139-25q-5 33-30 59t-67 26z"/><glyph glyph-name="T" unicode="T" horiz-adv-x="544" d="M524 602H346V0H196v602H20v118h504V602z"/><glyph glyph-name="U" unicode="U" horiz-adv-x="643" d="M225 720V214q0-38 9-61t23-36 32-17.5 35-4.5 35 4.5 32.5 17.5 23.5 36 9 61v506h144V223q0-118-62-178T323-15 138.5 45 75 223v497h150z"/><glyph glyph-name="V" unicode="V" horiz-adv-x="585" d="M575 720L386 0H197L10 720h157l129-594 133 594h146z"/><glyph glyph-name="W" unicode="W" horiz-adv-x="828" d="M803 720L693 0H502l-89 564L322 0H135L25 720h152l64-568 85 568h185l84-566 74 566h134z"/><glyph glyph-name="X" unicode="X" horiz-adv-x="607" d="M384 391L587 0H410L294 245 171 0H20l206 374L38 720h174l104-211 113 211h142z"/><glyph glyph-name="Y" unicode="Y" horiz-adv-x="562" d="M557 720L353 288V0H213v288L5 720h162l120-289 130 289h140z"/><glyph glyph-name="Z" unicode="Z" horiz-adv-x="555" d="M208 109h287V0H45v117l296 494H68v109h437V606z"/><glyph glyph-name="bracketleft" unicode="[" horiz-adv-x="340" d="M293-170H55v980h238V707H188V-67h105v-103z"/><glyph glyph-name="backslash" unicode="\" horiz-adv-x="340" d="M11 730h133L329-90H196z"/><glyph glyph-name="bracketright" unicode="]" horiz-adv-x="340" d="M47-67h105v774H47v103h238v-980H47v103z"/><glyph glyph-name="asciicircum" unicode="^" horiz-adv-x="500" d="M187 720h130l153-320H340l-88 223-92-223H30z"/><glyph glyph-name="underscore" unicode="_" horiz-adv-x="500" d="M-2-150v118h504v-118H-2z"/><glyph glyph-name="grave" unicode="`" horiz-adv-x="317" d="M287 598H182L30 735h157z"/><glyph glyph-name="a" unicode="a" horiz-adv-x="545" d="M386 0l-31 58q-21-29-56.5-48.5T208-10q-27 0-56.5 9T97 28 56 80t-16 78q0 41 16 72.5t43.5 54T163 320t77 18l95 13v33q0 78-67 78-28 0-48.5-16.5T194 394L59 414q8 25 23.5 50.5T124 510t63.5 32.5T278 555q94 0 145.5-45T475 366V0h-89zM262 89q36 0 73 25v154l-57-9q-45-8-72-27t-27-59q0-26 7.5-42.5T206 105t27-12.5 29-3.5z"/><glyph glyph-name="b" unicode="b" horiz-adv-x="558" d="M70 0v735h140V499q24 26 55.5 41t76.5 15q30 0 59-12t52-43.5 37.5-86T505 274q0-149-49-216.5T313-10q-43 0-72.5 16.5T193 49L155 0H70zm214 449q-22 0-40-8.5T210 418V109q26-23 62-23 23 0 40.5 7t29 28 17.5 58.5 6 99.5q0 54-7 87.5T340 418t-25.5 24.5T284 449z"/><glyph glyph-name="c" unicode="c" horiz-adv-x="528" d="M280 457q-15 0-29.5-6T224 425.5t-19-56-7-97.5 8-97 20-55.5T253 94t29-6q19 0 32.5 8t22 21 13 30.5T356 184l138-16q-6-32-20-63.5t-39.5-57T371 6t-91-16q-45 0-86 13t-72.5 45.5-50 87.5T53 275q0 77 17 130.5t47.5 86.5 72 48 89.5 15q57 0 95.5-16.5T437 496t36-57 15-59l-133-20q-4 97-75 97z"/><glyph glyph-name="d" unicode="d" horiz-adv-x="563" d="M53 271q0 149 49 216.5T245 555q36 0 62.5-11.5T353 513v222h140V0h-88l-38 66q-25-35-61-55.5T216-10q-30 0-59 12t-52 43.5-37.5 86T53 271zM274 96q23 0 42.5 9.5T353 129v306q-14 11-30.5 17.5T286 459q-23 0-40.5-7t-29-28-17.5-59-6-99q0-54 6.5-87.5t18-51.5 26-24.5T274 96z"/><glyph glyph-name="e" unicode="e" horiz-adv-x="546" d="M287 91q34 0 53.5 19t25.5 48l127-20q-8-27-24-53.5T427 37 364.5 3 279-10q-46 0-87 15t-72 48-49 86.5T53 270q0 79 17.5 133.5t48.5 88 72 48.5 88 15q64 0 106-21.5t67.5-63.5 36-102.5T499 229H196q3-42 11.5-69t20.5-42.5 27-21 32-5.5zm-4 374q-17 0-32-5t-27-20.5-20-44-10-74.5h174q-1 42-7.5 70t-18 44.5-26.5 23-33 6.5z"/><glyph glyph-name="f" unicode="f" horiz-adv-x="352" d="M372 629q-19 5-38 7.5t-34 2.5q-35 0-50-14t-15-49v-36h111V440H235V0H95v440H15v100h80v30q0 47 12 80.5t33.5 54.5 51.5 30.5 66 9.5q37 0 65.5-5t48.5-10V629z"/><glyph glyph-name="g" unicode="g" horiz-adv-x="542" d="M519 506l-103 7q33-23 53.5-60.5T490 363q0-42-17-76.5t-47-59-70.5-37.5-86.5-13-89 13q-5-17-5-25 0-19 21.5-27.5T279 125q119-8 177.5-45T515-40q0-78-65.5-120T263-202q-109 0-164 37T44-65q0 35 17.5 60.5T109 41q-35 29-35 80 0 61 53 93-35 22-57.5 58.5T47 363t19 90.5 50 59 71.5 32.5 83.5 10q18 0 36-3v38l212 24V506zM185 363q0-29 9-47.5t21.5-29.5 27-15 26.5-4 26 4 27 14.5 21.5 29T352 363q0 28-7 47.5T326.5 442 300 459.5t-31 5.5-31-5-27-16.5-19-31-7-49.5zM251 0q-22 2-40.5 4T175 11q-5-11-8.5-22.5T163-35q0-85 104-85 54 0 79 16.5T371-58t-27 41-93 17z"/><glyph glyph-name="h" unicode="h" horiz-adv-x="583" d="M70 735h140V495q25 29 58 44.5t78 15.5q37 0 67.5-11t52.5-34.5 34.5-60.5 12.5-89V0H373v364q0 45-15.5 67T297 453q-26 0-47.5-11.5T210 413V0H70v735z"/><glyph glyph-name="i" unicode="i" horiz-adv-x="280" d="M64 610v125h152V610H64zM70 0v540h140V0H70z"/><glyph glyph-name="j" unicode="j" horiz-adv-x="282" d="M63 610v125h152V610H63zM-45-50q13-3 29.5-5.5T13-58q29 0 43 12T70-1v541h140V-4q0-79-42.5-120T49-165q-23 0-49.5 4.5T-45-150v100z"/><glyph glyph-name="k" unicode="k" horiz-adv-x="557" d="M70 0v735h140V333l159 207h150L334 314 547 0H380L210 262V0H70z"/><glyph glyph-name="l" unicode="l" horiz-adv-x="280" d="M70 735h140V0H70v735z"/><glyph glyph-name="m" unicode="m" horiz-adv-x="860" d="M70 0v540h95l30-65q24 38 58.5 59t85.5 21q48 0 83.5-19.5T478 474q26 38 63.5 59.5T630 555q74 0 117-45.5T790 360V0H650v364q0 45-12 67t-57 22q-24 0-45-14t-40-34q3-21 3-45V0H359v364q0 45-12 67t-57 22q-23 0-43-12t-37-31V0H70z"/><glyph glyph-name="n" unicode="n" horiz-adv-x="582" d="M70 0v540h95l30-63q26 37 62.5 57.5T345 555q37 0 67.5-11t52.5-34.5 34.5-60.5 12.5-89V0H372v364q0 45-15.5 67T296 453q-26 0-47-11t-39-28V0H70z"/><glyph glyph-name="o" unicode="o" horiz-adv-x="585" d="M53 270q0 83 21 138t55 87.5 77 46 87 13.5 87-13 76.5-45.5T511 409t21-139-21-138-54.5-85.5-76.5-44T293-10 206 2.5 129 47t-55 86-21 137zm144 0q0-57 6.5-92.5t19.5-56T253.5 94t40.5-7q22 0 40 7t30 27 18.5 55.5T389 270t-6.5 94.5-19 57.5-30.5 28.5-40 7.5q-23 0-40.5-8t-30-29-19-57.5T197 270z"/><glyph glyph-name="p" unicode="p" horiz-adv-x="563" d="M70-170v710h95l28-61q26 35 63 55.5t91 20.5q30 0 59-12t52-43.5 37.5-86T510 274q0-149-49-216.5T318-10q-37 0-63.5 11.5T210 33v-203H70zm219 619q-24 0-43-10t-36-26V114q14-12 30-20t37-8q23 0 40.5 7t29 28 17.5 58.5 6 99.5q0 54-7 87.5T345 418t-25.5 24.5T289 449z"/><glyph glyph-name="q" unicode="q" horiz-adv-x="568" d="M53 271q0 149 49 216.5T245 555q51 0 81.5-17t47.5-43l39 45h85v-710H358V57q-26-31-60-49t-82-18q-30 0-59 12t-52 43.5-37.5 86T53 271zM274 96q24 0 45 10.5t39 26.5v299q-15 11-32.5 19t-39.5 8q-23 0-40.5-7t-29-28-17.5-59-6-99q0-54 6.5-87.5t18-51.5 26-24.5T274 96z"/><glyph glyph-name="r" unicode="r" horiz-adv-x="357" d="M70 0v540h95l30-77q20 42 49 64.5t64 22.5q21 0 34-4V410q-9 3-19 4.5t-24 1.5q-27 0-49.5-17.5T210 354V0H70z"/><glyph glyph-name="s" unicode="s" horiz-adv-x="514" d="M251-10q-47 0-84.5 12.5t-64 32.5-43 46T38 133l135 27q5-33 26.5-52T253 89t51 13.5 19 41.5q0 15-6.5 25.5t-20 19T263 204t-48 16q-37 11-66.5 24.5T98 278t-32 47.5T55 392q0 41 15 71.5t42 51 64.5 30.5 82.5 10q48 0 83.5-12.5T402 510t38.5-44.5T461 417l-131-26q-5 28-21 47t-51 19q-28 0-45.5-13.5T195 403q0-17 7.5-27.5t20-17.5 30.5-12.5 39-12.5q34-11 65.5-23t55-30 37.5-45.5 14-70.5q0-45-16-78t-44.5-54T336 .5 251-10z"/><glyph glyph-name="t" unicode="t" horiz-adv-x="365" d="M340 5q-19-5-43.5-8.5T249-7q-34 0-62 9t-48.5 28-32 49T95 151v289H15v100h81l9 130h130V540h104V440H235V146q0-16 5-25.5t12.5-15 17-7.5 18.5-2q11 0 26 2t26 4V5z"/><glyph glyph-name="u" unicode="u" horiz-adv-x="575" d="M210 540V184q0-45 14-68.5T283 92q25 0 45 11t37 28v409h140V0h-95l-31 65q-23-35-58.5-55T234-10q-74 0-119 48T70 190v350h140z"/><glyph glyph-name="v" unicode="v" horiz-adv-x="512" d="M507 540L347 0H165L5 540h151l106-427 103 427h142z"/><glyph glyph-name="w" unicode="w" horiz-adv-x="788" d="M773 540L648 0H469l-74 400L307 0H133L15 540h142l70-425 86 425h174l73-423 84 423h129z"/><glyph glyph-name="x" unicode="x" horiz-adv-x="541" d="M347 299L526 0H359l-99 182L160 0H15l172 286L28 540h162l85-143 81 143h137z"/><glyph glyph-name="y" unicode="y" horiz-adv-x="511" d="M340-15q-12-39-26-67.5t-34-47-48.5-27T162-165q-20 0-46 3.5T72-153v100q18-5 38-7t31-2q36 0 52 13.5T214 0h-46L5 540h147l102-428 116 428h136z"/><glyph glyph-name="z" unicode="z" horiz-adv-x="495" d="M201 106h239V0H35v117l253 317H54v106h396V423z"/><glyph glyph-name="braceleft" unicode="{" horiz-adv-x="340" d="M22 378q36 0 52.5 23T91 466v157q0 62 14.5 99t42.5 56.5 68.5 25.5 93.5 6v-98q-22 0-38.5-2.5t-27.5-11-16.5-24T222 633V468q0-35-5.5-60T200 366t-27-28-37-18q42-14 64-46.5T222 172V7q0-26 5.5-41.5t16.5-24 27.5-11T310-72v-98q-53 0-93.5 6T148-138.5 105.5-82 91 17v157q0 42-16.5 65.5T22 263v115z"/><glyph glyph-name="bar" unicode="|" horiz-adv-x="320" d="M226 800v-920H94v920h132z"/><glyph glyph-name="braceright" unicode="}" horiz-adv-x="340" d="M318 263q-36 0-52.5-23.5T249 174V17q0-62-14.5-99T192-138.5 123-164t-93-6v98q22 0 38.5 2.5t27.5 11 16.5 24T118 7v165q0 69 22 101.5t64 46.5q-21 7-37 18t-27 28-16.5 42-5.5 60v165q0 26-5.5 41.5t-16.5 24-27.5 11T30 712v98q52 0 93-6t69-25.5 42.5-56.5 14.5-99V466q0-42 16.5-65t52.5-23V263z"/><glyph glyph-name="asciitilde" unicode="~" d="M174 290q-36 0-61.5-12T65 247v118q19 15 52 27.5t68 12.5q31 0 54-8.5t43-18 39.5-18T365 352q36 0 62 12t48 31V277q-19-15-52-27.5T355 237q-31 0-54 8.5t-43.5 18-40 18T174 290z"/><glyph glyph-name="uni00A0" horiz-adv-x="0"/><glyph glyph-name="exclamdown" unicode="¡" horiz-adv-x="270" d="M210 540V400H60v140h150zm-17-240l15-480H62l15 480h116z"/><glyph glyph-name="cent" unicode="¢" d="M232-6q-36 6-68 24t-56 51-38 83.5T56 275q0 66 13 115t36.5 82.5T161 525t71 26v119h102V550q42-8 70.5-26t46.5-42 27.5-50.5T491 380l-133-20q-4 97-75 97-15 0-29.5-6T227 425.5t-19-56-7-97.5 8-97 20-55.5T256 94t29-6q19 0 32.5 8t22 21 13 30.5T359 184l138-16q-5-28-16.5-55.5t-31-51.5-48-41.5T334-5v-110H232V-6z"/><glyph glyph-name="sterling" unicode="£" d="M457 329H271V219q0-42-14.5-67.5T216 110h276V0H40v110h4q38 2 60 29t22 69v121H50v105h76v38q0 238 205 238 73 0 121-39.5T515 570l-130-24q-9 32-21 45.5T330 605q-14 0-24.5-5.5T287 579t-12-41-4-66v-38h186V329z"/><glyph glyph-name="currency" unicode="¤" horiz-adv-x="600" d="M94 206q-14 26-22 59t-8 75q0 80 28 132l-64 64 74 74 58-58q32 23 68 33t71 10 71.5-10.5T439 551l59 59 74-74-66-66q13-26 20-58.5t7-71.5q0-80-29-133l68-67-74-74-64 63q-31-20-66-29.5T299 90t-69 9-66 29l-62-62-74 74zm96 134q0-45 10.5-74.5t26.5-47 35.5-24.5 37.5-7 37.5 7 35 24.5 25.5 47 10 74.5-10.5 75-26.5 48-35 26-37 8-37-8-35-26-26.5-48-10.5-75z"/><glyph glyph-name="yen" unicode="¥" d="M202 0v120H82v93h120v64H82v93h83L19 700h154l103-287 109 287h136L377 370h85v-93H342v-64h120v-93H342V0H202z"/><glyph glyph-name="brokenbar" unicode="¦" horiz-adv-x="320" d="M226 800V410H94v390h132zm0-530v-390H94v390h132z"/><glyph glyph-name="section" unicode="§" d="M480 319q0-45-19-77.5T410 188q26-20 40-49.5T464 63q0-79-55.5-121T263-100q-43 0-76.5 11.5t-58 29.5T88-17.5 64 30l128 26q5-28 24-44.5T264-5q28 0 45.5 15T327 52q0 17-6.5 28T302 99t-29 14-38 13q-35 11-66.5 22.5T113 178t-38.5 44.5T60 291q0 45 19 77t50 54q-26 20-39.5 49.5T76 547q0 41 17.5 71.5t46 51 65 30.5 74.5 10q45 0 79-11.5t58-29.5 39-41.5 23-47.5l-128-26q-5 28-24 44.5T278 615q-28 0-46.5-15T213 558q0-33 25-47t67-28q34-11 66-23t56-29.5 38.5-44T480 319zm-141-20q0 16-7.5 27.5t-21 20-32.5 15-42 13.5q-16-12-25.5-29.5T201 311t7.5-28.5 21-19.5 33-14.5T306 235q17 12 25 29t8 35z"/><glyph glyph-name="dieresis" unicode="¨" horiz-adv-x="419" d="M30 610v115h132V610H30zm227 0v115h132V610H257z"/><glyph glyph-name="copyright" unicode="©" horiz-adv-x="843" d="M427 228q25 0 37.5 16t13.5 41l91-9q-2-18-10.5-39t-26-39-44.5-30.5-65-12.5q-32 0-60 9.5t-49.5 33-34 63.5T267 361q0 62 12.5 102t34.5 63 51.5 32 62.5 9q35 0 60-12t41.5-29.5 25-38T565 451l-90-9q-2 23-12.5 38T427 495q-12 0-22.5-5.5t-18.5-20-12.5-40.5-4.5-68q0-40 5-65.5t13-40.5 18.5-21 21.5-6zM173 360q0-81 20.5-135.5t55-87T328 91t93-14 92.5 14 79 46.5 55.5 87T669 360t-21 135.5-55.5 87-79 46.5-92.5 14-93-14-79.5-46.5-55-87T173 360zm610 0q0-101-32-172.5T668 71 552 5.5 421-15 290 5.5 174 71 91 187.5 59 360t32 172.5T174 649t116 65.5T421 735t131-20.5T668 649t83-116.5T783 360z"/><glyph glyph-name="ordfeminine" unicode="ª" horiz-adv-x="500" d="M339 318l-28 48q-19-24-49-39t-72-15q-25 0-48.5 6.5t-41.5 21-29 37T60 432q0 65 45 96t119 39l74 9v30q0 26-14.5 38.5T249 657q-17 0-32.5-9T193 614L82 629q6 20 19.5 39t34.5 34 50.5 24 67.5 9q73 0 119.5-34.5T420 593V318h-81zM80 0v115h360V0H80zm155 392q31 0 63 18v105l-48-6q-13-2-25.5-5.5t-22-11T187 474t-6-28q0-32 17-43t37-11z"/><glyph glyph-name="guillemotleft" unicode="«" d="M40 326l135 205h100l-92-208 82-222H165zm215 0l135 205h100l-92-208 82-222H380z"/><glyph glyph-name="logicalnot" unicode="¬" d="M356 141v120H65v120h410V141H356z"/><glyph glyph-name="uni00AD" unicode="­" horiz-adv-x="405" d="M50 261v121h305V261H50z"/><glyph glyph-name="registered" unicode="®" horiz-adv-x="611" d="M541 493q0-68-21-114t-55-74.5-76.5-41T304 251t-84.5 12.5-76.5 41T88 379 67 493q0 67 21 113.5t55 75 76.5 41T304 735t84.5-12.5 76.5-41 55-75T541 493zm-395 0q0-53 13.5-87t35.5-54.5 50.5-28.5 58.5-8 58.5 8 50.5 28.5 35.5 54.5 13.5 87q0 52-13.5 86.5t-35.5 55-50.5 28.5-58.5 8-58.5-8-50.5-28.5-35.5-55T146 493zm191-120l-44 89h-12v-89h-62v255h80q48 0 73.5-20t25.5-62q0-53-44-73l56-100h-73zm-56 207v-69h20q32 0 32 35 0 34-34 34h-18z"/><glyph glyph-name="macron" unicode="¯" horiz-adv-x="360" d="M30 634v101h300V634H30z"/><glyph glyph-name="degree" unicode="°" horiz-adv-x="355" d="M30 566q0 72 41 108t107 36 106.5-36T325 566q0-35-11.5-61.5t-31-44.5-46.5-27-58-9-58 9-47 27-31.5 44.5T30 566zm101 0q0-40 14.5-54t32.5-14 32.5 14.5T225 566t-14.5 54.5T178 636t-32.5-15-14.5-55z"/><glyph glyph-name="plusminus" unicode="±" d="M206 262H65v118h141v141h128V380h141V262H334v-96H206v96zM65 0v120h410V0H65z"/><glyph glyph-name="twosuperior" unicode="²" horiz-adv-x="380" d="M192 728q-18 0-29-12t-15-31l-102 9q4 19 14.5 40T89 771.5t43.5 27.5 60.5 11q27 0 52-7t44.5-21 31.5-36.5 12-53.5q0-38-13-62t-42-51l-77-71h128v-88H55v88l133 118q17 15 27 29.5t10 37.5q0 16-8.5 25.5T192 728z"/><glyph glyph-name="threesuperior" unicode="³" horiz-adv-x="380" d="M187 494q18 0 29 12.5t11 32.5q0 26-13.5 36T177 585h-20v74h25q13 0 25.5 8t12.5 29q0 18-10 26.5t-25 8.5q-17 0-27-10.5T143 696l-100 9q14 51 55.5 78t95.5 27q21 0 44-5t42-16.5 31-31.5 12-50q0-26-13.5-48.5T258 627q32-5 55-29t23-66q0-29-12.5-51T291 444t-45.5-22.5T193 414q-33 0-58.5 9t-44 23.5-29.5 33T46 518l100 9q4-14 13.5-23.5T187 494z"/><glyph glyph-name="acute" unicode="´" horiz-adv-x="317" d="M130 735h157L135 598H30z"/><glyph glyph-name="uni00B5" unicode="µ" horiz-adv-x="575" d="M210 540V181q0-45 13.5-67T282 92q24 0 44.5 6.5T365 116v424h140V0h-95l-25 52q-19-29-44.5-45.5T273-10q-28 0-63 11v-171H70v710h140z"/><glyph glyph-name="paragraph" unicode="¶" horiz-adv-x="550" d="M327 700V0H211v375q-19 0-48 3.5T106.5 398t-47 48.5T40 537q0 55 19.5 87t47 49 56.5 22 48 5h116zm163 0V0H374v700h116z"/><glyph glyph-name="periodcentered" unicode="·" horiz-adv-x="315" d="M85 255v135h145V255H85z"/><glyph glyph-name="cedilla" unicode="¸" horiz-adv-x="305" d="M275-142q0-52-33.5-81T141-252q-31 0-59.5 9T30-219l37 68q9-6 25-12t34-6q23 0 33 9.5t10 21.5q0 21-20 31T93-93l40 153h82L203-51q38-11 55-36t17-55z"/><glyph glyph-name="onesuperior" unicode="¹" horiz-adv-x="380" d="M63 420v80h89v209l-96-55v91l92 55h105V500h70v-80H63z"/><glyph glyph-name="ordmasculine" unicode="º" horiz-adv-x="495" d="M60 521q0 62 16 103.5t42.5 66T179 725t69 10 68.5-10 60-34.5T419 625t16-104-16-103.5-42.5-64.5-60-33-68.5-9-69 9.5-60.5 33.5T76 418.5 60 521zm125 0q0-41 4.5-66.5t13-39.5 20.5-19.5 26-5.5 25.5 5.5T294 415t12.5 39.5T311 521q0 40-4.5 66t-13 41-20 20.5T248 654t-26-5.5-20-20.5-12.5-41-4.5-66zM77 0v115h348V0H77z"/><glyph glyph-name="guillemotright" unicode="»" d="M375 101H275l82 222-92 208h100l135-205zm-215 0H60l82 222-92 208h100l135-205z"/><glyph glyph-name="onequarter" unicode="¼" horiz-adv-x="870" d="M64 321v80h89v209l-96-55v91l92 55h105V401h70v-80H64zm702-80v-87h46V72h-46V1h-99v71H513v86l84 223h102l-79-227h53l11 87h82zM295-100H172l448 910h122z"/><glyph glyph-name="onehalf" unicode="½" horiz-adv-x="870" d="M679 309q-18 0-29-12t-15-31l-102 9q4 19 14.5 40t28.5 37.5 43.5 27.5 60.5 11q27 0 52-7t44.5-21 31.5-36.5 12-53.5q0-38-13-62t-42-51l-77-71h128V1H542v88l133 118q17 15 27 29.5t10 37.5q0 16-8.5 25.5T679 309zM287-100H164l448 910h122zM57 321v80h89v209l-96-55v91l92 55h105V401h70v-80H57z"/><glyph glyph-name="threequarters" unicode="¾" horiz-adv-x="870" d="M205 395q18 0 29 12.5t11 32.5q0 26-13.5 36T195 486h-20v74h25q13 0 25.5 8t12.5 29q0 18-10 26.5t-25 8.5q-17 0-27-10.5T161 597l-100 9q14 51 55.5 78t95.5 27q21 0 44-5t42-16.5 31-31.5 12-50q0-26-13.5-48.5T276 528q32-5 55-29t23-66q0-29-12.5-51T309 345t-45.5-22.5T211 315q-33 0-58.5 9t-44 23.5-29.5 33T64 419l100 9q4-14 13.5-23.5T205 395zm87-495H169l448 910h122zm471 341v-87h46V72h-46V1h-99v71H510v86l84 223h102l-79-227h53l11 87h82z"/><glyph glyph-name="questiondown" unicode="¿" horiz-adv-x="520" d="M328 540V400H178v140h150zM258-92q30 0 51.5 23.5T336-6l139-17q-9-32-25-62.5t-42.5-55T342-180t-93-15q-42 0-79 11t-64.5 33-44 56T45-15q0 51 21.5 85.5t48 61.5 48 51 21.5 54v63h139v-92q0-25-10-45.5T288.5 124t-32-34-32-32.5T200 23t-10-40q0-42 20.5-58.5T258-92z"/><glyph glyph-name="Agrave" unicode="À" horiz-adv-x="626" d="M462 0l-44 167H196L152 0H5l221 720h171L621 0H462zM224 269h167l-83 315zm192 499H309L179 885h152z"/><glyph glyph-name="Aacute" unicode="Á" horiz-adv-x="626" d="M462 0l-44 167H196L152 0H5l221 720h171L621 0H462zM224 269h167l-83 315zm48 616h152L294 768H187z"/><glyph glyph-name="Acircumflex" unicode="Â" horiz-adv-x="626" d="M462 0l-44 167H196L152 0H5l221 720h171L621 0H462zM224 269h167l-83 315zm287 499H381l-58 50-57-50H135l120 117h136z"/><glyph glyph-name="Atilde" unicode="Ã" horiz-adv-x="626" d="M462 0l-44 167H196L152 0H5l221 720h171L621 0H462zM224 269h167l-83 315zm150 489q-24 0-41 6t-31 13-27.5 13-30.5 6-41.5-9.5T156 760v100q22 16 46.5 24.5T248 893q24 0 41-6t31-13 27.5-13 30.5-6 41.5 9.5T466 891V791q-22-16-46.5-24.5T374 758z"/><glyph glyph-name="Adieresis" unicode="Ä" horiz-adv-x="626" d="M462 0l-44 167H196L152 0H5l221 720h171L621 0H462zM224 269h167l-83 315zm-90 503v108h132V772H134zm227 0v108h132V772H361z"/><glyph glyph-name="Aring" unicode="Å" horiz-adv-x="626" d="M182 811q0 57 35 88t98 31 97.5-31 34.5-88q0-32-13-56t-36-39L621 0H462l-44 167H196L152 0H5l220 716q-43 31-43 95zm42-542h167l-83 315zm56 542q0-23 10-34.5t25-11.5q16 0 25.5 11t9.5 35-10 36-25 12-25-12.5-10-35.5z"/><glyph glyph-name="AE" unicode="Æ" horiz-adv-x="869" d="M769 309H536l41-196h242V0H453l-32 167H201L146 0H5l259 720h525V605H474l39-188h256V309zm-535-40h168l-60 325z"/><glyph glyph-name="Ccedilla" unicode="Ç" horiz-adv-x="603" d="M452-142q0-52-35-81.5T315-253q-31 0-59.5 9T204-220l37 71q9-6 25-12t34-6q23 0 32 8.5t9 20.5q0 21-19 30.5T267-94l21 81q-44 5-85 24.5T130 74 79 186.5 60 360q0 112 23.5 185T145 660t87.5 58.5T333 735q55 0 95.5-18.5T497 669t43.5-65 21.5-71l-139-17q-4 24-10.5 44T395 595t-27 23.5-38 8.5q-23 0-43-12t-36-42-25-82-9-131q0-80 8.5-131.5t23-81.5 34.5-41.5T327 94q45 0 70.5 33t29.5 85l141-15q-4-29-16-61.5T518 74t-55-51-79-31l-4-43q38-11 55-36t17-55z"/><glyph glyph-name="Egrave" unicode="È" horiz-adv-x="515" d="M435 309H230V113h235V0H80v720h385V605H230V417h205V309zm-90 459H238L108 885h152z"/><glyph glyph-name="Eacute" unicode="É" horiz-adv-x="515" d="M435 309H230V113h235V0H80v720h385V605H230V417h205V309zM253 888h152L275 771H168z"/><glyph glyph-name="Ecircumflex" unicode="Ê" horiz-adv-x="518" d="M435 309H230V113h235V0H80v720h385V605H230V417h205V309zm33 459H338l-58 50-57-50H92l120 117h136z"/><glyph glyph-name="Edieresis" unicode="Ë" horiz-adv-x="515" d="M435 309H230V113h235V0H80v720h385V605H230V417h205V309zM94 772v108h132V772H94zm227 0v108h132V772H321z"/><glyph glyph-name="Igrave" unicode="Ì" horiz-adv-x="310" d="M230 720V0H80v720h150zm20 48H143L13 885h152z"/><glyph glyph-name="Iacute" unicode="Í" horiz-adv-x="310" d="M230 720V0H80v720h150zm-97 165h152L155 768H48z"/><glyph glyph-name="Icircumflex" unicode="Î" horiz-adv-x="310" d="M230 720V0H80v720h150zm114 48H214l-58 50-57-50H-32L88 885h136z"/><glyph glyph-name="Idieresis" unicode="Ï" horiz-adv-x="310" d="M230 720V0H80v720h150zm-254 52v108h132V772H-24zm227 0v108h132V772H203z"/><glyph glyph-name="Eth" unicode="Ð" horiz-adv-x="656" d="M90 336H30v110h60v274h187q64 0 122-15.5t101.5-56 69.5-110T596 360t-26-178.5-69.5-110-101-56T279 0H90v336zm150 0V109h39q30 0 59.5 9.5t53 36.5 38 76T444 360q0 79-15 128.5t-38.5 77-53.5 37-60 9.5h-37V446h125V336H240z"/><glyph glyph-name="Ntilde" unicode="Ñ" horiz-adv-x="668" d="M588 720V0H410L206 523V0H80v720h191l192-516v516h125zm-189 42q-24 0-41 6t-31 13-27.5 13-30.5 6-41.5-9.5T181 764v100q22 16 46.5 24.5T273 897q24 0 41-6t31-13 27.5-13 30.5-6 41.5 9.5T491 895V795q-22-16-46.5-24.5T399 762z"/><glyph glyph-name="Ograve" unicode="Ò" horiz-adv-x="683" d="M60 360q0 105 21.5 176.5t59 115.5 89 63.5T341 735t111.5-19.5T542 652t59.5-115.5T623 360t-21.5-176.5-59-115.5-89-63.5T341-15 228.5 4.5t-89 63.5T81 183.5 60 360zm153 0q0-76 9-127t25.5-81.5T288 108t53-13 53 13 41 44 26 82 9 126-10 126-27 82-41 44.5-51 13.5-50.5-13-41-44-27-82-9.5-127zm187 408H293L163 885h152z"/><glyph glyph-name="Oacute" unicode="Ó" horiz-adv-x="683" d="M60 360q0 105 21.5 176.5t59 115.5 89 63.5T341 735t111.5-19.5T542 652t59.5-115.5T623 360t-21.5-176.5-59-115.5-89-63.5T341-15 228.5 4.5t-89 63.5T81 183.5 60 360zm153 0q0-76 9-127t25.5-81.5T288 108t53-13 53 13 41 44 26 82 9 126-10 126-27 82-41 44.5-51 13.5-50.5-13-41-44-27-82-9.5-127zm126 525h152L361 768H254z"/><glyph glyph-name="Ocircumflex" unicode="Ô" horiz-adv-x="683" d="M60 360q0 105 21.5 176.5t59 115.5 89 63.5T341 735t111.5-19.5T542 652t59.5-115.5T623 360t-21.5-176.5-59-115.5-89-63.5T341-15 228.5 4.5t-89 63.5T81 183.5 60 360zm153 0q0-76 9-127t25.5-81.5T288 108t53-13 53 13 41 44 26 82 9 126-10 126-27 82-41 44.5-51 13.5-50.5-13-41-44-27-82-9.5-127zm326 408H409l-58 50-57-50H163l120 117h136z"/><glyph glyph-name="Otilde" unicode="Õ" horiz-adv-x="683" d="M60 360q0 105 21.5 176.5t59 115.5 89 63.5T341 735t111.5-19.5T542 652t59.5-115.5T623 360t-21.5-176.5-59-115.5-89-63.5T341-15 228.5 4.5t-89 63.5T81 183.5 60 360zm153 0q0-76 9-127t25.5-81.5T288 108t53-13 53 13 41 44 26 82 9 126-10 126-27 82-41 44.5-51 13.5-50.5-13-41-44-27-82-9.5-127zm191 400q-24 0-41 6t-31 13-27.5 13-30.5 6-41.5-9.5T186 762v100q22 16 46.5 24.5T278 895q24 0 41-6t31-13 27.5-13 30.5-6 41.5 9.5T496 893V793q-22-16-46.5-24.5T404 760z"/><glyph glyph-name="Odieresis" unicode="Ö" horiz-adv-x="683" d="M60 360q0 105 21.5 176.5t59 115.5 89 63.5T341 735t111.5-19.5T542 652t59.5-115.5T623 360t-21.5-176.5-59-115.5-89-63.5T341-15 228.5 4.5t-89 63.5T81 183.5 60 360zm153 0q0-76 9-127t25.5-81.5T288 108t53-13 53 13 41 44 26 82 9 126-10 126-27 82-41 44.5-51 13.5-50.5-13-41-44-27-82-9.5-127zm-50 412v108h132V772H163zm227 0v108h132V772H390z"/><glyph glyph-name="multiply" unicode="×" d="M270 406l120 120 85-85-120-120 120-120-85-85-120 120-120-120-85 85 120 120L65 441l85 85z"/><glyph glyph-name="Oslash" unicode="Ø" horiz-adv-x="683" d="M60 360q0 105 21.5 176.5t59 115.5 89 63.5T341 735q40 0 76-9l35 94h115l-52-141q50-42 79-119t29-200q0-105-21.5-176.5T542.5 68t-89-63.5T341-15q-42 0-79 9l-36-96H111l53 145q-48 42-76 119T60 360zm410 0q0 60-6 102.5T447 536L289 107q22-12 52-12 29 0 53 13t41 44 26 82 9 126zm-257 0q0-57 5-97.5t14-71.5l157 423q-23 12-48 12-27 0-50.5-13t-41-44-27-82-9.5-127z"/><glyph glyph-name="Ugrave" unicode="Ù" horiz-adv-x="643" d="M225 720V214q0-38 9-61t23-36 32-17.5 35-4.5 35 4.5 32.5 17.5 23.5 36 9 61v506h144V223q0-118-62-178T323-15 138.5 45 75 223v497h150zm159 48H277L147 885h152z"/><glyph glyph-name="Uacute" unicode="Ú" horiz-adv-x="643" d="M225 720V214q0-38 9-61t23-36 32-17.5 35-4.5 35 4.5 32.5 17.5 23.5 36 9 61v506h144V223q0-118-62-178T323-15 138.5 45 75 223v497h150zm111 165h152L358 768H251z"/><glyph glyph-name="Ucircumflex" unicode="Û" horiz-adv-x="643" d="M225 720V214q0-38 9-61t23-36 32-17.5 35-4.5 35 4.5 32.5 17.5 23.5 36 9 61v506h144V223q0-118-62-178T323-15 138.5 45 75 223v497h150zm298 46H393l-58 50-57-50H147l120 117h136z"/><glyph glyph-name="Udieresis" unicode="Ü" horiz-adv-x="643" d="M225 720V214q0-38 9-61t23-36 32-17.5 35-4.5 35 4.5 32.5 17.5 23.5 36 9 61v506h144V223q0-118-62-178T323-15 138.5 45 75 223v497h150zm-80 52v108h132V772H145zm227 0v108h132V772H372z"/><glyph glyph-name="Yacute" unicode="Ý" horiz-adv-x="562" d="M557 720L353 288V0H213v288L5 720h162l120-289 130 289h140zM304 885h152L326 768H219z"/><glyph glyph-name="Thorn" unicode="Þ" horiz-adv-x="608" d="M230 720V610h43q56 0 106-9.5t87.5-35.5 59.5-72.5T548 372t-22.5-120.5T466 179t-86-35.5-101-9.5h-49V0H80v720h150zm0-217V241h51q19 0 39 5t36 19 26 39.5 10 67.5-9.5 67.5-26 39.5-37.5 19-44 5h-45z"/><glyph glyph-name="germandbls" unicode="ß" horiz-adv-x="612" d="M577 175q0-43-14-77t-39.5-58T463 3t-77-13q-33 0-58 7.5t-44 19T252 42t-21 27l82 74q10-17 25.5-31T380 98q27 0 44.5 18.5T442 169q0 16-3.5 28.5t-11.5 24-22.5 22.5-35.5 23q-17 10-33.5 21.5T306 315t-21 35-8 47q0 46 24.5 78.5T364 519q4 13 6.5 30.5T373 581q0 30-21 50.5T295 652t-60-21-24-79V0H70v533q0 105 61.5 158.5T295 745q40 0 76-11t63.5-32 44-52.5T495 577q0-50-24-105-32-5-51.5-16.5T400 417q0-11 3-19t12-16.5 25-18.5 42-25q51-29 73-70t22-93z"/><glyph glyph-name="agrave" unicode="à" horiz-adv-x="545" d="M386 0l-31 58q-21-29-56.5-48.5T208-10q-27 0-56.5 9T97 28 56 80t-16 78q0 41 16 72.5t43.5 54T163 320t77 18l95 13v33q0 78-67 78-28 0-48.5-16.5T194 394L59 414q8 25 23.5 50.5T124 510t63.5 32.5T278 555q94 0 145.5-45T475 366V0h-89zM262 89q36 0 73 25v154l-57-9q-45-8-72-27t-27-59q0-26 7.5-42.5T206 105t27-12.5 29-3.5zm111 509H268L116 735h157z"/><glyph glyph-name="aacute" unicode="á" horiz-adv-x="545" d="M386 0l-31 58q-21-29-56.5-48.5T208-10q-27 0-56.5 9T97 28 56 80t-16 78q0 41 16 72.5t43.5 54T163 320t77 18l95 13v33q0 78-67 78-28 0-48.5-16.5T194 394L59 414q8 25 23.5 50.5T124 510t63.5 32.5T278 555q94 0 145.5-45T475 366V0h-89zM262 89q36 0 73 25v154l-57-9q-45-8-72-27t-27-59q0-26 7.5-42.5T206 105t27-12.5 29-3.5zm25 646h157L292 598H187z"/><glyph glyph-name="acircumflex" unicode="â" horiz-adv-x="545" d="M386 0l-31 58q-21-29-56.5-48.5T208-10q-27 0-56.5 9T97 28 56 80t-16 78q0 41 16 72.5t43.5 54T163 320t77 18l95 13v33q0 78-67 78-28 0-48.5-16.5T194 394L59 414q8 25 23.5 50.5T124 510t63.5 32.5T278 555q94 0 145.5-45T475 366V0h-89zM262 89q36 0 73 25v154l-57-9q-45-8-72-27t-27-59q0-26 7.5-42.5T206 105t27-12.5 29-3.5zm192 509H332l-66 57-66-57H78l120 137h136z"/><glyph glyph-name="atilde" unicode="ã" horiz-adv-x="545" d="M386 0l-31 58q-21-29-56.5-48.5T208-10q-27 0-56.5 9T97 28 56 80t-16 78q0 41 16 72.5t43.5 54T163 320t77 18l95 13v33q0 78-67 78-28 0-48.5-16.5T194 394L59 414q8 25 23.5 50.5T124 510t63.5 32.5T278 555q94 0 145.5-45T475 366V0h-89zM262 89q36 0 73 25v154l-57-9q-45-8-72-27t-27-59q0-26 7.5-42.5T206 105t27-12.5 29-3.5zm69 523q-24 0-41 6t-31 13-27.5 13-30.5 6-41.5-9.5T113 614v100q22 16 46.5 24.5T205 747q24 0 41-6t31-13 27.5-13 30.5-6 41.5 9.5T423 745V645q-22-16-46.5-24.5T331 612z"/><glyph glyph-name="adieresis" unicode="ä" horiz-adv-x="545" d="M386 0l-31 58q-21-29-56.5-48.5T208-10q-27 0-56.5 9T97 28 56 80t-16 78q0 41 16 72.5t43.5 54T163 320t77 18l95 13v33q0 78-67 78-28 0-48.5-16.5T194 394L59 414q8 25 23.5 50.5T124 510t63.5 32.5T278 555q94 0 145.5-45T475 366V0h-89zM262 89q36 0 73 25v154l-57-9q-45-8-72-27t-27-59q0-26 7.5-42.5T206 105t27-12.5 29-3.5zM89 610v115h132V610H89zm227 0v115h132V610H316z"/><glyph glyph-name="aring" unicode="å" horiz-adv-x="545" d="M386 0l-31 58q-21-29-56.5-48.5T208-10q-27 0-56.5 9T97 28 56 80t-16 78q0 41 16 72.5t43.5 54T163 320t77 18l95 13v33q0 78-67 78-28 0-48.5-16.5T194 394L59 414q8 25 23.5 50.5T124 510t63.5 32.5T278 555q94 0 145.5-45T475 366V0h-89zM262 89q36 0 73 25v154l-57-9q-45-8-72-27t-27-59q0-26 7.5-42.5T206 105t27-12.5 29-3.5zM134 691q0 57 35 88t98 31 97.5-31 34.5-88-38-87-99-30-94.5 30-33.5 87zm98 0q0-23 10-34.5t25-11.5q16 0 25.5 11t9.5 35-10 36-25 12-25-12.5-10-35.5z"/><glyph glyph-name="ae" unicode="æ" horiz-adv-x="821" d="M562 91q34 0 53.5 19t25.5 48l127-20q-8-27-24-53.5T702 37 639.5 3 554-10q-54 0-94 20.5T393 76q-27-42-69-63T215-8q-32 0-63.5 9T95 29.5t-40 51T40 158q0 41 16 72.5t43.5 54T163 320t77 18l95 13v33q0 78-67 78-28 0-48.5-16.5T194 394L59 414q8 25 23 50.5t40.5 45.5 63.5 32.5 92 12.5q48 0 82-14.5t55-40.5q52 55 139 55 64 0 106-21.5t67.5-63.5 36-102.5T774 229H471q3-42 11.5-69t20.5-42.5 27-21 32-5.5zm-300 0q16 0 35 6t38 18v153l-57-9q-45-6-72-27t-27-59q0-26 7.5-42t19.5-25 27-12 29-3zm296 374q-17 0-32-5t-27-20.5-20-44-10-74.5h174q-1 42-7.5 70t-18 44.5-26.5 23-33 6.5z"/><glyph glyph-name="ccedilla" unicode="ç" horiz-adv-x="528" d="M396-142q0-52-33.5-81T262-252q-31 0-59.5 9T151-219l37 68q9-6 25-12t34-6q23 0 33 9.5t10 21.5q0 21-20 31t-56 14l22 86q-38 5-71 22t-58 50-39.5 84.5T53 275q0 77 17 130.5t47.5 86.5 72 48 89.5 15q57 0 95.5-16.5T437 496t36-57 15-59l-133-20q-4 97-75 97-15 0-29.5-6T224 425.5t-19-56-7-97.5 8-97 20-55.5T253 94t29-6q19 0 32.5 8t22 21 13 30.5T356 184l138-16q-5-28-16.5-56t-31-52T398 18.5 329-6l-5-45q38-11 55-36t17-55z"/><glyph glyph-name="egrave" unicode="è" horiz-adv-x="546" d="M287 91q34 0 53.5 19t25.5 48l127-20q-8-27-24-53.5T427 37 364.5 3 279-10q-46 0-87 15t-72 48-49 86.5T53 270q0 79 17.5 133.5t48.5 88 72 48.5 88 15q64 0 106-21.5t67.5-63.5 36-102.5T499 229H196q3-42 11.5-69t20.5-42.5 27-21 32-5.5zm-4 374q-17 0-32-5t-27-20.5-20-44-10-74.5h174q-1 42-7.5 70t-18 44.5-26.5 23-33 6.5zm86 133H264L112 735h157z"/><glyph glyph-name="eacute" unicode="é" horiz-adv-x="546" d="M287 91q34 0 53.5 19t25.5 48l127-20q-8-27-24-53.5T427 37 364.5 3 279-10q-46 0-87 15t-72 48-49 86.5T53 270q0 79 17.5 133.5t48.5 88 72 48.5 88 15q64 0 106-21.5t67.5-63.5 36-102.5T499 229H196q3-42 11.5-69t20.5-42.5 27-21 32-5.5zm-4 374q-17 0-32-5t-27-20.5-20-44-10-74.5h174q-1 42-7.5 70t-18 44.5-26.5 23-33 6.5zm4 270h157L292 598H187z"/><glyph glyph-name="ecircumflex" unicode="ê" horiz-adv-x="546" d="M287 91q34 0 53.5 19t25.5 48l127-20q-8-27-24-53.5T427 37 364.5 3 279-10q-46 0-87 15t-72 48-49 86.5T53 270q0 79 17.5 133.5t48.5 88 72 48.5 88 15q64 0 106-21.5t67.5-63.5 36-102.5T499 229H196q3-42 11.5-69t20.5-42.5 27-21 32-5.5zm-4 374q-17 0-32-5t-27-20.5-20-44-10-74.5h174q-1 42-7.5 70t-18 44.5-26.5 23-33 6.5zm188 133H349l-66 57-66-57H95l120 137h136z"/><glyph glyph-name="edieresis" unicode="ë" horiz-adv-x="546" d="M287 91q34 0 53.5 19t25.5 48l127-20q-8-27-24-53.5T427 37 364.5 3 279-10q-46 0-87 15t-72 48-49 86.5T53 270q0 79 17.5 133.5t48.5 88 72 48.5 88 15q64 0 106-21.5t67.5-63.5 36-102.5T499 229H196q3-42 11.5-69t20.5-42.5 27-21 32-5.5zm-4 374q-17 0-32-5t-27-20.5-20-44-10-74.5h174q-1 42-7.5 70t-18 44.5-26.5 23-33 6.5zM103 610v115h132V610H103zm227 0v115h132V610H330z"/><glyph glyph-name="igrave" unicode="ì" horiz-adv-x="280" d="M70 0v540h140V0H70zm174 598H139L-13 735h157z"/><glyph glyph-name="iacute" unicode="í" horiz-adv-x="280" d="M70 0v540h140V0H70zm66 735h157L141 598H36z"/><glyph glyph-name="icircumflex" unicode="î" horiz-adv-x="280" d="M329 598H207l-66 57-66-57H-47L73 735h136zM70 0v540h140V0H70z"/><glyph glyph-name="idieresis" unicode="ï" horiz-adv-x="280" d="M70 0v540h140V0H70zM-38 610v115H94V610H-38zm227 0v115h132V610H189z"/><glyph glyph-name="eth" unicode="ð" horiz-adv-x="546" d="M496 330q0-96-16-161T434.5 64 364 7t-91-17q-47 0-87 13.5T117 46t-45.5 76T55 236q0 118 49 177.5T234 473q37 0 63.5-11.5T344 431q-8 42-25 72t-40 53l-29-30H138l74 78q-26 13-54 22t-60 17l47 92q32-6 70.5-16t78.5-30l29 31h112l-71-74q28-22 52-51t42-68 28-87.5T496 330zm-222 35q-15 0-29-6.5T220.5 337t-17-40.5T197 232q0-47 7.5-75t19-43 25-19.5T274 90q14 0 27.5 6t24.5 30.5 18 73 8 134.5q-40 31-78 31z"/><glyph glyph-name="ntilde" unicode="ñ" horiz-adv-x="582" d="M70 0v540h95l30-63q26 37 62.5 57.5T345 555q37 0 67.5-11t52.5-34.5 34.5-60.5 12.5-89V0H372v364q0 45-15.5 67T296 453q-26 0-47-11t-39-28V0H70zm287 608q-24 0-41 6t-31 13-27.5 13-30.5 6-41.5-9.5T139 610v100q22 16 46.5 24.5T231 743q24 0 41-6t31-13 27.5-13 30.5-6 41.5 9.5T449 741V641q-22-16-46.5-24.5T357 608z"/><glyph glyph-name="ograve" unicode="ò" horiz-adv-x="585" d="M53 270q0 83 21 138t55 87.5 77 46 87 13.5 87-13 76.5-45.5T511 409t21-139-21-138-54.5-85.5-76.5-44T293-10 206 2.5 129 47t-55 86-21 137zm144 0q0-57 6.5-92.5t19.5-56T253.5 94t40.5-7q22 0 40 7t30 27 18.5 55.5T389 270t-6.5 94.5-19 57.5-30.5 28.5-40 7.5q-23 0-40.5-8t-30-29-19-57.5T197 270zm182 328H274L122 735h157z"/><glyph glyph-name="oacute" unicode="ó" horiz-adv-x="585" d="M53 270q0 83 21 138t55 87.5 77 46 87 13.5 87-13 76.5-45.5T511 409t21-139-21-138-54.5-85.5-76.5-44T293-10 206 2.5 129 47t-55 86-21 137zm144 0q0-57 6.5-92.5t19.5-56T253.5 94t40.5-7q22 0 40 7t30 27 18.5 55.5T389 270t-6.5 94.5-19 57.5-30.5 28.5-40 7.5q-23 0-40.5-8t-30-29-19-57.5T197 270zm118 465h157L320 598H215z"/><glyph glyph-name="ocircumflex" unicode="ô" horiz-adv-x="585" d="M53 270q0 83 21 138t55 87.5 77 46 87 13.5 87-13 76.5-45.5T511 409t21-139-21-138-54.5-85.5-76.5-44T293-10 206 2.5 129 47t-55 86-21 137zm144 0q0-57 6.5-92.5t19.5-56T253.5 94t40.5-7q22 0 40 7t30 27 18.5 55.5T389 270t-6.5 94.5-19 57.5-30.5 28.5-40 7.5q-23 0-40.5-8t-30-29-19-57.5T197 270zm285 328H360l-66 57-66-57H106l120 137h136z"/><glyph glyph-name="otilde" unicode="õ" horiz-adv-x="585" d="M53 270q0 83 21 138t55 87.5 77 46 87 13.5 87-13 76.5-45.5T511 409t21-139-21-138-54.5-85.5-76.5-44T293-10 206 2.5 129 47t-55 86-21 137zm144 0q0-57 6.5-92.5t19.5-56T253.5 94t40.5-7q22 0 40 7t30 27 18.5 55.5T389 270t-6.5 94.5-19 57.5-30.5 28.5-40 7.5q-23 0-40.5-8t-30-29-19-57.5T197 270zm162 340q-24 0-41 6t-31 13-27.5 13-30.5 6-41.5-9.5T141 612v100q22 16 46.5 24.5T233 745q24 0 41-6t31-13 27.5-13 30.5-6 41.5 9.5T451 743V643q-22-16-46.5-24.5T359 610z"/><glyph glyph-name="odieresis" unicode="ö" horiz-adv-x="585" d="M53 270q0 83 21 138t55 87.5 77 46 87 13.5 87-13 76.5-45.5T511 409t21-139-21-138-54.5-85.5-76.5-44T293-10 206 2.5 129 47t-55 86-21 137zm144 0q0-57 6.5-92.5t19.5-56T253.5 94t40.5-7q22 0 40 7t30 27 18.5 55.5T389 270t-6.5 94.5-19 57.5-30.5 28.5-40 7.5q-23 0-40.5-8t-30-29-19-57.5T197 270zm-83 340v115h132V610H114zm227 0v115h132V610H341z"/><glyph glyph-name="divide" unicode="÷" d="M198 51v135h145V51H198zm0 405v135h145V456H198zM65 261v120h410V261H65z"/><glyph glyph-name="oslash" unicode="ø" horiz-adv-x="585" d="M53 270q0 83 21 138t55 87.5 77 46 87 13.5q20 0 39.5-2.5T372 544l40 89h110l-63-139q33-33 53-86.5T532 270t-21-138-54.5-85.5-76.5-44T293-10q-40 0-67 7l-44-99H70l65 143q-37 32-59.5 86.5T53 270zm144 0q0-75 10-111l131 288q-20 11-45 11-23 0-40.5-8t-30-29-19-57.5T197 270zm192 0q0 31-1.5 55.5T382 367L257 92q17-5 37-5 22 0 40 7t30 27 18.5 55.5T389 270z"/><glyph glyph-name="ugrave" unicode="ù" horiz-adv-x="575" d="M210 540V184q0-45 14-68.5T283 92q25 0 45 11t37 28v409h140V0h-95l-31 65q-23-35-58.5-55T234-10q-74 0-119 48T70 190v350h140zm164 58H269L117 735h157z"/><glyph glyph-name="uacute" unicode="ú" horiz-adv-x="575" d="M210 540V184q0-45 14-68.5T283 92q25 0 45 11t37 28v409h140V0h-95l-31 65q-23-35-58.5-55T234-10q-74 0-119 48T70 190v350h140zm89 195h157L304 598H199z"/><glyph glyph-name="ucircumflex" unicode="û" horiz-adv-x="575" d="M210 540V184q0-45 14-68.5T283 92q25 0 45 11t37 28v409h140V0h-95l-31 65q-23-35-58.5-55T234-10q-74 0-119 48T70 190v350h140zm264 52H352l-66 57-66-57H98l120 137h136z"/><glyph glyph-name="udieresis" unicode="ü" horiz-adv-x="575" d="M210 540V184q0-45 14-68.5T283 92q25 0 45 11t37 28v409h140V0h-95l-31 65q-23-35-58.5-55T234-10q-74 0-119 48T70 190v350h140zm-100 70v115h132V610H110zm227 0v115h132V610H337z"/><glyph glyph-name="yacute" unicode="ý" horiz-adv-x="511" d="M340-15q-12-39-26-67.5t-34-47-48.5-27T162-165q-20 0-46 3.5T72-153v100q18-5 38-7t31-2q36 0 52 13.5T214 0h-46L5 540h147l102-428 116 428h136zm-52 750h157L293 598H188z"/><glyph glyph-name="thorn" unicode="þ" horiz-adv-x="563" d="M70-170v905h140V499q25 26 58.5 41t78.5 15q30 0 59-12t52-43.5 37.5-86T510 274q0-149-49-216.5T318-10q-37 0-63.5 11T210 30v-200H70zm219 619q-24 0-43-10t-36-26V110q14-11 30-17.5t37-6.5q23 0 40.5 7t29 28 17.5 58.5 6 99.5q0 54-7 87.5T345 418t-25.5 24.5T289 449z"/><glyph glyph-name="ydieresis" unicode="ÿ" horiz-adv-x="511" d="M340-15q-12-39-26-67.5t-34-47-48.5-27T162-165q-20 0-46 3.5T72-153v100q18-5 38-7t31-2q36 0 52 13.5T214 0h-46L5 540h147l102-428 116 428h136zM80 610v115h132V610H80zm227 0v115h132V610H307z"/><glyph glyph-name="Amacron" unicode="Ā" horiz-adv-x="626" d="M462 0l-44 167H196L152 0H5l221 720h171L621 0H462zM224 269h167l-83 315zm-62 515v101h300V784H162z"/><glyph glyph-name="amacron" unicode="ā" horiz-adv-x="545" d="M386 0l-31 58q-21-29-56.5-48.5T208-10q-27 0-56.5 9T97 28 56 80t-16 78q0 41 16 72.5t43.5 54T163 320t77 18l95 13v33q0 78-67 78-28 0-48.5-16.5T194 394L59 414q8 25 23.5 50.5T124 510t63.5 32.5T278 555q94 0 145.5-45T475 366V0h-89zM262 89q36 0 73 25v154l-57-9q-45-8-72-27t-27-59q0-26 7.5-42.5T206 105t27-12.5 29-3.5zM121 634v101h300V634H121z"/><glyph glyph-name="Abreve" unicode="Ă" horiz-adv-x="626" d="M462 0l-44 167H196L152 0H5l221 720h171L621 0H462zM224 269h167l-83 315zm87 565q20 0 35 11t21 40h119q-6-38-21.5-63t-39-41-52.5-22.5-62-6.5-62 6.5-52.5 22.5-39 41-21.5 63h119q6-29 21-40t35-11z"/><glyph glyph-name="abreve" unicode="ă" horiz-adv-x="545" d="M386 0l-31 58q-21-29-56.5-48.5T208-10q-27 0-56.5 9T97 28 56 80t-16 78q0 41 16 72.5t43.5 54T163 320t77 18l95 13v33q0 78-67 78-28 0-48.5-16.5T194 394L59 414q8 25 23.5 50.5T124 510t63.5 32.5T278 555q94 0 145.5-45T475 366V0h-89zM262 89q36 0 73 25v154l-57-9q-45-8-72-27t-27-59q0-26 7.5-42.5T206 105t27-12.5 29-3.5zm9 503q-33 0-62 7.5T157 624t-39 44.5T96 735h119q5-33 20.5-47t35.5-14 35.5 14 20.5 47h119q-6-39-22-66.5T385 624t-52-24.5-62-7.5z"/><glyph glyph-name="Aogonek" unicode="Ą" horiz-adv-x="626" d="M621-212q-26-14-50.5-21t-53.5-7q-69 0-104 33.5T378-113q0 38 26 65.5T462 0l-44 167H196L152 0H5l221 720h171L621 0h-43q-12-8-26-17.5T526-39t-20-27-8-33q0-22 12-32.5t32-10.5q18 0 58 14zM224 269h167l-83 315z"/><glyph glyph-name="aogonek" unicode="ą" horiz-adv-x="545" d="M475 0l-15-10q-8-6-18.5-15.5T422-46t-15-24.5-6-28.5q0-22 13-32.5t33-10.5q18 0 58 14l21-84q-26-14-50.5-21t-53.5-7q-69 0-104 33.5T283-113q0 24 8 43t21.5 35T343-6t35 24l-23 40q-21-29-56.5-48.5T208-10q-27 0-56.5 9T97 28 56 80t-16 78q0 41 16 72.5t43.5 54T163 320t77 18l95 13v33q0 78-67 78-28 0-48.5-16.5T194 394L59 414q8 25 23.5 50.5T124 510t63.5 32.5T278 555q94 0 145.5-45T475 366V0zM262 89q36 0 73 25v154l-57-9q-45-6-72-27t-27-59q0-26 7.5-42.5T206 105t27-12.5 29-3.5z"/><glyph glyph-name="Cacute" unicode="Ć" horiz-adv-x="603" d="M327 94q45 0 70.5 33t29.5 85l141-15q-5-34-20-71.5T503.5 57t-74-51.5T322-15q-48 0-95 15.5T143 58 83 173 60 360q0 112 23.5 185T145 660t87.5 58.5T333 735q55 0 95.5-18.5T497 669t43.5-65 21.5-71l-139-17q-4 24-10.5 44T395 595t-27 23.5-38 8.5q-23 0-43-12t-36-42-25-82-9-131q0-80 8.5-131.5t23-81.5 34.5-41.5T327 94zm28 791h152L377 768H270z"/><glyph glyph-name="cacute" unicode="ć" horiz-adv-x="528" d="M280 457q-15 0-29.5-6T224 425.5t-19-56-7-97.5 8-97 20-55.5T253 94t29-6q19 0 32.5 8t22 21 13 30.5T356 184l138-16q-6-32-20-63.5t-39.5-57T371 6t-91-16q-45 0-86 13t-72.5 45.5-50 87.5T53 275q0 77 17 130.5t47.5 86.5 72 48 89.5 15q57 0 95.5-16.5T437 496t36-57 15-59l-133-20q-4 97-75 97zm13 278h157L298 598H193z"/><glyph glyph-name="Ccircumflex" unicode="Ĉ" horiz-adv-x="603" d="M327 94q45 0 70.5 33t29.5 85l141-15q-5-34-20-71.5T503.5 57t-74-51.5T322-15q-48 0-95 15.5T143 58 83 173 60 360q0 112 23.5 185T145 660t87.5 58.5T333 735q55 0 95.5-18.5T497 669t43.5-65 21.5-71l-139-17q-4 24-10.5 44T395 595t-27 23.5-38 8.5q-23 0-43-12t-36-42-25-82-9-131q0-80 8.5-131.5t23-81.5 34.5-41.5T327 94zm193 674H390l-58 50-57-50H144l120 117h136z"/><glyph glyph-name="ccircumflex" unicode="ĉ" horiz-adv-x="528" d="M280 457q-15 0-29.5-6T224 425.5t-19-56-7-97.5 8-97 20-55.5T253 94t29-6q19 0 32.5 8t22 21 13 30.5T356 184l138-16q-6-32-20-63.5t-39.5-57T371 6t-91-16q-45 0-86 13t-72.5 45.5-50 87.5T53 275q0 77 17 130.5t47.5 86.5 72 48 89.5 15q57 0 95.5-16.5T437 496t36-57 15-59l-133-20q-4 97-75 97zm188 141H346l-66 57-66-57H92l120 137h136z"/><glyph glyph-name="Cdotaccent" unicode="Ċ" horiz-adv-x="603" d="M327 94q45 0 70.5 33t29.5 85l141-15q-5-34-20-71.5T503.5 57t-74-51.5T322-15q-48 0-95 15.5T143 58 83 173 60 360q0 112 23.5 185T145 660t87.5 58.5T333 735q55 0 95.5-18.5T497 669t43.5-65 21.5-71l-139-17q-4 24-10.5 44T395 595t-27 23.5-38 8.5q-23 0-43-12t-36-42-25-82-9-131q0-80 8.5-131.5t23-81.5 34.5-41.5T327 94zm-72 676v115h152V770H255z"/><glyph glyph-name="cdotaccent" unicode="ċ" horiz-adv-x="528" d="M280 457q-15 0-29.5-6T224 425.5t-19-56-7-97.5 8-97 20-55.5T253 94t29-6q19 0 32.5 8t22 21 13 30.5T356 184l138-16q-6-32-20-63.5t-39.5-57T371 6t-91-16q-45 0-86 13t-72.5 45.5-50 87.5T53 275q0 77 17 130.5t47.5 86.5 72 48 89.5 15q57 0 95.5-16.5T437 496t36-57 15-59l-133-20q-4 97-75 97zm-76 153v125h152V610H204z"/><glyph glyph-name="Ccaron" unicode="Č" horiz-adv-x="603" d="M327 94q45 0 70.5 33t29.5 85l141-15q-5-34-20-71.5T503.5 57t-74-51.5T322-15q-48 0-95 15.5T143 58 83 173 60 360q0 112 23.5 185T145 660t87.5 58.5T333 735q55 0 95.5-18.5T497 669t43.5-65 21.5-71l-139-17q-4 24-10.5 44T395 595t-27 23.5-38 8.5q-23 0-43-12t-36-42-25-82-9-131q0-80 8.5-131.5t23-81.5 34.5-41.5T327 94zm71 674H262L142 885h127l61-47 61 47h127z"/><glyph glyph-name="ccaron" unicode="č" horiz-adv-x="528" d="M280 457q-15 0-29.5-6T224 425.5t-19-56-7-97.5 8-97 20-55.5T253 94t29-6q19 0 32.5 8t22 21 13 30.5T356 184l138-16q-6-32-20-63.5t-39.5-57T371 6t-91-16q-45 0-86 13t-72.5 45.5-50 87.5T53 275q0 77 17 130.5t47.5 86.5 72 48 89.5 15q57 0 95.5-16.5T437 496t36-57 15-59l-133-20q-4 97-75 97zm68 141H212L92 735h122l66-57 66 57h122z"/><glyph glyph-name="Dcaron" unicode="Ď" horiz-adv-x="646" d="M267 720q64 0 122-15.5t101.5-56 69.5-110T586 360t-26-178.5-69.5-110-101-56T269 0H80v720h187zm-37-108V109h39q30 0 59.5 9.5t53 36.5 38 76T434 360q0 79-15 128.5t-38.5 77-53.5 37-60 9.5h-37zm143 156H237L117 885h127l61-47 61 47h127z"/><glyph glyph-name="dcaron" unicode="ď" horiz-adv-x="677" d="M53 271q0 149 49 216.5T245 555q36 0 62.5-11.5T353 513v222h140V0h-88l-38 66q-25-35-61-55.5T216-10q-30 0-59 12t-52 43.5-37.5 86T53 271zM274 96q23 0 42.5 9.5T353 129v306q-14 11-30.5 17.5T286 459q-23 0-40.5-7t-29-28-17.5-59-6-99q0-54 6.5-87.5t18-51.5 26-24.5T274 96zm403 521l-59-101h-70l37 100h-42v120h134V617z"/><glyph glyph-name="Dcroat" unicode="Đ" horiz-adv-x="656" d="M90 336H30v110h60v274h187q64 0 122-15.5t101.5-56 69.5-110T596 360t-26-178.5-69.5-110-101-56T279 0H90v336zm150 0V109h39q30 0 59.5 9.5t53 36.5 38 76T444 360q0 79-15 128.5t-38.5 77-53.5 37-60 9.5h-37V446h125V336H240z"/><glyph glyph-name="dcroat" unicode="đ" horiz-adv-x="564" d="M53 271q0 149 49 216.5T245 555q36 0 62.5-11.5T353 513v82H176v90h177v50h140v-50h51v-90h-51V0h-88l-38 66q-25-35-61-55.5T216-10q-30 0-59 12t-52 43.5-37.5 86T53 271zM274 96q23 0 42.5 9.5T353 129v306q-14 11-30.5 17.5T286 459q-23 0-40.5-7t-29-28-17.5-59-6-99q0-54 6.5-87.5t18-51.5 26-24.5T274 96z"/><glyph glyph-name="Emacron" unicode="Ē" horiz-adv-x="515" d="M435 309H230V113h235V0H80v720h385V605H230V417h205V309zM126 787v101h300V787H126z"/><glyph glyph-name="emacron" unicode="ē" horiz-adv-x="546" d="M287 91q34 0 53.5 19t25.5 48l127-20q-8-27-24-53.5T427 37 364.5 3 279-10q-46 0-87 15t-72 48-49 86.5T53 270q0 79 17.5 133.5t48.5 88 72 48.5 88 15q64 0 106-21.5t67.5-63.5 36-102.5T499 229H196q3-42 11.5-69t20.5-42.5 27-21 32-5.5zm-4 374q-17 0-32-5t-27-20.5-20-44-10-74.5h174q-1 42-7.5 70t-18 44.5-26.5 23-33 6.5zM133 634v101h300V634H133z"/><glyph glyph-name="Ebreve" unicode="Ĕ" horiz-adv-x="515" d="M435 309H230V113h235V0H80v720h385V605H230V417h205V309zM274 834q20 0 35 11t21 40h119q-6-38-21.5-63t-39-41-52.5-22.5-62-6.5-62 6.5-52.5 22.5-39 41T99 885h119q6-29 21-40t35-11z"/><glyph glyph-name="ebreve" unicode="ĕ" horiz-adv-x="546" d="M287 91q34 0 53.5 19t25.5 48l127-20q-8-27-24-53.5T427 37 364.5 3 279-10q-46 0-87 15t-72 48-49 86.5T53 270q0 79 17.5 133.5t48.5 88 72 48.5 88 15q64 0 106-21.5t67.5-63.5 36-102.5T499 229H196q3-42 11.5-69t20.5-42.5 27-21 32-5.5zm-4 374q-17 0-32-5t-27-20.5-20-44-10-74.5h174q-1 42-7.5 70t-18 44.5-26.5 23-33 6.5zm1 127q-33 0-62 7.5T170 624t-39 44.5-22 66.5h119q5-33 20.5-47t35.5-14 35.5 14 20.5 47h119q-6-39-22-66.5T398 624t-52-24.5-62-7.5z"/><glyph glyph-name="Edotaccent" unicode="Ė" horiz-adv-x="515" d="M435 309H230V113h235V0H80v720h385V605H230V417h205V309zM198 774v115h152V774H198z"/><glyph glyph-name="edotaccent" unicode="ė" horiz-adv-x="546" d="M287 91q34 0 53.5 19t25.5 48l127-20q-8-27-24-53.5T427 37 364.5 3 279-10q-46 0-87 15t-72 48-49 86.5T53 270q0 79 17.5 133.5t48.5 88 72 48.5 88 15q64 0 106-21.5t67.5-63.5 36-102.5T499 229H196q3-42 11.5-69t20.5-42.5 27-21 32-5.5zm-4 374q-17 0-32-5t-27-20.5-20-44-10-74.5h174q-1 42-7.5 70t-18 44.5-26.5 23-33 6.5zm-76 152v125h152V617H207z"/><glyph glyph-name="Eogonek" unicode="Ę" horiz-adv-x="515" d="M435 309H230V113h235V0h-35q-38-19-63-43t-25-56q0-22 12-32.5t32-10.5q18 0 58 14l21-84q-26-14-50.5-21t-53.5-7q-69 0-104 33.5T222-113q0 17 7.5 34T250-47t31.5 27.5T321 0H80v720h385V605H230V417h205V309z"/><glyph glyph-name="eogonek" unicode="ę" horiz-adv-x="546" d="M448-212q-26-14-50.5-21t-53.5-7q-69 0-104 33.5T205-113q0 30 14.5 56.5T257-9q-42 3-79 19.5t-65 50-44 85T53 270q0 79 17.5 133.5t48.5 88 72 48.5 88 15q64 0 106-21.5t67.5-63.5 36-102.5T499 229H196q3-42 11.5-69t20.5-42.5 27-21 32-5.5q34 0 53.5 19t25.5 48l127-20q-11-36-36.5-70.5T386 12q-30-25-46.5-53T323-99q0-22 13-32.5t33-10.5q18 0 58 14zM283 465q-17 0-32-5t-27-20.5-20-44-10-74.5h174q-1 42-7.5 70t-18 44.5-26.5 23-33 6.5z"/><glyph glyph-name="Ecaron" unicode="Ě" horiz-adv-x="515" d="M435 309H230V113h235V0H80v720h385V605H230V417h205V309zm-92 459H207L87 885h127l61-47 61 47h127z"/><glyph glyph-name="ecaron" unicode="ě" horiz-adv-x="546" d="M287 91q34 0 53.5 19t25.5 48l127-20q-8-27-24-53.5T427 37 364.5 3 279-10q-46 0-87 15t-72 48-49 86.5T53 270q0 79 17.5 133.5t48.5 88 72 48.5 88 15q64 0 106-21.5t67.5-63.5 36-102.5T499 229H196q3-42 11.5-69t20.5-42.5 27-21 32-5.5zm-4 374q-17 0-32-5t-27-20.5-20-44-10-74.5h174q-1 42-7.5 70t-18 44.5-26.5 23-33 6.5zm67 133H214L94 735h122l66-57 66 57h122z"/><glyph glyph-name="Gcircumflex" unicode="Ĝ" horiz-adv-x="626" d="M552 0h-75l-29 53q-23-26-60-47t-88-21Q257-15 214.5.5t-77 57.5-56 115T60 360q0 112 23.5 185T145 660t87.5 58.5T334 735q47 0 84.5-13.5T484 685t47-54.5 30-67.5l-137-17q-10 34-30.5 58T332 628q-24 0-44.5-12T251 573.5 226 491t-9-131q0-80 7-131.5t21.5-81.5 35.5-41.5T329 94q32 0 56 14t38 34v172h-86v104h215V0zm-31 768H391l-58 50-57-50H145l120 117h136z"/><glyph glyph-name="gcircumflex" unicode="ĝ" horiz-adv-x="542" d="M519 506l-103 7q33-23 53.5-60.5T490 363q0-42-17-76.5t-47-59-70.5-37.5-86.5-13-89 13q-5-17-5-25 0-19 21.5-27.5T279 125q119-8 177.5-45T515-40q0-78-65.5-120T263-202q-109 0-164 37T44-65q0 35 17.5 60.5T109 41q-35 29-35 80 0 61 53 93-35 22-57.5 58.5T47 363t19 90.5 50 59 71.5 32.5 83.5 10q18 0 36-3v38l212 24V506zM185 363q0-29 9-47.5t21.5-29.5 27-15 26.5-4 26 4 27 14.5 21.5 29T352 363q0 28-7 47.5T326.5 442 300 459.5t-31 5.5-31-5-27-16.5-19-31-7-49.5zM251 0q-22 2-40.5 4T175 11q-5-11-8.5-22.5T163-35q0-85 104-85 54 0 79 16.5T371-58t-27 41-93 17zm206 619H327l-58 50-57-50H81l120 117h136z"/><glyph glyph-name="Gbreve" unicode="Ğ" horiz-adv-x="626" d="M552 0h-75l-29 53q-23-26-60-47t-88-21Q257-15 214.5.5t-77 57.5-56 115T60 360q0 112 23.5 185T145 660t87.5 58.5T334 735q47 0 84.5-13.5T484 685t47-54.5 30-67.5l-137-17q-10 34-30.5 58T332 628q-24 0-44.5-12T251 573.5 226 491t-9-131q0-80 7-131.5t21.5-81.5 35.5-41.5T329 94q32 0 56 14t38 34v172h-86v104h215V0zM332 834q20 0 35 11t21 40h119q-6-38-21.5-63t-39-41-52.5-22.5-62-6.5-62 6.5-52.5 22.5-39 41-21.5 63h119q6-29 21-40t35-11z"/><glyph glyph-name="gbreve" unicode="ğ" horiz-adv-x="542" d="M519 506l-103 7q33-23 53.5-60.5T490 363q0-42-17-76.5t-47-59-70.5-37.5-86.5-13-89 13q-5-17-5-25 0-19 21.5-27.5T279 125q119-8 177.5-45T515-40q0-78-65.5-120T263-202q-109 0-164 37T44-65q0 35 17.5 60.5T109 41q-35 29-35 80 0 61 53 93-35 22-57.5 58.5T47 363t19 90.5 50 59 71.5 32.5 83.5 10q18 0 36-3v38l212 24V506zM185 363q0-29 9-47.5t21.5-29.5 27-15 26.5-4 26 4 27 14.5 21.5 29T352 363q0 28-7 47.5T326.5 442 300 459.5t-31 5.5-31-5-27-16.5-19-31-7-49.5zM251 0q-22 2-40.5 4T175 11q-5-11-8.5-22.5T163-35q0-85 104-85 54 0 79 16.5T371-58t-27 41-93 17zm20 685q20 0 35 11t21 40h119q-6-38-21.5-63t-39-41-52.5-22.5-62-6.5-62 6.5-52.5 22.5-39 41T96 736h119q6-29 21-40t35-11z"/><glyph glyph-name="Gdotaccent" unicode="Ġ" horiz-adv-x="626" d="M552 0h-75l-29 53q-23-26-60-47t-88-21Q257-15 214.5.5t-77 57.5-56 115T60 360q0 112 23.5 185T145 660t87.5 58.5T334 735q47 0 84.5-13.5T484 685t47-54.5 30-67.5l-137-17q-10 34-30.5 58T332 628q-24 0-44.5-12T251 573.5 226 491t-9-131q0-80 7-131.5t21.5-81.5 35.5-41.5T329 94q32 0 56 14t38 34v172h-86v104h215V0zM256 770v115h152V770H256z"/><glyph glyph-name="gdotaccent" unicode="ġ" horiz-adv-x="542" d="M519 506l-103 7q33-23 53.5-60.5T490 363q0-42-17-76.5t-47-59-70.5-37.5-86.5-13-89 13q-5-17-5-25 0-19 21.5-27.5T279 125q119-8 177.5-45T515-40q0-78-65.5-120T263-202q-109 0-164 37T44-65q0 35 17.5 60.5T109 41q-35 29-35 80 0 61 53 93-35 22-57.5 58.5T47 363t19 90.5 50 59 71.5 32.5 83.5 10q18 0 36-3v38l212 24V506zM185 363q0-29 9-47.5t21.5-29.5 27-15 26.5-4 26 4 27 14.5 21.5 29T352 363q0 28-7 47.5T326.5 442 300 459.5t-31 5.5-31-5-27-16.5-19-31-7-49.5zM251 0q-22 2-40.5 4T175 11q-5-11-8.5-22.5T163-35q0-85 104-85 54 0 79 16.5T371-58t-27 41-93 17zm-57 621v115h152V621H194z"/><glyph glyph-name="Gcommaaccent" unicode="Ģ" horiz-adv-x="626" d="M552 0h-75l-29 53q-23-26-60-47t-88-21Q257-15 214.5.5t-77 57.5-56 115T60 360q0 112 23.5 185T145 660t87.5 58.5T334 735q47 0 84.5-13.5T484 685t47-54.5 30-67.5l-137-17q-10 34-30.5 58T332 628q-24 0-44.5-12T251 573.5 226 491t-9-131q0-80 7-131.5t21.5-81.5 35.5-41.5T329 94q32 0 56 14t38 34v172h-86v104h215V0zM402-169l-59-101h-70l37 100h-42v120h134v-119z"/><glyph glyph-name="gcommaaccent" unicode="ģ" horiz-adv-x="542" d="M519 506l-103 7q33-23 53.5-60.5T490 363q0-42-17-76.5t-47-59-70.5-37.5-86.5-13-89 13q-5-17-5-25 0-19 21.5-27.5T279 125q119-8 177.5-45T515-40q0-78-65.5-120T263-202q-109 0-164 37T44-65q0 35 17.5 60.5T109 41q-35 29-35 80 0 61 53 93-35 22-57.5 58.5T47 363t19 90.5 50 59 71.5 32.5 83.5 10q18 0 36-3v38l212 24V506zM185 363q0-29 9-47.5t21.5-29.5 27-15 26.5-4 26 4 27 14.5 21.5 29T352 363q0 28-7 47.5T326.5 442 300 459.5t-31 5.5-31-5-27-16.5-19-31-7-49.5zM251 0q-22 2-40.5 4T175 11q-5-11-8.5-22.5T163-35q0-85 104-85 54 0 79 16.5T371-58t-27 41-93 17zm-57 719l59 101h70l-37-100h42V600H194v119z"/><glyph glyph-name="Hcircumflex" unicode="Ĥ" horiz-adv-x="655" d="M575 720V0H425v310H230V0H80v720h150V418h195v302h150zm-59 48H386l-58 50-57-50H140l120 117h136z"/><glyph glyph-name="hcircumflex" unicode="ĥ" horiz-adv-x="583" d="M70 735h140V495q25 29 58 44.5t78 15.5q37 0 67.5-11t52.5-34.5 34.5-60.5 12.5-89V0H373v364q0 45-15.5 67T297 453q-26 0-47.5-11.5T210 413V0H70v735zm422 33H362l-58 50-57-50H116l120 117h136z"/><glyph glyph-name="Hbar" unicode="Ħ" horiz-adv-x="664" d="M580 720v-83h59v-96h-59V0H430v310H235V0H85v541H25v96h60v83h150v-83h195v83h150zM235 418h195v123H235V418z"/><glyph glyph-name="hbar" unicode="ħ" horiz-adv-x="588" d="M75 595H20v90h55v50h140v-50h173v-90H215V495q25 29 58 44.5t78 15.5q37 0 67.5-11t52.5-34.5 34.5-60.5 12.5-89V0H378v364q0 45-15.5 67T302 453q-26 0-47.5-11.5T215 413V0H75v595z"/><glyph glyph-name="Itilde" unicode="Ĩ" horiz-adv-x="310" d="M230 720V0H80v720h150zm-11 40q-24 0-41 6t-31 13-27.5 13-30.5 6-41.5-9.5T1 762v100q22 16 46.5 24.5T93 895q24 0 41-6t31-13 27.5-13 30.5-6 41.5 9.5T311 893V793q-22-16-46.5-24.5T219 760z"/><glyph glyph-name="itilde" unicode="ĩ" horiz-adv-x="280" d="M70 0v540h140V0H70zm134 610q-24 0-41 6t-31 13-27.5 13-30.5 6-41.5-9.5T-14 612v100q22 16 46.5 24.5T78 745q24 0 41-6t31-13 27.5-13 30.5-6 41.5 9.5T296 743V643q-22-16-46.5-24.5T204 610z"/><glyph glyph-name="Imacron" unicode="Ī" horiz-adv-x="310" d="M230 720V0H80v720h150zM6 784v101h300V784H6z"/><glyph glyph-name="imacron" unicode="ī" horiz-adv-x="280" d="M70 0v540h140V0H70zM-9 634v101h300V634H-9z"/><glyph glyph-name="Ibreve" unicode="Ĭ" horiz-adv-x="310" d="M230 720V0H80v720h150zm-74 114q20 0 35 11t21 40h119q-6-38-21.5-63t-39-41-52.5-22.5-62-6.5-62 6.5T41.5 781t-39 41-21.5 63h119q6-29 21-40t35-11z"/><glyph glyph-name="ibreve" unicode="ĭ" horiz-adv-x="280" d="M70 0v540h140V0H70zm71 592q-33 0-62 7.5T27 624t-39 44.5-22 66.5H85q5-33 20.5-47t35.5-14 35.5 14 20.5 47h119q-6-39-22-66.5T255 624t-52-24.5-62-7.5z"/><glyph glyph-name="Iogonek" unicode="Į" horiz-adv-x="310" d="M294-212q-26-14-50.5-21t-53.5-7q-69 0-104 33.5T51-113q0 33 18.5 63T117 0H80v720h150V0q-2-2-11.5-10t-20-21-19-30.5T171-99q0-22 12-32.5t32-10.5q18 0 58 14z"/><glyph glyph-name="iogonek" unicode="į" horiz-adv-x="280" d="M210 0q-3-2-13-10t-20.5-20.5-19-30T149-99q0-22 13-32.5t33-10.5q18 0 58 14l21-84q-26-14-50.5-21t-53.5-7q-69 0-104 33.5T31-113q0 37 19 64T97 0H70v540h140V0zM64 610v125h152V610H64z"/><glyph glyph-name="Idotaccent" unicode="İ" horiz-adv-x="310" d="M230 720V0H80v720h150zM79 770v115h152V770H79z"/><glyph glyph-name="dotlessi" unicode="ı" horiz-adv-x="280" d="M70 0v540h140V0H70z"/><glyph glyph-name="IJ" unicode="Ĳ" horiz-adv-x="689" d="M230 720V0H80v720h150zm234 0h150V192q0-42-8.5-79.5t-30.5-66-60.5-45T417-15q-28 0-58.5 4.5T310 0v112q17-5 37-8t34-3q18 0 33 3.5t26.5 14 17.5 30 6 51.5v520z"/><glyph glyph-name="ij" unicode="ĳ" horiz-adv-x="564" d="M65 611v125h152V611H65zM237-50q13-3 29.5-5.5T295-58q29 0 43 12t14 45v541h140V-4q0-79-42.5-120T331-165q-23 0-49.5 4.5T237-150v100zm108 660v125h152V610H345zM71 0v540h140V0H71z"/><glyph glyph-name="Jcircumflex" unicode="Ĵ" horiz-adv-x="389" d="M164 720h150V192q0-42-8.5-79.5t-30.5-66-60.5-45T117-15q-28 0-58.5 4.5T10 0v112q17-5 37-8t34-3q18 0 33 3.5t26.5 14 17.5 30 6 51.5v520zm262 48H296l-58 50-57-50H50l120 117h136z"/><glyph glyph-name="jcircumflex" unicode="ĵ" horiz-adv-x="282" d="M-45-50q13-3 29.5-5.5T13-58q29 0 43 12T70-1v541h140V-4q0-79-42.5-120T49-165q-23 0-49.5 4.5T-45-150v100zm371 648H204l-66 57-66-57H-50L70 735h136z"/><glyph glyph-name="Kcommaaccent" unicode="Ķ" horiz-adv-x="619" d="M426 0L230 313V0H80v720h150V420l183 300h158L355 383 609 0H426zm-28-152l-59-101h-70l37 100h-42v120h134v-119z"/><glyph glyph-name="kcommaaccent" unicode="ķ" horiz-adv-x="557" d="M70 0v735h140V333l159 207h150L334 314 547 0H380L210 262V0H70zm288-169l-59-101h-70l37 100h-42v120h134v-119z"/><glyph glyph-name="kgreenlandic" unicode="ĸ" horiz-adv-x="557" d="M70 0v540h140V333l159 207h150L334 314 547 0H380L210 262V0H70z"/><glyph glyph-name="Lacute" unicode="Ĺ" horiz-adv-x="502" d="M230 720V118h257V0H80v720h150zm-85 168h152L167 771H60z"/><glyph glyph-name="lacute" unicode="ĺ" horiz-adv-x="280" d="M136 885h152L158 768H51zM70 735h140V0H70v735z"/><glyph glyph-name="Lcommaaccent" unicode="Ļ" horiz-adv-x="502" d="M230 720V118h257V0H80v720h150zm124-889l-59-101h-70l37 100h-42v120h134v-119z"/><glyph glyph-name="lcommaaccent" unicode="ļ" horiz-adv-x="280" d="M70 735h140V0H70v735zm137-904l-59-101H78l37 100H73v120h134v-119z"/><glyph glyph-name="Lcaron" unicode="Ľ" horiz-adv-x="502" d="M230 720V118h257V0H80v720h150zm184-119l-59-101h-70l37 100h-42v120h134V601z"/><glyph glyph-name="lcaron" unicode="ľ" horiz-adv-x="384" d="M70 735h140V0H70v735zm314-118l-59-101h-70l37 100h-42v120h134V617z"/><glyph glyph-name="Ldot" unicode="Ŀ" horiz-adv-x="502" d="M230 720V118h257V0H80v720h150zm41-398v125h152V322H271z"/><glyph glyph-name="ldot" unicode="ŀ" horiz-adv-x="404" d="M249 311v135h145V311H249zM70 735h140V0H70v735z"/><glyph glyph-name="Lslash" unicode="Ł" horiz-adv-x="512" d="M240 720V492l130 78V445l-130-78V118h257V0H90v277l-60-36v125l60 36v318h150z"/><glyph glyph-name="lslash" unicode="ł" horiz-adv-x="300" d="M80 285l-55-37v120l55 37v330h140V500l55 38V418l-55-38V0H80v285z"/><glyph glyph-name="Nacute" unicode="Ń" horiz-adv-x="668" d="M588 720V0H410L206 523V0H80v720h191l192-516v516h125zM352 885h152L374 768H267z"/><glyph glyph-name="nacute" unicode="ń" horiz-adv-x="582" d="M70 0v540h95l30-63q26 37 62.5 57.5T345 555q37 0 67.5-11t52.5-34.5 34.5-60.5 12.5-89V0H372v364q0 45-15.5 67T296 453q-26 0-47-11t-39-28V0H70zm240 735h157L315 598H210z"/><glyph glyph-name="Ncommaaccent" unicode="Ņ" horiz-adv-x="668" d="M588 720V0H410L206 523V0H80v720h191l192-516v516h125zM405-169l-59-101h-70l37 100h-42v120h134v-119z"/><glyph glyph-name="ncommaaccent" unicode="ņ" horiz-adv-x="582" d="M70 0v540h95l30-63q26 37 62.5 57.5T345 555q37 0 67.5-11t52.5-34.5 34.5-60.5 12.5-89V0H372v364q0 45-15.5 67T296 453q-26 0-47-11t-39-28V0H70zm289-169l-59-101h-70l37 100h-42v120h134v-119z"/><glyph glyph-name="Ncaron" unicode="Ň" horiz-adv-x="668" d="M588 720V0H410L206 523V0H80v720h191l192-516v516h125zm-183 48H269L149 885h127l61-47 61 47h127z"/><glyph glyph-name="ncaron" unicode="ň" horiz-adv-x="582" d="M70 0v540h95l30-63q26 37 62.5 57.5T345 555q37 0 67.5-11t52.5-34.5 34.5-60.5 12.5-89V0H372v364q0 45-15.5 67T296 453q-26 0-47-11t-39-28V0H70zm292 598H226L106 735h122l66-57 66 57h122z"/><glyph glyph-name="napostrophe" unicode="ŉ" horiz-adv-x="656" d="M144 0v540h95l30-63q26 37 62.5 57.5T419 555q37 0 67.5-11t52.5-34.5 34.5-60.5 12.5-89V0H446v364q0 45-15.5 67T370 453q-26 0-47-11t-39-28V0H144zm-9 617L76 516H6l37 100H1v120h134V617z"/><glyph glyph-name="Eng" unicode="Ŋ" horiz-adv-x="668" d="M588 720V0q0-87-32.5-136T439-185q-30 0-61 4.5T329-170v104q15-4 34.5-5.5T391-73q33 0 45 17.5T448 0h-38L206 523V0H80v720h191l192-516v516h125z"/><glyph glyph-name="eng" unicode="ŋ" horiz-adv-x="582" d="M512 0q0-43-6-76.5T485.5-133 446-168t-63-12q-15 0-32.5 1t-34 3.5-30.5 5-23 5.5v104q15-4 31.5-5.5T319-68q30 0 41.5 15T372 0v364q0 45-15.5 67T296 453q-26 0-47-11t-39-28V0H70v540h95l30-63q26 37 62.5 57.5T345 555q37 0 67.5-11t52.5-34.5 34.5-60.5 12.5-89V0z"/><glyph glyph-name="Omacron" unicode="Ō" horiz-adv-x="683" d="M60 360q0 105 21.5 176.5t59 115.5 89 63.5T341 735t111.5-19.5T542 652t59.5-115.5T623 360t-21.5-176.5-59-115.5-89-63.5T341-15 228.5 4.5t-89 63.5T81 183.5 60 360zm153 0q0-76 9-127t25.5-81.5T288 108t53-13 53 13 41 44 26 82 9 126-10 126-27 82-41 44.5-51 13.5-50.5-13-41-44-27-82-9.5-127zm-20 424v101h300V784H193z"/><glyph glyph-name="omacron" unicode="ō" horiz-adv-x="585" d="M53 270q0 83 21 138t55 87.5 77 46 87 13.5 87-13 76.5-45.5T511 409t21-139-21-138-54.5-85.5-76.5-44T293-10 206 2.5 129 47t-55 86-21 137zm144 0q0-57 6.5-92.5t19.5-56T253.5 94t40.5-7q22 0 40 7t30 27 18.5 55.5T389 270t-6.5 94.5-19 57.5-30.5 28.5-40 7.5q-23 0-40.5-8t-30-29-19-57.5T197 270zm-52 364v101h300V634H145z"/><glyph glyph-name="Obreve" unicode="Ŏ" horiz-adv-x="683" d="M60 360q0 105 21.5 176.5t59 115.5 89 63.5T341 735t111.5-19.5T542 652t59.5-115.5T623 360t-21.5-176.5-59-115.5-89-63.5T341-15 228.5 4.5t-89 63.5T81 183.5 60 360zm153 0q0-76 9-127t25.5-81.5T288 108t53-13 53 13 41 44 26 82 9 126-10 126-27 82-41 44.5-51 13.5-50.5-13-41-44-27-82-9.5-127zm128 474q20 0 35 11t21 40h119q-6-38-21.5-63t-39-41-52.5-22.5-62-6.5-62 6.5-52.5 22.5-39 41-21.5 63h119q6-29 21-40t35-11z"/><glyph glyph-name="obreve" unicode="ŏ" horiz-adv-x="585" d="M53 270q0 83 21 138t55 87.5 77 46 87 13.5 87-13 76.5-45.5T511 409t21-139-21-138-54.5-85.5-76.5-44T293-10 206 2.5 129 47t-55 86-21 137zm144 0q0-57 6.5-92.5t19.5-56T253.5 94t40.5-7q22 0 40 7t30 27 18.5 55.5T389 270t-6.5 94.5-19 57.5-30.5 28.5-40 7.5q-23 0-40.5-8t-30-29-19-57.5T197 270zm97 328q-33 0-62 7.5T180 630t-39 44.5-22 66.5h119q5-33 20.5-47t35.5-14 35.5 14 20.5 47h119q-6-39-22-66.5T408 630t-52-24.5-62-7.5z"/><glyph glyph-name="Ohungarumlaut" unicode="Ő" horiz-adv-x="683" d="M60 360q0 105 21.5 176.5t59 115.5 89 63.5T341 735t111.5-19.5T542 652t59.5-115.5T623 360t-21.5-176.5-59-115.5-89-63.5T341-15 228.5 4.5t-89 63.5T81 183.5 60 360zm153 0q0-76 9-127t25.5-81.5T288 108t53-13 53 13 41 44 26 82 9 126-10 126-27 82-41 44.5-51 13.5-50.5-13-41-44-27-82-9.5-127zm70 525h152L305 768H198zm178 0h152L483 768H376z"/><glyph glyph-name="ohungarumlaut" unicode="ő" horiz-adv-x="585" d="M53 270q0 83 21 138t55 87.5 77 46 87 13.5 87-13 76.5-45.5T511 409t21-139-21-138-54.5-85.5-76.5-44T293-10 206 2.5 129 47t-55 86-21 137zm144 0q0-57 6.5-92.5t19.5-56T253.5 94t40.5-7q22 0 40 7t30 27 18.5 55.5T389 270t-6.5 94.5-19 57.5-30.5 28.5-40 7.5q-23 0-40.5-8t-30-29-19-57.5T197 270zm32 465h152L234 598H129zm178 0h152L412 598H307z"/><glyph glyph-name="OE" unicode="Œ" horiz-adv-x="918" d="M838 309H616q-3-63-15-111.5T570 113h298V0H441q-47-15-100-15-61 0-112.5 19.5t-89 63.5T81 183.5 60 360t21.5 176.5 59 115.5 89 63.5T341 735q52 0 99-15h428V605H570q19-35 30.5-81.5T616 417h222V309zm-625 51q0-76 9-127t25.5-81.5T288 108t53-13 53 13 41 44 26 82 9 126-10 126-27 82-41 44.5-51 13.5-50.5-13-41-44-27-82-9.5-127z"/><glyph glyph-name="oe" unicode="œ" horiz-adv-x="882" d="M623 91q34 0 53.5 19t25.5 48l127-20q-8-27-24-53.5T763 37 700.5 3 615-10q-48 0-89 17t-67 55q-29-41-74-56.5T293-10q-44 0-87 12.5T129 47t-55 86-21 137 21 138 55 87.5 77 46 87 13.5q23 0 46.5-4t45.5-12.5 40.5-22.5 32.5-35q25 38 67 56t90 18q64 0 106-21.5t67.5-63.5 36-102.5T835 229H532q3-42 11.5-69t20.5-42.5 27-21 32-5.5zM197 270q0-57 6.5-92.5t19.5-56T253.5 94t40.5-7q22 0 40 7t30 27 18.5 55.5T389 270t-6.5 94.5-19 57.5-30.5 28.5-40 7.5q-23 0-40.5-8t-30-29-19-57.5T197 270zm422 195q-17 0-32-5t-27-20.5-20-44-10-74.5h174q-1 42-7.5 70t-18 44.5-26.5 23-33 6.5z"/><glyph glyph-name="Racute" unicode="Ŕ" horiz-adv-x="603" d="M419 0L278 267h-48V0H80v720h198q57 0 106-11.5t85-38 56.5-69.5T546 494q0-41-9.5-72.5t-26-55-39.5-40-50-28.5L593 0H419zM230 612V374h56q18 0 36.5 6t33.5 19.5 24.5 36.5 9.5 58q0 37-9 60.5t-24.5 36-35.5 17-41 4.5h-50zm49 273h152L301 768H194z"/><glyph glyph-name="racute" unicode="ŕ" horiz-adv-x="357" d="M70 0v540h95l30-77q20 42 49 64.5t64 22.5q21 0 34-4V410q-9 3-19 4.5t-24 1.5q-27 0-49.5-17.5T210 354V0H70zm169 735h157L244 598H139z"/><glyph glyph-name="Rcommaaccent" unicode="Ŗ" horiz-adv-x="603" d="M419 0L278 267h-48V0H80v720h198q57 0 106-11.5t85-38 56.5-69.5T546 494q0-41-9.5-72.5t-26-55-39.5-40-50-28.5L593 0H419zM230 612V374h56q18 0 36.5 6t33.5 19.5 24.5 36.5 9.5 58q0 37-9 60.5t-24.5 36-35.5 17-41 4.5h-50zm157-765l-59-101h-70l37 100h-42v120h134v-119z"/><glyph glyph-name="rcommaaccent" unicode="ŗ" horiz-adv-x="357" d="M70 0v540h95l30-77q20 42 49 64.5t64 22.5q21 0 34-4V410q-9 3-19 4.5t-24 1.5q-27 0-49.5-17.5T210 354V0H70zm137-169l-59-101H78l37 100H73v120h134v-119z"/><glyph glyph-name="Rcaron" unicode="Ř" horiz-adv-x="603" d="M419 0L278 267h-48V0H80v720h198q57 0 106-11.5t85-38 56.5-69.5T546 494q0-41-9.5-72.5t-26-55-39.5-40-50-28.5L593 0H419zM230 612V374h56q18 0 36.5 6t33.5 19.5 24.5 36.5 9.5 58q0 37-9 60.5t-24.5 36-35.5 17-41 4.5h-50zm134 156H228L108 885h127l61-47 61 47h127z"/><glyph glyph-name="rcaron" unicode="ř" horiz-adv-x="357" d="M114 0v540h95l30-77q20 42 49 64.5t64 22.5q21 0 34-4V410q-9 3-19 4.5t-24 1.5q-27 0-49.5-17.5T254 354V0H114zm212 598H190L70 735h122l66-57 66 57h122z"/><glyph glyph-name="Sacute" unicode="Ś" horiz-adv-x="587" d="M292 629q-36 0-62.5-17.5T203 553q0-14 3-26.5t13.5-25T251 476t58-27q47-18 88.5-39t72.5-49.5 49-65.5 18-88q0-44-13.5-84T480 52.5t-77.5-49T287-15q-65 0-110 18.5T103 49t-44 58-19 56l141 20q2-17 10.5-33.5t22.5-29 33.5-20T290 93q16 0 33 4.5t31 15 22.5 27.5 8.5 43q0 29-13 48.5T336 266t-55 28.5-71 31.5q-45 20-75 42t-48.5 47.5-26.5 55-8 65.5q0 44 16.5 80.5t47.5 63 76.5 41T296 735q59 0 100.5-16t68.5-40.5 42-54 21-55.5l-139-25q-5 33-30 59t-67 26zm27 256h152L341 768H234z"/><glyph glyph-name="sacute" unicode="ś" horiz-adv-x="514" d="M251-10q-47 0-84.5 12.5t-64 32.5-43 46T38 133l135 27q5-33 26.5-52T253 89t51 13.5 19 41.5q0 15-6.5 25.5t-20 19T263 204t-48 16q-37 11-66.5 24.5T98 278t-32 47.5T55 392q0 41 15 71.5t42 51 64.5 30.5 82.5 10q48 0 83.5-12.5T402 510t38.5-44.5T461 417l-131-26q-5 28-21 47t-51 19q-28 0-45.5-13.5T195 403q0-17 7.5-27.5t20-17.5 30.5-12.5 39-12.5q34-11 65.5-23t55-30 37.5-45.5 14-70.5q0-45-16-78t-44.5-54T336 .5 251-10zm34 745h157L290 598H185z"/><glyph glyph-name="Scircumflex" unicode="Ŝ" horiz-adv-x="587" d="M292 629q-36 0-62.5-17.5T203 553q0-14 3-26.5t13.5-25T251 476t58-27q47-18 88.5-39t72.5-49.5 49-65.5 18-88q0-44-13.5-84T480 52.5t-77.5-49T287-15q-65 0-110 18.5T103 49t-44 58-19 56l141 20q2-17 10.5-33.5t22.5-29 33.5-20T290 93q16 0 33 4.5t31 15 22.5 27.5 8.5 43q0 29-13 48.5T336 266t-55 28.5-71 31.5q-45 20-75 42t-48.5 47.5-26.5 55-8 65.5q0 44 16.5 80.5t47.5 63 76.5 41T296 735q59 0 100.5-16t68.5-40.5 42-54 21-55.5l-139-25q-5 33-30 59t-67 26zm185 138H347l-58 50-57-50H101l120 117h136z"/><glyph glyph-name="scircumflex" unicode="ŝ" horiz-adv-x="514" d="M251-10q-47 0-84.5 12.5t-64 32.5-43 46T38 133l135 27q5-33 26.5-52T253 89t51 13.5 19 41.5q0 15-6.5 25.5t-20 19T263 204t-48 16q-37 11-66.5 24.5T98 278t-32 47.5T55 392q0 41 15 71.5t42 51 64.5 30.5 82.5 10q48 0 83.5-12.5T402 510t38.5-44.5T461 417l-131-26q-5 28-21 47t-51 19q-28 0-45.5-13.5T195 403q0-17 7.5-27.5t20-17.5 30.5-12.5 39-12.5q34-11 65.5-23t55-30 37.5-45.5 14-70.5q0-45-16-78t-44.5-54T336 .5 251-10zm198 608H327l-66 57-66-57H73l120 137h136z"/><glyph glyph-name="Scedilla" unicode="Ş" horiz-adv-x="587" d="M400-142q0-52-35-81.5T263-253q-31 0-59.5 9T152-220l37 71q9-6 25-12t34-6q23 0 32 8.5t9 20.5q0 21-19 30.5T215-94l21 83q-51 7-86.5 27t-59 45T55 113.5 40 163l141 20q2-17 10.5-33.5t22.5-29 33.5-20T290 93q16 0 33 4.5t31 15 22.5 27.5 8.5 43q0 29-13 48.5T336 266t-55 28.5-71 31.5q-45 20-75 42t-48.5 47.5-26.5 55-8 65.5q0 44 16.5 80.5t47.5 63 76.5 41T296 735q59 0 100.5-16t68.5-40.5 42-54 21-55.5l-139-25q-5 33-30 59t-67 26q-36 0-62.5-17.5T203 553q0-14 3-26.5t13.5-25T251 476t58-27q47-18 88.5-39t72.5-49.5 49-65.5 18-88q0-40-11-77t-36-66.5T426 14t-94-26l-4-39q38-11 55-36t17-55z"/><glyph glyph-name="scedilla" unicode="ş" horiz-adv-x="514" d="M377-132q0-52-33.5-81T243-242q-31 0-59.5 9T132-209l37 68q9-6 25-12t34-6q23 0 33 9.5t10 21.5q0 21-20 31t-56 14l19 75q-39 4-69.5 18t-53 33.5-36 43T38 133l135 27q5-33 26.5-52T253 89t51 13.5 19 41.5q0 15-6.5 25.5t-20 18.5-33.5 15-48 16q-37 11-66.5 25T98 278t-32 47.5T55 392q0 41 15 71.5t42 51 64.5 30.5 82.5 10q48 0 83.5-12.5T402 510t38.5-44.5T461 417l-131-26q-5 28-21 47t-51 19q-28 0-45.5-13.5T195 403q0-32 27.5-46t69.5-26q34-11 65.5-22.5t55-29 37.5-45 14-70.5q0-75-43-116.5T309-5l-4-36q38-11 55-36t17-55z"/><glyph glyph-name="Scaron" unicode="Š" horiz-adv-x="587" d="M292 629q-36 0-62.5-17.5T203 553q0-14 3-26.5t13.5-25T251 476t58-27q47-18 88.5-39t72.5-49.5 49-65.5 18-88q0-44-13.5-84T480 52.5t-77.5-49T287-15q-65 0-110 18.5T103 49t-44 58-19 56l141 20q2-17 10.5-33.5t22.5-29 33.5-20T290 93q16 0 33 4.5t31 15 22.5 27.5 8.5 43q0 29-13 48.5T336 266t-55 28.5-71 31.5q-45 20-75 42t-48.5 47.5-26.5 55-8 65.5q0 44 16.5 80.5t47.5 63 76.5 41T296 735q59 0 100.5-16t68.5-40.5 42-54 21-55.5l-139-25q-5 33-30 59t-67 26zm68 139H224L104 885h127l61-47 61 47h127z"/><glyph glyph-name="scaron" unicode="š" horiz-adv-x="514" d="M251-10q-47 0-84.5 12.5t-64 32.5-43 46T38 133l135 27q5-33 26.5-52T253 89t51 13.5 19 41.5q0 15-6.5 25.5t-20 19T263 204t-48 16q-37 11-66.5 24.5T98 278t-32 47.5T55 392q0 41 15 71.5t42 51 64.5 30.5 82.5 10q48 0 83.5-12.5T402 510t38.5-44.5T461 417l-131-26q-5 28-21 47t-51 19q-28 0-45.5-13.5T195 403q0-17 7.5-27.5t20-17.5 30.5-12.5 39-12.5q34-11 65.5-23t55-30 37.5-45.5 14-70.5q0-45-16-78t-44.5-54T336 .5 251-10zm76 608H191L71 735h122l66-57 66 57h122z"/><glyph glyph-name="Tcommaaccent" unicode="Ţ" horiz-adv-x="544" d="M524 602H346V0H196v602H20v118h504V602zM337-169l-59-101h-70l37 100h-42v120h134v-119z"/><glyph glyph-name="tcommaaccent" unicode="ţ" horiz-adv-x="365" d="M340 5q-19-5-43.5-8.5T249-7q-34 0-62 9t-48.5 28-32 49T95 151v289H15v100h81l9 130h130V540h104V440H235V146q0-16 5-25.5t12.5-15 17-7.5 18.5-2q11 0 26 2t26 4V5zm-56-174l-59-101h-70l37 100h-42v120h134v-119z"/><glyph glyph-name="Tcaron" unicode="Ť" horiz-adv-x="544" d="M524 602H346V0H196v602H20v118h504V602zM339 768H203L83 885h127l61-47 61 47h127z"/><glyph glyph-name="tcaron" unicode="ť" horiz-adv-x="458" d="M340 5q-19-5-43.5-8.5T249-7q-34 0-62 9t-48.5 28-32 49T95 151v289H15v100h81l9 130h130V540h104V440H235V146q0-16 5-25.5t12.5-15 17-7.5 18.5-2q11 0 26 2t26 4V5zm158 612l-59-101h-70l37 100h-42v120h134V617z"/><glyph glyph-name="Tbar" unicode="Ŧ" horiz-adv-x="564" d="M534 602H356V446h140v-95H356V0H206v351H66v95h140v156H30v118h504V602z"/><glyph glyph-name="tbar" unicode="ŧ" horiz-adv-x="380" d="M240 440v-40h104v-90H240V146q0-16 5-25.5t12.5-15 17-7.5 18.5-2q11 0 26 2t26 4V5q-19-5-43.5-8.5T254-7q-34 0-62 9t-48.5 28-32 49-11.5 72v159H20v90h80v40H20v100h81l9 130h130V540h104V440H240z"/><glyph glyph-name="Utilde" unicode="Ũ" horiz-adv-x="643" d="M225 720V214q0-38 9-61t23-36 32-17.5 35-4.5 35 4.5 32.5 17.5 23.5 36 9 61v506h144V223q0-118-62-178T323-15 138.5 45 75 223v497h150zm160 40q-24 0-41 6t-31 13-27.5 13-30.5 6-41.5-9.5T167 762v100q22 16 46.5 24.5T259 895q24 0 41-6t31-13 27.5-13 30.5-6 41.5 9.5T477 893V793q-22-16-46.5-24.5T385 760z"/><glyph glyph-name="utilde" unicode="ũ" horiz-adv-x="575" d="M210 540V184q0-45 14-68.5T283 92q25 0 45 11t37 28v409h140V0h-95l-31 65q-23-35-58.5-55T234-10q-74 0-119 48T70 190v350h140zm139 80q-24 0-41 6t-31 13-27.5 13-30.5 6-41.5-9.5T131 622v100q22 16 46.5 24.5T223 755q24 0 41-6t31-13 27.5-13 30.5-6 41.5 9.5T441 753V653q-22-16-46.5-24.5T349 620z"/><glyph glyph-name="Umacron" unicode="Ū" horiz-adv-x="643" d="M225 720V214q0-38 9-61t23-36 32-17.5 35-4.5 35 4.5 32.5 17.5 23.5 36 9 61v506h144V223q0-118-62-178T323-15 138.5 45 75 223v497h150zm-53 64v101h300V784H172z"/><glyph glyph-name="umacron" unicode="ū" horiz-adv-x="575" d="M210 540V184q0-45 14-68.5T283 92q25 0 45 11t37 28v409h140V0h-95l-31 65q-23-35-58.5-55T234-10q-74 0-119 48T70 190v350h140zm-73 94v101h300V634H137z"/><glyph glyph-name="Ubreve" unicode="Ŭ" horiz-adv-x="643" d="M225 720V214q0-38 9-61t23-36 32-17.5 35-4.5 35 4.5 32.5 17.5 23.5 36 9 61v506h144V223q0-118-62-178T323-15 138.5 45 75 223v497h150zm99 114q20 0 35 11t21 40h119q-6-38-21.5-63t-39-41-52.5-22.5-62-6.5-62 6.5-52.5 22.5-39 41-21.5 63h119q6-29 21-40t35-11z"/><glyph glyph-name="ubreve" unicode="ŭ" horiz-adv-x="575" d="M210 540V184q0-45 14-68.5T283 92q25 0 45 11t37 28v409h140V0h-95l-31 65q-23-35-58.5-55T234-10q-74 0-119 48T70 190v350h140zm77 52q-33 0-62 7.5T173 624t-39 44.5-22 66.5h119q5-33 20.5-47t35.5-14 35.5 14 20.5 47h119q-6-39-22-66.5T401 624t-52-24.5-62-7.5z"/><glyph glyph-name="Uring" unicode="Ů" horiz-adv-x="643" d="M225 690V214q0-38 9-61t23-36 32-17.5 35-4.5 35 4.5 32.5 17.5 23.5 36 9 61v476h144V223q0-118-62-178T323-15 138.5 45 75 223v467h150zm-33 151q0 57 35 88t98 31 97.5-31 34.5-88-38-87-99-30-94.5 30-33.5 87zm98 0q0-23 10-34.5t25-11.5q16 0 25.5 11t9.5 35-10 36-25 12-25-12.5-10-35.5z"/><glyph glyph-name="uring" unicode="ů" horiz-adv-x="575" d="M210 540V184q0-45 14-68.5T283 92q25 0 45 11t37 28v409h140V0h-95l-31 65q-23-35-58.5-55T234-10q-74 0-119 48T70 190v350h140zm-55 151q0 57 35 88t98 31 97.5-31 34.5-88-38-87-99-30-94.5 30-33.5 87zm98 0q0-23 10-34.5t25-11.5q16 0 25.5 11t9.5 35-10 36-25 12-25-12.5-10-35.5z"/><glyph glyph-name="Uhungarumlaut" unicode="Ű" horiz-adv-x="643" d="M225 720V214q0-38 9-61t23-36 32-17.5 35-4.5 35 4.5 32.5 17.5 23.5 36 9 61v506h144V223q0-118-62-178T323-15 138.5 45 75 223v497h150zm35 165h152L282 768H175zm178 0h152L460 768H353z"/><glyph glyph-name="uhungarumlaut" unicode="ű" horiz-adv-x="575" d="M210 540V184q0-45 14-68.5T283 92q25 0 45 11t37 28v409h140V0h-95l-31 65q-23-35-58.5-55T234-10q-74 0-119 48T70 190v350h140zm13 195h152L228 598H123zm178 0h152L406 598H301z"/><glyph glyph-name="Uogonek" unicode="Ų" horiz-adv-x="643" d="M225 720V214q0-38 9-61t23-36 32-17.5 35-4.5 35 4.5 32.5 17.5 23.5 36 9 61v506h144V223q0-158-114-213-31-24-49-51.5T387-99q0-22 12-32.5t32-10.5q18 0 58 14l21-84q-26-14-50.5-21t-53.5-7q-69 0-104 33.5T267-113q0 32 15 55t36 43q-115 3-179 63T75 223v497h150z"/><glyph glyph-name="uogonek" unicode="ų" horiz-adv-x="575" d="M210 540V184q0-45 14-68.5T283 92q25 0 45 11t37 28v409h140V0q-2-1-15-9t-27.5-21.5-26.5-31T424-99q0-22 13-32.5t33-10.5q18 0 58 14l21-84q-26-14-50.5-21t-53.5-7q-69 0-104 33.5T306-113q0 25 9 44t23.5 34.5 32 27.5T405 16l-26 49q-23-35-58.5-55T234-10q-74 0-119 48T70 190v350h140z"/><glyph glyph-name="Wcircumflex" unicode="Ŵ" horiz-adv-x="828" d="M803 720L693 0H502l-89 564L322 0H135L25 720h152l64-568 85 568h185l84-566 74 566h134zm-198 44H475l-58 50-57-50H229l120 117h136z"/><glyph glyph-name="wcircumflex" unicode="ŵ" horiz-adv-x="788" d="M773 540L648 0H469l-74 400L307 0H133L15 540h142l70-425 86 425h174l73-423 84 423h129zm-183 58H468l-66 57-66-57H214l120 137h136z"/><glyph glyph-name="Ycircumflex" unicode="Ŷ" horiz-adv-x="562" d="M557 720L353 288V0H213v288L5 720h162l120-289 130 289h140zm-86 48H341l-58 50-57-50H95l120 117h136z"/><glyph glyph-name="ycircumflex" unicode="ŷ" horiz-adv-x="511" d="M340-15q-12-39-26-67.5t-34-47-48.5-27T162-165q-20 0-46 3.5T72-153v100q18-5 38-7t31-2q36 0 52 13.5T214 0h-46L5 540h147l102-428 116 428h136zm101 613H319l-66 57-66-57H65l120 137h136z"/><glyph glyph-name="Ydieresis" unicode="Ÿ" horiz-adv-x="562" d="M557 720L353 288V0H213v288L5 720h162l120-289 130 289h140zm-449 52v108h132V772H108zm227 0v108h132V772H335z"/><glyph glyph-name="Zacute" unicode="Ź" horiz-adv-x="555" d="M208 109h287V0H45v117l296 494H68v109h437V606zm102 776h152L332 768H225z"/><glyph glyph-name="zacute" unicode="ź" horiz-adv-x="495" d="M201 106h239V0H35v117l253 317H54v106h396V423zm73 629h157L279 598H174z"/><glyph glyph-name="Zdotaccent" unicode="Ż" horiz-adv-x="555" d="M208 109h287V0H45v117l296 494H68v109h437V606zm13 661v115h152V770H221z"/><glyph glyph-name="zdotaccent" unicode="ż" horiz-adv-x="495" d="M201 106h239V0H35v117l253 317H54v106h396V423zm-18 504v125h152V610H183z"/><glyph glyph-name="Zcaron" horiz-adv-x="555" d="M208 109h287V0H45v117l296 494H68v109h437V606zm165 657H237L117 883h127l61-47 61 47h127z"/><glyph glyph-name="Zcaron" unicode="Ž" horiz-adv-x="555" d="M208 109h287V0H45v117l296 494H68v109h437V606zm165 657H237L117 883h127l61-47 61 47h127z"/><glyph glyph-name="zcaron" horiz-adv-x="495" d="M201 106h239V0H35v117l253 317H54v106h396V423zm129 492H194L74 735h122l66-57 66 57h122z"/><glyph glyph-name="zcaron" unicode="ž" horiz-adv-x="495" d="M201 106h239V0H35v117l253 317H54v106h396V423zm129 492H194L74 735h122l66-57 66 57h122z"/><glyph glyph-name="longs" unicode="ſ" horiz-adv-x="337" d="M372 629q-19 5-38 7.5t-34 2.5q-35 0-50-14t-15-49V0H95v440H15v100h80v30q0 47 12 80.5t33.5 54.5 51.5 30.5 66 9.5q37 0 65.5-5t48.5-10V629z"/><glyph glyph-name="florin" unicode="ƒ" horiz-adv-x="352" d="M372 629q-19 5-38 7.5t-34 2.5q-35 0-50-14t-15-49v-36h116V440H235V5q0-47-12-80.5T189.5-130 138-160.5 72-170q-37 0-65.5 5T-42-155v101q19-5 38-7.5T30-64q35 0 50 14T95-1v441H15v100h80v30q0 47 12 80.5t33.5 54.5 51.5 30.5 66 9.5q37 0 65.5-5t48.5-10V629z"/><glyph glyph-name="Ohorn" unicode="Ơ" horiz-adv-x="729" d="M739 681q0-30-12-56t-30.5-47-42-37-47.5-27q16-63 16-154 0-105-21.5-176.5T542.5 68t-89-63.5T341-15 228.5 4.5t-89 63.5T81 183.5 60 360t21.5 176.5 59 115.5 89 63.5T341 735q78 0 140.5-33.5T581 590q16 13 23.5 34t7.5 56v75h127v-74zM213 360q0-76 9-127t25.5-81.5T288 108t53-13 53 13 41 44 26 82 9 126-10 126-27 82-41 44.5-51 13.5-50.5-13-41-44-27-82-9.5-127z"/><glyph glyph-name="ohorn" unicode="ơ" horiz-adv-x="647" d="M657 486q0-31-11.5-56.5T616 384t-41-35.5-46-25.5q3-24 3-53 0-84-21-138t-54.5-85.5-76.5-44T293-10 206 2.5 129 47t-55 86-21 137 21 138 55 87.5 77 46 87 13.5q34 0 67-7.5t62-25 52.5-47T513 403q22 25 22 82v75h122v-74zM197 270q0-57 6.5-92.5t19.5-56T253.5 94t40.5-7q22 0 40 7t30 27 18.5 55.5T389 270t-6.5 94.5-19 57.5-30.5 28.5-40 7.5q-23 0-40.5-8t-30-29-19-57.5T197 270z"/><glyph glyph-name="Uhorn" unicode="Ư" horiz-adv-x="732" d="M568 720V579q23 11 35 34.5t12 66.5v75h127v-74q0-38-17.5-68.5T681 559t-56.5-38-56.5-22V223q0-118-62-178T323-15 138.5 45 75 223v497h150V214q0-38 9-61t23-36 32-17.5 35-4.5 35 4.5 32.5 17.5 23.5 36 9 61v506h144z"/><glyph glyph-name="uhorn" unicode="ư" horiz-adv-x="663" d="M210 540V184q0-45 14-68.5T283 92q25 0 45 11t37 28v409h140V384q23 12 34.5 35t11.5 66v75h122v-74q0-38-16.5-67.5T615 367t-54.5-36.5T505 309V0h-95l-31 65q-23-35-58.5-55T234-10q-74 0-119 48T70 190v350h140z"/><glyph glyph-name="AEacute" unicode="Ǽ" horiz-adv-x="869" d="M769 309H536l41-196h242V0H453l-32 167H201L146 0H5l259 720h525V605H474l39-188h256V309zm-535-40h168l-60 325zm288 616h152L544 768H437z"/><glyph glyph-name="aeacute" unicode="ǽ" horiz-adv-x="821" d="M562 91q34 0 53.5 19t25.5 48l127-20q-8-27-24-53.5T702 37 639.5 3 554-10q-54 0-94 20.5T393 76q-27-42-69-63T215-8q-32 0-63.5 9T95 29.5t-40 51T40 158q0 41 16 72.5t43.5 54T163 320t77 18l95 13v33q0 78-67 78-28 0-48.5-16.5T194 394L59 414q8 25 23 50.5t40.5 45.5 63.5 32.5 92 12.5q48 0 82-14.5t55-40.5q52 55 139 55 64 0 106-21.5t67.5-63.5 36-102.5T774 229H471q3-42 11.5-69t20.5-42.5 27-21 32-5.5zm-300 0q16 0 35 6t38 18v153l-57-9q-45-6-72-27t-27-59q0-26 7.5-42t19.5-25 27-12 29-3zm296 374q-17 0-32-5t-27-20.5-20-44-10-74.5h174q-1 42-7.5 70t-18 44.5-26.5 23-33 6.5zM449 735h157L454 598H349z"/><glyph glyph-name="Oslashacute" unicode="Ǿ" horiz-adv-x="683" d="M60 360q0 105 21.5 176.5t59 115.5 89 63.5T341 735q40 0 76-9l35 94h115l-52-141q50-42 79-119t29-200q0-105-21.5-176.5T542.5 68t-89-63.5T341-15q-42 0-79 9l-36-96H111l53 145q-48 42-76 119T60 360zm410 0q0 60-6 102.5T447 536L289 107q22-12 52-12 29 0 53 13t41 44 26 82 9 126zm-257 0q0-57 5-97.5t14-71.5l157 423q-23 12-48 12-27 0-50.5-13t-41-44-27-82-9.5-127zm115 525h152L350 768H243z"/><glyph glyph-name="oslashacute" unicode="ǿ" horiz-adv-x="585" d="M53 270q0 83 21 138t55 87.5 77 46 87 13.5q20 0 39.5-2.5T372 544l40 89h110l-63-139q33-33 53-86.5T532 270t-21-138-54.5-85.5-76.5-44T293-10q-40 0-67 7l-44-99H70l65 143q-37 32-59.5 86.5T53 270zm144 0q0-75 10-111l131 288q-20 11-45 11-23 0-40.5-8t-30-29-19-57.5T197 270zm113 465h157L315 598H210zm79-465q0 31-1.5 55.5T382 367L257 92q17-5 37-5 22 0 40 7t30 27 18.5 55.5T389 270z"/><glyph glyph-name="Scommaaccent" unicode="Ș" horiz-adv-x="587" d="M292 629q-36 0-62.5-17.5T203 553q0-14 3-26.5t13.5-25T251 476t58-27q47-18 88.5-39t72.5-49.5 49-65.5 18-88q0-44-13.5-84T480 52.5t-77.5-49T287-15q-65 0-110 18.5T103 49t-44 58-19 56l141 20q2-17 10.5-33.5t22.5-29 33.5-20T290 93q16 0 33 4.5t31 15 22.5 27.5 8.5 43q0 29-13 48.5T336 266t-55 28.5-71 31.5q-45 20-75 42t-48.5 47.5-26.5 55-8 65.5q0 44 16.5 80.5t47.5 63 76.5 41T296 735q59 0 100.5-16t68.5-40.5 42-54 21-55.5l-139-25q-5 33-30 59t-67 26zm64-803l-59-101h-70l37 100h-42v120h134v-119z"/><glyph glyph-name="scommaaccent" unicode="ș" horiz-adv-x="514" d="M251-10q-47 0-84.5 12.5t-64 32.5-43 46T38 133l135 27q5-33 26.5-52T253 89t51 13.5 19 41.5q0 15-6.5 25.5t-20 19T263 204t-48 16q-37 11-66.5 24.5T98 278t-32 47.5T55 392q0 41 15 71.5t42 51 64.5 30.5 82.5 10q48 0 83.5-12.5T402 510t38.5-44.5T461 417l-131-26q-5 28-21 47t-51 19q-28 0-45.5-13.5T195 403q0-17 7.5-27.5t20-17.5 30.5-12.5 39-12.5q34-11 65.5-23t55-30 37.5-45.5 14-70.5q0-45-16-78t-44.5-54T336 .5 251-10zm74-159l-59-101h-70l37 100h-42v120h134v-119z"/><glyph glyph-name="uni021A" unicode="Ț" horiz-adv-x="544" d="M524 602H346V0H196v602H20v118h504V602zM337-169l-59-101h-70l37 100h-42v120h134v-119z"/><glyph glyph-name="uni021B" unicode="ț" horiz-adv-x="365" d="M340 5q-19-5-43.5-8.5T249-7q-34 0-62 9t-48.5 28-32 49T95 151v289H15v100h81l9 130h130V540h104V440H235V146q0-16 5-25.5t12.5-15 17-7.5 18.5-2q11 0 26 2t26 4V5zm-56-174l-59-101h-70l37 100h-42v120h134v-119z"/><glyph glyph-name="dotlessj" unicode="ȷ" horiz-adv-x="282" d="M-45-50q13-3 29.5-5.5T13-58q29 0 43 12T70-1v541h140V-4q0-79-42.5-120T49-165q-23 0-49.5 4.5T-45-150v100z"/><glyph glyph-name="circumflex" unicode="ˆ" horiz-adv-x="436" d="M406 598H284l-66 57-66-57H30l120 137h136z"/><glyph glyph-name="caron" unicode="ˇ" horiz-adv-x="436" d="M286 598H150L30 735h122l66-57 66 57h122z"/><glyph glyph-name="uni02C9" unicode="ˉ" horiz-adv-x="360" d="M30 634v101h300V634H30z"/><glyph glyph-name="breve" unicode="˘" horiz-adv-x="410" d="M205 592q-33 0-62 7.5T91 624t-39 44.5T30 735h119q5-33 20.5-47t35.5-14 35.5 14 20.5 47h119q-6-39-22-66.5T319 624t-52-24.5-62-7.5z"/><glyph glyph-name="dotaccent" unicode="˙" horiz-adv-x="212" d="M30 610v125h152V610H30z"/><glyph glyph-name="ring" unicode="˚" horiz-adv-x="325" d="M30 691q0 57 35 88t98 31 97.5-31 34.5-88-38-87-99-30-94.5 30T30 691zm98 0q0-23 10-34.5t25-11.5q16 0 25.5 11t9.5 35-10 36-25 12-25-12.5-10-35.5z"/><glyph glyph-name="ogonek" unicode="˛" horiz-adv-x="303" d="M273-212q-26-14-50.5-21t-53.5-7q-69 0-104 33.5T30-113q0 28 12.5 52.5t33.5 45 48 36T180 45h93q-52-30-88.5-67T148-99q0-22 13-32.5t33-10.5q18 0 58 14z"/><glyph glyph-name="tilde" unicode="˜" horiz-adv-x="370" d="M248 610q-24 0-41 6t-31 13-27.5 13-30.5 6-41.5-9.5T30 612v100q22 16 46.5 24.5T122 745q24 0 41-6t31-13 27.5-13 30.5-6 41.5 9.5T340 743V643q-22-16-46.5-24.5T248 610z"/><glyph glyph-name="hungarumlaut" unicode="˝" horiz-adv-x="490" d="M130 735h152L135 598H30zm178 0h152L313 598H208z"/><glyph glyph-name="gravecomb" unicode="̀" horiz-adv-x="1" d="M-29 598h-100l-126 137h152z"/><glyph glyph-name="acutecomb" unicode="́" horiz-adv-x="0" d="M-182 735h152l-126-137h-100z"/><glyph glyph-name="tildecomb" unicode="̃" horiz-adv-x="1" d="M-121 610q-24 0-41 6t-31 13-27.5 13-30.5 6-41.5-9.5T-339 612v90q22 16 46.5 24.5t45.5 8.5q24 0 41-6t31-13 27.5-13 30.5-6 41.5 9.5T-29 733v-90q-22-16-46.5-24.5T-121 610z"/><glyph glyph-name="hookabovecomb" unicode="̉" horiz-adv-x="1" d="M-29 709q0-30-20-54t-55-35l-4-20h-86l-3 58q29 3 49 15.5t20 33.5q0 12-8 19.5t-22 7.5q-17 0-28-11.5t-14-28.5l-83 18q14 39 45 65.5t89 26.5q22 0 43.5-5.5T-67 782t27.5-29.5T-29 709z"/><glyph glyph-name="uni0312" unicode="̒" horiz-adv-x="1" d="M-347 719l59 101h70l-37-100h42V600h-134v119z"/><glyph glyph-name="dotbelowcomb" unicode="̣" horiz-adv-x="1" d="M-181-170v125h152v-125h-152z"/><glyph glyph-name="uni037E" unicode=";" horiz-adv-x="265" d="M60 405v135h145V405H60zM205 1l-84-163H40L95 0H60v135h145V1z"/><glyph glyph-name="tonos" unicode="΄" horiz-adv-x="260" d="M81 735h149L127 588H30z"/><glyph glyph-name="dieresistonos" unicode="΅" horiz-adv-x="419" d="M212 848h149L256 721h-95zM30 593v108h132V593H30zm227 0v108h132V593H257z"/><glyph glyph-name="Alphatonos" unicode="Ά" horiz-adv-x="625" d="M462 0l-44 167H196L152 0H5l221 720h171L621 0H462zM224 269h167l-83 315zM47 721h149L93 574H-4z"/><glyph glyph-name="anoteleia" unicode="·" horiz-adv-x="315" d="M85 280v135h145V280H85z"/><glyph glyph-name="Epsilontonos" unicode="Έ" horiz-adv-x="660" d="M580 309H375V113h235V0H225v720h385V605H375V417h205V309zM47 721h149L93 574H-4z"/><glyph glyph-name="Etatonos" unicode="Ή" horiz-adv-x="800" d="M720 720V0H570v310H375V0H225v720h150V418h195v302h150zm-673 1h149L93 574H-4z"/><glyph glyph-name="Iotatonos" unicode="Ί" horiz-adv-x="455" d="M375 720V0H225v720h150zm-328 1h149L93 574H-4z"/><glyph glyph-name="Omicrontonos" unicode="Ό" horiz-adv-x="759" d="M136 360q0 105 21.5 176.5t59 115.5 89 63.5T417 735t111.5-19.5T618 652t59.5-115.5T699 360t-21.5-176.5-59-115.5-89-63.5T417-15 304.5 4.5t-89 63.5T157 183.5 136 360zm153 0q0-76 9-127t25.5-81.5T364 108t53-13 53 13 41 44 26 82 9 126-10 126-27 82-41 44.5-51 13.5-50.5-13-41-44-27-82-9.5-127zM47 721h149L93 574H-4z"/><glyph glyph-name="Upsilontonos" unicode="Ύ" horiz-adv-x="772" d="M767 720L563 288V0H423v288L215 720h162l120-289 130 289h140zm-720 1h149L93 574H-4z"/><glyph glyph-name="Omegatonos" unicode="Ώ" horiz-adv-x="759" d="M416 735q61 0 113-20t89.5-62.5 59-110T699 380q0-66-10.5-113t-27-78.5-37-49T584 115h115V0H456v115q18 7 34.5 23t28.5 46.5 19.5 78T546 380q0 131-36 188.5T416 626q-57 0-91.5-57.5T290 380q0-70 7.5-117.5t19.5-78 28.5-46.5 34.5-23V0H137v115h115q-20 7-40.5 24.5t-37 49-27 78.5T137 380q0 95 20.5 162.5t57.5 110 88 62.5 113 20zM47 721h149L93 574H-4z"/><glyph glyph-name="iotadieresistonos" unicode="ΐ" horiz-adv-x="280" d="M144 829h149L188 702H93zM-38 574v108H94V574H-38zm227 0v108h132V574H189zM70 0v540h140V0H70z"/><glyph glyph-name="Alpha" unicode="Α" horiz-adv-x="626" d="M462 0l-44 167H196L152 0H5l221 720h171L621 0H462zM224 269h167l-83 315z"/><glyph glyph-name="Beta" unicode="Β" horiz-adv-x="609" d="M267 720q60 0 110-8t86-29.5 56.5-59.5 20.5-97q0-26-7-50.5T513 431t-30.5-33.5T444 380q8-2 19.5-5.5T486 366q35-17 56.5-55.5T564 211q0-60-18.5-100.5t-54.5-65-89-35T281 0H80v720h187zm-37-392V102h58q24 0 46 4t39 16 27 33 10 56q0 60-33 88.5T293 328h-63zm0 290V424h53q15 0 33.5 3t35 13.5T379 471t11 55q0 26-10 43.5T354 598t-35.5 15.5T280 618h-50z"/><glyph glyph-name="Gamma" unicode="Γ" horiz-adv-x="507" d="M80 0v720h407V602H230V0H80z"/><glyph glyph-name="Delta" unicode="Δ" horiz-adv-x="626" d="M5 0l221 720h171L621 0H5zm175 104h254L308 584z"/><glyph glyph-name="Epsilon" unicode="Ε" horiz-adv-x="515" d="M435 309H230V113h235V0H80v720h385V605H230V417h205V309z"/><glyph glyph-name="Zeta" unicode="Ζ" horiz-adv-x="555" d="M208 109h287V0H45v117l296 494H68v109h437V606z"/><glyph glyph-name="Eta" unicode="Η" horiz-adv-x="655" d="M575 720V0H425v310H230V0H80v720h150V418h195v302h150z"/><glyph glyph-name="Theta" unicode="Θ" horiz-adv-x="703" d="M254 416h195V308H254v108zM60 360q0 105 23 176.5T145.5 652t92.5 63.5T351 735t113-19.5 93-63.5 63-115.5T643 360t-23-176.5T557.5 68 465 4.5 351-15 237 4.5 144.5 68t-62 115.5T60 360zm153 0q0-76 10.5-127t29-81.5 44-43.5T351 95t54.5 13 44 44 29.5 82 11 126-11.5 126-30.5 82-44.5 44.5T351 626t-52-13-44-44-30.5-82T213 360z"/><glyph glyph-name="Iota" unicode="Ι" horiz-adv-x="310" d="M230 720V0H80v720h150z"/><glyph glyph-name="Kappa" unicode="Κ" horiz-adv-x="619" d="M426 0L230 313V0H80v720h150V420l183 300h158L355 383 609 0H426z"/><glyph glyph-name="Lambda" unicode="Λ" horiz-adv-x="606" d="M440 0L297 570 154 0H5l209 720h173L601 0H440z"/><glyph glyph-name="Mu" unicode="Μ" horiz-adv-x="822" d="M352 0L207 509V0H80v720h186l146-523 140 523h190V0H605v509L464 0H352z"/><glyph glyph-name="Nu" unicode="Ν" horiz-adv-x="668" d="M588 720V0H410L206 523V0H80v720h191l192-516v516h125z"/><glyph glyph-name="Xi" unicode="Ξ" horiz-adv-x="575" d="M50 720h475V593H50v127zm0-593h475V0H50v127zm60 296h355V301H110v122z"/><glyph glyph-name="Omicron" unicode="Ο" horiz-adv-x="683" d="M60 360q0 105 21.5 176.5t59 115.5 89 63.5T341 735t111.5-19.5T542 652t59.5-115.5T623 360t-21.5-176.5-59-115.5-89-63.5T341-15 228.5 4.5t-89 63.5T81 183.5 60 360zm153 0q0-76 9-127t25.5-81.5T288 108t53-13 53 13 41 44 26 82 9 126-10 126-27 82-41 44.5-51 13.5-50.5-13-41-44-27-82-9.5-127z"/><glyph glyph-name="Pi" unicode="Π" horiz-adv-x="655" d="M575 720V0H425v611H230V0H80v720h495z"/><glyph glyph-name="Rho" unicode="Ρ" horiz-adv-x="578" d="M273 720q56 0 106-9.5t87.5-35.5 59.5-72.5T548 482t-22.5-120.5T466 289t-86-35.5-101-9.5h-49V0H80v720h193zm-43-107V351h51q19 0 39 5t36 19 26 39.5 10 67.5-9.5 67.5-26 39.5-37.5 19-44 5h-45z"/><glyph glyph-name="Sigma" unicode="Σ" horiz-adv-x="554" d="M213 108h296V0H45v113l226 252L45 607v113h464V612H213l228-247z"/><glyph glyph-name="Tau" unicode="Τ" horiz-adv-x="544" d="M524 602H346V0H196v602H20v118h504V602z"/><glyph glyph-name="Upsilon" unicode="Υ" horiz-adv-x="562" d="M557 720L353 288V0H213v288L5 720h162l120-289 130 289h140z"/><glyph glyph-name="Phi" unicode="Φ" horiz-adv-x="814" d="M472 750v-77q48-5 99.5-23t94-55 70.5-95 28-142-28-141.5-70.5-94-94-54.5T472 46v-76H342v76q-48 4-99.5 22t-94 54.5-70.5 94T50 358t28 142 70.5 95 94 55 99.5 23v77h130zM190 357q0-57 15-94t38-59.5 49.5-33T342 157v406q-23-4-50-15.5T242.5 513 205 452t-15-95zm434 0q0 57-15 95t-38 61-49.5 34.5T472 563V157q23 3 49.5 13.5t49.5 33 38 59.5 15 94z"/><glyph glyph-name="Chi" unicode="Χ" horiz-adv-x="607" d="M384 391L587 0H410L294 245 171 0H20l206 374L38 720h174l104-211 113 211h142z"/><glyph glyph-name="Psi" unicode="Ψ" horiz-adv-x="802" d="M470 720V260q66 11 95 44.5t29 93.5v322h138V407q0-52-15.5-96.5t-47.5-78-81.5-55.5T470 148V0H334v148q-69 7-119 28.5T133 232t-47.5 78T70 407v313h138V398q0-61 30-94.5t96-44.5v461h136z"/><glyph glyph-name="Omega" unicode="Ω" horiz-adv-x="682" d="M339 735q61 0 113-20t89.5-62.5 59-110T622 380q0-66-10.5-113t-27-78.5-37-49T507 115h115V0H379v115q18 7 34.5 23t28.5 46.5 19.5 78T469 380q0 131-36 188.5T339 626q-57 0-91.5-57.5T213 380q0-70 7.5-117.5t19.5-78 28.5-46.5 34.5-23V0H60v115h115q-20 7-40.5 24.5t-37 49-27 78.5T60 380q0 95 20.5 162.5t57.5 110 88 62.5 113 20z"/><glyph glyph-name="Iotadieresis" unicode="Ϊ" horiz-adv-x="310" d="M-23 760v115h132V760H-23zm227 0v115h132V760H204zm26-40V0H80v720h150z"/><glyph glyph-name="Upsilondieresis" unicode="Ϋ" horiz-adv-x="562" d="M557 720L353 288V0H213v288L5 720h162l120-289 130 289h140zm-452 52v108h132V772H105zm227 0v108h132V772H332z"/><glyph glyph-name="alphatonos" unicode="ά" horiz-adv-x="563" d="M53 271q0 149 49 216.5T250 555q42 0 75-12.5t55-34.5l28 32h85V0h-94l-35 60q-23-32-57.5-51T220-10q-30 0-59.5 12T107 45.5t-39 86T53 271zM274 96q23 0 42.5 9.5T353 129v306q-14 11-30.5 17.5T286 459q-23 0-40.5-7t-29-28-17.5-59-6-99q0-54 6.5-87.5t18-51.5 26-24.5T274 96zm8 639h149L328 588h-97z"/><glyph glyph-name="epsilontonos" unicode="έ" horiz-adv-x="518" d="M273 89q40 0 59.5 23.5T356 168l132-17q-6-30-21.5-59T424 40.5 358.5 4 268-10q-47 0-87.5 9t-70 28.5-46 49.5T48 148q0 31 10 55.5T84.5 245t38.5 26.5 45 11.5q-51 11-77.5 42.5T64 405q0 41 17 69.5t45 46.5 65 26 78 8q85 0 140.5-38.5T483 397l-128-17q-5 31-22.5 54.5T278 458q-32 0-53-14.5T204 392q0-38 21-52.5t52-14.5h43v-94h-45q-37 0-60.5-15.5T191 165q0-45 24-60.5T273 89zm-27 646h149L292 588h-97z"/><glyph glyph-name="etatonos" unicode="ή" horiz-adv-x="582" d="M70 0v540h95l29-63q26 38 63 58.5t88 20.5q37 0 67.5-11t52.5-34.5 34.5-60.5 12.5-89v-531H372v535q0 45-15.5 67T296 454q-26 0-47-11t-39-28V0H70zm219 735h149L335 588h-97z"/><glyph glyph-name="iotatonos" unicode="ί" horiz-adv-x="280" d="M140 735h149L186 588H89zM70 0v540h140V0H70z"/><glyph glyph-name="upsilondieresistonos" unicode="ΰ" horiz-adv-x="577" d="M288 99q22 0 37.5 8t24.5 20 13 26.5 4 26.5v360h140V181q0-48-16-83.5T446 38 377 2t-89-12-89 12-68.5 36T86 97.5 70 181v359h140V180q0-12 3.5-26.5T226 127t24-20 38-8zm1 730h149L333 702h-95zM107 574v108h132V574H107zm227 0v108h132V574H334z"/><glyph glyph-name="alpha" unicode="α" horiz-adv-x="563" d="M53 271q0 149 49 216.5T250 555q42 0 75-12.5t55-34.5l28 32h85V0h-94l-35 60q-23-32-57.5-51T220-10q-30 0-59.5 12T107 45.5t-39 86T53 271zM274 96q23 0 42.5 9.5T353 129v306q-14 11-30.5 17.5T286 459q-23 0-40.5-7t-29-28-17.5-59-6-99q0-54 6.5-87.5t18-51.5 26-24.5T274 96z"/><glyph glyph-name="beta" unicode="β" horiz-adv-x="609" d="M564 204q0-100-55-157T360-10q-62 0-97.5 19T210 47v-217H70v683q0 57 17.5 98.5t49 69 75 41T308 735q50 0 91.5-13t71-37 45.5-58 16-75q0-70-29-108t-70-55q22-4 45.5-14t42.5-31 31-55 12-85zm-354-49q6-8 15.5-19t23.5-20.5 33-16 44-6.5q45 0 72 26.5t27 89.5q0 34-8.5 57t-25 37.5-42 21.5-59.5 9v91q24 2 44 8.5t34.5 20 22 36T398 547q0 40-24 66.5T305 640q-18 0-35-5t-30.5-18-21.5-35-8-55V155z"/><glyph glyph-name="gamma" unicode="γ" horiz-adv-x="512" d="M187-170V22L5 540h151l106-407 103 407h142L327 11v-181H187z"/><glyph glyph-name="delta" unicode="δ" horiz-adv-x="598" d="M538 250q0-75-21.5-125t-56-80-78-42.5T296-10q-45 0-88.5 12.5t-78 42.5T74 125 53 250t20 126 50.5 81.5 66 44T256 515q26 0 47.5-4t41.5-14q-27 23-60 42.5t-67.5 36-68 30T88 630v90h412V610H340q100-48 149-140.5T538 250zm-341 0q0-50 8.5-82t22.5-50 32-24.5 37-6.5 36.5 6.5 31 24 22 49.5 8.5 83q0 54-9.5 87t-24 50.5-32 23.5-33.5 6-33.5-6-32-23.5-24-50.5-9.5-87z"/><glyph glyph-name="epsilon" unicode="ε" horiz-adv-x="518" d="M273 89q40 0 59.5 23.5T356 168l132-17q-6-30-21.5-59T424 40.5 358.5 4 268-10q-47 0-87.5 9t-70 28.5-46 49.5T48 148q0 31 10 55.5T84.5 245t38.5 26.5 45 11.5q-51 11-77.5 42.5T64 405q0 41 17 69.5t45 46.5 65 26 78 8q85 0 140.5-38.5T483 397l-128-17q-5 31-22.5 54.5T278 458q-32 0-53-14.5T204 392q0-38 21-52.5t52-14.5h43v-94h-45q-37 0-60.5-15.5T191 165q0-45 24-60.5T273 89z"/><glyph glyph-name="zeta" unicode="ζ" horiz-adv-x="500" d="M204 233q0-34 6.5-55t23-34 44.5-20.5 70-13.5 68.5-15.5 42-24 21-34T485-8q0-43-16.5-85T423-180l-93 19q15 26 25.5 51T366-63q0 33-23.5 43.5T264-4q-29 3-64.5 12t-66 32.5-51 66T62 219q0 72 15.5 132.5T121 461t67.5 86.5T276 610H60v110h403v-90q-56-25-103.5-63t-82-88-54-111.5T204 233z"/><glyph glyph-name="eta" unicode="η" horiz-adv-x="582" d="M70 0v540h95l29-63q26 38 63 58.5t88 20.5q37 0 67.5-11t52.5-34.5 34.5-60.5 12.5-89v-531H372v535q0 45-15.5 67T296 454q-26 0-47-11t-39-28V0H70z"/><glyph glyph-name="theta" unicode="θ" horiz-adv-x="575" d="M53 360q0 99 16 170t46.5 116.5 74 67T288 735t98.5-21.5 73.5-67T506 530t16-170-16-169-46-115-73.5-65.5T288-10t-98.5 20.5-74 65-46.5 115T53 360zm235 278q-23 0-40-12t-29-39-18.5-71.5T193 406h191q-2 64-8.5 108.5t-18.5 72-29 39.5-40 12zm1-551q22 0 39 11t29 37 18.5 68 8.5 105H194q2-63 8.5-105.5t18.5-68T249.5 98 289 87z"/><glyph glyph-name="iota" unicode="ι" horiz-adv-x="280" d="M70 0v540h140V0H70z"/><glyph glyph-name="kappa" unicode="κ" horiz-adv-x="550" d="M70 0v540h140V320l152 220h150L331 289 540 0H373L210 232V0H70z"/><glyph glyph-name="lambda" unicode="λ" horiz-adv-x="521" d="M366 0L254 424 149 0H10l162 540h49l-64 195h139L511 0H366z"/><glyph glyph-name="mu" unicode="μ" horiz-adv-x="575" d="M210 540V181q0-45 13.5-67T282 92q24 0 44.5 6.5T365 116v424h140V0h-95l-25 52q-19-29-44.5-45.5T273-10q-28 0-63 11v-171H70v710h140z"/><glyph glyph-name="nu" unicode="ν" horiz-adv-x="512" d="M507 540L347 0H165L5 540h151l106-427 103 427h142z"/><glyph glyph-name="xi" unicode="ξ" horiz-adv-x="522" d="M502-8q0-43-16.5-85T440-180l-93 19q15 26 25.5 51T383-63q0 28-22.5 40.5T287-4q-36 4-76.5 16T136 48.5 80 112t-22 96q0 60 28 98.5t66 55.5q25 10 48 15-10 2-19 4-10 3-21 7-32 14-54.5 39T83 494q0 45 26.5 73.5T182 613H53v107h393v-97h-33q-41 0-77-7t-62.5-20.5-41.5-34-15-47.5 12-44.5 30.5-27.5 40.5-13.5 42-3.5h58V317h-79q-20 0-42-4.5t-40-15-30-28.5-12-45q0-28 8.5-47.5t26.5-32 45-20 64-12.5q45-6 76-15.5t50-24 27-34T502-8z"/><glyph glyph-name="omicron" unicode="ο" horiz-adv-x="585" d="M53 270q0 83 21 138t55 87.5 77 46 87 13.5 87-13 76.5-45.5T511 409t21-139-21-138-54.5-85.5-76.5-44T293-10 206 2.5 129 47t-55 86-21 137zm144 0q0-57 6.5-92.5t19.5-56T253.5 94t40.5-7q22 0 40 7t30 27 18.5 55.5T389 270t-6.5 94.5-19 57.5-30.5 28.5-40 7.5q-23 0-40.5-8t-30-29-19-57.5T197 270z"/><glyph glyph-name="pi" unicode="π" horiz-adv-x="588" d="M562 429h-75V150q0-33 10-41t24-8q8 0 16.5 1t10.5 2L563 1q-13-4-34.5-6.5T493-8q-36 0-63 8t-45 27-27 50.5-9 78.5v273H239V0H101v429H22v111h540V429z"/><glyph glyph-name="rho" unicode="ρ" horiz-adv-x="573" d="M70-170v519q0 52 17.5 90.5t47.5 64 70.5 38.5 87.5 13q49 0 91-12.5t72-44 47-86T520 274q0-74-13.5-128T467 57.5t-63-51T321-10q-38 0-65.5 12.5T210 35v-205H70zm140 285q14-13 31-21t39-8q23 0 41.5 7t31.5 28 20 58.5 7 99.5q0 56-8 89.5T351.5 420t-28 23.5T292 449q-32 0-57-20.5T210 362V115z"/><glyph glyph-name="sigma1" unicode="ς" horiz-adv-x="522" d="M483-8q0-43-16.5-85T421-180l-93 19q15 26 25.5 51T364-63q0 26-15.5 40.5T285-3q-44 4-86 19t-74.5 46.5-52 83T53 275q0 77 17 130.5t47.5 86.5 72 48 89.5 15q57 0 95.5-16.5T437 496t36-57 15-59l-133-20q-4 97-75 97-15 0-29.5-6T224 425.5t-19-56-7-97.5q0-44 7.5-72.5t26-46 51-26.5 83.5-15q67-8 92-38.5T483-8z"/><glyph glyph-name="sigma" unicode="σ" horiz-adv-x="585" d="M532 270q0-84-21-138t-54.5-85.5-76.5-44T293-10 206 2.5 129 47t-55 86-21 137q0 90 25 145t63 85.5 83.5 41.5 87.5 13l241 14V458h-87q25-27 45.5-72.5T532 270zm-335 0q0-57 6.5-92.5t19.5-56T253.5 94t40.5-7q22 0 40 7t30 27 18.5 55.5T389 270q0 43-4.5 74t-12 53.5-17.5 37-20 23.5q-38-1-64-9.5t-42.5-29-24-56.5-7.5-93z"/><glyph glyph-name="tau" unicode="τ" horiz-adv-x="496" d="M476 431H317V0H178v431H20v109h456V431z"/><glyph glyph-name="upsilon" unicode="υ" horiz-adv-x="577" d="M288 99q22 0 37.5 8t24.5 20 13 26.5 4 26.5v360h140V181q0-48-16-83.5T446 38 377 2t-89-12-89 12-68.5 36T86 97.5 70 181v359h140V180q0-12 3.5-26.5T226 127t24-20 38-8z"/><glyph glyph-name="phi" unicode="φ" horiz-adv-x="772" d="M719 273q0-72-18-123t-53-84-87-50.5T442-7v-163H322V-7q-65 5-115 22.5T122.5 66t-52 84T53 273q0 69 11 118t29 82.5 42 53 50 28.5l86-56q-17-11-32.5-27T212 430.5t-17.5-64T188 273q0-51 9-84.5t26-54.5 42-31 57-13v438q35 11 84.5 19t106.5 8q45 0 83-12.5t65.5-44T704 412t15-139zm-137 0q0 55-5.5 91t-16 57-25.5 29-34 8q-17 0-30-2t-29-7V90q34 3 60.5 13t44 30.5T573 188t9 85z"/><glyph glyph-name="chi" unicode="χ" horiz-adv-x="541" d="M347 211l179-381H362L260 87 157-170H15l174 374L28 540h159l90-218 82 218h134z"/><glyph glyph-name="psi" unicode="ψ" horiz-adv-x="742" d="M435 540V99q58 11 83.5 42t25.5 76v323h128V232q0-42-13-81.5T617.5 79 544 24.5 435-6v-164H309V-6q-65 7-110.5 29.5t-74 55-41.5 72T70 232v308h128V217q0-45 25.5-76T309 99v441h126z"/><glyph glyph-name="omega" unicode="ω" horiz-adv-x="776" d="M388 66q-14-30-48.5-53T251-10q-92 0-145 66T53 263q0 88 27.5 161T168 555l102-56q-22-22-37.5-45T207 403t-14.5-63.5T188 258q0-88 18-124.5T260 97q16 0 28.5 5.5t21.5 20 14 39.5 5 65v159h118V227q0-40 5-65t14-39.5 21.5-20T516 97q36 0 54 36.5T588 258q0 46-4.5 81.5t-14.5 64-25.5 51.5-37.5 45l102 55q60-58 87.5-131T723 263q0-141-53-207T525-10q-54 0-88.5 23T388 66z"/><glyph glyph-name="iotadieresis" unicode="ϊ" horiz-adv-x="280" d="M-37 610v115H95V610H-37zm227 0v115h132V610H190zM70 0v540h140V0H70z"/><glyph glyph-name="upsilondieresis" unicode="ϋ" horiz-adv-x="577" d="M288 99q22 0 37.5 8t24.5 20 13 26.5 4 26.5v360h140V181q0-48-16-83.5T446 38 377 2t-89-12-89 12-68.5 36T86 97.5 70 181v359h140V180q0-12 3.5-26.5T226 127t24-20 38-8zM107 606v115h132V606H107zm227 0v115h132V606H334z"/><glyph glyph-name="omicrontonos" unicode="ό" horiz-adv-x="585" d="M53 270q0 83 21 138t55 87.5 77 46 87 13.5 87-13 76.5-45.5T511 409t21-139-21-138-54.5-85.5-76.5-44T293-10 206 2.5 129 47t-55 86-21 137zm144 0q0-57 6.5-92.5t19.5-56T253.5 94t40.5-7q22 0 40 7t30 27 18.5 55.5T389 270t-6.5 94.5-19 57.5-30.5 28.5-40 7.5q-23 0-40.5-8t-30-29-19-57.5T197 270zm94 465h149L337 588h-97z"/><glyph glyph-name="upsilontonos" unicode="ύ" horiz-adv-x="577" d="M288 99q22 0 37.5 8t24.5 20 13 26.5 4 26.5v360h140V181q0-48-16-83.5T446 38 377 2t-89-12-89 12-68.5 36T86 97.5 70 181v359h140V180q0-12 3.5-26.5T226 127t24-20 38-8zm-10 636h149L324 588h-97z"/><glyph glyph-name="omegatonos" unicode="ώ" horiz-adv-x="776" d="M388 66q-14-30-48.5-53T251-10q-92 0-145 66T53 263q0 88 27.5 161T168 555l102-56q-22-22-37.5-45T207 403t-14.5-63.5T188 258q0-88 18-124.5T260 97q16 0 28.5 5.5t21.5 20 14 39.5 5 65v159h118V227q0-40 5-65t14-39.5 21.5-20T516 97q36 0 54 36.5T588 258q0 46-4.5 81.5t-14.5 64-25.5 51.5-37.5 45l102 55q60-58 87.5-131T723 263q0-141-53-207T525-10q-54 0-88.5 23T388 66zm-21 669h149L413 588h-97z"/><glyph glyph-name="afii10023" unicode="Ё" horiz-adv-x="515" d="M95 772v108h132V772H95zm227 0v108h132V772H322zm113-463H230V113h235V0H80v720h385V605H230V417h205V309z"/><glyph glyph-name="afii10051" unicode="Ђ" horiz-adv-x="725" d="M660 244q0-79-11.5-129T615 36 561-4t-72-11q-23 0-52 4.5T390 0v105q13-3 30-5.5t29-2.5q14 0 25.5 5.5t19.5 22 12 46.5 4 78q0 47-7 76.5t-18 46-25.5 22T429 399q-26 0-46-7.5T346 373V0H196v603H20v117h524V603H346V460q57 45 148 45 30 0 59.5-9.5t53-37.5 38.5-79.5T660 244z"/><glyph glyph-name="afii10052" unicode="Ѓ" horiz-adv-x="507" d="M80 0v720h407V602H230V0H80zm209 885h152L311 768H204z"/><glyph glyph-name="afii10053" unicode="Є" horiz-adv-x="607" d="M330 94q44 0 64.5 26.5T424 192l143-25q-8-38-25-71t-45.5-57.5T426-.5 326-15Q278-15 230.5.5T145 58 83.5 173 60 360q0 112 23 185t61 115 87 58.5T331 735t89-13 66-36 45.5-54.5T558 563l-139-27q-8 43-29 67t-60 24q-21 0-39.5-9.5t-33-32.5-25-62-14.5-99h244V318H217q2-69 11.5-112.5t24.5-68 35-34 42-9.5z"/><glyph glyph-name="afii10054" unicode="Ѕ" horiz-adv-x="587" d="M292 629q-36 0-62.5-17.5T203 553q0-14 3-26.5t13.5-25T251 476t58-27q47-18 88.5-39t72.5-49.5 49-65.5 18-88q0-44-13.5-84T480 52.5t-77.5-49T287-15q-65 0-110 18.5T103 49t-44 58-19 56l141 20q2-17 10.5-33.5t22.5-29 33.5-20T290 93q16 0 33 4.5t31 15 22.5 27.5 8.5 43q0 29-13 48.5T336 266t-55 28.5-71 31.5q-45 20-75 42t-48.5 47.5-26.5 55-8 65.5q0 44 16.5 80.5t47.5 63 76.5 41T296 735q59 0 100.5-16t68.5-40.5 42-54 21-55.5l-139-25q-5 33-30 59t-67 26z"/><glyph glyph-name="afii10055" unicode="І" horiz-adv-x="310" d="M230 720V0H80v720h150z"/><glyph glyph-name="afii10056" unicode="Ї" horiz-adv-x="310" d="M-23 770v115h132V770H-23zm227 0v115h132V770H204zm26-50V0H80v720h150z"/><glyph glyph-name="afii10057" unicode="Ј" horiz-adv-x="389" d="M164 720h150V192q0-42-8.5-79.5t-30.5-66-60.5-45T117-15q-28 0-58.5 4.5T10 0v112q17-5 37-8t34-3q18 0 33 3.5t26.5 14 17.5 30 6 51.5v520z"/><glyph glyph-name="afii10058" unicode="Љ" horiz-adv-x="951" d="M185 720h397V430h48q67 0 119.5-11.5t88.5-37 54.5-67T911 214q0-60-18.5-101T838 47t-89-36T628 0H432v612H307l-56-390q-10-71-31.5-114.5T167 40 96 8 10 0v112q19 0 35.5 4T75 131t22 31 14 53zm397-393V102h53q24 0 46 4.5t39 17 27 34 10 56.5q0 60-33 86.5T640 327h-58z"/><glyph glyph-name="afii10059" unicode="Њ" horiz-adv-x="944" d="M575 720V430h48q67 0 119.5-11.5t88.5-37 54.5-67T904 214q0-60-18.5-101T831 47t-89-36T621 0H425v310H230V0H80v720h150V418h195v302h150zm0-393V102h53q24 0 46 4.5t39 17 27 34 10 56.5q0 60-33 86.5T633 327h-58z"/><glyph glyph-name="afii10060" unicode="Ћ" horiz-adv-x="725" d="M505 0v309q0 45-14 67t-59 22q-26 0-47-10t-39-27V0H196v603H20v117h524V603H346V444q26 29 61.5 45t80.5 16q79 0 123-45.5T655 310V0H505z"/><glyph glyph-name="afii10061" unicode="Ќ" horiz-adv-x="619" d="M426 0L230 313V0H80v720h150V420l183 300h158L355 383 609 0H426zm-83 885h152L365 768H258z"/><glyph glyph-name="afii10062" unicode="Ў" horiz-adv-x="531" d="M267 762q-33 0-62 5.5T153 787t-39 37.5T92 885h119q5-25 20.5-33t35.5-8 35.5 8 20.5 33h119q-6-37-22-60.5T381 787t-52-19.5-62-5.5zm88-617q-12-39-26-69t-35-50.5T242.5-5 167-15q-20 0-46.5 4.5T77 0v107q17-5 36-8.5t33-3.5q36 0 53 15t22 50h-50L10 720h156l99-438 110 438h146z"/><glyph glyph-name="afii10145" unicode="Џ" horiz-adv-x="655" d="M268-135L256 0H80v720h150V109h195v611h150V0H399l-11-135H268z"/><glyph glyph-name="afii10017" unicode="А" horiz-adv-x="626" d="M462 0l-44 167H196L152 0H5l221 720h171L621 0H462zM224 269h167l-83 315z"/><glyph glyph-name="afii10018" unicode="Б" horiz-adv-x="604" d="M502 720V610H230V430h48q67 0 119.5-11.5t88.5-37 54.5-67T559 214q0-60-18.5-101T486 47t-89-36T276 0H80v720h422zM230 327V102h53q24 0 46 4.5t39 17 27 34 10 56.5q0 60-33 86.5T288 327h-58z"/><glyph glyph-name="afii10019" unicode="В" horiz-adv-x="609" d="M267 720q60 0 110-8t86-29.5 56.5-59.5 20.5-97q0-26-7-50.5T513 431t-30.5-33.5T444 380q8-2 19.5-5.5T486 366q35-17 56.5-55.5T564 211q0-60-18.5-100.5t-54.5-65-89-35T281 0H80v720h187zm-37-392V102h58q24 0 46 4t39 16 27 33 10 56q0 60-33 88.5T293 328h-63zm0 290V424h53q15 0 33.5 3t35 13.5T379 471t11 55q0 26-10 43.5T354 598t-35.5 15.5T280 618h-50z"/><glyph glyph-name="afii10020" unicode="Г" horiz-adv-x="507" d="M80 0v720h407V602H230V0H80z"/><glyph glyph-name="afii10021" unicode="Д" horiz-adv-x="653" d="M493-135L473 0H150l-20-135H10v243h38q49 27 60 107l69 505h396V108h40v-243H493zm-67 243v504H298l-46-354q-8-58-26.5-92.5T184 108h242z"/><glyph glyph-name="afii10022" unicode="Е" horiz-adv-x="515" d="M435 309H230V113h235V0H80v720h385V605H230V417h205V309z"/><glyph glyph-name="afii10024" unicode="Ж" horiz-adv-x="878" d="M206 720l163-310v310h140V410l163 310h158L639 383 868 0H685L509 323V0H369v323L193 0H10l229 383L48 720h158z"/><glyph glyph-name="afii10025" unicode="З" horiz-adv-x="560" d="M272 95q17 0 33 5t29 17.5 20.5 34T362 205q0 41-11.5 65.5T321 308t-40 17-43 4h-50v110h58q16 0 34 4t33 15 25 30 10 48q0 28-9 45.5T316.5 609 288 622.5t-26 3.5q-42 0-65.5-28.5T168 529L30 551q9 39 29 72.5t50 58.5 70.5 39 90.5 14q40 0 81-10.5t74-33 53.5-58T499 549v-5q0-31-12-57.5T456.5 440 416 407t-41-17q9-2 20-5.5t24-8.5q19-8 36.5-22.5T486 318t21-48.5 8-61.5q0-57-20-98.5T442 40 365.5-1.5 275-15q-58 0-101 17t-73 44-47 61-23 67l141 17q1-16 8-33t19.5-31 30.5-23 42-9z"/><glyph glyph-name="afii10026" unicode="И" horiz-adv-x="686" d="M223 720V280l239 390v50h144V0H463v446L224 50V0H80v720h143z"/><glyph glyph-name="afii10027" unicode="Й" horiz-adv-x="686" d="M223 720V280l239 390v50h144V0H463v446L224 50V0H80v720h143zm119 42q-33 0-62 5.5T228 787t-39 37.5-22 60.5h119q5-25 20.5-33t35.5-8 35.5 8 20.5 33h119q-6-37-22-60.5T456 787t-52-19.5-62-5.5z"/><glyph glyph-name="afii10028" unicode="К" horiz-adv-x="619" d="M426 0L230 313V0H80v720h150V420l183 300h158L355 383 609 0H426z"/><glyph glyph-name="afii10029" unicode="Л" horiz-adv-x="662" d="M185 720h397V0H432v612H307l-56-390q-10-71-31.5-114.5T167 40 96 8 10 0v112q19 0 35.5 4T75 131t22 31 14 53z"/><glyph glyph-name="afii10030" unicode="М" horiz-adv-x="822" d="M352 0L207 509V0H80v720h186l146-523 140 523h190V0H605v509L464 0H352z"/><glyph glyph-name="afii10031" unicode="Н" horiz-adv-x="655" d="M575 720V0H425v310H230V0H80v720h150V418h195v302h150z"/><glyph glyph-name="afii10032" unicode="О" horiz-adv-x="683" d="M60 360q0 105 21.5 176.5t59 115.5 89 63.5T341 735t111.5-19.5T542 652t59.5-115.5T623 360t-21.5-176.5-59-115.5-89-63.5T341-15 228.5 4.5t-89 63.5T81 183.5 60 360zm153 0q0-76 9-127t25.5-81.5T288 108t53-13 53 13 41 44 26 82 9 126-10 126-27 82-41 44.5-51 13.5-50.5-13-41-44-27-82-9.5-127z"/><glyph glyph-name="afii10033" unicode="П" horiz-adv-x="655" d="M575 720V0H425v611H230V0H80v720h495z"/><glyph glyph-name="afii10034" unicode="Р" horiz-adv-x="578" d="M273 720q56 0 106-9.5t87.5-35.5 59.5-72.5T548 482t-22.5-120.5T466 289t-86-35.5-101-9.5h-49V0H80v720h193zm-43-107V351h51q19 0 39 5t36 19 26 39.5 10 67.5-9.5 67.5-26 39.5-37.5 19-44 5h-45z"/><glyph glyph-name="afii10035" unicode="С" horiz-adv-x="603" d="M327 94q45 0 70.5 33t29.5 85l141-15q-5-34-20-71.5T503.5 57t-74-51.5T322-15q-48 0-95 15.5T143 58 83 173 60 360q0 112 23.5 185T145 660t87.5 58.5T333 735q55 0 95.5-18.5T497 669t43.5-65 21.5-71l-139-17q-4 24-10.5 44T395 595t-27 23.5-38 8.5q-23 0-43-12t-36-42-25-82-9-131q0-80 8.5-131.5t23-81.5 34.5-41.5T327 94z"/><glyph glyph-name="afii10036" unicode="Т" horiz-adv-x="544" d="M524 602H346V0H196v602H20v118h504V602z"/><glyph glyph-name="afii10037" unicode="У" horiz-adv-x="531" d="M355 145q-12-39-26-69t-35-50.5T242.5-5 167-15q-20 0-46.5 4.5T77 0v107q17-5 36-8.5t33-3.5q36 0 53 15t22 50h-50L10 720h156l99-438 110 438h146z"/><glyph glyph-name="afii10038" unicode="Ф" horiz-adv-x="814" d="M472 750v-77q48-5 99.5-23t94-55 70.5-95 28-142-28-141.5-70.5-94-94-54.5T472 46v-76H342v76q-48 4-99.5 22t-94 54.5-70.5 94T50 358t28 142 70.5 95 94 55 99.5 23v77h130zM190 357q0-57 15-94t38-59.5 49.5-33T342 157v406q-23-4-50-15.5T242.5 513 205 452t-15-95zm434 0q0 57-15 95t-38 61-49.5 34.5T472 563V157q23 3 49.5 13.5t49.5 33 38 59.5 15 94z"/><glyph glyph-name="afii10039" unicode="Х" horiz-adv-x="607" d="M384 391L587 0H410L294 245 171 0H20l206 374L38 720h174l104-211 113 211h142z"/><glyph glyph-name="afii10040" unicode="Ц" horiz-adv-x="649" d="M80 720h150V109h185v611h150V109h40v-244H485L468 0H80v720z"/><glyph glyph-name="afii10041" unicode="Ч" horiz-adv-x="632" d="M258 243q-41 0-75.5 11T123 290.5 84 357 70 459v261h150V460q0-37 9-58.5t22.5-32T280 356t27-3q23 0 49 2.5t47 5.5v359h149V0H403v255q-27-5-63.5-8.5T258 243z"/><glyph glyph-name="afii10042" unicode="Ш" horiz-adv-x="913" d="M80 0v720h150V109h157v611h139V109h157v611h150V0H80z"/><glyph glyph-name="afii10043" unicode="Щ" horiz-adv-x="917" d="M80 0v720h150V109h157v611h139V109h157v611h150V109h40v-244H753L736 0H80z"/><glyph glyph-name="afii10044" unicode="Ъ" horiz-adv-x="646" d="M10 720h277V440h38q135 0 208-51.5T606 219q0-60-18.5-102T533 49t-89-37.5T323 0H137v610H10v110zm277-383V102h43q24 0 46 5.5t39 18.5 27 35.5 10 57.5q0 60-33 89t-84 29h-48z"/><glyph glyph-name="afii10045" unicode="Ы" horiz-adv-x="879" d="M799 720V0H649v720h150zm-569 0V440h38q135 0 208-51.5T549 219q0-60-18.5-102T476 49t-89-37.5T266 0H80v720h150zm0-383V102h43q24 0 46 5.5t39 18.5 27 35.5 10 57.5q0 60-33 89t-84 29h-48z"/><glyph glyph-name="afii10046" unicode="Ь" horiz-adv-x="589" d="M230 720V440h38q135 0 208-51.5T549 219q0-60-18.5-102T476 49t-89-37.5T266 0H80v720h150zm0-383V102h43q24 0 46 5.5t39 18.5 27 35.5 10 57.5q0 60-33 89t-84 29h-48z"/><glyph glyph-name="afii10047" unicode="Э" horiz-adv-x="607" d="M287 94q22 0 41 10t33 35.5 22.5 69T394 318H163v106h230q-3 63-12.5 102.5t-23.5 62-32.5 30.5-39.5 8q-38 0-64-24t-34-67L47 563q9 37 30 68.5t52 54.5 70.5 36 86.5 13q54 0 102-15.5t83-57.5 55.5-115T547 360t-22-187-58-115T383.5.5 285-15q-53 0-95 14.5t-72.5 39-50 57.5T40 167l143 25q9-45 34-71.5T287 94z"/><glyph glyph-name="afii10048" unicode="Ю" horiz-adv-x="931" d="M230 720V418h80q6 88 29.5 148.5t60 98 85 54T589 735q60 0 111.5-19.5T790 652t59.5-115.5T871 360t-21.5-176.5-59-115.5-89-63.5T589-15q-57 0-106 17t-86 55-60 100.5T309 310h-79V0H80v720h150zm231-360q0-76 9-127t25.5-81.5T536 108t53-13 53 13 41 44 26 82 9 126-10 126-27 82-41 44.5-51 13.5-50.5-13-41-44-27-82-9.5-127z"/><glyph glyph-name="afii10049" unicode="Я" horiz-adv-x="603" d="M10 0l172 298q-28 12-51 28.5t-39.5 40-25.5 55-9 72.5q0 64 20.5 107t56.5 69.5 85 38T325 720h198V0H373v267h-48L184 0H10zm313 612q-21 0-41-4.5t-35.5-17-24.5-36-9-60.5q0-35 9.5-58t24.5-36.5 33.5-19.5 36.5-6h56v238h-50z"/><glyph glyph-name="afii10065" unicode="а" horiz-adv-x="545" d="M386 0l-31 58q-21-29-56.5-48.5T208-10q-27 0-56.5 9T97 28 56 80t-16 78q0 41 16 72.5t43.5 54T163 320t77 18l95 13v33q0 78-67 78-28 0-48.5-16.5T194 394L59 414q8 25 23.5 50.5T124 510t63.5 32.5T278 555q94 0 145.5-45T475 366V0h-89zM262 89q36 0 73 25v154l-57-9q-45-8-72-27t-27-59q0-26 7.5-42.5T206 105t27-12.5 29-3.5z"/><glyph glyph-name="afii10066" unicode="б" horiz-adv-x="595" d="M340 603q-32-5-57.5-10.5t-45-16.5-32-30.5T187 494q25 27 57.5 44t80.5 17q42 0 80-13t67-45.5 46-87.5 17-139q0-80-19-134t-51.5-86.5-75.5-46T298-10q-50 0-93.5 17.5t-75.5 52-50.5 87T60 270q0 91 8 164.5T98 561t62 85.5T263 689q27 4 44 10t26 14 12 17 3 20h141q0-31-6.5-55.5t-23.5-43-45.5-30.5-73.5-18zM201 270q0-53 7.5-88t21-56T261 96t38-9q21 0 38 7t29.5 27 19 55.5T392 270q0 54-6.5 90T367 417.5 337.5 448t-39.5 9q-18 0-35.5-7t-31-27.5-22-57T201 270z"/><glyph glyph-name="afii10067" unicode="в" horiz-adv-x="559" d="M277 540q53 0 93.5-6.5t68-22.5 41.5-43 14-69q0-40-25-72.5T396 286q25-3 47-12t39-25 27-39 10-53q0-40-12.5-69.5t-40.5-49-73-29T284 0H70v540h207zm-67-304V95h74q45 0 68 14.5t23 57.5q0 34-23.5 51.5T289 236h-79zm0 208V327h78q10 0 22 2t22.5 8.5 17 18.5 6.5 33q0 29-19.5 42T282 444h-72z"/><glyph glyph-name="afii10068" unicode="г" horiz-adv-x="438" d="M70 0v540h348V437H210V0H70z"/><glyph glyph-name="afii10069" unicode="д" horiz-adv-x="588" d="M10-115v220h41q19 13 32.5 35t19.5 60l55 340h360V105h35v-220h-98L437 0H134l-23-115H10zm369 220v332H272l-38-230q-5-34-20-59t-33-43h198z"/><glyph glyph-name="afii10070" unicode="е" horiz-adv-x="546" d="M287 91q34 0 53.5 19t25.5 48l127-20q-8-27-24-53.5T427 37 364.5 3 279-10q-46 0-87 15t-72 48-49 86.5T53 270q0 79 17.5 133.5t48.5 88 72 48.5 88 15q64 0 106-21.5t67.5-63.5 36-102.5T499 229H196q3-42 11.5-69t20.5-42.5 27-21 32-5.5zm-4 374q-17 0-32-5t-27-20.5-20-44-10-74.5h174q-1 42-7.5 70t-18 44.5-26.5 23-33 6.5z"/><glyph glyph-name="afii10072" unicode="ж" horiz-adv-x="748" d="M182 540l124-224v224h136V316l124 224h144L554 289 738 0H578L442 237V0H306v237L170 0H10l180 289L38 540h144z"/><glyph glyph-name="afii10073" unicode="з" horiz-adv-x="508" d="M245 89q16 0 30.5 3.5t26 12T320 128t7 38q0 36-24.5 50.5T241 231h-45v94h43q31 0 53 14.5t22 52.5q0 37-22.5 51.5T243 458q-38 0-57.5-23.5T161 380L33 397q9 40 30.5 69.5t50.5 49 64.5 29.5 73.5 10q40 0 77-8t65-26 44.5-46.5T455 405q0-48-28-78.5T348 285q23-2 45-10.5t39-24.5 27.5-40 10.5-58q0-45-19-75.5t-50-50-70.5-28T251-10q-49 0-87.5 12.5T97 36 52 85.5 30 147l132 17q4-32 25-53.5T245 89z"/><glyph glyph-name="afii10074" unicode="и" horiz-adv-x="613" d="M202 540V218l208 292v30h133V0H410v316L202 30V0H70v540h132z"/><glyph glyph-name="afii10075" unicode="й" horiz-adv-x="613" d="M304 602q-33 0-62 6t-52 21-39 41-22 65h119q5-33 17.5-47t38.5-14 38.5 14 17.5 47h119q-6-39-22-65t-39-41-52-21-62-6zm-102-62V218l208 292v30h133V0H410v316L202 30V0H70v540h132z"/><glyph glyph-name="afii10076" unicode="к" horiz-adv-x="550" d="M70 0v540h140V320l152 220h150L331 289 540 0H373L210 232V0H70z"/><glyph glyph-name="afii10077" unicode="л" horiz-adv-x="587" d="M517 0H377v437H266l-32-230q-9-62-24.5-102T168 41.5 103.5 9 10 0v105q48 0 67 21.5t25 73.5l46 340h369V0z"/><glyph glyph-name="afii10078" unicode="м" horiz-adv-x="750" d="M316 0L190 382V0H70v540h189l116-373 113 373h192V0H550v382L428 0H316z"/><glyph glyph-name="afii10079" unicode="н" horiz-adv-x="602" d="M532 540V0H392v218H210V0H70v540h140V321h182v219h140z"/><glyph glyph-name="afii10080" unicode="о" horiz-adv-x="585" d="M53 270q0 83 21 138t55 87.5 77 46 87 13.5 87-13 76.5-45.5T511 409t21-139-21-138-54.5-85.5-76.5-44T293-10 206 2.5 129 47t-55 86-21 137zm144 0q0-57 6.5-92.5t19.5-56T253.5 94t40.5-7q22 0 40 7t30 27 18.5 55.5T389 270t-6.5 94.5-19 57.5-30.5 28.5-40 7.5q-23 0-40.5-8t-30-29-19-57.5T197 270z"/><glyph glyph-name="afii10081" unicode="п" horiz-adv-x="602" d="M532 0H392v436H210V0H70v540h462V0z"/><glyph glyph-name="afii10082" unicode="р" horiz-adv-x="555" d="M70-170v710h131l2-47q24 29 58 45.5t82 16.5q30 0 58.5-12t51-43.5 36-86T502 274q0-149-47-216.5T314-10q-36 0-61.5 11T210 30v-200H70zm215 619q-23 0-41-9.5T210 416V111q12-11 27.5-18t35.5-7q22 0 39 7t28 28 16.5 58.5T362 279q0 54-6 87.5T339.5 418 315 442.5t-30 6.5z"/><glyph glyph-name="afii10083" unicode="с" horiz-adv-x="528" d="M280 457q-15 0-29.5-6T224 425.5t-19-56-7-97.5 8-97 20-55.5T253 94t29-6q19 0 32.5 8t22 21 13 30.5T356 184l138-16q-6-32-20-63.5t-39.5-57T371 6t-91-16q-45 0-86 13t-72.5 45.5-50 87.5T53 275q0 77 17 130.5t47.5 86.5 72 48 89.5 15q57 0 95.5-16.5T437 496t36-57 15-59l-133-20q-4 97-75 97z"/><glyph glyph-name="afii10084" unicode="т" horiz-adv-x="496" d="M476 431H317V0H178v431H20v109h456V431z"/><glyph glyph-name="afii10085" unicode="у" horiz-adv-x="511" d="M340-15q-12-39-26-67.5t-34-47-48.5-27T162-165q-20 0-46 3.5T72-153v100q18-5 38-7t31-2q36 0 52 13.5T214 0h-46L5 540h147l102-428 116 428h136z"/><glyph glyph-name="afii10086" unicode="ф" horiz-adv-x="756" d="M703 273q0-85-13.5-139.5t-35-86.5T605 2.5 547-10q-69 0-109 34v-194H318V24q-40-34-109-34-30 0-58 12.5T101.5 47t-35 86.5T53 273q0 84 13.5 139t35 86.5 49.5 44 58 12.5q35 0 61.5-9t47.5-26v150h120V520q41 35 109 35 30 0 58-12.5t49.5-44 35-86.5T703 273zM267 449q-19 0-33.5-7t-24-26-14.5-53.5-5-89.5q0-54 5-88.5t14.5-54 24-27T267 96q14 0 27 4t24 11v323q-11 7-24 11t-27 4zM489 96q19 0 33.5 7.5t24 27 14.5 54 5 88.5q0 55-5 89.5T546.5 416t-24 26-33.5 7q-14 0-27-4t-24-11V111q11-7 24-11t27-4z"/><glyph glyph-name="afii10087" unicode="х" horiz-adv-x="541" d="M347 299L526 0H359l-99 182L160 0H15l172 286L28 540h162l85-143 81 143h137z"/><glyph glyph-name="afii10088" unicode="ц" horiz-adv-x="595" d="M436 0H70v540h140V104h172v436h140V104h34v-219H452z"/><glyph glyph-name="afii10089" unicode="ч" horiz-adv-x="572" d="M202 540V317q0-22 6-35t15.5-20.5 22-10T271 249q18 0 42.5 3t48.5 10v278h140V0H362v163q-31-11-68.5-17t-72.5-6q-74 0-116.5 41.5T62 318v222h140z"/><glyph glyph-name="afii10090" unicode="ш" horiz-adv-x="817" d="M70 540h135V104h140v436h126V104h141v436h135V0H70v540z"/><glyph glyph-name="afii10091" unicode="щ" horiz-adv-x="821" d="M70 540h135V104h140v436h126V104h141v436h135V104h35v-219H678L662 0H70v540z"/><glyph glyph-name="afii10092" unicode="ъ" horiz-adv-x="578" d="M15 540h222V351h75q64 0 108-12t71.5-35 39.5-56 12-75-12.5-74.5T490 44t-73-33T308 0H97v439H15v101zm222-287V95h71q45 0 68 17.5t23 60.5q0 42-23.5 61T313 253h-76z"/><glyph glyph-name="afii10093" unicode="ы" horiz-adv-x="798" d="M728 540V0H590v540h138zm-518 0V351h75q64 0 108-12t71.5-35 39.5-56 12-75-12.5-74.5T463 44t-73-33T281 0H70v540h140zm0-287V95h71q45 0 68 17.5t23 60.5q0 42-23.5 61T286 253h-76z"/><glyph glyph-name="afii10094" unicode="ь" horiz-adv-x="551" d="M210 540V351h75q64 0 108-12t71.5-35 39.5-56 12-75-12.5-74.5T463 44t-73-33T281 0H70v540h140zm0-287V95h71q45 0 68 17.5t23 60.5q0 42-23.5 61T286 253h-76z"/><glyph glyph-name="afii10095" unicode="э" horiz-adv-x="517" d="M154 226v94h172q-3 45-11 72t-19 41.5-24.5 19T243 457q-26 0-47-15t-30-52L35 415q6 22 21 46.5T96.5 507t62.5 34.5 88 13.5 91.5-15.5 68-49 42.5-87T464 275q0-81-18.5-136t-49-88-70-47T245-10q-54 0-92 14T90 39.5 51 86t-21 47l134 21q5-27 24-46.5T242 88q13 0 27 4.5t25.5 19.5 20 42 11.5 72H154z"/><glyph glyph-name="afii10096" unicode="ю" horiz-adv-x="807" d="M210 540V321h67q7 67 30 112t55.5 72 72 38.5T515 555q44 0 87-13t76.5-45.5T733 409t21-139-21-138-54.5-85.5-76.5-44T515-10Q474-10 434.5.5t-72 36.5-55.5 70-30 111h-67V0H70v540h140zm209-270q0-57 6.5-92.5t19.5-56T475.5 94t40.5-7q22 0 40 7t30 27 18.5 55.5T611 270t-6.5 94.5-19 57.5-30.5 28.5-40 7.5q-23 0-40.5-8t-30-29-19-57.5T419 270z"/><glyph glyph-name="afii10097" unicode="я" horiz-adv-x="543" d="M10 0l117 218q-37 21-61.5 56T41 363q0 56 17 90.5t48 54 73 26 93 6.5h201V0H333v186h-68L168 0H10zm176 363q0-42 22.5-61.5T267 282h66v163h-60q-17 0-32.5-4T213 427t-19.5-25.5T186 363z"/><glyph glyph-name="afii10071" unicode="ё" horiz-adv-x="546" d="M102 610v115h132V610H102zm227 0v115h132V610H329zM287 91q34 0 53.5 19t25.5 48l127-20q-8-27-24-53.5T427 37 364.5 3 279-10q-46 0-87 15t-72 48-49 86.5T53 270q0 79 17.5 133.5t48.5 88 72 48.5 88 15q64 0 106-21.5t67.5-63.5 36-102.5T499 229H196q3-42 11.5-69t20.5-42.5 27-21 32-5.5zm-4 374q-17 0-32-5t-27-20.5-20-44-10-74.5h174q-1 42-7.5 70t-18 44.5-26.5 23-33 6.5z"/><glyph glyph-name="afii10099" unicode="ђ" horiz-adv-x="583" d="M258-50q13-3 29.5-5.5T316-58q29 0 43 12t14 45v355q0 45-15.5 67T297 443q-26 0-47.5-11.5T210 403V0H70v595H15v90h55v50h140v-50h163v-90H210V485q25 29 58 44.5t78 15.5q37 0 67.5-11t52.5-34.5 34.5-60.5 12.5-89V-4q0-79-42.5-120T352-165q-23 0-49.5 4.5T258-150v100z"/><glyph glyph-name="afii10100" unicode="ѓ" horiz-adv-x="447" d="M70 0v540h348V437H210V0H70zm200 735h157L275 598H170z"/><glyph glyph-name="afii10101" unicode="є" horiz-adv-x="526" d="M194 226q3-45 12.5-72.5t21.5-42 25.5-19T279 88q35 0 52 19.5t22 46.5l134-21q-7-22-20.5-47T429 39.5 367.5 4 275-10q-42 0-82 13t-71 45.5T72 136 53 275q0 73 16 126t46 87 71.5 50.5T279 555t87-13.5 59.5-34.5 37-45.5T482 415l-130-25q-8 39-27 53t-45 14q-12 0-26-5t-26.5-19.5T206 391t-12-71h166v-94H194z"/><glyph glyph-name="afii10102" unicode="ѕ" horiz-adv-x="514" d="M251-10q-47 0-84.5 12.5t-64 32.5-43 46T38 133l135 27q5-33 26.5-52T253 89t51 13.5 19 41.5q0 15-6.5 25.5t-20 19T263 204t-48 16q-37 11-66.5 24.5T98 278t-32 47.5T55 392q0 41 15 71.5t42 51 64.5 30.5 82.5 10q48 0 83.5-12.5T402 510t38.5-44.5T461 417l-131-26q-5 28-21 47t-51 19q-28 0-45.5-13.5T195 403q0-17 7.5-27.5t20-17.5 30.5-12.5 39-12.5q34-11 65.5-23t55-30 37.5-45.5 14-70.5q0-45-16-78t-44.5-54T336 .5 251-10z"/><glyph glyph-name="afii10103" unicode="і" horiz-adv-x="280" d="M70 0v540h140V0H70zm-6 610v125h152V610H64z"/><glyph glyph-name="afii10104" unicode="ї" horiz-adv-x="280" d="M70 0v540h140V0H70zM-38 610v115H94V610H-38zm227 0v115h132V610H189z"/><glyph glyph-name="afii10105" unicode="ј" horiz-adv-x="282" d="M-45-50q13-3 29.5-5.5T13-58q29 0 43 12T70-1v541h140V-4q0-79-42.5-120T49-165q-23 0-49.5 4.5T-45-150v100zM64 610v125h152V610H64z"/><glyph glyph-name="afii10106" unicode="љ" horiz-adv-x="858" d="M517 351h75q64 0 108-12t71.5-35 39.5-56 12-75-12.5-74.5T770 44t-73-33T588 0H377v437H266l-32-230q-9-62-24.5-102T168 41.5 103.5 9 10 0v105q48 0 67 21.5t25 73.5l46 340h369V351zm0-98V95h71q45 0 68 17.5t23 60.5q0 42-23.5 61T593 253h-76z"/><glyph glyph-name="afii10107" unicode="њ" horiz-adv-x="878" d="M532 540V351h80q64 0 108-12t71.5-35 39.5-56 12-75-12.5-74.5T790 44t-73-33T608 0H392v218H210V0H70v540h140V321h182v219h140zm0-287V95h76q45 0 68 17.5t23 60.5q0 42-23.5 61T613 253h-81z"/><glyph glyph-name="afii10108" unicode="ћ" horiz-adv-x="583" d="M210 595V485q25 29 58 44.5t78 15.5q37 0 67.5-11t52.5-34.5 34.5-60.5 12.5-89V0H373v354q0 45-15.5 67T297 443q-26 0-47.5-11.5T210 403V0H70v595H20v90h50v50h140v-50h178v-90H210z"/><glyph glyph-name="afii10109" unicode="ќ" horiz-adv-x="550" d="M70 0v540h140V320l152 220h150L331 289 540 0H373L210 232V0H70zm238 735h157L313 598H208z"/><glyph glyph-name="afii10110" unicode="ў" horiz-adv-x="511" d="M259 602q-33 0-62 6t-52 21-39 41-22 65h119q5-33 17.5-47t38.5-14 38.5 14 17.5 47h119q-6-39-22-65t-39-41-52-21-62-6zm81-617q-12-39-26-67.5t-34-47-48.5-27T162-165q-20 0-46 3.5T72-153v100q18-5 38-7t31-2q36 0 52 13.5T214 0h-46L5 540h147l102-428 116 428h136z"/><glyph glyph-name="afii10193" unicode="џ" horiz-adv-x="602" d="M70 0v540h140V104h182v436h140V0H363l-8-115H247L239 0H70z"/><glyph glyph-name="afii10146" unicode="Ѣ" horiz-adv-x="599" d="M230 555V430h48q67 0 119.5-11.5t88.5-37 54.5-67T559 214q0-60-18.5-101T486 47t-89-36T276 0H80v555H15v105h65v60h150v-60h163V555H230zm0-228V102h53q24 0 46 4.5t39 17 27 34 10 56.5q0 60-33 86.5T288 327h-58z"/><glyph glyph-name="afii10194" unicode="ѣ" horiz-adv-x="556" d="M70 540v195h140V540h163v-90H210v-99h80q64 0 108-12t71.5-35 39.5-56 12-75-12.5-74.5T468 44t-73-33T286 0H70v450H15v90h55zm150-287V95h76q45 0 68 17.5t23 60.5q0 42-23.5 61T301 253h-81z"/><glyph glyph-name="afii10147" unicode="Ѳ" horiz-adv-x="703" d="M60 360q0 105 23 176.5T145.5 652t92.5 63.5T351 735t113-19.5 93-63.5 63-115.5T643 360t-23-176.5T557.5 68 465 4.5 351-15 237 4.5 144.5 68t-62 115.5T60 360zM351 95q27 0 50 10.5t41 35.5 30 66 16 101H214q4-60 16-101t30-66 41-35.5T351 95zm0 531q-25 0-47.5-10.5t-41-35-31-65T215 416h273q-5 59-17.5 99T440 580t-41 35.5-48 10.5z"/><glyph glyph-name="afii10195" unicode="ѳ" horiz-adv-x="585" d="M53 270q0 83 21 138t55 87.5 77 46 87 13.5 87-13 76.5-45.5T511 409t21-139-21-138-54.5-85.5-76.5-44T293-10 206 2.5 129 47t-55 86-21 137zm240 188q-20 0-36.5-6.5t-29-22.5-20-44.5T198 313h190q-3 44-10.5 72T358 429.5 329.5 452t-36.5 6zm1-371q20 0 36 5t27.5 20 19 41 10.5 68H198q3-41 11-67t20-41 28.5-20.5T294 87z"/><glyph glyph-name="afii10148" unicode="Ѵ" horiz-adv-x="617" d="M378 515q20 94 43 142.5t51 62.5h145q-22-16-38-34.5T550.5 642 528 583t-21-81L386 0H197L10 720h157l128-587z"/><glyph glyph-name="afii10196" unicode="ѵ" horiz-adv-x="545" d="M347 0H165L5 540h151l105-419 60 270q14 63 32.5 99t46.5 50h145q-20-11-34.5-24.5t-25.5-32-20-43.5-18-59z"/><glyph glyph-name="afii10050" unicode="Ґ" horiz-adv-x="507" d="M487 602H230V0H80v720h292v108h115V602z"/><glyph glyph-name="afii10098" unicode="ґ" horiz-adv-x="438" d="M418 437H210V0H70v540h248v120h100V437z"/><glyph glyph-name="uni0492" unicode="Ғ" horiz-adv-x="517" d="M90 0v307H20v96h70v317h407V602H240V403h157v-96H240V0H90z"/><glyph glyph-name="uni0493" unicode="ғ" horiz-adv-x="448" d="M428 437H220V301h123v-90H220V0H80v211H15v90h65v239h348V437z"/><glyph glyph-name="uni0496" unicode="Җ" horiz-adv-x="882" d="M830 720L639 383l164-274h63V3l2-3h-2v-135H746L729 0h-44L509 323V0H369v323L193 0H10l229 383L48 720h158l163-310v310h140V410l163 310h158z"/><glyph glyph-name="uni0497" unicode="җ" horiz-adv-x="752" d="M710 540L554 289l118-185h66v-219H634L618 0h-40L442 237V0H306v237L170 0H10l180 289L38 540h144l124-224v224h136V316l124 224h144z"/><glyph glyph-name="uni0498" unicode="Ҙ" horiz-adv-x="575" d="M405-146q0-52-35-81.5T268-257q-31 0-59.5 9T157-224l37 71q9-6 25-12t34-6q23 0 32 8.5t9 20.5q0 21-19 30.5T220-98l22 87q-46 6-80.5 24.5t-58.5 44-38 56T46 174l141 17q1-16 8-33t19.5-31 30.5-23 42-9q17 0 33 5t29 17.5 20.5 34T377 205q0 41-11.5 65.5T336 308t-40 17-43 4h-50v110h58q16 0 34 4t33 15 25 30 10 48q0 28-9 45.5T331.5 609 303 622.5t-26 3.5q-42 0-65.5-28.5T183 529L45 551q9 39 29 72.5t50 58.5 70.5 39 90.5 14q40 0 81-10.5t74-33 53.5-58T514 549v-5q0-31-12-57.5T471.5 440 431 407t-41-17q9-2 20-5.5t24-8.5q19-8 36.5-22.5T501 318t21-48.5 8-61.5q0-50-15.5-88T473 55t-61-43.5T337-11l-4-44q38-11 55-36t17-55z"/><glyph glyph-name="uni0499" unicode="ҙ" horiz-adv-x="508" d="M245 89q16 0 30.5 3.5t26 12T320 128t7 38q0 36-24.5 50.5T241 231h-45v94h43q31 0 53 14.5t22 52.5q0 37-22.5 51.5T243 458q-38 0-57.5-23.5T161 380L33 397q9 40 30.5 69.5t50.5 49 64.5 29.5 73.5 10q40 0 77-8t65-26 44.5-46.5T455 405q0-48-28-78.5T348 285q23-2 45-10.5t39-24.5 27.5-40 10.5-58q0-37-13.5-65T420 40 367 9.5 304-6l-5-45q38-11 55-36t17-55q0-52-33.5-81T237-252q-31 0-59.5 9T126-219l37 68q9-6 25-12t34-6q23 0 33 9.5t10 21.5q0 21-20 31t-56 14l22 86Q130 2 84.5 44.5T30 147l132 17q4-32 25-53.5T245 89z"/><glyph glyph-name="uni049A" unicode="Қ" horiz-adv-x="623" d="M571 720L355 383l181-274h73v-244H489L472 0h-46L230 313V0H80v720h150V420l183 300h158z"/><glyph glyph-name="uni049B" unicode="қ" horiz-adv-x="554" d="M512 540L331 289l134-185h75v-219H436L420 0h-47L210 232V0H70v540h140V320l152 220h150z"/><glyph glyph-name="uni049C" unicode="Ҝ" horiz-adv-x="684" d="M491 0L330 310V134h-65v184h-35V0H80v720h150V411h35v196h65V424l148 296h158L459 383 674 0H491z"/><glyph glyph-name="uni049D" unicode="ҝ" horiz-adv-x="555" d="M70 0v540h140V326h22v158h55V353l81 187h149L396 289 545 0H380l-93 202V51h-55v185h-22V0H70z"/><glyph glyph-name="uni04A0" unicode="Ҡ" horiz-adv-x="629" d="M10 720h230V420l183 300h158L365 383 619 0H436L240 313V0H90v610H10v110z"/><glyph glyph-name="uni04A1" unicode="ҡ" horiz-adv-x="615" d="M70 540h205V320l152 220h150L396 289 605 0H438L275 232V0H135v440H70v100z"/><glyph glyph-name="uni04A2" unicode="Ң" horiz-adv-x="659" d="M575 720V109h40v-244H495L478 0h-53v310H230V0H80v720h150V418h195v302h150z"/><glyph glyph-name="uni04A3" unicode="ң" horiz-adv-x="606" d="M532 540V104h35v-219H463L447 0h-55v218H210V0H70v540h140V321h182v219h140z"/><glyph glyph-name="uni04AA" unicode="Ҫ" horiz-adv-x="603" d="M497-212q-26-14-50.5-21t-53.5-7q-69 0-104 33.5T254-113q0 59 52 99-45 3-89.5 21t-79 60.5-56 113.5T60 360q0 112 23.5 185T145 660t87.5 58.5T333 735q55 0 95.5-18.5T497 669t43.5-65 21.5-71l-139-17q-4 24-10.5 44T395 595t-27 23.5-38 8.5q-23 0-43-12t-36-42-25-82-9-131q0-80 8.5-131.5t23-81.5 34.5-41.5T327 94q45 0 70.5 33t29.5 85l141-15q-4-25-13-51.5T531 94t-37.5-47T440 10q-31-24-48.5-51.5T374-99q0-22 12-32.5t32-10.5q18 0 58 14z"/><glyph glyph-name="uni04AB" unicode="ҫ" horiz-adv-x="528" d="M451-212q-26-14-50.5-21t-53.5-7q-69 0-104 33.5T208-113q0 30 13.5 56.5T257-9q-41 3-78 18.5T114 58t-44.5 86T53 275q0 77 17 130.5t47.5 86.5 72 48 89.5 15q57 0 95.5-16.5T437 496t36-57 15-59l-133-20q-4 97-75 97-15 0-29.5-6T224 425.5t-19-56-7-97.5 8-97 20-55.5T253 94t29-6q19 0 32.5 8t22 21 13 30.5T356 184l138-16q-8-45-33-88t-76-68q-57-50-57-111 0-22 12-32.5t32-10.5q18 0 58 14z"/><glyph glyph-name="uni04AE" unicode="Ү" horiz-adv-x="562" d="M557 720L353 288V0H213v288L5 720h162l120-289 130 289h140z"/><glyph glyph-name="uni04AF" unicode="ү" horiz-adv-x="512" d="M187-170V22L5 540h151l106-407 103 407h142L327 11v-181H187z"/><glyph glyph-name="uni04B0" unicode="Ұ" horiz-adv-x="572" d="M562 720L362 296h135v-95H358V0H218v201H77v95h137L10 720h162l120-289 130 289h140z"/><glyph glyph-name="uni04B1" unicode="ұ" horiz-adv-x="512" d="M507 540L346 68h116v-90H327v-148H187v148H50v90h121L5 540h151l106-407 103 407h142z"/><glyph glyph-name="uni04B2" unicode="Ҳ" horiz-adv-x="611" d="M384 391L536 97h51v-244H467L449 0h-39L294 245 171 0H20l206 374L38 720h174l104-211 113 211h142z"/><glyph glyph-name="uni04B3" unicode="ҳ" horiz-adv-x="545" d="M347 299l116-195h63v-219H422L406 0h-47l-99 182L160 0H15l172 286L28 540h162l85-143 81 143h137z"/><glyph glyph-name="uni04B8" unicode="Ҹ" horiz-adv-x="637" d="M263 243q-41 0-76.5 11T125 290.5 84.5 357 70 459v261h150V460q0-29 6-48t15.5-31 21-18 23.5-8v252h65V354q16 1 32 3t30 4v359h144V0H413v255q-14-2-29.5-4t-32.5-4V134h-65v109h-23z"/><glyph glyph-name="uni04B9" unicode="ҹ" horiz-adv-x="582" d="M314 251q30 4 58 12v277h140V0H372v164q-24-9-58-15V51h-55v90q-3-1-9-1h-25q-74 0-118.5 41.5T62 318v222h140V317q0-37 17.5-51t39.5-16v234h55V251z"/><glyph glyph-name="uni04BA" unicode="Һ" horiz-adv-x="637" d="M80 0v720h149V475q26 5 63 8.5t82 3.5q41 0 75.5-11t59.5-36.5 39-66.5 14-102V0H412v270q0 37-9 58.5t-22.5 32T352 374t-27 3q-23 0-49-2.5t-47-6.5V0H80z"/><glyph glyph-name="uni04BB" unicode="һ" horiz-adv-x="583" d="M70 735h140V495q25 29 58 44.5t78 15.5q37 0 67.5-11t52.5-34.5 34.5-60.5 12.5-89V0H373v364q0 45-15.5 67T297 453q-26 0-47.5-11.5T210 413V0H70v735z"/><glyph glyph-name="uni04C0" unicode="Ӏ" horiz-adv-x="310" d="M230 720V0H80v720h150z"/><glyph glyph-name="uni04CB" unicode="Ӌ" horiz-adv-x="635" d="M552 720V109h39v-244H471L454 0h-51v255q-27-5-63.5-8.5T258 243q-41 0-75.5 11T123 290.5 84 357 70 459v261h150V460q0-37 9-58.5t22.5-32T280 356t27-3q23 0 49 2.5t47 5.5v359h149z"/><glyph glyph-name="uni04CC" unicode="ӌ" horiz-adv-x="584" d="M510 540V105h35v-220H441L425 0h-55v163q-31-11-68.5-17t-72.5-6q-74 0-116.5 41.5T70 318v222h140V317q0-22 6-35t15.5-20.5 22-10T279 249q18 0 42.5 3t48.5 10v278h140z"/><glyph glyph-name="uni04CF" unicode="ӏ" horiz-adv-x="310" d="M230 720V0H80v720h150z"/><glyph glyph-name="uni04D8" unicode="Ә" horiz-adv-x="673" d="M333 628q-50 0-77.5-30.5T216 523L76 543q9 31 28 65t50.5 62 75 46.5T332 735q76 0 129.5-25.5T549 636t49-118 15-158q0-186-68-280.5T332-15q-65 0-116 22t-85.5 70.5-52.5 125T60 388h400q-2 68-11.5 114t-26 74-39 40-50.5 12zm3-534q22 0 42.5 7.5t37 28.5 27.5 58.5 15 97.5H209q3-54 14.5-91t29-59.5 39-32T336 94z"/><glyph glyph-name="afii10846" unicode="ә" horiz-adv-x="546" d="M259 457q-34 0-53.5-20.5T180 387L53 407q8 27 24 53.5t42 47.5 62.5 34 85.5 13q46 0 87-15t72-48 49-86.5T493 275q0-79-17-133.5t-47.5-88T357 5t-89-15q-63 0-105.5 21.5T94.5 75 58 177.5 47 316h303q-3 42-11.5 69.5T318 429t-27.5 22-31.5 6zm4-374q16 0 31 5.5t27 21 20 43 10 71.5H178q2-80 25-110.5T263 83z"/><glyph glyph-name="uni04E2" unicode="Ӣ" horiz-adv-x="686" d="M223 720V280l239 390v50h144V0H463v446L224 50V0H80v720h143zm-33 64v101h300V784H190z"/><glyph glyph-name="uni04E3" unicode="ӣ" horiz-adv-x="613" d="M202 540V218l208 292v30h133V0H410v316L202 30V0H70v540h132zm-46 94v101h300V634H156z"/><glyph glyph-name="uni04E8" unicode="Ө" horiz-adv-x="703" d="M60 360q0 105 23 176.5T145.5 652t92.5 63.5T351 735t113-19.5 93-63.5 63-115.5T643 360t-23-176.5T557.5 68 465 4.5 351-15 237 4.5 144.5 68t-62 115.5T60 360zM351 95q27 0 50 10.5t41 35.5 30 66 16 101H214q4-60 16-101t30-66 41-35.5T351 95zm0 531q-25 0-47.5-10.5t-41-35-31-65T215 416h273q-5 59-17.5 99T440 580t-41 35.5-48 10.5z"/><glyph glyph-name="uni04E9" unicode="ө" horiz-adv-x="585" d="M53 270q0 83 21 138t55 87.5 77 46 87 13.5 87-13 76.5-45.5T511 409t21-139-21-138-54.5-85.5-76.5-44T293-10 206 2.5 129 47t-55 86-21 137zm240 188q-20 0-36.5-6.5t-29-22.5-20-44.5T198 313h190q-3 44-10.5 72T358 429.5 329.5 452t-36.5 6zm1-371q20 0 36 5t27.5 20 19 41 10.5 68H198q3-41 11-67t20-41 28.5-20.5T294 87z"/><glyph glyph-name="uni04EE" unicode="Ӯ" horiz-adv-x="531" d="M355 145q-12-39-26-69t-35-50.5T242.5-5 167-15q-20 0-46.5 4.5T77 0v107q17-5 36-8.5t33-3.5q36 0 53 15t22 50h-50L10 720h156l99-438 110 438h146zM116 784v101h300V784H116z"/><glyph glyph-name="uni04EF" unicode="ӯ" horiz-adv-x="511" d="M108 645v101h300V645H108zM340-15q-12-39-26-67.5t-34-47-48.5-27T162-165q-20 0-46 3.5T72-153v100q18-5 38-7t31-2q36 0 52 13.5T214 0h-46L5 540h147l102-428 116 428h136z"/><glyph glyph-name="uni1E02" unicode="Ḃ" horiz-adv-x="609" d="M267 720q60 0 110-8t86-29.5 56.5-59.5 20.5-97q0-26-7-50.5T513 431t-30.5-33.5T444 380q8-2 19.5-5.5T486 366q35-17 56.5-55.5T564 211q0-60-18.5-100.5t-54.5-65-89-35T281 0H80v720h187zm-37-392V102h58q24 0 46 4t39 16 27 33 10 56q0 60-33 88.5T293 328h-63zm0 290V424h53q15 0 33.5 3t35 13.5T379 471t11 55q0 26-10 43.5T354 598t-35.5 15.5T280 618h-50zm-29 152v115h152V770H201z"/><glyph glyph-name="uni1E03" unicode="ḃ" horiz-adv-x="558" d="M70 0v735h140V499q24 26 55.5 41t76.5 15q30 0 59-12t52-43.5 37.5-86T505 274q0-149-49-216.5T313-10q-43 0-72.5 16.5T193 49L155 0H70zm214 449q-22 0-40-8.5T210 418V109q26-23 62-23 23 0 40.5 7t29 28 17.5 58.5 6 99.5q0 54-7 87.5T340 418t-25.5 24.5T284 449zm-24 172v115h152V621H260z"/><glyph glyph-name="uni1E0A" unicode="Ḋ" horiz-adv-x="646" d="M267 720q64 0 122-15.5t101.5-56 69.5-110T586 360t-26-178.5-69.5-110-101-56T269 0H80v720h187zm-37-108V109h39q30 0 59.5 9.5t53 36.5 38 76T434 360q0 79-15 128.5t-38.5 77-53.5 37-60 9.5h-37zm-17 158v115h152V770H213z"/><glyph glyph-name="uni1E0B" unicode="ḋ" horiz-adv-x="563" d="M53 271q0 149 49 216.5T245 555q36 0 62.5-11.5T353 513v222h140V0h-88l-38 66q-25-35-61-55.5T216-10q-30 0-59 12t-52 43.5-37.5 86T53 271zM274 96q23 0 42.5 9.5T353 129v306q-14 11-30.5 17.5T286 459q-23 0-40.5-7t-29-28-17.5-59-6-99q0-54 6.5-87.5t18-51.5 26-24.5T274 96zM151 621v115h152V621H151z"/><glyph glyph-name="uni1E1E" unicode="Ḟ" horiz-adv-x="489" d="M424 295H230V0H80v720h374V607H230V403h194V295zM193 770v115h152V770H193z"/><glyph glyph-name="uni1E1F" unicode="ḟ" horiz-adv-x="352" d="M372 629q-19 5-38 7.5t-34 2.5q-35 0-50-14t-15-49v-36h111V440H235V0H95v440H15v100h80v30q0 47 12 80.5t33.5 54.5 51.5 30.5 66 9.5q37 0 65.5-5t48.5-10V629zM160 770v115h152V770H160z"/><glyph glyph-name="uni1E40" unicode="Ṁ" horiz-adv-x="822" d="M352 0L207 509V0H80v720h186l146-523 140 523h190V0H605v509L464 0H352zm-18 763v115h152V763H334z"/><glyph glyph-name="uni1E41" unicode="ṁ" horiz-adv-x="860" d="M70 0v540h95l30-65q24 38 58.5 59t85.5 21q48 0 83.5-19.5T478 474q26 38 63.5 59.5T630 555q74 0 117-45.5T790 360V0H650v364q0 45-12 67t-57 22q-24 0-45-14t-40-34q3-21 3-45V0H359v364q0 45-12 67t-57 22q-23 0-43-12t-37-31V0H70zm286 610v125h152V610H356z"/><glyph glyph-name="uni1E56" unicode="Ṗ" horiz-adv-x="578" d="M273 720q56 0 106-9.5t87.5-35.5 59.5-72.5T548 482t-22.5-120.5T466 289t-86-35.5-101-9.5h-49V0H80v720h193zm-43-107V351h51q19 0 39 5t36 19 26 39.5 10 67.5-9.5 67.5-26 39.5-37.5 19-44 5h-45zm-30 157v115h152V770H200z"/><glyph glyph-name="uni1E57" unicode="ṗ" horiz-adv-x="563" d="M70-170v710h95l28-61q26 35 63 55.5t91 20.5q30 0 59-12t52-43.5 37.5-86T510 274q0-149-49-216.5T318-10q-37 0-63.5 11.5T210 33v-203H70zm219 619q-24 0-43-10t-36-26V114q14-12 30-20t37-8q23 0 40.5 7t29 28 17.5 58.5 6 99.5q0 54-7 87.5T345 418t-25.5 24.5T289 449zm-75 161v125h152V610H214z"/><glyph glyph-name="uni1E60" unicode="Ṡ" horiz-adv-x="587" d="M292 629q-36 0-62.5-17.5T203 553q0-14 3-26.5t13.5-25T251 476t58-27q47-18 88.5-39t72.5-49.5 49-65.5 18-88q0-44-13.5-84T480 52.5t-77.5-49T287-15q-65 0-110 18.5T103 49t-44 58-19 56l141 20q2-17 10.5-33.5t22.5-29 33.5-20T290 93q16 0 33 4.5t31 15 22.5 27.5 8.5 43q0 29-13 48.5T336 266t-55 28.5-71 31.5q-45 20-75 42t-48.5 47.5-26.5 55-8 65.5q0 44 16.5 80.5t47.5 63 76.5 41T296 735q59 0 100.5-16t68.5-40.5 42-54 21-55.5l-139-25q-5 33-30 59t-67 26zm-75 141v115h152V770H217z"/><glyph glyph-name="uni1E61" unicode="ṡ" horiz-adv-x="514" d="M251-10q-47 0-84.5 12.5t-64 32.5-43 46T38 133l135 27q5-33 26.5-52T253 89t51 13.5 19 41.5q0 15-6.5 25.5t-20 19T263 204t-48 16q-37 11-66.5 24.5T98 278t-32 47.5T55 392q0 41 15 71.5t42 51 64.5 30.5 82.5 10q48 0 83.5-12.5T402 510t38.5-44.5T461 417l-131-26q-5 28-21 47t-51 19q-28 0-45.5-13.5T195 403q0-17 7.5-27.5t20-17.5 30.5-12.5 39-12.5q34-11 65.5-23t55-30 37.5-45.5 14-70.5q0-45-16-78t-44.5-54T336 .5 251-10zm-70 620v125h152V610H181z"/><glyph glyph-name="uni1E6A" unicode="Ṫ" horiz-adv-x="544" d="M524 602H346V0H196v602H20v118h504V602zM194 770v115h152V770H194z"/><glyph glyph-name="uni1E6B" unicode="ṫ" horiz-adv-x="365" d="M340 5q-19-5-43.5-8.5T249-7q-34 0-62 9t-48.5 28-32 49T95 151v289H15v100h81l9 130h130V540h104V440H235V146q0-16 5-25.5t12.5-15 17-7.5 18.5-2q11 0 26 2t26 4V5zM97 710v125h152V710H97z"/><glyph glyph-name="uni1E6C" unicode="Ṭ" horiz-adv-x="544" d="M524 602H346V0H196v602H20v118h504V602zM191-170v125h152v-125H191z"/><glyph glyph-name="uni1E6D" unicode="ṭ" horiz-adv-x="365" d="M340 5q-19-5-43.5-8.5T249-7q-34 0-62 9t-48.5 28-32 49T95 151v289H15v100h81l9 130h130V540h104V440H235V146q0-16 5-25.5t12.5-15 17-7.5 18.5-2q11 0 26 2t26 4V5zM124-170v125h152v-125H124z"/><glyph glyph-name="Wgrave" unicode="Ẁ" horiz-adv-x="828" d="M803 720L693 0H502l-89 564L322 0H135L25 720h152l64-568 85 568h185l84-566 74 566h134zm-331 48H365L235 885h152z"/><glyph glyph-name="wgrave" unicode="ẁ" horiz-adv-x="788" d="M773 540L648 0H469l-74 400L307 0H133L15 540h142l70-425 86 425h174l73-423 84 423h129zm-309 58H359L207 735h157z"/><glyph glyph-name="Wacute" unicode="Ẃ" horiz-adv-x="828" d="M803 720L693 0H502l-89 564L322 0H135L25 720h152l64-568 85 568h185l84-566 74 566h134zM438 885h152L460 768H353z"/><glyph glyph-name="wacute" unicode="ẃ" horiz-adv-x="788" d="M773 540L648 0H469l-74 400L307 0H133L15 540h142l70-425 86 425h174l73-423 84 423h129zM425 735h157L430 598H325z"/><glyph glyph-name="Wdieresis" unicode="Ẅ" horiz-adv-x="828" d="M803 720L693 0H502l-89 564L322 0H135L25 720h152l64-568 85 568h185l84-566 74 566h134zm-560 52v108h132V772H243zm227 0v108h132V772H470z"/><glyph glyph-name="wdieresis" unicode="ẅ" horiz-adv-x="788" d="M773 540L648 0H469l-74 400L307 0H133L15 540h142l70-425 86 425h174l73-423 84 423h129zm-556 70v115h132V610H217zm227 0v115h132V610H444z"/><glyph glyph-name="uni1EA0" unicode="Ạ" horiz-adv-x="626" d="M462 0l-44 167H196L152 0H5l221 720h171L621 0H462zM224 269h167l-83 315zm13-439v125h152v-125H237z"/><glyph glyph-name="uni1EA1" unicode="ạ" horiz-adv-x="545" d="M386 0l-31 58q-21-29-56.5-48.5T208-10q-27 0-56.5 9T97 28 56 80t-16 78q0 41 16 72.5t43.5 54T163 320t77 18l95 13v33q0 78-67 78-28 0-48.5-16.5T194 394L59 414q8 25 23.5 50.5T124 510t63.5 32.5T278 555q94 0 145.5-45T475 366V0h-89zM262 89q36 0 73 25v154l-57-9q-45-8-72-27t-27-59q0-26 7.5-42.5T206 105t27-12.5 29-3.5zm-69-259v125h152v-125H193z"/><glyph glyph-name="uni1EA2" unicode="Ả" horiz-adv-x="626" d="M462 0l-44 167H196L152 0H5l221 720h171L621 0H462zM224 269h167l-83 315zm209 596q0-30-20-54t-55-35l-4-20h-86l-3 58q29 3 49 15.5t20 33.5q0 12-8 19.5t-22 7.5q-17 0-28-11.5T262 850l-83 18q14 39 45 65.5t89 26.5q22 0 43.5-5.5T395 938t27.5-29.5T433 865z"/><glyph glyph-name="uni1EA3" unicode="ả" horiz-adv-x="545" d="M386 0l-31 58q-21-29-56.5-48.5T208-10q-27 0-56.5 9T97 28 56 80t-16 78q0 41 16 72.5t43.5 54T163 320t77 18l95 13v33q0 78-67 78-28 0-48.5-16.5T194 394L59 414q8 25 23.5 50.5T124 510t63.5 32.5T278 555q94 0 145.5-45T475 366V0h-89zM262 89q36 0 73 25v154l-57-9q-45-8-72-27t-27-59q0-26 7.5-42.5T206 105t27-12.5 29-3.5zm134 620q0-30-20-54t-55-35l-4-20h-86l-3 58q29 3 49 15.5t20 33.5q0 12-8 19.5t-22 7.5q-17 0-28-11.5T225 694l-83 18q14 39 45 65.5t89 26.5q22 0 43.5-5.5T358 782t27.5-29.5T396 709z"/><glyph glyph-name="uni1EA4" unicode="Ấ" horiz-adv-x="626" d="M462 0l-44 167H196L152 0H5l221 720h171L621 0H462zM224 269h167l-83 315zm276 499H370l-58 50-57-50H124l120 117h136zm64 177h152L590 808H490z"/><glyph glyph-name="uni1EA5" unicode="ấ" horiz-adv-x="545" d="M386 0l-31 58q-21-29-56.5-48.5T208-10q-27 0-56.5 9T97 28 56 80t-16 78q0 41 16 72.5t43.5 54T163 320t77 18l95 13v33q0 78-67 78-28 0-48.5-16.5T194 394L59 414q8 25 23.5 50.5T124 510t63.5 32.5T278 555q94 0 145.5-45T475 366V0h-89zM262 89q36 0 73 25v154l-57-9q-45-8-72-27t-27-59q0-26 7.5-42.5T206 105t27-12.5 29-3.5zm195 509H335l-66 57-66-57H81l120 137h136zm64 177h152L547 638H447z"/><glyph glyph-name="uni1EA6" unicode="Ầ" horiz-adv-x="626" d="M462 0l-44 167H196L152 0H5l221 720h171L621 0H462zM224 269h167l-83 315zm278 499H372l-58 50-57-50H126l120 117h136zm-366 40H36L-90 945H62z"/><glyph glyph-name="uni1EA7" unicode="ầ" horiz-adv-x="545" d="M386 0l-31 58q-21-29-56.5-48.5T208-10q-27 0-56.5 9T97 28 56 80t-16 78q0 41 16 72.5t43.5 54T163 320t77 18l95 13v33q0 78-67 78-28 0-48.5-16.5T194 394L59 414q8 25 23.5 50.5T124 510t63.5 32.5T278 555q94 0 145.5-45T475 366V0h-89zM262 89q36 0 73 25v154l-57-9q-45-8-72-27t-27-59q0-26 7.5-42.5T206 105t27-12.5 29-3.5zm195 509H335l-66 57-66-57H81l120 137h136zM91 638H-9l-126 137H17z"/><glyph glyph-name="uni1EA8" unicode="Ẩ" horiz-adv-x="626" d="M462 0l-44 167H196L152 0H5l221 720h171L621 0H462zM224 269h167l-83 315zm271 499H365l-58 50-57-50H119l120 117h136zm187 91q0-30-20-54t-55-35l-4-20h-86l-3 58q29 3 49 15.5t20 33.5q0 12-8 19.5t-22 7.5q-17 0-28-11.5T511 844l-83 18q14 39 45 65.5t89 26.5q22 0 43.5-5.5T644 932t27.5-29.5T682 859z"/><glyph glyph-name="uni1EA9" unicode="ẩ" horiz-adv-x="545" d="M386 0l-31 58q-21-29-56.5-48.5T208-10q-27 0-56.5 9T97 28 56 80t-16 78q0 41 16 72.5t43.5 54T163 320t77 18l95 13v33q0 78-67 78-28 0-48.5-16.5T194 394L59 414q8 25 23.5 50.5T124 510t63.5 32.5T278 555q94 0 145.5-45T475 366V0h-89zM262 89q36 0 73 25v154l-57-9q-45-8-72-27t-27-59q0-26 7.5-42.5T206 105t27-12.5 29-3.5zm193 509H333l-66 57-66-57H79l120 137h136zm206 110q0-30-20-54t-55-35l-4-20h-86l-3 58q29 3 49 15.5t20 33.5q0 12-8 19.5t-22 7.5q-17 0-28-11.5T490 693l-83 18q14 39 45 65.5t89 26.5q22 0 43.5-5.5T623 781t27.5-29.5T661 708z"/><glyph glyph-name="uni1EAA" unicode="Ẫ" horiz-adv-x="626" d="M462 0l-44 167H196L152 0H5l221 690h171L621 0H462zM224 269h167l-83 285zm276 449H370l-58 43-57-43H124l120 107h136zM376 840q-24 0-41 6t-31 13-27.5 13-30.5 6-41.5-9.5T158 842v85q22 16 46.5 24.5T250 960q24 0 41-6t31-13 27.5-13 30.5-6 41.5 9.5T468 958v-85q-22-16-46.5-24.5T376 840z"/><glyph glyph-name="uni1EAB" unicode="ẫ" horiz-adv-x="545" d="M386 0l-31 58q-21-29-56.5-48.5T208-10q-27 0-56.5 9T97 28 56 80t-16 78q0 41 16 72.5t43.5 54T163 320t77 18l95 13v33q0 78-67 78-28 0-48.5-16.5T194 394L59 414q8 25 23.5 50.5T124 510t63.5 32.5T278 555q94 0 145.5-45T475 366V0h-89zM262 89q36 0 73 25v154l-57-9q-45-8-72-27t-27-59q0-26 7.5-42.5T206 105t27-12.5 29-3.5zm194 510H326l-58 50-57-50H80l120 117h136zM331 730q-24 0-41 6t-31 13-27.5 13-30.5 6-41.5-9.5T113 732v90q22 16 46.5 24.5T205 855q24 0 41-6t31-13 27.5-13 30.5-6 41.5 9.5T423 853v-90q-22-16-46.5-24.5T331 730z"/><glyph glyph-name="uni1EAC" unicode="Ậ" horiz-adv-x="626" d="M462 0l-44 167H196L152 0H5l221 720h171L621 0H462zM224 269h167l-83 315zm13-439v125h152v-125H237zm263 938H370l-58 50-57-50H124l120 117h136z"/><glyph glyph-name="uni1EAD" unicode="ậ" horiz-adv-x="545" d="M386 0l-31 58q-21-29-56.5-48.5T208-10q-27 0-56.5 9T97 28 56 80t-16 78q0 41 16 72.5t43.5 54T163 320t77 18l95 13v33q0 78-67 78-28 0-48.5-16.5T194 394L59 414q8 25 23.5 50.5T124 510t63.5 32.5T278 555q94 0 145.5-45T475 366V0h-89zM262 89q36 0 73 25v154l-57-9q-45-8-72-27t-27-59q0-26 7.5-42.5T206 105t27-12.5 29-3.5zm-67-259v125h152v-125H195zm264 768H337l-66 57-66-57H83l120 137h136z"/><glyph glyph-name="uni1EAE" unicode="Ắ" horiz-adv-x="626" d="M315 960h152L351 848H251zm0-171q20 0 35 9.5t21 31.5h119q-6-34-21.5-57.5t-39-38-52.5-21-62-6.5-62 6.5-52.5 21-39 38T140 830h119q6-22 21-31.5t35-9.5zM462 0l-44 167H196L152 0H5l221 690h171L621 0H462zM224 269h167l-83 285z"/><glyph glyph-name="uni1EAF" unicode="ắ" horiz-adv-x="545" d="M386 0l-31 58q-21-29-56.5-48.5T208-10q-27 0-56.5 9T97 28 56 80t-16 78q0 41 16 72.5t43.5 54T163 320t77 18l95 13v33q0 78-67 78-28 0-48.5-16.5T194 394L59 414q8 25 23.5 50.5T124 510t63.5 32.5T278 555q94 0 145.5-45T475 366V0h-89zM262 89q36 0 73 25v154l-57-9q-45-8-72-27t-27-59q0-26 7.5-42.5T206 105t27-12.5 29-3.5zm8 576q20 0 35 11t21 40h119q-6-38-21.5-63t-39-41-52.5-22.5-62-6.5-62 6.5-52.5 22.5-39 41T95 716h119q6-29 21-40t35-11zm-18 210h152L278 738H178z"/><glyph glyph-name="uni1EB0" unicode="Ằ" horiz-adv-x="626" d="M387 848H287L171 960h152zm-72-59q20 0 35 9.5t21 31.5h119q-6-34-21.5-57.5t-39-38-52.5-21-62-6.5-62 6.5-52.5 21-39 38T140 830h119q6-22 21-31.5t35-9.5zM462 0l-44 167H196L152 0H5l221 690h171L621 0H462zM224 269h167l-83 285z"/><glyph glyph-name="uni1EB1" unicode="ằ" horiz-adv-x="545" d="M386 0l-31 58q-21-29-56.5-48.5T208-10q-27 0-56.5 9T97 28 56 80t-16 78q0 41 16 72.5t43.5 54T163 320t77 18l95 13v33q0 78-67 78-28 0-48.5-16.5T194 394L59 414q8 25 23.5 50.5T124 510t63.5 32.5T278 555q94 0 145.5-45T475 366V0h-89zM262 89q36 0 73 25v154l-57-9q-45-8-72-27t-27-59q0-26 7.5-42.5T206 105t27-12.5 29-3.5zm8 576q20 0 35 11t21 40h119q-6-38-21.5-63t-39-41-52.5-22.5-62-6.5-62 6.5-52.5 22.5-39 41T95 716h119q6-29 21-40t35-11zm70 73H240L114 875h152z"/><glyph glyph-name="uni1EB2" unicode="Ẳ" horiz-adv-x="626" d="M462 0l-44 167H196L152 0H5l221 690h171L621 0H462zM224 269h167l-83 285zm90 497q20 0 36.5 10.5T369 809h120q-4-30-20-51t-40-33.5-53.5-18.5-60.5-6-61 6-54 18.5-40.5 33.5-20.5 51h120q2-22 18.5-32.5T314 766zm104 114q0-52-70-65l-3-18h-68l-3 43q58 4 58 31 0 25-32 25-14 0-25.5-9T258 860l-75 18q14 42 49.5 62t74.5 20q48 0 79.5-21t31.5-59z"/><glyph glyph-name="uni1EB3" unicode="ẳ" horiz-adv-x="545" d="M386 0l-31 58q-21-29-56.5-48.5T208-10q-27 0-56.5 9T97 28 56 80t-16 78q0 41 16 72.5t43.5 54T163 320t77 18l95 13v33q0 78-67 78-28 0-48.5-16.5T194 394L59 414q8 25 23.5 50.5T124 510t63.5 32.5T278 555q94 0 145.5-45T475 366V0h-89zM262 89q36 0 73 25v154l-57-9q-45-8-72-27t-27-59q0-26 7.5-42.5T206 105t27-12.5 29-3.5zm7 576q20 0 35 11t21 40h119q-6-38-21.5-63t-39-41-52.5-22.5-62-6.5-62 6.5-52.5 22.5-39 41T94 716h119q6-29 21-40t35-11zm122 184q0-30-20-54t-55-35l-4-20h-86l-3 58q29 3 49 15.5t20 33.5q0 12-8 19.5t-22 7.5q-17 0-28-11.5T220 834l-83 18q14 39 45 65.5t89 26.5q22 0 43.5-5.5T353 922t27.5-29.5T391 849z"/><glyph glyph-name="uni1EB4" unicode="Ẵ" horiz-adv-x="626" d="M315 789q20 0 35 9.5t21 31.5h119q-6-34-21.5-57.5t-39-38-52.5-21-62-6.5-62 6.5-52.5 21-39 38T140 830h119q6-22 21-31.5t35-9.5zM462 0l-44 167H196L152 0H5l221 690h171L621 0H462zM224 269h167l-83 285zm152 571q-24 0-41 6t-31 13-27.5 13-30.5 6-41.5-9.5T158 842v85q22 16 46.5 24.5T250 960q24 0 41-6t31-13 27.5-13 30.5-6 41.5 9.5T468 958v-85q-22-16-46.5-24.5T376 840z"/><glyph glyph-name="uni1EB5" unicode="ẵ" horiz-adv-x="545" d="M386 0l-31 58q-21-29-56.5-48.5T208-10q-27 0-56.5 9T97 28 56 80t-16 78q0 41 16 72.5t43.5 54T163 320t77 18l95 13v33q0 78-67 78-28 0-48.5-16.5T194 394L59 414q8 25 23.5 50.5T124 510t63.5 32.5T278 555q94 0 145.5-45T475 366V0h-89zM262 89q36 0 73 25v154l-57-9q-45-8-72-27t-27-59q0-26 7.5-42.5T206 105t27-12.5 29-3.5zm5 503q-33 0-62 7.5T153 624t-39 44.5T92 735h119q5-33 20.5-47t35.5-14 35.5 14 20.5 47h119q-6-39-22-66.5T381 624t-52-24.5-62-7.5zm64 168q-24 0-41 6t-31 13-27.5 13-30.5 6-41.5-9.5T113 762v90q22 16 46.5 24.5T205 885q24 0 41-6t31-13 27.5-13 30.5-6 41.5 9.5T423 883v-90q-22-16-46.5-24.5T331 760z"/><glyph glyph-name="uni1EB6" unicode="Ặ" horiz-adv-x="626" d="M462 0l-44 167H196L152 0H5l221 720h171L621 0H462zM224 269h167l-83 315zm13-439v125h152v-125H237zm76 1004q20 0 35 11t21 40h119q-6-38-21.5-63t-39-41-52.5-22.5-62-6.5-62 6.5-52.5 22.5-39 41-21.5 63h119q6-29 21-40t35-11z"/><glyph glyph-name="uni1EB7" unicode="ặ" horiz-adv-x="545" d="M386 0l-31 58q-21-29-56.5-48.5T208-10q-27 0-56.5 9T97 28 56 80t-16 78q0 41 16 72.5t43.5 54T163 320t77 18l95 13v33q0 78-67 78-28 0-48.5-16.5T194 394L59 414q8 25 23.5 50.5T124 510t63.5 32.5T278 555q94 0 145.5-45T475 366V0h-89zM262 89q36 0 73 25v154l-57-9q-45-8-72-27t-27-59q0-26 7.5-42.5T206 105t27-12.5 29-3.5zm-70-259v125h152v-125H192zm77 762q-33 0-62 7.5T155 624t-39 44.5T94 735h119q5-33 20.5-47t35.5-14 35.5 14 20.5 47h119q-6-39-22-66.5T383 624t-52-24.5-62-7.5z"/><glyph glyph-name="uni1EB8" unicode="Ẹ" horiz-adv-x="515" d="M435 309H230V113h235V0H80v720h385V605H230V417h205V309zM200-170v125h152v-125H200z"/><glyph glyph-name="uni1EB9" unicode="ẹ" horiz-adv-x="546" d="M287 91q34 0 53.5 19t25.5 48l127-20q-8-27-24-53.5T427 37 364.5 3 279-10q-46 0-87 15t-72 48-49 86.5T53 270q0 79 17.5 133.5t48.5 88 72 48.5 88 15q64 0 106-21.5t67.5-63.5 36-102.5T499 229H196q3-42 11.5-69t20.5-42.5 27-21 32-5.5zm-4 374q-17 0-32-5t-27-20.5-20-44-10-74.5h174q-1 42-7.5 70t-18 44.5-26.5 23-33 6.5zm-75-635v125h152v-125H208z"/><glyph glyph-name="uni1EBA" unicode="Ẻ" horiz-adv-x="515" d="M435 309H230V113h235V0H80v720h385V605H230V417h205V309zm-35 556q0-30-20-54t-55-35l-4-20h-86l-3 58q29 3 49 15.5t20 33.5q0 12-8 19.5t-22 7.5q-17 0-28-11.5T229 850l-83 18q14 39 45 65.5t89 26.5q22 0 43.5-5.5T362 938t27.5-29.5T400 865z"/><glyph glyph-name="uni1EBB" unicode="ẻ" horiz-adv-x="546" d="M287 91q34 0 53.5 19t25.5 48l127-20q-8-27-24-53.5T427 37 364.5 3 279-10q-46 0-87 15t-72 48-49 86.5T53 270q0 79 17.5 133.5t48.5 88 72 48.5 88 15q64 0 106-21.5t67.5-63.5 36-102.5T499 229H196q3-42 11.5-69t20.5-42.5 27-21 32-5.5zm-4 374q-17 0-32-5t-27-20.5-20-44-10-74.5h174q-1 42-7.5 70t-18 44.5-26.5 23-33 6.5zm124 249q0-30-20-54t-55-35l-4-20h-86l-3 58q29 3 49 15.5t20 33.5q0 12-8 19.5t-22 7.5q-17 0-28-11.5T236 699l-83 18q14 39 45 65.5t89 26.5q22 0 43.5-5.5T369 787t27.5-29.5T407 714z"/><glyph glyph-name="uni1EBC" unicode="Ẽ" horiz-adv-x="515" d="M435 309H230V113h235V0H80v720h385V605H230V417h205V309zm-96 451q-24 0-41 6t-31 13-27.5 13-30.5 6-41.5-9.5T121 762v90q22 16 46.5 24.5T213 885q24 0 41-6t31-13 27.5-13 30.5-6 41.5 9.5T431 883v-90q-22-16-46.5-24.5T339 760z"/><glyph glyph-name="uni1EBD" unicode="ẽ" horiz-adv-x="546" d="M287 91q34 0 53.5 19t25.5 48l127-20q-8-27-24-53.5T427 37 364.5 3 279-10q-46 0-87 15t-72 48-49 86.5T53 270q0 79 17.5 133.5t48.5 88 72 48.5 88 15q64 0 106-21.5t67.5-63.5 36-102.5T499 229H196q3-42 11.5-69t20.5-42.5 27-21 32-5.5zm-4 374q-17 0-32-5t-27-20.5-20-44-10-74.5h174q-1 42-7.5 70t-18 44.5-26.5 23-33 6.5zm61 145q-24 0-41 6t-31 13-27.5 13-30.5 6-41.5-9.5T126 612v90q22 16 46.5 24.5T218 735q24 0 41-6t31-13 27.5-13 30.5-6 41.5 9.5T436 733v-90q-22-16-46.5-24.5T344 610z"/><glyph glyph-name="uni1EBE" unicode="Ế" horiz-adv-x="514" d="M435 309H230V113h235V0H80v720h385V605H230V417h205V309zm28 459H333l-58 50-57-50H87l120 117h136zm64 177h152L553 808H453z"/><glyph glyph-name="uni1EBF" unicode="ế" horiz-adv-x="546" d="M287 91q34 0 53.5 19t25.5 48l127-20q-8-27-24-53.5T427 37 364.5 3 279-10q-46 0-87 15t-72 48-49 86.5T53 270q0 79 17.5 133.5t48.5 88 72 48.5 88 15q64 0 106-21.5t67.5-63.5 36-102.5T499 229H196q3-42 11.5-69t20.5-42.5 27-21 32-5.5zm-4 374q-17 0-32-5t-27-20.5-20-44-10-74.5h174q-1 42-7.5 70t-18 44.5-26.5 23-33 6.5zm188 133H349l-66 57-66-57H95l120 137h136zm64 177h152L561 638H461z"/><glyph glyph-name="uni1EC0" unicode="Ề" horiz-adv-x="515" d="M436 309H231V113h235V0H81v720h385V605H231V417h205V309zm26 459H332l-58 50-57-50H86l120 117h136zM96 808H-4l-126 137H22z"/><glyph glyph-name="uni1EC1" unicode="ề" horiz-adv-x="546" d="M287 91q34 0 53.5 19t25.5 48l127-20q-8-27-24-53.5T427 37 364.5 3 279-10q-46 0-87 15t-72 48-49 86.5T53 270q0 79 17.5 133.5t48.5 88 72 48.5 88 15q64 0 106-21.5t67.5-63.5 36-102.5T499 229H196q3-42 11.5-69t20.5-42.5 27-21 32-5.5zm-4 374q-17 0-32-5t-27-20.5-20-44-10-74.5h174q-1 42-7.5 70t-18 44.5-26.5 23-33 6.5zm188 133H349l-66 57-66-57H95l120 137h136zm-366 40H5l-126 137H31z"/><glyph glyph-name="uni1EC2" unicode="Ể" horiz-adv-x="515" d="M435 309H230V113h235V0H80v720h385V605H230V417h205V309zm25 450H330l-58 50-57-50H84l120 117h136zm206 106q0-30-20-54t-55-35l-4-20h-86l-3 58q29 3 49 15.5t20 33.5q0 12-8 19.5t-22 7.5q-17 0-28-11.5T495 850l-83 18q14 39 45 65.5t89 26.5q22 0 43.5-5.5T628 938t27.5-29.5T666 865z"/><glyph glyph-name="uni1EC3" unicode="ể" horiz-adv-x="546" d="M287 91q34 0 53.5 19t25.5 48l127-20q-8-27-24-53.5T427 37 364.5 3 279-10q-46 0-87 15t-72 48-49 86.5T53 270q0 79 17.5 133.5t48.5 88 72 48.5 88 15q64 0 106-21.5t67.5-63.5 36-102.5T499 229H196q3-42 11.5-69t20.5-42.5 27-21 32-5.5zm-4 374q-17 0-32-5t-27-20.5-20-44-10-74.5h174q-1 42-7.5 70t-18 44.5-26.5 23-33 6.5zm187 133H348l-66 57-66-57H94l120 137h136zm204 110q0-30-20-54t-55-35l-4-20h-86l-3 58q29 3 49 15.5t20 33.5q0 12-8 19.5t-22 7.5q-17 0-28-11.5T503 693l-83 18q14 39 45 65.5t89 26.5q22 0 43.5-5.5T636 781t27.5-29.5T674 708z"/><glyph glyph-name="uni1EC4" unicode="Ễ" horiz-adv-x="515" d="M435 297H230V113h235V0H80v690h385V575H230V405h205V297zm25 421H330l-58 43-57-43H84l120 107h136zM336 840q-24 0-41 6t-31 13-27.5 13-30.5 6-41.5-9.5T118 842v85q22 16 46.5 24.5T210 960q24 0 41-6t31-13 27.5-13 30.5-6 41.5 9.5T428 958v-85q-22-16-46.5-24.5T336 840z"/><glyph glyph-name="uni1EC5" unicode="ễ" horiz-adv-x="546" d="M287 91q34 0 53.5 19t25.5 48l127-20q-8-27-24-53.5T427 37 364.5 3 279-10q-46 0-87 15t-72 48-49 86.5T53 270q0 79 17.5 133.5t48.5 88 72 48.5 88 15q64 0 106-21.5t67.5-63.5 36-102.5T499 229H196q3-42 11.5-69t20.5-42.5 27-21 32-5.5zm-4 374q-17 0-32-5t-27-20.5-20-44-10-74.5h174q-1 42-7.5 70t-18 44.5-26.5 23-33 6.5zm187 133H348l-66 57-66-57H94l120 137h136zM345 760q-24 0-41 6t-31 13-27.5 13-30.5 6-41.5-9.5T127 762v90q22 16 46.5 24.5T219 885q24 0 41-6t31-13 27.5-13 30.5-6 41.5 9.5T437 883v-90q-22-16-46.5-24.5T345 760z"/><glyph glyph-name="uni1EC6" unicode="Ệ" horiz-adv-x="515" d="M435 309H230V113h235V0H80v720h385V605H230V417h205V309zM200-170v125h152v-125H200zm264 938H334l-58 50-57-50H88l120 117h136z"/><glyph glyph-name="uni1EC7" unicode="ệ" horiz-adv-x="546" d="M287 91q34 0 53.5 19t25.5 48l127-20q-8-27-24-53.5T427 37 364.5 3 279-10q-46 0-87 15t-72 48-49 86.5T53 270q0 79 17.5 133.5t48.5 88 72 48.5 88 15q64 0 106-21.5t67.5-63.5 36-102.5T499 229H196q3-42 11.5-69t20.5-42.5 27-21 32-5.5zm-4 374q-17 0-32-5t-27-20.5-20-44-10-74.5h174q-1 42-7.5 70t-18 44.5-26.5 23-33 6.5zm-77-635v125h152v-125H206zm264 768H348l-66 57-66-57H94l120 137h136z"/><glyph glyph-name="uni1EC8" unicode="Ỉ" horiz-adv-x="310" d="M230 720V0H80v720h150zm48 145q0-30-20-54t-55-35l-4-20h-86l-3 58q29 3 49 15.5t20 33.5q0 12-8 19.5t-22 7.5q-17 0-28-11.5T107 850l-83 18q14 39 45 65.5t89 26.5q22 0 43.5-5.5T240 938t27.5-29.5T278 865z"/><glyph glyph-name="uni1EC9" unicode="ỉ" horiz-adv-x="280" d="M70 0v540h140V0H70zm194 709q0-30-20-54t-55-35l-4-20H99l-3 58q29 3 49 15.5t20 33.5q0 12-8 19.5t-22 7.5q-17 0-28-11.5T93 694l-83 18q14 39 45 65.5t89 26.5q22 0 43.5-5.5T226 782t27.5-29.5T264 709z"/><glyph glyph-name="uni1ECA" unicode="Ị" horiz-adv-x="310" d="M230 720V0H80v720h150zM79-170v125h152v-125H79z"/><glyph glyph-name="uni1ECB" unicode="ị" horiz-adv-x="280" d="M65-170v125h152v-125H65zM70 0v540h140V0H70zm-6 610v125h152V610H64z"/><glyph glyph-name="uni1ECC" unicode="Ọ" horiz-adv-x="683" d="M60 360q0 105 21.5 176.5t59 115.5 89 63.5T341 735t111.5-19.5T542 652t59.5-115.5T623 360t-21.5-176.5-59-115.5-89-63.5T341-15 228.5 4.5t-89 63.5T81 183.5 60 360zm153 0q0-76 9-127t25.5-81.5T288 108t53-13 53 13 41 44 26 82 9 126-10 126-27 82-41 44.5-51 13.5-50.5-13-41-44-27-82-9.5-127zm52-530v125h152v-125H265z"/><glyph glyph-name="uni1ECD" unicode="ọ" horiz-adv-x="585" d="M53 270q0 83 21 138t55 87.5 77 46 87 13.5 87-13 76.5-45.5T511 409t21-139-21-138-54.5-85.5-76.5-44T293-10 206 2.5 129 47t-55 86-21 137zm144 0q0-57 6.5-92.5t19.5-56T253.5 94t40.5-7q22 0 40 7t30 27 18.5 55.5T389 270t-6.5 94.5-19 57.5-30.5 28.5-40 7.5q-23 0-40.5-8t-30-29-19-57.5T197 270zm20-440v125h152v-125H217z"/><glyph glyph-name="uni1ECE" unicode="Ỏ" horiz-adv-x="683" d="M60 360q0 105 21.5 176.5t59 115.5 89 63.5T341 735t111.5-19.5T542 652t59.5-115.5T623 360t-21.5-176.5-59-115.5-89-63.5T341-15 228.5 4.5t-89 63.5T81 183.5 60 360zm153 0q0-76 9-127t25.5-81.5T288 108t53-13 53 13 41 44 26 82 9 126-10 126-27 82-41 44.5-51 13.5-50.5-13-41-44-27-82-9.5-127zm248 505q0-30-20-54t-55-35l-4-20h-86l-3 58q29 3 49 15.5t20 33.5q0 12-8 19.5t-22 7.5q-17 0-28-11.5T290 850l-83 18q14 39 45 65.5t89 26.5q22 0 43.5-5.5T423 938t27.5-29.5T461 865z"/><glyph glyph-name="uni1ECF" unicode="ỏ" horiz-adv-x="585" d="M53 270q0 83 21 138t55 87.5 77 46 87 13.5 87-13 76.5-45.5T511 409t21-139-21-138-54.5-85.5-76.5-44T293-10 206 2.5 129 47t-55 86-21 137zm144 0q0-57 6.5-92.5t19.5-56T253.5 94t40.5-7q22 0 40 7t30 27 18.5 55.5T389 270t-6.5 94.5-19 57.5-30.5 28.5-40 7.5q-23 0-40.5-8t-30-29-19-57.5T197 270zm219 439q0-30-20-54t-55-35l-4-20h-86l-3 58q29 3 49 15.5t20 33.5q0 12-8 19.5t-22 7.5q-17 0-28-11.5T245 694l-83 18q14 39 45 65.5t89 26.5q22 0 43.5-5.5T378 782t27.5-29.5T416 709z"/><glyph glyph-name="uni1ED0" unicode="Ố" horiz-adv-x="683" d="M60 360q0 105 21.5 176.5t59 115.5 89 63.5T341 735t111.5-19.5T542 652t59.5-115.5T623 360t-21.5-176.5-59-115.5-89-63.5T341-15 228.5 4.5t-89 63.5T81 183.5 60 360zm153 0q0-76 9-127t25.5-81.5T288 108t53-13 53 13 41 44 26 82 9 126-10 126-27 82-41 44.5-51 13.5-50.5-13-41-44-27-82-9.5-127zm315 408H398l-58 50-57-50H152l120 117h136zm64 177h152L618 808H518z"/><glyph glyph-name="uni1ED1" unicode="ố" horiz-adv-x="585" d="M53 270q0 83 21 138t55 87.5 77 46 87 13.5 87-13 76.5-45.5T511 409t21-139-21-138-54.5-85.5-76.5-44T293-10 206 2.5 129 47t-55 86-21 137zm144 0q0-57 6.5-92.5t19.5-56T253.5 94t40.5-7q22 0 40 7t30 27 18.5 55.5T389 270t-6.5 94.5-19 57.5-30.5 28.5-40 7.5q-23 0-40.5-8t-30-29-19-57.5T197 270zm285 328H360l-66 57-66-57H106l120 137h136zm64 177h152L572 638H472z"/><glyph glyph-name="uni1ED2" unicode="Ồ" horiz-adv-x="683" d="M60 360q0 105 21.5 176.5t59 115.5 89 63.5T341 735t111.5-19.5T542 652t59.5-115.5T623 360t-21.5-176.5-59-115.5-89-63.5T341-15 228.5 4.5t-89 63.5T81 183.5 60 360zm153 0q0-76 9-127t25.5-81.5T288 108t53-13 53 13 41 44 26 82 9 126-10 126-27 82-41 44.5-51 13.5-50.5-13-41-44-27-82-9.5-127zm315 408H398l-58 50-57-50H152l120 117h136zm-366 40H62L-64 945H88z"/><glyph glyph-name="uni1ED3" unicode="ồ" horiz-adv-x="585" d="M53 270q0 83 21 138t55 87.5 77 46 87 13.5 87-13 76.5-45.5T511 409t21-139-21-138-54.5-85.5-76.5-44T293-10 206 2.5 129 47t-55 86-21 137zm144 0q0-57 6.5-92.5t19.5-56T253.5 94t40.5-7q22 0 40 7t30 27 18.5 55.5T389 270t-6.5 94.5-19 57.5-30.5 28.5-40 7.5q-23 0-40.5-8t-30-29-19-57.5T197 270zm284 328H359l-66 57-66-57H105l120 137h136zm-366 40H15l-126 137H41z"/><glyph glyph-name="uni1ED4" unicode="Ổ" horiz-adv-x="683" d="M60 360q0 105 21.5 176.5t59 115.5 89 63.5T341 735t111.5-19.5T542 652t59.5-115.5T623 360t-21.5-176.5-59-115.5-89-63.5T341-15 228.5 4.5t-89 63.5T81 183.5 60 360zm153 0q0-76 9-127t25.5-81.5T288 108t53-13 53 13 41 44 26 82 9 126-10 126-27 82-41 44.5-51 13.5-50.5-13-41-44-27-82-9.5-127zm316 399H399l-58 50-57-50H153l120 117h136zm205 106q0-30-20-54t-55-35l-4-20h-86l-3 58q29 3 49 15.5t20 33.5q0 12-8 19.5t-22 7.5q-17 0-28-11.5T563 850l-83 18q14 39 45 65.5t89 26.5q22 0 43.5-5.5T696 938t27.5-29.5T734 865z"/><glyph glyph-name="uni1ED5" unicode="ổ" horiz-adv-x="585" d="M53 270q0 83 21 138t55 87.5 77 46 87 13.5 87-13 76.5-45.5T511 409t21-139-21-138-54.5-85.5-76.5-44T293-10 206 2.5 129 47t-55 86-21 137zm144 0q0-57 6.5-92.5t19.5-56T253.5 94t40.5-7q22 0 40 7t30 27 18.5 55.5T389 270t-6.5 94.5-19 57.5-30.5 28.5-40 7.5q-23 0-40.5-8t-30-29-19-57.5T197 270zm286 328H361l-66 57-66-57H107l120 137h136zm207 110q0-30-20-54t-55-35l-4-20h-86l-3 58q29 3 49 15.5t20 33.5q0 12-8 19.5t-22 7.5q-17 0-28-11.5T519 693l-83 18q14 39 45 65.5t89 26.5q22 0 43.5-5.5T652 781t27.5-29.5T690 708z"/><glyph glyph-name="uni1ED6" unicode="Ỗ" horiz-adv-x="683" d="M60 345q0 99 21.5 167.5t59 111.5 89 62T341 705t111.5-19 89.5-62 59.5-111.5T623 345t-21.5-167.5-59-111-89-62T341-15 228.5 4t-89 62T81 177.5 60 345zm153 0q0-70 9-118t25.5-77 40.5-42 53-13 53 13 41 42 26 77 9 118-10 118-27 77.5-41 42.5-51 13-50.5-13-41-42.5-27-77.5-9.5-118zm313 373H396l-58 43-57-43H150l120 107h136zM402 840q-24 0-41 6t-31 13-27.5 13-30.5 6-41.5-9.5T184 842v85q22 16 46.5 24.5T276 960q24 0 41-6t31-13 27.5-13 30.5-6 41.5 9.5T494 958v-85q-22-16-46.5-24.5T402 840z"/><glyph glyph-name="uni1ED7" unicode="ỗ" horiz-adv-x="585" d="M53 270q0 83 21 138t55 87.5 77 46 87 13.5 87-13 76.5-45.5T511 409t21-139-21-138-54.5-85.5-76.5-44T293-10 206 2.5 129 47t-55 86-21 137zm144 0q0-57 6.5-92.5t19.5-56T253.5 94t40.5-7q22 0 40 7t30 27 18.5 55.5T389 270t-6.5 94.5-19 57.5-30.5 28.5-40 7.5q-23 0-40.5-8t-30-29-19-57.5T197 270zm283 328H358l-66 57-66-57H104l120 137h136zM356 760q-24 0-41 6t-31 13-27.5 13-30.5 6-41.5-9.5T138 762v90q22 16 46.5 24.5T230 885q24 0 41-6t31-13 27.5-13 30.5-6 41.5 9.5T448 883v-90q-22-16-46.5-24.5T356 760z"/><glyph glyph-name="uni1ED8" unicode="Ộ" horiz-adv-x="683" d="M60 360q0 105 21.5 176.5t59 115.5 89 63.5T341 735t111.5-19.5T542 652t59.5-115.5T623 360t-21.5-176.5-59-115.5-89-63.5T341-15 228.5 4.5t-89 63.5T81 183.5 60 360zm153 0q0-76 9-127t25.5-81.5T288 108t53-13 53 13 41 44 26 82 9 126-10 126-27 82-41 44.5-51 13.5-50.5-13-41-44-27-82-9.5-127zm53-530v125h152v-125H266zm263 948H407l-66 57-66-57H153l120 137h136z"/><glyph glyph-name="uni1ED9" unicode="ộ" horiz-adv-x="585" d="M53 270q0 83 21 138t55 87.5 77 46 87 13.5 87-13 76.5-45.5T511 409t21-139-21-138-54.5-85.5-76.5-44T293-10 206 2.5 129 47t-55 86-21 137zm144 0q0-57 6.5-92.5t19.5-56T253.5 94t40.5-7q22 0 40 7t30 27 18.5 55.5T389 270t-6.5 94.5-19 57.5-30.5 28.5-40 7.5q-23 0-40.5-8t-30-29-19-57.5T197 270zm21-440v125h152v-125H218zm264 768H360l-66 57-66-57H106l120 137h136z"/><glyph glyph-name="uni1EDA" unicode="Ớ" horiz-adv-x="729" d="M361 915h152L387 778H287zm378-234q0-30-12-56t-30.5-47-42-37-47.5-27q16-63 16-154 0-105-21.5-176.5T542.5 68t-89-63.5T341-15 228.5 4.5t-89 63.5T81 183.5 60 360t21.5 176.5 59 115.5 89 63.5T341 735q78 0 140.5-33.5T581 590q16 13 23.5 34t7.5 56v75h127v-74zM213 360q0-76 9-127t25.5-81.5T288 108t53-13 53 13 41 44 26 82 9 126-10 126-27 82-41 44.5-51 13.5-50.5-13-41-44-27-82-9.5-127z"/><glyph glyph-name="uni1EDB" unicode="ớ" horiz-adv-x="647" d="M303 735h152L329 598H229zm354-249q0-31-11.5-56.5T616 384t-41-35.5-46-25.5q3-24 3-53 0-84-21-138t-54.5-85.5-76.5-44T293-10 206 2.5 129 47t-55 86-21 137 21 138 55 87.5 77 46 87 13.5q34 0 67-7.5t62-25 52.5-47T513 403q22 25 22 82v75h122v-74zM197 270q0-57 6.5-92.5t19.5-56T253.5 94t40.5-7q22 0 40 7t30 27 18.5 55.5T389 270t-6.5 94.5-19 57.5-30.5 28.5-40 7.5q-23 0-40.5-8t-30-29-19-57.5T197 270z"/><glyph glyph-name="uni1EDC" unicode="Ờ" horiz-adv-x="729" d="M396 778H296L170 915h152zm343-97q0-30-12-56t-30.5-47-42-37-47.5-27q16-63 16-154 0-105-21.5-176.5T542.5 68t-89-63.5T341-15 228.5 4.5t-89 63.5T81 183.5 60 360t21.5 176.5 59 115.5 89 63.5T341 735q78 0 140.5-33.5T581 590q16 13 23.5 34t7.5 56v75h127v-74zM213 360q0-76 9-127t25.5-81.5T288 108t53-13 53 13 41 44 26 82 9 126-10 126-27 82-41 44.5-51 13.5-50.5-13-41-44-27-82-9.5-127z"/><glyph glyph-name="uni1EDD" unicode="ờ" horiz-adv-x="647" d="M359 598H259L133 735h152zm298-112q0-31-11.5-56.5T616 384t-41-35.5-46-25.5q3-24 3-53 0-84-21-138t-54.5-85.5-76.5-44T293-10 206 2.5 129 47t-55 86-21 137 21 138 55 87.5 77 46 87 13.5q34 0 67-7.5t62-25 52.5-47T513 403q22 25 22 82v75h122v-74zM197 270q0-57 6.5-92.5t19.5-56T253.5 94t40.5-7q22 0 40 7t30 27 18.5 55.5T389 270t-6.5 94.5-19 57.5-30.5 28.5-40 7.5q-23 0-40.5-8t-30-29-19-57.5T197 270z"/><glyph glyph-name="uni1EDE" unicode="Ở" horiz-adv-x="729" d="M460 865q0-30-20-54t-55-35l-4-20h-86l-3 58q29 3 49 15.5t20 33.5q0 12-8 19.5t-22 7.5q-17 0-28-11.5T289 850l-83 18q14 39 45 65.5t89 26.5q22 0 43.5-5.5T422 938t27.5-29.5T460 865zm279-184q0-30-12-56t-30.5-47-42-37-47.5-27q16-63 16-154 0-105-21.5-176.5T542.5 68t-89-63.5T341-15 228.5 4.5t-89 63.5T81 183.5 60 360t21.5 176.5 59 115.5 89 63.5T341 735q78 0 140.5-33.5T581 590q16 13 23.5 34t7.5 56v75h127v-74zM213 360q0-76 9-127t25.5-81.5T288 108t53-13 53 13 41 44 26 82 9 126-10 126-27 82-41 44.5-51 13.5-50.5-13-41-44-27-82-9.5-127z"/><glyph glyph-name="uni1EDF" unicode="ở" horiz-adv-x="647" d="M415 709q0-30-20-54t-55-35l-4-20h-86l-3 58q29 3 49 15.5t20 33.5q0 12-8 19.5t-22 7.5q-17 0-28-11.5T244 694l-83 18q14 39 45 65.5t89 26.5q22 0 43.5-5.5T377 782t27.5-29.5T415 709zm242-223q0-31-11.5-56.5T616 384t-41-35.5-46-25.5q3-24 3-53 0-84-21-138t-54.5-85.5-76.5-44T293-10 206 2.5 129 47t-55 86-21 137 21 138 55 87.5 77 46 87 13.5q34 0 67-7.5t62-25 52.5-47T513 403q22 25 22 82v75h122v-74zM197 270q0-57 6.5-92.5t19.5-56T253.5 94t40.5-7q22 0 40 7t30 27 18.5 55.5T389 270t-6.5 94.5-19 57.5-30.5 28.5-40 7.5q-23 0-40.5-8t-30-29-19-57.5T197 270z"/><glyph glyph-name="uni1EE0" unicode="Ỡ" horiz-adv-x="729" d="M404 790q-24 0-41 6t-31 13-27.5 13-30.5 6-41.5-9.5T186 792v90q22 16 46.5 24.5T278 915q24 0 41-6t31-13 27.5-13 30.5-6 41.5 9.5T496 913v-90q-22-16-46.5-24.5T404 790zm335-109q0-30-12-56t-30.5-47-42-37-47.5-27q16-63 16-154 0-105-21.5-176.5T542.5 68t-89-63.5T341-15 228.5 4.5t-89 63.5T81 183.5 60 360t21.5 176.5 59 115.5 89 63.5T341 735q78 0 140.5-33.5T581 590q16 13 23.5 34t7.5 56v75h127v-74zM213 360q0-76 9-127t25.5-81.5T288 108t53-13 53 13 41 44 26 82 9 126-10 126-27 82-41 44.5-51 13.5-50.5-13-41-44-27-82-9.5-127z"/><glyph glyph-name="uni1EE1" unicode="ỡ" horiz-adv-x="647" d="M355 610q-24 0-41 6t-31 13-27.5 13-30.5 6-41.5-9.5T137 612v90q22 16 46.5 24.5T229 735q24 0 41-6t31-13 27.5-13 30.5-6 41.5 9.5T447 733v-90q-22-16-46.5-24.5T355 610zm302-124q0-31-11.5-56.5T616 384t-41-35.5-46-25.5q3-24 3-53 0-84-21-138t-54.5-85.5-76.5-44T293-10 206 2.5 129 47t-55 86-21 137 21 138 55 87.5 77 46 87 13.5q34 0 67-7.5t62-25 52.5-47T513 403q22 25 22 82v75h122v-74zM197 270q0-57 6.5-92.5t19.5-56T253.5 94t40.5-7q22 0 40 7t30 27 18.5 55.5T389 270t-6.5 94.5-19 57.5-30.5 28.5-40 7.5q-23 0-40.5-8t-30-29-19-57.5T197 270z"/><glyph glyph-name="uni1EE2" unicode="Ợ" horiz-adv-x="729" d="M266-170v125h152v-125H266zm473 851q0-30-12-56t-30.5-47-42-37-47.5-27q16-63 16-154 0-105-21.5-176.5T542.5 68t-89-63.5T341-15 228.5 4.5t-89 63.5T81 183.5 60 360t21.5 176.5 59 115.5 89 63.5T341 735q78 0 140.5-33.5T581 590q16 13 23.5 34t7.5 56v75h127v-74zM213 360q0-76 9-127t25.5-81.5T288 108t53-13 53 13 41 44 26 82 9 126-10 126-27 82-41 44.5-51 13.5-50.5-13-41-44-27-82-9.5-127z"/><glyph glyph-name="uni1EE3" unicode="ợ" horiz-adv-x="647" d="M217-170v125h152v-125H217zm440 656q0-31-11.5-56.5T616 384t-41-35.5-46-25.5q3-24 3-53 0-84-21-138t-54.5-85.5-76.5-44T293-10 206 2.5 129 47t-55 86-21 137 21 138 55 87.5 77 46 87 13.5q34 0 67-7.5t62-25 52.5-47T513 403q22 25 22 82v75h122v-74zM197 270q0-57 6.5-92.5t19.5-56T253.5 94t40.5-7q22 0 40 7t30 27 18.5 55.5T389 270t-6.5 94.5-19 57.5-30.5 28.5-40 7.5q-23 0-40.5-8t-30-29-19-57.5T197 270z"/><glyph glyph-name="uni1EE4" unicode="Ụ" horiz-adv-x="643" d="M225 720V214q0-38 9-61t23-36 32-17.5 35-4.5 35 4.5 32.5 17.5 23.5 36 9 61v506h144V223q0-118-62-178T323-15 138.5 45 75 223v497h150zm21-890v125h152v-125H246z"/><glyph glyph-name="uni1EE5" unicode="ụ" horiz-adv-x="575" d="M210 540V184q0-45 14-68.5T283 92q25 0 45 11t37 28v409h140V0h-95l-31 65q-23-35-58.5-55T234-10q-74 0-119 48T70 190v350h140zm-1-710v125h152v-125H209z"/><glyph glyph-name="uni1EE6" unicode="Ủ" horiz-adv-x="643" d="M225 720V214q0-38 9-61t23-36 32-17.5 35-4.5 35 4.5 32.5 17.5 23.5 36 9 61v506h144V223q0-118-62-178T323-15 138.5 45 75 223v497h150zm220 145q0-30-20-54t-55-35l-4-20h-86l-3 58q29 3 49 15.5t20 33.5q0 12-8 19.5t-22 7.5q-17 0-28-11.5T274 850l-83 18q14 39 45 65.5t89 26.5q22 0 43.5-5.5T407 938t27.5-29.5T445 865z"/><glyph glyph-name="uni1EE7" unicode="ủ" horiz-adv-x="575" d="M210 540V184q0-45 14-68.5T283 92q25 0 45 11t37 28v409h140V0h-95l-31 65q-23-35-58.5-55T234-10q-74 0-119 48T70 190v350h140zm200 169q0-30-20-54t-55-35l-4-20h-86l-3 58q29 3 49 15.5t20 33.5q0 12-8 19.5t-22 7.5q-17 0-28-11.5T239 694l-83 18q14 39 45 65.5t89 26.5q22 0 43.5-5.5T372 782t27.5-29.5T410 709z"/><glyph glyph-name="uni1EE8" unicode="Ứ" horiz-adv-x="732" d="M335 915h152L361 778H261zm233-195V579q23 11 35 34.5t12 66.5v75h127v-74q0-38-17.5-68.5T681 559t-56.5-38-56.5-22V223q0-118-62-178T323-15 138.5 45 75 223v497h150V214q0-38 9-61t23-36 32-17.5 35-4.5 35 4.5 32.5 17.5 23.5 36 9 61v506h144z"/><glyph glyph-name="uni1EE9" unicode="ứ" horiz-adv-x="663" d="M301 735h152L327 598H227zm-91-195V184q0-45 14-68.5T283 92q25 0 45 11t37 28v409h140V384q23 12 34.5 35t11.5 66v75h122v-74q0-38-16.5-67.5T615 367t-54.5-36.5T505 309V0h-95l-31 65q-23-35-58.5-55T234-10q-74 0-119 48T70 190v350h140z"/><glyph glyph-name="uni1EEA" unicode="Ừ" horiz-adv-x="732" d="M377 778H277L151 915h152zm191-58V579q23 11 35 34.5t12 66.5v75h127v-74q0-38-17.5-68.5T681 559t-56.5-38-56.5-22V223q0-118-62-178T323-15 138.5 45 75 223v497h150V214q0-38 9-61t23-36 32-17.5 35-4.5 35 4.5 32.5 17.5 23.5 36 9 61v506h144z"/><glyph glyph-name="uni1EEB" unicode="ừ" horiz-adv-x="663" d="M344 598H244L118 735h152zm-134-58V184q0-45 14-68.5T283 92q25 0 45 11t37 28v409h140V384q23 12 34.5 35t11.5 66v75h122v-74q0-38-16.5-67.5T615 367t-54.5-36.5T505 309V0h-95l-31 65q-23-35-58.5-55T234-10q-74 0-119 48T70 190v350h140z"/><glyph glyph-name="uni1EEC" unicode="Ử" horiz-adv-x="732" d="M447 865q0-30-20-54t-55-35l-4-20h-86l-3 58q29 3 49 15.5t20 33.5q0 12-8 19.5t-22 7.5q-17 0-28-11.5T276 850l-83 18q14 39 45 65.5t89 26.5q22 0 43.5-5.5T409 938t27.5-29.5T447 865zm121-145V579q23 11 35 34.5t12 66.5v75h127v-74q0-38-17.5-68.5T681 559t-56.5-38-56.5-22V223q0-118-62-178T323-15 138.5 45 75 223v497h150V214q0-38 9-61t23-36 32-17.5 35-4.5 35 4.5 32.5 17.5 23.5 36 9 61v506h144z"/><glyph glyph-name="uni1EED" unicode="ử" horiz-adv-x="663" d="M410 709q0-30-20-54t-55-35l-4-20h-86l-3 58q29 3 49 15.5t20 33.5q0 12-8 19.5t-22 7.5q-17 0-28-11.5T239 694l-83 18q14 39 45 65.5t89 26.5q22 0 43.5-5.5T372 782t27.5-29.5T410 709zM210 540V184q0-45 14-68.5T283 92q25 0 45 11t37 28v409h140V384q23 12 34.5 35t11.5 66v75h122v-74q0-38-16.5-67.5T615 367t-54.5-36.5T505 309V0h-95l-31 65q-23-35-58.5-55T234-10q-74 0-119 48T70 190v350h140z"/><glyph glyph-name="uni1EEE" unicode="Ữ" horiz-adv-x="732" d="M386 790q-24 0-41 6t-31 13-27.5 13-30.5 6-41.5-9.5T168 792v90q22 16 46.5 24.5T260 915q24 0 41-6t31-13 27.5-13 30.5-6 41.5 9.5T478 913v-90q-22-16-46.5-24.5T386 790zm182-70V579q23 11 35 34.5t12 66.5v75h127v-74q0-38-17.5-68.5T681 559t-56.5-38-56.5-22V223q0-118-62-178T323-15 138.5 45 75 223v497h150V214q0-38 9-61t23-36 32-17.5 35-4.5 35 4.5 32.5 17.5 23.5 36 9 61v506h144z"/><glyph glyph-name="uni1EEF" unicode="ữ" horiz-adv-x="663" d="M348 610q-24 0-41 6t-31 13-27.5 13-30.5 6-41.5-9.5T130 612v90q22 16 46.5 24.5T222 735q24 0 41-6t31-13 27.5-13 30.5-6 41.5 9.5T440 733v-90q-22-16-46.5-24.5T348 610zm-138-70V184q0-45 14-68.5T283 92q25 0 45 11t37 28v409h140V384q23 12 34.5 35t11.5 66v75h122v-74q0-38-16.5-67.5T615 367t-54.5-36.5T505 309V0h-95l-31 65q-23-35-58.5-55T234-10q-74 0-119 48T70 190v350h140z"/><glyph glyph-name="uni1EF0" unicode="Ự" horiz-adv-x="732" d="M246-170v125h152v-125H246zm322 890V579q23 11 35 34.5t12 66.5v75h127v-74q0-38-17.5-68.5T681 559t-56.5-38-56.5-22V223q0-118-62-178T323-15 138.5 45 75 223v497h150V214q0-38 9-61t23-36 32-17.5 35-4.5 35 4.5 32.5 17.5 23.5 36 9 61v506h144z"/><glyph glyph-name="uni1EF1" unicode="ự" horiz-adv-x="663" d="M209-170v125h152v-125H209zm1 710V184q0-45 14-68.5T283 92q25 0 45 11t37 28v409h140V384q23 12 34.5 35t11.5 66v75h122v-74q0-38-16.5-67.5T615 367t-54.5-36.5T505 309V0h-95l-31 65q-23-35-58.5-55T234-10q-74 0-119 48T70 190v350h140z"/><glyph glyph-name="Ygrave" unicode="Ỳ" horiz-adv-x="562" d="M557 720L353 288V0H213v288L5 720h162l120-289 130 289h140zm-210 48H240L110 885h152z"/><glyph glyph-name="ygrave" unicode="ỳ" horiz-adv-x="511" d="M340-15q-12-39-26-67.5t-34-47-48.5-27T162-165q-20 0-46 3.5T72-153v100q18-5 38-7t31-2q36 0 52 13.5T214 0h-46L5 540h147l102-428 116 428h136zm-15 613H220L68 735h157z"/><glyph glyph-name="uni1EF4" unicode="Ỵ" horiz-adv-x="562" d="M557 720L353 288V0H213v288L5 720h162l120-289 130 289h140zM207-170v125h152v-125H207z"/><glyph glyph-name="uni1EF5" unicode="ỵ" horiz-adv-x="511" d="M340-15q-12-39-26-67.5t-34-47-48.5-27T162-165q-20 0-46 3.5T72-153v100q18-5 38-7t31-2q36 0 52 13.5T214 0h-46L5 540h147l102-428 116 428h136zm35-155v125h152v-125H375z"/><glyph glyph-name="uni1EF6" unicode="Ỷ" horiz-adv-x="562" d="M557 720L353 288V0H213v288L5 720h162l120-289 130 289h140zM410 865q0-30-20-54t-55-35l-4-20h-86l-3 58q29 3 49 15.5t20 33.5q0 12-8 19.5t-22 7.5q-17 0-28-11.5T239 850l-83 18q14 39 45 65.5t89 26.5q22 0 43.5-5.5T372 938t27.5-29.5T410 865z"/><glyph glyph-name="uni1EF7" unicode="ỷ" horiz-adv-x="511" d="M340-15q-12-39-26-67.5t-34-47-48.5-27T162-165q-20 0-46 3.5T72-153v100q18-5 38-7t31-2q36 0 52 13.5T214 0h-46L5 540h147l102-428 116 428h136zm40 724q0-30-20-54t-55-35l-4-20h-86l-3 58q29 3 49 15.5t20 33.5q0 12-8 19.5t-22 7.5q-17 0-28-11.5T209 694l-83 18q14 39 45 65.5t89 26.5q22 0 43.5-5.5T342 782t27.5-29.5T380 709z"/><glyph glyph-name="uni1EF8" unicode="Ỹ" horiz-adv-x="562" d="M557 720L353 288V0H213v288L5 720h162l120-289 130 289h140zm-211 70q-24 0-41 6t-31 13-27.5 13-30.5 6-41.5-9.5T128 792v90q22 16 46.5 24.5T220 915q24 0 41-6t31-13 27.5-13 30.5-6 41.5 9.5T438 913v-90q-22-16-46.5-24.5T346 790z"/><glyph glyph-name="uni1EF9" unicode="ỹ" horiz-adv-x="511" d="M340-15q-12-39-26-67.5t-34-47-48.5-27T162-165q-20 0-46 3.5T72-153v100q18-5 38-7t31-2q36 0 52 13.5T214 0h-46L5 540h147l102-428 116 428h136zm-21 625q-24 0-41 6t-31 13-27.5 13-30.5 6-41.5-9.5T101 612v90q22 16 46.5 24.5T193 735q24 0 41-6t31-13 27.5-13 30.5-6 41.5 9.5T411 733v-90q-22-16-46.5-24.5T319 610z"/><glyph glyph-name="figuredash" unicode="‒" d="M65 261v121h410V261H65z"/><glyph glyph-name="endash" unicode="–" horiz-adv-x="400" d="M0 261v120h400V261H0z"/><glyph glyph-name="emdash" unicode="—" horiz-adv-x="600" d="M0 261v120h600V261H0z"/><glyph glyph-name="afii00208" unicode="―" horiz-adv-x="500" d="M50 261v120h400V261H50z"/><glyph glyph-name="quoteleft" unicode="‘" horiz-adv-x="260" d="M60 582l60 153h75l-37-152h42V458H60v124z"/><glyph glyph-name="quoteright" unicode="’" horiz-adv-x="260" d="M200 611l-60-153H65l37 152H60v125h140V611z"/><glyph glyph-name="quotesinglbase" unicode="‚" horiz-adv-x="260" d="M200 1l-60-153H65L102 0H60v125h140V1z"/><glyph glyph-name="quotedblleft" unicode="“" horiz-adv-x="440" d="M240 582l60 153h75l-37-152h42V458H240v124zm-180 0l60 153h75l-37-152h42V458H60v124z"/><glyph glyph-name="quotedblright" unicode="”" horiz-adv-x="440" d="M200 611l-60-153H65l37 152H60v125h140V611zm180 0l-60-153h-75l37 152h-42v125h140V611z"/><glyph glyph-name="quotedblbase" unicode="„" horiz-adv-x="440" d="M380 1l-60-153h-75L282 0h-42v125h140V1zM200 1l-60-153H65L102 0H60v125h140V1z"/><glyph glyph-name="dagger" unicode="†" horiz-adv-x="500" d="M460 435H316V0H184v435H40v113h144v172h132V548h144V435z"/><glyph glyph-name="daggerdbl" unicode="‡" horiz-adv-x="500" d="M460 186H316V0H184v186H40v113h144v136H40v113h144v172h132V548h144V435H316V299h144V186z"/><glyph glyph-name="bullet" unicode="•" horiz-adv-x="315" d="M60 230v185h195V230H60z"/><glyph glyph-name="onedotenleader" unicode="․" horiz-adv-x="500" d="M177 0v135h145V0H177z"/><glyph glyph-name="twodotenleader" unicode="‥" horiz-adv-x="500" d="M65 0v135h145V0H65zm225 0v135h145V0H290z"/><glyph glyph-name="ellipsis" unicode="…" horiz-adv-x="795" d="M60 0v135h145V0H60zm265 0v135h145V0H325zm265 0v135h145V0H590z"/><glyph glyph-name="perthousand" unicode="‰" horiz-adv-x="1138" d="M317 0H198l275 700h119zM40 541q0 85 43.5 127T193 710t109-42 43-127-43-126-109-41-109.5 41T40 541zm108 0q0-51 11.5-72t33.5-21 33.5 21 11.5 72-11.5 73-33.5 22-33.5-22-11.5-73zm299-384q0 85 43.5 127T600 326t109-42 43-127-43-126-109-41-109.5 41T447 157zm108 0q0-51 11.5-72T600 64t33.5 21 11.5 72-11.5 73-33.5 22-33.5-22-11.5-73zm238 0q0 85 43.5 127T946 326t109-42 43-127-43-126-109-41-109.5 41T793 157zm108 0q0-51 11.5-72T946 64t33.5 21 11.5 72-11.5 73-33.5 22-33.5-22-11.5-73z"/><glyph glyph-name="guilsinglleft" unicode="‹" horiz-adv-x="315" d="M40 326l125 205h100l-82-208 72-222H155z"/><glyph glyph-name="guilsinglright" unicode="›" horiz-adv-x="315" d="M160 101H60l72 222-82 208h100l125-205z"/><glyph glyph-name="exclamdbl" unicode="‼" horiz-adv-x="500" d="M290 0v140h150V0H290zm17 240l-15 480h146l-15-480H307zM60 0v140h150V0H60zm17 240L62 720h146l-15-480H77z"/><glyph glyph-name="fraction" unicode="⁄" horiz-adv-x="270" d="M-27-100h-123l448 910h122z"/><glyph glyph-name="uni2070" unicode="⁰" horiz-adv-x="380" d="M35 608q0 100 41.5 151T190 810t113.5-49.5T345 608t-41.5-150.5T190 410 76.5 459 35 608zm108 0q0-36 3.5-59t10-37 15-19.5T190 487t18.5 5.5 15 19.5 10 37 3.5 59q0 71-13.5 98.5T190 734t-33.5-27.5T143 608z"/><glyph glyph-name="uni2071" unicode="ⁱ" horiz-adv-x="203" d="M53 837v87h97v-87H53zm3-417v376h91V420H56z"/><glyph glyph-name="uni2074" unicode="⁴" horiz-adv-x="380" d="M293 660v-87h46v-82h-46v-71h-99v71H40v86l84 223h102l-79-227h53l11 87h82z"/><glyph glyph-name="uni2075" unicode="⁵" horiz-adv-x="380" d="M184 486q18 0 34 13t16 48q0 19-6 31t-14 19-17 9-16 2q-11 0-23.5-4.5T135 583H60l12 217h235v-70H154l-5-87q11 12 29 21.5t43 9.5q18 0 38-6t36.5-20.5 27-39T333 547q0-33-11.5-58t-32-41.5-47.5-25-58-8.5q-33 0-57.5 9T85 446t-26.5 30.5T46 508l90 9q5-15 16.5-23t31.5-8z"/><glyph glyph-name="uni2076" unicode="⁶" horiz-adv-x="380" d="M197 741q-8 0-16.5-3.5t-16-13.5-13.5-29.5-8-50.5q30 30 77 30 24 0 45-7.5t36.5-23 25-39.5 9.5-57q0-36-12.5-61T290 445t-47-23.5-53-7.5q-30 0-56.5 10T87 456.5t-31.5 59T44 605q0 57 13.5 96t36 63 51 35 57.5 11 51.5-9 38-22.5 24.5-30 11-31.5l-92-9q-3 15-13.5 24t-24.5 9zm-12-136q-12 0-23-3.5t-20-8.5q1-37 6-58.5t12.5-33 16-14.5 16.5-3q18 0 32 12t14 49q0 19-5 31t-13 18.5-17.5 8.5-18.5 2z"/><glyph glyph-name="uni2077" unicode="⁷" horiz-adv-x="380" d="M195 420H80l137 297H54v83h272v-88z"/><glyph glyph-name="uni2078" unicode="⁸" horiz-adv-x="380" d="M190 414q-69 0-110.5 28T38 527q0 20 7 35.5T63.5 589 88 606t25 8q-26 10-43.5 32.5T52 704q0 27 11.5 47T94 784t44 19.5 52 6.5q26 0 51-6t44.5-18.5 31-31.5 11.5-46q0-29-20.5-48T264 635q12-3 25.5-10t25.5-19.5 19.5-31T342 531q0-63-41.5-90T190 414zm50 117q0 26-17 38t-41 20q-17-10-29.5-21T140 531q0-23 13.5-34.5T190 485q22 0 36 11t14 35zm-7 173q0 23-12.5 32.5T190 746t-30.5-9.5T147 704q0-22 17-32.5t34-13.5l10 5q8 5 16.5 14t8.5 27z"/><glyph glyph-name="uni2079" unicode="⁹" horiz-adv-x="380" d="M186 483q9 0 17 3.5t14.5 14 11.5 31 7 53.5q-30-30-77-30-24 0-44.5 7t-36 22.5-24.5 39-9 56.5q0 36 13 60.5t34 40 47.5 22.5 52.5 7q32 0 58.5-10t45-32.5 29-59T335 619q0-57-12.5-96t-34-63-49.5-35-58-11q-29 0-51.5 8.5t-38 22-24 30T57 506l92 9q6-32 37-32zm8 141q22 0 42 11-1 35-5.5 56t-11 32-14.5 14-16 3q-18 0-33-11t-15-48q0-20 5-31t12.5-17 17-7.5T194 624z"/><glyph glyph-name="uni207D" unicode="⁽" horiz-adv-x="245" d="M40 610q0 50 9 92t23.5 77 32 63.5T139 894h76q-15-29-30-59.5t-26-65-18-74-7-84.5q0-46 7-85.5t18.5-74.5 26-66 29.5-59h-76q-17 22-34.5 50.5t-32 64T49 518t-9 92z"/><glyph glyph-name="uni207E" unicode="⁾" horiz-adv-x="245" d="M205 610q0-50-9-92t-23.5-77.5-32-64T106 326H30q15 28 29.5 59t26 66 18.5 74.5 7 85.5q0 45-7 84.5t-18 74-26 65T30 894h76q17-23 34.5-51.5t32-63.5 23.5-77 9-92z"/><glyph glyph-name="uni207F" unicode="ⁿ" horiz-adv-x="397" d="M55 420v378h62l19-45q17 26 41 40.5t57 14.5q48 0 78-31.5T342 672V420h-91v255q0 32-10 47t-39 15q-17 0-30.5-7.5T146 710V420H55z"/><glyph glyph-name="uni2080" unicode="₀" horiz-adv-x="380" d="M35 89q0 100 41.5 151T190 291t113.5-49.5T345 89 303.5-61.5 190-109 76.5-60 35 89zm108 0q0-36 3.5-59t10-37 15-19.5T190-32t18.5 5.5 15 19.5 10 37 3.5 59q0 71-13.5 98.5T190 215t-33.5-27.5T143 89z"/><glyph glyph-name="uni2081" unicode="₁" horiz-adv-x="380" d="M63-99v80h89v209l-96-55v91l92 55h105V-19h70v-80H63z"/><glyph glyph-name="uni2082" unicode="₂" horiz-adv-x="380" d="M192 209q-18 0-29-12t-15-31l-102 9q4 19 14.5 40T89 252.5t43.5 27.5 60.5 11q27 0 52-7t44.5-21 31.5-36.5 12-53.5q0-38-13-62t-42-51l-77-71h128v-88H55v88l133 118q17 15 27 29.5t10 37.5q0 16-8.5 25.5T192 209z"/><glyph glyph-name="uni2083" unicode="₃" horiz-adv-x="380" d="M187-25q18 0 29 12.5T227 20q0 26-13.5 36T177 66h-20v74h25q13 0 25.5 8t12.5 29q0 18-10 26.5t-25 8.5q-17 0-27-10.5T143 177l-100 9q14 51 55.5 78t95.5 27q21 0 44-5t42-16.5 31-31.5 12-50q0-26-13.5-48.5T258 108q32-5 55-29t23-66q0-29-12.5-51T291-75t-45.5-22.5T193-105q-33 0-58.5 9t-44 23.5-29.5 33T46-1l100 9q4-14 13.5-23.5T187-25z"/><glyph glyph-name="uni2084" unicode="₄" horiz-adv-x="380" d="M293 141V54h46v-82h-46v-71h-99v71H40v86l84 223h102L147 54h53l11 87h82z"/><glyph glyph-name="uni2085" unicode="₅" horiz-adv-x="380" d="M184-33q18 0 34 13t16 48q0 19-6 31t-14 19-17 9-16 2q-11 0-23.5-4.5T135 64H60l12 217h235v-70H154l-5-87q11 12 29 21.5t43 9.5q18 0 38-6t36.5-20.5 27-39T333 28q0-33-11.5-58t-32-41.5-47.5-25-58-8.5q-33 0-57.5 9T85-73 58.5-42.5 46-11l90 9q5-15 16.5-23t31.5-8z"/><glyph glyph-name="uni2086" unicode="₆" horiz-adv-x="380" d="M197 222q-8 0-16.5-3.5t-16-13.5-13.5-29.5-8-50.5q30 30 77 30 24 0 45-7.5t36.5-23 25-39.5 9.5-57q0-36-12.5-61T290-74t-47-23.5-53-7.5q-30 0-56.5 10T87-62.5t-31.5 59T44 86q0 57 13.5 96t36 63 51 35 57.5 11 51.5-9 38-22.5 24.5-30 11-31.5l-92-9q-3 15-13.5 24t-24.5 9zM185 86q-12 0-23-3.5T142 74q1-37 6-58.5t12.5-33 16-14.5 16.5-3q18 0 32 12t14 49q0 19-5 31t-13 18.5-17.5 8.5-18.5 2z"/><glyph glyph-name="uni2087" unicode="₇" horiz-adv-x="380" d="M195-99H80l137 297H54v83h272v-88z"/><glyph glyph-name="uni2088" unicode="₈" horiz-adv-x="380" d="M190-105q-69 0-110.5 28T38 8q0 20 7 35.5T63.5 70 88 87t25 8q-26 10-43.5 32.5T52 185q0 27 11.5 47T94 265t44 19.5 52 6.5q26 0 51-6t44.5-18.5 31-31.5 11.5-46q0-29-20.5-48T264 116q12-3 25.5-10T315 86.5t19.5-31T342 12q0-63-41.5-90T190-105zm50 117q0 26-17 38t-41 20q-17-10-29.5-21T140 12q0-23 13.5-34.5T190-34q22 0 36 11t14 35zm-7 173q0 23-12.5 32.5T190 227t-30.5-9.5T147 185q0-22 17-32.5t34-13.5l10 5q8 5 16.5 14t8.5 27z"/><glyph glyph-name="uni2089" unicode="₉" horiz-adv-x="380" d="M186-36q9 0 17 3.5t14.5 14 11.5 31 7 53.5q-30-30-77-30-24 0-44.5 7t-36 22.5-24.5 39-9 56.5q0 36 13 60.5t34 40 47.5 22.5 52.5 7q32 0 58.5-10t45-32.5 29-59T335 100q0-57-12.5-96t-34-63T239-94t-58-11q-29 0-51.5 8.5t-38 22-24 30T57-13l92 9q6-32 37-32zm8 141q22 0 42 11-1 35-5.5 56t-11 32-14.5 14-16 3q-18 0-33-11t-15-48q0-20 5-31t12.5-17 17-7.5T194 105z"/><glyph glyph-name="uni208D" unicode="₍" horiz-adv-x="245" d="M40 91q0 50 9 92t23.5 77 32 63.5T139 375h76q-15-29-30-59.5t-26-65-18-74-7-84.5q0-46 7-85.5T159.5-68t26-66 29.5-59h-76q-17 22-34.5 50.5t-32 64T49-1t-9 92z"/><glyph glyph-name="uni208E" unicode="₎" horiz-adv-x="245" d="M205 90q0-50-9-92t-23.5-77.5-32-64T106-194H30q15 28 29.5 59t26 66T104 5.5t7 85.5q0 45-7 84.5t-18 74-26 65T30 374h76q17-23 34.5-51.5t32-63.5 23.5-77 9-92z"/><glyph glyph-name="colonmonetary" unicode="₡" d="M306-102h-50l14 92q-14 1-27 6l-15-98h-50l18 118q-27 16-50.5 42t-41 65.5T77 217 67 343q0 104 20.5 172.5t53.5 110 75.5 60T303 708l16 102h50l-16-101q14 0 28-3l16 104h50l-18-116q22-8 39-18V560q-14 11-27.5 19T413 592L336 92q35 0 71 11t60 23V19q-9-5-25-11T406-3t-42-8.5-42-3.5h-3zm31 706l-74-480q12-13 25-20l77 499q-6 0-12 .5t-11 .5h-5zM208 343q0-95 16-144l60 386q-15-11-29-30t-24.5-48-16.5-69.5-6-94.5z"/><glyph glyph-name="dong" unicode="₫" d="M34 271q0 149 49 216.5T226 555q36 0 62.5-11.5T334 513v82H157v90h177v50h140v-50h51v-90h-51V0h-88l-38 66q-25-35-61-55.5T197-10q-30 0-59 12T86 45.5t-37.5 86T34 271zM255 96q23 0 42.5 9.5T334 129v306q-14 11-30.5 17.5T267 459q-23 0-40.5-7t-29-28-17.5-59-6-99q0-54 6.5-87.5t18-51.5 26-24.5T255 96zM83-130v90h391v-90H83z"/><glyph glyph-name="Euro" unicode="€" d="M422 370H238v-53h170l-27-98H247q7-41 18.5-66t25.5-38.5 28.5-18T347 92q35 0 65.5 11t54.5 23V19Q449 8 412-3.5T334-15q-35 0-71 9.5t-67 35-55 71T105 219H1l27 98h69v53H1l27 98h77q11 73 35 120t56.5 74 71.5 37.5 79 10.5q54 0 91-14t63-33l-28-105q-32 24-60 35t-59 11q-17 0-33-6t-30-21.5-25.5-42T247 468h202z"/><glyph glyph-name="afii61289" unicode="ℓ" horiz-adv-x="502" d="M30 166q21 16 47 35t54 41v244q0 115 49 169.5T320 710q60 0 96.5-33t36.5-90q0-36-15.5-74t-41-76-58.5-74.5-69-69.5V164q0-63 13.5-89T319 49t47 15.5 47 59.5l44-18q-21-52-65-86.5T279-15q-78 0-113 49.5T131 162v18q-24-17-43-30t-33-21zm239 197q54 55 89 109.5T393 579q0 35-13 56t-46 21q-20 0-32.5-9.5T282 621t-10-36.5-3-42.5V363z"/><glyph glyph-name="afii61352" unicode="№" horiz-adv-x="1113" d="M588 720V0H410L206 523V0H80v720h191l192-516v516h125zm90-199q0 62 16 103.5t42.5 66T797 725t69 10 68.5-10 60-34.5T1037 625t16-104-16-103.5-42.5-64.5-60-33-68.5-9-69 9.5-60.5 33.5-42.5 64.5T678 521zm125 0q0-41 4.5-66.5t13-39.5 20.5-19.5 26-5.5 25.5 5.5T912 415t12.5 39.5T929 521q0 40-4.5 66t-13 41-20 20.5T866 654t-26-5.5-20-20.5-12.5-41-4.5-66zM695 0v115h348V0H695z"/><glyph glyph-name="trademark" unicode="™" horiz-adv-x="796" d="M495 324l-82 290V324h-82v321H231V324h-94v321H40v75h418l74-271 74 271h130V324h-89v290l-79-290h-73z"/><glyph glyph-name="uni2126" unicode="Ω" horiz-adv-x="682" d="M339 735q61 0 113-20t89.5-62.5 59-110T622 380q0-66-10.5-113t-27-78.5-37-49T507 115h115V0H379v115q18 7 34.5 23t28.5 46.5 19.5 78T469 380q0 131-36 188.5T339 626q-57 0-91.5-57.5T213 380q0-70 7.5-117.5t19.5-78 28.5-46.5 34.5-23V0H60v115h115q-20 7-40.5 24.5t-37 49-27 78.5T60 380q0 95 20.5 162.5t57.5 110 88 62.5 113 20z"/><glyph glyph-name="estimated" unicode="℮" horiz-adv-x="945" d="M218 339V126q16-24 44.5-42T326 54t73.5-18.5T473 29q36 0 73 6t71.5 18.5 64.5 31 51 42.5h58Q736 63 657 26.5T472-10q-86 0-159.5 26T185 89.5t-84.5 113T70 347t31.5 145.5 86.5 115T316 683t156 27q80 0 153-26.5T753.5 608 842 491t33-152H218zm509 230q-42 46-104 74t-150 28-152.5-26.5T218 570V379h509v190z"/><glyph glyph-name="onethird" unicode="⅓" horiz-adv-x="870" d="M673 75q18 0 29 12.5t11 32.5q0 26-13.5 36T663 166h-20v74h25q13 0 25.5 8t12.5 29q0 18-10 26.5t-25 8.5q-17 0-27-10.5T629 277l-100 9q14 51 55.5 78t95.5 27q21 0 44-5t42-16.5 31-31.5 12-50q0-26-13.5-48.5T744 208q32-5 55-29t23-66q0-29-12.5-51T777 25 731.5 2.5 679-5q-33 0-58.5 9t-44 23.5-29.5 33T532 99l100 9q4-14 13.5-23.5T673 75zM278-100H155l448 910h122zM56 321v80h89v209l-96-55v91l92 55h105V401h70v-80H56z"/><glyph glyph-name="twothirds" unicode="⅔" horiz-adv-x="870" d="M287-100H164l448 910h122zM186 629q-18 0-29-12t-15-31l-102 9q4 19 14.5 40T83 672.5t43.5 27.5 60.5 11q27 0 52-7t44.5-21 31.5-36.5 12-53.5q0-38-13-62t-42-51l-77-71h128v-88H49v88l133 118q17 15 27 29.5t10 37.5q0 16-8.5 25.5T186 629zM682 75q18 0 29 12.5t11 32.5q0 26-13.5 36T672 166h-20v74h25q13 0 25.5 8t12.5 29q0 18-10 26.5t-25 8.5q-17 0-27-10.5T638 277l-100 9q14 51 55.5 78t95.5 27q21 0 44-5t42-16.5 31-31.5 12-50q0-26-13.5-48.5T753 208q32-5 55-29t23-66q0-29-12.5-51T786 25 740.5 2.5 688-5q-33 0-58.5 9t-44 23.5-29.5 33T541 99l100 9q4-14 13.5-23.5T682 75z"/><glyph glyph-name="oneeighth" unicode="⅛" horiz-adv-x="870" d="M670-5q-69 0-110.5 28T518 108q0 20 7 35.5t18.5 26.5 24.5 17 25 8q-26 10-43.5 32.5T532 285q0 27 11.5 47t30.5 33 44 19.5 52 6.5q26 0 51-6t44.5-18.5 31-31.5 11.5-46q0-29-20.5-48T744 216q12-3 25.5-10t25.5-19.5 19.5-31T822 112q0-63-41.5-90T670-5zm50 117q0 26-17 38t-41 20q-17-10-29.5-21T620 112q0-23 13.5-34.5T670 66q22 0 36 11t14 35zm-7 173q0 23-12.5 32.5T670 327t-30.5-9.5T627 285q0-22 17-32.5t34-13.5l10 5q8 5 16.5 14t8.5 27zM278-100H155l448 910h122zM56 321v80h89v209l-96-55v91l92 55h105V401h70v-80H56z"/><glyph glyph-name="threeeighths" unicode="⅜" horiz-adv-x="870" d="M284-100H161l448 910h122zm-98 495q18 0 29 12.5t11 32.5q0 26-13.5 36T176 486h-20v74h25q13 0 25.5 8t12.5 29q0 18-10 26.5t-25 8.5q-17 0-27-10.5T142 597l-100 9q14 51 55.5 78t95.5 27q21 0 44-5t42-16.5 31-31.5 12-50q0-26-13.5-48.5T257 528q32-5 55-29t23-66q0-29-12.5-51T290 345t-45.5-22.5T192 315q-33 0-58.5 9t-44 23.5-29.5 33T45 419l100 9q4-14 13.5-23.5T186 395zM676-5q-69 0-110.5 28T524 108q0 20 7 35.5t18.5 26.5 24.5 17 25 8q-26 10-43.5 32.5T538 285q0 27 11.5 47t30.5 33 44 19.5 52 6.5q26 0 51-6t44.5-18.5 31-31.5 11.5-46q0-29-20.5-48T750 216q12-3 25.5-10t25.5-19.5 19.5-31T828 112q0-63-41.5-90T676-5zm50 117q0 26-17 38t-41 20q-17-10-29.5-21T626 112q0-23 13.5-34.5T676 66q22 0 36 11t14 35zm-7 173q0 23-12.5 32.5T676 327t-30.5-9.5T633 285q0-22 17-32.5t34-13.5l10 5q8 5 16.5 14t8.5 27z"/><glyph glyph-name="fiveeighths" unicode="⅝" horiz-adv-x="870" d="M267-100H144l448 910h122zm-71 487q18 0 34 13t16 48q0 19-6 31t-14 19-17 9-16 2q-11 0-23.5-4.5T147 484H72l12 217h235v-70H166l-5-87q11 12 29 21.5t43 9.5q18 0 38-6t36.5-20.5 27-39T345 448q0-33-11.5-58t-32-41.5-47.5-25-58-8.5q-33 0-57.5 9T97 347t-26.5 30.5T58 409l90 9q5-15 16.5-23t31.5-8zM659-5q-69 0-110.5 28T507 108q0 20 7 35.5t18.5 26.5 24.5 17 25 8q-26 10-43.5 32.5T521 285q0 27 11.5 47t30.5 33 44 19.5 52 6.5q26 0 51-6t44.5-18.5 31-31.5 11.5-46q0-29-20.5-48T733 216q12-3 25.5-10t25.5-19.5 19.5-31T811 112q0-63-41.5-90T659-5zm50 117q0 26-17 38t-41 20q-17-10-29.5-21T609 112q0-23 13.5-34.5T659 66q22 0 36 11t14 35zm-7 173q0 23-12.5 32.5T659 327t-30.5-9.5T616 285q0-22 17-32.5t34-13.5l10 5q8 5 16.5 14t8.5 27z"/><glyph glyph-name="seveneighths" unicode="⅞" horiz-adv-x="870" d="M216 321H101l137 297H75v83h272v-88zm34-421H127l448 910h122zM642-5q-69 0-110.5 28T490 108q0 20 7 35.5t18.5 26.5 24.5 17 25 8q-26 10-43.5 32.5T504 285q0 27 11.5 47t30.5 33 44 19.5 52 6.5q26 0 51-6t44.5-18.5 31-31.5 11.5-46q0-29-20.5-48T716 216q12-3 25.5-10t25.5-19.5 19.5-31T794 112q0-63-41.5-90T642-5zm50 117q0 26-17 38t-41 20q-17-10-29.5-21T592 112q0-23 13.5-34.5T642 66q22 0 36 11t14 35zm-7 173q0 23-12.5 32.5T642 327t-30.5-9.5T599 285q0-22 17-32.5t34-13.5l10 5q8 5 16.5 14t8.5 27z"/><glyph glyph-name="arrowleft" unicode="←" d="M526 437V303H224l111-146H177L14 370l163 212h158L225 437h301z"/><glyph glyph-name="arrowup" unicode="↑" d="M194 421L57 318v149l212 163 213-163V318L344 422V118H194v303z"/><glyph glyph-name="arrowright" unicode="→" d="M315 438L205 583h158l162-213-162-212H205l111 146H14v134h301z"/><glyph glyph-name="arrowdown" unicode="↓" d="M194 630h150V326l138 104V281L269 118 57 281v149l137-103v303z"/><glyph glyph-name="arrowboth" unicode="↔" d="M474 370L311 583h158l162-213-162-212H311zM229 158H71L-91 370 71 583h158L66 370z"/><glyph glyph-name="arrowupdn" unicode="↕" d="M269 568L57 413v149l212 163 213-163V413zm213-239V180L269 17 57 180v149l212-155z"/><glyph glyph-name="uni2196" unicode="↖" d="M497 238l-98-98-213 214-23-180L51 285l35 266 265 35 107-106-178-23z"/><glyph glyph-name="uni2197" unicode="↗" d="M255 457L77 480l107 106 265-35 35-266-112-111-23 180-213-214-98 98z"/></font>
</defs>
</svg>
