<svg xmlns="http://www.w3.org/2000/svg"><defs><font horiz-adv-x="1024"><font-face units-per-em="1024" ascent="960" descent="-64"/><glyph horiz-adv-x="512"/><glyph unicode="" glyph-name="hamburger" d="M844.35 667.396H197.615c-29.768 0-53.895 24.127-53.895 53.895s24.126 53.896 53.894 53.896H844.35c29.77 0 53.896-24.127 53.896-53.895s-24.127-53.894-53.895-53.894zm0-251.508H197.615c-29.768 0-53.895 24.127-53.895 53.895s24.126 53.895 53.894 53.895H844.35c29.77 0 53.896-24.127 53.896-53.895s-24.127-53.895-53.895-53.895zm0-251.51H197.615c-29.768 0-53.895 24.128-53.895 53.896s24.126 53.895 53.894 53.895H844.35c29.77 0 53.896-24.128 53.896-53.896S874.12 164.38 844.35 164.38z"/><glyph unicode="" glyph-name="map-marker" d="M512 856.028c-158.738 0-287.44-128.7-287.44-287.44C224.56 335.046 512 65.572 512 65.572s287.44 269.475 287.44 503.02c0 158.737-128.702 287.438-287.44 287.438zm0-736.56S260.49 353.01 260.49 568.59c0 138.905 112.623 251.51 251.51 251.51s251.51-112.605 251.51-251.51C763.51 353.01 512 119.467 512 119.467zm0 592.84c-79.387 0-143.72-64.35-143.72-143.718S432.614 424.87 512 424.87s143.72 64.35 143.72 143.72S591.386 712.31 512 712.31zm0-251.508c-59.518 0-107.79 48.29-107.79 107.79S452.484 676.377 512 676.377s107.79-48.29 107.79-107.79S571.516 460.8 512 460.8z"/><glyph unicode="" glyph-name="tesztvezetes" d="M689.78 188.757l-7.15 11.623c-36.09 58.673-96.938 90.992-171.384 90.992-74.105 0-134.81-32.067-170.918-90.274l-7.186-11.605-11.084 7.994c-84.56 61.063-135.024 159.51-135.024 263.312 0 179.18 145.785 324.966 324.967 324.966S836.97 639.98 836.97 460.8c0-104.323-50.877-203.058-136.084-264.103l-11.102-7.94zm-178.535 128.09c78.596 0 143.9-32.355 185.416-91.477 72.148 56.68 114.85 143.72 114.85 235.448 0 165.15-134.36 299.51-299.51 299.51S212.49 625.97 212.49 460.82c0-91.244 42.342-177.996 113.897-234.676 41.535 58.62 106.64 90.705 184.86 90.705zm.755 539.2c-218.274 0-395.228-176.99-395.228-395.23C116.772 242.545 293.726 65.59 512 65.59s395.228 176.954 395.228 395.228c0 218.238-176.954 395.228-395.228 395.228zm0-754.527c-198.44 0-359.298 160.858-359.298 359.298S313.56 820.116 512 820.116s359.298-160.858 359.298-359.298S710.44 101.52 512 101.52zm71.32 359.298c0-39.39-31.93-71.32-71.32-71.32s-71.32 31.93-71.32 71.32c0 39.39 31.93 71.32 71.32 71.32s71.32-31.93 71.32-71.32zM512 448.08c-.862 0-1.76.09-2.64.27l-265.2 56.122c-6.88 1.455-11.28 8.21-9.826 15.09 1.473 6.864 8.174 11.23 15.09 9.828l265.2-56.122c6.88-1.455 11.28-8.21 9.826-15.09-1.258-5.983-6.54-10.097-12.45-10.097z"/><glyph unicode="" glyph-name="print" d="M386.246 173.36h251.51c9.934 0 17.964 8.03 17.964 17.966s-8.03 17.965-17.965 17.965h-251.51c-9.934 0-17.964-8.03-17.964-17.964s8.03-17.965 17.966-17.965zm0 71.86h179.65c9.934 0 17.964 8.03 17.964 17.966s-8.03 17.965-17.965 17.965h-179.65c-9.934 0-17.964-8.03-17.964-17.964s8.03-17.965 17.966-17.965zM655.72 532.66c-19.834 0-35.93-16.097-35.93-35.93s16.096-35.93 35.93-35.93 35.93 16.097 35.93 35.93-16.098 35.93-35.93 35.93zm107.79 0c-19.834 0-35.93-16.097-35.93-35.93s16.096-35.93 35.93-35.93 35.93 16.097 35.93 35.93-16.098 35.93-35.93 35.93zm35.93 107.79h-35.93v179.648c0 19.833-16.098 35.93-35.93 35.93H296.42c-19.832 0-35.93-16.097-35.93-35.93v-179.65h-35.93c-59.535 0-107.788-48.253-107.788-107.788V245.22c0-59.517 48.254-107.788 107.79-107.788h35.93v-35.93c0-19.85 16.096-35.93 35.93-35.93h431.157c19.832 0 35.93 16.08 35.93 35.93v35.93h35.93c59.535 0 107.788 48.29 107.788 107.79V532.66c0 59.536-48.254 107.79-107.79 107.79zM296.42 820.097h431.16v-179.65H296.42V820.1zm431.16-718.596H296.42v215.58h431.16V101.5zm143.718 143.72c0-39.685-32.175-71.86-71.86-71.86h-35.93V317.08c0 19.833-16.097 35.93-35.93 35.93H296.42c-19.833 0-35.93-16.097-35.93-35.93V173.36h-35.93c-39.684 0-71.86 32.176-71.86 71.86v287.44c0 39.684 32.175 71.86 71.86 71.86h574.877c39.684 0 71.86-32.175 71.86-71.86V245.22z"/><glyph unicode="" glyph-name="lock" d="M515.575 392.73c-39.684 0-71.86-32.174-71.86-71.86 0-18.45 7.15-35.102 18.576-47.822-.233-2.012-.61-4.006-.61-6.072 0-29.768 24.127-53.895 53.895-53.895s53.895 24.128 53.895 53.896c0 2.066-.377 4.06-.61 6.072 11.425 12.737 18.575 29.373 18.575 47.823 0 39.685-32.175 71.86-71.86 71.86zM533.54 289.92v-22.94c0-9.936-8.048-17.966-17.965-17.966s-17.965 8.03-17.965 17.965v22.94c-10.707 6.235-17.965 17.678-17.965 30.955 0 19.833 16.097 35.93 35.93 35.93s35.93-16.097 35.93-35.93c0-13.276-7.276-24.756-17.965-30.954zM731.154 536.45v107.79c0 119.052-96.525 215.578-215.58 215.578s-215.578-96.525-215.578-215.58V536.45c-39.684 0-71.86-32.175-71.86-71.86V141.222c0-39.702 32.175-71.86 71.86-71.86h431.158c39.684 0 71.86 32.157 71.86 71.86V464.59c0 39.684-32.175 71.86-71.86 71.86zM335.926 644.24c0 99.202 80.43 179.65 179.65 179.65s179.648-80.448 179.648-179.65V536.45H335.926v107.79zm431.158-503.018c0-19.833-16.097-35.93-35.93-35.93H299.996c-19.833 0-35.93 16.097-35.93 35.93V464.59c0 19.833 16.097 35.93 35.93 35.93h431.158c19.833 0 35.93-16.097 35.93-35.93V141.222z"/><glyph unicode="" glyph-name="unlock" d="M731.154 536.45v107.79c0 119.052-96.525 215.578-215.58 215.578s-215.578-96.525-215.578-215.58c0-9.934 8.048-17.964 17.965-17.964s17.966 8.03 17.966 17.965c0 99.2 80.43 179.648 179.65 179.648s179.648-80.447 179.648-179.65V536.45H299.996c-39.684 0-71.86-32.175-71.86-71.86V141.222c0-39.684 32.175-71.86 71.86-71.86h431.158c39.684 0 71.86 32.175 71.86 71.86V464.59c0 39.684-32.175 71.86-71.86 71.86zm35.93-395.228c0-19.85-16.097-35.93-35.93-35.93H299.996c-19.833 0-35.93 16.08-35.93 35.93V464.59c0 19.833 16.097 35.93 35.93 35.93h431.158c19.833 0 35.93-16.097 35.93-35.93V141.222zm-251.51 251.51c-39.683 0-71.86-32.176-71.86-71.86 0-18.47 7.15-35.086 18.577-47.824-.233-2.03-.61-4.006-.61-6.072 0-29.786 24.127-53.895 53.895-53.895s53.895 24.11 53.895 53.896c0 2.066-.377 4.042-.61 6.072 11.425 12.72 18.575 29.355 18.575 47.823 0 39.685-32.175 71.86-71.86 71.86zm17.966-102.814v-22.94c0-9.936-8.048-17.966-17.965-17.966s-17.965 8.03-17.965 17.965v22.94c-10.707 6.217-17.965 17.678-17.965 30.955 0 19.833 16.097 35.93 35.93 35.93s35.93-16.097 35.93-35.93c0-13.276-7.276-24.72-17.965-30.954z"/><glyph unicode="" glyph-name="icon-21" d="M889.263 856.028H242.526c-9.917 0-17.965-8.03-17.965-17.965V568.59c0-9.936 8.05-17.966 17.966-17.966s17.965 8.03 17.965 17.965v251.508H871.3V101.502H260.49v251.51c0 9.934-8.047 17.964-17.964 17.964s-17.965-8.03-17.965-17.965V83.538c0-9.935 8.05-17.965 17.966-17.965h646.737c9.917 0 17.965 8.03 17.965 17.965v754.526c0 9.935-8.048 17.965-17.965 17.965zm-300.14-526.246c-3.252-3.234-5.264-7.76-5.264-12.7 0-9.936 8.047-17.966 17.964-17.966 4.958 0 9.45 1.994 12.7 5.264l143.72 143.72c3.252 3.27 5.264 7.76 5.264 12.7s-2.012 9.432-5.264 12.7l-143.72 143.72c-3.25 3.27-7.742 5.264-12.7 5.264-9.917 0-17.965-8.03-17.965-17.965 0-4.94 2.01-9.433 5.263-12.702l113.053-113.053h-567.44c-9.917 0-17.965-8.03-17.965-17.965s8.05-17.965 17.966-17.965h567.44L589.123 329.782z"/><glyph unicode="" glyph-name="icon-22" d="M781.474 370.975c-9.917 0-17.965-8.03-17.965-17.965V101.5H152.7v718.597H763.51v-251.51c0-9.934 8.047-17.964 17.964-17.964s17.965 8.03 17.965 17.965v269.474c0 9.935-8.05 17.965-17.966 17.965H134.737c-9.917 0-17.965-8.03-17.965-17.965V83.536c0-9.935 8.048-17.965 17.965-17.965h646.737c9.917 0 17.965 8.03 17.965 17.966V353.01c0 9.935-8.05 17.965-17.966 17.965zm107.79 107.79H321.84l113.036 113.053c3.252 3.27 5.264 7.76 5.264 12.7 0 9.936-8.048 17.966-17.965 17.966-4.958 0-9.45-1.994-12.7-5.264L265.754 473.5c-3.252-3.27-5.264-7.76-5.264-12.7s2.013-9.432 5.265-12.7l143.72-143.72c3.25-3.27 7.742-5.264 12.7-5.264 9.917 0 17.965 8.03 17.965 17.965 0 4.94-2.012 9.433-5.264 12.702L321.84 442.835h567.423c9.917 0 17.965 8.03 17.965 17.965s-8.048 17.965-17.965 17.965z"/><glyph unicode="" glyph-name="chevron-down" d="M853.333 640.45c-4.976 0-9.468-1.995-12.7-5.265L512 323.853 183.368 635.185c-3.27 3.27-7.76 5.264-12.7 5.264-9.936 0-17.966-8.03-17.966-17.966 0-4.94 1.994-9.432 5.264-12.7L499.3 286.413c3.233-3.27 7.724-5.263 12.7-5.263 4.94 0 9.432 1.995 12.7 5.265l341.334 323.368c3.27 3.27 5.264 7.76 5.264 12.7 0 9.936-8.03 17.966-17.965 17.966z"/><glyph unicode="" glyph-name="chevron-up" d="M866.035 311.817L524.702 635.185c-3.27 3.27-7.76 5.264-12.7 5.264s-9.47-1.995-12.702-5.265L157.967 311.817c-3.27-3.27-5.264-7.725-5.264-12.7 0-9.936 8.03-17.966 17.965-17.966 4.94 0 9.432 1.995 12.7 5.265l328.633 311.332 328.633-311.332c3.234-3.27 7.725-5.264 12.7-5.264 9.936 0 17.966 8.03 17.966 17.966 0 4.976-1.995 9.432-5.265 12.7z"/><glyph unicode="" glyph-name="chevron-left" d="M375.07 460.8l311.333 328.632c3.27 3.27 5.264 7.76 5.264 12.7 0 9.936-8.03 17.966-17.965 17.966-4.976 0-9.432-1.994-12.7-5.264L337.63 473.5c-3.27-3.27-5.263-7.76-5.263-12.7s1.993-9.432 5.263-12.7L661 106.765c3.27-3.27 7.726-5.264 12.702-5.264 9.935 0 17.965 8.03 17.965 17.965 0 4.94-1.994 9.432-5.264 12.7L375.07 460.8z"/><glyph unicode="" glyph-name="chevron-right" d="M686.385 473.5L363.017 814.835c-3.27 3.27-7.76 5.264-12.7 5.264-9.936 0-17.966-8.03-17.966-17.965 0-4.94 1.995-9.432 5.265-12.7L648.947 460.8 337.615 132.168c-3.27-3.27-5.264-7.76-5.264-12.7 0-9.936 8.03-17.966 17.966-17.966 4.94 0 9.432 1.994 12.7 5.264L686.387 448.1c3.233 3.27 5.263 7.76 5.263 12.7 0 4.976-2.03 9.432-5.265 12.7z"/><glyph unicode="" glyph-name="chevron-down2" d="M691.65 281.15c-4.96 0-9.45-1.993-12.702-5.263L529.965 126.904v711.16c0 9.934-8.048 17.964-17.965 17.964s-17.965-8.03-17.965-17.965v-711.16L345.052 275.888c-3.252 3.27-7.743 5.264-12.7 5.264-9.918 0-17.966-8.03-17.966-17.964 0-4.94 2.012-9.432 5.264-12.7L499.3 70.835c3.25-3.27 7.742-5.264 12.7-5.264s9.45 1.994 12.7 5.264l179.65 179.65c3.252 3.27 5.264 7.76 5.264 12.7 0 9.935-8.048 17.965-17.965 17.965z"/><glyph unicode="" glyph-name="arrow-up" d="M704.35 671.115L524.7 850.765c-3.25 3.27-7.742 5.263-12.7 5.263s-9.45-1.994-12.7-5.264l-179.65-179.65c-3.252-3.233-5.264-7.724-5.264-12.7 0-9.935 8.048-17.965 17.965-17.965 4.96 0 9.45 1.993 12.702 5.263l148.983 148.983V83.536c0-9.934 8.048-17.964 17.965-17.964s17.965 8.03 17.965 17.965v711.16l148.983-148.984c3.252-3.27 7.743-5.264 12.7-5.264 9.918 0 17.966 8.03 17.966 17.964 0 4.976-2.012 9.468-5.264 12.7z"/><glyph unicode="" glyph-name="arrow-left" d="M889.263 478.765h-711.16l148.984 148.983c3.252 3.27 5.264 7.76 5.264 12.7 0 9.936-8.047 17.966-17.964 17.966-4.958 0-9.45-1.994-12.7-5.264L122.035 473.5c-3.252-3.27-5.264-7.76-5.264-12.7s2.012-9.432 5.264-12.7l179.65-179.65c3.25-3.27 7.742-5.264 12.7-5.264 9.917 0 17.965 8.03 17.965 17.965 0 4.94-2.01 9.433-5.263 12.702L178.104 442.835h711.16c9.916 0 17.964 8.03 17.964 17.965s-8.048 17.965-17.965 17.965z"/><glyph unicode="" glyph-name="arrow-right" d="M901.964 473.5l-179.65 179.65c-3.27 3.27-7.76 5.264-12.7 5.264-9.935 0-17.965-8.03-17.965-17.965 0-4.94 1.993-9.433 5.263-12.702l148.983-148.983h-711.16c-9.934 0-17.964-8.03-17.964-17.965s8.03-17.965 17.965-17.965h711.16L696.912 293.852c-3.27-3.27-5.264-7.725-5.264-12.7 0-9.936 8.03-17.966 17.964-17.966 4.94 0 9.432 1.994 12.7 5.264l179.65 179.65c3.27 3.27 5.264 7.76 5.264 12.7 0 4.976-1.994 9.432-5.264 12.7z"/><glyph unicode="" glyph-name="triangle" d="M828.182 618.89c0 7.94-6.43 14.373-14.372 14.373H210.19c-7.94 0-14.373-6.43-14.373-14.372 0-3.843 1.545-7.293 4.024-9.88l-.035-.018 301.828-316.164c2.623-2.75 6.27-4.49 10.366-4.49s7.724 1.742 10.365 4.49l.018-.018 301.793 316.2c2.425 2.587 4.006 6.036 4.006 9.88zM512 323.53L243.766 604.52h536.45L512 323.53z"/><glyph unicode="" glyph-name="icon-42" d="M824.176 312.59l.018.017L522.348 628.77c-2.623 2.75-6.252 4.492-10.348 4.492s-7.76-1.743-10.348-4.49l-.036.017-301.793-316.2c-2.443-2.588-4.006-6.037-4.006-9.882 0-7.94 6.413-14.372 14.372-14.372h603.62c7.94 0 14.372 6.43 14.372 14.372 0 3.844-1.563 7.294-4.006 9.88zm-580.428 4.49L512 598.09 780.216 317.08H243.748z"/><glyph unicode="" glyph-name="icon-43" d="M670.09 776.982c-3.843 0-7.293-1.545-9.898-4.024l-.018.054-316.13-301.864c-2.748-2.623-4.49-6.27-4.49-10.366s1.743-7.743 4.49-10.366l-.053-.018 316.2-301.793c2.606-2.48 6.055-4.024 9.9-4.024 7.94 0 14.372 6.432 14.372 14.373V762.61c0 7.94-6.43 14.372-14.372 14.372zm-14.37-584.398L374.71 460.8 655.72 729.034v-536.45z"/><glyph unicode="" glyph-name="icon-44" d="M684.463 460.8c0 4.096-1.743 7.743-4.51 10.366l.055.018-316.2 301.793c-2.587 2.48-6.036 4.024-9.88 4.024-7.94 0-14.373-6.43-14.373-14.37V159.007c0-7.94 6.43-14.372 14.372-14.372 3.844 0 7.294 1.545 9.88 4.024l.02-.054L679.954 450.47c2.767 2.587 4.51 6.234 4.51 10.33zM368.28 192.584v536.45L649.27 460.8 368.28 192.584z"/><glyph unicode="" glyph-name="triangle-down" d="M828.182 618.89c0 7.94-6.43 14.373-14.372 14.373H210.19c-7.94 0-14.373-6.43-14.373-14.372 0-3.843 1.545-7.293 4.024-9.88l-.017-.018L501.65 292.828c2.624-2.75 6.27-4.49 10.367-4.49s7.725 1.742 10.366 4.49l.018-.018 301.794 316.2c2.425 2.587 3.988 6.036 3.988 9.88z"/><glyph unicode="" glyph-name="triangle-up" d="M824.176 312.59l.018.017L522.348 628.77c-2.623 2.75-6.252 4.492-10.348 4.492s-7.76-1.743-10.348-4.49l-.036.017-301.793-316.2c-2.443-2.588-4.006-6.037-4.006-9.882 0-7.94 6.413-14.372 14.372-14.372h603.62c7.94 0 14.372 6.43 14.372 14.372 0 3.844-1.563 7.294-4.006 9.88z"/><glyph unicode="" glyph-name="traingle-left" d="M676.882 776.982c-3.844 0-7.294-1.545-9.917-4.024l-.018.054-316.13-301.846c-2.748-2.623-4.49-6.27-4.49-10.366s1.743-7.743 4.49-10.366l-.07-.018 316.217-301.793c2.623-2.48 6.072-4.024 9.917-4.024 7.94 0 14.373 6.43 14.373 14.37v603.64c0 7.94-6.43 14.372-14.372 14.372z"/><glyph unicode="" glyph-name="triangle-right" d="M684.463 460.8c0 4.096-1.743 7.743-4.51 10.366l.055.018L363.79 772.977c-2.587 2.48-6.036 4.024-9.88 4.024-7.94 0-14.373-6.43-14.373-14.37V159.007c0-7.94 6.413-14.372 14.372-14.372 3.843 0 7.293 1.545 9.88 4.024l.036-.054 316.13 301.864c2.766 2.587 4.508 6.234 4.508 10.33z"/><glyph unicode="" glyph-name="chevron-circle-outline-down" d="M709.614 532.66c-4.958 0-9.45-1.994-12.72-5.264L512 359.298 327.087 527.396c-3.252 3.27-7.743 5.264-12.7 5.264-9.918 0-17.966-8.03-17.966-17.965 0-4.94 2.013-9.432 5.265-12.7L499.3 322.344c3.25-3.27 7.742-5.264 12.7-5.264s9.45 1.995 12.7 5.265l197.615 179.65c3.252 3.27 5.264 7.76 5.264 12.7 0 9.935-8.05 17.965-17.966 17.965zM512 856.028c-218.256 0-395.228-176.954-395.228-395.228S293.744 65.572 512 65.572 907.228 242.526 907.228 460.8 730.256 856.028 512 856.028zm0-754.526c-198.44 0-359.298 160.876-359.298 359.298 0 198.458 160.858 359.298 359.298 359.298 198.422 0 359.298-160.84 359.298-359.298 0-198.422-160.876-359.298-359.298-359.298z"/><glyph unicode="" glyph-name="chevron-circle-outline-up" d="M512 856.028c-218.256 0-395.228-176.954-395.228-395.228S293.744 65.572 512 65.572 907.228 242.526 907.228 460.8 730.256 856.028 512 856.028zm0-754.526c-198.44 0-359.298 160.876-359.298 359.298 0 198.458 160.858 359.298 359.298 359.298 198.422 0 359.298-160.84 359.298-359.298 0-198.422-160.876-359.298-359.298-359.298zm12.7 497.754c-3.25 3.27-7.742 5.264-12.7 5.264s-9.45-1.994-12.7-5.264l-197.615-179.65c-3.252-3.27-5.264-7.76-5.264-12.7 0-9.935 8.05-17.965 17.966-17.965 4.958 0 9.45 1.995 12.7 5.265L512 562.303l184.913-168.098c3.252-3.27 7.743-5.264 12.7-5.264 9.918 0 17.966 8.03 17.966 17.966 0 4.94-2.013 9.432-5.265 12.7L524.7 599.257z"/><glyph unicode="" glyph-name="chevron-circle-outline-left" d="M583.86 658.414c0 9.935-8.048 17.965-17.965 17.965-4.958 0-9.45-1.995-12.7-5.265L373.544 473.5c-3.252-3.27-5.264-7.76-5.264-12.7s2.013-9.432 5.265-12.7l179.65-197.615c3.25-3.27 7.742-5.264 12.7-5.264 9.917 0 17.965 8.03 17.965 17.966 0 4.94-2.012 9.432-5.264 12.7L410.516 460.8l168.08 184.913c3.252 3.27 5.264 7.76 5.264 12.7zM512 856.028c-218.256 0-395.228-176.954-395.228-395.228S293.744 65.572 512 65.572 907.228 242.526 907.228 460.8 730.256 856.028 512 856.028zm0-754.526c-198.44 0-359.298 160.876-359.298 359.298S313.56 820.098 512 820.098 871.298 659.222 871.298 460.8 710.44 101.502 512 101.502z"/><glyph unicode="" glyph-name="chevron-circle-outline-right" d="M470.806 671.115c-3.252 3.27-7.743 5.264-12.7 5.264-9.918 0-17.966-8.03-17.966-17.966 0-4.94 2.012-9.432 5.264-12.7L613.484 460.8l-168.08-184.913c-3.252-3.27-5.264-7.76-5.264-12.7 0-9.936 8.048-17.966 17.965-17.966 4.958 0 9.45 1.995 12.7 5.265L650.456 448.1c3.252 3.27 5.264 7.76 5.264 12.7s-2.013 9.432-5.265 12.7l-179.65 197.615zM512 856.028c-218.256 0-395.228-176.954-395.228-395.228S293.744 65.572 512 65.572 907.228 242.526 907.228 460.8 730.256 856.028 512 856.028zm0-754.526c-198.44 0-359.298 160.876-359.298 359.298S313.56 820.098 512 820.098 871.298 659.222 871.298 460.8 710.44 101.502 512 101.502z"/><glyph unicode="" glyph-name="chevron-circle-down" d="M907.228 464.573C907.228 682.847 730.274 859.8 512 859.8S116.772 682.848 116.772 464.574 293.726 69.345 512 69.345 907.228 246.3 907.228 464.573zM495.472 322.326l-197.416 179.47c-4.6 4.598-7.042 10.455-7.042 16.688 0 12.88 10.492 23.354 23.372 23.354 6.234 0 12.09-2.425 16.492-6.845L512 370.345l181.284 164.81c4.222 4.222 10.096 6.665 16.33 6.665 12.88 0 23.336-10.474 23.336-23.354 0-6.234-2.425-12.09-6.845-16.51L528.31 322.126c-4.22-4.22-10.095-6.664-16.31-6.664-6.253.018-12.11 2.443-16.53 6.863z"/><glyph unicode="" glyph-name="chevron-circle-up" d="M116.736 464.573c0-218.274 176.954-395.228 395.228-395.228S907.192 246.3 907.192 464.573 730.238 859.8 511.964 859.8 116.736 682.866 116.736 464.574zm411.756 142.264l197.434-179.47c4.6-4.598 7.024-10.455 7.024-16.688 0-12.882-10.492-23.355-23.372-23.355-6.216 0-12.072 2.425-16.492 6.845L511.964 558.8 330.698 393.99c-4.24-4.222-10.114-6.665-16.348-6.665-12.88 0-23.336 10.474-23.336 23.354 0 6.233 2.425 12.09 6.845 16.51l197.793 179.828c4.24 4.222 10.114 6.665 16.312 6.665 6.252 0 12.108-2.425 16.528-6.845z"/><glyph unicode="" glyph-name="chevron-circle-left" d="M512 69.345c218.274 0 395.228 176.954 395.228 395.228S730.274 859.8 512 859.8 116.772 682.848 116.772 464.574 293.726 69.345 512 69.345zM369.718 481.082l179.47 197.434c4.598 4.6 10.455 7.024 16.706 7.024 12.88 0 23.336-10.474 23.336-23.354 0-6.234-2.425-12.09-6.845-16.51l-164.63-181.104 164.828-181.284c4.222-4.222 6.647-10.096 6.647-16.33 0-12.88-10.456-23.354-23.336-23.354-6.252 0-12.108 2.443-16.528 6.845l-179.83 197.81c-4.22 4.223-6.664 10.097-6.664 16.313 0 6.252 2.443 12.108 6.845 16.51z"/><glyph unicode="" glyph-name="chevron-circle-right" d="M512 859.82c-218.274 0-395.228-176.955-395.228-395.23S293.726 69.364 512 69.364 907.228 246.317 907.228 464.59 730.274 859.82 512 859.82zm142.246-411.74L474.794 250.648c-4.6-4.6-10.456-7.024-16.69-7.024-12.88 0-23.37 10.474-23.37 23.354 0 6.234 2.442 12.09 6.844 16.51l164.63 181.104-164.81 181.285c-4.222 4.222-6.665 10.096-6.665 16.33 0 12.88 10.492 23.354 23.372 23.354 6.234 0 12.09-2.444 16.492-6.846L654.444 480.92c4.222-4.222 6.647-10.096 6.647-16.312 0-6.252-2.424-12.108-6.844-16.528z"/><glyph unicode="" d="M925.193 460.8c0 218.274-176.954 395.228-395.228 395.228S134.737 679.074 134.737 460.8 311.69 65.572 529.965 65.572 925.193 242.508 925.193 460.8z"/><glyph unicode="" d="M729.16 526.785c0 5.012-4.06 9.054-9.054 9.054h-380.28c-4.995 0-9.055-4.043-9.055-9.055 0-2.425.99-4.6 2.534-6.234h-.018l190.16-199.176c1.652-1.725 3.95-2.82 6.52-2.82s4.868 1.096 6.52 2.82l.02-.018L726.627 520.55c1.545 1.636 2.533 3.828 2.533 6.235z"/><glyph unicode="" d="M134.7 460.8c0-218.274 176.955-395.228 395.23-395.228S925.156 242.526 925.156 460.8 748.203 856.028 529.93 856.028 134.7 679.074 134.7 460.8z"/><glyph unicode="" d="M726.59 412.223L536.45 611.418c-1.67 1.725-3.952 2.82-6.52 2.82s-4.887-1.096-6.522-2.82l-.018.018L333.267 412.24c-1.545-1.634-2.533-3.808-2.533-6.233 0-5.012 4.06-9.054 9.054-9.054h380.28c4.995 0 9.055 4.042 9.055 9.054 0 2.407-.988 4.6-2.533 6.216z"/><glyph unicode="" d="M529.965 65.572c218.274 0 395.228 176.954 395.228 395.228S748.24 856.028 529.965 856.028 134.737 679.074 134.737 460.8 311.69 65.572 529.965 65.572z"/><glyph unicode="" d="M602.076 659.995c-2.425 0-4.6-.97-6.252-2.533l-.018.036-199.16-190.177c-1.724-1.652-2.82-3.95-2.82-6.52s1.115-4.868 2.82-6.52l-.035-.02L595.825 264.14c1.653-1.545 3.827-2.533 6.252-2.533 4.994 0 9.054 4.042 9.054 9.054v380.28c0 5.012-4.06 9.054-9.054 9.054z"/><glyph unicode="" d="M529.965 856.028c-218.274 0-395.228-176.954-395.228-395.228S311.69 65.572 529.965 65.572 925.193 242.526 925.193 460.8 748.24 856.028 529.965 856.028z"/><glyph unicode="" d="M692.51 460.8c0 2.587-1.095 4.868-2.837 6.52l.036.02L490.495 657.46c-1.635 1.545-3.81 2.533-6.234 2.533-4.994 0-9.054-4.042-9.054-9.054V270.66c0-5.012 4.06-9.054 9.054-9.054 2.425 0 4.6.97 6.234 2.533l.018-.037 199.16 190.177c1.742 1.653 2.837 3.934 2.837 6.52z"/><glyph unicode="" glyph-name="download-circle" d="M512 340.758c-50.463 0-92.016 37.798-98.16 86.61H264.498V278.85h494.987v148.535H610.143c-6.126-48.81-47.66-86.627-98.142-86.627zm0 569.165c-248.06 0-449.123-201.063-449.123-449.123S263.94 11.677 512 11.677 961.123 212.74 961.123 460.8 760.06 909.923 512 909.923zm-12.378-173.2c0 6.863 5.55 12.378 12.378 12.378s12.378-5.532 12.378-12.377V494.376l53.104 53.122c2.264 2.246 5.354 3.63 8.75 3.63 6.826 0 12.377-5.552 12.377-12.38 0-3.394-1.384-6.52-3.63-8.748l-74.25-74.25c-2.245-2.227-5.335-3.628-8.748-3.628-3.395 0-6.503 1.4-8.75 3.63L428.985 530c-2.246 2.228-3.63 5.354-3.63 8.75 0 6.844 5.57 12.377 12.38 12.377 3.394 0 6.484-1.383 8.748-3.63l53.104-53.12v242.346zm284.6-470.196c0-6.845-5.515-12.378-12.36-12.378H252.12c-6.846 0-12.36 5.55-12.36 12.377V439.78c0 1.995.556 3.792 1.418 5.462l-.126.054 123.742 247.467.126-.036c2.03 4.06 6.126 6.9 10.923 6.9h86.627c6.845 0 12.378-5.552 12.378-12.36 0-6.864-5.55-12.38-12.378-12.38h-78.974L272.132 452.142h153.205c6.863 0 12.378-5.532 12.378-12.36 0-41.013 33.253-74.266 74.25-74.266 40.977 0 74.248 33.253 74.248 74.267 0 6.828 5.533 12.36 12.378 12.36h153.206L640.432 674.89h-78.974c-6.845 0-12.378 5.533-12.378 12.378 0 6.81 5.55 12.36 12.378 12.36h86.627c4.815 0 8.893-2.838 10.923-6.9l.126.037 123.742-247.467-.126-.054c.862-1.67 1.42-3.45 1.42-5.46V266.526z"/><glyph unicode="" glyph-name="download" d="M425.768 544.678c-9.935 0-17.965-8.048-17.965-17.965 0-4.958 1.994-9.45 5.264-12.7l107.79-107.79c3.25-3.252 7.76-5.264 12.7-5.264 4.958 0 9.45 2.01 12.7 5.263l107.79 107.79c3.27 3.25 5.264 7.742 5.264 12.7 0 9.917-8.03 17.965-17.964 17.965-4.958 0-9.45-2.012-12.7-5.264L551.52 462.29v351.862c0 9.935-8.03 17.965-17.965 17.965s-17.965-8.03-17.965-17.965v-351.86l-77.123 77.122c-3.235 3.252-7.726 5.264-12.702 5.264zM926.72 390.934l.18.072-179.65 359.298-.18-.072c-2.945 5.875-8.874 10.024-15.898 10.024H605.418c-9.935 0-17.965-8.048-17.965-17.965 0-9.952 8.03-17.964 17.965-17.964H720.07l161.684-323.368H659.312c-9.935 0-17.965-8.03-17.965-17.965 0-59.536-48.29-107.79-107.79-107.79-59.517 0-107.788 48.255-107.788 107.79 0 9.935-8.03 17.965-17.966 17.965H185.362l161.684 323.368h114.652c9.935 0 17.965 8.012 17.965 17.965 0 9.918-8.03 17.966-17.965 17.966H335.944c-7.024 0-12.953-4.132-15.9-10.024l-.18.072-179.648-359.298.18-.072c-1.222-2.407-2.066-5.048-2.066-7.94v-251.51c0-9.952 8.03-17.964 17.965-17.964H910.82c9.936 0 17.966 8.012 17.966 17.965v251.51c0 2.89-.844 5.532-2.066 7.94zM892.856 149.45H174.26v215.58h216.836c8.857-70.873 69.22-125.755 142.48-125.755 73.28 0 133.605 54.883 142.498 125.754h216.783V149.45z"/><glyph unicode="" glyph-name="upload" d="M425.768 688.397c4.958 0 9.45 1.976 12.7 5.264l77.124 77.124v-351.86c0-9.954 8.03-17.966 17.965-17.966s17.965 8.012 17.965 17.965v351.86l77.123-77.122c3.252-3.287 7.743-5.263 12.7-5.263 9.936 0 17.966 8.012 17.966 17.965 0 4.958-2.01 9.414-5.263 12.7l-107.79 107.79c-3.25 3.252-7.742 5.264-12.7 5.264s-9.45-2.012-12.7-5.264l-107.79-107.79c-3.252-3.287-5.264-7.742-5.264-12.7 0-9.953 8.03-17.965 17.965-17.965zm500.97-297.463l.162.072-179.65 359.298-.16-.072c-2.965 5.875-8.894 10.024-15.918 10.024h-17.965c-9.935 0-17.965-8.048-17.965-17.965 0-9.952 8.03-17.964 17.965-17.964h6.863l161.684-323.368H659.312c-9.935 0-17.965-8.03-17.965-17.965 0-59.536-48.29-107.79-107.79-107.79-59.517 0-107.788 48.255-107.788 107.79 0 9.935-8.03 17.965-17.966 17.965H185.362l161.684 323.368h6.863c9.934 0 17.964 8.012 17.964 17.965 0 9.918-8.03 17.966-17.965 17.966h-17.966c-7.024 0-12.953-4.132-15.9-10.024l-.18.072-179.648-359.298.18-.072c-1.222-2.407-2.066-5.048-2.066-7.94v-251.51c0-9.952 8.03-17.964 17.965-17.964H910.82c9.936 0 17.966 8.012 17.966 17.965v251.51c0 2.89-.844 5.532-2.048 7.94zM892.856 149.45H174.26v215.58h216.836c8.857-70.873 69.22-125.755 142.48-125.755 73.28 0 133.605 54.883 142.48 125.754h216.8V149.45z"/><glyph unicode="" glyph-name="pdf" d="M392.102 424.673c-18.378 0-31.44-1.258-40.726-2.964V281.17h29.84v50.93c2.767-.413 6.324-.63 10.276-.63 17.785 0 33.002 4.654 43.277 15.002 7.904 8.03 12.27 19.87 12.27 33.828s-5.75 25.78-14.247 32.966c-8.857 7.58-22.133 11.408-40.69 11.408zm-.808-68.483c-4.365 0-7.51.198-10.078.844v42.074c2.174.63 6.324 1.258 12.432 1.258 15.037 0 23.534-7.833 23.534-20.91.018-14.606-9.863-23.266-25.887-23.266zm108.598 68.483c-15.234 0-29.642-1.06-40.726-2.964V281.797c7.51-1.06 18.576-2.102 34.187-2.102 26.067 0 47.445 5.91 61.476 18.378 12.844 11.605 22.114 30.415 22.114 57.685 0 25.15-8.677 42.702-22.528 53.678-12.845 10.384-29.23 15.234-54.524 15.234zm0-119.862c-3.755 0-7.905 0-10.492.648v93.202c2.587.63 6.934 1.258 13.653 1.258 25.887 0 42.11-15.647 41.894-45.236 0-34.008-17.785-50.05-45.056-49.87zM655.72 856.03H260.49c-39.683 0-71.86-32.157-71.86-71.86v-646.72c0-39.7 32.176-71.877 71.86-71.877h503.02c39.683 0 71.86 32.176 71.86 71.88v520.963L655.72 856.027zM799.44 137.45c0-19.85-16.098-35.93-35.93-35.93H260.49c-19.832 0-35.93 16.08-35.93 35.93v646.72c0 19.832 16.098 35.93 35.93 35.93h323.37V640.45c0-19.833 16.096-35.912 35.93-35.912h179.648V137.45zm-179.65 503v179.648h17.964l161.684-179.65h-179.65zM602.9 281.17h30.235v57.27h47.84v26.212h-47.84v32.552h51.2v26.426h-81.435V281.168z"/><glyph unicode="" glyph-name="envelope" d="M856.926 760.257H210.19c-39.685 0-71.86-32.175-71.86-71.86V257.24c0-39.685 32.174-71.86 71.86-71.86h646.736c39.684 0 71.86 32.174 71.86 71.86v431.157c0 39.684-32.175 71.86-71.86 71.86zm-646.737-35.93h646.736c4.222 0 8.21-.862 11.983-2.21l-310.992-311.01c-6.503-6.484-15.162-10.095-24.342-10.095s-17.84 3.593-24.36 10.096l-310.973 311.01c3.737 1.346 7.743 2.21 11.947 2.21zM174.26 257.24v431.158c0 2.138.287 4.186.63 6.252l221.83-221.83-221.83-221.85c-.342 2.066-.63 4.132-.63 6.27zm682.666-35.93H210.19c-4.205 0-8.21.862-11.966 2.192L422.12 447.417l61.693-61.71c13.76-13.742 31.762-20.605 49.763-20.605 18.02 0 36.02 6.88 49.745 20.606l61.71 61.71L868.963 223.5c-3.827-1.33-7.797-2.192-12.036-2.192zm35.93 35.93c0-2.138-.287-4.204-.63-6.27l-221.83 221.85 221.83 221.83c.36-2.048.63-4.114.63-6.252V257.24z"/><glyph unicode="" glyph-name="news-letter" d="M856.926 778.222H353.908c-39.684 0-71.86-32.175-71.86-71.86v-17.965c0-9.935 8.03-17.965 17.965-17.965s17.965 8.03 17.965 17.965v17.965c0 19.833 16.08 35.93 35.93 35.93h503.018c19.833 0 35.93-16.097 35.93-35.93V382.994c0-19.833-16.097-35.93-35.93-35.93H838.96c-9.934 0-17.964-8.048-17.964-17.965 0-9.936 8.03-17.966 17.965-17.966h17.966c39.684 0 71.86 32.175 71.86 71.86v323.368c0 39.684-32.175 71.86-71.86 71.86zm-143.72-143.72H210.19c-39.685 0-71.86-32.174-71.86-71.86V239.276c0-39.684 32.174-71.86 71.86-71.86h503.017c39.684 0 71.86 32.175 71.86 71.86v323.368c0 39.684-32.175 71.86-71.86 71.86zm-503.017-35.93h503.017c8.947 0 17.05-3.412 23.336-8.82L486.058 339.25c-6.503-6.468-15.162-10.097-24.342-10.097s-17.84 3.61-24.36 10.096L186.853 589.77c6.306 5.39 14.39 8.803 23.336 8.803zm-35.93-47.013l150.6-150.6-150.6-150.6v301.2zm538.947-348.215H210.19c-8.948 0-17.032 3.377-23.337 8.803l163.41 163.41 61.69-61.693c13.762-13.76 31.763-20.624 49.764-20.624 18.02 0 36.02 6.882 49.745 20.625l61.71 61.692 163.408-163.41c-6.324-5.424-14.426-8.802-23.372-8.802zm35.93 47.014l-150.6 150.6 150.6 150.58V250.36z"/><glyph unicode="" glyph-name="phone" d="M907.21 231.334h-.27c0 14.875-6.035 28.35-15.772 38.104-2.874 2.874-6.126 5.3-9.593 7.437l-152.09 118.317c-9.774 9.755-23.23 15.79-38.123 15.79-12.18 0-23.3-4.203-32.283-11.047l-42.452-42.774-.108.11c-6.575-7.367-16.025-12.073-26.66-12.073-12.162 0-22.85 6.072-29.373 15.306-.216-.36-.52-.7-.755-1.06-58.71 42.595-110.736 93.867-153.277 152.63.413.287.79.593 1.204.88-9.36 6.557-15.523 17.372-15.523 29.678 0 10.978 5.012 20.733 12.755 27.362l-.054.036 42.236 41.93c6.863 8.947 11.03 20.067 11.03 32.283 0 14.876-6.036 28.35-15.79 38.105l-118.3 152.11c-2.156 3.43-4.58 6.7-7.455 9.574-9.756 9.754-23.23 15.79-38.105 15.79-71.86 0-161.684-84.453-161.684-188.632 0-28.87 6.684-56.104 18.253-80.555l-.593-.593C242.525 374.784 422.174 195.135 637.448 87.022l.593.593c24.45-11.605 51.686-18.252 80.556-18.252 104.18 0 188.632 89.825 188.632 161.684 0 .072-.018.18-.018.287zM718.596 105.292c-22.528 0-44.463 4.976-65.177 14.767-1.94.915-3.953 1.652-5.983 2.173-204.225 104.18-373.455 273.372-477.67 477.58-.574 2.065-1.31 4.167-2.263 6.143-9.827 20.767-14.803 42.703-14.803 65.23 0 87.13 76.298 152.703 125.755 152.703 6.467 0 10.743-3.307 12.7-5.3.45-.45 1.26-1.366 2.444-3.307.628-.988 1.328-1.958 2.047-2.91l118.3-152.11c.915-1.185 1.903-2.28 2.963-3.376 1.958-1.922 5.264-6.216 5.264-12.665 0-3.198-.88-6.18-2.605-8.947l-40.045-39.72c-.18-.216-.36-.36-.54-.557-14.515-13.653-22.78-32.57-22.78-52.386 0-18.558 7.205-36.253 19.726-49.51.45-.702.917-1.402 1.42-2.103 44.158-61.01 98.412-115.048 161.29-160.66.484-.36.97-.702 1.472-1.025 13.276-12.737 31.08-20.067 49.745-20.067 18.755 0 36.846 7.51 50.266 20.696.683.557 1.365 1.222 2.012 1.886l40.24 40.53c2.82 1.76 5.84 2.658 8.983 2.658 6.467 0 10.743-3.306 12.7-5.264 1.06-1.06 2.175-2.03 3.342-2.982l152.11-118.28c.97-.773 1.993-1.474 3.035-2.103 1.904-1.187 2.767-1.96 3.198-2.39 1.976-1.958 5.264-6.252 5.264-12.7 0-1.223.072-2.426.198-3.612-2.82-49.457-67.404-122.395-152.612-122.395z"/><glyph unicode="" glyph-name="phone-ring" d="M548.038 823.89c178.59 0 323.368-144.816 323.368-323.405 0-9.9 8.03-17.93 17.965-17.93 9.918 0 17.966 8.03 17.966 17.93 0 198.458-160.858 359.334-359.298 359.334-9.935 0-17.965-8.067-17.965-17.966 0-9.935 8.03-17.965 17.965-17.965zm0-179.65c79.37 0 143.72-64.35 143.72-143.755 0-9.9 8.03-17.93 17.964-17.93 9.917 0 17.965 8.03 17.965 17.93 0 99.22-80.43 179.685-179.65 179.685-9.934 0-17.964-8.03-17.964-17.965s8.03-17.965 17.965-17.965zm0-179.65c19.833 0 35.93 16.098 35.93 35.895 0 19.85-16.097 35.966-35.93 35.966s-35.93-16.096-35.93-35.965c0-19.797 16.08-35.894 35.93-35.894zm358.795-233.256c0 14.875-6.036 28.35-15.79 38.104-2.857 2.874-6.11 5.3-9.558 7.437l-152.11 118.317c-9.772 9.755-23.228 15.79-38.12 15.79-12.18 0-23.3-4.203-32.284-11.047L616.54 357.16l-.126.11c-6.557-7.367-16.025-12.073-26.642-12.073-12.162 0-22.85 6.072-29.373 15.306-.234-.36-.52-.7-.755-1.06-58.727 42.595-110.736 93.867-153.277 152.63.395.287.79.593 1.186.88-9.36 6.557-15.503 17.372-15.503 29.678 0 10.978 4.994 20.733 12.755 27.362l-.054.036 42.236 41.93c6.863 8.947 11.03 20.067 11.03 32.283 0 14.876-6.036 28.35-15.79 38.105l-118.318 152.11c-2.156 3.43-4.58 6.7-7.455 9.574-9.754 9.754-23.228 15.79-38.103 15.79-71.86 0-161.684-84.453-161.684-188.632 0-28.87 6.683-56.104 18.252-80.555l-.593-.593C242.435 374.784 422.084 195.135 637.34 87.022l.593.593c24.45-11.605 51.685-18.252 80.555-18.252 104.18 0 188.632 89.825 188.632 161.684 0 .072-.018.18-.018.287h-.27zM718.49 105.292c-22.53 0-44.482 4.976-65.178 14.767-1.94.915-3.97 1.652-5.982 2.173-204.225 104.18-373.455 273.372-477.67 477.58-.574 2.065-1.31 4.167-2.263 6.143-9.845 20.767-14.803 42.703-14.803 65.23 0 87.13 76.297 152.703 125.754 152.703 6.45 0 10.743-3.307 12.7-5.3.432-.45 1.24-1.366 2.444-3.307.63-.988 1.33-1.958 2.066-2.91l118.28-152.11c.917-1.185 1.887-2.28 2.965-3.376 1.94-1.922 5.264-6.216 5.264-12.665 0-3.198-.88-6.18-2.623-8.947l-40.044-39.72c-.18-.216-.377-.36-.54-.557-14.515-13.653-22.78-32.57-22.78-52.386 0-18.558 7.187-36.253 19.726-49.51.45-.702.916-1.402 1.42-2.103 44.157-61.01 98.41-115.048 161.288-160.66.485-.36.988-.702 1.473-1.025 13.276-12.737 31.08-20.067 49.763-20.067 18.755 0 36.846 7.51 50.266 20.696.683.557 1.365 1.222 2.012 1.886l40.223 40.53c2.82 1.76 5.84 2.658 8.983 2.658 6.467 0 10.76-3.306 12.7-5.264 1.08-1.06 2.175-2.03 3.36-2.982l152.11-118.28c.97-.773 1.993-1.474 3.035-2.103 1.904-1.187 2.767-1.96 3.198-2.39 1.976-1.958 5.264-6.252 5.264-12.7 0-1.223.072-2.426.216-3.612-2.838-49.457-67.422-122.395-152.63-122.395z"/><glyph unicode="" glyph-name="icon0-15" d="M907.228 716.1c0 9.916-8.048 17.964-17.965 17.964-5.12 0-9.665-2.192-12.935-5.64l-.054.07L403.976 238.72l-256.54 256.52c-3.25 3.27-7.742 5.283-12.7 5.283-9.917 0-17.965-8.047-17.965-17.964 0-4.958 2.013-9.45 5.265-12.7L391.51 200.362c3.25-3.252 7.742-5.246 12.7-5.246 5.12 0 9.665 2.174 12.935 5.605l.072-.036 484.98 503.09c3.09 3.18 5.03 7.508 5.03 12.323z"/><glyph unicode="" glyph-name="close" d="M558.96 464.59l292.702 292.703c3.27 3.234 5.264 7.725 5.264 12.7 0 9.918-8.03 17.966-17.965 17.966-4.94 0-9.43-2.013-12.7-5.283L533.558 489.993 240.856 782.677c-3.252 3.27-7.743 5.282-12.7 5.282-9.936 0-17.966-8.05-17.966-17.966 0-4.958 1.994-9.45 5.264-12.72l292.702-292.683-292.702-292.72c-3.27-3.233-5.264-7.724-5.264-12.682 0-9.935 8.03-17.965 17.965-17.965 4.958 0 9.45 2.012 12.7 5.264L533.56 439.19 826.26 146.504c3.27-3.27 7.76-5.264 12.7-5.264 9.936 0 17.966 8.03 17.966 17.966 0 4.958-1.994 9.45-5.264 12.683L558.96 464.59z"/><glyph unicode="" glyph-name="ellips-outline" d="M206.596 554.415c-49.6 0-89.825-40.223-89.825-89.825 0-49.637 40.224-89.825 89.826-89.825 49.62 0 89.825 40.188 89.825 89.825 0 49.6-40.204 89.825-89.824 89.825zm0-143.72c-29.768 0-53.895 24.128-53.895 53.896 0 29.75 24.128 53.896 53.896 53.896s53.895-24.145 53.895-53.895c0-29.767-24.126-53.894-53.894-53.894zM512 554.416c-49.6 0-89.825-40.223-89.825-89.825 0-49.637 40.223-89.825 89.825-89.825 49.62 0 89.825 40.188 89.825 89.825 0 49.6-40.205 89.825-89.825 89.825zm0-143.72c-29.768 0-53.895 24.128-53.895 53.896 0 29.75 24.127 53.896 53.895 53.896s53.895-24.145 53.895-53.895c0-29.767-24.127-53.894-53.895-53.894zm305.404 143.72c-49.6 0-89.825-40.223-89.825-89.825 0-49.637 40.222-89.825 89.824-89.825 49.62 0 89.825 40.188 89.825 89.825 0 49.6-40.206 89.825-89.826 89.825zm0-143.72c-29.768 0-53.895 24.128-53.895 53.896 0 29.75 24.126 53.896 53.894 53.896S871.3 494.34 871.3 464.59c0-29.767-24.128-53.894-53.896-53.894z"/><glyph unicode="" glyph-name="ellips-circle-outline" d="M709.614 518.485c-29.768 0-53.895-24.145-53.895-53.895 0-29.768 24.126-53.895 53.894-53.895s53.895 24.127 53.895 53.895c0 29.75-24.128 53.895-53.896 53.895zm0-71.86c-9.917 0-17.965 8.03-17.965 17.966 0 9.918 8.047 17.966 17.964 17.966s17.965-8.048 17.965-17.965c0-9.934-8.05-17.964-17.966-17.964zm-395.228 71.86c-29.768 0-53.895-24.145-53.895-53.895 0-29.768 24.128-53.895 53.896-53.895s53.895 24.127 53.895 53.895c0 29.75-24.126 53.895-53.894 53.895zm0-71.86c-9.917 0-17.965 8.03-17.965 17.966 0 9.918 8.05 17.966 17.966 17.966s17.965-8.048 17.965-17.965c0-9.934-8.047-17.964-17.964-17.964zM512 518.486c-29.768 0-53.895-24.145-53.895-53.895 0-29.768 24.127-53.895 53.895-53.895s53.895 24.127 53.895 53.895c0 29.75-24.127 53.895-53.895 53.895zm0-71.86c-9.917 0-17.965 8.03-17.965 17.966 0 9.918 8.048 17.966 17.965 17.966s17.965-8.048 17.965-17.965c0-9.934-8.048-17.964-17.965-17.964zm0 413.194c-218.274 0-395.228-176.955-395.228-395.23S293.726 69.364 512 69.364 907.228 246.317 907.228 464.59c0 218.275-176.954 395.23-395.228 395.23zm0-754.528c-198.44 0-359.298 160.858-359.298 359.298 0 198.404 160.858 359.298 359.298 359.298S871.298 662.994 871.298 464.59c0-198.44-160.858-359.298-359.298-359.298z"/><glyph unicode="" glyph-name="minus-circle-outline" d="M731.172 482.556H335.944c-9.935 0-17.965-8.066-17.965-17.965 0-9.934 8.03-18 17.964-18h395.228c9.935 0 17.965 8.066 17.965 18 0 9.9-8.03 17.966-17.965 17.966zM533.558 859.82c-218.274 0-395.228-176.955-395.228-395.23S315.284 69.364 533.558 69.364 928.786 246.317 928.786 464.59 751.85 859.82 533.558 859.82zm0-754.528c-198.422 0-359.298 160.84-359.298 359.298 0 198.422 160.876 359.298 359.298 359.298 198.44 0 359.298-160.876 359.298-359.298 0-198.458-160.858-359.298-359.298-359.298z"/><glyph unicode="" glyph-name="plus-circle-outline" d="M731.172 482.556h-179.65V662.17c0 9.97-8.03 18-17.964 18s-17.965-8.03-17.965-18V482.555h-179.65c-9.934 0-17.964-8.066-17.964-17.965 0-9.934 8.03-18 17.964-18h179.65V266.977c0-9.935 8.03-17.965 17.964-17.965s17.965 8.03 17.965 17.965V446.59h179.65c9.934 0 17.964 8.066 17.964 18 0 9.9-8.03 17.966-17.965 17.966zM533.558 859.82c-218.274 0-395.228-176.955-395.228-395.23S315.284 69.364 533.558 69.364 928.786 246.317 928.786 464.59 751.85 859.82 533.558 859.82zm0-754.528c-198.422 0-359.298 160.84-359.298 359.298 0 198.422 160.876 359.298 359.298 359.298 198.44 0 359.298-160.876 359.298-359.298 0-198.458-160.858-359.298-359.298-359.298z"/><glyph unicode="" glyph-name="icon0-16" d="M533.27 364.526L366.627 531.17c-3.252 3.25-7.743 5.263-12.7 5.263-9.936 0-17.966-8.048-17.966-17.965 0-4.958 1.995-9.45 5.265-12.72l179.65-179.63c3.27-3.27 7.742-5.264 12.7-5.264 5.12 0 9.665 2.174 12.953 5.623l.054-.072L846.56 640.683c0-.036.054-.072.072-.108l25.654 26.91c-.018 0-.036.055-.054.09l51.613 54.075-.054.054c3.073 3.216 5.013 7.545 5.013 12.342 0 9.917-8.03 17.965-17.965 17.965-5.12 0-9.683-2.19-12.953-5.604l-.036.054-46.17-48.38c-.037.054-.073.09-.11.144l-25.06-26.265c.036-.055.054-.11.09-.145l-293.33-307.29zM897.042 616.07c-7.06 6.953-18.45 6.864-25.402-.233-4.94-5.012-6.162-12.198-4.006-18.45l-.377-.126c16.348-41.085 25.618-85.746 25.618-132.67 0-198.44-160.84-359.298-359.298-359.298-198.422 0-359.298 160.858-359.298 359.298s160.875 359.298 359.297 359.298c101.556 0 193.123-42.253 258.425-110.035l.234.234c7.114-6.396 17.983-6.234 24.756.647 6.952 7.096 6.863 18.45-.216 25.42-.665.665-1.545.934-2.282 1.49C742.922 814.385 643.72 859.8 533.56 859.8c-218.275 0-395.23-176.936-395.23-395.228 0-218.274 176.955-395.228 395.23-395.228s395.227 176.954 395.227 395.228c0 50.805-9.935 99.22-27.396 143.845-.843 2.767-2.137 5.46-4.347 7.653z"/><glyph unicode="" glyph-name="plus-circle" d="M533.558 859.82c-218.274 0-395.228-176.955-395.228-395.23S315.284 69.364 533.558 69.364 928.786 246.317 928.786 464.59 751.85 859.82 533.558 859.82zm197.614-408.002h-174.26v-184.84c0-9.936-8.03-17.966-17.965-17.966s-17.965 8.03-17.965 17.965v184.84h-185.04c-9.934 0-17.964 8.05-17.964 17.984 0 9.9 8.03 17.948 17.965 17.948h185.04v174.42c0 9.972 8.03 18.002 17.964 18.002s17.965-8.03 17.965-18V487.747h174.26c9.935 0 17.965-8.048 17.965-17.947 0-9.934-8.03-17.982-17.965-17.982z"/><glyph unicode="" glyph-name="minus-circle" d="M533.558 859.82c-218.274 0-395.228-176.955-395.228-395.23S315.284 69.364 533.558 69.364 928.786 246.317 928.786 464.59 751.85 859.82 533.558 859.82zm197.614-408.002H335.944c-9.935 0-17.965 8.048-17.965 17.983 0 9.9 8.03 17.948 17.964 17.948h395.228c9.935 0 17.965-8.048 17.965-17.947 0-9.934-8.03-17.982-17.965-17.982z"/><glyph unicode="" glyph-name="info-circle-outline" d="M564.78 302.565c-10.994 0-18.736 1.725-23.21 5.264-4.473 3.52-6.7 10.113-6.7 19.814 0 3.862.682 9.54 2.083 17.067 1.365 7.51 2.928 14.21 4.653 20.068l21.235 73.01c2.067 6.682 3.486 14.03 4.26 22.06.77 8.048 1.167 13.635 1.167 16.815 0 15.378-5.57 27.9-16.67 37.53-11.12 9.61-26.93 14.425-47.428 14.425-11.373 0-23.445-1.976-36.2-5.91s-26.103-8.66-40.062-14.174l-5.677-22.582c4.133 1.51 9.09 3.072 14.876 4.78 5.785 1.67 11.444 2.496 16.96 2.496 11.227 0 18.808-1.85 22.78-5.515 3.97-3.683 5.963-10.204 5.963-19.582 0-5.173-.648-10.886-1.94-17.173-1.294-6.252-2.893-12.917-4.798-19.94l-21.324-73.262c-1.886-7.67-3.27-14.605-4.132-20.714-.844-6.07-1.276-12.07-1.276-17.928 0-15.055 5.713-27.468 17.156-37.26 11.444-9.772 27.504-14.658 48.146-14.658 13.438 0 25.223 1.707 35.373 5.138 10.168 3.413 23.75 8.39 40.798 14.93l5.677 22.58c-2.928-1.346-7.653-2.89-14.174-4.652-6.54-1.76-12.378-2.623-17.534-2.623zm-13.473 359.783c-13.94 0-25.905-4.51-35.876-13.546-9.987-9.018-14.982-19.905-14.982-32.624s4.994-23.534 14.983-32.48c9.972-8.948 21.936-13.42 35.877-13.42s25.87 4.472 35.768 13.42c9.88 8.946 14.84 19.76 14.84 32.48s-4.96 23.588-14.84 32.624c-9.9 9.036-21.827 13.546-35.768 13.546zM512 859.818c-218.274 0-395.228-176.99-395.228-395.227 0-218.273 176.954-395.227 395.228-395.227S907.228 246.317 907.228 464.59c0 218.24-176.954 395.23-395.228 395.23zm0-754.526c-198.44 0-359.298 160.858-359.298 359.298S313.56 823.888 512 823.888 871.298 663.03 871.298 464.59 710.44 105.292 512 105.292z"/><glyph unicode="" glyph-name="info-circle" d="M512 856.028c-218.274 0-395.228-176.99-395.228-395.228 0-218.274 176.954-395.228 395.228-395.228S907.228 242.526 907.228 460.8c0 218.238-176.954 395.228-395.228 395.228zm78.812-572.542c-17.05-6.54-30.63-11.516-40.798-14.93-10.15-3.43-21.935-5.137-35.373-5.137-20.64 0-36.7 4.885-48.145 14.64-11.444 9.79-17.156 22.205-17.156 37.277 0 5.857.43 11.857 1.275 17.93.862 6.107 2.246 13.042 4.132 20.713l21.324 73.26c1.905 7.025 3.504 13.69 4.798 19.942 1.293 6.27 1.94 12 1.94 17.174 0 9.378-1.994 15.9-5.964 19.582-3.97 3.665-11.55 5.515-22.78 5.515-5.515 0-11.174-.826-16.96-2.497-5.784-1.707-10.742-3.27-14.874-4.78l5.677 22.583c13.96 5.514 27.307 10.24 40.062 14.173s24.827 5.91 36.198 5.91c20.498 0 36.307-4.815 47.427-14.426 11.102-9.63 16.67-22.133 16.67-37.53 0-3.18-.394-8.784-1.167-16.814s-2.192-15.378-4.258-22.06l-21.235-73.01c-1.725-5.857-3.288-12.557-4.653-20.067-1.4-7.527-2.084-13.204-2.084-17.067 0-9.702 2.228-16.295 6.7-19.816 4.474-3.54 12.217-5.282 23.212-5.282 5.156 0 10.995.88 17.534 2.64 6.52 1.762 11.246 3.307 14.174 4.654l-5.677-22.582zm-3.737 296.42c-9.9-8.946-21.827-13.42-35.768-13.42s-25.905 4.474-35.876 13.42c-9.987 8.948-14.982 19.762-14.982 32.482s4.994 23.588 14.983 32.624c9.972 9.036 21.936 13.546 35.877 13.546s25.87-4.51 35.768-13.546c9.88-9.018 14.84-19.905 14.84-32.624s-4.96-23.534-14.84-32.48z"/><glyph unicode="" glyph-name="tap" d="M556.535 711.123c0 71.375-57.092 128.45-128.467 128.45S299.6 782.48 299.6 711.122c0-31.403 11.427-59.967 28.547-79.926v79.926c0 54.236 45.667 99.92 99.92 99.92s99.922-45.684 99.922-99.92v-79.926c17.12 22.815 28.545 51.38 28.545 79.926zM770.64 497c-17.138 0-31.402-5.696-42.81-14.283 0 39.99-31.402 71.375-71.374 71.375-17.14 0-34.26-5.695-48.523-17.103-11.426 28.545-37.116 45.648-65.662 45.648-17.138 0-31.42-5.677-42.827-14.246v142.73c0 39.955-31.403 71.376-71.375 71.376-39.954 0-71.375-31.42-71.375-71.375V457.027c-57.092 51.398-119.898 91.352-159.87 51.398-57.092-57.128 62.805-168.457 154.157-336.878 65.662-117.06 157.013-159.87 248.365-159.87 134.18 0 242.652 108.49 242.652 242.67v171.277C842.015 465.596 810.612 497 770.64 497zm42.83-134.18V254.346c0-111.347-97.065-214.124-214.107-214.124-108.49 0-171.295 59.95-222.675 142.73C268.216 371.39 188.272 457.028 216.818 488.43c31.42 31.402 108.49-37.117 168.44-99.922v322.614c0 22.833 19.976 42.81 42.827 42.81s42.828-19.977 42.828-42.81v-299.78h28.546v99.94c0 22.832 19.976 42.81 42.827 42.81 22.833 0 42.81-19.978 42.81-42.81v-71.376h28.546v42.81c0 22.85 19.995 42.846 42.828 42.846 22.852 0 42.81-19.977 42.81-42.846v-71.34h28.565v14.247c0 22.833 19.977 42.828 42.81 42.828s42.828-19.976 42.828-42.827v-62.805zM325.487 534.132l5.946-3.503v37.008l-1.653 1.168c-45.2 32.013-72.2 84.058-72.2 139.192 0 93.992 76.513 170.505 170.523 170.505 94.028 0 170.523-76.513 170.523-170.505 0-33.307-9.72-65.644-28.097-93.507l-3.307-5.03 5.928-.987c7.313-1.258 13.385-4.976 17.57-10.725l3.36-4.58 3.126 4.76c21.504 32.858 32.858 70.908 32.858 110.07 0 111.348-90.58 201.927-201.944 201.927-111.347 0-201.926-90.58-201.926-201.926-.054-70.944 38.014-137.54 99.292-173.865z"/><glyph unicode="" glyph-name="rss-circle" d="M439.853 356.136c0-12.283-9.957-22.24-22.24-22.24s-22.242 9.956-22.242 22.24c0 12.283 9.958 22.24 22.242 22.24s22.24-9.956 22.24-22.24zM512 856.028c-218.274 0-395.228-176.954-395.228-395.228S293.726 65.572 512 65.572 907.228 242.526 907.228 460.8 730.274 856.028 512 856.028zm-94.388-552.26c-28.87 0-52.35 23.5-52.35 52.37s23.48 52.367 52.35 52.367c28.888 0 52.386-23.498 52.386-52.368S446.5 303.77 417.612 303.77zm126.85 0c-8.317 0-15.054 6.774-15.054 15.092 0 82.19-66.883 149.037-149.073 149.037-8.3 0-15.073 6.79-15.073 15.09s6.773 15.056 15.073 15.056c98.807 0 179.2-80.375 179.2-179.182 0-8.317-6.755-15.09-15.073-15.09zm74.59 0c-8.317 0-15.054 6.774-15.054 15.092 0 123.31-100.334 223.645-223.663 223.645-8.3 0-15.073 6.755-15.073 15.09 0 8.3 6.773 15.038 15.073 15.038 139.947 0 253.808-113.844 253.808-253.772 0-8.317-6.773-15.09-15.09-15.09zm74.59 0c-8.28 0-15.036 6.774-15.036 15.092 0 164.45-133.84 298.29-298.29 298.29-8.3 0-15.072 6.736-15.072 15.036 0 8.336 6.773 15.073 15.073 15.073 181.068 0 328.4-147.313 328.4-328.382.017-8.336-6.756-15.108-15.074-15.108z"/><glyph unicode="" glyph-name="rss-circle-outline" d="M417.612 400.905c-24.702 0-44.77-20.05-44.77-44.77s20.068-44.768 44.77-44.768c24.756 0 44.77 20.05 44.77 44.77s-20.014 44.768-44.77 44.768zm0-74.626c-16.474 0-29.822 13.365-29.822 29.857s13.348 29.84 29.822 29.84c16.492 0 29.858-13.348 29.858-29.84s-13.366-29.858-29.858-29.858zm-37.277 238.734c-4.114 0-7.49-3.34-7.49-7.42 0-4.132 3.376-7.49 7.49-7.49 127.695 0 231.28-103.55 231.28-231.245 0-4.115 3.34-7.492 7.437-7.492 4.132 0 7.473 3.377 7.473 7.49 0 135.94-110.233 246.156-246.19 246.156zm0-74.608c-4.114 0-7.49-3.34-7.49-7.437 0-4.133 3.376-7.474 7.49-7.474 86.5 0 156.672-70.135 156.672-156.654 0-4.114 3.324-7.49 7.455-7.49 4.114 0 7.473 3.376 7.473 7.49 0 94.73-76.854 171.565-171.6 171.565zm0 149.235c-4.114 0-7.49-3.358-7.49-7.472 0-4.132 3.376-7.437 7.49-7.437 168.924 0 305.87-136.946 305.87-305.87 0-4.114 3.342-7.49 7.438-7.49 4.132 0 7.49 3.376 7.49 7.49 0 177.152-143.628 320.78-320.798 320.78zm313.308-335.87c-8.282 0-15.037 6.772-15.037 15.09 0 164.45-133.84 298.29-298.29 298.29-8.3 0-15.072 6.736-15.072 15.036 0 8.336 6.773 15.073 15.073 15.073 181.068 0 328.4-147.313 328.4-328.382.017-8.336-6.756-15.108-15.074-15.108zm-74.59 0c-8.318 0-15.055 6.772-15.055 15.09 0 123.31-100.334 223.645-223.663 223.645-8.3 0-15.073 6.755-15.073 15.09 0 8.3 6.773 15.038 15.073 15.038 139.947 0 253.808-113.844 253.808-253.772 0-8.317-6.773-15.09-15.09-15.09zm-74.59 0c-8.318 0-15.055 6.772-15.055 15.09 0 82.19-66.883 149.037-149.073 149.037-8.3 0-15.073 6.79-15.073 15.09s6.773 15.056 15.073 15.056c98.807 0 179.2-80.375 179.2-179.182 0-8.317-6.755-15.09-15.073-15.09zm-126.85 0c-28.87 0-52.35 23.497-52.35 52.367s23.48 52.368 52.35 52.368c28.887 0 52.385-23.498 52.385-52.368S446.5 303.77 417.612 303.77zm0 74.607c-12.253 0-22.242-10.006-22.242-22.24 0-12.27 10.007-22.242 22.242-22.242 12.288 0 22.24 9.988 22.24 22.24 0 12.235-9.952 22.242-22.24 22.242zM512 856.027c-218.274 0-395.228-176.953-395.228-395.227S293.726 65.572 512 65.572 907.228 242.526 907.228 460.8 730.274 856.028 512 856.028zm0-754.525c-198.458 0-359.298 160.876-359.298 359.298S313.542 820.098 512 820.098c198.422 0 359.298-160.876 359.298-359.298S710.422 101.502 512 101.502z"/><glyph unicode="" glyph-name="twitter-circle" d="M512 856.028c-218.274 0-395.228-176.954-395.228-395.228S293.726 65.572 512 65.572 907.228 242.526 907.228 460.8 730.274 856.028 512 856.028zM672.84 532.91c.144-3.107.216-6.233.216-9.36 0-95.896-74.14-206.434-209.74-206.434-41.625 0-80.375 12.02-113 32.57 5.768-.665 11.606-.988 17.59-.988 34.546 0 66.307 11.587 91.548 31.06-32.247.594-59.482 21.54-68.842 50.393 4.49-.843 9.126-1.292 13.85-1.292 6.738 0 13.223.88 19.42 2.533-33.72 6.666-59.14 36.003-59.14 71.16 0 .323 0 .593.02.916 9.952-5.443 21.323-8.695 33.378-9.09-19.797 13.025-32.786 35.23-32.786 60.38 0 13.312 3.63 25.762 9.988 36.487 36.343-43.888 90.67-72.794 151.93-75.83-1.26 5.336-1.887 10.85-1.887 16.546 0 40.043 33.002 72.54 73.71 72.54 21.217 0 40.367-8.802 53.805-22.904 16.797 3.27 32.57 9.306 46.8 17.606-5.516-16.94-17.193-31.15-32.41-40.134 14.91 1.76 29.103 5.64 42.325 11.408-9.9-14.552-22.384-27.325-36.774-37.565z"/><glyph unicode="" glyph-name="twitter-circle-outline" d="M721.237 611.202c-14.246-8.318-30.02-14.354-46.8-17.606C661 607.698 641.85 616.5 620.634 616.5c-40.708 0-73.71-32.498-73.71-72.54 0-5.678.63-11.21 1.886-16.547-61.26 3.036-115.587 31.924-151.93 75.83-6.36-10.743-9.988-23.175-9.988-36.487 0-25.15 13.007-47.373 32.786-60.38-12.072.377-23.444 3.647-33.38 9.09-.017-.323-.017-.593-.017-.916 0-35.157 25.42-64.494 59.14-71.16-6.197-1.652-12.682-2.532-19.42-2.532-4.742 0-9.36.45-13.85 1.293 9.36-28.833 36.595-49.78 68.842-50.39-25.223-19.475-57.003-31.062-91.55-31.062-5.963 0-11.802.323-17.587.988 32.624-20.57 71.375-32.57 113-32.57 135.598 0 209.74 110.538 209.74 206.435 0 3.145-.073 6.27-.217 9.36 14.39 10.24 26.876 23.014 36.774 37.548-13.222-5.75-27.414-9.647-42.325-11.408 15.216 9 26.91 23.21 32.41 40.152zm-187.68 256.845c-218.273 0-395.227-176.954-395.227-395.228S315.284 77.59 533.558 77.59s395.228 176.955 395.228 395.23S751.85 868.046 533.558 868.046zm0-754.527c-198.44 0-359.297 160.858-359.297 359.298 0 198.422 160.858 359.298 359.298 359.298S892.856 671.24 892.856 472.818c0-198.44-160.858-359.298-359.298-359.298z"/><glyph unicode="" glyph-name="facebook-circle" d="M512 856.028c-218.274 0-395.228-176.954-395.228-395.228S293.726 65.572 512 65.572 907.228 242.526 907.228 460.8 730.274 856.028 512 856.028zM595.465 460.8h-47.823V299.08h-71.644V460.8h-35.804v54.074h35.804v35.12c0 45.47 20.228 72.525 77.644 72.525h47.823v-54.075H571.59c-22.367 0-23.858-7.797-23.858-22.312l-.09-31.26h54.182l-6.36-54.073z"/><glyph unicode="" glyph-name="facebook-circle-outline" d="M533.558 868.047c-218.274 0-395.228-176.954-395.228-395.228S315.284 77.59 533.558 77.59s395.228 176.955 395.228 395.23S751.85 868.046 533.558 868.046zm0-754.527c-198.44 0-359.298 160.858-359.298 359.298 0 198.422 160.858 359.298 359.298 359.298S892.856 671.24 892.856 472.818c0-198.44-160.858-359.298-359.298-359.298zm35.714 444.632c0 14.534 1.49 22.312 23.857 22.312h29.875v54.074h-47.823c-57.416 0-77.644-27.055-77.644-72.524v-35.12h-35.804v-54.075h35.804V311.1h71.644v161.72h47.823l6.36 54.073h-54.182l.09 31.26z"/><glyph unicode="" d="M510.832 283c57.398 0 114.778-.197 172.158.055 50.14.234 80.537 29.21 81.2 78.848.845 65.302 1.007 130.623.306 195.907-.54 48.883-31.978 79.764-81.022 79.944-114.778.43-229.556.43-344.333 0-47.157-.198-79.727-30.073-80.697-76.728-1.437-68.356-1.186-136.767.54-205.087 1.113-43.853 33.845-72.813 77.84-72.92 58.01-.163 116.018-.037 174.01-.02z"/><glyph unicode="" d="M510.832 283c-57.99-.017-116-.143-173.99.02-43.996.107-76.728 29.048-77.842 72.92-1.743 68.32-1.976 136.73-.54 205.086.97 46.673 33.54 76.548 80.7 76.728 114.777.43 229.555.43 344.332 0 49.026-.18 80.483-31.06 81.022-79.944.7-65.302.54-130.623-.305-195.907-.648-49.637-31.062-78.614-81.202-78.848-57.398-.252-114.796-.054-172.176-.054zm-48.11 92.898c49.062 32.39 94.91 62.626 142.444 94.01-48.865 32.103-94.82 62.302-142.444 93.597V375.897z"/><glyph unicode="" d="M462.722 375.898v187.608c47.625-31.295 93.58-61.494 142.444-93.597-47.535-31.368-93.364-61.62-142.444-94.01z"/><glyph unicode="" d="M512 856.028c-218.274 0-395.228-176.954-395.228-395.228S293.726 65.572 512 65.572 907.228 242.526 907.228 460.8 730.274 856.028 512 856.028zm0-754.526c-198.44 0-359.298 160.858-359.298 359.298 0 198.422 160.858 359.298 359.298 359.298S871.298 659.222 871.298 460.8c0-198.44-160.858-359.298-359.298-359.298z"/><glyph unicode="" d="M511.928 65.572c-219.873.018-395.174 175.41-395.156 395.3.018 219.873 175.39 395.174 395.3 395.156 219.873-.018 395.174-175.41 395.156-395.3-.018-219.855-175.39-395.174-395.3-395.156zm-1.096 217.43c57.398 0 114.778-.2 172.158.053 50.14.234 80.537 29.21 81.2 78.848.845 65.302 1.007 130.623.306 195.907-.54 48.883-31.978 79.764-81.022 79.944-114.778.43-229.556.43-344.333 0-47.157-.198-79.727-30.073-80.697-76.728-1.437-68.356-1.186-136.767.54-205.087 1.113-43.853 33.845-72.813 77.84-72.92 58.01-.163 116.018-.037 174.01-.02z"/><glyph unicode="" d="M510.832 283c-57.99-.017-116-.143-173.99.02-43.996.107-76.728 29.048-77.842 72.92-1.743 68.32-1.976 136.73-.54 205.086.97 46.673 33.54 76.548 80.7 76.728 114.777.43 229.555.43 344.332 0 49.026-.18 80.483-31.06 81.022-79.944.7-65.302.54-130.623-.305-195.907-.648-49.637-31.062-78.614-81.202-78.848-57.398-.252-114.796-.054-172.176-.054zm-48.11 92.898c49.062 32.39 94.91 62.626 142.444 94.01-48.865 32.103-94.82 62.302-142.444 93.597V375.897z"/><glyph unicode="" d="M462.722 375.898v187.608c47.625-31.295 93.58-61.494 142.444-93.597-47.535-31.368-93.364-61.62-142.444-94.01z"/><glyph unicode="" glyph-name="youtube-typo-outline" d="M496.227 533.27h7.42c16.402 0 29.696 13.078 29.696 29.23v47.498c0 16.15-13.294 29.21-29.696 29.21h-7.42c-16.402 0-29.678-13.06-29.678-29.21v-47.5c0-16.15 13.275-29.228 29.677-29.228zm-7.42 78.543c0 6.054 4.976 10.94 11.12 10.94 6.162 0 11.12-4.885 11.12-10.94V560.65c0-6.037-4.958-10.96-11.12-10.96-6.144 0-11.12 4.922-11.12 10.96v51.163zm81.65-78.543c14.822 0 27.83 12.773 27.83 12.773v-10.96h22.24V639.21h-22.24v-80.376s-7.456-9.144-14.858-9.144c-7.438 0-7.438 5.497-7.438 5.497v84.022h-22.24v-91.335s1.867-14.605 16.706-14.605zm-161.432 1.815h25.995v56.625l29.678 80.43H440.57l-18.575-53.015-18.522 53.014h-25.977l31.528-80.43v-56.625zm146.594-121.03c-4.834 0-8.588-2.82-11.14-5.57v-73.71c2.318-2.478 5.84-4.867 11.14-4.867 11.12 0 11.12 12.27 11.12 12.27v59.608c0 .018-1.833 12.27-11.12 12.27zM512 852.273c-218.292 0-395.228-175.266-395.228-391.455 0-216.208 176.936-391.49 395.228-391.49s395.228 175.283 395.228 391.49c0 216.19-176.936 391.455-395.228 391.455zm0-747.34c-198.44 0-359.298 159.313-359.298 355.885 0 196.518 160.858 355.885 359.298 355.885s359.298-159.35 359.298-355.885c0-196.554-160.858-355.885-359.298-355.885zm136.39 405.522s-68.07 3.503-136.39 3.503c-68.07 0-136.354-3.503-136.354-3.503-30.756 0-55.673-23.534-55.673-52.583 0 0-5.57-34.097-5.57-68.374 0-34.06 5.57-68.356 5.57-68.356 0-29.03 24.917-52.565 55.673-52.565 0 0 66.99-3.52 136.354-3.52 66.973 0 136.39 3.52 136.39 3.52 30.72 0 55.655 23.534 55.655 52.565 0 0 5.55 34.53 5.55 68.356 0 34.547-5.55 68.374-5.55 68.374 0 29.05-24.917 52.583-55.655 52.583zm-217.106-59.59h-27.81V312.39h-25.977v138.475H349.65v22.797h81.634v-22.797zm70.512-138.473H479.52v10.51s-12.99-12.27-27.828-12.27-16.67 14.012-16.67 14.012v108.67h22.24V331.686s0-5.282 7.437-5.282c7.4 0 14.838 8.75 14.838 8.75v98.16h22.276V312.39zm87.22 26.3s0-28.06-20.408-28.06c-12.504 0-20.085 6.556-24.127 11.658v-9.917h-24.108v161.27h24.11V421.35c3.7 3.862 12.754 11.965 24.126 11.965 14.84 0 20.408-12.252 20.408-28.043v-66.578zm87.183 64.836V368.46H629.83v-26.283s0-12.27 11.12-12.27c11.138 0 11.138 12.27 11.138 12.27v12.288h24.11V335.17s-3.702-24.52-33.362-24.52c-29.696 0-35.265 24.52-35.265 24.52v68.375s0 29.786 35.265 29.786c35.23 0 33.36-29.803 33.36-29.803zm-35.248 10.527c-11.12 0-11.12-12.27-11.12-12.27v-15.773h22.26v15.773c0 .018 0 12.27-11.14 12.27z"/><glyph unicode="" d="M533.558 852.273c-218.292 0-395.228-175.266-395.228-391.455 0-216.208 176.936-391.49 395.228-391.49s395.228 175.283 395.228 391.49c0 216.19-176.936 391.455-395.228 391.455z"/><glyph unicode="" d="M517.785 533.27h7.42c16.402 0 29.696 13.078 29.696 29.23v47.498c0 16.15-13.293 29.21-29.695 29.21h-7.42c-16.402 0-29.678-13.06-29.678-29.21v-47.5c0-16.15 13.276-29.228 29.678-29.228zm-7.402 78.543c0 6.054 4.976 10.94 11.12 10.94 6.162 0 11.12-4.885 11.12-10.94V560.65c0-6.037-4.958-10.96-11.12-10.96-6.144 0-11.12 4.922-11.12 10.96v51.163zm81.633-78.543c14.82 0 27.828 12.773 27.828 12.773v-10.96h22.24V639.21h-22.24v-80.376s-7.455-9.144-14.857-9.144c-7.437 0-7.437 5.497-7.437 5.497v84.022h-22.24v-91.335s1.867-14.605 16.706-14.605zm-161.433 1.815h25.995v56.625l29.678 80.43H462.13l-18.577-53.015-18.522 53.014h-25.976l31.528-80.43v-56.625zm146.594-121.03c-4.833 0-8.587-2.82-11.138-5.57v-73.71c2.316-2.478 5.838-4.867 11.137-4.867 11.12 0 11.12 12.27 11.12 12.27v59.608c0 .018-1.832 12.27-11.12 12.27zm92.77 96.4s-68.068 3.503-136.39 3.503c-68.068 0-136.353-3.503-136.353-3.503-30.756 0-55.673-23.534-55.673-52.583 0 0-5.568-34.097-5.568-68.374 0-34.06 5.57-68.356 5.57-68.356 0-29.03 24.916-52.565 55.672-52.565 0 0 66.99-3.52 136.354-3.52 66.973 0 136.39 3.52 136.39 3.52 30.72 0 55.655 23.534 55.655 52.565 0 0 5.55 34.53 5.55 68.356 0 34.547-5.55 68.374-5.55 68.374.018 29.05-24.917 52.583-55.655 52.583zm-217.105-59.59h-27.81V312.39h-25.977v138.475H371.21v22.797h81.632v-22.797zm70.512-138.473h-22.276v10.51s-12.99-12.27-27.828-12.27-16.67 14.012-16.67 14.012v108.67h22.24V331.686s0-5.282 7.437-5.282c7.402 0 14.84 8.75 14.84 8.75v98.16h22.275V312.39zm87.22 26.3s0-28.06-20.41-28.06c-12.503 0-20.084 6.556-24.126 11.658v-9.917h-24.11v161.27h24.11V421.35c3.7 3.862 12.755 11.965 24.127 11.965 14.84 0 20.408-12.252 20.408-28.043v-66.578zm87.183 64.836V368.46H651.39v-26.283s0-12.27 11.12-12.27c11.138 0 11.138 12.27 11.138 12.27v12.288h24.11V335.17s-3.702-24.52-33.362-24.52c-29.696 0-35.265 24.52-35.265 24.52v68.375s0 29.786 35.266 29.786c35.23 0 33.36-29.803 33.36-29.803zm-35.247 10.527c-11.12 0-11.12-12.27-11.12-12.27v-15.773h22.26v15.773c0 .018 0 12.27-11.14 12.27z"/><glyph unicode="" glyph-name="zoom" d="M923.522 100.01l-190.41 190.43c54.452 60.47 87.884 140.25 87.884 228.046 0 188.506-152.81 341.333-341.333 341.333-188.506 0-341.333-152.83-341.333-341.334 0-188.524 152.828-341.333 341.333-341.333 87.795 0 167.577 33.415 228.047 87.884L898.12 74.645c3.252-3.288 7.743-5.264 12.7-5.264 9.936 0 17.966 8.03 17.966 17.966 0 4.922-1.994 9.414-5.264 12.665zm-443.86 113.054c-168.672 0-305.403 136.75-305.403 305.42S310.99 823.89 479.662 823.89s305.404-136.732 305.404-305.405c0-168.673-136.73-305.42-305.404-305.42z"/><glyph unicode="" glyph-name="zoom-in" d="M641.347 536.45h-143.72v143.72c0 9.916-8.03 17.964-17.964 17.964s-17.965-8.048-17.965-17.965V536.45h-143.72c-9.934 0-17.964-8.048-17.964-17.965 0-9.935 8.03-17.965 17.965-17.965h143.718V356.8c0-9.934 8.03-17.964 17.965-17.964s17.965 8.03 17.965 17.965v143.72h143.72c9.934 0 17.964 8.03 17.964 17.965 0 9.917-8.03 17.965-17.965 17.965zm282.175-436.44l-190.41 190.43c54.452 60.47 87.884 140.25 87.884 228.046 0 188.506-152.81 341.333-341.333 341.333-188.506 0-341.333-152.83-341.333-341.334 0-188.524 152.828-341.333 341.333-341.333 87.795 0 167.577 33.415 228.047 87.884L898.12 74.645c3.252-3.288 7.743-5.264 12.7-5.264 9.936 0 17.966 8.03 17.966 17.966 0 4.922-1.994 9.414-5.264 12.665zm-443.86 113.054c-168.672 0-305.403 136.75-305.403 305.42S310.99 823.89 479.662 823.89s305.404-136.732 305.404-305.405c0-168.673-136.73-305.42-305.404-305.42z"/><glyph unicode="" glyph-name="zoom-out" d="M641.347 536.45H317.98c-9.936 0-17.966-8.048-17.966-17.965 0-9.935 8.03-17.965 17.965-17.965h323.367c9.935 0 17.965 8.03 17.965 17.965 0 9.917-8.03 17.965-17.965 17.965zm282.175-436.44l-190.41 190.43c54.452 60.47 87.884 140.25 87.884 228.046 0 188.506-152.81 341.333-341.333 341.333-188.506 0-341.333-152.83-341.333-341.334 0-188.524 152.828-341.333 341.333-341.333 87.795 0 167.577 33.415 228.047 87.884L898.12 74.645c3.252-3.288 7.743-5.264 12.7-5.264 9.936 0 17.966 8.03 17.966 17.966 0 4.922-1.994 9.414-5.264 12.665zm-443.86 113.054c-168.672 0-305.403 136.75-305.403 305.42S310.99 823.89 479.662 823.89s305.404-136.732 305.404-305.405c0-168.673-136.73-305.42-305.404-305.42z"/><glyph unicode="" glyph-name="send" d="M312.715 326.135L330.68 344.1c3.252 3.234 5.264 7.725 5.264 12.7 0 9.9-8.048 17.966-17.965 17.966-4.96 0-9.45-2.03-12.702-5.264l-17.965-17.965c-3.252-3.27-5.264-7.76-5.264-12.737 0-9.9 8.047-17.93 17.964-17.93 4.958 0 9.45 1.995 12.7 5.265zM425.768 338.8c0 9.935-8.048 18-17.965 18-4.958 0-9.45-2.03-12.7-5.263l-179.65-179.65c-3.252-3.27-5.264-7.76-5.264-12.7 0-9.935 8.047-17.965 17.964-17.965 4.958 0 9.45 1.994 12.7 5.264l179.65 179.65c3.252 3.233 5.264 7.724 5.264 12.664zm0-71.823c-4.958 0-9.45-2.03-12.7-5.264l-53.896-53.895c-3.252-3.27-5.264-7.76-5.264-12.7 0-9.936 8.048-17.966 17.965-17.966 4.958 0 9.45 1.994 12.7 5.264l53.896 53.895c3.25 3.235 5.263 7.726 5.263 12.702 0 9.9-8.048 17.965-17.965 17.965zm503.018 574.877c0 9.9-8.048 17.965-17.965 17.965-2.766 0-5.317-.738-7.67-1.887l-.054.144L149.378 535.05c-.054-.036-.108-.036-.162-.072l-.647-.287.053-.107c-6.036-2.91-10.294-8.982-10.294-16.097 0-8.174 5.532-14.803 12.988-16.977l-.09-.288 296.78-122.215 122.197-296.78.287.108c2.192-7.437 8.803-12.99 16.96-12.99 7.15 0 13.203 4.24 16.096 10.277l.126-.072.27.665c.035.072.053.108.07.18l323.046 753.7-.198.108c1.114 2.317 1.922 4.886 1.922 7.653zm-726.25-323.08l629.634 269.85-374.784-374.838-254.85 104.987zm385.204-385.24L482.79 388.418l374.8 374.765-269.85-629.652z"/><glyph unicode="" glyph-name="share" d="M225.082 304.236c24.145 6.665 65.716 34.008 65.716 95.86 0 55.333-18.037 79.747-27.72 92.844l-1.204 1.653c-.108.144-.216.287-.323.413-.77 2.317-3.07 11.75 1.85 31.888 1.905 7.833.773 16.87-2.586 24.217-7.276 15.936-20.82 45.614-11.318 67.962 15.773 38.32 22.384 41.194 40.08 48.883 1.707.772 3.36 1.653 4.94 2.66 4.42 2.802 22.546 9.574 41.122 9.574 8.947 0 16.384-1.654 22.348-4.636 1.545 6.18 3.413 12.378 5.964 18.594 2.192 5.48 4.51 10.168 6.79 15.055-11.155 4.85-23.228 6.916-35.102 6.916-25.977 0-50.607-8.948-60.434-15.235-28.744-12.522-40.798-24.11-58.925-68.14-15.738-37.027 3-77.16 12.215-97.335-11.264-46.134 4.365-62.033 4.365-62.033 8.156-11.156 22.007-27.325 22.007-73.297 0-52.314-40.277-61.476-40.277-61.476-32.696-11.408-76.26-35.714-76.26-107.574 0 0 0-17.965 17.964-17.965l80.106-.036c4.312 13.33 9.97 25.365 16.887 35.93l-77.716.035c5.39 34.15 26.59 47.032 49.512 55.242zm627.443 34.385s-40.277 9.163-40.277 61.477c0 45.972 13.85 62.14 22.007 73.297 0 0 15.612 15.9 4.365 62.033 9.216 20.175 27.953 60.308 12.216 97.334-18.145 44.033-30.18 55.62-58.925 68.142-9.826 6.288-34.456 15.234-60.45 15.234-12.27 0-24.757-2.21-36.218-7.402 4.58-11.605 8.444-23.157 11.21-34.493.467.253.934.594 1.4.88 6.127 3.342 14.085 5.085 23.607 5.085 18.593 0 36.7-6.773 41.14-9.575 1.562-1.024 3.233-1.886 4.94-2.66 17.676-7.688 24.288-10.562 40.06-48.882 9.522-22.348-4.023-52.026-11.317-67.96-3.34-7.33-4.49-16.385-2.57-24.218 4.905-20.14 2.606-29.57 1.833-31.888-.09-.144-.198-.287-.305-.413l-1.203-1.654c-9.7-13.096-27.72-37.51-27.72-92.843 0-61.853 41.57-89.196 65.716-95.86 22.923-8.21 44.122-21.092 49.51-55.225l-77.715-.036c6.9-10.563 12.575-22.6 16.87-35.93l80.123.036c17.966 0 17.966 17.965 17.966 17.965 0 71.842-43.565 96.148-76.26 107.556zm-175.697-39.576s-64.404 15.36-64.404 82.64c0 59.05 26.462 79.89 36.666 94.243 0 0 21 18.378 6.934 77.716 23.426 32.534 31.06 85.477 2.37 150.833-16.006 38.175-30.108 59.123-51.612 71.267-15.79 8.947-33.72 12.252-51.146 12.252-32.463 0-63.254-11.516-75.56-19.546-35.93-16.133-60.093-31.026-82.764-87.652-19.672-47.57 3.737-99.184 15.252-125.162-14.05-59.302 5.443-79.728 5.443-79.728 10.222-14.354 36.666-35.193 36.666-94.244 0-67.26-64.386-82.64-64.386-82.64-40.87-14.694-126.204-42.88-126.204-139.892 0 0 0-17.965 17.965-17.965h503.018c17.965 0 17.965 17.965 17.965 17.965 0 97.028-85.332 125.215-126.203 139.91zM301.433 177.116c8.39 50.59 52.69 70.8 97.963 87.058l1.42.45c32.3 8.622 89.788 43.08 89.788 117.058 0 62.733-25.42 93.328-39.092 109.784-2.73 3.34-6.018 7.58-5.264 6.665-1.114 2.426-6.485 16.493 1.293 49.26 3.63 15.343-2.532 23.75-2.532 23.75-9.81 22.08-28.043 63.13-14.354 96.31 18.378 45.9 34.636 54.956 64.153 68.214 1.707.772 3.377 1.653 4.958 2.66 5.587 3.682 29.175 13.724 55.87 13.724 13.33 0 24.577-2.57 33.47-7.617 10.67-6.035 20.93-17.515 36.397-54.415 28.87-65.788 10.58-102.598 1.365-115.37-6.09-8.462-8.21-19.152-5.803-29.302 7.132-30.145 2.497-42.882 1.31-45.397-.304-.36-4.616-5.82-6.79-8.497-13.653-16.457-39.092-47.05-39.092-109.785 0-73.962 57.506-108.418 89.807-117.06l1.418-.448c45.272-16.24 89.573-36.45 97.963-87.058H301.433z"/><glyph unicode="" glyph-name="pin" d="M512 856.028c-99.202 0-179.65-80.465-179.65-179.65 0-70.278 40.44-130.945 99.24-160.498L512 65.572l80.447 450.308c58.763 29.552 99.202 90.202 99.202 160.5 0 99.183-80.448 179.648-179.65 179.648zm0-628.772L467.986 502.37c14.102-3.538 28.816-5.64 44.014-5.64s29.912 2.102 44.014 5.64L512 227.257zm0 305.404c-79.37 0-143.72 64.35-143.72 143.72S432.63 820.097 512 820.097s143.72-64.35 143.72-143.72S591.37 532.66 512 532.66zm0 251.508s-107.79 0-107.79-107.79c0-9.934 8.05-17.964 17.966-17.964s17.965 8.03 17.965 17.965c0 71.86 71.86 71.86 71.86 71.86 9.918 0 17.966 8.03 17.966 17.964S521.918 784.17 512 784.17z"/><glyph unicode="" glyph-name="map" d="M894.132 783.18l.072.287-251.51 71.86-.07-.287c-1.582.467-3.127.988-4.87.988s-3.287-.52-4.867-.988l-.072.287-246.568-70.422-246.586 70.422-.053-.287c-1.58.467-3.126.988-4.868.988-9.918 0-17.966-8.03-17.966-17.965V155.396c0-8.21 5.605-14.803 13.096-16.977l-.072-.288 251.51-71.86.07.287c1.582-.45 3.127-.99 4.87-.99s3.287.522 4.867.99l.072-.288 246.568 70.458L884.34 66.272l.073.287c1.58-.45 3.126-.99 4.868-.99 9.918 0 17.966 8.03 17.966 17.966v682.667c-.018 8.21-5.623 14.84-13.114 16.977zm-525.85-675.822L152.7 168.942v645.3l215.58-61.584v-645.3zm251.507 61.584l-215.58-61.584v645.3l215.58 61.584v-645.3zm251.508-61.584l-215.58 61.584v645.3l215.58-61.584v-645.3z"/><glyph unicode="" glyph-name="route" d="M565.895 568.59c19.833 0 35.93 16.096 35.93 35.93 0 19.85-16.097 35.93-35.93 35.93-19.85 0-35.93-16.08-35.93-35.93 0-19.834 16.08-35.93 35.93-35.93zM260.49 281.15c19.834 0 35.93 16.08 35.93 35.93s-16.096 35.93-35.93 35.93c-19.85 0-35.93-16.078-35.93-35.93s16.08-35.93 35.93-35.93zm239.33 270.5l-18.145 31.024c-12.773-7.473-22.312-17.05-30.738-26.283l26.57-24.216c7.51 8.246 14.174 14.695 22.312 19.474zM299.888 410.102l-29.57 20.39c-8.066-11.713-14.067-24.11-17.677-36.81l34.53-9.935c2.587 8.947 6.863 17.82 12.72 26.355zm46.314 42.56L326.8 482.914c-11.264-7.222-21.468-14.983-30.38-23.013l24.11-26.66c7.437 6.72 16.097 13.24 25.672 19.42zm372.017 63.954l3.053-3.647 27.432 23.23-3.09 3.646c-6.288 7.366-12.593 14.803-18.522 22.744l-28.78-21.468c6.396-8.605 13.168-16.6 19.905-24.504zM894.113 783.18l.108.287-251.51 71.86-.107-.287c-1.58.467-3.126.988-4.85.988s-3.27-.52-4.852-.988l-.072.287-246.585-70.422-246.568 70.422-.09-.287c-1.58.467-3.126.988-4.85.988-9.936 0-17.966-8.03-17.966-17.965V155.396c0-8.21 5.624-14.803 13.115-16.977l-.108-.288 251.51-71.86.107.287c1.545-.45 3.126-.99 4.85-.99s3.27.522 4.852.99l.108-.288 246.568 70.422 246.604-70.422.072.287c1.58-.45 3.126-.99 4.85-.99 9.936 0 17.966 8.03 17.966 17.966v682.667c-.036 8.21-5.64 14.84-13.15 16.977zM368.28 107.358l-215.578 61.584v645.3l215.58-61.584v-645.3zm251.51 61.584l-215.58-61.584v406.6l14.426-31.15c12.144 5.622 23.157 13.024 33.648 22.635l-24.29 26.462c-7.616-6.952-15.233-12.072-23.785-16.132v236.885l215.578 61.584v-645.3zm251.508-61.584l-215.58 61.584v405.396c8.14-3.827 15.648-7.887 21.828-12.324l20.84 29.3c-9.756 6.917-21.236 13.223-34.206 18.738l-8.46-19.815V814.24l215.578-61.583v-645.3zm-113.053 240.39c-3.27 3.27-7.76 5.263-12.7 5.263-9.936 0-17.966-8.03-17.966-17.964 0-4.94 1.993-9.432 5.263-12.7l23.23-23.23-23.23-23.23c-3.27-3.233-5.264-7.724-5.264-12.7 0-9.935 8.03-17.965 17.964-17.965 4.94 0 9.432 1.995 12.7 5.265l23.23 23.23 23.23-23.23c3.233-3.27 7.724-5.264 12.7-5.264 9.935 0 17.965 8.03 17.965 17.966 0 4.976-1.995 9.468-5.265 12.7l-23.23 23.23 23.23 23.23c3.27 3.27 5.264 7.76 5.264 12.7 0 9.935-8.03 17.965-17.966 17.965-4.976 0-9.468-1.993-12.7-5.263l-23.23-23.23-23.23 23.23zm-3.126 111.866l34.043 11.444c-4.078 12.18-9.863 23.82-17.677 35.642l-29.965-19.85c6.055-9.18 10.51-18.056 13.6-27.236zm3.79-61.332l35.606-4.976c1.886 13.51 2.533 26.462 1.886 38.5l-35.894-1.87c.54-9.772-.018-20.407-1.6-31.653z"/><glyph unicode="" glyph-name="home" d="M901.964 477.274L763.508 615.748v190.177c0 9.917-8.048 17.965-17.965 17.965h-107.79c-9.916 0-17.964-8.048-17.964-17.965v-46.457l-95.09 95.07c-3.25 3.27-7.742 5.282-12.7 5.282s-9.45-2.012-12.7-5.282L122.035 477.275c-3.252-3.234-5.264-7.725-5.264-12.683 0-9.935 8.048-17.965 17.965-17.965 4.958 0 9.45 1.994 12.7 5.264l77.124 77.106V87.31c0-9.934 8.05-17.964 17.966-17.964h538.947c9.917 0 17.965 8.03 17.965 17.965v441.704l77.123-77.105c3.253-3.29 7.744-5.265 12.702-5.265 9.917 0 17.965 8.03 17.965 17.965 0 4.94-2.012 9.432-5.264 12.665zM655.72 787.96h71.86V651.676l-71.86 71.86v64.422zM404.21 105.29H260.493v35.93h143.72v-35.93zm179.65 0H440.14v287.44h143.72V105.29zm179.65 0H619.79v35.93h143.72v-35.93zm0 71.86H619.79v233.544c0 9.917-8.048 17.965-17.965 17.965h-179.65c-9.916 0-17.964-8.047-17.964-17.964V177.152H260.493v387.79l251.51 251.51 251.508-251.51v-387.79zm-233.545 35.93c9.917 0 17.965 8.03 17.965 17.965 0 9.917-8.048 17.965-17.965 17.965S512 240.964 512 231.047c0-9.935 8.048-17.965 17.965-17.965z"/><glyph unicode="" glyph-name="clock" d="M781.474 482.556c-9.917 0-17.965-8.048-17.965-17.965 0-9.934 8.047-17.964 17.964-17.964s17.965 8.03 17.965 17.965c0 9.918-8.05 17.966-17.966 17.966zm-395.228-235.79c-8.587 4.958-19.582 2.012-24.54-6.575-4.958-8.622-2.012-19.6 6.575-24.54 8.606-4.975 19.583-2.03 24.54 6.576 4.96 8.587 2.03 19.6-6.574 24.54zm-116.593 98.627c-8.605-4.958-11.533-15.935-6.575-24.522 4.958-8.604 15.935-11.568 24.54-6.592 8.587 4.958 11.533 15.953 6.557 24.558-4.94 8.587-15.935 11.533-24.522 6.557zm98.628 368.12c-8.586-4.977-11.532-15.954-6.574-24.56 4.958-8.586 15.953-11.532 24.54-6.574 8.605 4.957 11.533 15.952 6.575 24.54-4.957 8.622-15.934 11.55-24.54 6.592zM242.527 482.555c-9.917 0-17.965-8.048-17.965-17.965 0-9.934 8.05-17.964 17.966-17.964s17.965 8.03 17.965 17.965c0 9.918-8.047 17.966-17.964 17.966zM637.754 682.38c8.605-4.96 19.582-2.013 24.54 6.574 4.958 8.605 2.03 19.582-6.575 24.558-8.588 4.94-19.583 2.012-24.54-6.593-4.96-8.588-2.03-19.565 6.574-24.54zm-350.136-67.513c-8.605 4.976-19.582 2.012-24.54-6.557-4.958-8.605-2.03-19.6 6.575-24.558 8.587-4.976 19.582-2.012 24.522 6.593 4.976 8.57 2.03 19.564-6.557 24.522zm466.73-269.474c-8.588 4.958-19.583 2.03-24.523-6.557-4.976-8.605-2.03-19.582 6.557-24.558 8.605-4.976 19.582-2.012 24.54 6.593 4.958 8.588 2.03 19.565-6.575 24.523zM512 213.083c-9.917 0-17.965-8.05-17.965-17.966 0-9.935 8.048-17.965 17.965-17.965s17.965 8.03 17.965 17.965c0 9.917-8.048 17.965-17.965 17.965zm224.382 401.784c-8.587-4.958-11.533-15.953-6.557-24.522 4.94-8.605 15.935-11.57 24.522-6.593 8.605 4.94 11.533 15.953 6.575 24.558-4.958 8.57-15.935 11.533-24.54 6.557zm-62.698-132.31h-92.376c-6.54 25.078-26.193 44.84-51.344 51.343v200.165c0 9.917-8.048 17.965-17.965 17.965s-17.966-8.048-17.966-17.965V533.9c-30.936-8.012-53.895-35.876-53.895-69.31 0-39.7 32.174-71.86 71.86-71.86 33.45 0 61.313 22.942 69.308 53.896h92.376c9.917 0 17.965 8.03 17.965 17.965 0 9.918-8.05 17.966-17.966 17.966zM512 428.66c-19.833 0-35.93 16.098-35.93 35.93s16.097 35.93 35.93 35.93 35.93-16.096 35.93-35.93c0-19.832-16.097-35.93-35.93-35.93zm125.754-181.894c-8.605-4.94-11.533-15.953-6.575-24.54 4.957-8.605 15.952-11.55 24.54-6.575 8.604 4.94 11.532 15.918 6.574 24.54-4.958 8.588-15.935 11.534-24.54 6.576zM512 859.82c-218.274 0-395.228-176.99-395.228-395.23 0-218.273 176.954-395.227 395.228-395.227S907.228 246.317 907.228 464.59c0 218.24-176.954 395.23-395.228 395.23zm0-754.528c-198.44 0-359.298 160.858-359.298 359.298S313.56 823.888 512 823.888 871.298 663.03 871.298 464.59 710.44 105.292 512 105.292z"/><glyph unicode="" glyph-name="icon0-03" d="M533.558 787.96c-178.59 0-323.368-144.798-323.368-323.37 0-178.606 144.78-323.367 323.368-323.367s323.368 144.76 323.368 323.368c0 178.572-144.78 323.37-323.368 323.37zm0-610.808c-158.738 0-287.44 128.665-287.44 287.44 0 158.737 128.702 287.438 287.44 287.438s287.44-128.7 287.44-287.44c0-158.773-128.702-287.438-287.44-287.438zm0 682.667c-218.274 0-395.228-176.99-395.228-395.23 0-218.273 176.954-395.227 395.228-395.227S928.786 246.317 928.786 464.59c0 218.24-176.954 395.23-395.228 395.23zm0-754.528c-198.44 0-359.298 160.858-359.298 359.298s160.858 359.298 359.298 359.298S892.856 663.03 892.856 464.59 731.998 105.292 533.558 105.292zm125.754 377.264h-56.446c-6.503 25.15-26.175 44.84-51.344 51.344v128.305c0 9.917-8.048 17.965-17.965 17.965s-17.965-8.048-17.965-17.965V533.9c-30.936-8.012-53.895-35.876-53.895-69.31 0-39.7 32.175-71.86 71.86-71.86 33.45 0 61.314 22.942 69.31 53.896h56.445c9.917 0 17.965 8.03 17.965 17.965 0 9.918-8.048 17.966-17.965 17.966zM533.558 428.66c-19.833 0-35.93 16.098-35.93 35.93s16.097 35.93 35.93 35.93 35.93-16.096 35.93-35.93c0-19.832-16.097-35.93-35.93-35.93z"/><glyph unicode="" glyph-name="icon0-08" d="M587.453 266.977h-215.58c-9.934 0-17.964-8.048-17.964-17.965 0-9.935 8.03-17.965 17.964-17.965h215.58c9.934 0 17.964 8.03 17.964 17.965 0 9.917-8.03 17.965-17.965 17.965zm-215.58 395.228H461.7c9.934 0 17.964 8.03 17.964 17.965 0 9.917-8.03 17.965-17.965 17.965h-89.826c-9.935 0-17.965-8.048-17.965-17.965 0-9.935 8.03-17.965 17.964-17.965zm323.37-251.51h-323.37c-9.934 0-17.964-8.047-17.964-17.964 0-9.934 8.03-17.964 17.964-17.964h323.368c9.935 0 17.965 8.03 17.965 17.965 0 9.918-8.03 17.966-17.965 17.966zM353.908 536.45c0-9.935 8.03-17.965 17.964-17.965h323.368c9.935 0 17.965 8.03 17.965 17.965 0 9.917-8.03 17.965-17.965 17.965H371.874c-9.935 0-17.965-8.048-17.965-17.965zm323.367 323.37H282.05c-39.685 0-71.86-32.176-71.86-71.86V141.22c0-39.702 32.174-71.86 71.86-71.86h503.017c39.684 0 71.86 32.157 71.86 71.86v520.982l-179.65 197.614zm143.72-718.598c0-19.87-16.098-35.93-35.93-35.93h-503.02c-19.85 0-35.93 16.06-35.93 35.93V787.96c0 19.832 16.08 35.93 35.93 35.93h323.37V644.24c0-19.833 16.096-35.93 35.93-35.93h179.648V141.222zM641.346 644.24v179.65h17.965l161.684-179.65h-179.65z"/><glyph unicode="" glyph-name="icon0-09" d="M551.523 320.87h-215.58c-9.934 0-17.964-8.047-17.964-17.964 0-9.935 8.03-17.965 17.964-17.965h215.58c9.934 0 17.964 8.03 17.964 17.966 0 9.917-8.03 17.965-17.965 17.965zm-71.86-107.788h-143.72c-9.934 0-17.964-8.048-17.964-17.965 0-9.935 8.03-17.965 17.964-17.965h143.72c9.934 0 17.964 8.03 17.964 17.965 0 9.917-8.03 17.965-17.965 17.965zM335.943 500.52h71.86c9.936 0 17.966 8.03 17.966 17.965 0 9.917-8.03 17.965-17.966 17.965h-71.86c-9.935 0-17.965-8.048-17.965-17.965 0-9.935 8.03-17.965 17.964-17.965zm-17.964-89.824c0-9.935 8.03-17.965 17.964-17.965h215.58c9.934 0 17.964 8.03 17.964 17.966 0 9.917-8.03 17.965-17.965 17.965h-215.58c-9.934 0-17.964-8.047-17.964-17.964zM731.17 859.82H461.698c-39.684 0-71.86-32.176-71.86-71.86v-53.896c0-9.935 8.03-17.965 17.965-17.965s17.965 8.03 17.965 17.964v53.895c0 19.832 16.097 35.93 35.93 35.93h215.58V716.1c0-19.833 16.096-35.93 35.93-35.93h107.788V320.872c0-19.833-16.097-35.93-35.93-35.93H731.17c-9.934 0-17.964-8.048-17.964-17.965 0-9.935 8.03-17.965 17.965-17.965h53.896c39.684 0 71.86 32.157 71.86 71.86V716.1L731.172 859.82zM713.207 716.1V821.12L806.894 716.1h-93.687zM282.05 680.17c-39.685 0-71.86-32.175-71.86-71.86V141.222c0-39.702 32.174-71.86 71.86-71.86h323.367c39.684 0 71.86 32.157 71.86 71.86V536.45L551.523 680.17H282.05zm359.297-538.948c0-19.87-16.097-35.93-35.93-35.93H282.05c-19.834 0-35.93 16.06-35.93 35.93V608.31c0 19.833 16.096 35.93 35.93 35.93h215.578V536.45c0-19.832 16.097-35.93 35.93-35.93h107.79V141.224zM533.557 536.45v105.023l93.688-105.023h-93.687z"/><glyph unicode="" glyph-name="icon0-10" d="M677.277 859.82H282.05c-39.685 0-71.86-32.176-71.86-71.86V141.22c0-39.702 32.174-71.896 71.86-71.896h503.017c39.684 0 71.86 32.193 71.86 71.896v520.982l-179.65 197.614zm143.72-718.598c0-19.87-16.098-35.93-35.93-35.93h-503.02c-19.832 0-35.93 16.06-35.93 35.93V787.96c0 19.832 16.098 35.93 35.93 35.93h323.37V644.24c0-19.833 16.096-35.93 35.93-35.93h179.648V141.222zM641.346 644.24v179.65h17.965l161.684-179.65h-179.65z"/><glyph unicode="" glyph-name="icon0-11" d="M709.614 859.82H440.14c-39.684 0-71.86-32.176-71.86-71.86v-53.896c0-9.935 8.048-17.965 17.965-17.965s17.965 8.03 17.965 17.964v53.895c0 19.832 16.097 35.93 35.93 35.93h215.58V716.1c0-19.833 16.096-35.93 35.93-35.93h107.788V320.872c0-19.833-16.097-35.93-35.93-35.93h-53.895c-9.917-.036-17.965-8.048-17.965-17.965 0-9.935 8.048-17.965 17.965-17.965h53.895c39.684 0 71.86 32.157 71.86 71.86V716.1L709.614 859.82zM691.65 716.1V821.12L785.317 716.1h-93.67zm-431.16-35.93c-39.683 0-71.86-32.175-71.86-71.86V141.222c0-39.702 32.176-71.896 71.86-71.896h323.37c39.683 0 71.86 32.193 71.86 71.896V536.45L529.964 680.17H260.49zm359.3-538.948c0-19.833-16.098-35.93-35.93-35.93H260.49c-19.832 0-35.93 16.097-35.93 35.93V608.31c0 19.833 16.098 35.93 35.93 35.93h215.58V536.45c0-19.832 16.097-35.93 35.93-35.93h107.79V141.224zM512 536.45v105.023l93.67-105.023H512z"/><glyph unicode="" glyph-name="icon0-12" d="M278.456 644.24h215.58c9.916 0 17.964 8.03 17.964 17.965 0 9.917-8.048 17.965-17.965 17.965h-215.58c-9.916 0-17.964-8.048-17.964-17.965 0-9.935 8.05-17.965 17.966-17.965zm0-107.79h467.088c9.917 0 17.965 8.03 17.965 17.965 0 9.917-8.05 17.965-17.966 17.965H278.456c-9.917 0-17.965-8.048-17.965-17.965 0-9.935 8.05-17.965 17.966-17.965zm592.842 323.37H152.702c-19.833 0-35.93-16.098-35.93-35.93V249.01l179.65-179.65h574.876c19.833 0 35.93 16.062 35.93 35.93V823.89c0 19.814-16.097 35.93-35.93 35.93zM296.42 123.256L170.668 249.01H296.42V123.258zM871.3 105.292H332.35v161.684c0 9.917-8.047 17.965-17.964 17.965H152.702V823.89h718.596V105.292zm-592.842 323.37h359.298c9.917 0 17.965 8.03 17.965 17.964 0 9.917-8.05 17.965-17.966 17.965H278.456c-9.917 0-17.965-8.047-17.965-17.964 0-9.935 8.05-17.965 17.966-17.965z"/><glyph unicode="" glyph-name="icon0-13" d="M317.98 536.45h215.578c9.917 0 17.965 8.03 17.965 17.965 0 9.917-8.048 17.965-17.965 17.965h-215.58c-9.916 0-17.964-8.048-17.964-17.965 0-9.935 8.048-17.965 17.965-17.965zm503.016 251.51H731.17v53.894c0 9.917-8.047 17.965-17.964 17.965s-17.965-8.05-17.965-17.966V787.96h-35.93v53.894c0 9.917-8.047 17.965-17.964 17.965s-17.965-8.05-17.965-17.966V787.96h-35.93v53.894c0 9.917-8.047 17.965-17.964 17.965s-17.965-8.05-17.965-17.966V787.96h-35.93v53.894c0 9.917-8.047 17.965-17.964 17.965s-17.965-8.05-17.965-17.966V787.96h-35.93v53.894c0 9.917-8.047 17.965-17.964 17.965s-17.965-8.05-17.965-17.966V787.96h-35.93v53.894c0 9.917-8.047 17.965-17.964 17.965s-17.965-8.05-17.965-17.966V787.96h-89.824c-19.833 0-35.93-16.098-35.93-35.93V105.29c0-19.87 16.097-35.93 35.93-35.93h574.877c19.833 0 35.93 16.06 35.93 35.93V752.03c0 19.814-16.097 35.93-35.93 35.93zM246.12 105.29v107.79l107.788-107.79h-107.79zm574.876 0H407.803L246.12 266.976V752.03h89.824v-53.896c0-9.935 8.048-17.965 17.965-17.965s17.964 8.03 17.964 17.964v53.895h35.93v-53.896c0-9.935 8.048-17.965 17.965-17.965s17.964 8.03 17.964 17.964v53.895h35.93v-53.896c0-9.935 8.048-17.965 17.965-17.965s17.964 8.03 17.964 17.964v53.895h35.93v-53.896c0-9.935 8.048-17.965 17.965-17.965s17.964 8.03 17.964 17.964v53.895h35.93v-53.896c0-9.935 8.048-17.965 17.965-17.965s17.964 8.03 17.964 17.964v53.895h35.93v-53.896c0-9.935 8.048-17.965 17.965-17.965s17.964 8.03 17.964 17.964v53.895H821V105.29zM300.014 446.626c0-9.935 8.048-17.965 17.965-17.965h431.157c9.917 0 17.965 8.03 17.965 17.966 0 9.917-8.048 17.965-17.965 17.965H317.98c-9.918 0-17.966-8.047-17.966-17.964zM641.347 356.8H317.98c-9.918 0-17.966-8.047-17.966-17.964 0-9.935 8.048-17.965 17.965-17.965h323.367c9.917 0 17.965 8.03 17.965 17.966 0 9.917-8.048 17.965-17.965 17.965z"/><glyph unicode="" glyph-name="icon0-14" d="M314.386 464.59h215.58c9.916 0 17.964 8.03 17.964 17.966 0 9.917-8.048 17.965-17.965 17.965h-215.58c-9.916 0-17.964-8.047-17.964-17.964 0-9.935 8.05-17.965 17.966-17.965zm0-107.79h395.228c9.917 0 17.965 8.03 17.965 17.966 0 9.917-8.05 17.965-17.966 17.965H314.386c-9.917 0-17.965-8.047-17.965-17.964 0-9.935 8.05-17.965 17.966-17.965zm0-107.788h323.368c9.917 0 17.965 8.03 17.965 17.965 0 9.917-8.05 17.965-17.966 17.965H314.386c-9.917 0-17.965-8.048-17.965-17.965 0-9.935 8.05-17.965 17.966-17.965zM799.44 752.03H655.72v35.93c0 19.832-16.097 35.93-35.93 35.93h-71.86c0 19.832-16.097 35.93-35.93 35.93s-35.93-16.098-35.93-35.93h-71.86c-19.833 0-35.93-16.098-35.93-35.93v-35.93H224.56c-19.832 0-35.93-16.098-35.93-35.93V105.29c0-19.833 16.098-35.93 35.93-35.93H799.44c19.833 0 35.93 16.097 35.93 35.93V716.1c0 19.814-16.097 35.93-35.93 35.93zm-395.23 35.93h215.58V716.1H404.21v71.86zM799.44 105.29H224.56V608.31H799.44V105.292zm0 538.948H224.56v71.86h143.72c0-19.833 16.096-35.93 35.93-35.93H619.79c19.833 0 35.93 16.097 35.93 35.93h143.72v-71.86z"/><glyph unicode="" glyph-name="icon0-20" d="M210.19 680.152h35.93v35.93h-35.93v-35.93zm0-71.86h35.93v35.93h-35.93v-35.93zm35.93-431.158h-35.93v-35.93h35.93v35.93zm0 143.72h-35.93v-35.93h35.93v35.93zm0 71.86h-35.93v-35.93h35.93v35.93zm0-143.72h-35.93v-35.93h35.93v35.93zm-35.93 287.438h35.93v35.93h-35.93v-35.93zm0 215.58h35.93v35.93h-35.93v-35.93zm610.806-71.86h35.93v35.93h-35.93v-35.93zm0-71.86h35.93v35.93h-35.93v-35.93zm0-71.86h35.93v35.93h-35.93v-35.93zm35.93 323.37H210.19c-39.685 0-71.86-32.176-71.86-71.86V141.203c0-39.684 32.174-71.86 71.86-71.86h646.736c39.684 0 71.86 32.175 71.86 71.86V787.94c0 39.685-32.175 71.86-71.86 71.86zM282.05 105.273h-71.86c-19.834 0-35.93 16.097-35.93 35.93v305.404h107.788V105.275zm0 377.264H174.26v305.404c0 19.85 16.097 35.93 35.93 35.93h71.86V482.54zm467.087-377.264H317.98V823.87h431.157V105.274zm143.72 35.93c0-19.833-16.098-35.93-35.93-35.93h-71.86v341.333h107.788V141.203zm0 341.334h-107.79V823.87h71.86c19.833 0 35.93-16.078 35.93-35.93V482.538zm-71.86 269.473h35.93v35.93h-35.93v-35.93zm35.93-503.016h-35.93v-35.93h35.93v35.93zm0 143.72h-35.93v-35.93h35.93v35.93zm0-71.86h-35.93v-35.93h35.93v35.93zm0-143.72h-35.93v-35.93h35.93v35.93zm-413.194 143.72c4.24 0 7.976 1.688 11.048 4.15l.18-.217L652.576 450.54l-.18.217c4.114 3.288 6.916 8.138 6.916 13.815 0 5.66-2.802 10.527-6.915 13.815l.18.216L454.96 604.357l-.18-.216c-3.07 2.462-6.808 4.15-11.047 4.15-9.935 0-17.965-8.047-17.965-17.964v-251.51c0-9.916 8.03-17.964 17.965-17.964zm17.965 236.885l146.378-93.15-146.378-93.165V557.74z"/><glyph unicode="" glyph-name="icon0-21" d="M512 859.82c-218.274 0-395.228-176.955-395.228-395.23S293.726 69.364 512 69.364 907.228 246.317 907.228 464.59c0 218.275-176.954 395.23-395.228 395.23zm358.4-377.264H555.367l222.73 222.71c53.768-59.59 88.045-137.125 92.303-222.71zM512 105.274c-198.44 0-359.298 160.876-359.298 359.316 0 198.404 160.858 359.298 359.298 359.298 92.79 0 177.044-35.445 240.694-93.202L499.3 477.273c-3.253-3.234-5.265-7.743-5.265-12.683 0-9.935 8.048-17.965 17.965-17.965h358.4c-9.432-190.033-166.032-341.35-358.4-341.35z"/><glyph unicode="" glyph-name="icon0-22" d="M242.526 392.73h-107.79c-9.916 0-17.964-8.047-17.964-17.964v-215.58c0-9.934 8.048-17.964 17.965-17.964h107.79c9.916 0 17.964 8.03 17.964 17.965v215.58c0 9.916-8.047 17.964-17.964 17.964zM224.56 177.153H152.7v179.65h71.86V177.15zM673.685 500.52h-107.79c-9.916 0-17.964-8.048-17.964-17.965V159.187c0-9.935 8.048-17.965 17.965-17.965h107.79c9.916 0 17.964 8.03 17.964 17.965v323.368c0 9.917-8.05 17.965-17.966 17.965zM655.72 177.152h-71.86v287.44h71.86V177.15zM458.104 716.1h-107.79c-9.916 0-17.964-8.05-17.964-17.966V159.187c0-9.935 8.05-17.965 17.966-17.965h107.79c9.916 0 17.964 8.03 17.964 17.965v538.947c0 9.917-8.048 17.965-17.965 17.965zM440.14 177.15h-71.86V680.17h71.86V177.152zM889.263 787.96h-107.79c-9.916 0-17.964-8.05-17.964-17.966V159.187c0-9.935 8.047-17.965 17.964-17.965h107.79c9.916 0 17.964 8.03 17.964 17.965v610.807c0 9.917-8.048 17.965-17.965 17.965zM871.298 177.15h-71.86V752.03h71.86V177.15z"/><glyph unicode="" glyph-name="icon0-23" d="M533.576 859.8c-218.292 0-395.228-176.935-395.228-395.227 0-218.274 176.936-395.228 395.228-395.228 218.274 0 395.228 176.954 395.228 395.228 0 218.292-176.954 395.228-395.228 395.228zm0-35.93c92.735 0 177.008-35.444 240.748-93.147l-88.926-88.908c-40.852 35.014-93.795 56.302-151.82 56.302s-110.988-21.288-151.84-56.302l-88.926 88.908c63.757 57.703 148.013 93.148 240.766 93.148zM731.19 464.574c0-109.137-88.477-197.614-197.614-197.614-109.155 0-197.614 88.476-197.614 197.613 0 109.155 88.46 197.614 197.614 197.614 109.12 0 197.614-88.46 197.614-197.614zm-556.912 0c0 92.735 35.445 177.008 93.13 240.766l88.926-88.927c-35.032-40.852-56.302-93.813-56.302-151.84s21.27-110.968 56.302-151.856l-88.926-88.908c-57.685 63.756-93.13 148.012-93.13 240.765zm359.298-359.317c-92.753 0-177.008 35.463-240.766 93.166l88.926 88.926c40.852-35.014 93.813-56.302 151.84-56.302s110.986 21.288 151.82 56.302l88.926-88.926c-63.74-57.703-148.013-93.166-240.748-93.166zm266.15 118.57L710.8 312.732c35.032 40.87 56.32 93.83 56.32 151.857s-21.288 110.987-56.32 151.84l88.926 88.925c57.685-63.757 93.148-148.03 93.148-240.766 0-92.772-35.463-177.027-93.148-240.767z"/><glyph unicode="" glyph-name="icon0-26" d="M335.944 266.977l153.33 26.3L902.47 706.472c16.258 16.26 26.32 38.715 26.32 63.525 0 49.62-40.206 89.825-89.826 89.825-24.81 0-47.266-10.06-63.506-26.32L362.263 420.31l-26.32-153.33zm464.914 541.12c9.755 9.756 23.23 15.792 38.104 15.792 29.75 0 53.895-24.146 53.895-53.896 0-14.875-6.036-28.367-15.79-38.122l-23.23-23.21-76.207 76.206 23.23 23.23zm-48.63-48.63l76.206-76.207-330.806-330.824v76.225H421.42l330.807 330.807zM394.724 392.73h66.973v-66.99l-80.842-13.85 13.87 80.84zM910.82 590.346c-9.934 0-17.964-8.048-17.964-17.965V177.152c0-39.702-32.175-71.86-71.86-71.86H246.12c-39.685 0-71.86 32.157-71.86 71.86V752.03c0 39.683 32.174 71.86 71.86 71.86h395.227c9.935 0 17.965 8.03 17.965 17.964 0 9.917-8.03 17.965-17.965 17.965H246.12c-59.537 0-107.79-48.273-107.79-107.79V177.153c0-59.536 48.254-107.79 107.79-107.79h574.876c59.536 0 107.79 48.255 107.79 107.79V572.38c0 9.918-8.03 17.966-17.966 17.966z"/><glyph unicode="" glyph-name="icon0-27" d="M785.067 859.8c-39.684 0-75.614-16.078-101.628-42.11L198.403 332.64 138.33 69.344 401.622 129.4l485.053 485.054c26.03 25.995 42.11 61.943 42.11 101.628 0 79.37-64.35 143.72-143.72 143.72zM371.874 162.96L246.12 133.55v43.584h-43.583l29.41 125.754h139.928v-139.93zm35.93 23.426v134.467c0 9.917-8.048 17.965-17.965 17.965H255.353l386.91 386.874L794.678 573.26 407.804 186.386zm453.47 453.488l-41.194-41.212-152.414 152.45 41.194 41.194s29.3 31.582 76.207 31.582c59.536 0 107.79-48.254 107.79-107.79 0-29.767-12.073-56.714-31.583-76.224z"/><glyph unicode="" glyph-name="icon0-28" d="M533.558 823.89c-218.274 0-395.228-144.798-395.228-323.37 0-87.596 42.74-166.93 111.868-225.153L210.19 105.293l212.49 84.974c35.21-8.372 72.344-13.114 110.878-13.114 218.274 0 395.228 144.76 395.228 323.368 0 178.572-176.936 323.37-395.228 323.37zm0-610.808c-34.24 0-68.734 4.096-102.526 12.162-2.75.647-5.57.97-8.354.97-4.545 0-9.09-.844-13.33-2.57l-148.354-59.337 24.18 102.83c3.127 13.187-1.472 26.984-11.82 35.697-63.9 53.805-99.094 124.03-99.094 197.686 0 158.468 161.2 287.44 359.298 287.44 198.117 0 359.298-128.97 359.298-287.44 0-158.504-161.163-287.44-359.298-287.44z"/><glyph unicode="" glyph-name="icon0-29" d="M353.91 554.415c-29.75 0-53.896-24.145-53.896-53.895 0-29.768 24.145-53.895 53.895-53.895s53.894 24.127 53.894 53.895c0 29.75-24.145 53.895-53.895 53.895zm179.648 0c-29.75 0-53.895-24.145-53.895-53.895 0-29.768 24.145-53.895 53.895-53.895s53.895 24.127 53.895 53.895c0 29.75-24.145 53.895-53.895 53.895zm0 269.474c-218.274 0-395.228-144.798-395.228-323.37 0-87.596 42.74-166.93 111.885-225.153L210.19 105.293l212.488 84.974c35.21-8.372 72.345-13.114 110.88-13.114 218.273 0 395.227 144.76 395.227 323.368 0 178.572-176.936 323.37-395.228 323.37zm0-610.808c-34.24 0-68.734 4.096-102.526 12.162-2.75.647-5.57.97-8.354.97-4.545 0-9.09-.844-13.33-2.57l-148.354-59.337 24.18 102.83c3.127 13.187-1.472 26.984-11.82 35.697-63.9 53.805-99.094 124.03-99.094 197.686 0 158.468 161.2 287.44 359.298 287.44 198.117 0 359.298-128.97 359.298-287.44 0-158.504-161.163-287.44-359.298-287.44zm179.65 341.333c-29.75 0-53.896-24.145-53.896-53.895 0-29.768 24.145-53.895 53.895-53.895s53.895 24.127 53.895 53.895c0 29.75-24.145 53.895-53.895 53.895z"/><glyph unicode="" glyph-name="icon0-30" d="M928.786 581.363c0 133.946-128.683 242.526-287.44 242.526-118.567 0-220.32-60.597-264.245-147.098 14.175 1.832 28.6 3 43.296 3.18 42.703 64.26 125.718 107.987 220.95 107.987 138.69 0 251.51-92.682 251.51-206.597 0-55.476-26.733-107.646-75.292-146.953-11.192-9.072-15.917-23.965-11.947-37.798l14.947-52.278-74.285 28.564c-1.456-12.162-4.133-24-7.367-35.678l135.976-52.278-34.745 121.55c54.56 44.123 88.64 106.084 88.64 174.87zM425.768 644.24c-158.738 0-287.44-108.58-287.44-242.526 0-68.806 34.098-130.75 88.64-174.87l-34.744-121.55 161.127 61.96c23.176-5.084 47.34-8.066 72.418-8.066 158.738 0 287.44 108.58 287.44 242.526S584.505 644.24 425.767 644.24zm0-449.123c-21.073 0-42.846 2.425-64.746 7.222-2.533.574-5.12.843-7.69.843-4.382 0-8.766-.808-12.916-2.39l-93.885-36.108 14.93 52.278c3.97 13.85-.737 28.726-11.93 37.78-48.54 39.325-75.272 91.495-75.272 146.97 0 113.917 112.82 206.597 251.51 206.597s251.508-92.68 251.508-206.596-112.82-206.596-251.51-206.596z"/><glyph unicode="" glyph-name="icon0-33" d="M533.576 859.8c-218.292 0-395.228-176.953-395.228-395.227S315.284 69.345 533.576 69.345c218.274 0 395.228 176.954 395.228 395.228S751.85 859.8 533.576 859.8zm0-754.526c-198.44 0-359.298 160.858-359.298 359.298S335.136 823.87 533.576 823.87s359.298-160.858 359.298-359.298-160.858-359.298-359.298-359.298zM510.868 285.03h50.463v59.806H510.87V285.03zm102.885 334.742c-9.647 7.994-20.893 14.174-33.397 18.342-12.468 4.114-26.03 6.216-40.277 6.216-18.325 0-34.87-2.856-49.207-8.46-14.408-5.678-26.84-13.69-36.954-23.858-10.15-10.168-17.93-22.708-23.086-37.205-5.102-14.354-7.69-30.45-7.69-47.876v-4.418h40.19l-.127 4.527c-.323 11.946 1.132 23.12 4.258 33.18 3.126 9.953 7.833 18.737 14.05 26.12 6.125 7.277 14.083 13.097 23.66 17.283 9.628 4.24 20.874 6.36 33.414 6.36 8.98 0 17.623-1.51 25.69-4.527 8.03-3 15.16-7.15 21.198-12.396 5.946-5.174 10.743-11.57 14.282-18.99 3.485-7.42 5.264-15.664 5.264-24.54 0-11.64-2.874-22.347-8.55-31.887-5.858-9.81-13.33-18.845-22.152-26.804-10.6-9.325-19.743-17.786-27.217-25.188-7.69-7.635-13.94-15.72-18.576-24.073-4.672-8.373-8.085-17.84-10.15-28.188-2.05-10.222-2.91-22.995-2.552-37.996l.108-4.33H555.8l.09 4.33c.323 14.588.97 25.834 1.958 33.47.898 7.22 2.73 13.4 5.425 18.36 2.75 5.01 7.024 10.22 12.737 15.45 6.144 5.622 14.336 13.437 24.522 23.3 12.773 11.748 23.444 24.162 31.69 36.917 8.55 13.168 12.863 29.32 12.863 48.074 0 14.695-2.82 27.97-8.372 39.415-5.533 11.426-13.276 21.288-22.96 29.39z"/><glyph unicode="" glyph-name="icon0-34" d="M512 356.8c-19.833 0-35.93-16.096-35.93-35.93s16.097-35.93 35.93-35.93 35.93 16.098 35.93 35.93c0 19.816-16.097 35.93-35.93 35.93zm35.93 287.44h-71.86c-9.917 0-17.965-8.048-17.965-17.965 0-.467.234-.826.252-1.276h-.216l17.966-215.58.216.018c.683-9.306 8.246-16.707 17.713-16.707h35.93c9.468 0 17.03 7.403 17.713 16.708l.216-.018L565.86 625h-.217c.036.448.252.807.252 1.275 0 9.917-8.048 17.965-17.965 17.965zM512 859.82c-218.274 0-395.228-176.99-395.228-395.23 0-218.273 176.954-395.227 395.228-395.227S907.228 246.317 907.228 464.59c0 218.24-176.954 395.23-395.228 395.23zm0-754.528c-198.44 0-359.298 160.858-359.298 359.298S313.56 823.888 512 823.888 871.298 663.03 871.298 464.59 710.44 105.292 512 105.292z"/><glyph unicode="" glyph-name="icon0-35" d="M871.298 644.24H296.42c-19.832 0-35.93-16.097-35.93-35.93V177.152c0-19.833 16.098-35.93 35.93-35.93H871.3c19.833 0 35.93 16.097 35.93 35.93V608.31c0 19.815-16.097 35.93-35.93 35.93zm0-467.088H296.42V608.31H871.3V177.152zm-664.702 143.72H152.7v431.157H727.58v-53.896c0-9.935 8.048-17.965 17.965-17.965s17.965 8.03 17.965 17.964v53.895c0 19.832-16.097 35.93-35.93 35.93H152.7c-19.832 0-35.93-16.098-35.93-35.93V320.87c0-19.832 16.098-35.93 35.93-35.93h53.896c9.917 0 17.965 8.03 17.965 17.966 0 9.917-8.047 17.965-17.964 17.965z"/><glyph unicode="" glyph-name="icon0-36" d="M892.856 716.1H317.98c-19.834 0-35.93-16.098-35.93-35.93V105.29c0-19.833 16.096-35.93 35.93-35.93h574.876c19.833 0 35.93 16.097 35.93 35.93V680.17c0 19.814-16.097 35.93-35.93 35.93zm0-610.808H317.98v107.79h574.876V105.29zm0 143.72H317.98V680.17h574.876V249.012zm-664.702 107.79c9.935 0 17.965 8.03 17.965 17.964 0 9.917-8.03 17.965-17.966 17.965H174.26v431.16h574.876v-53.896c0-9.935 8.03-17.965 17.965-17.965s17.966 8.03 17.966 17.964v53.895c0 19.832-16.097 35.93-35.93 35.93H174.26c-19.834 0-35.93-16.098-35.93-35.93V249.01c0-19.833 16.096-35.93 35.93-35.93h53.894c9.935 0 17.965 8.03 17.965 17.965 0 9.917-8.03 17.965-17.966 17.965H174.26v107.79h53.894z"/><glyph unicode="" glyph-name="icon0-37" d="M300.014 752.03h467.088c9.935 0 17.965 8.03 17.965 17.964 0 9.917-8.03 17.965-17.965 17.965H300.014c-9.935 0-17.965-8.05-17.965-17.966 0-9.935 8.03-17.965 17.964-17.965zm592.842-107.79H174.26c-19.85 0-35.93-16.097-35.93-35.93V177.152c0-19.833 16.08-35.93 35.93-35.93h718.596c19.833 0 35.93 16.097 35.93 35.93V608.31c0 19.815-16.097 35.93-35.93 35.93zm0-467.088H174.26V608.31h718.596V177.152zM228.154 680.17H838.96c9.936 0 17.966 8.03 17.966 17.965 0 9.917-8.03 17.965-17.965 17.965H228.155c-9.935 0-17.965-8.048-17.965-17.965 0-9.935 8.03-17.965 17.964-17.965z"/><glyph unicode="" glyph-name="icon0-38" d="M335.944 572.38c49.62 0 89.825 40.188 89.825 89.825 0 49.6-40.206 89.825-89.826 89.825s-89.825-40.223-89.825-89.825c0-49.637 40.204-89.825 89.824-89.825zm0 143.72c29.75 0 53.895-24.146 53.895-53.896 0-29.768-24.146-53.895-53.896-53.895s-53.895 24.126-53.895 53.894c0 29.75 24.144 53.895 53.894 53.895zM819.72 201.763l-.09.144c-.987 2.353-2.442 4.42-4.257 6.162l-157.39 227.22c-2.66 6.63-9.073 11.336-16.637 11.336-4.958 0-9.432-2.012-12.7-5.282l-74.573-74.554-93.777 140.63c-2.695 6.484-9.09 11.065-16.564 11.065-6.234 0-11.444-3.377-14.66-8.174l-.286.18-179.65-305.403.288-.198c-1.904-2.857-3.306-6.09-3.306-9.81 0-9.9 8.03-17.93 17.965-17.93H803.03c9.935 0 17.965 8.03 17.965 17.93 0 2.39-.52 4.617-1.33 6.665l.055.018zm-524.27 11.318L444.848 467.07l90.112-135.15c.88-2.138 2.173-4.06 3.79-5.677l.072-.09c3.27-3.288 7.743-5.264 12.7-5.264s9.45 1.993 12.702 5.263l74.932 74.914 130.138-187.985H295.45zM856.927 859.82H210.19c-39.685 0-71.86-32.176-71.86-71.86V141.22c0-39.702 32.174-71.86 71.86-71.86h646.736c39.684 0 71.86 32.157 71.86 71.86V787.96c0 39.683-32.175 71.86-71.86 71.86zm35.93-718.598c0-19.87-16.097-35.966-35.93-35.966H210.19c-19.852 0-35.93 16.097-35.93 35.966V787.96c0 19.832 16.078 35.93 35.93 35.93h646.736c19.833 0 35.93-16.098 35.93-35.93V141.22z"/><glyph unicode="" glyph-name="icon0-39" d="M713.207 716.1H210.19c-39.685 0-71.86-32.176-71.86-71.86V141.22c0-39.7 32.174-71.86 71.86-71.86h503.017c39.684 0 71.86 32.158 71.86 71.86v503.02c0 39.683-32.175 71.86-71.86 71.86zm35.93-574.878c0-19.87-16.097-35.966-35.93-35.966H210.19c-19.834 0-35.93 16.097-35.93 35.966V644.24c0 19.833 16.096 35.93 35.93 35.93h503.017c19.833 0 35.93-16.097 35.93-35.93V141.222zM317.98 464.592c39.683 0 71.86 32.156 71.86 71.86 0 39.683-32.176 71.86-71.86 71.86s-71.86-32.176-71.86-71.86c0-39.72 32.174-71.86 71.86-71.86zm0 107.788c19.832 0 35.93-16.097 35.93-35.93 0-19.87-16.098-35.93-35.93-35.93s-35.93 16.06-35.93 35.93c0 19.815 16.114 35.93 35.93 35.93zM676 201.764l-.09.18c-.18.377-.45.665-.63 1.024L568.16 381.43c-2.66 6.612-9.072 11.32-16.636 11.32-4.958 0-9.45-2.013-12.7-5.283l-56.608-56.59-57.847 86.736c-2.695 6.485-9.09 11.066-16.564 11.066-6.234 0-11.444-3.36-14.66-8.193l-.286.198-143.72-215.58.288-.197c-1.904-2.856-3.306-6.09-3.306-9.81 0-9.898 8.03-17.928 17.964-17.928h395.228c9.935 0 17.965 8.03 17.965 17.93 0 2.388-.52 4.616-1.33 6.664h.055zm-378.34 11.318L408.018 378.63l55.08-82.64c2.694-6.485 9.09-11.048 16.563-11.048 4.958 0 9.45 1.994 12.7 5.264l55.764 55.745 79.728-132.867H297.66zM856.925 859.82H353.908c-39.684 0-71.86-32.176-71.86-71.86v-17.966c0-9.935 8.03-17.965 17.965-17.965s17.965 8.03 17.965 17.964v17.965c0 19.832 16.097 35.93 35.93 35.93h503.018c19.833 0 35.93-16.098 35.93-35.93V284.94c0-19.868-16.097-35.93-35.93-35.93H838.96c-9.934 0-17.964-8.047-17.964-17.964 0-9.935 8.03-17.965 17.965-17.965h17.966c39.684 0 71.86 32.158 71.86 71.86v503.02c0 39.683-32.175 71.86-71.86 71.86z"/><glyph unicode="" glyph-name="icon0-40" d="M910.82 787.96h-17.964v53.894c0 9.917-8.03 17.965-17.965 17.965H192.225c-9.935 0-17.965-8.05-17.965-17.966V787.96h-17.966c-9.935 0-17.965-8.05-17.965-17.966 0-9.935 8.03-17.965 17.964-17.965h17.965V87.326c0-9.935 8.03-17.965 17.964-17.965H874.89c9.936 0 17.966 8.03 17.966 17.965V752.03h17.965c9.936 0 17.966 8.03 17.966 17.964 0 9.917-8.03 17.965-17.965 17.965zM569.49 105.29h-71.86v179.65h71.86V105.29zm287.438 0h-251.51v197.614c0 9.917-8.03 17.965-17.964 17.965h-107.79c-9.934 0-17.964-8.047-17.964-17.964V105.292h-251.51V752.03h646.738V105.29zm0 682.667H210.19v35.93h646.736v-35.93zM659.312 536.45h107.79c9.934 0 17.964 8.03 17.964 17.965v107.79c0 9.916-8.03 17.964-17.965 17.964H659.313c-9.935 0-17.965-8.05-17.965-17.966v-107.79c0-9.934 8.03-17.964 17.965-17.964zm17.965 107.79h71.86v-71.86h-71.86v71.86zM300.014 536.45h107.79c9.934 0 17.964 8.03 17.964 17.965v107.79c0 9.916-8.03 17.964-17.965 17.964h-107.79c-9.934 0-17.964-8.05-17.964-17.966v-107.79c0-9.934 8.03-17.964 17.964-17.964zm17.965 107.79h71.86v-71.86h-71.86v71.86zM300.013 356.8h107.79c9.934 0 17.964 8.03 17.964 17.966v107.79c0 9.916-8.03 17.964-17.965 17.964h-107.79c-9.934 0-17.964-8.048-17.964-17.965v-107.79c0-9.934 8.03-17.964 17.964-17.964zm17.965 107.79h71.86v-71.86h-71.86v71.86zM659.31 356.8h107.79c9.934 0 17.964 8.03 17.964 17.966v107.79c0 9.916-8.03 17.964-17.965 17.964H659.313c-9.935 0-17.965-8.048-17.965-17.965v-107.79c0-9.934 8.03-17.964 17.965-17.964zm17.965 107.79h71.86v-71.86h-71.86v71.86zM300.014 177.153h107.79c9.934 0 17.964 8.03 17.964 17.965v107.79c0 9.916-8.03 17.964-17.965 17.964h-107.79c-9.934 0-17.964-8.047-17.964-17.964v-107.79c0-9.934 8.03-17.964 17.964-17.964zm17.965 107.79h71.86v-71.88h-71.86v71.88zM479.662 536.45h107.79c9.934 0 17.964 8.03 17.964 17.965v107.79c0 9.916-8.03 17.964-17.965 17.964h-107.79c-9.934 0-17.964-8.05-17.964-17.966v-107.79c0-9.934 8.03-17.964 17.965-17.964zm17.965 107.79h71.86v-71.86h-71.86v71.86zm161.684-467.088h107.79c9.934 0 17.964 8.03 17.964 17.965v107.79c0 9.916-8.03 17.964-17.965 17.964H659.313c-9.935 0-17.965-8.047-17.965-17.964v-107.79c0-9.934 8.03-17.964 17.965-17.964zm17.965 107.79h71.86v-71.88h-71.86v71.88zM479.663 356.8h107.79c9.934 0 17.964 8.03 17.964 17.964v107.79c0 9.916-8.03 17.964-17.965 17.964h-107.79c-9.934 0-17.964-8.048-17.964-17.965v-107.79c0-9.934 8.03-17.964 17.965-17.964zm17.965 107.79h71.86v-71.86h-71.86v71.86z"/><glyph unicode="" glyph-name="icon0-41" d="M871.298 787.96H152.702c-19.833 0-35.93-16.098-35.93-35.93v-71.86c0-19.852 16.097-35.93 35.93-35.93h35.93V177.15c0-19.832 16.097-35.947 35.93-35.947H799.44c19.832 0 35.93 16.115 35.93 35.948v467.09h35.93c19.832 0 35.93 16.078 35.93 35.93v71.86c0 19.832-16.098 35.93-35.93 35.93zm-71.86-610.808H224.563V644.24H799.44V177.152zM871.3 680.17H152.702v71.86h718.596v-71.86zM404.21 464.59h215.58c19.833 0 35.93 16.098 35.93 35.913v35.948c0 19.834-16.097 35.93-35.93 35.93H404.21c-19.832 0-35.93-16.096-35.93-35.93v-35.947c0-19.815 16.098-35.912 35.93-35.912zm0 71.86h215.58v-35.948H404.21v35.948z"/></font>
</defs>
</svg>
