<?xml version="1.0" standalone="no"?>
<!DOCTYPE svg PUBLIC "-//W3C//DTD SVG 1.1//EN" "http://www.w3.org/Graphics/SVG/1.1/DTD/svg11.dtd" >
<svg xmlns="http://www.w3.org/2000/svg" xmlns:xlink="http://www.w3.org/1999/xlink" version="1.1">
<metadata>
Created by FontForge 20141024 at Tue Jul  7 16:15:47 2015
 By System Administrator
Copyright (c) 2006 by Ralph du Carrois. All rights reserved.
</metadata>
<defs>
<font id="SuzukiPROBold" horiz-adv-x="540" >
  <font-face 
    font-family="SuzukiPROBold"
    font-weight="400"
    font-stretch="normal"
    units-per-em="1000"
    panose-1="2 11 5 3 5 0 0 2 0 4"
    ascent="798"
    descent="-202"
    x-height="540"
    cap-height="720"
    bbox="-347 -275 1098 960"
    underline-thickness="50"
    underline-position="-50"
    unicode-range="U+0020-FB05"
  />
<missing-glyph horiz-adv-x="582" 
d="M70 720h442v-720h-442v720zM394 118v484h-206v-484h206z" />
    <glyph glyph-name="ff" unicode="ff" horiz-adv-x="679" 
d="M562 440v-440h-140v440h-187v-440h-140v440h-80v100h80v10q0 47 15.5 82t43 58t66 34t83.5 11q49 0 88.5 -4t87.5 -16q39 30 106 30q37 0 65.5 -5t48.5 -10v-101q-19 5 -38 7.5t-34 2.5q-35 0 -50 -14t-15 -49v-36h111v-100h-111zM235 540h187v30q0 16 1.5 29.5t3.5 26.5
q-10 2 -22.5 3.5t-24.5 2.5t-23 1.5t-17 0.5q-49 0 -77 -18t-28 -60v-16z" />
    <glyph glyph-name="fi" unicode="fi" horiz-adv-x="632" 
d="M511 621q-45 9 -87 16t-90 7q-58 0 -78.5 -18t-20.5 -60v-26h327v-540h-140v440h-187v-440h-140v440h-80v100h80v20q0 96 57.5 140.5t160.5 44.5q27 0 49.5 -1t45.5 -4t48 -7t55 -10v-102z" />
    <glyph glyph-name="fl" unicode="fl" horiz-adv-x="632" 
d="M422 0v637q-11 1 -24.5 2.5t-26.5 2.5t-24 1.5t-17 0.5q-49 0 -72 -18t-23 -60v-26h97v-100h-97v-440h-140v440h-80v100h80v20q0 47 15.5 82t43 58t66 34t83.5 11q36 0 68 -2t63 -5.5t62 -8t66 -9.5v-720h-140z" />
    <glyph glyph-name="ffi" unicode="ffi" horiz-adv-x="958" 
d="M837 621q-45 9 -87 16t-90 7q-58 0 -78.5 -18t-20.5 -60v-26h327v-540h-140v440h-187v-440h-140v440h-186v-440h-140v440h-80v100h80v10q0 47 15.5 82t43 58t66 34t83.5 11q27 0 50 -1t45 -4t45.5 -7.5t51.5 -11.5q52 34 144 34q27 0 49.5 -1t45.5 -4t48 -7t55 -10v-102z
M421 560q0 36 9 65q-10 2 -23 3.5t-25.5 3t-23.5 2t-18 0.5q-62 0 -83.5 -18t-21.5 -60v-16h186v20z" />
    <glyph glyph-name="ffl" unicode="ffl" horiz-adv-x="958" 
d="M561 440v-440h-140v440h-186v-440h-140v440h-80v100h80v10q0 47 15.5 82t43 58t66 34t83.5 11q27 0 50 -1t45 -4t45.5 -7.5t51.5 -11.5q52 34 134 34q36 0 68 -2t63 -5.5t62 -8t66 -9.5v-720h-140v637q-11 1 -24.5 2.5t-26.5 2.5t-24 1.5t-17 0.5q-49 0 -72 -18t-23 -60
v-26h97v-100h-97zM235 540h186v20q0 36 9 65q-20 4 -48 6.5t-42 2.5q-62 0 -83.5 -18t-21.5 -60v-16z" />
    <glyph glyph-name=".notdef" horiz-adv-x="582" 
d="M70 720h442v-720h-442v720zM394 118v484h-206v-484h206z" />
    <glyph glyph-name=".null" horiz-adv-x="0" 
 />
    <glyph glyph-name="nonmarkingreturn" horiz-adv-x="220" 
 />
    <glyph glyph-name="space" unicode=" " horiz-adv-x="290" 
 />
    <glyph glyph-name="exclam" unicode="!" horiz-adv-x="270" 
d="M60 0v140h150v-140h-150zM77 240l-15 480h146l-15 -480h-116z" />
    <glyph glyph-name="quotedbl" unicode="&#x22;" horiz-adv-x="440" 
d="M200 631l-34 -173h-72l-34 172v105h140v-104zM380 631l-34 -173h-72l-34 172v105h140v-104z" />
    <glyph glyph-name="numbersign" unicode="#" 
d="M499 179h-84l-15 -179h-111l15 179h-104l-15 -179h-111l15 179h-78l8 98h79l13 153h-80l9 98h80l15 172h111l-15 -172h104l15 172h111l-15 -172h83l-9 -98h-83l-13 -153h84zM209 277h104l13 153h-104z" />
    <glyph glyph-name="dollar" unicode="$" 
d="M277 606q-42 0 -64 -20.5t-22 -57.5q0 -31 22.5 -54.5t82.5 -48.5q46 -19 84.5 -39.5t66 -47t43 -60t15.5 -78.5q0 -36 -9.5 -70.5t-30 -63t-53.5 -48.5t-81 -28v-125h-112v124q-46 7 -79 26.5t-54.5 44.5t-33 51.5t-14.5 48.5l133 20q4 -35 29 -62t73 -27q16 0 32.5 4.5
t29 14.5t20.5 26t8 40q0 27 -9.5 46t-28 34.5t-47 29.5t-66.5 31q-74 34 -118 81t-44 118q0 75 45 125t124 64v115h112v-114q40 -8 69 -25t48.5 -39.5t31 -47.5t16.5 -48l-131 -25q-5 33 -26 59t-62 26z" />
    <glyph glyph-name="percent" unicode="%" horiz-adv-x="792" 
d="M317 0h-119l275 700h119zM40 541q0 85 43.5 127t109.5 42t109 -42t43 -127t-43 -126t-109 -41t-109.5 41t-43.5 126zM148 541q0 -51 11.5 -72t33.5 -21t33.5 21t11.5 72t-11.5 73t-33.5 22t-33.5 -22t-11.5 -73zM447 157q0 85 43.5 127t109.5 42t109 -42t43 -127
t-43 -126t-109 -41t-109.5 41t-43.5 126zM555 157q0 -51 11.5 -72t33.5 -21t33.5 21t11.5 72t-11.5 73t-33.5 22t-33.5 -22t-11.5 -73z" />
    <glyph glyph-name="ampersand" unicode="&#x26;" horiz-adv-x="721" 
d="M638 354q-12 -115 -61 -204l144 -150h-162l-58 58q-38 -32 -87.5 -50t-112.5 -18q-57 0 -101.5 14t-75.5 39.5t-47.5 61t-16.5 79.5q0 70 32 113.5t93 79.5q-24 26 -39.5 46.5t-24.5 39t-12 36.5t-3 40q0 27 11 57t36 55.5t64 42t96 16.5q53 0 91 -14.5t62 -38
t35.5 -52.5t11.5 -59q0 -60 -35 -106t-101 -82l110 -115q11 29 18 61.5t10 65.5zM318 103q29 0 54.5 10t46.5 27l-151 152l-7 6q-32 -21 -45.5 -43.5t-13.5 -56.5q0 -40 32.5 -67.5t83.5 -27.5zM244 542q0 -13 2.5 -24t9 -23t17.5 -25.5t29 -32.5q48 25 67.5 52t19.5 54
q0 29 -19.5 48t-52.5 19t-53 -18t-20 -50z" />
    <glyph glyph-name="quotesingle" unicode="'" horiz-adv-x="260" 
d="M200 631l-34 -173h-72l-34 172v105h140v-104z" />
    <glyph glyph-name="parenleft" unicode="(" horiz-adv-x="340" 
d="M30 329q0 88 12.5 158t33 127.5t46.5 105t54 90.5h124q-25 -46 -49 -96t-43 -108t-30.5 -126.5t-11.5 -150.5q0 -83 11.5 -151t30.5 -126t43 -108t49 -96h-124q-28 43 -54 90.5t-46.5 105t-33 127.5t-12.5 158z" />
    <glyph glyph-name="parenright" unicode=")" horiz-adv-x="340" 
d="M310 329q0 -88 -12.5 -158t-33 -127.5t-46.5 -105t-54 -90.5h-124q25 46 49 96t43 108t30.5 126t11.5 151q0 82 -11.5 150.5t-30.5 126.5t-43 108t-49 96h124q28 -43 54 -90.5t46.5 -105t33 -127.5t12.5 -158z" />
    <glyph glyph-name="asterisk" unicode="*" horiz-adv-x="470" 
d="M266 595l121 80l43 -133l-145 -7l114 -90l-113 -82l-51 135l-51 -135l-113 82l113 90l-144 7l43 133l120 -80l-38 140h140z" />
    <glyph glyph-name="plus" unicode="+" 
d="M206 262h-141v118h141v141h128v-141h141v-118h-141v-141h-128v141z" />
    <glyph glyph-name="comma" unicode="," horiz-adv-x="265" 
d="M205 1l-84 -163h-81l55 162h-35v135h145v-134z" />
    <glyph glyph-name="hyphen" unicode="-" horiz-adv-x="405" 
d="M50 261v121h305v-121h-305z" />
    <glyph glyph-name="period" unicode="." horiz-adv-x="265" 
d="M60 0v135h145v-135h-145z" />
    <glyph glyph-name="slash" unicode="/" horiz-adv-x="340" 
d="M144 -90h-133l185 820h133z" />
    <glyph glyph-name="zero" unicode="0" 
d="M45 349q0 98 15 166.5t43.5 112t70.5 63t97 19.5t96.5 -19.5t70 -63t43 -112t14.5 -166.5q0 -96 -14.5 -164t-43 -111.5t-70 -63.5t-96.5 -20t-97 20.5t-70.5 64t-43.5 111.5t-15 163zM189 349q0 -79 6 -129.5t16.5 -80t26 -40.5t33.5 -11t33 11t25.5 40.5t16.5 80
t6 129.5t-6 130t-16.5 81t-25.5 41.5t-33 11.5t-33.5 -11.5t-26 -41.5t-16.5 -81t-6 -130z" />
    <glyph glyph-name="one" unicode="1" 
d="M96 0v107h133v465l-142 -84v130l136 82h145v-593h109v-107h-381z" />
    <glyph glyph-name="two" unicode="2" 
d="M263 601q-34 0 -56 -24.5t-27 -70.5l-133 17q7 39 24.5 73t45 59.5t65 40t85.5 14.5q42 0 79.5 -11.5t66.5 -35.5t46 -61.5t17 -89.5q0 -34 -10 -65t-28.5 -62.5t-45 -66t-59.5 -75.5l-102 -124h234v-119h-407v119l162 191q30 36 52 64.5t35.5 52.5t20 44.5t6.5 40.5
q0 27 -6 44.5t-15.5 27t-22.5 13.5t-27 4z" />
    <glyph glyph-name="three" unicode="3" 
d="M254 95q13 0 27.5 4.5t26.5 16t20 32t8 52.5q0 41 -10.5 65t-27 36.5t-36.5 16t-39 3.5h-32v99h40q13 0 29 4t29.5 14.5t23 29t9.5 47.5q0 28 -7 45.5t-17.5 27.5t-23.5 13.5t-24 3.5q-31 0 -52.5 -22t-26.5 -62l-131 17q9 39 29 70.5t48.5 54t64 35t76.5 12.5
q40 0 77.5 -10.5t66 -33t45.5 -57t17 -81.5v-5q0 -32 -12 -57t-30 -43.5t-39.5 -30t-40.5 -15.5q8 -2 19 -5t24 -8q19 -8 36 -22t30 -34t21 -46t8 -59q0 -57 -19 -97t-50 -66t-70.5 -38t-80.5 -12q-50 0 -87.5 14.5t-64.5 38.5t-43 55t-22 64l132 17q1 -16 7 -31t16 -27
t24 -19t32 -7z" />
    <glyph glyph-name="four" unicode="4" 
d="M419 444v-200h96v-107h-96v-137h-130v137h-233v114l136 449h135l-138 -456h107l20 200h103z" />
    <glyph glyph-name="five" unicode="5" 
d="M265 95q14 0 29 5.5t27 20t19.5 39t7.5 63.5q0 45 -7.5 73t-19.5 43.5t-27 21t-30 5.5q-20 0 -42 -12t-35 -38h-108l19 384h351v-102h-229l-11 -182q20 20 48.5 33.5t63.5 13.5t66 -12.5t54.5 -40.5t37 -72.5t13.5 -108.5q0 -61 -18 -106t-49 -74.5t-73 -44t-90 -14.5
q-50 0 -86 14t-60.5 36.5t-38.5 50.5t-19 57l131 17q5 -34 26 -52t50 -18z" />
    <glyph glyph-name="six" unicode="6" 
d="M290 612q-14 0 -28.5 -6.5t-27 -27.5t-21.5 -61.5t-12 -107.5q22 23 52.5 38.5t75.5 15.5q81 0 124.5 -57t43.5 -175q0 -67 -19 -113t-50.5 -74.5t-71.5 -41t-82 -12.5q-51 0 -91.5 17t-68.5 57t-43 105t-15 161q0 121 23 195.5t58.5 115.5t77 55t79.5 14q49 0 83 -14.5
t57 -37.5t36 -51.5t19 -56.5l-134 -17q-7 79 -65 79zM278 355q-38 0 -78 -25q0 -84 6.5 -132t17 -72t23.5 -30t27 -6q13 0 27.5 4t26.5 18t19.5 41t7.5 74q0 39 -6.5 63.5t-17 39t-24.5 20t-29 5.5z" />
    <glyph glyph-name="seven" unicode="7" 
d="M267 0h-147l220 590h-286v110h421v-120z" />
    <glyph glyph-name="eight" unicode="8" 
d="M270 -10q-50 0 -91.5 12.5t-72.5 37.5t-48 63.5t-17 91.5q0 38 12 65.5t29 46.5t37 30.5t35 16.5q-18 9 -35.5 23.5t-31 35t-21.5 46.5t-8 59q0 49 16.5 85.5t45.5 60t67.5 35t82.5 11.5q43 0 82 -11t67.5 -33.5t45.5 -57.5t17 -83q0 -31 -10 -54t-25 -39.5t-32.5 -27.5
t-33.5 -17q17 -6 37.5 -19.5t38.5 -36t30 -54.5t12 -75q0 -56 -17 -96.5t-48 -66t-73 -37.5t-91 -12zM351 202q0 29 -8 48t-21.5 31t-30.5 20t-34 15q-11 -5 -23 -11.5t-22 -18.5t-16.5 -32t-6.5 -52q0 -57 22 -84t59 -27t59 27t22 84zM344 523q0 32 -7.5 51t-18.5 29.5
t-24 13.5t-24 3t-24 -3t-24 -12.5t-18.5 -29t-7.5 -52.5q0 -26 10 -43t23.5 -28.5t28.5 -17t25 -7.5q7 4 17.5 10.5t20 17.5t16.5 27.5t7 40.5z" />
    <glyph glyph-name="nine" unicode="9" 
d="M257 88q17 0 31 8t24.5 31.5t17 64.5t8.5 107q-22 -23 -53.5 -39t-76.5 -16q-81 0 -124.5 58.5t-43.5 167.5q0 67 19.5 113t52 74t73 40.5t82.5 12.5q102 0 159 -79t57 -251q0 -119 -17.5 -194.5t-49 -119t-74.5 -60t-93 -16.5q-44 0 -77.5 13.5t-57.5 35.5t-38.5 49.5
t-20.5 56.5l135 17q12 -74 67 -74zM259 352q40 0 80 25q-1 78 -7.5 124.5t-17 70.5t-23.5 31t-27 7t-28.5 -4t-26.5 -17.5t-19.5 -41t-7.5 -73.5q0 -39 6.5 -62.5t17 -37t24.5 -18t29 -4.5z" />
    <glyph glyph-name="colon" unicode=":" horiz-adv-x="265" 
d="M60 0v135h145v-135h-145zM60 405v135h145v-135h-145z" />
    <glyph glyph-name="semicolon" unicode=";" horiz-adv-x="265" 
d="M60 405v135h145v-135h-145zM205 1l-84 -163h-81l55 162h-35v135h145v-134z" />
    <glyph glyph-name="less" unicode="&#x3c;" 
d="M475 541v-136l-266 -85l266 -89v-140l-410 165v120z" />
    <glyph glyph-name="equal" unicode="=" 
d="M65 361v120h410v-120h-410zM65 171v120h410v-120h-410z" />
    <glyph glyph-name="greater" unicode="&#x3e;" 
d="M475 376v-120l-410 -165v140l266 89l-266 85v136z" />
    <glyph glyph-name="question" unicode="?" horiz-adv-x="520" 
d="M192 0v140h150v-140h-150zM262 632q-30 0 -51.5 -23.5t-26.5 -62.5l-139 17q9 31 25 62t42.5 55.5t65.5 39.5t93 15q42 0 79 -11t64.5 -33t44 -56t16.5 -80q0 -51 -21.5 -85.5t-48 -61.5t-48 -51t-21.5 -54v-63h-139v92q0 25 10 45.5t24.5 38.5t32 34t32 32.5t24.5 34.5
t10 40q0 42 -20.5 58.5t-47.5 16.5z" />
    <glyph glyph-name="at" unicode="@" horiz-adv-x="923" 
d="M659 96q-46 0 -72.5 26t-31.5 66q-6 -15 -15.5 -31.5t-25 -30t-38 -22t-55.5 -8.5q-30 0 -57.5 9.5t-48.5 31.5t-33.5 57.5t-12.5 87.5q0 95 22.5 151t53.5 85.5t64 38t54 8.5q35 0 58 -11.5t34 -25.5l13 28h85l-27 -248q-2 -16 -3.5 -33t-1.5 -31q0 -21 2.5 -33t7 -18.5
t10.5 -8t14 -1.5q13 0 29 10t29 32.5t22 58.5t9 89q0 85 -21.5 137.5t-57.5 82t-82 40t-94 10.5q-42 0 -95 -15t-99.5 -52.5t-78.5 -101.5t-32 -162q0 -95 26 -156.5t65.5 -96.5t88 -48.5t93.5 -13.5q43 0 83 4t77 12v-89q-35 -8 -76 -14t-92 -6q-70 0 -139.5 23t-125 72.5
t-90 126.5t-34.5 185q0 77 19 138t51 108t74.5 81t90.5 55.5t98 31.5t96 10q78 0 146 -20.5t119 -64t80 -111.5t29 -162q0 -58 -15.5 -109t-43 -89.5t-65 -60.5t-80.5 -22zM481 482q-11 0 -27 -7.5t-30.5 -29t-24.5 -61.5t-10 -105q0 -31 5 -49.5t12.5 -28.5t16.5 -13t17 -3
q21 0 41 17t24 55l20 211q-8 6 -17.5 10t-26.5 4z" />
    <glyph glyph-name="A" unicode="A" horiz-adv-x="626" 
d="M462 0l-44 167h-222l-44 -167h-147l221 720h171l224 -720h-159zM224 269h167l-83 315z" />
    <glyph glyph-name="B" unicode="B" horiz-adv-x="609" 
d="M267 720q60 0 110 -8t86 -29.5t56.5 -59.5t20.5 -97q0 -26 -7 -50.5t-20 -44.5t-30.5 -33.5t-38.5 -17.5q8 -2 19.5 -5.5t22.5 -8.5q35 -17 56.5 -55.5t21.5 -99.5q0 -60 -18.5 -100.5t-54.5 -65t-89 -35t-121 -10.5h-201v720h187zM230 328v-226h58q24 0 46 4t39 16
t27 33t10 56q0 60 -33 88.5t-84 28.5h-63zM230 618v-194h53q15 0 33.5 3t35 13.5t27.5 30.5t11 55q0 26 -10 43.5t-26 28.5t-35.5 15.5t-38.5 4.5h-50z" />
    <glyph glyph-name="C" unicode="C" horiz-adv-x="603" 
d="M327 94q45 0 70.5 33t29.5 85l141 -15q-5 -34 -20 -71.5t-44.5 -68.5t-74 -51.5t-107.5 -20.5q-48 0 -95 15.5t-84 57.5t-60 115t-23 187q0 112 23.5 185t61.5 115t87.5 58.5t100.5 16.5q55 0 95.5 -18.5t68.5 -47.5t43.5 -65t21.5 -71l-139 -17q-4 24 -10.5 44t-17.5 35
t-27 23.5t-38 8.5q-23 0 -43 -12t-36 -42t-25 -82t-9 -131q0 -80 8.5 -131.5t23 -81.5t34.5 -41.5t44 -11.5z" />
    <glyph glyph-name="D" unicode="D" horiz-adv-x="646" 
d="M267 720q64 0 122 -15.5t101.5 -56t69.5 -110t26 -178.5t-26 -178.5t-69.5 -110t-101 -56t-120.5 -15.5h-189v720h187zM230 612v-503h39q30 0 59.5 9.5t53 36.5t38 76t14.5 129q0 79 -15 128.5t-38.5 77t-53.5 37t-60 9.5h-37z" />
    <glyph glyph-name="E" unicode="E" horiz-adv-x="515" 
d="M435 309h-205v-196h235v-113h-385v720h385v-115h-235v-188h205v-108z" />
    <glyph glyph-name="F" unicode="F" horiz-adv-x="489" 
d="M424 295h-194v-295h-150v720h374v-113h-224v-204h194v-108z" />
    <glyph glyph-name="G" unicode="G" horiz-adv-x="626" 
d="M552 0h-75l-29 53q-23 -26 -60 -47t-88 -21q-43 0 -85.5 15.5t-77 57.5t-56 115t-21.5 187q0 112 23.5 185t61.5 115t87.5 58.5t101.5 16.5q47 0 84.5 -13.5t65.5 -36.5t47 -54.5t30 -67.5l-137 -17q-10 34 -30.5 58t-61.5 24q-24 0 -44.5 -12t-36.5 -42.5t-25 -82.5
t-9 -131q0 -80 7 -131.5t21.5 -81.5t35.5 -41.5t48 -11.5q32 0 56 14t38 34v172h-86v104h215v-418z" />
    <glyph glyph-name="H" unicode="H" horiz-adv-x="655" 
d="M575 720v-720h-150v310h-195v-310h-150v720h150v-302h195v302h150z" />
    <glyph glyph-name="I" unicode="I" horiz-adv-x="310" 
d="M230 720v-720h-150v720h150z" />
    <glyph glyph-name="J" unicode="J" horiz-adv-x="389" 
d="M164 720h150v-528q0 -42 -8.5 -79.5t-30.5 -66t-60.5 -45t-97.5 -16.5q-28 0 -58.5 4.5t-48.5 10.5v112q17 -5 37 -8t34 -3q18 0 33 3.5t26.5 14t17.5 30t6 51.5v520z" />
    <glyph glyph-name="K" unicode="K" horiz-adv-x="619" 
d="M426 0l-196 313v-313h-150v720h150v-300l183 300h158l-216 -337l254 -383h-183z" />
    <glyph glyph-name="L" unicode="L" horiz-adv-x="502" 
d="M230 720v-602h257v-118h-407v720h150z" />
    <glyph glyph-name="M" unicode="M" horiz-adv-x="822" 
d="M352 0l-145 509v-509h-127v720h186l146 -523l140 523h190v-720h-137v509l-141 -509h-112z" />
    <glyph glyph-name="N" unicode="N" horiz-adv-x="668" 
d="M588 720v-720h-178l-204 523v-523h-126v720h191l192 -516v516h125z" />
    <glyph glyph-name="O" unicode="O" horiz-adv-x="683" 
d="M60 360q0 105 21.5 176.5t59 115.5t89 63.5t111.5 19.5t111.5 -19.5t89.5 -63.5t59.5 -115.5t21.5 -176.5t-21.5 -176.5t-59 -115.5t-89 -63.5t-112.5 -19.5t-112.5 19.5t-89 63.5t-58.5 115.5t-21 176.5zM213 360q0 -76 9 -127t25.5 -81.5t40.5 -43.5t53 -13t53 13
t41 44t26 82t9 126t-10 126t-27 82t-41 44.5t-51 13.5t-50.5 -13t-41 -44t-27 -82t-9.5 -127z" />
    <glyph glyph-name="P" unicode="P" horiz-adv-x="578" 
d="M273 720q56 0 106 -9.5t87.5 -35.5t59.5 -72.5t22 -120.5t-22.5 -120.5t-59.5 -72.5t-86 -35.5t-101 -9.5h-49v-244h-150v720h193zM230 613v-262h51q19 0 39 5t36 19t26 39.5t10 67.5t-9.5 67.5t-26 39.5t-37.5 19t-44 5h-45z" />
    <glyph glyph-name="Q" unicode="Q" horiz-adv-x="683" 
d="M60 360q0 105 21.5 176.5t59 115.5t89 63.5t111.5 19.5t111.5 -19.5t89.5 -63.5t59.5 -115.5t21.5 -176.5q0 -80 -13.5 -141.5t-37.5 -105.5t-58 -71.5t-74 -39.5l158 -12v-123l-274 62v56q-57 3 -105.5 24t-84 65.5t-55 114.5t-19.5 171zM213 360q0 -76 9 -127
t25.5 -81.5t40.5 -43.5t53 -13t53 13t41 44t26 82t9 126t-10 126t-27 82t-41 44.5t-51 13.5t-50.5 -13t-41 -44t-27 -82t-9.5 -127z" />
    <glyph glyph-name="R" unicode="R" horiz-adv-x="603" 
d="M419 0l-141 267h-48v-267h-150v720h198q57 0 106 -11.5t85 -38t56.5 -69.5t20.5 -107q0 -41 -9.5 -72.5t-26 -55t-39.5 -40t-50 -28.5l172 -298h-174zM230 612v-238h56q18 0 36.5 6t33.5 19.5t24.5 36.5t9.5 58q0 37 -9 60.5t-24.5 36t-35.5 17t-41 4.5h-50z" />
    <glyph glyph-name="S" unicode="S" horiz-adv-x="587" 
d="M292 629q-36 0 -62.5 -17.5t-26.5 -58.5q0 -14 3 -26.5t13.5 -25t31.5 -25.5t58 -27q47 -18 88.5 -39t72.5 -49.5t49 -65.5t18 -88q0 -44 -13.5 -84t-43.5 -70.5t-77.5 -49t-115.5 -18.5q-65 0 -110 18.5t-74 45.5t-44 58t-19 56l141 20q2 -17 10.5 -33.5t22.5 -29
t33.5 -20t42.5 -7.5q16 0 33 4.5t31 15t22.5 27.5t8.5 43q0 29 -13 48.5t-36 34.5t-55 28.5t-71 31.5q-45 20 -75 42t-48.5 47.5t-26.5 55t-8 65.5q0 44 16.5 80.5t47.5 63t76.5 41t103.5 14.5q59 0 100.5 -16t68.5 -40.5t42 -54t21 -55.5l-139 -25q-5 33 -30 59t-67 26z
" />
    <glyph glyph-name="T" unicode="T" horiz-adv-x="544" 
d="M524 602h-178v-602h-150v602h-176v118h504v-118z" />
    <glyph glyph-name="U" unicode="U" horiz-adv-x="643" 
d="M225 720v-506q0 -38 9 -61t23 -36t32 -17.5t35 -4.5t35 4.5t32.5 17.5t23.5 36t9 61v506h144v-497q0 -118 -62 -178t-183 -60t-184.5 60t-63.5 178v497h150z" />
    <glyph glyph-name="V" unicode="V" horiz-adv-x="585" 
d="M575 720l-189 -720h-189l-187 720h157l129 -594l133 594h146z" />
    <glyph glyph-name="W" unicode="W" horiz-adv-x="828" 
d="M803 720l-110 -720h-191l-89 564l-91 -564h-187l-110 720h152l64 -568l85 568h185l84 -566l74 566h134z" />
    <glyph glyph-name="X" unicode="X" horiz-adv-x="607" 
d="M384 391l203 -391h-177l-116 245l-123 -245h-151l206 374l-188 346h174l104 -211l113 211h142z" />
    <glyph glyph-name="Y" unicode="Y" horiz-adv-x="562" 
d="M557 720l-204 -432v-288h-140v288l-208 432h162l120 -289l130 289h140z" />
    <glyph glyph-name="Z" unicode="Z" horiz-adv-x="555" 
d="M208 109h287v-109h-450v117l296 494h-273v109h437v-114z" />
    <glyph glyph-name="bracketleft" unicode="[" horiz-adv-x="340" 
d="M293 -170h-238v980h238v-103h-105v-774h105v-103z" />
    <glyph glyph-name="backslash" unicode="\" horiz-adv-x="340" 
d="M11 730h133l185 -820h-133z" />
    <glyph glyph-name="bracketright" unicode="]" horiz-adv-x="340" 
d="M47 -67h105v774h-105v103h238v-980h-238v103z" />
    <glyph glyph-name="asciicircum" unicode="^" horiz-adv-x="500" 
d="M187 720h130l153 -320h-130l-88 223l-92 -223h-130z" />
    <glyph glyph-name="underscore" unicode="_" horiz-adv-x="500" 
d="M-2 -150v118h504v-118h-504z" />
    <glyph glyph-name="grave" unicode="`" horiz-adv-x="317" 
d="M287 598h-105l-152 137h157z" />
    <glyph glyph-name="a" unicode="a" horiz-adv-x="545" 
d="M386 0l-31 58q-21 -29 -56.5 -48.5t-90.5 -19.5q-27 0 -56.5 9t-54.5 29t-41 52t-16 78q0 41 16 72.5t43.5 54t63.5 35.5t77 18l95 13v33q0 78 -67 78q-28 0 -48.5 -16.5t-25.5 -51.5l-135 20q8 25 23.5 50.5t41.5 45.5t63.5 32.5t90.5 12.5q94 0 145.5 -45t51.5 -144
v-366h-89zM262 89q36 0 73 25v154l-57 -9q-45 -8 -72 -27t-27 -59q0 -26 7.5 -42.5t19.5 -25.5t27 -12.5t29 -3.5z" />
    <glyph glyph-name="b" unicode="b" horiz-adv-x="558" 
d="M70 0v735h140v-236q24 26 55.5 41t76.5 15q30 0 59 -12t52 -43.5t37.5 -86t14.5 -139.5q0 -149 -49 -216.5t-143 -67.5q-43 0 -72.5 16.5t-47.5 42.5l-38 -49h-85zM284 449q-22 0 -40 -8.5t-34 -22.5v-309q26 -23 62 -23q23 0 40.5 7t29 28t17.5 58.5t6 99.5
q0 54 -7 87.5t-18 51.5t-25.5 24.5t-30.5 6.5z" />
    <glyph glyph-name="c" unicode="c" horiz-adv-x="528" 
d="M280 457q-15 0 -29.5 -6t-26.5 -25.5t-19 -56t-7 -97.5t8 -97t20 -55.5t27 -25.5t29 -6q19 0 32.5 8t22 21t13 30.5t6.5 36.5l138 -16q-6 -32 -20 -63.5t-39.5 -57t-63.5 -41.5t-91 -16q-45 0 -86 13t-72.5 45.5t-50 87.5t-18.5 139q0 77 17 130.5t47.5 86.5t72 48
t89.5 15q57 0 95.5 -16.5t62.5 -42.5t36 -57t15 -59l-133 -20q-4 97 -75 97z" />
    <glyph glyph-name="d" unicode="d" horiz-adv-x="563" 
d="M53 271q0 149 49 216.5t143 67.5q36 0 62.5 -11.5t45.5 -30.5v222h140v-735h-88l-38 66q-25 -35 -61 -55.5t-90 -20.5q-30 0 -59 12t-52 43.5t-37.5 86t-14.5 139.5zM274 96q23 0 42.5 9.5t36.5 23.5v306q-14 11 -30.5 17.5t-36.5 6.5q-23 0 -40.5 -7t-29 -28t-17.5 -59
t-6 -99q0 -54 6.5 -87.5t18 -51.5t26 -24.5t30.5 -6.5z" />
    <glyph glyph-name="e" unicode="e" horiz-adv-x="546" 
d="M287 91q34 0 53.5 19t25.5 48l127 -20q-8 -27 -24 -53.5t-42 -47.5t-62.5 -34t-85.5 -13q-46 0 -87 15t-72 48t-49 86.5t-18 130.5q0 79 17.5 133.5t48.5 88t72 48.5t88 15q64 0 106 -21.5t67.5 -63.5t36 -102.5t10.5 -138.5h-303q3 -42 11.5 -69t20.5 -42.5t27 -21
t32 -5.5zM283 465q-17 0 -32 -5t-27 -20.5t-20 -44t-10 -74.5h174q-1 42 -7.5 70t-18 44.5t-26.5 23t-33 6.5z" />
    <glyph glyph-name="f" unicode="f" horiz-adv-x="352" 
d="M372 629q-19 5 -38 7.5t-34 2.5q-35 0 -50 -14t-15 -49v-36h111v-100h-111v-440h-140v440h-80v100h80v30q0 47 12 80.5t33.5 54.5t51.5 30.5t66 9.5q37 0 65.5 -5t48.5 -10v-101z" />
    <glyph glyph-name="g" unicode="g" horiz-adv-x="542" 
d="M519 506l-103 7q33 -23 53.5 -60.5t20.5 -89.5q0 -42 -17 -76.5t-47 -59t-70.5 -37.5t-86.5 -13t-89 13q-5 -17 -5 -25q0 -19 21.5 -27.5t82.5 -12.5q119 -8 177.5 -45t58.5 -120q0 -78 -65.5 -120t-186.5 -42q-109 0 -164 37t-55 100q0 35 17.5 60.5t47.5 45.5
q-35 29 -35 80q0 61 53 93q-35 22 -57.5 58.5t-22.5 90.5t19 90.5t50 59t71.5 32.5t83.5 10q18 0 36 -3v38l212 24v-108zM185 363q0 -29 9 -47.5t21.5 -29.5t27 -15t26.5 -4t26 4t27 14.5t21.5 29t8.5 48.5q0 28 -7 47.5t-18.5 31.5t-26.5 17.5t-31 5.5t-31 -5t-27 -16.5
t-19 -31t-7 -49.5zM251 0q-22 2 -40.5 4t-35.5 7q-5 -11 -8.5 -22.5t-3.5 -23.5q0 -85 104 -85q54 0 79 16.5t25 45.5t-27 41t-93 17z" />
    <glyph glyph-name="h" unicode="h" horiz-adv-x="583" 
d="M70 735h140v-240q25 29 58 44.5t78 15.5q37 0 67.5 -11t52.5 -34.5t34.5 -60.5t12.5 -89v-360h-140v364q0 45 -15.5 67t-60.5 22q-26 0 -47.5 -11.5t-39.5 -28.5v-413h-140v735z" />
    <glyph glyph-name="i" unicode="i" horiz-adv-x="280" 
d="M64 610v125h152v-125h-152zM70 0v540h140v-540h-140z" />
    <glyph glyph-name="j" unicode="j" horiz-adv-x="282" 
d="M63 610v125h152v-125h-152zM-45 -50q13 -3 29.5 -5.5t28.5 -2.5q29 0 43 12t14 45v541h140v-544q0 -79 -42.5 -120t-118.5 -41q-23 0 -49.5 4.5t-44.5 10.5v100z" />
    <glyph glyph-name="k" unicode="k" horiz-adv-x="557" 
d="M70 0v735h140v-402l159 207h150l-185 -226l213 -314h-167l-170 262v-262h-140z" />
    <glyph glyph-name="l" unicode="l" horiz-adv-x="280" 
d="M70 735h140v-735h-140v735z" />
    <glyph glyph-name="m" unicode="m" horiz-adv-x="860" 
d="M70 0v540h95l30 -65q24 38 58.5 59t85.5 21q48 0 83.5 -19.5t55.5 -61.5q26 38 63.5 59.5t88.5 21.5q74 0 117 -45.5t43 -149.5v-360h-140v364q0 45 -12 67t-57 22q-24 0 -45 -14t-40 -34q3 -21 3 -45v-360h-140v364q0 45 -12 67t-57 22q-23 0 -43 -12t-37 -31v-410h-140
z" />
    <glyph glyph-name="n" unicode="n" horiz-adv-x="582" 
d="M70 0v540h95l30 -63q26 37 62.5 57.5t87.5 20.5q37 0 67.5 -11t52.5 -34.5t34.5 -60.5t12.5 -89v-360h-140v364q0 45 -15.5 67t-60.5 22q-26 0 -47 -11t-39 -28v-414h-140z" />
    <glyph glyph-name="o" unicode="o" horiz-adv-x="585" 
d="M53 270q0 83 21 138t55 87.5t77 46t87 13.5t87 -13t76.5 -45.5t54.5 -87.5t21 -139t-21 -138t-54.5 -85.5t-76.5 -44t-87 -12.5t-87 12.5t-77 44.5t-55 86t-21 137zM197 270q0 -57 6.5 -92.5t19.5 -56t30.5 -27.5t40.5 -7q22 0 40 7t30 27t18.5 55.5t6.5 93.5t-6.5 94.5
t-19 57.5t-30.5 28.5t-40 7.5q-23 0 -40.5 -8t-30 -29t-19 -57.5t-6.5 -93.5z" />
    <glyph glyph-name="p" unicode="p" horiz-adv-x="563" 
d="M70 -170v710h95l28 -61q26 35 63 55.5t91 20.5q30 0 59 -12t52 -43.5t37.5 -86t14.5 -139.5q0 -149 -49 -216.5t-143 -67.5q-37 0 -63.5 11.5t-44.5 31.5v-203h-140zM289 449q-24 0 -43 -10t-36 -26v-299q14 -12 30 -20t37 -8q23 0 40.5 7t29 28t17.5 58.5t6 99.5
q0 54 -7 87.5t-18 51.5t-25.5 24.5t-30.5 6.5z" />
    <glyph glyph-name="q" unicode="q" horiz-adv-x="568" 
d="M53 271q0 149 49 216.5t143 67.5q51 0 81.5 -17t47.5 -43l39 45h85v-710h-140v227q-26 -31 -60 -49t-82 -18q-30 0 -59 12t-52 43.5t-37.5 86t-14.5 139.5zM274 96q24 0 45 10.5t39 26.5v299q-15 11 -32.5 19t-39.5 8q-23 0 -40.5 -7t-29 -28t-17.5 -59t-6 -99
q0 -54 6.5 -87.5t18 -51.5t26 -24.5t30.5 -6.5z" />
    <glyph glyph-name="r" unicode="r" horiz-adv-x="357" 
d="M70 0v540h95l30 -77q20 42 49 64.5t64 22.5q21 0 34 -4v-136q-9 3 -19 4.5t-24 1.5q-27 0 -49.5 -17.5t-39.5 -44.5v-354h-140z" />
    <glyph glyph-name="s" unicode="s" horiz-adv-x="514" 
d="M251 -10q-47 0 -84.5 12.5t-64 32.5t-43 46t-21.5 52l135 27q5 -33 26.5 -52t53.5 -19t51 13.5t19 41.5q0 15 -6.5 25.5t-20 19t-33.5 15.5t-48 16q-37 11 -66.5 24.5t-50.5 33.5t-32 47.5t-11 66.5q0 41 15 71.5t42 51t64.5 30.5t82.5 10q48 0 83.5 -12.5t59.5 -32.5
t38.5 -44.5t20.5 -48.5l-131 -26q-5 28 -21 47t-51 19q-28 0 -45.5 -13.5t-17.5 -40.5q0 -17 7.5 -27.5t20 -17.5t30.5 -12.5t39 -12.5q34 -11 65.5 -23t55 -30t37.5 -45.5t14 -70.5q0 -45 -16 -78t-44.5 -54t-67.5 -31.5t-85 -10.5z" />
    <glyph glyph-name="t" unicode="t" horiz-adv-x="365" 
d="M340 5q-19 -5 -43.5 -8.5t-47.5 -3.5q-34 0 -62 9t-48.5 28t-32 49t-11.5 72v289h-80v100h81l9 130h130v-130h104v-100h-104v-294q0 -16 5 -25.5t12.5 -15t17 -7.5t18.5 -2q11 0 26 2t26 4v-97z" />
    <glyph glyph-name="u" unicode="u" horiz-adv-x="575" 
d="M210 540v-356q0 -45 14 -68.5t59 -23.5q25 0 45 11t37 28v409h140v-540h-95l-31 65q-23 -35 -58.5 -55t-86.5 -20q-74 0 -119 48t-45 152v350h140z" />
    <glyph glyph-name="v" unicode="v" horiz-adv-x="512" 
d="M507 540l-160 -540h-182l-160 540h151l106 -427l103 427h142z" />
    <glyph glyph-name="w" unicode="w" horiz-adv-x="788" 
d="M773 540l-125 -540h-179l-74 400l-88 -400h-174l-118 540h142l70 -425l86 425h174l73 -423l84 423h129z" />
    <glyph glyph-name="x" unicode="x" horiz-adv-x="541" 
d="M347 299l179 -299h-167l-99 182l-100 -182h-145l172 286l-159 254h162l85 -143l81 143h137z" />
    <glyph glyph-name="y" unicode="y" horiz-adv-x="511" 
d="M340 -15q-12 -39 -26 -67.5t-34 -47t-48.5 -27t-69.5 -8.5q-20 0 -46 3.5t-44 8.5v100q18 -5 38 -7t31 -2q36 0 52 13.5t21 48.5h-46l-163 540h147l102 -428l116 428h136z" />
    <glyph glyph-name="z" unicode="z" horiz-adv-x="495" 
d="M201 106h239v-106h-405v117l253 317h-234v106h396v-117z" />
    <glyph glyph-name="braceleft" unicode="{" horiz-adv-x="340" 
d="M22 378q36 0 52.5 23t16.5 65v157q0 62 14.5 99t42.5 56.5t68.5 25.5t93.5 6v-98q-22 0 -38.5 -2.5t-27.5 -11t-16.5 -24t-5.5 -41.5v-165q0 -35 -5.5 -60t-16.5 -42t-27 -28t-37 -18q42 -14 64 -46.5t22 -101.5v-165q0 -26 5.5 -41.5t16.5 -24t27.5 -11t38.5 -2.5v-98
q-53 0 -93.5 6t-68.5 25.5t-42.5 56.5t-14.5 99v157q0 42 -16.5 65.5t-52.5 23.5v115z" />
    <glyph glyph-name="bar" unicode="|" horiz-adv-x="320" 
d="M226 800v-920h-132v920h132z" />
    <glyph glyph-name="braceright" unicode="}" horiz-adv-x="340" 
d="M318 263q-36 0 -52.5 -23.5t-16.5 -65.5v-157q0 -62 -14.5 -99t-42.5 -56.5t-69 -25.5t-93 -6v98q22 0 38.5 2.5t27.5 11t16.5 24t5.5 41.5v165q0 69 22 101.5t64 46.5q-21 7 -37 18t-27 28t-16.5 42t-5.5 60v165q0 26 -5.5 41.5t-16.5 24t-27.5 11t-38.5 2.5v98
q52 0 93 -6t69 -25.5t42.5 -56.5t14.5 -99v-157q0 -42 16.5 -65t52.5 -23v-115z" />
    <glyph glyph-name="asciitilde" unicode="~" 
d="M174 290q-36 0 -61.5 -12t-47.5 -31v118q19 15 52 27.5t68 12.5q31 0 54 -8.5t43 -18t39.5 -18t43.5 -8.5q36 0 62 12t48 31v-118q-19 -15 -52 -27.5t-68 -12.5q-31 0 -54 8.5t-43.5 18t-40 18t-43.5 8.5z" />
    <glyph glyph-name="uni00A0" unicode="&#xa0;" horiz-adv-x="0" 
 />
    <glyph glyph-name="exclamdown" unicode="&#xa1;" horiz-adv-x="270" 
d="M210 540v-140h-150v140h150zM193 300l15 -480h-146l15 480h116z" />
    <glyph glyph-name="cent" unicode="&#xa2;" 
d="M232 -6q-36 6 -68 24t-56 51t-38 83.5t-14 122.5q0 66 13 115t36.5 82.5t55.5 52.5t71 26v119h102v-120q42 -8 70.5 -26t46.5 -42t27.5 -50.5t12.5 -51.5l-133 -20q-4 97 -75 97q-15 0 -29.5 -6t-26.5 -25.5t-19 -56t-7 -97.5t8 -97t20 -55.5t27 -25.5t29 -6q19 0 32.5 8
t22 21t13 30.5t6.5 36.5l138 -16q-5 -28 -16.5 -55.5t-31 -51.5t-48 -41.5t-67.5 -24.5v-110h-102v109z" />
    <glyph glyph-name="sterling" unicode="&#xa3;" 
d="M457 329h-186v-110q0 -42 -14.5 -67.5t-40.5 -41.5h276v-110h-452v110h4q38 2 60 29t22 69v121h-76v105h76v38q0 238 205 238q73 0 121 -39.5t63 -100.5l-130 -24q-9 32 -21 45.5t-34 13.5q-14 0 -24.5 -5.5t-18.5 -20.5t-12 -41t-4 -66v-38h186v-105z" />
    <glyph glyph-name="currency" unicode="&#xa4;" horiz-adv-x="600" 
d="M94 206q-14 26 -22 59t-8 75q0 80 28 132l-64 64l74 74l58 -58q32 23 68 33t71 10t71.5 -10.5t68.5 -33.5l59 59l74 -74l-66 -66q13 -26 20 -58.5t7 -71.5q0 -80 -29 -133l68 -67l-74 -74l-64 63q-31 -20 -66 -29.5t-69 -9.5t-69 9t-66 29l-62 -62l-74 74zM190 340
q0 -45 10.5 -74.5t26.5 -47t35.5 -24.5t37.5 -7t37.5 7t35 24.5t25.5 47t10 74.5t-10.5 75t-26.5 48t-35 26t-37 8t-37 -8t-35 -26t-26.5 -48t-10.5 -75z" />
    <glyph glyph-name="yen" unicode="&#xa5;" 
d="M202 0v120h-120v93h120v64h-120v93h83l-146 330h154l103 -287l109 287h136l-144 -330h85v-93h-120v-64h120v-93h-120v-120h-140z" />
    <glyph glyph-name="brokenbar" unicode="&#xa6;" horiz-adv-x="320" 
d="M226 800v-390h-132v390h132zM226 270v-390h-132v390h132z" />
    <glyph glyph-name="section" unicode="&#xa7;" 
d="M480 319q0 -45 -19 -77.5t-51 -53.5q26 -20 40 -49.5t14 -75.5q0 -79 -55.5 -121t-145.5 -42q-43 0 -76.5 11.5t-58 29.5t-40.5 41.5t-24 47.5l128 26q5 -28 24 -44.5t48 -16.5q28 0 45.5 15t17.5 42q0 17 -6.5 28t-18.5 19t-29 14t-38 13q-35 11 -66.5 22.5t-55.5 29.5
t-38.5 44.5t-14.5 68.5q0 45 19 77t50 54q-26 20 -39.5 49.5t-13.5 75.5q0 41 17.5 71.5t46 51t65 30.5t74.5 10q45 0 79 -11.5t58 -29.5t39 -41.5t23 -47.5l-128 -26q-5 28 -24 44.5t-48 16.5q-28 0 -46.5 -15t-18.5 -42q0 -33 25 -47t67 -28q34 -11 66 -23t56 -29.5
t38.5 -44t14.5 -67.5zM339 299q0 16 -7.5 27.5t-21 20t-32.5 15t-42 13.5q-16 -12 -25.5 -29.5t-9.5 -34.5t7.5 -28.5t21 -19.5t33 -14.5t43.5 -13.5q17 12 25 29t8 35z" />
    <glyph glyph-name="dieresis" unicode="&#xa8;" horiz-adv-x="419" 
d="M30 610v115h132v-115h-132zM257 610v115h132v-115h-132z" />
    <glyph glyph-name="copyright" unicode="&#xa9;" horiz-adv-x="843" 
d="M427 228q25 0 37.5 16t13.5 41l91 -9q-2 -18 -10.5 -39t-26 -39t-44.5 -30.5t-65 -12.5q-32 0 -60 9.5t-49.5 33t-34 63.5t-12.5 100q0 62 12.5 102t34.5 63t51.5 32t62.5 9q35 0 60 -12t41.5 -29.5t25 -38t10.5 -36.5l-90 -9q-2 23 -12.5 38t-35.5 15q-12 0 -22.5 -5.5
t-18.5 -20t-12.5 -40.5t-4.5 -68q0 -40 5 -65.5t13 -40.5t18.5 -21t21.5 -6zM173 360q0 -81 20.5 -135.5t55 -87t79.5 -46.5t93 -14t92.5 14t79 46.5t55.5 87t21 135.5t-21 135.5t-55.5 87t-79 46.5t-92.5 14t-93 -14t-79.5 -46.5t-55 -87t-20.5 -135.5zM783 360
q0 -101 -32 -172.5t-83 -116.5t-116 -65.5t-131 -20.5t-131 20.5t-116 65.5t-83 116.5t-32 172.5t32 172.5t83 116.5t116 65.5t131 20.5t131 -20.5t116 -65.5t83 -116.5t32 -172.5z" />
    <glyph glyph-name="ordfeminine" unicode="&#xaa;" horiz-adv-x="500" 
d="M339 318l-28 48q-19 -24 -49 -39t-72 -15q-25 0 -48.5 6.5t-41.5 21t-29 37t-11 55.5q0 65 45 96t119 39l74 9v30q0 26 -14.5 38.5t-34.5 12.5q-17 0 -32.5 -9t-23.5 -34l-111 15q6 20 19.5 39t34.5 34t50.5 24t67.5 9q73 0 119.5 -34.5t46.5 -107.5v-275h-81zM80 0v115
h360v-115h-360zM235 392q31 0 63 18v105l-48 -6q-13 -2 -25.5 -5.5t-22 -11t-15.5 -18.5t-6 -28q0 -32 17 -43t37 -11z" />
    <glyph glyph-name="guillemotleft" unicode="&#xab;" 
d="M40 326l135 205h100l-92 -208l82 -222h-100zM255 326l135 205h100l-92 -208l82 -222h-100z" />
    <glyph glyph-name="logicalnot" unicode="&#xac;" 
d="M356 141v120h-291v120h410v-240h-119z" />
    <glyph glyph-name="uni00AD" unicode="&#xad;" horiz-adv-x="405" 
d="M50 261v121h305v-121h-305z" />
    <glyph glyph-name="registered" unicode="&#xae;" horiz-adv-x="611" 
d="M541 493q0 -68 -21 -114t-55 -74.5t-76.5 -41t-84.5 -12.5t-84.5 12.5t-76.5 41t-55 74.5t-21 114q0 67 21 113.5t55 75t76.5 41t84.5 12.5t84.5 -12.5t76.5 -41t55 -75t21 -113.5zM146 493q0 -53 13.5 -87t35.5 -54.5t50.5 -28.5t58.5 -8t58.5 8t50.5 28.5t35.5 54.5
t13.5 87q0 52 -13.5 86.5t-35.5 55t-50.5 28.5t-58.5 8t-58.5 -8t-50.5 -28.5t-35.5 -55t-13.5 -86.5zM337 373l-44 89h-12v-89h-62v255h80q48 0 73.5 -20t25.5 -62q0 -53 -44 -73l56 -100h-73zM281 580v-69h20q32 0 32 35q0 34 -34 34h-18z" />
    <glyph glyph-name="macron" unicode="&#xaf;" horiz-adv-x="360" 
d="M30 634v101h300v-101h-300z" />
    <glyph glyph-name="degree" unicode="&#xb0;" horiz-adv-x="355" 
d="M30 566q0 72 41 108t107 36t106.5 -36t40.5 -108q0 -35 -11.5 -61.5t-31 -44.5t-46.5 -27t-58 -9t-58 9t-47 27t-31.5 44.5t-11.5 61.5zM131 566q0 -40 14.5 -54t32.5 -14t32.5 14.5t14.5 53.5t-14.5 54.5t-32.5 15.5t-32.5 -15t-14.5 -55z" />
    <glyph glyph-name="plusminus" unicode="&#xb1;" 
d="M206 262h-141v118h141v141h128v-141h141v-118h-141v-96h-128v96zM65 0v120h410v-120h-410z" />
    <glyph glyph-name="twosuperior" unicode="&#xb2;" horiz-adv-x="380" 
d="M192 728q-18 0 -29 -12t-15 -31l-102 9q4 19 14.5 40t28.5 37.5t43.5 27.5t60.5 11q27 0 52 -7t44.5 -21t31.5 -36.5t12 -53.5q0 -38 -13 -62t-42 -51l-77 -71h128v-88h-274v88l133 118q17 15 27 29.5t10 37.5q0 16 -8.5 25.5t-24.5 9.5z" />
    <glyph glyph-name="threesuperior" unicode="&#xb3;" horiz-adv-x="380" 
d="M187 494q18 0 29 12.5t11 32.5q0 26 -13.5 36t-36.5 10h-20v74h25q13 0 25.5 8t12.5 29q0 18 -10 26.5t-25 8.5q-17 0 -27 -10.5t-15 -24.5l-100 9q14 51 55.5 78t95.5 27q21 0 44 -5t42 -16.5t31 -31.5t12 -50q0 -26 -13.5 -48.5t-51.5 -31.5q32 -5 55 -29t23 -66
q0 -29 -12.5 -51t-32.5 -37t-45.5 -22.5t-52.5 -7.5q-33 0 -58.5 9t-44 23.5t-29.5 33t-15 38.5l100 9q4 -14 13.5 -23.5t27.5 -9.5z" />
    <glyph glyph-name="acute" unicode="&#xb4;" horiz-adv-x="317" 
d="M130 735h157l-152 -137h-105z" />
    <glyph glyph-name="uni00B5" unicode="&#xb5;" horiz-adv-x="575" 
d="M210 540v-359q0 -45 13.5 -67t58.5 -22q24 0 44.5 6.5t38.5 17.5v424h140v-540h-95l-25 52q-19 -29 -44.5 -45.5t-67.5 -16.5q-28 0 -63 11v-171h-140v710h140z" />
    <glyph glyph-name="paragraph" unicode="&#xb6;" horiz-adv-x="550" 
d="M327 700v-700h-116v375q-19 0 -48 3.5t-56.5 19.5t-47 48.5t-19.5 90.5q0 55 19.5 87t47 49t56.5 22t48 5h116zM490 700v-700h-116v700h116z" />
    <glyph glyph-name="periodcentered" unicode="&#xb7;" horiz-adv-x="315" 
d="M85 255v135h145v-135h-145z" />
    <glyph glyph-name="cedilla" unicode="&#xb8;" horiz-adv-x="305" 
d="M275 -142q0 -52 -33.5 -81t-100.5 -29q-31 0 -59.5 9t-51.5 24l37 68q9 -6 25 -12t34 -6q23 0 33 9.5t10 21.5q0 21 -20 31t-56 14l40 153h82l-12 -111q38 -11 55 -36t17 -55z" />
    <glyph glyph-name="onesuperior" unicode="&#xb9;" horiz-adv-x="380" 
d="M63 420v80h89v209l-96 -55v91l92 55h105v-300h70v-80h-260z" />
    <glyph glyph-name="ordmasculine" unicode="&#xba;" horiz-adv-x="495" 
d="M60 521q0 62 16 103.5t42.5 66t60.5 34.5t69 10t68.5 -10t60 -34.5t42.5 -65.5t16 -104t-16 -103.5t-42.5 -64.5t-60 -33t-68.5 -9t-69 9.5t-60.5 33.5t-42.5 64.5t-16 102.5zM185 521q0 -41 4.5 -66.5t13 -39.5t20.5 -19.5t26 -5.5t25.5 5.5t19.5 19.5t12.5 39.5
t4.5 66.5q0 40 -4.5 66t-13 41t-20 20.5t-25.5 5.5t-26 -5.5t-20 -20.5t-12.5 -41t-4.5 -66zM77 0v115h348v-115h-348z" />
    <glyph glyph-name="guillemotright" unicode="&#xbb;" 
d="M375 101h-100l82 222l-92 208h100l135 -205zM160 101h-100l82 222l-92 208h100l135 -205z" />
    <glyph glyph-name="onequarter" unicode="&#xbc;" horiz-adv-x="870" 
d="M64 321v80h89v209l-96 -55v91l92 55h105v-300h70v-80h-260zM766 241v-87h46v-82h-46v-71h-99v71h-154v86l84 223h102l-79 -227h53l11 87h82zM295 -100h-123l448 910h122z" />
    <glyph glyph-name="onehalf" unicode="&#xbd;" horiz-adv-x="870" 
d="M679 309q-18 0 -29 -12t-15 -31l-102 9q4 19 14.5 40t28.5 37.5t43.5 27.5t60.5 11q27 0 52 -7t44.5 -21t31.5 -36.5t12 -53.5q0 -38 -13 -62t-42 -51l-77 -71h128v-88h-274v88l133 118q17 15 27 29.5t10 37.5q0 16 -8.5 25.5t-24.5 9.5zM287 -100h-123l448 910h122z
M57 321v80h89v209l-96 -55v91l92 55h105v-300h70v-80h-260z" />
    <glyph glyph-name="threequarters" unicode="&#xbe;" horiz-adv-x="870" 
d="M205 395q18 0 29 12.5t11 32.5q0 26 -13.5 36t-36.5 10h-20v74h25q13 0 25.5 8t12.5 29q0 18 -10 26.5t-25 8.5q-17 0 -27 -10.5t-15 -24.5l-100 9q14 51 55.5 78t95.5 27q21 0 44 -5t42 -16.5t31 -31.5t12 -50q0 -26 -13.5 -48.5t-51.5 -31.5q32 -5 55 -29t23 -66
q0 -29 -12.5 -51t-32.5 -37t-45.5 -22.5t-52.5 -7.5q-33 0 -58.5 9t-44 23.5t-29.5 33t-15 38.5l100 9q4 -14 13.5 -23.5t27.5 -9.5zM292 -100h-123l448 910h122zM763 241v-87h46v-82h-46v-71h-99v71h-154v86l84 223h102l-79 -227h53l11 87h82z" />
    <glyph glyph-name="questiondown" unicode="&#xbf;" horiz-adv-x="520" 
d="M328 540v-140h-150v140h150zM258 -92q30 0 51.5 23.5t26.5 62.5l139 -17q-9 -32 -25 -62.5t-42.5 -55t-65.5 -39.5t-93 -15q-42 0 -79 11t-64.5 33t-44 56t-16.5 80q0 51 21.5 85.5t48 61.5t48 51t21.5 54v63h139v-92q0 -25 -10 -45.5t-24.5 -38.5t-32 -34t-32 -32.5
t-24.5 -34.5t-10 -40q0 -42 20.5 -58.5t47.5 -16.5z" />
    <glyph glyph-name="Agrave" unicode="&#xc0;" horiz-adv-x="626" 
d="M462 0l-44 167h-222l-44 -167h-147l221 720h171l224 -720h-159zM224 269h167l-83 315zM416 768h-107l-130 117h152z" />
    <glyph glyph-name="Aacute" unicode="&#xc1;" horiz-adv-x="626" 
d="M462 0l-44 167h-222l-44 -167h-147l221 720h171l224 -720h-159zM224 269h167l-83 315zM272 885h152l-130 -117h-107z" />
    <glyph glyph-name="Acircumflex" unicode="&#xc2;" horiz-adv-x="626" 
d="M462 0l-44 167h-222l-44 -167h-147l221 720h171l224 -720h-159zM224 269h167l-83 315zM511 768h-130l-58 50l-57 -50h-131l120 117h136z" />
    <glyph glyph-name="Atilde" unicode="&#xc3;" horiz-adv-x="626" 
d="M462 0l-44 167h-222l-44 -167h-147l221 720h171l224 -720h-159zM224 269h167l-83 315zM374 758q-24 0 -41 6t-31 13t-27.5 13t-30.5 6t-41.5 -9.5t-46.5 -26.5v100q22 16 46.5 24.5t45.5 8.5q24 0 41 -6t31 -13t27.5 -13t30.5 -6t41.5 9.5t46.5 26.5v-100
q-22 -16 -46.5 -24.5t-45.5 -8.5z" />
    <glyph glyph-name="Adieresis" unicode="&#xc4;" horiz-adv-x="626" 
d="M462 0l-44 167h-222l-44 -167h-147l221 720h171l224 -720h-159zM224 269h167l-83 315zM134 772v108h132v-108h-132zM361 772v108h132v-108h-132z" />
    <glyph glyph-name="Aring" unicode="&#xc5;" horiz-adv-x="626" 
d="M182 811q0 57 35 88t98 31t97.5 -31t34.5 -88q0 -32 -13 -56t-36 -39l223 -716h-159l-44 167h-222l-44 -167h-147l220 716q-43 31 -43 95zM224 269h167l-83 315zM280 811q0 -23 10 -34.5t25 -11.5q16 0 25.5 11t9.5 35t-10 36t-25 12t-25 -12.5t-10 -35.5z" />
    <glyph glyph-name="AE" unicode="&#xc6;" horiz-adv-x="869" 
d="M769 309h-233l41 -196h242v-113h-366l-32 167h-220l-55 -167h-141l259 720h525v-115h-315l39 -188h256v-108zM234 269h168l-60 325z" />
    <glyph glyph-name="Ccedilla" unicode="&#xc7;" horiz-adv-x="603" 
d="M452 -142q0 -52 -35 -81.5t-102 -29.5q-31 0 -59.5 9t-51.5 24l37 71q9 -6 25 -12t34 -6q23 0 32 8.5t9 20.5q0 21 -19 30.5t-55 13.5l21 81q-44 5 -85 24.5t-73 62.5t-51 112.5t-19 173.5q0 112 23.5 185t61.5 115t87.5 58.5t100.5 16.5q55 0 95.5 -18.5t68.5 -47.5
t43.5 -65t21.5 -71l-139 -17q-4 24 -10.5 44t-17.5 35t-27 23.5t-38 8.5q-23 0 -43 -12t-36 -42t-25 -82t-9 -131q0 -80 8.5 -131.5t23 -81.5t34.5 -41.5t44 -11.5q45 0 70.5 33t29.5 85l141 -15q-4 -29 -16 -61.5t-34 -61.5t-55 -51t-79 -31l-4 -43q38 -11 55 -36t17 -55z
" />
    <glyph glyph-name="Egrave" unicode="&#xc8;" horiz-adv-x="515" 
d="M435 309h-205v-196h235v-113h-385v720h385v-115h-235v-188h205v-108zM345 768h-107l-130 117h152z" />
    <glyph glyph-name="Eacute" unicode="&#xc9;" horiz-adv-x="515" 
d="M435 309h-205v-196h235v-113h-385v720h385v-115h-235v-188h205v-108zM253 888h152l-130 -117h-107z" />
    <glyph glyph-name="Ecircumflex" unicode="&#xca;" horiz-adv-x="518" 
d="M435 309h-205v-196h235v-113h-385v720h385v-115h-235v-188h205v-108zM468 768h-130l-58 50l-57 -50h-131l120 117h136z" />
    <glyph glyph-name="Edieresis" unicode="&#xcb;" horiz-adv-x="515" 
d="M435 309h-205v-196h235v-113h-385v720h385v-115h-235v-188h205v-108zM94 772v108h132v-108h-132zM321 772v108h132v-108h-132z" />
    <glyph glyph-name="Igrave" unicode="&#xcc;" horiz-adv-x="310" 
d="M230 720v-720h-150v720h150zM250 768h-107l-130 117h152z" />
    <glyph glyph-name="Iacute" unicode="&#xcd;" horiz-adv-x="310" 
d="M230 720v-720h-150v720h150zM133 885h152l-130 -117h-107z" />
    <glyph glyph-name="Icircumflex" unicode="&#xce;" horiz-adv-x="310" 
d="M230 720v-720h-150v720h150zM344 768h-130l-58 50l-57 -50h-131l120 117h136z" />
    <glyph glyph-name="Idieresis" unicode="&#xcf;" horiz-adv-x="310" 
d="M230 720v-720h-150v720h150zM-24 772v108h132v-108h-132zM203 772v108h132v-108h-132z" />
    <glyph glyph-name="Eth" unicode="&#xd0;" horiz-adv-x="656" 
d="M90 336h-60v110h60v274h187q64 0 122 -15.5t101.5 -56t69.5 -110t26 -178.5t-26 -178.5t-69.5 -110t-101 -56t-120.5 -15.5h-189v336zM240 336v-227h39q30 0 59.5 9.5t53 36.5t38 76t14.5 129q0 79 -15 128.5t-38.5 77t-53.5 37t-60 9.5h-37v-166h125v-110h-125z" />
    <glyph glyph-name="Ntilde" unicode="&#xd1;" horiz-adv-x="668" 
d="M588 720v-720h-178l-204 523v-523h-126v720h191l192 -516v516h125zM399 762q-24 0 -41 6t-31 13t-27.5 13t-30.5 6t-41.5 -9.5t-46.5 -26.5v100q22 16 46.5 24.5t45.5 8.5q24 0 41 -6t31 -13t27.5 -13t30.5 -6t41.5 9.5t46.5 26.5v-100q-22 -16 -46.5 -24.5t-45.5 -8.5z
" />
    <glyph glyph-name="Ograve" unicode="&#xd2;" horiz-adv-x="683" 
d="M60 360q0 105 21.5 176.5t59 115.5t89 63.5t111.5 19.5t111.5 -19.5t89.5 -63.5t59.5 -115.5t21.5 -176.5t-21.5 -176.5t-59 -115.5t-89 -63.5t-112.5 -19.5t-112.5 19.5t-89 63.5t-58.5 115.5t-21 176.5zM213 360q0 -76 9 -127t25.5 -81.5t40.5 -43.5t53 -13t53 13
t41 44t26 82t9 126t-10 126t-27 82t-41 44.5t-51 13.5t-50.5 -13t-41 -44t-27 -82t-9.5 -127zM400 768h-107l-130 117h152z" />
    <glyph glyph-name="Oacute" unicode="&#xd3;" horiz-adv-x="683" 
d="M60 360q0 105 21.5 176.5t59 115.5t89 63.5t111.5 19.5t111.5 -19.5t89.5 -63.5t59.5 -115.5t21.5 -176.5t-21.5 -176.5t-59 -115.5t-89 -63.5t-112.5 -19.5t-112.5 19.5t-89 63.5t-58.5 115.5t-21 176.5zM213 360q0 -76 9 -127t25.5 -81.5t40.5 -43.5t53 -13t53 13
t41 44t26 82t9 126t-10 126t-27 82t-41 44.5t-51 13.5t-50.5 -13t-41 -44t-27 -82t-9.5 -127zM339 885h152l-130 -117h-107z" />
    <glyph glyph-name="Ocircumflex" unicode="&#xd4;" horiz-adv-x="683" 
d="M60 360q0 105 21.5 176.5t59 115.5t89 63.5t111.5 19.5t111.5 -19.5t89.5 -63.5t59.5 -115.5t21.5 -176.5t-21.5 -176.5t-59 -115.5t-89 -63.5t-112.5 -19.5t-112.5 19.5t-89 63.5t-58.5 115.5t-21 176.5zM213 360q0 -76 9 -127t25.5 -81.5t40.5 -43.5t53 -13t53 13
t41 44t26 82t9 126t-10 126t-27 82t-41 44.5t-51 13.5t-50.5 -13t-41 -44t-27 -82t-9.5 -127zM539 768h-130l-58 50l-57 -50h-131l120 117h136z" />
    <glyph glyph-name="Otilde" unicode="&#xd5;" horiz-adv-x="683" 
d="M60 360q0 105 21.5 176.5t59 115.5t89 63.5t111.5 19.5t111.5 -19.5t89.5 -63.5t59.5 -115.5t21.5 -176.5t-21.5 -176.5t-59 -115.5t-89 -63.5t-112.5 -19.5t-112.5 19.5t-89 63.5t-58.5 115.5t-21 176.5zM213 360q0 -76 9 -127t25.5 -81.5t40.5 -43.5t53 -13t53 13
t41 44t26 82t9 126t-10 126t-27 82t-41 44.5t-51 13.5t-50.5 -13t-41 -44t-27 -82t-9.5 -127zM404 760q-24 0 -41 6t-31 13t-27.5 13t-30.5 6t-41.5 -9.5t-46.5 -26.5v100q22 16 46.5 24.5t45.5 8.5q24 0 41 -6t31 -13t27.5 -13t30.5 -6t41.5 9.5t46.5 26.5v-100
q-22 -16 -46.5 -24.5t-45.5 -8.5z" />
    <glyph glyph-name="Odieresis" unicode="&#xd6;" horiz-adv-x="683" 
d="M60 360q0 105 21.5 176.5t59 115.5t89 63.5t111.5 19.5t111.5 -19.5t89.5 -63.5t59.5 -115.5t21.5 -176.5t-21.5 -176.5t-59 -115.5t-89 -63.5t-112.5 -19.5t-112.5 19.5t-89 63.5t-58.5 115.5t-21 176.5zM213 360q0 -76 9 -127t25.5 -81.5t40.5 -43.5t53 -13t53 13
t41 44t26 82t9 126t-10 126t-27 82t-41 44.5t-51 13.5t-50.5 -13t-41 -44t-27 -82t-9.5 -127zM163 772v108h132v-108h-132zM390 772v108h132v-108h-132z" />
    <glyph glyph-name="multiply" unicode="&#xd7;" 
d="M270 406l120 120l85 -85l-120 -120l120 -120l-85 -85l-120 120l-120 -120l-85 85l120 120l-120 120l85 85z" />
    <glyph glyph-name="Oslash" unicode="&#xd8;" horiz-adv-x="683" 
d="M60 360q0 105 21.5 176.5t59 115.5t89 63.5t111.5 19.5q40 0 76 -9l35 94h115l-52 -141q50 -42 79 -119t29 -200q0 -105 -21.5 -176.5t-59 -115.5t-89 -63.5t-112.5 -19.5q-42 0 -79 9l-36 -96h-115l53 145q-48 42 -76 119t-28 198zM470 360q0 60 -6 102.5t-17 73.5
l-158 -429q22 -12 52 -12q29 0 53 13t41 44t26 82t9 126zM213 360q0 -57 5 -97.5t14 -71.5l157 423q-23 12 -48 12q-27 0 -50.5 -13t-41 -44t-27 -82t-9.5 -127z" />
    <glyph glyph-name="Ugrave" unicode="&#xd9;" horiz-adv-x="643" 
d="M225 720v-506q0 -38 9 -61t23 -36t32 -17.5t35 -4.5t35 4.5t32.5 17.5t23.5 36t9 61v506h144v-497q0 -118 -62 -178t-183 -60t-184.5 60t-63.5 178v497h150zM384 768h-107l-130 117h152z" />
    <glyph glyph-name="Uacute" unicode="&#xda;" horiz-adv-x="643" 
d="M225 720v-506q0 -38 9 -61t23 -36t32 -17.5t35 -4.5t35 4.5t32.5 17.5t23.5 36t9 61v506h144v-497q0 -118 -62 -178t-183 -60t-184.5 60t-63.5 178v497h150zM336 885h152l-130 -117h-107z" />
    <glyph glyph-name="Ucircumflex" unicode="&#xdb;" horiz-adv-x="643" 
d="M225 720v-506q0 -38 9 -61t23 -36t32 -17.5t35 -4.5t35 4.5t32.5 17.5t23.5 36t9 61v506h144v-497q0 -118 -62 -178t-183 -60t-184.5 60t-63.5 178v497h150zM523 766h-130l-58 50l-57 -50h-131l120 117h136z" />
    <glyph glyph-name="Udieresis" unicode="&#xdc;" horiz-adv-x="643" 
d="M225 720v-506q0 -38 9 -61t23 -36t32 -17.5t35 -4.5t35 4.5t32.5 17.5t23.5 36t9 61v506h144v-497q0 -118 -62 -178t-183 -60t-184.5 60t-63.5 178v497h150zM145 772v108h132v-108h-132zM372 772v108h132v-108h-132z" />
    <glyph glyph-name="Yacute" unicode="&#xdd;" horiz-adv-x="562" 
d="M557 720l-204 -432v-288h-140v288l-208 432h162l120 -289l130 289h140zM304 885h152l-130 -117h-107z" />
    <glyph glyph-name="Thorn" unicode="&#xde;" horiz-adv-x="608" 
d="M230 720v-110h43q56 0 106 -9.5t87.5 -35.5t59.5 -72.5t22 -120.5t-22.5 -120.5t-59.5 -72.5t-86 -35.5t-101 -9.5h-49v-134h-150v720h150zM230 503v-262h51q19 0 39 5t36 19t26 39.5t10 67.5t-9.5 67.5t-26 39.5t-37.5 19t-44 5h-45z" />
    <glyph glyph-name="germandbls" unicode="&#xdf;" horiz-adv-x="612" 
d="M577 175q0 -43 -14 -77t-39.5 -58t-60.5 -37t-77 -13q-33 0 -58 7.5t-44 19t-32 25.5t-21 27l82 74q10 -17 25.5 -31t41.5 -14q27 0 44.5 18.5t17.5 52.5q0 16 -3.5 28.5t-11.5 24t-22.5 22.5t-35.5 23q-17 10 -33.5 21.5t-29.5 26.5t-21 35t-8 47q0 46 24.5 78.5
t62.5 43.5q4 13 6.5 30.5t2.5 31.5q0 30 -21 50.5t-57 20.5t-60 -21t-24 -79v-552h-141v533q0 105 61.5 158.5t163.5 53.5q40 0 76 -11t63.5 -32t44 -52.5t16.5 -72.5q0 -50 -24 -105q-32 -5 -51.5 -16.5t-19.5 -38.5q0 -11 3 -19t12 -16.5t25 -18.5t42 -25q51 -29 73 -70
t22 -93z" />
    <glyph glyph-name="agrave" unicode="&#xe0;" horiz-adv-x="545" 
d="M386 0l-31 58q-21 -29 -56.5 -48.5t-90.5 -19.5q-27 0 -56.5 9t-54.5 29t-41 52t-16 78q0 41 16 72.5t43.5 54t63.5 35.5t77 18l95 13v33q0 78 -67 78q-28 0 -48.5 -16.5t-25.5 -51.5l-135 20q8 25 23.5 50.5t41.5 45.5t63.5 32.5t90.5 12.5q94 0 145.5 -45t51.5 -144
v-366h-89zM262 89q36 0 73 25v154l-57 -9q-45 -8 -72 -27t-27 -59q0 -26 7.5 -42.5t19.5 -25.5t27 -12.5t29 -3.5zM373 598h-105l-152 137h157z" />
    <glyph glyph-name="aacute" unicode="&#xe1;" horiz-adv-x="545" 
d="M386 0l-31 58q-21 -29 -56.5 -48.5t-90.5 -19.5q-27 0 -56.5 9t-54.5 29t-41 52t-16 78q0 41 16 72.5t43.5 54t63.5 35.5t77 18l95 13v33q0 78 -67 78q-28 0 -48.5 -16.5t-25.5 -51.5l-135 20q8 25 23.5 50.5t41.5 45.5t63.5 32.5t90.5 12.5q94 0 145.5 -45t51.5 -144
v-366h-89zM262 89q36 0 73 25v154l-57 -9q-45 -8 -72 -27t-27 -59q0 -26 7.5 -42.5t19.5 -25.5t27 -12.5t29 -3.5zM287 735h157l-152 -137h-105z" />
    <glyph glyph-name="acircumflex" unicode="&#xe2;" horiz-adv-x="545" 
d="M386 0l-31 58q-21 -29 -56.5 -48.5t-90.5 -19.5q-27 0 -56.5 9t-54.5 29t-41 52t-16 78q0 41 16 72.5t43.5 54t63.5 35.5t77 18l95 13v33q0 78 -67 78q-28 0 -48.5 -16.5t-25.5 -51.5l-135 20q8 25 23.5 50.5t41.5 45.5t63.5 32.5t90.5 12.5q94 0 145.5 -45t51.5 -144
v-366h-89zM262 89q36 0 73 25v154l-57 -9q-45 -8 -72 -27t-27 -59q0 -26 7.5 -42.5t19.5 -25.5t27 -12.5t29 -3.5zM454 598h-122l-66 57l-66 -57h-122l120 137h136z" />
    <glyph glyph-name="atilde" unicode="&#xe3;" horiz-adv-x="545" 
d="M386 0l-31 58q-21 -29 -56.5 -48.5t-90.5 -19.5q-27 0 -56.5 9t-54.5 29t-41 52t-16 78q0 41 16 72.5t43.5 54t63.5 35.5t77 18l95 13v33q0 78 -67 78q-28 0 -48.5 -16.5t-25.5 -51.5l-135 20q8 25 23.5 50.5t41.5 45.5t63.5 32.5t90.5 12.5q94 0 145.5 -45t51.5 -144
v-366h-89zM262 89q36 0 73 25v154l-57 -9q-45 -8 -72 -27t-27 -59q0 -26 7.5 -42.5t19.5 -25.5t27 -12.5t29 -3.5zM331 612q-24 0 -41 6t-31 13t-27.5 13t-30.5 6t-41.5 -9.5t-46.5 -26.5v100q22 16 46.5 24.5t45.5 8.5q24 0 41 -6t31 -13t27.5 -13t30.5 -6t41.5 9.5
t46.5 26.5v-100q-22 -16 -46.5 -24.5t-45.5 -8.5z" />
    <glyph glyph-name="adieresis" unicode="&#xe4;" horiz-adv-x="545" 
d="M386 0l-31 58q-21 -29 -56.5 -48.5t-90.5 -19.5q-27 0 -56.5 9t-54.5 29t-41 52t-16 78q0 41 16 72.5t43.5 54t63.5 35.5t77 18l95 13v33q0 78 -67 78q-28 0 -48.5 -16.5t-25.5 -51.5l-135 20q8 25 23.5 50.5t41.5 45.5t63.5 32.5t90.5 12.5q94 0 145.5 -45t51.5 -144
v-366h-89zM262 89q36 0 73 25v154l-57 -9q-45 -8 -72 -27t-27 -59q0 -26 7.5 -42.5t19.5 -25.5t27 -12.5t29 -3.5zM89 610v115h132v-115h-132zM316 610v115h132v-115h-132z" />
    <glyph glyph-name="aring" unicode="&#xe5;" horiz-adv-x="545" 
d="M386 0l-31 58q-21 -29 -56.5 -48.5t-90.5 -19.5q-27 0 -56.5 9t-54.5 29t-41 52t-16 78q0 41 16 72.5t43.5 54t63.5 35.5t77 18l95 13v33q0 78 -67 78q-28 0 -48.5 -16.5t-25.5 -51.5l-135 20q8 25 23.5 50.5t41.5 45.5t63.5 32.5t90.5 12.5q94 0 145.5 -45t51.5 -144
v-366h-89zM262 89q36 0 73 25v154l-57 -9q-45 -8 -72 -27t-27 -59q0 -26 7.5 -42.5t19.5 -25.5t27 -12.5t29 -3.5zM134 691q0 57 35 88t98 31t97.5 -31t34.5 -88t-38 -87t-99 -30t-94.5 30t-33.5 87zM232 691q0 -23 10 -34.5t25 -11.5q16 0 25.5 11t9.5 35t-10 36t-25 12
t-25 -12.5t-10 -35.5z" />
    <glyph glyph-name="ae" unicode="&#xe6;" horiz-adv-x="821" 
d="M562 91q34 0 53.5 19t25.5 48l127 -20q-8 -27 -24 -53.5t-42 -47.5t-62.5 -34t-85.5 -13q-54 0 -94 20.5t-67 65.5q-27 -42 -69 -63t-109 -21q-32 0 -63.5 9t-56.5 28.5t-40 51t-15 77.5q0 41 16 72.5t43.5 54t63.5 35.5t77 18l95 13v33q0 78 -67 78q-28 0 -48.5 -16.5
t-25.5 -51.5l-135 20q8 25 23 50.5t40.5 45.5t63.5 32.5t92 12.5q48 0 82 -14.5t55 -40.5q52 55 139 55q64 0 106 -21.5t67.5 -63.5t36 -102.5t10.5 -138.5h-303q3 -42 11.5 -69t20.5 -42.5t27 -21t32 -5.5zM262 91q16 0 35 6t38 18v153l-57 -9q-45 -6 -72 -27t-27 -59
q0 -26 7.5 -42t19.5 -25t27 -12t29 -3zM558 465q-17 0 -32 -5t-27 -20.5t-20 -44t-10 -74.5h174q-1 42 -7.5 70t-18 44.5t-26.5 23t-33 6.5z" />
    <glyph glyph-name="ccedilla" unicode="&#xe7;" horiz-adv-x="528" 
d="M396 -142q0 -52 -33.5 -81t-100.5 -29q-31 0 -59.5 9t-51.5 24l37 68q9 -6 25 -12t34 -6q23 0 33 9.5t10 21.5q0 21 -20 31t-56 14l22 86q-38 5 -71 22t-58 50t-39.5 84.5t-14.5 125.5q0 77 17 130.5t47.5 86.5t72 48t89.5 15q57 0 95.5 -16.5t62.5 -42.5t36 -57t15 -59
l-133 -20q-4 97 -75 97q-15 0 -29.5 -6t-26.5 -25.5t-19 -56t-7 -97.5t8 -97t20 -55.5t27 -25.5t29 -6q19 0 32.5 8t22 21t13 30.5t6.5 36.5l138 -16q-5 -28 -16.5 -56t-31 -52t-48.5 -41.5t-69 -24.5l-5 -45q38 -11 55 -36t17 -55z" />
    <glyph glyph-name="egrave" unicode="&#xe8;" horiz-adv-x="546" 
d="M287 91q34 0 53.5 19t25.5 48l127 -20q-8 -27 -24 -53.5t-42 -47.5t-62.5 -34t-85.5 -13q-46 0 -87 15t-72 48t-49 86.5t-18 130.5q0 79 17.5 133.5t48.5 88t72 48.5t88 15q64 0 106 -21.5t67.5 -63.5t36 -102.5t10.5 -138.5h-303q3 -42 11.5 -69t20.5 -42.5t27 -21
t32 -5.5zM283 465q-17 0 -32 -5t-27 -20.5t-20 -44t-10 -74.5h174q-1 42 -7.5 70t-18 44.5t-26.5 23t-33 6.5zM369 598h-105l-152 137h157z" />
    <glyph glyph-name="eacute" unicode="&#xe9;" horiz-adv-x="546" 
d="M287 91q34 0 53.5 19t25.5 48l127 -20q-8 -27 -24 -53.5t-42 -47.5t-62.5 -34t-85.5 -13q-46 0 -87 15t-72 48t-49 86.5t-18 130.5q0 79 17.5 133.5t48.5 88t72 48.5t88 15q64 0 106 -21.5t67.5 -63.5t36 -102.5t10.5 -138.5h-303q3 -42 11.5 -69t20.5 -42.5t27 -21
t32 -5.5zM283 465q-17 0 -32 -5t-27 -20.5t-20 -44t-10 -74.5h174q-1 42 -7.5 70t-18 44.5t-26.5 23t-33 6.5zM287 735h157l-152 -137h-105z" />
    <glyph glyph-name="ecircumflex" unicode="&#xea;" horiz-adv-x="546" 
d="M287 91q34 0 53.5 19t25.5 48l127 -20q-8 -27 -24 -53.5t-42 -47.5t-62.5 -34t-85.5 -13q-46 0 -87 15t-72 48t-49 86.5t-18 130.5q0 79 17.5 133.5t48.5 88t72 48.5t88 15q64 0 106 -21.5t67.5 -63.5t36 -102.5t10.5 -138.5h-303q3 -42 11.5 -69t20.5 -42.5t27 -21
t32 -5.5zM283 465q-17 0 -32 -5t-27 -20.5t-20 -44t-10 -74.5h174q-1 42 -7.5 70t-18 44.5t-26.5 23t-33 6.5zM471 598h-122l-66 57l-66 -57h-122l120 137h136z" />
    <glyph glyph-name="edieresis" unicode="&#xeb;" horiz-adv-x="546" 
d="M287 91q34 0 53.5 19t25.5 48l127 -20q-8 -27 -24 -53.5t-42 -47.5t-62.5 -34t-85.5 -13q-46 0 -87 15t-72 48t-49 86.5t-18 130.5q0 79 17.5 133.5t48.5 88t72 48.5t88 15q64 0 106 -21.5t67.5 -63.5t36 -102.5t10.5 -138.5h-303q3 -42 11.5 -69t20.5 -42.5t27 -21
t32 -5.5zM283 465q-17 0 -32 -5t-27 -20.5t-20 -44t-10 -74.5h174q-1 42 -7.5 70t-18 44.5t-26.5 23t-33 6.5zM103 610v115h132v-115h-132zM330 610v115h132v-115h-132z" />
    <glyph glyph-name="igrave" unicode="&#xec;" horiz-adv-x="280" 
d="M70 0v540h140v-540h-140zM244 598h-105l-152 137h157z" />
    <glyph glyph-name="iacute" unicode="&#xed;" horiz-adv-x="280" 
d="M70 0v540h140v-540h-140zM136 735h157l-152 -137h-105z" />
    <glyph glyph-name="icircumflex" unicode="&#xee;" horiz-adv-x="280" 
d="M329 598h-122l-66 57l-66 -57h-122l120 137h136zM70 0v540h140v-540h-140z" />
    <glyph glyph-name="idieresis" unicode="&#xef;" horiz-adv-x="280" 
d="M70 0v540h140v-540h-140zM-38 610v115h132v-115h-132zM189 610v115h132v-115h-132z" />
    <glyph glyph-name="eth" unicode="&#xf0;" horiz-adv-x="546" 
d="M496 330q0 -96 -16 -161t-45.5 -105t-70.5 -57t-91 -17q-47 0 -87 13.5t-69 42.5t-45.5 76t-16.5 114q0 118 49 177.5t130 59.5q37 0 63.5 -11.5t46.5 -30.5q-8 42 -25 72t-40 53l-29 -30h-112l74 78q-26 13 -54 22t-60 17l47 92q32 -6 70.5 -16t78.5 -30l29 31h112
l-71 -74q28 -22 52 -51t42 -68t28 -87.5t10 -109.5zM274 365q-15 0 -29 -6.5t-24.5 -21.5t-17 -40.5t-6.5 -64.5q0 -47 7.5 -75t19 -43t25 -19.5t25.5 -4.5q14 0 27.5 6t24.5 30.5t18 73t8 134.5q-40 31 -78 31z" />
    <glyph glyph-name="ntilde" unicode="&#xf1;" horiz-adv-x="582" 
d="M70 0v540h95l30 -63q26 37 62.5 57.5t87.5 20.5q37 0 67.5 -11t52.5 -34.5t34.5 -60.5t12.5 -89v-360h-140v364q0 45 -15.5 67t-60.5 22q-26 0 -47 -11t-39 -28v-414h-140zM357 608q-24 0 -41 6t-31 13t-27.5 13t-30.5 6t-41.5 -9.5t-46.5 -26.5v100q22 16 46.5 24.5
t45.5 8.5q24 0 41 -6t31 -13t27.5 -13t30.5 -6t41.5 9.5t46.5 26.5v-100q-22 -16 -46.5 -24.5t-45.5 -8.5z" />
    <glyph glyph-name="ograve" unicode="&#xf2;" horiz-adv-x="585" 
d="M53 270q0 83 21 138t55 87.5t77 46t87 13.5t87 -13t76.5 -45.5t54.5 -87.5t21 -139t-21 -138t-54.5 -85.5t-76.5 -44t-87 -12.5t-87 12.5t-77 44.5t-55 86t-21 137zM197 270q0 -57 6.5 -92.5t19.5 -56t30.5 -27.5t40.5 -7q22 0 40 7t30 27t18.5 55.5t6.5 93.5t-6.5 94.5
t-19 57.5t-30.5 28.5t-40 7.5q-23 0 -40.5 -8t-30 -29t-19 -57.5t-6.5 -93.5zM379 598h-105l-152 137h157z" />
    <glyph glyph-name="oacute" unicode="&#xf3;" horiz-adv-x="585" 
d="M53 270q0 83 21 138t55 87.5t77 46t87 13.5t87 -13t76.5 -45.5t54.5 -87.5t21 -139t-21 -138t-54.5 -85.5t-76.5 -44t-87 -12.5t-87 12.5t-77 44.5t-55 86t-21 137zM197 270q0 -57 6.5 -92.5t19.5 -56t30.5 -27.5t40.5 -7q22 0 40 7t30 27t18.5 55.5t6.5 93.5t-6.5 94.5
t-19 57.5t-30.5 28.5t-40 7.5q-23 0 -40.5 -8t-30 -29t-19 -57.5t-6.5 -93.5zM315 735h157l-152 -137h-105z" />
    <glyph glyph-name="ocircumflex" unicode="&#xf4;" horiz-adv-x="585" 
d="M53 270q0 83 21 138t55 87.5t77 46t87 13.5t87 -13t76.5 -45.5t54.5 -87.5t21 -139t-21 -138t-54.5 -85.5t-76.5 -44t-87 -12.5t-87 12.5t-77 44.5t-55 86t-21 137zM197 270q0 -57 6.5 -92.5t19.5 -56t30.5 -27.5t40.5 -7q22 0 40 7t30 27t18.5 55.5t6.5 93.5t-6.5 94.5
t-19 57.5t-30.5 28.5t-40 7.5q-23 0 -40.5 -8t-30 -29t-19 -57.5t-6.5 -93.5zM482 598h-122l-66 57l-66 -57h-122l120 137h136z" />
    <glyph glyph-name="otilde" unicode="&#xf5;" horiz-adv-x="585" 
d="M53 270q0 83 21 138t55 87.5t77 46t87 13.5t87 -13t76.5 -45.5t54.5 -87.5t21 -139t-21 -138t-54.5 -85.5t-76.5 -44t-87 -12.5t-87 12.5t-77 44.5t-55 86t-21 137zM197 270q0 -57 6.5 -92.5t19.5 -56t30.5 -27.5t40.5 -7q22 0 40 7t30 27t18.5 55.5t6.5 93.5t-6.5 94.5
t-19 57.5t-30.5 28.5t-40 7.5q-23 0 -40.5 -8t-30 -29t-19 -57.5t-6.5 -93.5zM359 610q-24 0 -41 6t-31 13t-27.5 13t-30.5 6t-41.5 -9.5t-46.5 -26.5v100q22 16 46.5 24.5t45.5 8.5q24 0 41 -6t31 -13t27.5 -13t30.5 -6t41.5 9.5t46.5 26.5v-100q-22 -16 -46.5 -24.5
t-45.5 -8.5z" />
    <glyph glyph-name="odieresis" unicode="&#xf6;" horiz-adv-x="585" 
d="M53 270q0 83 21 138t55 87.5t77 46t87 13.5t87 -13t76.5 -45.5t54.5 -87.5t21 -139t-21 -138t-54.5 -85.5t-76.5 -44t-87 -12.5t-87 12.5t-77 44.5t-55 86t-21 137zM197 270q0 -57 6.5 -92.5t19.5 -56t30.5 -27.5t40.5 -7q22 0 40 7t30 27t18.5 55.5t6.5 93.5t-6.5 94.5
t-19 57.5t-30.5 28.5t-40 7.5q-23 0 -40.5 -8t-30 -29t-19 -57.5t-6.5 -93.5zM114 610v115h132v-115h-132zM341 610v115h132v-115h-132z" />
    <glyph glyph-name="divide" unicode="&#xf7;" 
d="M198 51v135h145v-135h-145zM198 456v135h145v-135h-145zM65 261v120h410v-120h-410z" />
    <glyph glyph-name="oslash" unicode="&#xf8;" horiz-adv-x="585" 
d="M53 270q0 83 21 138t55 87.5t77 46t87 13.5q20 0 39.5 -2.5t39.5 -8.5l40 89h110l-63 -139q33 -33 53 -86.5t20 -137.5t-21 -138t-54.5 -85.5t-76.5 -44t-87 -12.5q-40 0 -67 7l-44 -99h-112l65 143q-37 32 -59.5 86.5t-22.5 142.5zM197 270q0 -75 10 -111l131 288
q-20 11 -45 11q-23 0 -40.5 -8t-30 -29t-19 -57.5t-6.5 -93.5zM389 270q0 31 -1.5 55.5t-5.5 41.5l-125 -275q17 -5 37 -5q22 0 40 7t30 27t18.5 55.5t6.5 93.5z" />
    <glyph glyph-name="ugrave" unicode="&#xf9;" horiz-adv-x="575" 
d="M210 540v-356q0 -45 14 -68.5t59 -23.5q25 0 45 11t37 28v409h140v-540h-95l-31 65q-23 -35 -58.5 -55t-86.5 -20q-74 0 -119 48t-45 152v350h140zM374 598h-105l-152 137h157z" />
    <glyph glyph-name="uacute" unicode="&#xfa;" horiz-adv-x="575" 
d="M210 540v-356q0 -45 14 -68.5t59 -23.5q25 0 45 11t37 28v409h140v-540h-95l-31 65q-23 -35 -58.5 -55t-86.5 -20q-74 0 -119 48t-45 152v350h140zM299 735h157l-152 -137h-105z" />
    <glyph glyph-name="ucircumflex" unicode="&#xfb;" horiz-adv-x="575" 
d="M210 540v-356q0 -45 14 -68.5t59 -23.5q25 0 45 11t37 28v409h140v-540h-95l-31 65q-23 -35 -58.5 -55t-86.5 -20q-74 0 -119 48t-45 152v350h140zM474 592h-122l-66 57l-66 -57h-122l120 137h136z" />
    <glyph glyph-name="udieresis" unicode="&#xfc;" horiz-adv-x="575" 
d="M210 540v-356q0 -45 14 -68.5t59 -23.5q25 0 45 11t37 28v409h140v-540h-95l-31 65q-23 -35 -58.5 -55t-86.5 -20q-74 0 -119 48t-45 152v350h140zM110 610v115h132v-115h-132zM337 610v115h132v-115h-132z" />
    <glyph glyph-name="yacute" unicode="&#xfd;" horiz-adv-x="511" 
d="M340 -15q-12 -39 -26 -67.5t-34 -47t-48.5 -27t-69.5 -8.5q-20 0 -46 3.5t-44 8.5v100q18 -5 38 -7t31 -2q36 0 52 13.5t21 48.5h-46l-163 540h147l102 -428l116 428h136zM288 735h157l-152 -137h-105z" />
    <glyph glyph-name="thorn" unicode="&#xfe;" horiz-adv-x="563" 
d="M70 -170v905h140v-236q25 26 58.5 41t78.5 15q30 0 59 -12t52 -43.5t37.5 -86t14.5 -139.5q0 -149 -49 -216.5t-143 -67.5q-37 0 -63.5 11t-44.5 29v-200h-140zM289 449q-24 0 -43 -10t-36 -26v-303q14 -11 30 -17.5t37 -6.5q23 0 40.5 7t29 28t17.5 58.5t6 99.5
q0 54 -7 87.5t-18 51.5t-25.5 24.5t-30.5 6.5z" />
    <glyph glyph-name="ydieresis" unicode="&#xff;" horiz-adv-x="511" 
d="M340 -15q-12 -39 -26 -67.5t-34 -47t-48.5 -27t-69.5 -8.5q-20 0 -46 3.5t-44 8.5v100q18 -5 38 -7t31 -2q36 0 52 13.5t21 48.5h-46l-163 540h147l102 -428l116 428h136zM80 610v115h132v-115h-132zM307 610v115h132v-115h-132z" />
    <glyph glyph-name="Amacron" unicode="&#x100;" horiz-adv-x="626" 
d="M462 0l-44 167h-222l-44 -167h-147l221 720h171l224 -720h-159zM224 269h167l-83 315zM162 784v101h300v-101h-300z" />
    <glyph glyph-name="amacron" unicode="&#x101;" horiz-adv-x="545" 
d="M386 0l-31 58q-21 -29 -56.5 -48.5t-90.5 -19.5q-27 0 -56.5 9t-54.5 29t-41 52t-16 78q0 41 16 72.5t43.5 54t63.5 35.5t77 18l95 13v33q0 78 -67 78q-28 0 -48.5 -16.5t-25.5 -51.5l-135 20q8 25 23.5 50.5t41.5 45.5t63.5 32.5t90.5 12.5q94 0 145.5 -45t51.5 -144
v-366h-89zM262 89q36 0 73 25v154l-57 -9q-45 -8 -72 -27t-27 -59q0 -26 7.5 -42.5t19.5 -25.5t27 -12.5t29 -3.5zM121 634v101h300v-101h-300z" />
    <glyph glyph-name="Abreve" unicode="&#x102;" horiz-adv-x="626" 
d="M462 0l-44 167h-222l-44 -167h-147l221 720h171l224 -720h-159zM224 269h167l-83 315zM311 834q20 0 35 11t21 40h119q-6 -38 -21.5 -63t-39 -41t-52.5 -22.5t-62 -6.5t-62 6.5t-52.5 22.5t-39 41t-21.5 63h119q6 -29 21 -40t35 -11z" />
    <glyph glyph-name="abreve" unicode="&#x103;" horiz-adv-x="545" 
d="M386 0l-31 58q-21 -29 -56.5 -48.5t-90.5 -19.5q-27 0 -56.5 9t-54.5 29t-41 52t-16 78q0 41 16 72.5t43.5 54t63.5 35.5t77 18l95 13v33q0 78 -67 78q-28 0 -48.5 -16.5t-25.5 -51.5l-135 20q8 25 23.5 50.5t41.5 45.5t63.5 32.5t90.5 12.5q94 0 145.5 -45t51.5 -144
v-366h-89zM262 89q36 0 73 25v154l-57 -9q-45 -8 -72 -27t-27 -59q0 -26 7.5 -42.5t19.5 -25.5t27 -12.5t29 -3.5zM271 592q-33 0 -62 7.5t-52 24.5t-39 44.5t-22 66.5h119q5 -33 20.5 -47t35.5 -14t35.5 14t20.5 47h119q-6 -39 -22 -66.5t-39 -44.5t-52 -24.5t-62 -7.5z
" />
    <glyph glyph-name="Aogonek" unicode="&#x104;" horiz-adv-x="626" 
d="M621 -212q-26 -14 -50.5 -21t-53.5 -7q-69 0 -104 33.5t-35 93.5q0 38 26 65.5t58 47.5l-44 167h-222l-44 -167h-147l221 720h171l224 -720h-43q-12 -8 -26 -17.5t-26 -21.5t-20 -27t-8 -33q0 -22 12 -32.5t32 -10.5q18 0 58 14zM224 269h167l-83 315z" />
    <glyph glyph-name="aogonek" unicode="&#x105;" horiz-adv-x="545" 
d="M475 0l-15 -10q-8 -6 -18.5 -15.5t-19.5 -20.5t-15 -24.5t-6 -28.5q0 -22 13 -32.5t33 -10.5q18 0 58 14l21 -84q-26 -14 -50.5 -21t-53.5 -7q-69 0 -104 33.5t-35 93.5q0 24 8 43t21.5 35t30.5 29t35 24l-23 40q-21 -29 -56.5 -48.5t-90.5 -19.5q-27 0 -56.5 9t-54.5 29
t-41 52t-16 78q0 41 16 72.5t43.5 54t63.5 35.5t77 18l95 13v33q0 78 -67 78q-28 0 -48.5 -16.5t-25.5 -51.5l-135 20q8 25 23.5 50.5t41.5 45.5t63.5 32.5t90.5 12.5q94 0 145.5 -45t51.5 -144v-366zM262 89q36 0 73 25v154l-57 -9q-45 -6 -72 -27t-27 -59q0 -26 7.5 -42.5
t19.5 -25.5t27 -12.5t29 -3.5z" />
    <glyph glyph-name="Cacute" unicode="&#x106;" horiz-adv-x="603" 
d="M327 94q45 0 70.5 33t29.5 85l141 -15q-5 -34 -20 -71.5t-44.5 -68.5t-74 -51.5t-107.5 -20.5q-48 0 -95 15.5t-84 57.5t-60 115t-23 187q0 112 23.5 185t61.5 115t87.5 58.5t100.5 16.5q55 0 95.5 -18.5t68.5 -47.5t43.5 -65t21.5 -71l-139 -17q-4 24 -10.5 44t-17.5 35
t-27 23.5t-38 8.5q-23 0 -43 -12t-36 -42t-25 -82t-9 -131q0 -80 8.5 -131.5t23 -81.5t34.5 -41.5t44 -11.5zM355 885h152l-130 -117h-107z" />
    <glyph glyph-name="cacute" unicode="&#x107;" horiz-adv-x="528" 
d="M280 457q-15 0 -29.5 -6t-26.5 -25.5t-19 -56t-7 -97.5t8 -97t20 -55.5t27 -25.5t29 -6q19 0 32.5 8t22 21t13 30.5t6.5 36.5l138 -16q-6 -32 -20 -63.5t-39.5 -57t-63.5 -41.5t-91 -16q-45 0 -86 13t-72.5 45.5t-50 87.5t-18.5 139q0 77 17 130.5t47.5 86.5t72 48
t89.5 15q57 0 95.5 -16.5t62.5 -42.5t36 -57t15 -59l-133 -20q-4 97 -75 97zM293 735h157l-152 -137h-105z" />
    <glyph glyph-name="Ccircumflex" unicode="&#x108;" horiz-adv-x="603" 
d="M327 94q45 0 70.5 33t29.5 85l141 -15q-5 -34 -20 -71.5t-44.5 -68.5t-74 -51.5t-107.5 -20.5q-48 0 -95 15.5t-84 57.5t-60 115t-23 187q0 112 23.5 185t61.5 115t87.5 58.5t100.5 16.5q55 0 95.5 -18.5t68.5 -47.5t43.5 -65t21.5 -71l-139 -17q-4 24 -10.5 44t-17.5 35
t-27 23.5t-38 8.5q-23 0 -43 -12t-36 -42t-25 -82t-9 -131q0 -80 8.5 -131.5t23 -81.5t34.5 -41.5t44 -11.5zM520 768h-130l-58 50l-57 -50h-131l120 117h136z" />
    <glyph glyph-name="ccircumflex" unicode="&#x109;" horiz-adv-x="528" 
d="M280 457q-15 0 -29.5 -6t-26.5 -25.5t-19 -56t-7 -97.5t8 -97t20 -55.5t27 -25.5t29 -6q19 0 32.5 8t22 21t13 30.5t6.5 36.5l138 -16q-6 -32 -20 -63.5t-39.5 -57t-63.5 -41.5t-91 -16q-45 0 -86 13t-72.5 45.5t-50 87.5t-18.5 139q0 77 17 130.5t47.5 86.5t72 48
t89.5 15q57 0 95.5 -16.5t62.5 -42.5t36 -57t15 -59l-133 -20q-4 97 -75 97zM468 598h-122l-66 57l-66 -57h-122l120 137h136z" />
    <glyph glyph-name="Cdotaccent" unicode="&#x10a;" horiz-adv-x="603" 
d="M327 94q45 0 70.5 33t29.5 85l141 -15q-5 -34 -20 -71.5t-44.5 -68.5t-74 -51.5t-107.5 -20.5q-48 0 -95 15.5t-84 57.5t-60 115t-23 187q0 112 23.5 185t61.5 115t87.5 58.5t100.5 16.5q55 0 95.5 -18.5t68.5 -47.5t43.5 -65t21.5 -71l-139 -17q-4 24 -10.5 44t-17.5 35
t-27 23.5t-38 8.5q-23 0 -43 -12t-36 -42t-25 -82t-9 -131q0 -80 8.5 -131.5t23 -81.5t34.5 -41.5t44 -11.5zM255 770v115h152v-115h-152z" />
    <glyph glyph-name="cdotaccent" unicode="&#x10b;" horiz-adv-x="528" 
d="M280 457q-15 0 -29.5 -6t-26.5 -25.5t-19 -56t-7 -97.5t8 -97t20 -55.5t27 -25.5t29 -6q19 0 32.5 8t22 21t13 30.5t6.5 36.5l138 -16q-6 -32 -20 -63.5t-39.5 -57t-63.5 -41.5t-91 -16q-45 0 -86 13t-72.5 45.5t-50 87.5t-18.5 139q0 77 17 130.5t47.5 86.5t72 48
t89.5 15q57 0 95.5 -16.5t62.5 -42.5t36 -57t15 -59l-133 -20q-4 97 -75 97zM204 610v125h152v-125h-152z" />
    <glyph glyph-name="Ccaron" unicode="&#x10c;" horiz-adv-x="603" 
d="M327 94q45 0 70.5 33t29.5 85l141 -15q-5 -34 -20 -71.5t-44.5 -68.5t-74 -51.5t-107.5 -20.5q-48 0 -95 15.5t-84 57.5t-60 115t-23 187q0 112 23.5 185t61.5 115t87.5 58.5t100.5 16.5q55 0 95.5 -18.5t68.5 -47.5t43.5 -65t21.5 -71l-139 -17q-4 24 -10.5 44t-17.5 35
t-27 23.5t-38 8.5q-23 0 -43 -12t-36 -42t-25 -82t-9 -131q0 -80 8.5 -131.5t23 -81.5t34.5 -41.5t44 -11.5zM398 768h-136l-120 117h127l61 -47l61 47h127z" />
    <glyph glyph-name="ccaron" unicode="&#x10d;" horiz-adv-x="528" 
d="M280 457q-15 0 -29.5 -6t-26.5 -25.5t-19 -56t-7 -97.5t8 -97t20 -55.5t27 -25.5t29 -6q19 0 32.5 8t22 21t13 30.5t6.5 36.5l138 -16q-6 -32 -20 -63.5t-39.5 -57t-63.5 -41.5t-91 -16q-45 0 -86 13t-72.5 45.5t-50 87.5t-18.5 139q0 77 17 130.5t47.5 86.5t72 48
t89.5 15q57 0 95.5 -16.5t62.5 -42.5t36 -57t15 -59l-133 -20q-4 97 -75 97zM348 598h-136l-120 137h122l66 -57l66 57h122z" />
    <glyph glyph-name="Dcaron" unicode="&#x10e;" horiz-adv-x="646" 
d="M267 720q64 0 122 -15.5t101.5 -56t69.5 -110t26 -178.5t-26 -178.5t-69.5 -110t-101 -56t-120.5 -15.5h-189v720h187zM230 612v-503h39q30 0 59.5 9.5t53 36.5t38 76t14.5 129q0 79 -15 128.5t-38.5 77t-53.5 37t-60 9.5h-37zM373 768h-136l-120 117h127l61 -47l61 47
h127z" />
    <glyph glyph-name="dcaron" unicode="&#x10f;" horiz-adv-x="677" 
d="M53 271q0 149 49 216.5t143 67.5q36 0 62.5 -11.5t45.5 -30.5v222h140v-735h-88l-38 66q-25 -35 -61 -55.5t-90 -20.5q-30 0 -59 12t-52 43.5t-37.5 86t-14.5 139.5zM274 96q23 0 42.5 9.5t36.5 23.5v306q-14 11 -30.5 17.5t-36.5 6.5q-23 0 -40.5 -7t-29 -28t-17.5 -59
t-6 -99q0 -54 6.5 -87.5t18 -51.5t26 -24.5t30.5 -6.5zM677 617l-59 -101h-70l37 100h-42v120h134v-119z" />
    <glyph glyph-name="Dcroat" unicode="&#x110;" horiz-adv-x="656" 
d="M90 336h-60v110h60v274h187q64 0 122 -15.5t101.5 -56t69.5 -110t26 -178.5t-26 -178.5t-69.5 -110t-101 -56t-120.5 -15.5h-189v336zM240 336v-227h39q30 0 59.5 9.5t53 36.5t38 76t14.5 129q0 79 -15 128.5t-38.5 77t-53.5 37t-60 9.5h-37v-166h125v-110h-125z" />
    <glyph glyph-name="dcroat" unicode="&#x111;" horiz-adv-x="564" 
d="M53 271q0 149 49 216.5t143 67.5q36 0 62.5 -11.5t45.5 -30.5v82h-177v90h177v50h140v-50h51v-90h-51v-595h-88l-38 66q-25 -35 -61 -55.5t-90 -20.5q-30 0 -59 12t-52 43.5t-37.5 86t-14.5 139.5zM274 96q23 0 42.5 9.5t36.5 23.5v306q-14 11 -30.5 17.5t-36.5 6.5
q-23 0 -40.5 -7t-29 -28t-17.5 -59t-6 -99q0 -54 6.5 -87.5t18 -51.5t26 -24.5t30.5 -6.5z" />
    <glyph glyph-name="Emacron" unicode="&#x112;" horiz-adv-x="515" 
d="M435 309h-205v-196h235v-113h-385v720h385v-115h-235v-188h205v-108zM126 787v101h300v-101h-300z" />
    <glyph glyph-name="emacron" unicode="&#x113;" horiz-adv-x="546" 
d="M287 91q34 0 53.5 19t25.5 48l127 -20q-8 -27 -24 -53.5t-42 -47.5t-62.5 -34t-85.5 -13q-46 0 -87 15t-72 48t-49 86.5t-18 130.5q0 79 17.5 133.5t48.5 88t72 48.5t88 15q64 0 106 -21.5t67.5 -63.5t36 -102.5t10.5 -138.5h-303q3 -42 11.5 -69t20.5 -42.5t27 -21
t32 -5.5zM283 465q-17 0 -32 -5t-27 -20.5t-20 -44t-10 -74.5h174q-1 42 -7.5 70t-18 44.5t-26.5 23t-33 6.5zM133 634v101h300v-101h-300z" />
    <glyph glyph-name="Ebreve" unicode="&#x114;" horiz-adv-x="515" 
d="M435 309h-205v-196h235v-113h-385v720h385v-115h-235v-188h205v-108zM274 834q20 0 35 11t21 40h119q-6 -38 -21.5 -63t-39 -41t-52.5 -22.5t-62 -6.5t-62 6.5t-52.5 22.5t-39 41t-21.5 63h119q6 -29 21 -40t35 -11z" />
    <glyph glyph-name="ebreve" unicode="&#x115;" horiz-adv-x="546" 
d="M287 91q34 0 53.5 19t25.5 48l127 -20q-8 -27 -24 -53.5t-42 -47.5t-62.5 -34t-85.5 -13q-46 0 -87 15t-72 48t-49 86.5t-18 130.5q0 79 17.5 133.5t48.5 88t72 48.5t88 15q64 0 106 -21.5t67.5 -63.5t36 -102.5t10.5 -138.5h-303q3 -42 11.5 -69t20.5 -42.5t27 -21
t32 -5.5zM283 465q-17 0 -32 -5t-27 -20.5t-20 -44t-10 -74.5h174q-1 42 -7.5 70t-18 44.5t-26.5 23t-33 6.5zM284 592q-33 0 -62 7.5t-52 24.5t-39 44.5t-22 66.5h119q5 -33 20.5 -47t35.5 -14t35.5 14t20.5 47h119q-6 -39 -22 -66.5t-39 -44.5t-52 -24.5t-62 -7.5z" />
    <glyph glyph-name="Edotaccent" unicode="&#x116;" horiz-adv-x="515" 
d="M435 309h-205v-196h235v-113h-385v720h385v-115h-235v-188h205v-108zM198 774v115h152v-115h-152z" />
    <glyph glyph-name="edotaccent" unicode="&#x117;" horiz-adv-x="546" 
d="M287 91q34 0 53.5 19t25.5 48l127 -20q-8 -27 -24 -53.5t-42 -47.5t-62.5 -34t-85.5 -13q-46 0 -87 15t-72 48t-49 86.5t-18 130.5q0 79 17.5 133.5t48.5 88t72 48.5t88 15q64 0 106 -21.5t67.5 -63.5t36 -102.5t10.5 -138.5h-303q3 -42 11.5 -69t20.5 -42.5t27 -21
t32 -5.5zM283 465q-17 0 -32 -5t-27 -20.5t-20 -44t-10 -74.5h174q-1 42 -7.5 70t-18 44.5t-26.5 23t-33 6.5zM207 617v125h152v-125h-152z" />
    <glyph glyph-name="Eogonek" unicode="&#x118;" horiz-adv-x="515" 
d="M435 309h-205v-196h235v-113h-35q-38 -19 -63 -43t-25 -56q0 -22 12 -32.5t32 -10.5q18 0 58 14l21 -84q-26 -14 -50.5 -21t-53.5 -7q-69 0 -104 33.5t-35 93.5q0 17 7.5 34t20.5 32t31.5 27.5t39.5 19.5h-241v720h385v-115h-235v-188h205v-108z" />
    <glyph glyph-name="eogonek" unicode="&#x119;" horiz-adv-x="546" 
d="M448 -212q-26 -14 -50.5 -21t-53.5 -7q-69 0 -104 33.5t-35 93.5q0 30 14.5 56.5t37.5 47.5q-42 3 -79 19.5t-65 50t-44 85t-16 124.5q0 79 17.5 133.5t48.5 88t72 48.5t88 15q64 0 106 -21.5t67.5 -63.5t36 -102.5t10.5 -138.5h-303q3 -42 11.5 -69t20.5 -42.5t27 -21
t32 -5.5q34 0 53.5 19t25.5 48l127 -20q-11 -36 -36.5 -70.5t-70.5 -55.5q-30 -25 -46.5 -53t-16.5 -58q0 -22 13 -32.5t33 -10.5q18 0 58 14zM283 465q-17 0 -32 -5t-27 -20.5t-20 -44t-10 -74.5h174q-1 42 -7.5 70t-18 44.5t-26.5 23t-33 6.5z" />
    <glyph glyph-name="Ecaron" unicode="&#x11a;" horiz-adv-x="515" 
d="M435 309h-205v-196h235v-113h-385v720h385v-115h-235v-188h205v-108zM343 768h-136l-120 117h127l61 -47l61 47h127z" />
    <glyph glyph-name="ecaron" unicode="&#x11b;" horiz-adv-x="546" 
d="M287 91q34 0 53.5 19t25.5 48l127 -20q-8 -27 -24 -53.5t-42 -47.5t-62.5 -34t-85.5 -13q-46 0 -87 15t-72 48t-49 86.5t-18 130.5q0 79 17.5 133.5t48.5 88t72 48.5t88 15q64 0 106 -21.5t67.5 -63.5t36 -102.5t10.5 -138.5h-303q3 -42 11.5 -69t20.5 -42.5t27 -21
t32 -5.5zM283 465q-17 0 -32 -5t-27 -20.5t-20 -44t-10 -74.5h174q-1 42 -7.5 70t-18 44.5t-26.5 23t-33 6.5zM350 598h-136l-120 137h122l66 -57l66 57h122z" />
    <glyph glyph-name="Gcircumflex" unicode="&#x11c;" horiz-adv-x="626" 
d="M552 0h-75l-29 53q-23 -26 -60 -47t-88 -21q-43 0 -85.5 15.5t-77 57.5t-56 115t-21.5 187q0 112 23.5 185t61.5 115t87.5 58.5t101.5 16.5q47 0 84.5 -13.5t65.5 -36.5t47 -54.5t30 -67.5l-137 -17q-10 34 -30.5 58t-61.5 24q-24 0 -44.5 -12t-36.5 -42.5t-25 -82.5
t-9 -131q0 -80 7 -131.5t21.5 -81.5t35.5 -41.5t48 -11.5q32 0 56 14t38 34v172h-86v104h215v-418zM521 768h-130l-58 50l-57 -50h-131l120 117h136z" />
    <glyph glyph-name="gcircumflex" unicode="&#x11d;" horiz-adv-x="542" 
d="M519 506l-103 7q33 -23 53.5 -60.5t20.5 -89.5q0 -42 -17 -76.5t-47 -59t-70.5 -37.5t-86.5 -13t-89 13q-5 -17 -5 -25q0 -19 21.5 -27.5t82.5 -12.5q119 -8 177.5 -45t58.5 -120q0 -78 -65.5 -120t-186.5 -42q-109 0 -164 37t-55 100q0 35 17.5 60.5t47.5 45.5
q-35 29 -35 80q0 61 53 93q-35 22 -57.5 58.5t-22.5 90.5t19 90.5t50 59t71.5 32.5t83.5 10q18 0 36 -3v38l212 24v-108zM185 363q0 -29 9 -47.5t21.5 -29.5t27 -15t26.5 -4t26 4t27 14.5t21.5 29t8.5 48.5q0 28 -7 47.5t-18.5 31.5t-26.5 17.5t-31 5.5t-31 -5t-27 -16.5
t-19 -31t-7 -49.5zM251 0q-22 2 -40.5 4t-35.5 7q-5 -11 -8.5 -22.5t-3.5 -23.5q0 -85 104 -85q54 0 79 16.5t25 45.5t-27 41t-93 17zM457 619h-130l-58 50l-57 -50h-131l120 117h136z" />
    <glyph glyph-name="Gbreve" unicode="&#x11e;" horiz-adv-x="626" 
d="M552 0h-75l-29 53q-23 -26 -60 -47t-88 -21q-43 0 -85.5 15.5t-77 57.5t-56 115t-21.5 187q0 112 23.5 185t61.5 115t87.5 58.5t101.5 16.5q47 0 84.5 -13.5t65.5 -36.5t47 -54.5t30 -67.5l-137 -17q-10 34 -30.5 58t-61.5 24q-24 0 -44.5 -12t-36.5 -42.5t-25 -82.5
t-9 -131q0 -80 7 -131.5t21.5 -81.5t35.5 -41.5t48 -11.5q32 0 56 14t38 34v172h-86v104h215v-418zM332 834q20 0 35 11t21 40h119q-6 -38 -21.5 -63t-39 -41t-52.5 -22.5t-62 -6.5t-62 6.5t-52.5 22.5t-39 41t-21.5 63h119q6 -29 21 -40t35 -11z" />
    <glyph glyph-name="gbreve" unicode="&#x11f;" horiz-adv-x="542" 
d="M519 506l-103 7q33 -23 53.5 -60.5t20.5 -89.5q0 -42 -17 -76.5t-47 -59t-70.5 -37.5t-86.5 -13t-89 13q-5 -17 -5 -25q0 -19 21.5 -27.5t82.5 -12.5q119 -8 177.5 -45t58.5 -120q0 -78 -65.5 -120t-186.5 -42q-109 0 -164 37t-55 100q0 35 17.5 60.5t47.5 45.5
q-35 29 -35 80q0 61 53 93q-35 22 -57.5 58.5t-22.5 90.5t19 90.5t50 59t71.5 32.5t83.5 10q18 0 36 -3v38l212 24v-108zM185 363q0 -29 9 -47.5t21.5 -29.5t27 -15t26.5 -4t26 4t27 14.5t21.5 29t8.5 48.5q0 28 -7 47.5t-18.5 31.5t-26.5 17.5t-31 5.5t-31 -5t-27 -16.5
t-19 -31t-7 -49.5zM251 0q-22 2 -40.5 4t-35.5 7q-5 -11 -8.5 -22.5t-3.5 -23.5q0 -85 104 -85q54 0 79 16.5t25 45.5t-27 41t-93 17zM271 685q20 0 35 11t21 40h119q-6 -38 -21.5 -63t-39 -41t-52.5 -22.5t-62 -6.5t-62 6.5t-52.5 22.5t-39 41t-21.5 63h119q6 -29 21 -40
t35 -11z" />
    <glyph glyph-name="Gdotaccent" unicode="&#x120;" horiz-adv-x="626" 
d="M552 0h-75l-29 53q-23 -26 -60 -47t-88 -21q-43 0 -85.5 15.5t-77 57.5t-56 115t-21.5 187q0 112 23.5 185t61.5 115t87.5 58.5t101.5 16.5q47 0 84.5 -13.5t65.5 -36.5t47 -54.5t30 -67.5l-137 -17q-10 34 -30.5 58t-61.5 24q-24 0 -44.5 -12t-36.5 -42.5t-25 -82.5
t-9 -131q0 -80 7 -131.5t21.5 -81.5t35.5 -41.5t48 -11.5q32 0 56 14t38 34v172h-86v104h215v-418zM256 770v115h152v-115h-152z" />
    <glyph glyph-name="gdotaccent" unicode="&#x121;" horiz-adv-x="542" 
d="M519 506l-103 7q33 -23 53.5 -60.5t20.5 -89.5q0 -42 -17 -76.5t-47 -59t-70.5 -37.5t-86.5 -13t-89 13q-5 -17 -5 -25q0 -19 21.5 -27.5t82.5 -12.5q119 -8 177.5 -45t58.5 -120q0 -78 -65.5 -120t-186.5 -42q-109 0 -164 37t-55 100q0 35 17.5 60.5t47.5 45.5
q-35 29 -35 80q0 61 53 93q-35 22 -57.5 58.5t-22.5 90.5t19 90.5t50 59t71.5 32.5t83.5 10q18 0 36 -3v38l212 24v-108zM185 363q0 -29 9 -47.5t21.5 -29.5t27 -15t26.5 -4t26 4t27 14.5t21.5 29t8.5 48.5q0 28 -7 47.5t-18.5 31.5t-26.5 17.5t-31 5.5t-31 -5t-27 -16.5
t-19 -31t-7 -49.5zM251 0q-22 2 -40.5 4t-35.5 7q-5 -11 -8.5 -22.5t-3.5 -23.5q0 -85 104 -85q54 0 79 16.5t25 45.5t-27 41t-93 17zM194 621v115h152v-115h-152z" />
    <glyph glyph-name="Gcommaaccent" unicode="&#x122;" horiz-adv-x="626" 
d="M552 0h-75l-29 53q-23 -26 -60 -47t-88 -21q-43 0 -85.5 15.5t-77 57.5t-56 115t-21.5 187q0 112 23.5 185t61.5 115t87.5 58.5t101.5 16.5q47 0 84.5 -13.5t65.5 -36.5t47 -54.5t30 -67.5l-137 -17q-10 34 -30.5 58t-61.5 24q-24 0 -44.5 -12t-36.5 -42.5t-25 -82.5
t-9 -131q0 -80 7 -131.5t21.5 -81.5t35.5 -41.5t48 -11.5q32 0 56 14t38 34v172h-86v104h215v-418zM402 -169l-59 -101h-70l37 100h-42v120h134v-119z" />
    <glyph glyph-name="gcommaaccent" unicode="&#x123;" horiz-adv-x="542" 
d="M519 506l-103 7q33 -23 53.5 -60.5t20.5 -89.5q0 -42 -17 -76.5t-47 -59t-70.5 -37.5t-86.5 -13t-89 13q-5 -17 -5 -25q0 -19 21.5 -27.5t82.5 -12.5q119 -8 177.5 -45t58.5 -120q0 -78 -65.5 -120t-186.5 -42q-109 0 -164 37t-55 100q0 35 17.5 60.5t47.5 45.5
q-35 29 -35 80q0 61 53 93q-35 22 -57.5 58.5t-22.5 90.5t19 90.5t50 59t71.5 32.5t83.5 10q18 0 36 -3v38l212 24v-108zM185 363q0 -29 9 -47.5t21.5 -29.5t27 -15t26.5 -4t26 4t27 14.5t21.5 29t8.5 48.5q0 28 -7 47.5t-18.5 31.5t-26.5 17.5t-31 5.5t-31 -5t-27 -16.5
t-19 -31t-7 -49.5zM251 0q-22 2 -40.5 4t-35.5 7q-5 -11 -8.5 -22.5t-3.5 -23.5q0 -85 104 -85q54 0 79 16.5t25 45.5t-27 41t-93 17zM194 719l59 101h70l-37 -100h42v-120h-134v119z" />
    <glyph glyph-name="Hcircumflex" unicode="&#x124;" horiz-adv-x="655" 
d="M575 720v-720h-150v310h-195v-310h-150v720h150v-302h195v302h150zM516 768h-130l-58 50l-57 -50h-131l120 117h136z" />
    <glyph glyph-name="hcircumflex" unicode="&#x125;" horiz-adv-x="583" 
d="M70 735h140v-240q25 29 58 44.5t78 15.5q37 0 67.5 -11t52.5 -34.5t34.5 -60.5t12.5 -89v-360h-140v364q0 45 -15.5 67t-60.5 22q-26 0 -47.5 -11.5t-39.5 -28.5v-413h-140v735zM492 768h-130l-58 50l-57 -50h-131l120 117h136z" />
    <glyph glyph-name="Hbar" unicode="&#x126;" horiz-adv-x="664" 
d="M580 720v-83h59v-96h-59v-541h-150v310h-195v-310h-150v541h-60v96h60v83h150v-83h195v83h150zM235 418h195v123h-195v-123z" />
    <glyph glyph-name="hbar" unicode="&#x127;" horiz-adv-x="588" 
d="M75 595h-55v90h55v50h140v-50h173v-90h-173v-100q25 29 58 44.5t78 15.5q37 0 67.5 -11t52.5 -34.5t34.5 -60.5t12.5 -89v-360h-140v364q0 45 -15.5 67t-60.5 22q-26 0 -47.5 -11.5t-39.5 -28.5v-413h-140v595z" />
    <glyph glyph-name="Itilde" unicode="&#x128;" horiz-adv-x="310" 
d="M230 720v-720h-150v720h150zM219 760q-24 0 -41 6t-31 13t-27.5 13t-30.5 6t-41.5 -9.5t-46.5 -26.5v100q22 16 46.5 24.5t45.5 8.5q24 0 41 -6t31 -13t27.5 -13t30.5 -6t41.5 9.5t46.5 26.5v-100q-22 -16 -46.5 -24.5t-45.5 -8.5z" />
    <glyph glyph-name="itilde" unicode="&#x129;" horiz-adv-x="280" 
d="M70 0v540h140v-540h-140zM204 610q-24 0 -41 6t-31 13t-27.5 13t-30.5 6t-41.5 -9.5t-46.5 -26.5v100q22 16 46.5 24.5t45.5 8.5q24 0 41 -6t31 -13t27.5 -13t30.5 -6t41.5 9.5t46.5 26.5v-100q-22 -16 -46.5 -24.5t-45.5 -8.5z" />
    <glyph glyph-name="Imacron" unicode="&#x12a;" horiz-adv-x="310" 
d="M230 720v-720h-150v720h150zM6 784v101h300v-101h-300z" />
    <glyph glyph-name="imacron" unicode="&#x12b;" horiz-adv-x="280" 
d="M70 0v540h140v-540h-140zM-9 634v101h300v-101h-300z" />
    <glyph glyph-name="Ibreve" unicode="&#x12c;" horiz-adv-x="310" 
d="M230 720v-720h-150v720h150zM156 834q20 0 35 11t21 40h119q-6 -38 -21.5 -63t-39 -41t-52.5 -22.5t-62 -6.5t-62 6.5t-52.5 22.5t-39 41t-21.5 63h119q6 -29 21 -40t35 -11z" />
    <glyph glyph-name="ibreve" unicode="&#x12d;" horiz-adv-x="280" 
d="M70 0v540h140v-540h-140zM141 592q-33 0 -62 7.5t-52 24.5t-39 44.5t-22 66.5h119q5 -33 20.5 -47t35.5 -14t35.5 14t20.5 47h119q-6 -39 -22 -66.5t-39 -44.5t-52 -24.5t-62 -7.5z" />
    <glyph glyph-name="Iogonek" unicode="&#x12e;" horiz-adv-x="310" 
d="M294 -212q-26 -14 -50.5 -21t-53.5 -7q-69 0 -104 33.5t-35 93.5q0 33 18.5 63t47.5 50h-37v720h150v-720q-2 -2 -11.5 -10t-20 -21t-19 -30.5t-8.5 -37.5q0 -22 12 -32.5t32 -10.5q18 0 58 14z" />
    <glyph glyph-name="iogonek" unicode="&#x12f;" horiz-adv-x="280" 
d="M210 0q-3 -2 -13 -10t-20.5 -20.5t-19 -30t-8.5 -38.5q0 -22 13 -32.5t33 -10.5q18 0 58 14l21 -84q-26 -14 -50.5 -21t-53.5 -7q-69 0 -104 33.5t-35 93.5q0 37 19 64t47 49h-27v540h140v-540zM64 610v125h152v-125h-152z" />
    <glyph glyph-name="Idotaccent" unicode="&#x130;" horiz-adv-x="310" 
d="M230 720v-720h-150v720h150zM79 770v115h152v-115h-152z" />
    <glyph glyph-name="dotlessi" unicode="&#x131;" horiz-adv-x="280" 
d="M70 0v540h140v-540h-140z" />
    <glyph glyph-name="IJ" unicode="&#x132;" horiz-adv-x="689" 
d="M230 720v-720h-150v720h150zM464 720h150v-528q0 -42 -8.5 -79.5t-30.5 -66t-60.5 -45t-97.5 -16.5q-28 0 -58.5 4.5t-48.5 10.5v112q17 -5 37 -8t34 -3q18 0 33 3.5t26.5 14t17.5 30t6 51.5v520z" />
    <glyph glyph-name="ij" unicode="&#x133;" horiz-adv-x="564" 
d="M65 611v125h152v-125h-152zM237 -50q13 -3 29.5 -5.5t28.5 -2.5q29 0 43 12t14 45v541h140v-544q0 -79 -42.5 -120t-118.5 -41q-23 0 -49.5 4.5t-44.5 10.5v100zM345 610v125h152v-125h-152zM71 0v540h140v-540h-140z" />
    <glyph glyph-name="Jcircumflex" unicode="&#x134;" horiz-adv-x="389" 
d="M164 720h150v-528q0 -42 -8.5 -79.5t-30.5 -66t-60.5 -45t-97.5 -16.5q-28 0 -58.5 4.5t-48.5 10.5v112q17 -5 37 -8t34 -3q18 0 33 3.5t26.5 14t17.5 30t6 51.5v520zM426 768h-130l-58 50l-57 -50h-131l120 117h136z" />
    <glyph glyph-name="jcircumflex" unicode="&#x135;" horiz-adv-x="282" 
d="M-45 -50q13 -3 29.5 -5.5t28.5 -2.5q29 0 43 12t14 45v541h140v-544q0 -79 -42.5 -120t-118.5 -41q-23 0 -49.5 4.5t-44.5 10.5v100zM326 598h-122l-66 57l-66 -57h-122l120 137h136z" />
    <glyph glyph-name="Kcommaaccent" unicode="&#x136;" horiz-adv-x="619" 
d="M426 0l-196 313v-313h-150v720h150v-300l183 300h158l-216 -337l254 -383h-183zM398 -152l-59 -101h-70l37 100h-42v120h134v-119z" />
    <glyph glyph-name="kcommaaccent" unicode="&#x137;" horiz-adv-x="557" 
d="M70 0v735h140v-402l159 207h150l-185 -226l213 -314h-167l-170 262v-262h-140zM358 -169l-59 -101h-70l37 100h-42v120h134v-119z" />
    <glyph glyph-name="kgreenlandic" unicode="&#x138;" horiz-adv-x="557" 
d="M70 0v540h140v-207l159 207h150l-185 -226l213 -314h-167l-170 262v-262h-140z" />
    <glyph glyph-name="Lacute" unicode="&#x139;" horiz-adv-x="502" 
d="M230 720v-602h257v-118h-407v720h150zM145 888h152l-130 -117h-107z" />
    <glyph glyph-name="lacute" unicode="&#x13a;" horiz-adv-x="280" 
d="M136 885h152l-130 -117h-107zM70 735h140v-735h-140v735z" />
    <glyph glyph-name="Lcommaaccent" unicode="&#x13b;" horiz-adv-x="502" 
d="M230 720v-602h257v-118h-407v720h150zM354 -169l-59 -101h-70l37 100h-42v120h134v-119z" />
    <glyph glyph-name="lcommaaccent" unicode="&#x13c;" horiz-adv-x="280" 
d="M70 735h140v-735h-140v735zM207 -169l-59 -101h-70l37 100h-42v120h134v-119z" />
    <glyph glyph-name="Lcaron" unicode="&#x13d;" horiz-adv-x="502" 
d="M230 720v-602h257v-118h-407v720h150zM414 601l-59 -101h-70l37 100h-42v120h134v-119z" />
    <glyph glyph-name="lcaron" unicode="&#x13e;" horiz-adv-x="384" 
d="M70 735h140v-735h-140v735zM384 617l-59 -101h-70l37 100h-42v120h134v-119z" />
    <glyph glyph-name="Ldot" unicode="&#x13f;" horiz-adv-x="502" 
d="M230 720v-602h257v-118h-407v720h150zM271 322v125h152v-125h-152z" />
    <glyph glyph-name="ldot" unicode="&#x140;" horiz-adv-x="404" 
d="M249 311v135h145v-135h-145zM70 735h140v-735h-140v735z" />
    <glyph glyph-name="Lslash" unicode="&#x141;" horiz-adv-x="512" 
d="M240 720v-228l130 78v-125l-130 -78v-249h257v-118h-407v277l-60 -36v125l60 36v318h150z" />
    <glyph glyph-name="lslash" unicode="&#x142;" horiz-adv-x="300" 
d="M80 285l-55 -37v120l55 37v330h140v-235l55 38v-120l-55 -38v-380h-140v285z" />
    <glyph glyph-name="Nacute" unicode="&#x143;" horiz-adv-x="668" 
d="M588 720v-720h-178l-204 523v-523h-126v720h191l192 -516v516h125zM352 885h152l-130 -117h-107z" />
    <glyph glyph-name="nacute" unicode="&#x144;" horiz-adv-x="582" 
d="M70 0v540h95l30 -63q26 37 62.5 57.5t87.5 20.5q37 0 67.5 -11t52.5 -34.5t34.5 -60.5t12.5 -89v-360h-140v364q0 45 -15.5 67t-60.5 22q-26 0 -47 -11t-39 -28v-414h-140zM310 735h157l-152 -137h-105z" />
    <glyph glyph-name="Ncommaaccent" unicode="&#x145;" horiz-adv-x="668" 
d="M588 720v-720h-178l-204 523v-523h-126v720h191l192 -516v516h125zM405 -169l-59 -101h-70l37 100h-42v120h134v-119z" />
    <glyph glyph-name="ncommaaccent" unicode="&#x146;" horiz-adv-x="582" 
d="M70 0v540h95l30 -63q26 37 62.5 57.5t87.5 20.5q37 0 67.5 -11t52.5 -34.5t34.5 -60.5t12.5 -89v-360h-140v364q0 45 -15.5 67t-60.5 22q-26 0 -47 -11t-39 -28v-414h-140zM359 -169l-59 -101h-70l37 100h-42v120h134v-119z" />
    <glyph glyph-name="Ncaron" unicode="&#x147;" horiz-adv-x="668" 
d="M588 720v-720h-178l-204 523v-523h-126v720h191l192 -516v516h125zM405 768h-136l-120 117h127l61 -47l61 47h127z" />
    <glyph glyph-name="ncaron" unicode="&#x148;" horiz-adv-x="582" 
d="M70 0v540h95l30 -63q26 37 62.5 57.5t87.5 20.5q37 0 67.5 -11t52.5 -34.5t34.5 -60.5t12.5 -89v-360h-140v364q0 45 -15.5 67t-60.5 22q-26 0 -47 -11t-39 -28v-414h-140zM362 598h-136l-120 137h122l66 -57l66 57h122z" />
    <glyph glyph-name="napostrophe" unicode="&#x149;" horiz-adv-x="656" 
d="M144 0v540h95l30 -63q26 37 62.5 57.5t87.5 20.5q37 0 67.5 -11t52.5 -34.5t34.5 -60.5t12.5 -89v-360h-140v364q0 45 -15.5 67t-60.5 22q-26 0 -47 -11t-39 -28v-414h-140zM135 617l-59 -101h-70l37 100h-42v120h134v-119z" />
    <glyph glyph-name="Eng" unicode="&#x14a;" horiz-adv-x="668" 
d="M588 720v-720q0 -87 -32.5 -136t-116.5 -49q-30 0 -61 4.5t-49 10.5v104q15 -4 34.5 -5.5t27.5 -1.5q33 0 45 17.5t12 55.5h-38l-204 523v-523h-126v720h191l192 -516v516h125z" />
    <glyph glyph-name="eng" unicode="&#x14b;" horiz-adv-x="582" 
d="M512 0q0 -43 -6 -76.5t-20.5 -56.5t-39.5 -35t-63 -12q-15 0 -32.5 1t-34 3.5t-30.5 5t-23 5.5v104q15 -4 31.5 -5.5t24.5 -1.5q30 0 41.5 15t11.5 53v364q0 45 -15.5 67t-60.5 22q-26 0 -47 -11t-39 -28v-414h-140v540h95l30 -63q26 37 62.5 57.5t87.5 20.5
q37 0 67.5 -11t52.5 -34.5t34.5 -60.5t12.5 -89v-360z" />
    <glyph glyph-name="Omacron" unicode="&#x14c;" horiz-adv-x="683" 
d="M60 360q0 105 21.5 176.5t59 115.5t89 63.5t111.5 19.5t111.5 -19.5t89.5 -63.5t59.5 -115.5t21.5 -176.5t-21.5 -176.5t-59 -115.5t-89 -63.5t-112.5 -19.5t-112.5 19.5t-89 63.5t-58.5 115.5t-21 176.5zM213 360q0 -76 9 -127t25.5 -81.5t40.5 -43.5t53 -13t53 13
t41 44t26 82t9 126t-10 126t-27 82t-41 44.5t-51 13.5t-50.5 -13t-41 -44t-27 -82t-9.5 -127zM193 784v101h300v-101h-300z" />
    <glyph glyph-name="omacron" unicode="&#x14d;" horiz-adv-x="585" 
d="M53 270q0 83 21 138t55 87.5t77 46t87 13.5t87 -13t76.5 -45.5t54.5 -87.5t21 -139t-21 -138t-54.5 -85.5t-76.5 -44t-87 -12.5t-87 12.5t-77 44.5t-55 86t-21 137zM197 270q0 -57 6.5 -92.5t19.5 -56t30.5 -27.5t40.5 -7q22 0 40 7t30 27t18.5 55.5t6.5 93.5t-6.5 94.5
t-19 57.5t-30.5 28.5t-40 7.5q-23 0 -40.5 -8t-30 -29t-19 -57.5t-6.5 -93.5zM145 634v101h300v-101h-300z" />
    <glyph glyph-name="Obreve" unicode="&#x14e;" horiz-adv-x="683" 
d="M60 360q0 105 21.5 176.5t59 115.5t89 63.5t111.5 19.5t111.5 -19.5t89.5 -63.5t59.5 -115.5t21.5 -176.5t-21.5 -176.5t-59 -115.5t-89 -63.5t-112.5 -19.5t-112.5 19.5t-89 63.5t-58.5 115.5t-21 176.5zM213 360q0 -76 9 -127t25.5 -81.5t40.5 -43.5t53 -13t53 13
t41 44t26 82t9 126t-10 126t-27 82t-41 44.5t-51 13.5t-50.5 -13t-41 -44t-27 -82t-9.5 -127zM341 834q20 0 35 11t21 40h119q-6 -38 -21.5 -63t-39 -41t-52.5 -22.5t-62 -6.5t-62 6.5t-52.5 22.5t-39 41t-21.5 63h119q6 -29 21 -40t35 -11z" />
    <glyph glyph-name="obreve" unicode="&#x14f;" horiz-adv-x="585" 
d="M53 270q0 83 21 138t55 87.5t77 46t87 13.5t87 -13t76.5 -45.5t54.5 -87.5t21 -139t-21 -138t-54.5 -85.5t-76.5 -44t-87 -12.5t-87 12.5t-77 44.5t-55 86t-21 137zM197 270q0 -57 6.5 -92.5t19.5 -56t30.5 -27.5t40.5 -7q22 0 40 7t30 27t18.5 55.5t6.5 93.5t-6.5 94.5
t-19 57.5t-30.5 28.5t-40 7.5q-23 0 -40.5 -8t-30 -29t-19 -57.5t-6.5 -93.5zM294 598q-33 0 -62 7.5t-52 24.5t-39 44.5t-22 66.5h119q5 -33 20.5 -47t35.5 -14t35.5 14t20.5 47h119q-6 -39 -22 -66.5t-39 -44.5t-52 -24.5t-62 -7.5z" />
    <glyph glyph-name="Ohungarumlaut" unicode="&#x150;" horiz-adv-x="683" 
d="M60 360q0 105 21.5 176.5t59 115.5t89 63.5t111.5 19.5t111.5 -19.5t89.5 -63.5t59.5 -115.5t21.5 -176.5t-21.5 -176.5t-59 -115.5t-89 -63.5t-112.5 -19.5t-112.5 19.5t-89 63.5t-58.5 115.5t-21 176.5zM213 360q0 -76 9 -127t25.5 -81.5t40.5 -43.5t53 -13t53 13
t41 44t26 82t9 126t-10 126t-27 82t-41 44.5t-51 13.5t-50.5 -13t-41 -44t-27 -82t-9.5 -127zM283 885h152l-130 -117h-107zM461 885h152l-130 -117h-107z" />
    <glyph glyph-name="ohungarumlaut" unicode="&#x151;" horiz-adv-x="585" 
d="M53 270q0 83 21 138t55 87.5t77 46t87 13.5t87 -13t76.5 -45.5t54.5 -87.5t21 -139t-21 -138t-54.5 -85.5t-76.5 -44t-87 -12.5t-87 12.5t-77 44.5t-55 86t-21 137zM197 270q0 -57 6.5 -92.5t19.5 -56t30.5 -27.5t40.5 -7q22 0 40 7t30 27t18.5 55.5t6.5 93.5t-6.5 94.5
t-19 57.5t-30.5 28.5t-40 7.5q-23 0 -40.5 -8t-30 -29t-19 -57.5t-6.5 -93.5zM229 735h152l-147 -137h-105zM407 735h152l-147 -137h-105z" />
    <glyph glyph-name="OE" unicode="&#x152;" horiz-adv-x="918" 
d="M838 309h-222q-3 -63 -15 -111.5t-31 -84.5h298v-113h-427q-47 -15 -100 -15q-61 0 -112.5 19.5t-89 63.5t-58.5 115.5t-21 176.5t21.5 176.5t59 115.5t89 63.5t111.5 19.5q52 0 99 -15h428v-115h-298q19 -35 30.5 -81.5t15.5 -106.5h222v-108zM213 360q0 -76 9 -127
t25.5 -81.5t40.5 -43.5t53 -13t53 13t41 44t26 82t9 126t-10 126t-27 82t-41 44.5t-51 13.5t-50.5 -13t-41 -44t-27 -82t-9.5 -127z" />
    <glyph glyph-name="oe" unicode="&#x153;" horiz-adv-x="882" 
d="M623 91q34 0 53.5 19t25.5 48l127 -20q-8 -27 -24 -53.5t-42 -47.5t-62.5 -34t-85.5 -13q-48 0 -89 17t-67 55q-29 -41 -74 -56.5t-92 -15.5q-44 0 -87 12.5t-77 44.5t-55 86t-21 137t21 138t55 87.5t77 46t87 13.5q23 0 46.5 -4t45.5 -12.5t40.5 -22.5t32.5 -35
q25 38 67 56t90 18q64 0 106 -21.5t67.5 -63.5t36 -102.5t10.5 -138.5h-303q3 -42 11.5 -69t20.5 -42.5t27 -21t32 -5.5zM197 270q0 -57 6.5 -92.5t19.5 -56t30.5 -27.5t40.5 -7q22 0 40 7t30 27t18.5 55.5t6.5 93.5t-6.5 94.5t-19 57.5t-30.5 28.5t-40 7.5q-23 0 -40.5 -8
t-30 -29t-19 -57.5t-6.5 -93.5zM619 465q-17 0 -32 -5t-27 -20.5t-20 -44t-10 -74.5h174q-1 42 -7.5 70t-18 44.5t-26.5 23t-33 6.5z" />
    <glyph glyph-name="Racute" unicode="&#x154;" horiz-adv-x="603" 
d="M419 0l-141 267h-48v-267h-150v720h198q57 0 106 -11.5t85 -38t56.5 -69.5t20.5 -107q0 -41 -9.5 -72.5t-26 -55t-39.5 -40t-50 -28.5l172 -298h-174zM230 612v-238h56q18 0 36.5 6t33.5 19.5t24.5 36.5t9.5 58q0 37 -9 60.5t-24.5 36t-35.5 17t-41 4.5h-50zM279 885h152
l-130 -117h-107z" />
    <glyph glyph-name="racute" unicode="&#x155;" horiz-adv-x="357" 
d="M70 0v540h95l30 -77q20 42 49 64.5t64 22.5q21 0 34 -4v-136q-9 3 -19 4.5t-24 1.5q-27 0 -49.5 -17.5t-39.5 -44.5v-354h-140zM239 735h157l-152 -137h-105z" />
    <glyph glyph-name="Rcommaaccent" unicode="&#x156;" horiz-adv-x="603" 
d="M419 0l-141 267h-48v-267h-150v720h198q57 0 106 -11.5t85 -38t56.5 -69.5t20.5 -107q0 -41 -9.5 -72.5t-26 -55t-39.5 -40t-50 -28.5l172 -298h-174zM230 612v-238h56q18 0 36.5 6t33.5 19.5t24.5 36.5t9.5 58q0 37 -9 60.5t-24.5 36t-35.5 17t-41 4.5h-50zM387 -153
l-59 -101h-70l37 100h-42v120h134v-119z" />
    <glyph glyph-name="rcommaaccent" unicode="&#x157;" horiz-adv-x="357" 
d="M70 0v540h95l30 -77q20 42 49 64.5t64 22.5q21 0 34 -4v-136q-9 3 -19 4.5t-24 1.5q-27 0 -49.5 -17.5t-39.5 -44.5v-354h-140zM207 -169l-59 -101h-70l37 100h-42v120h134v-119z" />
    <glyph glyph-name="Rcaron" unicode="&#x158;" horiz-adv-x="603" 
d="M419 0l-141 267h-48v-267h-150v720h198q57 0 106 -11.5t85 -38t56.5 -69.5t20.5 -107q0 -41 -9.5 -72.5t-26 -55t-39.5 -40t-50 -28.5l172 -298h-174zM230 612v-238h56q18 0 36.5 6t33.5 19.5t24.5 36.5t9.5 58q0 37 -9 60.5t-24.5 36t-35.5 17t-41 4.5h-50zM364 768
h-136l-120 117h127l61 -47l61 47h127z" />
    <glyph glyph-name="rcaron" unicode="&#x159;" horiz-adv-x="357" 
d="M114 0v540h95l30 -77q20 42 49 64.5t64 22.5q21 0 34 -4v-136q-9 3 -19 4.5t-24 1.5q-27 0 -49.5 -17.5t-39.5 -44.5v-354h-140zM326 598h-136l-120 137h122l66 -57l66 57h122z" />
    <glyph glyph-name="Sacute" unicode="&#x15a;" horiz-adv-x="587" 
d="M292 629q-36 0 -62.5 -17.5t-26.5 -58.5q0 -14 3 -26.5t13.5 -25t31.5 -25.5t58 -27q47 -18 88.5 -39t72.5 -49.5t49 -65.5t18 -88q0 -44 -13.5 -84t-43.5 -70.5t-77.5 -49t-115.5 -18.5q-65 0 -110 18.5t-74 45.5t-44 58t-19 56l141 20q2 -17 10.5 -33.5t22.5 -29
t33.5 -20t42.5 -7.5q16 0 33 4.5t31 15t22.5 27.5t8.5 43q0 29 -13 48.5t-36 34.5t-55 28.5t-71 31.5q-45 20 -75 42t-48.5 47.5t-26.5 55t-8 65.5q0 44 16.5 80.5t47.5 63t76.5 41t103.5 14.5q59 0 100.5 -16t68.5 -40.5t42 -54t21 -55.5l-139 -25q-5 33 -30 59t-67 26z
M319 885h152l-130 -117h-107z" />
    <glyph glyph-name="sacute" unicode="&#x15b;" horiz-adv-x="514" 
d="M251 -10q-47 0 -84.5 12.5t-64 32.5t-43 46t-21.5 52l135 27q5 -33 26.5 -52t53.5 -19t51 13.5t19 41.5q0 15 -6.5 25.5t-20 19t-33.5 15.5t-48 16q-37 11 -66.5 24.5t-50.5 33.5t-32 47.5t-11 66.5q0 41 15 71.5t42 51t64.5 30.5t82.5 10q48 0 83.5 -12.5t59.5 -32.5
t38.5 -44.5t20.5 -48.5l-131 -26q-5 28 -21 47t-51 19q-28 0 -45.5 -13.5t-17.5 -40.5q0 -17 7.5 -27.5t20 -17.5t30.5 -12.5t39 -12.5q34 -11 65.5 -23t55 -30t37.5 -45.5t14 -70.5q0 -45 -16 -78t-44.5 -54t-67.5 -31.5t-85 -10.5zM285 735h157l-152 -137h-105z" />
    <glyph glyph-name="Scircumflex" unicode="&#x15c;" horiz-adv-x="587" 
d="M292 629q-36 0 -62.5 -17.5t-26.5 -58.5q0 -14 3 -26.5t13.5 -25t31.5 -25.5t58 -27q47 -18 88.5 -39t72.5 -49.5t49 -65.5t18 -88q0 -44 -13.5 -84t-43.5 -70.5t-77.5 -49t-115.5 -18.5q-65 0 -110 18.5t-74 45.5t-44 58t-19 56l141 20q2 -17 10.5 -33.5t22.5 -29
t33.5 -20t42.5 -7.5q16 0 33 4.5t31 15t22.5 27.5t8.5 43q0 29 -13 48.5t-36 34.5t-55 28.5t-71 31.5q-45 20 -75 42t-48.5 47.5t-26.5 55t-8 65.5q0 44 16.5 80.5t47.5 63t76.5 41t103.5 14.5q59 0 100.5 -16t68.5 -40.5t42 -54t21 -55.5l-139 -25q-5 33 -30 59t-67 26z
M477 767h-130l-58 50l-57 -50h-131l120 117h136z" />
    <glyph glyph-name="scircumflex" unicode="&#x15d;" horiz-adv-x="514" 
d="M251 -10q-47 0 -84.5 12.5t-64 32.5t-43 46t-21.5 52l135 27q5 -33 26.5 -52t53.5 -19t51 13.5t19 41.5q0 15 -6.5 25.5t-20 19t-33.5 15.5t-48 16q-37 11 -66.5 24.5t-50.5 33.5t-32 47.5t-11 66.5q0 41 15 71.5t42 51t64.5 30.5t82.5 10q48 0 83.5 -12.5t59.5 -32.5
t38.5 -44.5t20.5 -48.5l-131 -26q-5 28 -21 47t-51 19q-28 0 -45.5 -13.5t-17.5 -40.5q0 -17 7.5 -27.5t20 -17.5t30.5 -12.5t39 -12.5q34 -11 65.5 -23t55 -30t37.5 -45.5t14 -70.5q0 -45 -16 -78t-44.5 -54t-67.5 -31.5t-85 -10.5zM449 598h-122l-66 57l-66 -57h-122
l120 137h136z" />
    <glyph glyph-name="Scedilla" unicode="&#x15e;" horiz-adv-x="587" 
d="M400 -142q0 -52 -35 -81.5t-102 -29.5q-31 0 -59.5 9t-51.5 24l37 71q9 -6 25 -12t34 -6q23 0 32 8.5t9 20.5q0 21 -19 30.5t-55 13.5l21 83q-51 7 -86.5 27t-59 45t-35.5 52.5t-15 49.5l141 20q2 -17 10.5 -33.5t22.5 -29t33.5 -20t42.5 -7.5q16 0 33 4.5t31 15
t22.5 27.5t8.5 43q0 29 -13 48.5t-36 34.5t-55 28.5t-71 31.5q-45 20 -75 42t-48.5 47.5t-26.5 55t-8 65.5q0 44 16.5 80.5t47.5 63t76.5 41t103.5 14.5q59 0 100.5 -16t68.5 -40.5t42 -54t21 -55.5l-139 -25q-5 33 -30 59t-67 26q-36 0 -62.5 -17.5t-26.5 -58.5
q0 -14 3 -26.5t13.5 -25t31.5 -25.5t58 -27q47 -18 88.5 -39t72.5 -49.5t49 -65.5t18 -88q0 -40 -11 -77t-36 -66.5t-64 -49.5t-94 -26l-4 -39q38 -11 55 -36t17 -55z" />
    <glyph glyph-name="scedilla" unicode="&#x15f;" horiz-adv-x="514" 
d="M377 -132q0 -52 -33.5 -81t-100.5 -29q-31 0 -59.5 9t-51.5 24l37 68q9 -6 25 -12t34 -6q23 0 33 9.5t10 21.5q0 21 -20 31t-56 14l19 75q-39 4 -69.5 18t-53 33.5t-36 43t-17.5 46.5l135 27q5 -33 26.5 -52t53.5 -19t51 13.5t19 41.5q0 15 -6.5 25.5t-20 18.5t-33.5 15
t-48 16q-37 11 -66.5 25t-50.5 34t-32 47.5t-11 66.5q0 41 15 71.5t42 51t64.5 30.5t82.5 10q48 0 83.5 -12.5t59.5 -32.5t38.5 -44.5t20.5 -48.5l-131 -26q-5 28 -21 47t-51 19q-28 0 -45.5 -13.5t-17.5 -40.5q0 -32 27.5 -46t69.5 -26q34 -11 65.5 -22.5t55 -29t37.5 -45
t14 -70.5q0 -75 -43 -116.5t-112 -52.5l-4 -36q38 -11 55 -36t17 -55z" />
    <glyph glyph-name="Scaron" unicode="&#x160;" horiz-adv-x="587" 
d="M292 629q-36 0 -62.5 -17.5t-26.5 -58.5q0 -14 3 -26.5t13.5 -25t31.5 -25.5t58 -27q47 -18 88.5 -39t72.5 -49.5t49 -65.5t18 -88q0 -44 -13.5 -84t-43.5 -70.5t-77.5 -49t-115.5 -18.5q-65 0 -110 18.5t-74 45.5t-44 58t-19 56l141 20q2 -17 10.5 -33.5t22.5 -29
t33.5 -20t42.5 -7.5q16 0 33 4.5t31 15t22.5 27.5t8.5 43q0 29 -13 48.5t-36 34.5t-55 28.5t-71 31.5q-45 20 -75 42t-48.5 47.5t-26.5 55t-8 65.5q0 44 16.5 80.5t47.5 63t76.5 41t103.5 14.5q59 0 100.5 -16t68.5 -40.5t42 -54t21 -55.5l-139 -25q-5 33 -30 59t-67 26z
M360 768h-136l-120 117h127l61 -47l61 47h127z" />
    <glyph glyph-name="scaron" unicode="&#x161;" horiz-adv-x="514" 
d="M251 -10q-47 0 -84.5 12.5t-64 32.5t-43 46t-21.5 52l135 27q5 -33 26.5 -52t53.5 -19t51 13.5t19 41.5q0 15 -6.5 25.5t-20 19t-33.5 15.5t-48 16q-37 11 -66.5 24.5t-50.5 33.5t-32 47.5t-11 66.5q0 41 15 71.5t42 51t64.5 30.5t82.5 10q48 0 83.5 -12.5t59.5 -32.5
t38.5 -44.5t20.5 -48.5l-131 -26q-5 28 -21 47t-51 19q-28 0 -45.5 -13.5t-17.5 -40.5q0 -17 7.5 -27.5t20 -17.5t30.5 -12.5t39 -12.5q34 -11 65.5 -23t55 -30t37.5 -45.5t14 -70.5q0 -45 -16 -78t-44.5 -54t-67.5 -31.5t-85 -10.5zM327 598h-136l-120 137h122l66 -57
l66 57h122z" />
    <glyph glyph-name="Tcommaaccent" unicode="&#x162;" horiz-adv-x="544" 
d="M524 602h-178v-602h-150v602h-176v118h504v-118zM337 -169l-59 -101h-70l37 100h-42v120h134v-119z" />
    <glyph glyph-name="tcommaaccent" unicode="&#x163;" horiz-adv-x="365" 
d="M340 5q-19 -5 -43.5 -8.5t-47.5 -3.5q-34 0 -62 9t-48.5 28t-32 49t-11.5 72v289h-80v100h81l9 130h130v-130h104v-100h-104v-294q0 -16 5 -25.5t12.5 -15t17 -7.5t18.5 -2q11 0 26 2t26 4v-97zM284 -169l-59 -101h-70l37 100h-42v120h134v-119z" />
    <glyph glyph-name="Tcaron" unicode="&#x164;" horiz-adv-x="544" 
d="M524 602h-178v-602h-150v602h-176v118h504v-118zM339 768h-136l-120 117h127l61 -47l61 47h127z" />
    <glyph glyph-name="tcaron" unicode="&#x165;" horiz-adv-x="458" 
d="M340 5q-19 -5 -43.5 -8.5t-47.5 -3.5q-34 0 -62 9t-48.5 28t-32 49t-11.5 72v289h-80v100h81l9 130h130v-130h104v-100h-104v-294q0 -16 5 -25.5t12.5 -15t17 -7.5t18.5 -2q11 0 26 2t26 4v-97zM498 617l-59 -101h-70l37 100h-42v120h134v-119z" />
    <glyph glyph-name="Tbar" unicode="&#x166;" horiz-adv-x="564" 
d="M534 602h-178v-156h140v-95h-140v-351h-150v351h-140v95h140v156h-176v118h504v-118z" />
    <glyph glyph-name="tbar" unicode="&#x167;" horiz-adv-x="380" 
d="M240 440v-40h104v-90h-104v-164q0 -16 5 -25.5t12.5 -15t17 -7.5t18.5 -2q11 0 26 2t26 4v-97q-19 -5 -43.5 -8.5t-47.5 -3.5q-34 0 -62 9t-48.5 28t-32 49t-11.5 72v159h-80v90h80v40h-80v100h81l9 130h130v-130h104v-100h-104z" />
    <glyph glyph-name="Utilde" unicode="&#x168;" horiz-adv-x="643" 
d="M225 720v-506q0 -38 9 -61t23 -36t32 -17.5t35 -4.5t35 4.5t32.5 17.5t23.5 36t9 61v506h144v-497q0 -118 -62 -178t-183 -60t-184.5 60t-63.5 178v497h150zM385 760q-24 0 -41 6t-31 13t-27.5 13t-30.5 6t-41.5 -9.5t-46.5 -26.5v100q22 16 46.5 24.5t45.5 8.5
q24 0 41 -6t31 -13t27.5 -13t30.5 -6t41.5 9.5t46.5 26.5v-100q-22 -16 -46.5 -24.5t-45.5 -8.5z" />
    <glyph glyph-name="utilde" unicode="&#x169;" horiz-adv-x="575" 
d="M210 540v-356q0 -45 14 -68.5t59 -23.5q25 0 45 11t37 28v409h140v-540h-95l-31 65q-23 -35 -58.5 -55t-86.5 -20q-74 0 -119 48t-45 152v350h140zM349 620q-24 0 -41 6t-31 13t-27.5 13t-30.5 6t-41.5 -9.5t-46.5 -26.5v100q22 16 46.5 24.5t45.5 8.5q24 0 41 -6t31 -13
t27.5 -13t30.5 -6t41.5 9.5t46.5 26.5v-100q-22 -16 -46.5 -24.5t-45.5 -8.5z" />
    <glyph glyph-name="Umacron" unicode="&#x16a;" horiz-adv-x="643" 
d="M225 720v-506q0 -38 9 -61t23 -36t32 -17.5t35 -4.5t35 4.5t32.5 17.5t23.5 36t9 61v506h144v-497q0 -118 -62 -178t-183 -60t-184.5 60t-63.5 178v497h150zM172 784v101h300v-101h-300z" />
    <glyph glyph-name="umacron" unicode="&#x16b;" horiz-adv-x="575" 
d="M210 540v-356q0 -45 14 -68.5t59 -23.5q25 0 45 11t37 28v409h140v-540h-95l-31 65q-23 -35 -58.5 -55t-86.5 -20q-74 0 -119 48t-45 152v350h140zM137 634v101h300v-101h-300z" />
    <glyph glyph-name="Ubreve" unicode="&#x16c;" horiz-adv-x="643" 
d="M225 720v-506q0 -38 9 -61t23 -36t32 -17.5t35 -4.5t35 4.5t32.5 17.5t23.5 36t9 61v506h144v-497q0 -118 -62 -178t-183 -60t-184.5 60t-63.5 178v497h150zM324 834q20 0 35 11t21 40h119q-6 -38 -21.5 -63t-39 -41t-52.5 -22.5t-62 -6.5t-62 6.5t-52.5 22.5t-39 41
t-21.5 63h119q6 -29 21 -40t35 -11z" />
    <glyph glyph-name="ubreve" unicode="&#x16d;" horiz-adv-x="575" 
d="M210 540v-356q0 -45 14 -68.5t59 -23.5q25 0 45 11t37 28v409h140v-540h-95l-31 65q-23 -35 -58.5 -55t-86.5 -20q-74 0 -119 48t-45 152v350h140zM287 592q-33 0 -62 7.5t-52 24.5t-39 44.5t-22 66.5h119q5 -33 20.5 -47t35.5 -14t35.5 14t20.5 47h119q-6 -39 -22 -66.5
t-39 -44.5t-52 -24.5t-62 -7.5z" />
    <glyph glyph-name="Uring" unicode="&#x16e;" horiz-adv-x="643" 
d="M225 690v-476q0 -38 9 -61t23 -36t32 -17.5t35 -4.5t35 4.5t32.5 17.5t23.5 36t9 61v476h144v-467q0 -118 -62 -178t-183 -60t-184.5 60t-63.5 178v467h150zM192 841q0 57 35 88t98 31t97.5 -31t34.5 -88t-38 -87t-99 -30t-94.5 30t-33.5 87zM290 841q0 -23 10 -34.5
t25 -11.5q16 0 25.5 11t9.5 35t-10 36t-25 12t-25 -12.5t-10 -35.5z" />
    <glyph glyph-name="uring" unicode="&#x16f;" horiz-adv-x="575" 
d="M210 540v-356q0 -45 14 -68.5t59 -23.5q25 0 45 11t37 28v409h140v-540h-95l-31 65q-23 -35 -58.5 -55t-86.5 -20q-74 0 -119 48t-45 152v350h140zM155 691q0 57 35 88t98 31t97.5 -31t34.5 -88t-38 -87t-99 -30t-94.5 30t-33.5 87zM253 691q0 -23 10 -34.5t25 -11.5
q16 0 25.5 11t9.5 35t-10 36t-25 12t-25 -12.5t-10 -35.5z" />
    <glyph glyph-name="Uhungarumlaut" unicode="&#x170;" horiz-adv-x="643" 
d="M225 720v-506q0 -38 9 -61t23 -36t32 -17.5t35 -4.5t35 4.5t32.5 17.5t23.5 36t9 61v506h144v-497q0 -118 -62 -178t-183 -60t-184.5 60t-63.5 178v497h150zM260 885h152l-130 -117h-107zM438 885h152l-130 -117h-107z" />
    <glyph glyph-name="uhungarumlaut" unicode="&#x171;" horiz-adv-x="575" 
d="M210 540v-356q0 -45 14 -68.5t59 -23.5q25 0 45 11t37 28v409h140v-540h-95l-31 65q-23 -35 -58.5 -55t-86.5 -20q-74 0 -119 48t-45 152v350h140zM223 735h152l-147 -137h-105zM401 735h152l-147 -137h-105z" />
    <glyph glyph-name="Uogonek" unicode="&#x172;" horiz-adv-x="643" 
d="M225 720v-506q0 -38 9 -61t23 -36t32 -17.5t35 -4.5t35 4.5t32.5 17.5t23.5 36t9 61v506h144v-497q0 -158 -114 -213q-31 -24 -49 -51.5t-18 -57.5q0 -22 12 -32.5t32 -10.5q18 0 58 14l21 -84q-26 -14 -50.5 -21t-53.5 -7q-69 0 -104 33.5t-35 93.5q0 32 15 55t36 43
q-115 3 -179 63t-64 175v497h150z" />
    <glyph glyph-name="uogonek" unicode="&#x173;" horiz-adv-x="575" 
d="M210 540v-356q0 -45 14 -68.5t59 -23.5q25 0 45 11t37 28v409h140v-540q-2 -1 -15 -9t-27.5 -21.5t-26.5 -31t-12 -37.5q0 -22 13 -32.5t33 -10.5q18 0 58 14l21 -84q-26 -14 -50.5 -21t-53.5 -7q-69 0 -104 33.5t-35 93.5q0 25 9 44t23.5 34.5t32 27.5t34.5 23l-26 49
q-23 -35 -58.5 -55t-86.5 -20q-74 0 -119 48t-45 152v350h140z" />
    <glyph glyph-name="Wcircumflex" unicode="&#x174;" horiz-adv-x="828" 
d="M803 720l-110 -720h-191l-89 564l-91 -564h-187l-110 720h152l64 -568l85 568h185l84 -566l74 566h134zM605 764h-130l-58 50l-57 -50h-131l120 117h136z" />
    <glyph glyph-name="wcircumflex" unicode="&#x175;" horiz-adv-x="788" 
d="M773 540l-125 -540h-179l-74 400l-88 -400h-174l-118 540h142l70 -425l86 425h174l73 -423l84 423h129zM590 598h-122l-66 57l-66 -57h-122l120 137h136z" />
    <glyph glyph-name="Ycircumflex" unicode="&#x176;" horiz-adv-x="562" 
d="M557 720l-204 -432v-288h-140v288l-208 432h162l120 -289l130 289h140zM471 768h-130l-58 50l-57 -50h-131l120 117h136z" />
    <glyph glyph-name="ycircumflex" unicode="&#x177;" horiz-adv-x="511" 
d="M340 -15q-12 -39 -26 -67.5t-34 -47t-48.5 -27t-69.5 -8.5q-20 0 -46 3.5t-44 8.5v100q18 -5 38 -7t31 -2q36 0 52 13.5t21 48.5h-46l-163 540h147l102 -428l116 428h136zM441 598h-122l-66 57l-66 -57h-122l120 137h136z" />
    <glyph glyph-name="Ydieresis" unicode="&#x178;" horiz-adv-x="562" 
d="M557 720l-204 -432v-288h-140v288l-208 432h162l120 -289l130 289h140zM108 772v108h132v-108h-132zM335 772v108h132v-108h-132z" />
    <glyph glyph-name="Zacute" unicode="&#x179;" horiz-adv-x="555" 
d="M208 109h287v-109h-450v117l296 494h-273v109h437v-114zM310 885h152l-130 -117h-107z" />
    <glyph glyph-name="zacute" unicode="&#x17a;" horiz-adv-x="495" 
d="M201 106h239v-106h-405v117l253 317h-234v106h396v-117zM274 735h157l-152 -137h-105z" />
    <glyph glyph-name="Zdotaccent" unicode="&#x17b;" horiz-adv-x="555" 
d="M208 109h287v-109h-450v117l296 494h-273v109h437v-114zM221 770v115h152v-115h-152z" />
    <glyph glyph-name="zdotaccent" unicode="&#x17c;" horiz-adv-x="495" 
d="M201 106h239v-106h-405v117l253 317h-234v106h396v-117zM183 610v125h152v-125h-152z" />
    <glyph glyph-name="Zcaron" horiz-adv-x="555" 
d="M208 109h287v-109h-450v117l296 494h-273v109h437v-114zM373 766h-136l-120 117h127l61 -47l61 47h127z" />
    <glyph glyph-name="Zcaron" unicode="&#x17d;" horiz-adv-x="555" 
d="M208 109h287v-109h-450v117l296 494h-273v109h437v-114zM373 766h-136l-120 117h127l61 -47l61 47h127z" />
    <glyph glyph-name="zcaron" horiz-adv-x="495" 
d="M201 106h239v-106h-405v117l253 317h-234v106h396v-117zM330 598h-136l-120 137h122l66 -57l66 57h122z" />
    <glyph glyph-name="zcaron" unicode="&#x17e;" horiz-adv-x="495" 
d="M201 106h239v-106h-405v117l253 317h-234v106h396v-117zM330 598h-136l-120 137h122l66 -57l66 57h122z" />
    <glyph glyph-name="longs" unicode="&#x17f;" horiz-adv-x="337" 
d="M372 629q-19 5 -38 7.5t-34 2.5q-35 0 -50 -14t-15 -49v-576h-140v440h-80v100h80v30q0 47 12 80.5t33.5 54.5t51.5 30.5t66 9.5q37 0 65.5 -5t48.5 -10v-101z" />
    <glyph glyph-name="florin" unicode="&#x192;" horiz-adv-x="352" 
d="M372 629q-19 5 -38 7.5t-34 2.5q-35 0 -50 -14t-15 -49v-36h116v-100h-116v-435q0 -47 -12 -80.5t-33.5 -54.5t-51.5 -30.5t-66 -9.5q-37 0 -65.5 5t-48.5 10v101q19 -5 38 -7.5t34 -2.5q35 0 50 14t15 49v441h-80v100h80v30q0 47 12 80.5t33.5 54.5t51.5 30.5t66 9.5
q37 0 65.5 -5t48.5 -10v-101z" />
    <glyph glyph-name="Ohorn" unicode="&#x1a0;" horiz-adv-x="729" 
d="M739 681q0 -30 -12 -56t-30.5 -47t-42 -37t-47.5 -27q16 -63 16 -154q0 -105 -21.5 -176.5t-59 -115.5t-89 -63.5t-112.5 -19.5t-112.5 19.5t-89 63.5t-58.5 115.5t-21 176.5t21.5 176.5t59 115.5t89 63.5t111.5 19.5q78 0 140.5 -33.5t99.5 -111.5q16 13 23.5 34t7.5 56
v75h127v-74zM213 360q0 -76 9 -127t25.5 -81.5t40.5 -43.5t53 -13t53 13t41 44t26 82t9 126t-10 126t-27 82t-41 44.5t-51 13.5t-50.5 -13t-41 -44t-27 -82t-9.5 -127z" />
    <glyph glyph-name="ohorn" unicode="&#x1a1;" horiz-adv-x="647" 
d="M657 486q0 -31 -11.5 -56.5t-29.5 -45.5t-41 -35.5t-46 -25.5q3 -24 3 -53q0 -84 -21 -138t-54.5 -85.5t-76.5 -44t-87 -12.5t-87 12.5t-77 44.5t-55 86t-21 137t21 138t55 87.5t77 46t87 13.5q34 0 67 -7.5t62 -25t52.5 -47t38.5 -72.5q22 25 22 82v75h122v-74zM197 270
q0 -57 6.5 -92.5t19.5 -56t30.5 -27.5t40.5 -7q22 0 40 7t30 27t18.5 55.5t6.5 93.5t-6.5 94.5t-19 57.5t-30.5 28.5t-40 7.5q-23 0 -40.5 -8t-30 -29t-19 -57.5t-6.5 -93.5z" />
    <glyph glyph-name="Uhorn" unicode="&#x1af;" horiz-adv-x="732" 
d="M568 720v-141q23 11 35 34.5t12 66.5v75h127v-74q0 -38 -17.5 -68.5t-43.5 -53.5t-56.5 -38t-56.5 -22v-276q0 -118 -62 -178t-183 -60t-184.5 60t-63.5 178v497h150v-506q0 -38 9 -61t23 -36t32 -17.5t35 -4.5t35 4.5t32.5 17.5t23.5 36t9 61v506h144z" />
    <glyph glyph-name="uhorn" unicode="&#x1b0;" horiz-adv-x="663" 
d="M210 540v-356q0 -45 14 -68.5t59 -23.5q25 0 45 11t37 28v409h140v-156q23 12 34.5 35t11.5 66v75h122v-74q0 -38 -16.5 -67.5t-41.5 -51.5t-54.5 -36.5t-55.5 -21.5v-309h-95l-31 65q-23 -35 -58.5 -55t-86.5 -20q-74 0 -119 48t-45 152v350h140z" />
    <glyph glyph-name="AEacute" unicode="&#x1fc;" horiz-adv-x="869" 
d="M769 309h-233l41 -196h242v-113h-366l-32 167h-220l-55 -167h-141l259 720h525v-115h-315l39 -188h256v-108zM234 269h168l-60 325zM522 885h152l-130 -117h-107z" />
    <glyph glyph-name="aeacute" unicode="&#x1fd;" horiz-adv-x="821" 
d="M562 91q34 0 53.5 19t25.5 48l127 -20q-8 -27 -24 -53.5t-42 -47.5t-62.5 -34t-85.5 -13q-54 0 -94 20.5t-67 65.5q-27 -42 -69 -63t-109 -21q-32 0 -63.5 9t-56.5 28.5t-40 51t-15 77.5q0 41 16 72.5t43.5 54t63.5 35.5t77 18l95 13v33q0 78 -67 78q-28 0 -48.5 -16.5
t-25.5 -51.5l-135 20q8 25 23 50.5t40.5 45.5t63.5 32.5t92 12.5q48 0 82 -14.5t55 -40.5q52 55 139 55q64 0 106 -21.5t67.5 -63.5t36 -102.5t10.5 -138.5h-303q3 -42 11.5 -69t20.5 -42.5t27 -21t32 -5.5zM262 91q16 0 35 6t38 18v153l-57 -9q-45 -6 -72 -27t-27 -59
q0 -26 7.5 -42t19.5 -25t27 -12t29 -3zM558 465q-17 0 -32 -5t-27 -20.5t-20 -44t-10 -74.5h174q-1 42 -7.5 70t-18 44.5t-26.5 23t-33 6.5zM449 735h157l-152 -137h-105z" />
    <glyph glyph-name="Oslashacute" unicode="&#x1fe;" horiz-adv-x="683" 
d="M60 360q0 105 21.5 176.5t59 115.5t89 63.5t111.5 19.5q40 0 76 -9l35 94h115l-52 -141q50 -42 79 -119t29 -200q0 -105 -21.5 -176.5t-59 -115.5t-89 -63.5t-112.5 -19.5q-42 0 -79 9l-36 -96h-115l53 145q-48 42 -76 119t-28 198zM470 360q0 60 -6 102.5t-17 73.5
l-158 -429q22 -12 52 -12q29 0 53 13t41 44t26 82t9 126zM213 360q0 -57 5 -97.5t14 -71.5l157 423q-23 12 -48 12q-27 0 -50.5 -13t-41 -44t-27 -82t-9.5 -127zM328 885h152l-130 -117h-107z" />
    <glyph glyph-name="oslashacute" unicode="&#x1ff;" horiz-adv-x="585" 
d="M53 270q0 83 21 138t55 87.5t77 46t87 13.5q20 0 39.5 -2.5t39.5 -8.5l40 89h110l-63 -139q33 -33 53 -86.5t20 -137.5t-21 -138t-54.5 -85.5t-76.5 -44t-87 -12.5q-40 0 -67 7l-44 -99h-112l65 143q-37 32 -59.5 86.5t-22.5 142.5zM197 270q0 -75 10 -111l131 288
q-20 11 -45 11q-23 0 -40.5 -8t-30 -29t-19 -57.5t-6.5 -93.5zM310 735h157l-152 -137h-105zM389 270q0 31 -1.5 55.5t-5.5 41.5l-125 -275q17 -5 37 -5q22 0 40 7t30 27t18.5 55.5t6.5 93.5z" />
    <glyph glyph-name="Scommaaccent" unicode="&#x218;" horiz-adv-x="587" 
d="M292 629q-36 0 -62.5 -17.5t-26.5 -58.5q0 -14 3 -26.5t13.5 -25t31.5 -25.5t58 -27q47 -18 88.5 -39t72.5 -49.5t49 -65.5t18 -88q0 -44 -13.5 -84t-43.5 -70.5t-77.5 -49t-115.5 -18.5q-65 0 -110 18.5t-74 45.5t-44 58t-19 56l141 20q2 -17 10.5 -33.5t22.5 -29
t33.5 -20t42.5 -7.5q16 0 33 4.5t31 15t22.5 27.5t8.5 43q0 29 -13 48.5t-36 34.5t-55 28.5t-71 31.5q-45 20 -75 42t-48.5 47.5t-26.5 55t-8 65.5q0 44 16.5 80.5t47.5 63t76.5 41t103.5 14.5q59 0 100.5 -16t68.5 -40.5t42 -54t21 -55.5l-139 -25q-5 33 -30 59t-67 26z
M356 -174l-59 -101h-70l37 100h-42v120h134v-119z" />
    <glyph glyph-name="scommaaccent" unicode="&#x219;" horiz-adv-x="514" 
d="M251 -10q-47 0 -84.5 12.5t-64 32.5t-43 46t-21.5 52l135 27q5 -33 26.5 -52t53.5 -19t51 13.5t19 41.5q0 15 -6.5 25.5t-20 19t-33.5 15.5t-48 16q-37 11 -66.5 24.5t-50.5 33.5t-32 47.5t-11 66.5q0 41 15 71.5t42 51t64.5 30.5t82.5 10q48 0 83.5 -12.5t59.5 -32.5
t38.5 -44.5t20.5 -48.5l-131 -26q-5 28 -21 47t-51 19q-28 0 -45.5 -13.5t-17.5 -40.5q0 -17 7.5 -27.5t20 -17.5t30.5 -12.5t39 -12.5q34 -11 65.5 -23t55 -30t37.5 -45.5t14 -70.5q0 -45 -16 -78t-44.5 -54t-67.5 -31.5t-85 -10.5zM325 -169l-59 -101h-70l37 100h-42v120
h134v-119z" />
    <glyph glyph-name="uni021A" unicode="&#x21a;" horiz-adv-x="544" 
d="M524 602h-178v-602h-150v602h-176v118h504v-118zM337 -169l-59 -101h-70l37 100h-42v120h134v-119z" />
    <glyph glyph-name="uni021B" unicode="&#x21b;" horiz-adv-x="365" 
d="M340 5q-19 -5 -43.5 -8.5t-47.5 -3.5q-34 0 -62 9t-48.5 28t-32 49t-11.5 72v289h-80v100h81l9 130h130v-130h104v-100h-104v-294q0 -16 5 -25.5t12.5 -15t17 -7.5t18.5 -2q11 0 26 2t26 4v-97zM284 -169l-59 -101h-70l37 100h-42v120h134v-119z" />
    <glyph glyph-name="dotlessj" unicode="&#x237;" horiz-adv-x="282" 
d="M-45 -50q13 -3 29.5 -5.5t28.5 -2.5q29 0 43 12t14 45v541h140v-544q0 -79 -42.5 -120t-118.5 -41q-23 0 -49.5 4.5t-44.5 10.5v100z" />
    <glyph glyph-name="circumflex" unicode="&#x2c6;" horiz-adv-x="436" 
d="M406 598h-122l-66 57l-66 -57h-122l120 137h136z" />
    <glyph glyph-name="caron" unicode="&#x2c7;" horiz-adv-x="436" 
d="M286 598h-136l-120 137h122l66 -57l66 57h122z" />
    <glyph glyph-name="uni02C9" unicode="&#x2c9;" horiz-adv-x="360" 
d="M30 634v101h300v-101h-300z" />
    <glyph glyph-name="breve" unicode="&#x2d8;" horiz-adv-x="410" 
d="M205 592q-33 0 -62 7.5t-52 24.5t-39 44.5t-22 66.5h119q5 -33 20.5 -47t35.5 -14t35.5 14t20.5 47h119q-6 -39 -22 -66.5t-39 -44.5t-52 -24.5t-62 -7.5z" />
    <glyph glyph-name="dotaccent" unicode="&#x2d9;" horiz-adv-x="212" 
d="M30 610v125h152v-125h-152z" />
    <glyph glyph-name="ring" unicode="&#x2da;" horiz-adv-x="325" 
d="M30 691q0 57 35 88t98 31t97.5 -31t34.5 -88t-38 -87t-99 -30t-94.5 30t-33.5 87zM128 691q0 -23 10 -34.5t25 -11.5q16 0 25.5 11t9.5 35t-10 36t-25 12t-25 -12.5t-10 -35.5z" />
    <glyph glyph-name="ogonek" unicode="&#x2db;" horiz-adv-x="303" 
d="M273 -212q-26 -14 -50.5 -21t-53.5 -7q-69 0 -104 33.5t-35 93.5q0 28 12.5 52.5t33.5 45t48 36t56 24.5h93q-52 -30 -88.5 -67t-36.5 -77q0 -22 13 -32.5t33 -10.5q18 0 58 14z" />
    <glyph glyph-name="tilde" unicode="&#x2dc;" horiz-adv-x="370" 
d="M248 610q-24 0 -41 6t-31 13t-27.5 13t-30.5 6t-41.5 -9.5t-46.5 -26.5v100q22 16 46.5 24.5t45.5 8.5q24 0 41 -6t31 -13t27.5 -13t30.5 -6t41.5 9.5t46.5 26.5v-100q-22 -16 -46.5 -24.5t-45.5 -8.5z" />
    <glyph glyph-name="hungarumlaut" unicode="&#x2dd;" horiz-adv-x="490" 
d="M130 735h152l-147 -137h-105zM308 735h152l-147 -137h-105z" />
    <glyph glyph-name="gravecomb" unicode="&#x300;" horiz-adv-x="1" 
d="M-29 598h-100l-126 137h152z" />
    <glyph glyph-name="acutecomb" unicode="&#x301;" horiz-adv-x="0" 
d="M-182 735h152l-126 -137h-100z" />
    <glyph glyph-name="tildecomb" unicode="&#x303;" horiz-adv-x="1" 
d="M-121 610q-24 0 -41 6t-31 13t-27.5 13t-30.5 6t-41.5 -9.5t-46.5 -26.5v90q22 16 46.5 24.5t45.5 8.5q24 0 41 -6t31 -13t27.5 -13t30.5 -6t41.5 9.5t46.5 26.5v-90q-22 -16 -46.5 -24.5t-45.5 -8.5z" />
    <glyph glyph-name="hookabovecomb" unicode="&#x309;" horiz-adv-x="1" 
d="M-29 709q0 -30 -20 -54t-55 -35l-4 -20h-86l-3 58q29 3 49 15.5t20 33.5q0 12 -8 19.5t-22 7.5q-17 0 -28 -11.5t-14 -28.5l-83 18q14 39 45 65.5t89 26.5q22 0 43.5 -5.5t38.5 -16.5t27.5 -29.5t10.5 -43.5z" />
    <glyph glyph-name="uni0312" unicode="&#x312;" horiz-adv-x="1" 
d="M-347 719l59 101h70l-37 -100h42v-120h-134v119z" />
    <glyph glyph-name="dotbelowcomb" unicode="&#x323;" horiz-adv-x="1" 
d="M-181 -170v125h152v-125h-152z" />
    <glyph glyph-name="uni037E" unicode="&#x37e;" horiz-adv-x="265" 
d="M60 405v135h145v-135h-145zM205 1l-84 -163h-81l55 162h-35v135h145v-134z" />
    <glyph glyph-name="tonos" unicode="&#x384;" horiz-adv-x="260" 
d="M81 735h149l-103 -147h-97z" />
    <glyph glyph-name="dieresistonos" unicode="&#x385;" horiz-adv-x="419" 
d="M212 848h149l-105 -127h-95zM30 593v108h132v-108h-132zM257 593v108h132v-108h-132z" />
    <glyph glyph-name="Alphatonos" unicode="&#x386;" horiz-adv-x="625" 
d="M462 0l-44 167h-222l-44 -167h-147l221 720h171l224 -720h-159zM224 269h167l-83 315zM47 721h149l-103 -147h-97z" />
    <glyph glyph-name="anoteleia" unicode="&#x387;" horiz-adv-x="315" 
d="M85 280v135h145v-135h-145z" />
    <glyph glyph-name="Epsilontonos" unicode="&#x388;" horiz-adv-x="660" 
d="M580 309h-205v-196h235v-113h-385v720h385v-115h-235v-188h205v-108zM47 721h149l-103 -147h-97z" />
    <glyph glyph-name="Etatonos" unicode="&#x389;" horiz-adv-x="800" 
d="M720 720v-720h-150v310h-195v-310h-150v720h150v-302h195v302h150zM47 721h149l-103 -147h-97z" />
    <glyph glyph-name="Iotatonos" unicode="&#x38a;" horiz-adv-x="455" 
d="M375 720v-720h-150v720h150zM47 721h149l-103 -147h-97z" />
    <glyph glyph-name="Omicrontonos" unicode="&#x38c;" horiz-adv-x="759" 
d="M136 360q0 105 21.5 176.5t59 115.5t89 63.5t111.5 19.5t111.5 -19.5t89.5 -63.5t59.5 -115.5t21.5 -176.5t-21.5 -176.5t-59 -115.5t-89 -63.5t-112.5 -19.5t-112.5 19.5t-89 63.5t-58.5 115.5t-21 176.5zM289 360q0 -76 9 -127t25.5 -81.5t40.5 -43.5t53 -13t53 13
t41 44t26 82t9 126t-10 126t-27 82t-41 44.5t-51 13.5t-50.5 -13t-41 -44t-27 -82t-9.5 -127zM47 721h149l-103 -147h-97z" />
    <glyph glyph-name="Upsilontonos" unicode="&#x38e;" horiz-adv-x="772" 
d="M767 720l-204 -432v-288h-140v288l-208 432h162l120 -289l130 289h140zM47 721h149l-103 -147h-97z" />
    <glyph glyph-name="Omegatonos" unicode="&#x38f;" horiz-adv-x="759" 
d="M416 735q61 0 113 -20t89.5 -62.5t59 -110t21.5 -162.5q0 -66 -10.5 -113t-27 -78.5t-37 -49t-40.5 -24.5h115v-115h-243v115q18 7 34.5 23t28.5 46.5t19.5 78t7.5 117.5q0 131 -36 188.5t-94 57.5q-57 0 -91.5 -57.5t-34.5 -188.5q0 -70 7.5 -117.5t19.5 -78t28.5 -46.5
t34.5 -23v-115h-243v115h115q-20 7 -40.5 24.5t-37 49t-27 78.5t-10.5 113q0 95 20.5 162.5t57.5 110t88 62.5t113 20zM47 721h149l-103 -147h-97z" />
    <glyph glyph-name="iotadieresistonos" unicode="&#x390;" horiz-adv-x="280" 
d="M144 829h149l-105 -127h-95zM-38 574v108h132v-108h-132zM189 574v108h132v-108h-132zM70 0v540h140v-540h-140z" />
    <glyph glyph-name="Alpha" unicode="&#x391;" horiz-adv-x="626" 
d="M462 0l-44 167h-222l-44 -167h-147l221 720h171l224 -720h-159zM224 269h167l-83 315z" />
    <glyph glyph-name="Beta" unicode="&#x392;" horiz-adv-x="609" 
d="M267 720q60 0 110 -8t86 -29.5t56.5 -59.5t20.5 -97q0 -26 -7 -50.5t-20 -44.5t-30.5 -33.5t-38.5 -17.5q8 -2 19.5 -5.5t22.5 -8.5q35 -17 56.5 -55.5t21.5 -99.5q0 -60 -18.5 -100.5t-54.5 -65t-89 -35t-121 -10.5h-201v720h187zM230 328v-226h58q24 0 46 4t39 16
t27 33t10 56q0 60 -33 88.5t-84 28.5h-63zM230 618v-194h53q15 0 33.5 3t35 13.5t27.5 30.5t11 55q0 26 -10 43.5t-26 28.5t-35.5 15.5t-38.5 4.5h-50z" />
    <glyph glyph-name="Gamma" unicode="&#x393;" horiz-adv-x="507" 
d="M80 0v720h407v-118h-257v-602h-150z" />
    <glyph glyph-name="Delta" unicode="&#x394;" horiz-adv-x="626" 
d="M5 0l221 720h171l224 -720h-616zM180 104h254l-126 480z" />
    <glyph glyph-name="Epsilon" unicode="&#x395;" horiz-adv-x="515" 
d="M435 309h-205v-196h235v-113h-385v720h385v-115h-235v-188h205v-108z" />
    <glyph glyph-name="Zeta" unicode="&#x396;" horiz-adv-x="555" 
d="M208 109h287v-109h-450v117l296 494h-273v109h437v-114z" />
    <glyph glyph-name="Eta" unicode="&#x397;" horiz-adv-x="655" 
d="M575 720v-720h-150v310h-195v-310h-150v720h150v-302h195v302h150z" />
    <glyph glyph-name="Theta" unicode="&#x398;" horiz-adv-x="703" 
d="M254 416h195v-108h-195v108zM60 360q0 105 23 176.5t62.5 115.5t92.5 63.5t113 19.5t113 -19.5t93 -63.5t63 -115.5t23 -176.5t-23 -176.5t-62.5 -115.5t-92.5 -63.5t-114 -19.5t-114 19.5t-92.5 63.5t-62 115.5t-22.5 176.5zM213 360q0 -76 10.5 -127t29 -81.5t44 -43.5
t54.5 -13t54.5 13t44 44t29.5 82t11 126t-11.5 126t-30.5 82t-44.5 44.5t-52.5 13.5t-52 -13t-44 -44t-30.5 -82t-11.5 -127z" />
    <glyph glyph-name="Iota" unicode="&#x399;" horiz-adv-x="310" 
d="M230 720v-720h-150v720h150z" />
    <glyph glyph-name="Kappa" unicode="&#x39a;" horiz-adv-x="619" 
d="M426 0l-196 313v-313h-150v720h150v-300l183 300h158l-216 -337l254 -383h-183z" />
    <glyph glyph-name="Lambda" unicode="&#x39b;" horiz-adv-x="606" 
d="M440 0l-143 570l-143 -570h-149l209 720h173l214 -720h-161z" />
    <glyph glyph-name="Mu" unicode="&#x39c;" horiz-adv-x="822" 
d="M352 0l-145 509v-509h-127v720h186l146 -523l140 523h190v-720h-137v509l-141 -509h-112z" />
    <glyph glyph-name="Nu" unicode="&#x39d;" horiz-adv-x="668" 
d="M588 720v-720h-178l-204 523v-523h-126v720h191l192 -516v516h125z" />
    <glyph glyph-name="Xi" unicode="&#x39e;" horiz-adv-x="575" 
d="M50 720h475v-127h-475v127zM50 127h475v-127h-475v127zM110 423h355v-122h-355v122z" />
    <glyph glyph-name="Omicron" unicode="&#x39f;" horiz-adv-x="683" 
d="M60 360q0 105 21.5 176.5t59 115.5t89 63.5t111.5 19.5t111.5 -19.5t89.5 -63.5t59.5 -115.5t21.5 -176.5t-21.5 -176.5t-59 -115.5t-89 -63.5t-112.5 -19.5t-112.5 19.5t-89 63.5t-58.5 115.5t-21 176.5zM213 360q0 -76 9 -127t25.5 -81.5t40.5 -43.5t53 -13t53 13
t41 44t26 82t9 126t-10 126t-27 82t-41 44.5t-51 13.5t-50.5 -13t-41 -44t-27 -82t-9.5 -127z" />
    <glyph glyph-name="Pi" unicode="&#x3a0;" horiz-adv-x="655" 
d="M575 720v-720h-150v611h-195v-611h-150v720h495z" />
    <glyph glyph-name="Rho" unicode="&#x3a1;" horiz-adv-x="578" 
d="M273 720q56 0 106 -9.5t87.5 -35.5t59.5 -72.5t22 -120.5t-22.5 -120.5t-59.5 -72.5t-86 -35.5t-101 -9.5h-49v-244h-150v720h193zM230 613v-262h51q19 0 39 5t36 19t26 39.5t10 67.5t-9.5 67.5t-26 39.5t-37.5 19t-44 5h-45z" />
    <glyph glyph-name="Sigma" unicode="&#x3a3;" horiz-adv-x="554" 
d="M213 108h296v-108h-464v113l226 252l-226 242v113h464v-108h-296l228 -247z" />
    <glyph glyph-name="Tau" unicode="&#x3a4;" horiz-adv-x="544" 
d="M524 602h-178v-602h-150v602h-176v118h504v-118z" />
    <glyph glyph-name="Upsilon" unicode="&#x3a5;" horiz-adv-x="562" 
d="M557 720l-204 -432v-288h-140v288l-208 432h162l120 -289l130 289h140z" />
    <glyph glyph-name="Phi" unicode="&#x3a6;" horiz-adv-x="814" 
d="M472 750v-77q48 -5 99.5 -23t94 -55t70.5 -95t28 -142t-28 -141.5t-70.5 -94t-94 -54.5t-99.5 -22v-76h-130v76q-48 4 -99.5 22t-94 54.5t-70.5 94t-28 141.5t28 142t70.5 95t94 55t99.5 23v77h130zM190 357q0 -57 15 -94t38 -59.5t49.5 -33t49.5 -13.5v406
q-23 -4 -50 -15.5t-49.5 -34.5t-37.5 -61t-15 -95zM624 357q0 57 -15 95t-38 61t-49.5 34.5t-49.5 15.5v-406q23 3 49.5 13.5t49.5 33t38 59.5t15 94z" />
    <glyph glyph-name="Chi" unicode="&#x3a7;" horiz-adv-x="607" 
d="M384 391l203 -391h-177l-116 245l-123 -245h-151l206 374l-188 346h174l104 -211l113 211h142z" />
    <glyph glyph-name="Psi" unicode="&#x3a8;" horiz-adv-x="802" 
d="M470 720v-460q66 11 95 44.5t29 93.5v322h138v-313q0 -52 -15.5 -96.5t-47.5 -78t-81.5 -55.5t-117.5 -29v-148h-136v148q-69 7 -119 28.5t-82 55.5t-47.5 78t-15.5 97v313h138v-322q0 -61 30 -94.5t96 -44.5v461h136z" />
    <glyph glyph-name="Omega" unicode="&#x3a9;" horiz-adv-x="682" 
d="M339 735q61 0 113 -20t89.5 -62.5t59 -110t21.5 -162.5q0 -66 -10.5 -113t-27 -78.5t-37 -49t-40.5 -24.5h115v-115h-243v115q18 7 34.5 23t28.5 46.5t19.5 78t7.5 117.5q0 131 -36 188.5t-94 57.5q-57 0 -91.5 -57.5t-34.5 -188.5q0 -70 7.5 -117.5t19.5 -78t28.5 -46.5
t34.5 -23v-115h-243v115h115q-20 7 -40.5 24.5t-37 49t-27 78.5t-10.5 113q0 95 20.5 162.5t57.5 110t88 62.5t113 20z" />
    <glyph glyph-name="Iotadieresis" unicode="&#x3aa;" horiz-adv-x="310" 
d="M-23 760v115h132v-115h-132zM204 760v115h132v-115h-132zM230 720v-720h-150v720h150z" />
    <glyph glyph-name="Upsilondieresis" unicode="&#x3ab;" horiz-adv-x="562" 
d="M557 720l-204 -432v-288h-140v288l-208 432h162l120 -289l130 289h140zM105 772v108h132v-108h-132zM332 772v108h132v-108h-132z" />
    <glyph glyph-name="alphatonos" unicode="&#x3ac;" horiz-adv-x="563" 
d="M53 271q0 149 49 216.5t148 67.5q42 0 75 -12.5t55 -34.5l28 32h85v-540h-94l-35 60q-23 -32 -57.5 -51t-86.5 -19q-30 0 -59.5 12t-53.5 43.5t-39 86t-15 139.5zM274 96q23 0 42.5 9.5t36.5 23.5v306q-14 11 -30.5 17.5t-36.5 6.5q-23 0 -40.5 -7t-29 -28t-17.5 -59
t-6 -99q0 -54 6.5 -87.5t18 -51.5t26 -24.5t30.5 -6.5zM282 735h149l-103 -147h-97z" />
    <glyph glyph-name="epsilontonos" unicode="&#x3ad;" horiz-adv-x="518" 
d="M273 89q40 0 59.5 23.5t23.5 55.5l132 -17q-6 -30 -21.5 -59t-42.5 -51.5t-65.5 -36.5t-90.5 -14q-47 0 -87.5 9t-70 28.5t-46 49.5t-16.5 71q0 31 10 55.5t26.5 41.5t38.5 26.5t45 11.5q-51 11 -77.5 42.5t-26.5 79.5q0 41 17 69.5t45 46.5t65 26t78 8q85 0 140.5 -38.5
t73.5 -119.5l-128 -17q-5 31 -22.5 54.5t-54.5 23.5q-32 0 -53 -14.5t-21 -51.5q0 -38 21 -52.5t52 -14.5h43v-94h-45q-37 0 -60.5 -15.5t-23.5 -50.5q0 -45 24 -60.5t58 -15.5zM246 735h149l-103 -147h-97z" />
    <glyph glyph-name="etatonos" unicode="&#x3ae;" horiz-adv-x="582" 
d="M70 0v540h95l29 -63q26 38 63 58.5t88 20.5q37 0 67.5 -11t52.5 -34.5t34.5 -60.5t12.5 -89v-531h-140v535q0 45 -15.5 67t-60.5 22q-26 0 -47 -11t-39 -28v-415h-140zM289 735h149l-103 -147h-97z" />
    <glyph glyph-name="iotatonos" unicode="&#x3af;" horiz-adv-x="280" 
d="M140 735h149l-103 -147h-97zM70 0v540h140v-540h-140z" />
    <glyph glyph-name="upsilondieresistonos" unicode="&#x3b0;" horiz-adv-x="577" 
d="M288 99q22 0 37.5 8t24.5 20t13 26.5t4 26.5v360h140v-359q0 -48 -16 -83.5t-45 -59.5t-69 -36t-89 -12t-89 12t-68.5 36t-44.5 59.5t-16 83.5v359h140v-360q0 -12 3.5 -26.5t12.5 -26.5t24 -20t38 -8zM289 829h149l-105 -127h-95zM107 574v108h132v-108h-132zM334 574
v108h132v-108h-132z" />
    <glyph glyph-name="alpha" unicode="&#x3b1;" horiz-adv-x="563" 
d="M53 271q0 149 49 216.5t148 67.5q42 0 75 -12.5t55 -34.5l28 32h85v-540h-94l-35 60q-23 -32 -57.5 -51t-86.5 -19q-30 0 -59.5 12t-53.5 43.5t-39 86t-15 139.5zM274 96q23 0 42.5 9.5t36.5 23.5v306q-14 11 -30.5 17.5t-36.5 6.5q-23 0 -40.5 -7t-29 -28t-17.5 -59
t-6 -99q0 -54 6.5 -87.5t18 -51.5t26 -24.5t30.5 -6.5z" />
    <glyph glyph-name="beta" unicode="&#x3b2;" horiz-adv-x="609" 
d="M564 204q0 -100 -55 -157t-149 -57q-62 0 -97.5 19t-52.5 38v-217h-140v683q0 57 17.5 98.5t49 69t75 41t96.5 13.5q50 0 91.5 -13t71 -37t45.5 -58t16 -75q0 -70 -29 -108t-70 -55q22 -4 45.5 -14t42.5 -31t31 -55t12 -85zM210 155q6 -8 15.5 -19t23.5 -20.5t33 -16
t44 -6.5q45 0 72 26.5t27 89.5q0 34 -8.5 57t-25 37.5t-42 21.5t-59.5 9v91q24 2 44 8.5t34.5 20t22 36t7.5 57.5q0 40 -24 66.5t-69 26.5q-18 0 -35 -5t-30.5 -18t-21.5 -35t-8 -55v-372z" />
    <glyph glyph-name="gamma" unicode="&#x3b3;" horiz-adv-x="512" 
d="M187 -170v192l-182 518h151l106 -407l103 407h142l-180 -529v-181h-140z" />
    <glyph glyph-name="delta" unicode="&#x3b4;" horiz-adv-x="598" 
d="M538 250q0 -75 -21.5 -125t-56 -80t-78 -42.5t-86.5 -12.5q-45 0 -88.5 12.5t-78 42.5t-55.5 80t-21 125t20 126t50.5 81.5t66 44t66.5 13.5q26 0 47.5 -4t41.5 -14q-27 23 -60 42.5t-67.5 36t-68 30t-61.5 24.5v90h412v-110h-160q100 -48 149 -140.5t49 -219.5zM197 250
q0 -50 8.5 -82t22.5 -50t32 -24.5t37 -6.5t36.5 6.5t31 24t22 49.5t8.5 83q0 54 -9.5 87t-24 50.5t-32 23.5t-33.5 6t-33.5 -6t-32 -23.5t-24 -50.5t-9.5 -87z" />
    <glyph glyph-name="epsilon" unicode="&#x3b5;" horiz-adv-x="518" 
d="M273 89q40 0 59.5 23.5t23.5 55.5l132 -17q-6 -30 -21.5 -59t-42.5 -51.5t-65.5 -36.5t-90.5 -14q-47 0 -87.5 9t-70 28.5t-46 49.5t-16.5 71q0 31 10 55.5t26.5 41.5t38.5 26.5t45 11.5q-51 11 -77.5 42.5t-26.5 79.5q0 41 17 69.5t45 46.5t65 26t78 8q85 0 140.5 -38.5
t73.5 -119.5l-128 -17q-5 31 -22.5 54.5t-54.5 23.5q-32 0 -53 -14.5t-21 -51.5q0 -38 21 -52.5t52 -14.5h43v-94h-45q-37 0 -60.5 -15.5t-23.5 -50.5q0 -45 24 -60.5t58 -15.5z" />
    <glyph glyph-name="zeta" unicode="&#x3b6;" horiz-adv-x="500" 
d="M204 233q0 -34 6.5 -55t23 -34t44.5 -20.5t70 -13.5t68.5 -15.5t42 -24t21 -34t5.5 -44.5q0 -43 -16.5 -85t-45.5 -87l-93 19q15 26 25.5 51t10.5 47q0 33 -23.5 43.5t-78.5 15.5q-29 3 -64.5 12t-66 32.5t-51 66t-20.5 112.5q0 72 15.5 132.5t43.5 109.5t67.5 86.5
t87.5 62.5h-216v110h403v-90q-56 -25 -103.5 -63t-82 -88t-54 -111.5t-19.5 -134.5z" />
    <glyph glyph-name="eta" unicode="&#x3b7;" horiz-adv-x="582" 
d="M70 0v540h95l29 -63q26 38 63 58.5t88 20.5q37 0 67.5 -11t52.5 -34.5t34.5 -60.5t12.5 -89v-531h-140v535q0 45 -15.5 67t-60.5 22q-26 0 -47 -11t-39 -28v-415h-140z" />
    <glyph glyph-name="theta" unicode="&#x3b8;" horiz-adv-x="575" 
d="M53 360q0 99 16 170t46.5 116.5t74 67t98.5 21.5t98.5 -21.5t73.5 -67t46 -116.5t16 -170t-16 -169t-46 -115t-73.5 -65.5t-98.5 -20.5t-98.5 20.5t-74 65t-46.5 115t-16 169.5zM288 638q-23 0 -40 -12t-29 -39t-18.5 -71.5t-7.5 -109.5h191q-2 64 -8.5 108.5t-18.5 72
t-29 39.5t-40 12zM289 87q22 0 39 11t29 37t18.5 68t8.5 105h-190q2 -63 8.5 -105.5t18.5 -68t28.5 -36.5t39.5 -11z" />
    <glyph glyph-name="iota" unicode="&#x3b9;" horiz-adv-x="280" 
d="M70 0v540h140v-540h-140z" />
    <glyph glyph-name="kappa" unicode="&#x3ba;" horiz-adv-x="550" 
d="M70 0v540h140v-220l152 220h150l-181 -251l209 -289h-167l-163 232v-232h-140z" />
    <glyph glyph-name="lambda" unicode="&#x3bb;" horiz-adv-x="521" 
d="M366 0l-112 424l-105 -424h-139l162 540h49l-64 195h139l215 -735h-145z" />
    <glyph glyph-name="mu" unicode="&#x3bc;" horiz-adv-x="575" 
d="M210 540v-359q0 -45 13.5 -67t58.5 -22q24 0 44.5 6.5t38.5 17.5v424h140v-540h-95l-25 52q-19 -29 -44.5 -45.5t-67.5 -16.5q-28 0 -63 11v-171h-140v710h140z" />
    <glyph glyph-name="nu" unicode="&#x3bd;" horiz-adv-x="512" 
d="M507 540l-160 -540h-182l-160 540h151l106 -427l103 427h142z" />
    <glyph glyph-name="xi" unicode="&#x3be;" horiz-adv-x="522" 
d="M502 -8q0 -43 -16.5 -85t-45.5 -87l-93 19q15 26 25.5 51t10.5 47q0 28 -22.5 40.5t-73.5 18.5q-36 4 -76.5 16t-74.5 36.5t-56 63.5t-22 96q0 60 28 98.5t66 55.5q25 10 48 15q-10 2 -19 4q-10 3 -21 7q-32 14 -54.5 39t-22.5 67q0 45 26.5 73.5t72.5 45.5h-129v107h393
v-97h-33q-41 0 -77 -7t-62.5 -20.5t-41.5 -34t-15 -47.5t12 -44.5t30.5 -27.5t40.5 -13.5t42 -3.5h58v-108h-79q-20 0 -42 -4.5t-40 -15t-30 -28.5t-12 -45q0 -28 8.5 -47.5t26.5 -32t45 -20t64 -12.5q45 -6 76 -15.5t50 -24t27 -34t8 -46.5z" />
    <glyph glyph-name="omicron" unicode="&#x3bf;" horiz-adv-x="585" 
d="M53 270q0 83 21 138t55 87.5t77 46t87 13.5t87 -13t76.5 -45.5t54.5 -87.5t21 -139t-21 -138t-54.5 -85.5t-76.5 -44t-87 -12.5t-87 12.5t-77 44.5t-55 86t-21 137zM197 270q0 -57 6.5 -92.5t19.5 -56t30.5 -27.5t40.5 -7q22 0 40 7t30 27t18.5 55.5t6.5 93.5t-6.5 94.5
t-19 57.5t-30.5 28.5t-40 7.5q-23 0 -40.5 -8t-30 -29t-19 -57.5t-6.5 -93.5z" />
    <glyph glyph-name="pi" unicode="&#x3c0;" horiz-adv-x="588" 
d="M562 429h-75v-279q0 -33 10 -41t24 -8q8 0 16.5 1t10.5 2l15 -103q-13 -4 -34.5 -6.5t-35.5 -2.5q-36 0 -63 8t-45 27t-27 50.5t-9 78.5v273h-110v-429h-138v429h-79v111h540v-111z" />
    <glyph glyph-name="rho" unicode="&#x3c1;" horiz-adv-x="573" 
d="M70 -170v519q0 52 17.5 90.5t47.5 64t70.5 38.5t87.5 13q49 0 91 -12.5t72 -44t47 -86t17 -138.5q0 -74 -13.5 -128t-39.5 -88.5t-63 -51t-83 -16.5q-38 0 -65.5 12.5t-45.5 32.5v-205h-140zM210 115q14 -13 31 -21t39 -8q23 0 41.5 7t31.5 28t20 58.5t7 99.5
q0 56 -8 89.5t-20.5 51.5t-28 23.5t-31.5 5.5q-32 0 -57 -20.5t-25 -66.5v-247z" />
    <glyph glyph-name="sigma1" unicode="&#x3c2;" horiz-adv-x="522" 
d="M483 -8q0 -43 -16.5 -85t-45.5 -87l-93 19q15 26 25.5 51t10.5 47q0 26 -15.5 40.5t-63.5 19.5q-44 4 -86 19t-74.5 46.5t-52 83t-19.5 129.5q0 77 17 130.5t47.5 86.5t72 48t89.5 15q57 0 95.5 -16.5t62.5 -42.5t36 -57t15 -59l-133 -20q-4 97 -75 97q-15 0 -29.5 -6
t-26.5 -25.5t-19 -56t-7 -97.5q0 -44 7.5 -72.5t26 -46t51 -26.5t83.5 -15q67 -8 92 -38.5t25 -81.5z" />
    <glyph glyph-name="sigma" unicode="&#x3c3;" horiz-adv-x="585" 
d="M532 270q0 -84 -21 -138t-54.5 -85.5t-76.5 -44t-87 -12.5t-87 12.5t-77 44.5t-55 86t-21 137q0 90 25 145t63 85.5t83.5 41.5t87.5 13l241 14v-111h-87q25 -27 45.5 -72.5t20.5 -115.5zM197 270q0 -57 6.5 -92.5t19.5 -56t30.5 -27.5t40.5 -7q22 0 40 7t30 27t18.5 55.5
t6.5 93.5q0 43 -4.5 74t-12 53.5t-17.5 37t-20 23.5q-38 -1 -64 -9.5t-42.5 -29t-24 -56.5t-7.5 -93z" />
    <glyph glyph-name="tau" unicode="&#x3c4;" horiz-adv-x="496" 
d="M476 431h-159v-431h-139v431h-158v109h456v-109z" />
    <glyph glyph-name="upsilon" unicode="&#x3c5;" horiz-adv-x="577" 
d="M288 99q22 0 37.5 8t24.5 20t13 26.5t4 26.5v360h140v-359q0 -48 -16 -83.5t-45 -59.5t-69 -36t-89 -12t-89 12t-68.5 36t-44.5 59.5t-16 83.5v359h140v-360q0 -12 3.5 -26.5t12.5 -26.5t24 -20t38 -8z" />
    <glyph glyph-name="phi" unicode="&#x3c6;" horiz-adv-x="772" 
d="M719 273q0 -72 -18 -123t-53 -84t-87 -50.5t-119 -22.5v-163h-120v163q-65 5 -115 22.5t-84.5 50.5t-52 84t-17.5 123q0 69 11 118t29 82.5t42 53t50 28.5l86 -56q-17 -11 -32.5 -27t-26.5 -41.5t-17.5 -64t-6.5 -93.5q0 -51 9 -84.5t26 -54.5t42 -31t57 -13v438
q35 11 84.5 19t106.5 8q45 0 83 -12.5t65.5 -44t42.5 -86.5t15 -139zM582 273q0 55 -5.5 91t-16 57t-25.5 29t-34 8q-17 0 -30 -2t-29 -7v-359q34 3 60.5 13t44 30.5t26.5 54.5t9 85z" />
    <glyph glyph-name="chi" unicode="&#x3c7;" horiz-adv-x="541" 
d="M347 211l179 -381h-164l-102 257l-103 -257h-142l174 374l-161 336h159l90 -218l82 218h134z" />
    <glyph glyph-name="psi" unicode="&#x3c8;" horiz-adv-x="742" 
d="M435 540v-441q58 11 83.5 42t25.5 76v323h128v-308q0 -42 -13 -81.5t-41.5 -71.5t-73.5 -54.5t-109 -30.5v-164h-126v164q-65 7 -110.5 29.5t-74 55t-41.5 72t-13 81.5v308h128v-323q0 -45 25.5 -76t85.5 -42v441h126z" />
    <glyph glyph-name="omega" unicode="&#x3c9;" horiz-adv-x="776" 
d="M388 66q-14 -30 -48.5 -53t-88.5 -23q-92 0 -145 66t-53 207q0 88 27.5 161t87.5 131l102 -56q-22 -22 -37.5 -45t-25.5 -51t-14.5 -63.5t-4.5 -81.5q0 -88 18 -124.5t54 -36.5q16 0 28.5 5.5t21.5 20t14 39.5t5 65v159h118v-159q0 -40 5 -65t14 -39.5t21.5 -20
t28.5 -5.5q36 0 54 36.5t18 124.5q0 46 -4.5 81.5t-14.5 64t-25.5 51.5t-37.5 45l102 55q60 -58 87.5 -131t27.5 -161q0 -141 -53 -207t-145 -66q-54 0 -88.5 23t-48.5 53z" />
    <glyph glyph-name="iotadieresis" unicode="&#x3ca;" horiz-adv-x="280" 
d="M-37 610v115h132v-115h-132zM190 610v115h132v-115h-132zM70 0v540h140v-540h-140z" />
    <glyph glyph-name="upsilondieresis" unicode="&#x3cb;" horiz-adv-x="577" 
d="M288 99q22 0 37.5 8t24.5 20t13 26.5t4 26.5v360h140v-359q0 -48 -16 -83.5t-45 -59.5t-69 -36t-89 -12t-89 12t-68.5 36t-44.5 59.5t-16 83.5v359h140v-360q0 -12 3.5 -26.5t12.5 -26.5t24 -20t38 -8zM107 606v115h132v-115h-132zM334 606v115h132v-115h-132z" />
    <glyph glyph-name="omicrontonos" unicode="&#x3cc;" horiz-adv-x="585" 
d="M53 270q0 83 21 138t55 87.5t77 46t87 13.5t87 -13t76.5 -45.5t54.5 -87.5t21 -139t-21 -138t-54.5 -85.5t-76.5 -44t-87 -12.5t-87 12.5t-77 44.5t-55 86t-21 137zM197 270q0 -57 6.5 -92.5t19.5 -56t30.5 -27.5t40.5 -7q22 0 40 7t30 27t18.5 55.5t6.5 93.5t-6.5 94.5
t-19 57.5t-30.5 28.5t-40 7.5q-23 0 -40.5 -8t-30 -29t-19 -57.5t-6.5 -93.5zM291 735h149l-103 -147h-97z" />
    <glyph glyph-name="upsilontonos" unicode="&#x3cd;" horiz-adv-x="577" 
d="M288 99q22 0 37.5 8t24.5 20t13 26.5t4 26.5v360h140v-359q0 -48 -16 -83.5t-45 -59.5t-69 -36t-89 -12t-89 12t-68.5 36t-44.5 59.5t-16 83.5v359h140v-360q0 -12 3.5 -26.5t12.5 -26.5t24 -20t38 -8zM278 735h149l-103 -147h-97z" />
    <glyph glyph-name="omegatonos" unicode="&#x3ce;" horiz-adv-x="776" 
d="M388 66q-14 -30 -48.5 -53t-88.5 -23q-92 0 -145 66t-53 207q0 88 27.5 161t87.5 131l102 -56q-22 -22 -37.5 -45t-25.5 -51t-14.5 -63.5t-4.5 -81.5q0 -88 18 -124.5t54 -36.5q16 0 28.5 5.5t21.5 20t14 39.5t5 65v159h118v-159q0 -40 5 -65t14 -39.5t21.5 -20
t28.5 -5.5q36 0 54 36.5t18 124.5q0 46 -4.5 81.5t-14.5 64t-25.5 51.5t-37.5 45l102 55q60 -58 87.5 -131t27.5 -161q0 -141 -53 -207t-145 -66q-54 0 -88.5 23t-48.5 53zM367 735h149l-103 -147h-97z" />
    <glyph glyph-name="afii10023" unicode="&#x401;" horiz-adv-x="515" 
d="M95 772v108h132v-108h-132zM322 772v108h132v-108h-132zM435 309h-205v-196h235v-113h-385v720h385v-115h-235v-188h205v-108z" />
    <glyph glyph-name="afii10051" unicode="&#x402;" horiz-adv-x="725" 
d="M660 244q0 -79 -11.5 -129t-33.5 -79t-54 -40t-72 -11q-23 0 -52 4.5t-47 10.5v105q13 -3 30 -5.5t29 -2.5q14 0 25.5 5.5t19.5 22t12 46.5t4 78q0 47 -7 76.5t-18 46t-25.5 22t-30.5 5.5q-26 0 -46 -7.5t-37 -18.5v-373h-150v603h-176v117h524v-117h-198v-143
q57 45 148 45q30 0 59.5 -9.5t53 -37.5t38.5 -79.5t15 -134.5z" />
    <glyph glyph-name="afii10052" unicode="&#x403;" horiz-adv-x="507" 
d="M80 0v720h407v-118h-257v-602h-150zM289 885h152l-130 -117h-107z" />
    <glyph glyph-name="afii10053" unicode="&#x404;" horiz-adv-x="607" 
d="M330 94q44 0 64.5 26.5t29.5 71.5l143 -25q-8 -38 -25 -71t-45.5 -57.5t-70.5 -39t-100 -14.5q-48 0 -95.5 15.5t-85.5 57.5t-61.5 115t-23.5 187q0 112 23 185t61 115t87 58.5t100 16.5t89 -13t66 -36t45.5 -54.5t26.5 -68.5l-139 -27q-8 43 -29 67t-60 24
q-21 0 -39.5 -9.5t-33 -32.5t-25 -62t-14.5 -99h244v-106h-245q2 -69 11.5 -112.5t24.5 -68t35 -34t42 -9.5z" />
    <glyph glyph-name="afii10054" unicode="&#x405;" horiz-adv-x="587" 
d="M292 629q-36 0 -62.5 -17.5t-26.5 -58.5q0 -14 3 -26.5t13.5 -25t31.5 -25.5t58 -27q47 -18 88.5 -39t72.5 -49.5t49 -65.5t18 -88q0 -44 -13.5 -84t-43.5 -70.5t-77.5 -49t-115.5 -18.5q-65 0 -110 18.5t-74 45.5t-44 58t-19 56l141 20q2 -17 10.5 -33.5t22.5 -29
t33.5 -20t42.5 -7.5q16 0 33 4.5t31 15t22.5 27.5t8.5 43q0 29 -13 48.5t-36 34.5t-55 28.5t-71 31.5q-45 20 -75 42t-48.5 47.5t-26.5 55t-8 65.5q0 44 16.5 80.5t47.5 63t76.5 41t103.5 14.5q59 0 100.5 -16t68.5 -40.5t42 -54t21 -55.5l-139 -25q-5 33 -30 59t-67 26z
" />
    <glyph glyph-name="afii10055" unicode="&#x406;" horiz-adv-x="310" 
d="M230 720v-720h-150v720h150z" />
    <glyph glyph-name="afii10056" unicode="&#x407;" horiz-adv-x="310" 
d="M-23 770v115h132v-115h-132zM204 770v115h132v-115h-132zM230 720v-720h-150v720h150z" />
    <glyph glyph-name="afii10057" unicode="&#x408;" horiz-adv-x="389" 
d="M164 720h150v-528q0 -42 -8.5 -79.5t-30.5 -66t-60.5 -45t-97.5 -16.5q-28 0 -58.5 4.5t-48.5 10.5v112q17 -5 37 -8t34 -3q18 0 33 3.5t26.5 14t17.5 30t6 51.5v520z" />
    <glyph glyph-name="afii10058" unicode="&#x409;" horiz-adv-x="951" 
d="M185 720h397v-290h48q67 0 119.5 -11.5t88.5 -37t54.5 -67t18.5 -100.5q0 -60 -18.5 -101t-54.5 -66t-89 -36t-121 -11h-196v612h-125l-56 -390q-10 -71 -31.5 -114.5t-52.5 -67.5t-71 -32t-86 -8v112q19 0 35.5 4t29.5 15t22 31t14 53zM582 327v-225h53q24 0 46 4.5
t39 17t27 34t10 56.5q0 60 -33 86.5t-84 26.5h-58z" />
    <glyph glyph-name="afii10059" unicode="&#x40a;" horiz-adv-x="944" 
d="M575 720v-290h48q67 0 119.5 -11.5t88.5 -37t54.5 -67t18.5 -100.5q0 -60 -18.5 -101t-54.5 -66t-89 -36t-121 -11h-196v310h-195v-310h-150v720h150v-302h195v302h150zM575 327v-225h53q24 0 46 4.5t39 17t27 34t10 56.5q0 60 -33 86.5t-84 26.5h-58z" />
    <glyph glyph-name="afii10060" unicode="&#x40b;" horiz-adv-x="725" 
d="M505 0v309q0 45 -14 67t-59 22q-26 0 -47 -10t-39 -27v-361h-150v603h-176v117h524v-117h-198v-159q26 29 61.5 45t80.5 16q79 0 123 -45.5t44 -149.5v-310h-150z" />
    <glyph glyph-name="afii10061" unicode="&#x40c;" horiz-adv-x="619" 
d="M426 0l-196 313v-313h-150v720h150v-300l183 300h158l-216 -337l254 -383h-183zM343 885h152l-130 -117h-107z" />
    <glyph glyph-name="afii10062" unicode="&#x40e;" horiz-adv-x="531" 
d="M267 762q-33 0 -62 5.5t-52 19.5t-39 37.5t-22 60.5h119q5 -25 20.5 -33t35.5 -8t35.5 8t20.5 33h119q-6 -37 -22 -60.5t-39 -37.5t-52 -19.5t-62 -5.5zM355 145q-12 -39 -26 -69t-35 -50.5t-51.5 -30.5t-75.5 -10q-20 0 -46.5 4.5t-43.5 10.5v107q17 -5 36 -8.5t33 -3.5
q36 0 53 15t22 50h-50l-161 560h156l99 -438l110 438h146z" />
    <glyph glyph-name="afii10145" unicode="&#x40f;" horiz-adv-x="655" 
d="M268 -135l-12 135h-176v720h150v-611h195v611h150v-720h-176l-11 -135h-120z" />
    <glyph glyph-name="afii10017" unicode="&#x410;" horiz-adv-x="626" 
d="M462 0l-44 167h-222l-44 -167h-147l221 720h171l224 -720h-159zM224 269h167l-83 315z" />
    <glyph glyph-name="afii10018" unicode="&#x411;" horiz-adv-x="604" 
d="M502 720v-110h-272v-180h48q67 0 119.5 -11.5t88.5 -37t54.5 -67t18.5 -100.5q0 -60 -18.5 -101t-54.5 -66t-89 -36t-121 -11h-196v720h422zM230 327v-225h53q24 0 46 4.5t39 17t27 34t10 56.5q0 60 -33 86.5t-84 26.5h-58z" />
    <glyph glyph-name="afii10019" unicode="&#x412;" horiz-adv-x="609" 
d="M267 720q60 0 110 -8t86 -29.5t56.5 -59.5t20.5 -97q0 -26 -7 -50.5t-20 -44.5t-30.5 -33.5t-38.5 -17.5q8 -2 19.5 -5.5t22.5 -8.5q35 -17 56.5 -55.5t21.5 -99.5q0 -60 -18.5 -100.5t-54.5 -65t-89 -35t-121 -10.5h-201v720h187zM230 328v-226h58q24 0 46 4t39 16
t27 33t10 56q0 60 -33 88.5t-84 28.5h-63zM230 618v-194h53q15 0 33.5 3t35 13.5t27.5 30.5t11 55q0 26 -10 43.5t-26 28.5t-35.5 15.5t-38.5 4.5h-50z" />
    <glyph glyph-name="afii10020" unicode="&#x413;" horiz-adv-x="507" 
d="M80 0v720h407v-118h-257v-602h-150z" />
    <glyph glyph-name="afii10021" unicode="&#x414;" horiz-adv-x="653" 
d="M493 -135l-20 135h-323l-20 -135h-120v243h38q49 27 60 107l69 505h396v-612h40v-243h-120zM426 108v504h-128l-46 -354q-8 -58 -26.5 -92.5t-41.5 -57.5h242z" />
    <glyph glyph-name="afii10022" unicode="&#x415;" horiz-adv-x="515" 
d="M435 309h-205v-196h235v-113h-385v720h385v-115h-235v-188h205v-108z" />
    <glyph glyph-name="afii10024" unicode="&#x416;" horiz-adv-x="878" 
d="M206 720l163 -310v310h140v-310l163 310h158l-191 -337l229 -383h-183l-176 323v-323h-140v323l-176 -323h-183l229 383l-191 337h158z" />
    <glyph glyph-name="afii10025" unicode="&#x417;" horiz-adv-x="560" 
d="M272 95q17 0 33 5t29 17.5t20.5 34t7.5 53.5q0 41 -11.5 65.5t-29.5 37.5t-40 17t-43 4h-50v110h58q16 0 34 4t33 15t25 30t10 48q0 28 -9 45.5t-22.5 27.5t-28.5 13.5t-26 3.5q-42 0 -65.5 -28.5t-28.5 -68.5l-138 22q9 39 29 72.5t50 58.5t70.5 39t90.5 14
q40 0 81 -10.5t74 -33t53.5 -58t20.5 -84.5v-5q0 -31 -12 -57.5t-30.5 -46.5t-40.5 -33t-41 -17q9 -2 20 -5.5t24 -8.5q19 -8 36.5 -22.5t30.5 -35.5t21 -48.5t8 -61.5q0 -57 -20 -98.5t-53 -69.5t-76.5 -41.5t-90.5 -13.5q-58 0 -101 17t-73 44t-47 61t-23 67l141 17
q1 -16 8 -33t19.5 -31t30.5 -23t42 -9z" />
    <glyph glyph-name="afii10026" unicode="&#x418;" horiz-adv-x="686" 
d="M223 720v-440l239 390v50h144v-720h-143v446l-239 -396v-50h-144v720h143z" />
    <glyph glyph-name="afii10027" unicode="&#x419;" horiz-adv-x="686" 
d="M223 720v-440l239 390v50h144v-720h-143v446l-239 -396v-50h-144v720h143zM342 762q-33 0 -62 5.5t-52 19.5t-39 37.5t-22 60.5h119q5 -25 20.5 -33t35.5 -8t35.5 8t20.5 33h119q-6 -37 -22 -60.5t-39 -37.5t-52 -19.5t-62 -5.5z" />
    <glyph glyph-name="afii10028" unicode="&#x41a;" horiz-adv-x="619" 
d="M426 0l-196 313v-313h-150v720h150v-300l183 300h158l-216 -337l254 -383h-183z" />
    <glyph glyph-name="afii10029" unicode="&#x41b;" horiz-adv-x="662" 
d="M185 720h397v-720h-150v612h-125l-56 -390q-10 -71 -31.5 -114.5t-52.5 -67.5t-71 -32t-86 -8v112q19 0 35.5 4t29.5 15t22 31t14 53z" />
    <glyph glyph-name="afii10030" unicode="&#x41c;" horiz-adv-x="822" 
d="M352 0l-145 509v-509h-127v720h186l146 -523l140 523h190v-720h-137v509l-141 -509h-112z" />
    <glyph glyph-name="afii10031" unicode="&#x41d;" horiz-adv-x="655" 
d="M575 720v-720h-150v310h-195v-310h-150v720h150v-302h195v302h150z" />
    <glyph glyph-name="afii10032" unicode="&#x41e;" horiz-adv-x="683" 
d="M60 360q0 105 21.5 176.5t59 115.5t89 63.5t111.5 19.5t111.5 -19.5t89.5 -63.5t59.5 -115.5t21.5 -176.5t-21.5 -176.5t-59 -115.5t-89 -63.5t-112.5 -19.5t-112.5 19.5t-89 63.5t-58.5 115.5t-21 176.5zM213 360q0 -76 9 -127t25.5 -81.5t40.5 -43.5t53 -13t53 13
t41 44t26 82t9 126t-10 126t-27 82t-41 44.5t-51 13.5t-50.5 -13t-41 -44t-27 -82t-9.5 -127z" />
    <glyph glyph-name="afii10033" unicode="&#x41f;" horiz-adv-x="655" 
d="M575 720v-720h-150v611h-195v-611h-150v720h495z" />
    <glyph glyph-name="afii10034" unicode="&#x420;" horiz-adv-x="578" 
d="M273 720q56 0 106 -9.5t87.5 -35.5t59.5 -72.5t22 -120.5t-22.5 -120.5t-59.5 -72.5t-86 -35.5t-101 -9.5h-49v-244h-150v720h193zM230 613v-262h51q19 0 39 5t36 19t26 39.5t10 67.5t-9.5 67.5t-26 39.5t-37.5 19t-44 5h-45z" />
    <glyph glyph-name="afii10035" unicode="&#x421;" horiz-adv-x="603" 
d="M327 94q45 0 70.5 33t29.5 85l141 -15q-5 -34 -20 -71.5t-44.5 -68.5t-74 -51.5t-107.5 -20.5q-48 0 -95 15.5t-84 57.5t-60 115t-23 187q0 112 23.5 185t61.5 115t87.5 58.5t100.5 16.5q55 0 95.5 -18.5t68.5 -47.5t43.5 -65t21.5 -71l-139 -17q-4 24 -10.5 44t-17.5 35
t-27 23.5t-38 8.5q-23 0 -43 -12t-36 -42t-25 -82t-9 -131q0 -80 8.5 -131.5t23 -81.5t34.5 -41.5t44 -11.5z" />
    <glyph glyph-name="afii10036" unicode="&#x422;" horiz-adv-x="544" 
d="M524 602h-178v-602h-150v602h-176v118h504v-118z" />
    <glyph glyph-name="afii10037" unicode="&#x423;" horiz-adv-x="531" 
d="M355 145q-12 -39 -26 -69t-35 -50.5t-51.5 -30.5t-75.5 -10q-20 0 -46.5 4.5t-43.5 10.5v107q17 -5 36 -8.5t33 -3.5q36 0 53 15t22 50h-50l-161 560h156l99 -438l110 438h146z" />
    <glyph glyph-name="afii10038" unicode="&#x424;" horiz-adv-x="814" 
d="M472 750v-77q48 -5 99.5 -23t94 -55t70.5 -95t28 -142t-28 -141.5t-70.5 -94t-94 -54.5t-99.5 -22v-76h-130v76q-48 4 -99.5 22t-94 54.5t-70.5 94t-28 141.5t28 142t70.5 95t94 55t99.5 23v77h130zM190 357q0 -57 15 -94t38 -59.5t49.5 -33t49.5 -13.5v406
q-23 -4 -50 -15.5t-49.5 -34.5t-37.5 -61t-15 -95zM624 357q0 57 -15 95t-38 61t-49.5 34.5t-49.5 15.5v-406q23 3 49.5 13.5t49.5 33t38 59.5t15 94z" />
    <glyph glyph-name="afii10039" unicode="&#x425;" horiz-adv-x="607" 
d="M384 391l203 -391h-177l-116 245l-123 -245h-151l206 374l-188 346h174l104 -211l113 211h142z" />
    <glyph glyph-name="afii10040" unicode="&#x426;" horiz-adv-x="649" 
d="M80 720h150v-611h185v611h150v-611h40v-244h-120l-17 135h-388v720z" />
    <glyph glyph-name="afii10041" unicode="&#x427;" horiz-adv-x="632" 
d="M258 243q-41 0 -75.5 11t-59.5 36.5t-39 66.5t-14 102v261h150v-260q0 -37 9 -58.5t22.5 -32t28.5 -13.5t27 -3q23 0 49 2.5t47 5.5v359h149v-720h-149v255q-27 -5 -63.5 -8.5t-81.5 -3.5z" />
    <glyph glyph-name="afii10042" unicode="&#x428;" horiz-adv-x="913" 
d="M80 0v720h150v-611h157v611h139v-611h157v611h150v-720h-753z" />
    <glyph glyph-name="afii10043" unicode="&#x429;" horiz-adv-x="917" 
d="M80 0v720h150v-611h157v611h139v-611h157v611h150v-611h40v-244h-120l-17 135h-656z" />
    <glyph glyph-name="afii10044" unicode="&#x42a;" horiz-adv-x="646" 
d="M10 720h277v-280h38q135 0 208 -51.5t73 -169.5q0 -60 -18.5 -102t-54.5 -68t-89 -37.5t-121 -11.5h-186v610h-127v110zM287 337v-235h43q24 0 46 5.5t39 18.5t27 35.5t10 57.5q0 60 -33 89t-84 29h-48z" />
    <glyph glyph-name="afii10045" unicode="&#x42b;" horiz-adv-x="879" 
d="M799 720v-720h-150v720h150zM230 720v-280h38q135 0 208 -51.5t73 -169.5q0 -60 -18.5 -102t-54.5 -68t-89 -37.5t-121 -11.5h-186v720h150zM230 337v-235h43q24 0 46 5.5t39 18.5t27 35.5t10 57.5q0 60 -33 89t-84 29h-48z" />
    <glyph glyph-name="afii10046" unicode="&#x42c;" horiz-adv-x="589" 
d="M230 720v-280h38q135 0 208 -51.5t73 -169.5q0 -60 -18.5 -102t-54.5 -68t-89 -37.5t-121 -11.5h-186v720h150zM230 337v-235h43q24 0 46 5.5t39 18.5t27 35.5t10 57.5q0 60 -33 89t-84 29h-48z" />
    <glyph glyph-name="afii10047" unicode="&#x42d;" horiz-adv-x="607" 
d="M287 94q22 0 41 10t33 35.5t22.5 69t10.5 109.5h-231v106h230q-3 63 -12.5 102.5t-23.5 62t-32.5 30.5t-39.5 8q-38 0 -64 -24t-34 -67l-140 27q9 37 30 68.5t52 54.5t70.5 36t86.5 13q54 0 102 -15.5t83 -57.5t55.5 -115t20.5 -187t-22 -187t-58 -115t-83.5 -57.5
t-98.5 -15.5q-53 0 -95 14.5t-72.5 39t-50 57.5t-27.5 71l143 25q9 -45 34 -71.5t70 -26.5z" />
    <glyph glyph-name="afii10048" unicode="&#x42e;" horiz-adv-x="931" 
d="M230 720v-302h80q6 88 29.5 148.5t60 98t85 54t104.5 16.5q60 0 111.5 -19.5t89.5 -63.5t59.5 -115.5t21.5 -176.5t-21.5 -176.5t-59 -115.5t-89 -63.5t-112.5 -19.5q-57 0 -106 17t-86 55t-60 100.5t-28 152.5h-79v-310h-150v720h150zM461 360q0 -76 9 -127t25.5 -81.5
t40.5 -43.5t53 -13t53 13t41 44t26 82t9 126t-10 126t-27 82t-41 44.5t-51 13.5t-50.5 -13t-41 -44t-27 -82t-9.5 -127z" />
    <glyph glyph-name="afii10049" unicode="&#x42f;" horiz-adv-x="603" 
d="M10 0l172 298q-28 12 -51 28.5t-39.5 40t-25.5 55t-9 72.5q0 64 20.5 107t56.5 69.5t85 38t106 11.5h198v-720h-150v267h-48l-141 -267h-174zM323 612q-21 0 -41 -4.5t-35.5 -17t-24.5 -36t-9 -60.5q0 -35 9.5 -58t24.5 -36.5t33.5 -19.5t36.5 -6h56v238h-50z" />
    <glyph glyph-name="afii10065" unicode="&#x430;" horiz-adv-x="545" 
d="M386 0l-31 58q-21 -29 -56.5 -48.5t-90.5 -19.5q-27 0 -56.5 9t-54.5 29t-41 52t-16 78q0 41 16 72.5t43.5 54t63.5 35.5t77 18l95 13v33q0 78 -67 78q-28 0 -48.5 -16.5t-25.5 -51.5l-135 20q8 25 23.5 50.5t41.5 45.5t63.5 32.5t90.5 12.5q94 0 145.5 -45t51.5 -144
v-366h-89zM262 89q36 0 73 25v154l-57 -9q-45 -8 -72 -27t-27 -59q0 -26 7.5 -42.5t19.5 -25.5t27 -12.5t29 -3.5z" />
    <glyph glyph-name="afii10066" unicode="&#x431;" horiz-adv-x="595" 
d="M340 603q-32 -5 -57.5 -10.5t-45 -16.5t-32 -30.5t-18.5 -51.5q25 27 57.5 44t80.5 17q42 0 80 -13t67 -45.5t46 -87.5t17 -139q0 -80 -19 -134t-51.5 -86.5t-75.5 -46t-91 -13.5q-50 0 -93.5 17.5t-75.5 52t-50.5 87t-18.5 123.5q0 91 8 164.5t30 126.5t62 85.5
t103 42.5q27 4 44 10t26 14t12 17t3 20h141q0 -31 -6.5 -55.5t-23.5 -43t-45.5 -30.5t-73.5 -18zM201 270q0 -53 7.5 -88t21 -56t31.5 -30t38 -9q21 0 38 7t29.5 27t19 55.5t6.5 93.5q0 54 -6.5 90t-18.5 57.5t-29.5 30.5t-39.5 9q-18 0 -35.5 -7t-31 -27.5t-22 -57
t-8.5 -95.5z" />
    <glyph glyph-name="afii10067" unicode="&#x432;" horiz-adv-x="559" 
d="M277 540q53 0 93.5 -6.5t68 -22.5t41.5 -43t14 -69q0 -40 -25 -72.5t-73 -40.5q25 -3 47 -12t39 -25t27 -39t10 -53q0 -40 -12.5 -69.5t-40.5 -49t-73 -29t-109 -9.5h-214v540h207zM210 236v-141h74q45 0 68 14.5t23 57.5q0 34 -23.5 51.5t-62.5 17.5h-79zM210 444v-117
h78q10 0 22 2t22.5 8.5t17 18.5t6.5 33q0 29 -19.5 42t-54.5 13h-72z" />
    <glyph glyph-name="afii10068" unicode="&#x433;" horiz-adv-x="438" 
d="M70 0v540h348v-103h-208v-437h-140z" />
    <glyph glyph-name="afii10069" unicode="&#x434;" horiz-adv-x="588" 
d="M10 -115v220h41q19 13 32.5 35t19.5 60l55 340h360v-435h35v-220h-98l-18 115h-303l-23 -115h-101zM379 105v332h-107l-38 -230q-5 -34 -20 -59t-33 -43h198z" />
    <glyph glyph-name="afii10070" unicode="&#x435;" horiz-adv-x="546" 
d="M287 91q34 0 53.5 19t25.5 48l127 -20q-8 -27 -24 -53.5t-42 -47.5t-62.5 -34t-85.5 -13q-46 0 -87 15t-72 48t-49 86.5t-18 130.5q0 79 17.5 133.5t48.5 88t72 48.5t88 15q64 0 106 -21.5t67.5 -63.5t36 -102.5t10.5 -138.5h-303q3 -42 11.5 -69t20.5 -42.5t27 -21
t32 -5.5zM283 465q-17 0 -32 -5t-27 -20.5t-20 -44t-10 -74.5h174q-1 42 -7.5 70t-18 44.5t-26.5 23t-33 6.5z" />
    <glyph glyph-name="afii10072" unicode="&#x436;" horiz-adv-x="748" 
d="M182 540l124 -224v224h136v-224l124 224h144l-156 -251l184 -289h-160l-136 237v-237h-136v237l-136 -237h-160l180 289l-152 251h144z" />
    <glyph glyph-name="afii10073" unicode="&#x437;" horiz-adv-x="508" 
d="M245 89q16 0 30.5 3.5t26 12t18.5 23.5t7 38q0 36 -24.5 50.5t-61.5 14.5h-45v94h43q31 0 53 14.5t22 52.5q0 37 -22.5 51.5t-48.5 14.5q-38 0 -57.5 -23.5t-24.5 -54.5l-128 17q9 40 30.5 69.5t50.5 49t64.5 29.5t73.5 10q40 0 77 -8t65 -26t44.5 -46.5t16.5 -69.5
q0 -48 -28 -78.5t-79 -41.5q23 -2 45 -10.5t39 -24.5t27.5 -40t10.5 -58q0 -45 -19 -75.5t-50 -50t-70.5 -28t-79.5 -8.5q-49 0 -87.5 12.5t-66.5 33.5t-45 49.5t-22 61.5l132 17q4 -32 25 -53.5t58 -21.5z" />
    <glyph glyph-name="afii10074" unicode="&#x438;" horiz-adv-x="613" 
d="M202 540v-322l208 292v30h133v-540h-133v316l-208 -286v-30h-132v540h132z" />
    <glyph glyph-name="afii10075" unicode="&#x439;" horiz-adv-x="613" 
d="M304 602q-33 0 -62 6t-52 21t-39 41t-22 65h119q5 -33 17.5 -47t38.5 -14t38.5 14t17.5 47h119q-6 -39 -22 -65t-39 -41t-52 -21t-62 -6zM202 540v-322l208 292v30h133v-540h-133v316l-208 -286v-30h-132v540h132z" />
    <glyph glyph-name="afii10076" unicode="&#x43a;" horiz-adv-x="550" 
d="M70 0v540h140v-220l152 220h150l-181 -251l209 -289h-167l-163 232v-232h-140z" />
    <glyph glyph-name="afii10077" unicode="&#x43b;" horiz-adv-x="587" 
d="M517 0h-140v437h-111l-32 -230q-9 -62 -24.5 -102t-41.5 -63.5t-64.5 -32.5t-93.5 -9v105q48 0 67 21.5t25 73.5l46 340h369v-540z" />
    <glyph glyph-name="afii10078" unicode="&#x43c;" horiz-adv-x="750" 
d="M316 0l-126 382v-382h-120v540h189l116 -373l113 373h192v-540h-130v382l-122 -382h-112z" />
    <glyph glyph-name="afii10079" unicode="&#x43d;" horiz-adv-x="602" 
d="M532 540v-540h-140v218h-182v-218h-140v540h140v-219h182v219h140z" />
    <glyph glyph-name="afii10080" unicode="&#x43e;" horiz-adv-x="585" 
d="M53 270q0 83 21 138t55 87.5t77 46t87 13.5t87 -13t76.5 -45.5t54.5 -87.5t21 -139t-21 -138t-54.5 -85.5t-76.5 -44t-87 -12.5t-87 12.5t-77 44.5t-55 86t-21 137zM197 270q0 -57 6.5 -92.5t19.5 -56t30.5 -27.5t40.5 -7q22 0 40 7t30 27t18.5 55.5t6.5 93.5t-6.5 94.5
t-19 57.5t-30.5 28.5t-40 7.5q-23 0 -40.5 -8t-30 -29t-19 -57.5t-6.5 -93.5z" />
    <glyph glyph-name="afii10081" unicode="&#x43f;" horiz-adv-x="602" 
d="M532 0h-140v436h-182v-436h-140v540h462v-540z" />
    <glyph glyph-name="afii10082" unicode="&#x440;" horiz-adv-x="555" 
d="M70 -170v710h131l2 -47q24 29 58 45.5t82 16.5q30 0 58.5 -12t51 -43.5t36 -86t13.5 -139.5q0 -149 -47 -216.5t-141 -67.5q-36 0 -61.5 11t-42.5 29v-200h-140zM285 449q-23 0 -41 -9.5t-34 -23.5v-305q12 -11 27.5 -18t35.5 -7q22 0 39 7t28 28t16.5 58.5t5.5 99.5
q0 54 -6 87.5t-16.5 51.5t-24.5 24.5t-30 6.5z" />
    <glyph glyph-name="afii10083" unicode="&#x441;" horiz-adv-x="528" 
d="M280 457q-15 0 -29.5 -6t-26.5 -25.5t-19 -56t-7 -97.5t8 -97t20 -55.5t27 -25.5t29 -6q19 0 32.5 8t22 21t13 30.5t6.5 36.5l138 -16q-6 -32 -20 -63.5t-39.5 -57t-63.5 -41.5t-91 -16q-45 0 -86 13t-72.5 45.5t-50 87.5t-18.5 139q0 77 17 130.5t47.5 86.5t72 48
t89.5 15q57 0 95.5 -16.5t62.5 -42.5t36 -57t15 -59l-133 -20q-4 97 -75 97z" />
    <glyph glyph-name="afii10084" unicode="&#x442;" horiz-adv-x="496" 
d="M476 431h-159v-431h-139v431h-158v109h456v-109z" />
    <glyph glyph-name="afii10085" unicode="&#x443;" horiz-adv-x="511" 
d="M340 -15q-12 -39 -26 -67.5t-34 -47t-48.5 -27t-69.5 -8.5q-20 0 -46 3.5t-44 8.5v100q18 -5 38 -7t31 -2q36 0 52 13.5t21 48.5h-46l-163 540h147l102 -428l116 428h136z" />
    <glyph glyph-name="afii10086" unicode="&#x444;" horiz-adv-x="756" 
d="M703 273q0 -85 -13.5 -139.5t-35 -86.5t-49.5 -44.5t-58 -12.5q-69 0 -109 34v-194h-120v194q-40 -34 -109 -34q-30 0 -58 12.5t-49.5 44.5t-35 86.5t-13.5 139.5q0 84 13.5 139t35 86.5t49.5 44t58 12.5q35 0 61.5 -9t47.5 -26v150h120v-150q41 35 109 35q30 0 58 -12.5
t49.5 -44t35 -86.5t13.5 -139zM267 449q-19 0 -33.5 -7t-24 -26t-14.5 -53.5t-5 -89.5q0 -54 5 -88.5t14.5 -54t24 -27t33.5 -7.5q14 0 27 4t24 11v323q-11 7 -24 11t-27 4zM489 96q19 0 33.5 7.5t24 27t14.5 54t5 88.5q0 55 -5 89.5t-14.5 53.5t-24 26t-33.5 7
q-14 0 -27 -4t-24 -11v-323q11 -7 24 -11t27 -4z" />
    <glyph glyph-name="afii10087" unicode="&#x445;" horiz-adv-x="541" 
d="M347 299l179 -299h-167l-99 182l-100 -182h-145l172 286l-159 254h162l85 -143l81 143h137z" />
    <glyph glyph-name="afii10088" unicode="&#x446;" horiz-adv-x="595" 
d="M436 0h-366v540h140v-436h172v436h140v-436h34v-219h-104z" />
    <glyph glyph-name="afii10089" unicode="&#x447;" horiz-adv-x="572" 
d="M202 540v-223q0 -22 6 -35t15.5 -20.5t22 -10t25.5 -2.5q18 0 42.5 3t48.5 10v278h140v-540h-140v163q-31 -11 -68.5 -17t-72.5 -6q-74 0 -116.5 41.5t-42.5 136.5v222h140z" />
    <glyph glyph-name="afii10090" unicode="&#x448;" horiz-adv-x="817" 
d="M70 540h135v-436h140v436h126v-436h141v436h135v-540h-677v540z" />
    <glyph glyph-name="afii10091" unicode="&#x449;" horiz-adv-x="821" 
d="M70 540h135v-436h140v436h126v-436h141v436h135v-436h35v-219h-104l-16 115h-592v540z" />
    <glyph glyph-name="afii10092" unicode="&#x44a;" horiz-adv-x="578" 
d="M15 540h222v-189h75q64 0 108 -12t71.5 -35t39.5 -56t12 -75t-12.5 -74.5t-40.5 -54.5t-73 -33t-109 -11h-211v439h-82v101zM237 253v-158h71q45 0 68 17.5t23 60.5q0 42 -23.5 61t-62.5 19h-76z" />
    <glyph glyph-name="afii10093" unicode="&#x44b;" horiz-adv-x="798" 
d="M728 540v-540h-138v540h138zM210 540v-189h75q64 0 108 -12t71.5 -35t39.5 -56t12 -75t-12.5 -74.5t-40.5 -54.5t-73 -33t-109 -11h-211v540h140zM210 253v-158h71q45 0 68 17.5t23 60.5q0 42 -23.5 61t-62.5 19h-76z" />
    <glyph glyph-name="afii10094" unicode="&#x44c;" horiz-adv-x="551" 
d="M210 540v-189h75q64 0 108 -12t71.5 -35t39.5 -56t12 -75t-12.5 -74.5t-40.5 -54.5t-73 -33t-109 -11h-211v540h140zM210 253v-158h71q45 0 68 17.5t23 60.5q0 42 -23.5 61t-62.5 19h-76z" />
    <glyph glyph-name="afii10095" unicode="&#x44d;" horiz-adv-x="517" 
d="M154 226v94h172q-3 45 -11 72t-19 41.5t-24.5 19t-28.5 4.5q-26 0 -47 -15t-30 -52l-131 25q6 22 21 46.5t40.5 45.5t62.5 34.5t88 13.5t91.5 -15.5t68 -49t42.5 -87t15 -128.5q0 -81 -18.5 -136t-49 -88t-70 -47t-81.5 -14q-54 0 -92 14t-63 35.5t-39 46.5t-21 47
l134 21q5 -27 24 -46.5t54 -19.5q13 0 27 4.5t25.5 19.5t20 42t11.5 72h-172z" />
    <glyph glyph-name="afii10096" unicode="&#x44e;" horiz-adv-x="807" 
d="M210 540v-219h67q7 67 30 112t55.5 72t72 38.5t80.5 11.5q44 0 87 -13t76.5 -45.5t54.5 -87.5t21 -139t-21 -138t-54.5 -85.5t-76.5 -44t-87 -12.5q-41 0 -80.5 10.5t-72 36.5t-55.5 70t-30 111h-67v-218h-140v540h140zM419 270q0 -57 6.5 -92.5t19.5 -56t30.5 -27.5
t40.5 -7q22 0 40 7t30 27t18.5 55.5t6.5 93.5t-6.5 94.5t-19 57.5t-30.5 28.5t-40 7.5q-23 0 -40.5 -8t-30 -29t-19 -57.5t-6.5 -93.5z" />
    <glyph glyph-name="afii10097" unicode="&#x44f;" horiz-adv-x="543" 
d="M10 0l117 218q-37 21 -61.5 56t-24.5 89q0 56 17 90.5t48 54t73 26t93 6.5h201v-540h-140v186h-68l-97 -186h-158zM186 363q0 -42 22.5 -61.5t58.5 -19.5h66v163h-60q-17 0 -32.5 -4t-27.5 -14t-19.5 -25.5t-7.5 -38.5z" />
    <glyph glyph-name="afii10071" unicode="&#x451;" horiz-adv-x="546" 
d="M102 610v115h132v-115h-132zM329 610v115h132v-115h-132zM287 91q34 0 53.5 19t25.5 48l127 -20q-8 -27 -24 -53.5t-42 -47.5t-62.5 -34t-85.5 -13q-46 0 -87 15t-72 48t-49 86.5t-18 130.5q0 79 17.5 133.5t48.5 88t72 48.5t88 15q64 0 106 -21.5t67.5 -63.5t36 -102.5
t10.5 -138.5h-303q3 -42 11.5 -69t20.5 -42.5t27 -21t32 -5.5zM283 465q-17 0 -32 -5t-27 -20.5t-20 -44t-10 -74.5h174q-1 42 -7.5 70t-18 44.5t-26.5 23t-33 6.5z" />
    <glyph glyph-name="afii10099" unicode="&#x452;" horiz-adv-x="583" 
d="M258 -50q13 -3 29.5 -5.5t28.5 -2.5q29 0 43 12t14 45v355q0 45 -15.5 67t-60.5 22q-26 0 -47.5 -11.5t-39.5 -28.5v-403h-140v595h-55v90h55v50h140v-50h163v-90h-163v-110q25 29 58 44.5t78 15.5q37 0 67.5 -11t52.5 -34.5t34.5 -60.5t12.5 -89v-354q0 -79 -42.5 -120
t-118.5 -41q-23 0 -49.5 4.5t-44.5 10.5v100z" />
    <glyph glyph-name="afii10100" unicode="&#x453;" horiz-adv-x="447" 
d="M70 0v540h348v-103h-208v-437h-140zM270 735h157l-152 -137h-105z" />
    <glyph glyph-name="afii10101" unicode="&#x454;" horiz-adv-x="526" 
d="M194 226q3 -45 12.5 -72.5t21.5 -42t25.5 -19t25.5 -4.5q35 0 52 19.5t22 46.5l134 -21q-7 -22 -20.5 -47t-37.5 -46.5t-61.5 -35.5t-92.5 -14q-42 0 -82 13t-71 45.5t-50 87.5t-19 139q0 73 16 126t46 87t71.5 50.5t92.5 16.5t87 -13.5t59.5 -34.5t37 -45.5t19.5 -46.5
l-130 -25q-8 39 -27 53t-45 14q-12 0 -26 -5t-26.5 -19.5t-21.5 -41.5t-12 -71h166v-94h-166z" />
    <glyph glyph-name="afii10102" unicode="&#x455;" horiz-adv-x="514" 
d="M251 -10q-47 0 -84.5 12.5t-64 32.5t-43 46t-21.5 52l135 27q5 -33 26.5 -52t53.5 -19t51 13.5t19 41.5q0 15 -6.5 25.5t-20 19t-33.5 15.5t-48 16q-37 11 -66.5 24.5t-50.5 33.5t-32 47.5t-11 66.5q0 41 15 71.5t42 51t64.5 30.5t82.5 10q48 0 83.5 -12.5t59.5 -32.5
t38.5 -44.5t20.5 -48.5l-131 -26q-5 28 -21 47t-51 19q-28 0 -45.5 -13.5t-17.5 -40.5q0 -17 7.5 -27.5t20 -17.5t30.5 -12.5t39 -12.5q34 -11 65.5 -23t55 -30t37.5 -45.5t14 -70.5q0 -45 -16 -78t-44.5 -54t-67.5 -31.5t-85 -10.5z" />
    <glyph glyph-name="afii10103" unicode="&#x456;" horiz-adv-x="280" 
d="M70 0v540h140v-540h-140zM64 610v125h152v-125h-152z" />
    <glyph glyph-name="afii10104" unicode="&#x457;" horiz-adv-x="280" 
d="M70 0v540h140v-540h-140zM-38 610v115h132v-115h-132zM189 610v115h132v-115h-132z" />
    <glyph glyph-name="afii10105" unicode="&#x458;" horiz-adv-x="282" 
d="M-45 -50q13 -3 29.5 -5.5t28.5 -2.5q29 0 43 12t14 45v541h140v-544q0 -79 -42.5 -120t-118.5 -41q-23 0 -49.5 4.5t-44.5 10.5v100zM64 610v125h152v-125h-152z" />
    <glyph glyph-name="afii10106" unicode="&#x459;" horiz-adv-x="858" 
d="M517 351h75q64 0 108 -12t71.5 -35t39.5 -56t12 -75t-12.5 -74.5t-40.5 -54.5t-73 -33t-109 -11h-211v437h-111l-32 -230q-9 -62 -24.5 -102t-41.5 -63.5t-64.5 -32.5t-93.5 -9v105q48 0 67 21.5t25 73.5l46 340h369v-189zM517 253v-158h71q45 0 68 17.5t23 60.5
q0 42 -23.5 61t-62.5 19h-76z" />
    <glyph glyph-name="afii10107" unicode="&#x45a;" horiz-adv-x="878" 
d="M532 540v-189h80q64 0 108 -12t71.5 -35t39.5 -56t12 -75t-12.5 -74.5t-40.5 -54.5t-73 -33t-109 -11h-216v218h-182v-218h-140v540h140v-219h182v219h140zM532 253v-158h76q45 0 68 17.5t23 60.5q0 42 -23.5 61t-62.5 19h-81z" />
    <glyph glyph-name="afii10108" unicode="&#x45b;" horiz-adv-x="583" 
d="M210 595v-110q25 29 58 44.5t78 15.5q37 0 67.5 -11t52.5 -34.5t34.5 -60.5t12.5 -89v-350h-140v354q0 45 -15.5 67t-60.5 22q-26 0 -47.5 -11.5t-39.5 -28.5v-403h-140v595h-50v90h50v50h140v-50h178v-90h-178z" />
    <glyph glyph-name="afii10109" unicode="&#x45c;" horiz-adv-x="550" 
d="M70 0v540h140v-220l152 220h150l-181 -251l209 -289h-167l-163 232v-232h-140zM308 735h157l-152 -137h-105z" />
    <glyph glyph-name="afii10110" unicode="&#x45e;" horiz-adv-x="511" 
d="M259 602q-33 0 -62 6t-52 21t-39 41t-22 65h119q5 -33 17.5 -47t38.5 -14t38.5 14t17.5 47h119q-6 -39 -22 -65t-39 -41t-52 -21t-62 -6zM340 -15q-12 -39 -26 -67.5t-34 -47t-48.5 -27t-69.5 -8.5q-20 0 -46 3.5t-44 8.5v100q18 -5 38 -7t31 -2q36 0 52 13.5t21 48.5
h-46l-163 540h147l102 -428l116 428h136z" />
    <glyph glyph-name="afii10193" unicode="&#x45f;" horiz-adv-x="602" 
d="M70 0v540h140v-436h182v436h140v-540h-169l-8 -115h-108l-8 115h-169z" />
    <glyph glyph-name="afii10146" unicode="&#x462;" horiz-adv-x="599" 
d="M230 555v-125h48q67 0 119.5 -11.5t88.5 -37t54.5 -67t18.5 -100.5q0 -60 -18.5 -101t-54.5 -66t-89 -36t-121 -11h-196v555h-65v105h65v60h150v-60h163v-105h-163zM230 327v-225h53q24 0 46 4.5t39 17t27 34t10 56.5q0 60 -33 86.5t-84 26.5h-58z" />
    <glyph glyph-name="afii10194" unicode="&#x463;" horiz-adv-x="556" 
d="M70 540v195h140v-195h163v-90h-163v-99h80q64 0 108 -12t71.5 -35t39.5 -56t12 -75t-12.5 -74.5t-40.5 -54.5t-73 -33t-109 -11h-216v450h-55v90h55zM220 253v-158h76q45 0 68 17.5t23 60.5q0 42 -23.5 61t-62.5 19h-81z" />
    <glyph glyph-name="afii10147" unicode="&#x472;" horiz-adv-x="703" 
d="M60 360q0 105 23 176.5t62.5 115.5t92.5 63.5t113 19.5t113 -19.5t93 -63.5t63 -115.5t23 -176.5t-23 -176.5t-62.5 -115.5t-92.5 -63.5t-114 -19.5t-114 19.5t-92.5 63.5t-62 115.5t-22.5 176.5zM351 95q27 0 50 10.5t41 35.5t30 66t16 101h-274q4 -60 16 -101t30 -66
t41 -35.5t50 -10.5zM351 626q-25 0 -47.5 -10.5t-41 -35t-31 -65t-16.5 -99.5h273q-5 59 -17.5 99t-30.5 65t-41 35.5t-48 10.5z" />
    <glyph glyph-name="afii10195" unicode="&#x473;" horiz-adv-x="585" 
d="M53 270q0 83 21 138t55 87.5t77 46t87 13.5t87 -13t76.5 -45.5t54.5 -87.5t21 -139t-21 -138t-54.5 -85.5t-76.5 -44t-87 -12.5t-87 12.5t-77 44.5t-55 86t-21 137zM293 458q-20 0 -36.5 -6.5t-29 -22.5t-20 -44.5t-9.5 -71.5h190q-3 44 -10.5 72t-19.5 44.5t-28.5 22.5
t-36.5 6zM294 87q20 0 36 5t27.5 20t19 41t10.5 68h-189q3 -41 11 -67t20 -41t28.5 -20.5t36.5 -5.5z" />
    <glyph glyph-name="afii10148" unicode="&#x474;" horiz-adv-x="617" 
d="M378 515q20 94 43 142.5t51 62.5h145q-22 -16 -38 -34.5t-28.5 -43.5t-22.5 -59t-21 -81l-121 -502h-189l-187 720h157l128 -587z" />
    <glyph glyph-name="afii10196" unicode="&#x475;" horiz-adv-x="545" 
d="M347 0h-182l-160 540h151l105 -419l60 270q14 63 32.5 99t46.5 50h145q-20 -11 -34.5 -24.5t-25.5 -32t-20 -43.5t-18 -59z" />
    <glyph glyph-name="afii10050" unicode="&#x490;" horiz-adv-x="507" 
d="M487 602h-257v-602h-150v720h292v108h115v-226z" />
    <glyph glyph-name="afii10098" unicode="&#x491;" horiz-adv-x="438" 
d="M418 437h-208v-437h-140v540h248v120h100v-223z" />
    <glyph glyph-name="uni0492" unicode="&#x492;" horiz-adv-x="517" 
d="M90 0v307h-70v96h70v317h407v-118h-257v-199h157v-96h-157v-307h-150z" />
    <glyph glyph-name="uni0493" unicode="&#x493;" horiz-adv-x="448" 
d="M428 437h-208v-136h123v-90h-123v-211h-140v211h-65v90h65v239h348v-103z" />
    <glyph glyph-name="uni0496" unicode="&#x496;" horiz-adv-x="882" 
d="M830 720l-191 -337l164 -274h63v-106l2 -3h-2v-135h-120l-17 135h-44l-176 323v-323h-140v323l-176 -323h-183l229 383l-191 337h158l163 -310v310h140v-310l163 310h158z" />
    <glyph glyph-name="uni0497" unicode="&#x497;" horiz-adv-x="752" 
d="M710 540l-156 -251l118 -185h66v-219h-104l-16 115h-40l-136 237v-237h-136v237l-136 -237h-160l180 289l-152 251h144l124 -224v224h136v-224l124 224h144z" />
    <glyph glyph-name="uni0498" unicode="&#x498;" horiz-adv-x="575" 
d="M405 -146q0 -52 -35 -81.5t-102 -29.5q-31 0 -59.5 9t-51.5 24l37 71q9 -6 25 -12t34 -6q23 0 32 8.5t9 20.5q0 21 -19 30.5t-55 13.5l22 87q-46 6 -80.5 24.5t-58.5 44t-38 56t-19 60.5l141 17q1 -16 8 -33t19.5 -31t30.5 -23t42 -9q17 0 33 5t29 17.5t20.5 34t7.5 53.5
q0 41 -11.5 65.5t-29.5 37.5t-40 17t-43 4h-50v110h58q16 0 34 4t33 15t25 30t10 48q0 28 -9 45.5t-22.5 27.5t-28.5 13.5t-26 3.5q-42 0 -65.5 -28.5t-28.5 -68.5l-138 22q9 39 29 72.5t50 58.5t70.5 39t90.5 14q40 0 81 -10.5t74 -33t53.5 -58t20.5 -84.5v-5
q0 -31 -12 -57.5t-30.5 -46.5t-40.5 -33t-41 -17q9 -2 20 -5.5t24 -8.5q19 -8 36.5 -22.5t30.5 -35.5t21 -48.5t8 -61.5q0 -50 -15.5 -88t-41.5 -65t-61 -43.5t-75 -22.5l-4 -44q38 -11 55 -36t17 -55z" />
    <glyph glyph-name="uni0499" unicode="&#x499;" horiz-adv-x="508" 
d="M245 89q16 0 30.5 3.5t26 12t18.5 23.5t7 38q0 36 -24.5 50.5t-61.5 14.5h-45v94h43q31 0 53 14.5t22 52.5q0 37 -22.5 51.5t-48.5 14.5q-38 0 -57.5 -23.5t-24.5 -54.5l-128 17q9 40 30.5 69.5t50.5 49t64.5 29.5t73.5 10q40 0 77 -8t65 -26t44.5 -46.5t16.5 -69.5
q0 -48 -28 -78.5t-79 -41.5q23 -2 45 -10.5t39 -24.5t27.5 -40t10.5 -58q0 -37 -13.5 -65t-36.5 -47t-53 -30.5t-63 -15.5l-5 -45q38 -11 55 -36t17 -55q0 -52 -33.5 -81t-100.5 -29q-31 0 -59.5 9t-51.5 24l37 68q9 -6 25 -12t34 -6q23 0 33 9.5t10 21.5q0 21 -20 31
t-56 14l22 86q-81 9 -126.5 51.5t-54.5 102.5l132 17q4 -32 25 -53.5t58 -21.5z" />
    <glyph glyph-name="uni049A" unicode="&#x49a;" horiz-adv-x="623" 
d="M571 720l-216 -337l181 -274h73v-244h-120l-17 135h-46l-196 313v-313h-150v720h150v-300l183 300h158z" />
    <glyph glyph-name="uni049B" unicode="&#x49b;" horiz-adv-x="554" 
d="M512 540l-181 -251l134 -185h75v-219h-104l-16 115h-47l-163 232v-232h-140v540h140v-220l152 220h150z" />
    <glyph glyph-name="uni049C" unicode="&#x49c;" horiz-adv-x="684" 
d="M491 0l-161 310v-176h-65v184h-35v-318h-150v720h150v-309h35v196h65v-183l148 296h158l-177 -337l215 -383h-183z" />
    <glyph glyph-name="uni049D" unicode="&#x49d;" horiz-adv-x="555" 
d="M70 0v540h140v-214h22v158h55v-131l81 187h149l-121 -251l149 -289h-165l-93 202v-151h-55v185h-22v-236h-140z" />
    <glyph glyph-name="uni04A0" unicode="&#x4a0;" horiz-adv-x="629" 
d="M10 720h230v-300l183 300h158l-216 -337l254 -383h-183l-196 313v-313h-150v610h-80v110z" />
    <glyph glyph-name="uni04A1" unicode="&#x4a1;" horiz-adv-x="615" 
d="M70 540h205v-220l152 220h150l-181 -251l209 -289h-167l-163 232v-232h-140v440h-65v100z" />
    <glyph glyph-name="uni04A2" unicode="&#x4a2;" horiz-adv-x="659" 
d="M575 720v-611h40v-244h-120l-17 135h-53v310h-195v-310h-150v720h150v-302h195v302h150z" />
    <glyph glyph-name="uni04A3" unicode="&#x4a3;" horiz-adv-x="606" 
d="M532 540v-436h35v-219h-104l-16 115h-55v218h-182v-218h-140v540h140v-219h182v219h140z" />
    <glyph glyph-name="uni04AA" unicode="&#x4aa;" horiz-adv-x="603" 
d="M497 -212q-26 -14 -50.5 -21t-53.5 -7q-69 0 -104 33.5t-35 93.5q0 59 52 99q-45 3 -89.5 21t-79 60.5t-56 113.5t-21.5 179q0 112 23.5 185t61.5 115t87.5 58.5t100.5 16.5q55 0 95.5 -18.5t68.5 -47.5t43.5 -65t21.5 -71l-139 -17q-4 24 -10.5 44t-17.5 35t-27 23.5
t-38 8.5q-23 0 -43 -12t-36 -42t-25 -82t-9 -131q0 -80 8.5 -131.5t23 -81.5t34.5 -41.5t44 -11.5q45 0 70.5 33t29.5 85l141 -15q-4 -25 -13 -51.5t-24 -51.5t-37.5 -47t-53.5 -37q-31 -24 -48.5 -51.5t-17.5 -57.5q0 -22 12 -32.5t32 -10.5q18 0 58 14z" />
    <glyph glyph-name="uni04AB" unicode="&#x4ab;" horiz-adv-x="528" 
d="M451 -212q-26 -14 -50.5 -21t-53.5 -7q-69 0 -104 33.5t-35 93.5q0 30 13.5 56.5t35.5 47.5q-41 3 -78 18.5t-65 48.5t-44.5 86t-16.5 131q0 77 17 130.5t47.5 86.5t72 48t89.5 15q57 0 95.5 -16.5t62.5 -42.5t36 -57t15 -59l-133 -20q-4 97 -75 97q-15 0 -29.5 -6
t-26.5 -25.5t-19 -56t-7 -97.5t8 -97t20 -55.5t27 -25.5t29 -6q19 0 32.5 8t22 21t13 30.5t6.5 36.5l138 -16q-8 -45 -33 -88t-76 -68q-57 -50 -57 -111q0 -22 12 -32.5t32 -10.5q18 0 58 14z" />
    <glyph glyph-name="uni04AE" unicode="&#x4ae;" horiz-adv-x="562" 
d="M557 720l-204 -432v-288h-140v288l-208 432h162l120 -289l130 289h140z" />
    <glyph glyph-name="uni04AF" unicode="&#x4af;" horiz-adv-x="512" 
d="M187 -170v192l-182 518h151l106 -407l103 407h142l-180 -529v-181h-140z" />
    <glyph glyph-name="uni04B0" unicode="&#x4b0;" horiz-adv-x="572" 
d="M562 720l-200 -424h135v-95h-139v-201h-140v201h-141v95h137l-204 424h162l120 -289l130 289h140z" />
    <glyph glyph-name="uni04B1" unicode="&#x4b1;" horiz-adv-x="512" 
d="M507 540l-161 -472h116v-90h-135v-148h-140v148h-137v90h121l-166 472h151l106 -407l103 407h142z" />
    <glyph glyph-name="uni04B2" unicode="&#x4b2;" horiz-adv-x="611" 
d="M384 391l152 -294h51v-244h-120l-18 147h-39l-116 245l-123 -245h-151l206 374l-188 346h174l104 -211l113 211h142z" />
    <glyph glyph-name="uni04B3" unicode="&#x4b3;" horiz-adv-x="545" 
d="M347 299l116 -195h63v-219h-104l-16 115h-47l-99 182l-100 -182h-145l172 286l-159 254h162l85 -143l81 143h137z" />
    <glyph glyph-name="uni04B8" unicode="&#x4b8;" horiz-adv-x="637" 
d="M263 243q-41 0 -76.5 11t-61.5 36.5t-40.5 66.5t-14.5 102v261h150v-260q0 -29 6 -48t15.5 -31t21 -18t23.5 -8v252h65v-253q16 1 32 3t30 4v359h144v-720h-144v255q-14 -2 -29.5 -4t-32.5 -4v-113h-65v109h-23z" />
    <glyph glyph-name="uni04B9" unicode="&#x4b9;" horiz-adv-x="582" 
d="M314 251q30 4 58 12v277h140v-540h-140v164q-24 -9 -58 -15v-98h-55v90q-3 -1 -9 -1h-25q-74 0 -118.5 41.5t-44.5 136.5v222h140v-223q0 -37 17.5 -51t39.5 -16v234h55v-233z" />
    <glyph glyph-name="uni04BA" unicode="&#x4ba;" horiz-adv-x="637" 
d="M80 0v720h149v-245q26 5 63 8.5t82 3.5q41 0 75.5 -11t59.5 -36.5t39 -66.5t14 -102v-271h-150v270q0 37 -9 58.5t-22.5 32t-28.5 13.5t-27 3q-23 0 -49 -2.5t-47 -6.5v-368h-149z" />
    <glyph glyph-name="uni04BB" unicode="&#x4bb;" horiz-adv-x="583" 
d="M70 735h140v-240q25 29 58 44.5t78 15.5q37 0 67.5 -11t52.5 -34.5t34.5 -60.5t12.5 -89v-360h-140v364q0 45 -15.5 67t-60.5 22q-26 0 -47.5 -11.5t-39.5 -28.5v-413h-140v735z" />
    <glyph glyph-name="uni04C0" unicode="&#x4c0;" horiz-adv-x="310" 
d="M230 720v-720h-150v720h150z" />
    <glyph glyph-name="uni04CB" unicode="&#x4cb;" horiz-adv-x="635" 
d="M552 720v-611h39v-244h-120l-17 135h-51v255q-27 -5 -63.5 -8.5t-81.5 -3.5q-41 0 -75.5 11t-59.5 36.5t-39 66.5t-14 102v261h150v-260q0 -37 9 -58.5t22.5 -32t28.5 -13.5t27 -3q23 0 49 2.5t47 5.5v359h149z" />
    <glyph glyph-name="uni04CC" unicode="&#x4cc;" horiz-adv-x="584" 
d="M510 540v-435h35v-220h-104l-16 115h-55v163q-31 -11 -68.5 -17t-72.5 -6q-74 0 -116.5 41.5t-42.5 136.5v222h140v-223q0 -22 6 -35t15.5 -20.5t22 -10t25.5 -2.5q18 0 42.5 3t48.5 10v278h140z" />
    <glyph glyph-name="uni04CF" unicode="&#x4cf;" horiz-adv-x="310" 
d="M230 720v-720h-150v720h150z" />
    <glyph glyph-name="uni04D8" unicode="&#x4d8;" horiz-adv-x="673" 
d="M333 628q-50 0 -77.5 -30.5t-39.5 -74.5l-140 20q9 31 28 65t50.5 62t75 46.5t102.5 18.5q76 0 129.5 -25.5t87.5 -73.5t49 -118t15 -158q0 -186 -68 -280.5t-213 -94.5q-65 0 -116 22t-85.5 70.5t-52.5 125t-18 185.5h400q-2 68 -11.5 114t-26 74t-39 40t-50.5 12z
M336 94q22 0 42.5 7.5t37 28.5t27.5 58.5t15 97.5h-249q3 -54 14.5 -91t29 -59.5t39 -32t44.5 -9.5z" />
    <glyph glyph-name="afii10846" unicode="&#x4d9;" horiz-adv-x="546" 
d="M259 457q-34 0 -53.5 -20.5t-25.5 -49.5l-127 20q8 27 24 53.5t42 47.5t62.5 34t85.5 13q46 0 87 -15t72 -48t49 -86.5t18 -130.5q0 -79 -17 -133.5t-47.5 -88t-71.5 -48.5t-89 -15q-63 0 -105.5 21.5t-68 63.5t-36.5 102.5t-11 138.5h303q-3 42 -11.5 69.5t-20.5 43.5
t-27.5 22t-31.5 6zM263 83q16 0 31 5.5t27 21t20 43t10 71.5h-173q2 -80 25 -110.5t60 -30.5z" />
    <glyph glyph-name="uni04E2" unicode="&#x4e2;" horiz-adv-x="686" 
d="M223 720v-440l239 390v50h144v-720h-143v446l-239 -396v-50h-144v720h143zM190 784v101h300v-101h-300z" />
    <glyph glyph-name="uni04E3" unicode="&#x4e3;" horiz-adv-x="613" 
d="M202 540v-322l208 292v30h133v-540h-133v316l-208 -286v-30h-132v540h132zM156 634v101h300v-101h-300z" />
    <glyph glyph-name="uni04E8" unicode="&#x4e8;" horiz-adv-x="703" 
d="M60 360q0 105 23 176.5t62.5 115.5t92.5 63.5t113 19.5t113 -19.5t93 -63.5t63 -115.5t23 -176.5t-23 -176.5t-62.5 -115.5t-92.5 -63.5t-114 -19.5t-114 19.5t-92.5 63.5t-62 115.5t-22.5 176.5zM351 95q27 0 50 10.5t41 35.5t30 66t16 101h-274q4 -60 16 -101t30 -66
t41 -35.5t50 -10.5zM351 626q-25 0 -47.5 -10.5t-41 -35t-31 -65t-16.5 -99.5h273q-5 59 -17.5 99t-30.5 65t-41 35.5t-48 10.5z" />
    <glyph glyph-name="uni04E9" unicode="&#x4e9;" horiz-adv-x="585" 
d="M53 270q0 83 21 138t55 87.5t77 46t87 13.5t87 -13t76.5 -45.5t54.5 -87.5t21 -139t-21 -138t-54.5 -85.5t-76.5 -44t-87 -12.5t-87 12.5t-77 44.5t-55 86t-21 137zM293 458q-20 0 -36.5 -6.5t-29 -22.5t-20 -44.5t-9.5 -71.5h190q-3 44 -10.5 72t-19.5 44.5t-28.5 22.5
t-36.5 6zM294 87q20 0 36 5t27.5 20t19 41t10.5 68h-189q3 -41 11 -67t20 -41t28.5 -20.5t36.5 -5.5z" />
    <glyph glyph-name="uni04EE" unicode="&#x4ee;" horiz-adv-x="531" 
d="M355 145q-12 -39 -26 -69t-35 -50.5t-51.5 -30.5t-75.5 -10q-20 0 -46.5 4.5t-43.5 10.5v107q17 -5 36 -8.5t33 -3.5q36 0 53 15t22 50h-50l-161 560h156l99 -438l110 438h146zM116 784v101h300v-101h-300z" />
    <glyph glyph-name="uni04EF" unicode="&#x4ef;" horiz-adv-x="511" 
d="M108 645v101h300v-101h-300zM340 -15q-12 -39 -26 -67.5t-34 -47t-48.5 -27t-69.5 -8.5q-20 0 -46 3.5t-44 8.5v100q18 -5 38 -7t31 -2q36 0 52 13.5t21 48.5h-46l-163 540h147l102 -428l116 428h136z" />
    <glyph glyph-name="uni1E02" unicode="&#x1e02;" horiz-adv-x="609" 
d="M267 720q60 0 110 -8t86 -29.5t56.5 -59.5t20.5 -97q0 -26 -7 -50.5t-20 -44.5t-30.5 -33.5t-38.5 -17.5q8 -2 19.5 -5.5t22.5 -8.5q35 -17 56.5 -55.5t21.5 -99.5q0 -60 -18.5 -100.5t-54.5 -65t-89 -35t-121 -10.5h-201v720h187zM230 328v-226h58q24 0 46 4t39 16
t27 33t10 56q0 60 -33 88.5t-84 28.5h-63zM230 618v-194h53q15 0 33.5 3t35 13.5t27.5 30.5t11 55q0 26 -10 43.5t-26 28.5t-35.5 15.5t-38.5 4.5h-50zM201 770v115h152v-115h-152z" />
    <glyph glyph-name="uni1E03" unicode="&#x1e03;" horiz-adv-x="558" 
d="M70 0v735h140v-236q24 26 55.5 41t76.5 15q30 0 59 -12t52 -43.5t37.5 -86t14.5 -139.5q0 -149 -49 -216.5t-143 -67.5q-43 0 -72.5 16.5t-47.5 42.5l-38 -49h-85zM284 449q-22 0 -40 -8.5t-34 -22.5v-309q26 -23 62 -23q23 0 40.5 7t29 28t17.5 58.5t6 99.5
q0 54 -7 87.5t-18 51.5t-25.5 24.5t-30.5 6.5zM260 621v115h152v-115h-152z" />
    <glyph glyph-name="uni1E0A" unicode="&#x1e0a;" horiz-adv-x="646" 
d="M267 720q64 0 122 -15.5t101.5 -56t69.5 -110t26 -178.5t-26 -178.5t-69.5 -110t-101 -56t-120.5 -15.5h-189v720h187zM230 612v-503h39q30 0 59.5 9.5t53 36.5t38 76t14.5 129q0 79 -15 128.5t-38.5 77t-53.5 37t-60 9.5h-37zM213 770v115h152v-115h-152z" />
    <glyph glyph-name="uni1E0B" unicode="&#x1e0b;" horiz-adv-x="563" 
d="M53 271q0 149 49 216.5t143 67.5q36 0 62.5 -11.5t45.5 -30.5v222h140v-735h-88l-38 66q-25 -35 -61 -55.5t-90 -20.5q-30 0 -59 12t-52 43.5t-37.5 86t-14.5 139.5zM274 96q23 0 42.5 9.5t36.5 23.5v306q-14 11 -30.5 17.5t-36.5 6.5q-23 0 -40.5 -7t-29 -28t-17.5 -59
t-6 -99q0 -54 6.5 -87.5t18 -51.5t26 -24.5t30.5 -6.5zM151 621v115h152v-115h-152z" />
    <glyph glyph-name="uni1E1E" unicode="&#x1e1e;" horiz-adv-x="489" 
d="M424 295h-194v-295h-150v720h374v-113h-224v-204h194v-108zM193 770v115h152v-115h-152z" />
    <glyph glyph-name="uni1E1F" unicode="&#x1e1f;" horiz-adv-x="352" 
d="M372 629q-19 5 -38 7.5t-34 2.5q-35 0 -50 -14t-15 -49v-36h111v-100h-111v-440h-140v440h-80v100h80v30q0 47 12 80.5t33.5 54.5t51.5 30.5t66 9.5q37 0 65.5 -5t48.5 -10v-101zM160 770v115h152v-115h-152z" />
    <glyph glyph-name="uni1E40" unicode="&#x1e40;" horiz-adv-x="822" 
d="M352 0l-145 509v-509h-127v720h186l146 -523l140 523h190v-720h-137v509l-141 -509h-112zM334 763v115h152v-115h-152z" />
    <glyph glyph-name="uni1E41" unicode="&#x1e41;" horiz-adv-x="860" 
d="M70 0v540h95l30 -65q24 38 58.5 59t85.5 21q48 0 83.5 -19.5t55.5 -61.5q26 38 63.5 59.5t88.5 21.5q74 0 117 -45.5t43 -149.5v-360h-140v364q0 45 -12 67t-57 22q-24 0 -45 -14t-40 -34q3 -21 3 -45v-360h-140v364q0 45 -12 67t-57 22q-23 0 -43 -12t-37 -31v-410h-140
zM356 610v125h152v-125h-152z" />
    <glyph glyph-name="uni1E56" unicode="&#x1e56;" horiz-adv-x="578" 
d="M273 720q56 0 106 -9.5t87.5 -35.5t59.5 -72.5t22 -120.5t-22.5 -120.5t-59.5 -72.5t-86 -35.5t-101 -9.5h-49v-244h-150v720h193zM230 613v-262h51q19 0 39 5t36 19t26 39.5t10 67.5t-9.5 67.5t-26 39.5t-37.5 19t-44 5h-45zM200 770v115h152v-115h-152z" />
    <glyph glyph-name="uni1E57" unicode="&#x1e57;" horiz-adv-x="563" 
d="M70 -170v710h95l28 -61q26 35 63 55.5t91 20.5q30 0 59 -12t52 -43.5t37.5 -86t14.5 -139.5q0 -149 -49 -216.5t-143 -67.5q-37 0 -63.5 11.5t-44.5 31.5v-203h-140zM289 449q-24 0 -43 -10t-36 -26v-299q14 -12 30 -20t37 -8q23 0 40.5 7t29 28t17.5 58.5t6 99.5
q0 54 -7 87.5t-18 51.5t-25.5 24.5t-30.5 6.5zM214 610v125h152v-125h-152z" />
    <glyph glyph-name="uni1E60" unicode="&#x1e60;" horiz-adv-x="587" 
d="M292 629q-36 0 -62.5 -17.5t-26.5 -58.5q0 -14 3 -26.5t13.5 -25t31.5 -25.5t58 -27q47 -18 88.5 -39t72.5 -49.5t49 -65.5t18 -88q0 -44 -13.5 -84t-43.5 -70.5t-77.5 -49t-115.5 -18.5q-65 0 -110 18.5t-74 45.5t-44 58t-19 56l141 20q2 -17 10.5 -33.5t22.5 -29
t33.5 -20t42.5 -7.5q16 0 33 4.5t31 15t22.5 27.5t8.5 43q0 29 -13 48.5t-36 34.5t-55 28.5t-71 31.5q-45 20 -75 42t-48.5 47.5t-26.5 55t-8 65.5q0 44 16.5 80.5t47.5 63t76.5 41t103.5 14.5q59 0 100.5 -16t68.5 -40.5t42 -54t21 -55.5l-139 -25q-5 33 -30 59t-67 26z
M217 770v115h152v-115h-152z" />
    <glyph glyph-name="uni1E61" unicode="&#x1e61;" horiz-adv-x="514" 
d="M251 -10q-47 0 -84.5 12.5t-64 32.5t-43 46t-21.5 52l135 27q5 -33 26.5 -52t53.5 -19t51 13.5t19 41.5q0 15 -6.5 25.5t-20 19t-33.5 15.5t-48 16q-37 11 -66.5 24.5t-50.5 33.5t-32 47.5t-11 66.5q0 41 15 71.5t42 51t64.5 30.5t82.5 10q48 0 83.5 -12.5t59.5 -32.5
t38.5 -44.5t20.5 -48.5l-131 -26q-5 28 -21 47t-51 19q-28 0 -45.5 -13.5t-17.5 -40.5q0 -17 7.5 -27.5t20 -17.5t30.5 -12.5t39 -12.5q34 -11 65.5 -23t55 -30t37.5 -45.5t14 -70.5q0 -45 -16 -78t-44.5 -54t-67.5 -31.5t-85 -10.5zM181 610v125h152v-125h-152z" />
    <glyph glyph-name="uni1E6A" unicode="&#x1e6a;" horiz-adv-x="544" 
d="M524 602h-178v-602h-150v602h-176v118h504v-118zM194 770v115h152v-115h-152z" />
    <glyph glyph-name="uni1E6B" unicode="&#x1e6b;" horiz-adv-x="365" 
d="M340 5q-19 -5 -43.5 -8.5t-47.5 -3.5q-34 0 -62 9t-48.5 28t-32 49t-11.5 72v289h-80v100h81l9 130h130v-130h104v-100h-104v-294q0 -16 5 -25.5t12.5 -15t17 -7.5t18.5 -2q11 0 26 2t26 4v-97zM97 710v125h152v-125h-152z" />
    <glyph glyph-name="uni1E6C" unicode="&#x1e6c;" horiz-adv-x="544" 
d="M524 602h-178v-602h-150v602h-176v118h504v-118zM191 -170v125h152v-125h-152z" />
    <glyph glyph-name="uni1E6D" unicode="&#x1e6d;" horiz-adv-x="365" 
d="M340 5q-19 -5 -43.5 -8.5t-47.5 -3.5q-34 0 -62 9t-48.5 28t-32 49t-11.5 72v289h-80v100h81l9 130h130v-130h104v-100h-104v-294q0 -16 5 -25.5t12.5 -15t17 -7.5t18.5 -2q11 0 26 2t26 4v-97zM124 -170v125h152v-125h-152z" />
    <glyph glyph-name="Wgrave" unicode="&#x1e80;" horiz-adv-x="828" 
d="M803 720l-110 -720h-191l-89 564l-91 -564h-187l-110 720h152l64 -568l85 568h185l84 -566l74 566h134zM472 768h-107l-130 117h152z" />
    <glyph glyph-name="wgrave" unicode="&#x1e81;" horiz-adv-x="788" 
d="M773 540l-125 -540h-179l-74 400l-88 -400h-174l-118 540h142l70 -425l86 425h174l73 -423l84 423h129zM464 598h-105l-152 137h157z" />
    <glyph glyph-name="Wacute" unicode="&#x1e82;" horiz-adv-x="828" 
d="M803 720l-110 -720h-191l-89 564l-91 -564h-187l-110 720h152l64 -568l85 568h185l84 -566l74 566h134zM438 885h152l-130 -117h-107z" />
    <glyph glyph-name="wacute" unicode="&#x1e83;" horiz-adv-x="788" 
d="M773 540l-125 -540h-179l-74 400l-88 -400h-174l-118 540h142l70 -425l86 425h174l73 -423l84 423h129zM425 735h157l-152 -137h-105z" />
    <glyph glyph-name="Wdieresis" unicode="&#x1e84;" horiz-adv-x="828" 
d="M803 720l-110 -720h-191l-89 564l-91 -564h-187l-110 720h152l64 -568l85 568h185l84 -566l74 566h134zM243 772v108h132v-108h-132zM470 772v108h132v-108h-132z" />
    <glyph glyph-name="wdieresis" unicode="&#x1e85;" horiz-adv-x="788" 
d="M773 540l-125 -540h-179l-74 400l-88 -400h-174l-118 540h142l70 -425l86 425h174l73 -423l84 423h129zM217 610v115h132v-115h-132zM444 610v115h132v-115h-132z" />
    <glyph glyph-name="uni1EA0" unicode="&#x1ea0;" horiz-adv-x="626" 
d="M462 0l-44 167h-222l-44 -167h-147l221 720h171l224 -720h-159zM224 269h167l-83 315zM237 -170v125h152v-125h-152z" />
    <glyph glyph-name="uni1EA1" unicode="&#x1ea1;" horiz-adv-x="545" 
d="M386 0l-31 58q-21 -29 -56.5 -48.5t-90.5 -19.5q-27 0 -56.5 9t-54.5 29t-41 52t-16 78q0 41 16 72.5t43.5 54t63.5 35.5t77 18l95 13v33q0 78 -67 78q-28 0 -48.5 -16.5t-25.5 -51.5l-135 20q8 25 23.5 50.5t41.5 45.5t63.5 32.5t90.5 12.5q94 0 145.5 -45t51.5 -144
v-366h-89zM262 89q36 0 73 25v154l-57 -9q-45 -8 -72 -27t-27 -59q0 -26 7.5 -42.5t19.5 -25.5t27 -12.5t29 -3.5zM193 -170v125h152v-125h-152z" />
    <glyph glyph-name="uni1EA2" unicode="&#x1ea2;" horiz-adv-x="626" 
d="M462 0l-44 167h-222l-44 -167h-147l221 720h171l224 -720h-159zM224 269h167l-83 315zM433 865q0 -30 -20 -54t-55 -35l-4 -20h-86l-3 58q29 3 49 15.5t20 33.5q0 12 -8 19.5t-22 7.5q-17 0 -28 -11.5t-14 -28.5l-83 18q14 39 45 65.5t89 26.5q22 0 43.5 -5.5t38.5 -16.5
t27.5 -29.5t10.5 -43.5z" />
    <glyph glyph-name="uni1EA3" unicode="&#x1ea3;" horiz-adv-x="545" 
d="M386 0l-31 58q-21 -29 -56.5 -48.5t-90.5 -19.5q-27 0 -56.5 9t-54.5 29t-41 52t-16 78q0 41 16 72.5t43.5 54t63.5 35.5t77 18l95 13v33q0 78 -67 78q-28 0 -48.5 -16.5t-25.5 -51.5l-135 20q8 25 23.5 50.5t41.5 45.5t63.5 32.5t90.5 12.5q94 0 145.5 -45t51.5 -144
v-366h-89zM262 89q36 0 73 25v154l-57 -9q-45 -8 -72 -27t-27 -59q0 -26 7.5 -42.5t19.5 -25.5t27 -12.5t29 -3.5zM396 709q0 -30 -20 -54t-55 -35l-4 -20h-86l-3 58q29 3 49 15.5t20 33.5q0 12 -8 19.5t-22 7.5q-17 0 -28 -11.5t-14 -28.5l-83 18q14 39 45 65.5t89 26.5
q22 0 43.5 -5.5t38.5 -16.5t27.5 -29.5t10.5 -43.5z" />
    <glyph glyph-name="uni1EA4" unicode="&#x1ea4;" horiz-adv-x="626" 
d="M462 0l-44 167h-222l-44 -167h-147l221 720h171l224 -720h-159zM224 269h167l-83 315zM500 768h-130l-58 50l-57 -50h-131l120 117h136zM564 945h152l-126 -137h-100z" />
    <glyph glyph-name="uni1EA5" unicode="&#x1ea5;" horiz-adv-x="545" 
d="M386 0l-31 58q-21 -29 -56.5 -48.5t-90.5 -19.5q-27 0 -56.5 9t-54.5 29t-41 52t-16 78q0 41 16 72.5t43.5 54t63.5 35.5t77 18l95 13v33q0 78 -67 78q-28 0 -48.5 -16.5t-25.5 -51.5l-135 20q8 25 23.5 50.5t41.5 45.5t63.5 32.5t90.5 12.5q94 0 145.5 -45t51.5 -144
v-366h-89zM262 89q36 0 73 25v154l-57 -9q-45 -8 -72 -27t-27 -59q0 -26 7.5 -42.5t19.5 -25.5t27 -12.5t29 -3.5zM457 598h-122l-66 57l-66 -57h-122l120 137h136zM521 775h152l-126 -137h-100z" />
    <glyph glyph-name="uni1EA6" unicode="&#x1ea6;" horiz-adv-x="626" 
d="M462 0l-44 167h-222l-44 -167h-147l221 720h171l224 -720h-159zM224 269h167l-83 315zM502 768h-130l-58 50l-57 -50h-131l120 117h136zM136 808h-100l-126 137h152z" />
    <glyph glyph-name="uni1EA7" unicode="&#x1ea7;" horiz-adv-x="545" 
d="M386 0l-31 58q-21 -29 -56.5 -48.5t-90.5 -19.5q-27 0 -56.5 9t-54.5 29t-41 52t-16 78q0 41 16 72.5t43.5 54t63.5 35.5t77 18l95 13v33q0 78 -67 78q-28 0 -48.5 -16.5t-25.5 -51.5l-135 20q8 25 23.5 50.5t41.5 45.5t63.5 32.5t90.5 12.5q94 0 145.5 -45t51.5 -144
v-366h-89zM262 89q36 0 73 25v154l-57 -9q-45 -8 -72 -27t-27 -59q0 -26 7.5 -42.5t19.5 -25.5t27 -12.5t29 -3.5zM457 598h-122l-66 57l-66 -57h-122l120 137h136zM91 638h-100l-126 137h152z" />
    <glyph glyph-name="uni1EA8" unicode="&#x1ea8;" horiz-adv-x="626" 
d="M462 0l-44 167h-222l-44 -167h-147l221 720h171l224 -720h-159zM224 269h167l-83 315zM495 768h-130l-58 50l-57 -50h-131l120 117h136zM682 859q0 -30 -20 -54t-55 -35l-4 -20h-86l-3 58q29 3 49 15.5t20 33.5q0 12 -8 19.5t-22 7.5q-17 0 -28 -11.5t-14 -28.5l-83 18
q14 39 45 65.5t89 26.5q22 0 43.5 -5.5t38.5 -16.5t27.5 -29.5t10.5 -43.5z" />
    <glyph glyph-name="uni1EA9" unicode="&#x1ea9;" horiz-adv-x="545" 
d="M386 0l-31 58q-21 -29 -56.5 -48.5t-90.5 -19.5q-27 0 -56.5 9t-54.5 29t-41 52t-16 78q0 41 16 72.5t43.5 54t63.5 35.5t77 18l95 13v33q0 78 -67 78q-28 0 -48.5 -16.5t-25.5 -51.5l-135 20q8 25 23.5 50.5t41.5 45.5t63.5 32.5t90.5 12.5q94 0 145.5 -45t51.5 -144
v-366h-89zM262 89q36 0 73 25v154l-57 -9q-45 -8 -72 -27t-27 -59q0 -26 7.5 -42.5t19.5 -25.5t27 -12.5t29 -3.5zM455 598h-122l-66 57l-66 -57h-122l120 137h136zM661 708q0 -30 -20 -54t-55 -35l-4 -20h-86l-3 58q29 3 49 15.5t20 33.5q0 12 -8 19.5t-22 7.5
q-17 0 -28 -11.5t-14 -28.5l-83 18q14 39 45 65.5t89 26.5q22 0 43.5 -5.5t38.5 -16.5t27.5 -29.5t10.5 -43.5z" />
    <glyph glyph-name="uni1EAA" unicode="&#x1eaa;" horiz-adv-x="626" 
d="M462 0l-44 167h-222l-44 -167h-147l221 690h171l224 -690h-159zM224 269h167l-83 285zM500 718h-130l-58 43l-57 -43h-131l120 107h136zM376 840q-24 0 -41 6t-31 13t-27.5 13t-30.5 6t-41.5 -9.5t-46.5 -26.5v85q22 16 46.5 24.5t45.5 8.5q24 0 41 -6t31 -13t27.5 -13
t30.5 -6t41.5 9.5t46.5 26.5v-85q-22 -16 -46.5 -24.5t-45.5 -8.5z" />
    <glyph glyph-name="uni1EAB" unicode="&#x1eab;" horiz-adv-x="545" 
d="M386 0l-31 58q-21 -29 -56.5 -48.5t-90.5 -19.5q-27 0 -56.5 9t-54.5 29t-41 52t-16 78q0 41 16 72.5t43.5 54t63.5 35.5t77 18l95 13v33q0 78 -67 78q-28 0 -48.5 -16.5t-25.5 -51.5l-135 20q8 25 23.5 50.5t41.5 45.5t63.5 32.5t90.5 12.5q94 0 145.5 -45t51.5 -144
v-366h-89zM262 89q36 0 73 25v154l-57 -9q-45 -8 -72 -27t-27 -59q0 -26 7.5 -42.5t19.5 -25.5t27 -12.5t29 -3.5zM456 599h-130l-58 50l-57 -50h-131l120 117h136zM331 730q-24 0 -41 6t-31 13t-27.5 13t-30.5 6t-41.5 -9.5t-46.5 -26.5v90q22 16 46.5 24.5t45.5 8.5
q24 0 41 -6t31 -13t27.5 -13t30.5 -6t41.5 9.5t46.5 26.5v-90q-22 -16 -46.5 -24.5t-45.5 -8.5z" />
    <glyph glyph-name="uni1EAC" unicode="&#x1eac;" horiz-adv-x="626" 
d="M462 0l-44 167h-222l-44 -167h-147l221 720h171l224 -720h-159zM224 269h167l-83 315zM237 -170v125h152v-125h-152zM500 768h-130l-58 50l-57 -50h-131l120 117h136z" />
    <glyph glyph-name="uni1EAD" unicode="&#x1ead;" horiz-adv-x="545" 
d="M386 0l-31 58q-21 -29 -56.5 -48.5t-90.5 -19.5q-27 0 -56.5 9t-54.5 29t-41 52t-16 78q0 41 16 72.5t43.5 54t63.5 35.5t77 18l95 13v33q0 78 -67 78q-28 0 -48.5 -16.5t-25.5 -51.5l-135 20q8 25 23.5 50.5t41.5 45.5t63.5 32.5t90.5 12.5q94 0 145.5 -45t51.5 -144
v-366h-89zM262 89q36 0 73 25v154l-57 -9q-45 -8 -72 -27t-27 -59q0 -26 7.5 -42.5t19.5 -25.5t27 -12.5t29 -3.5zM195 -170v125h152v-125h-152zM459 598h-122l-66 57l-66 -57h-122l120 137h136z" />
    <glyph glyph-name="uni1EAE" unicode="&#x1eae;" horiz-adv-x="626" 
d="M315 960h152l-116 -112h-100zM315 789q20 0 35 9.5t21 31.5h119q-6 -34 -21.5 -57.5t-39 -38t-52.5 -21t-62 -6.5t-62 6.5t-52.5 21t-39 38t-21.5 57.5h119q6 -22 21 -31.5t35 -9.5zM462 0l-44 167h-222l-44 -167h-147l221 690h171l224 -690h-159zM224 269h167l-83 285z
" />
    <glyph glyph-name="uni1EAF" unicode="&#x1eaf;" horiz-adv-x="545" 
d="M386 0l-31 58q-21 -29 -56.5 -48.5t-90.5 -19.5q-27 0 -56.5 9t-54.5 29t-41 52t-16 78q0 41 16 72.5t43.5 54t63.5 35.5t77 18l95 13v33q0 78 -67 78q-28 0 -48.5 -16.5t-25.5 -51.5l-135 20q8 25 23.5 50.5t41.5 45.5t63.5 32.5t90.5 12.5q94 0 145.5 -45t51.5 -144
v-366h-89zM262 89q36 0 73 25v154l-57 -9q-45 -8 -72 -27t-27 -59q0 -26 7.5 -42.5t19.5 -25.5t27 -12.5t29 -3.5zM270 665q20 0 35 11t21 40h119q-6 -38 -21.5 -63t-39 -41t-52.5 -22.5t-62 -6.5t-62 6.5t-52.5 22.5t-39 41t-21.5 63h119q6 -29 21 -40t35 -11zM252 875h152
l-126 -137h-100z" />
    <glyph glyph-name="uni1EB0" unicode="&#x1eb0;" horiz-adv-x="626" 
d="M387 848h-100l-116 112h152zM315 789q20 0 35 9.5t21 31.5h119q-6 -34 -21.5 -57.5t-39 -38t-52.5 -21t-62 -6.5t-62 6.5t-52.5 21t-39 38t-21.5 57.5h119q6 -22 21 -31.5t35 -9.5zM462 0l-44 167h-222l-44 -167h-147l221 690h171l224 -690h-159zM224 269h167l-83 285z
" />
    <glyph glyph-name="uni1EB1" unicode="&#x1eb1;" horiz-adv-x="545" 
d="M386 0l-31 58q-21 -29 -56.5 -48.5t-90.5 -19.5q-27 0 -56.5 9t-54.5 29t-41 52t-16 78q0 41 16 72.5t43.5 54t63.5 35.5t77 18l95 13v33q0 78 -67 78q-28 0 -48.5 -16.5t-25.5 -51.5l-135 20q8 25 23.5 50.5t41.5 45.5t63.5 32.5t90.5 12.5q94 0 145.5 -45t51.5 -144
v-366h-89zM262 89q36 0 73 25v154l-57 -9q-45 -8 -72 -27t-27 -59q0 -26 7.5 -42.5t19.5 -25.5t27 -12.5t29 -3.5zM270 665q20 0 35 11t21 40h119q-6 -38 -21.5 -63t-39 -41t-52.5 -22.5t-62 -6.5t-62 6.5t-52.5 22.5t-39 41t-21.5 63h119q6 -29 21 -40t35 -11zM340 738
h-100l-126 137h152z" />
    <glyph glyph-name="uni1EB2" unicode="&#x1eb2;" horiz-adv-x="626" 
d="M462 0l-44 167h-222l-44 -167h-147l221 690h171l224 -690h-159zM224 269h167l-83 285zM314 766q20 0 36.5 10.5t18.5 32.5h120q-4 -30 -20 -51t-40 -33.5t-53.5 -18.5t-60.5 -6t-61 6t-54 18.5t-40.5 33.5t-20.5 51h120q2 -22 18.5 -32.5t36.5 -10.5zM418 880
q0 -52 -70 -65l-3 -18h-68l-3 43q58 4 58 31q0 25 -32 25q-14 0 -25.5 -9t-16.5 -27l-75 18q14 42 49.5 62t74.5 20q48 0 79.5 -21t31.5 -59z" />
    <glyph glyph-name="uni1EB3" unicode="&#x1eb3;" horiz-adv-x="545" 
d="M386 0l-31 58q-21 -29 -56.5 -48.5t-90.5 -19.5q-27 0 -56.5 9t-54.5 29t-41 52t-16 78q0 41 16 72.5t43.5 54t63.5 35.5t77 18l95 13v33q0 78 -67 78q-28 0 -48.5 -16.5t-25.5 -51.5l-135 20q8 25 23.5 50.5t41.5 45.5t63.5 32.5t90.5 12.5q94 0 145.5 -45t51.5 -144
v-366h-89zM262 89q36 0 73 25v154l-57 -9q-45 -8 -72 -27t-27 -59q0 -26 7.5 -42.5t19.5 -25.5t27 -12.5t29 -3.5zM269 665q20 0 35 11t21 40h119q-6 -38 -21.5 -63t-39 -41t-52.5 -22.5t-62 -6.5t-62 6.5t-52.5 22.5t-39 41t-21.5 63h119q6 -29 21 -40t35 -11zM391 849
q0 -30 -20 -54t-55 -35l-4 -20h-86l-3 58q29 3 49 15.5t20 33.5q0 12 -8 19.5t-22 7.5q-17 0 -28 -11.5t-14 -28.5l-83 18q14 39 45 65.5t89 26.5q22 0 43.5 -5.5t38.5 -16.5t27.5 -29.5t10.5 -43.5z" />
    <glyph glyph-name="uni1EB4" unicode="&#x1eb4;" horiz-adv-x="626" 
d="M315 789q20 0 35 9.5t21 31.5h119q-6 -34 -21.5 -57.5t-39 -38t-52.5 -21t-62 -6.5t-62 6.5t-52.5 21t-39 38t-21.5 57.5h119q6 -22 21 -31.5t35 -9.5zM462 0l-44 167h-222l-44 -167h-147l221 690h171l224 -690h-159zM224 269h167l-83 285zM376 840q-24 0 -41 6t-31 13
t-27.5 13t-30.5 6t-41.5 -9.5t-46.5 -26.5v85q22 16 46.5 24.5t45.5 8.5q24 0 41 -6t31 -13t27.5 -13t30.5 -6t41.5 9.5t46.5 26.5v-85q-22 -16 -46.5 -24.5t-45.5 -8.5z" />
    <glyph glyph-name="uni1EB5" unicode="&#x1eb5;" horiz-adv-x="545" 
d="M386 0l-31 58q-21 -29 -56.5 -48.5t-90.5 -19.5q-27 0 -56.5 9t-54.5 29t-41 52t-16 78q0 41 16 72.5t43.5 54t63.5 35.5t77 18l95 13v33q0 78 -67 78q-28 0 -48.5 -16.5t-25.5 -51.5l-135 20q8 25 23.5 50.5t41.5 45.5t63.5 32.5t90.5 12.5q94 0 145.5 -45t51.5 -144
v-366h-89zM262 89q36 0 73 25v154l-57 -9q-45 -8 -72 -27t-27 -59q0 -26 7.5 -42.5t19.5 -25.5t27 -12.5t29 -3.5zM267 592q-33 0 -62 7.5t-52 24.5t-39 44.5t-22 66.5h119q5 -33 20.5 -47t35.5 -14t35.5 14t20.5 47h119q-6 -39 -22 -66.5t-39 -44.5t-52 -24.5t-62 -7.5z
M331 760q-24 0 -41 6t-31 13t-27.5 13t-30.5 6t-41.5 -9.5t-46.5 -26.5v90q22 16 46.5 24.5t45.5 8.5q24 0 41 -6t31 -13t27.5 -13t30.5 -6t41.5 9.5t46.5 26.5v-90q-22 -16 -46.5 -24.5t-45.5 -8.5z" />
    <glyph glyph-name="uni1EB6" unicode="&#x1eb6;" horiz-adv-x="626" 
d="M462 0l-44 167h-222l-44 -167h-147l221 720h171l224 -720h-159zM224 269h167l-83 315zM237 -170v125h152v-125h-152zM313 834q20 0 35 11t21 40h119q-6 -38 -21.5 -63t-39 -41t-52.5 -22.5t-62 -6.5t-62 6.5t-52.5 22.5t-39 41t-21.5 63h119q6 -29 21 -40t35 -11z" />
    <glyph glyph-name="uni1EB7" unicode="&#x1eb7;" horiz-adv-x="545" 
d="M386 0l-31 58q-21 -29 -56.5 -48.5t-90.5 -19.5q-27 0 -56.5 9t-54.5 29t-41 52t-16 78q0 41 16 72.5t43.5 54t63.5 35.5t77 18l95 13v33q0 78 -67 78q-28 0 -48.5 -16.5t-25.5 -51.5l-135 20q8 25 23.5 50.5t41.5 45.5t63.5 32.5t90.5 12.5q94 0 145.5 -45t51.5 -144
v-366h-89zM262 89q36 0 73 25v154l-57 -9q-45 -8 -72 -27t-27 -59q0 -26 7.5 -42.5t19.5 -25.5t27 -12.5t29 -3.5zM192 -170v125h152v-125h-152zM269 592q-33 0 -62 7.5t-52 24.5t-39 44.5t-22 66.5h119q5 -33 20.5 -47t35.5 -14t35.5 14t20.5 47h119q-6 -39 -22 -66.5
t-39 -44.5t-52 -24.5t-62 -7.5z" />
    <glyph glyph-name="uni1EB8" unicode="&#x1eb8;" horiz-adv-x="515" 
d="M435 309h-205v-196h235v-113h-385v720h385v-115h-235v-188h205v-108zM200 -170v125h152v-125h-152z" />
    <glyph glyph-name="uni1EB9" unicode="&#x1eb9;" horiz-adv-x="546" 
d="M287 91q34 0 53.5 19t25.5 48l127 -20q-8 -27 -24 -53.5t-42 -47.5t-62.5 -34t-85.5 -13q-46 0 -87 15t-72 48t-49 86.5t-18 130.5q0 79 17.5 133.5t48.5 88t72 48.5t88 15q64 0 106 -21.5t67.5 -63.5t36 -102.5t10.5 -138.5h-303q3 -42 11.5 -69t20.5 -42.5t27 -21
t32 -5.5zM283 465q-17 0 -32 -5t-27 -20.5t-20 -44t-10 -74.5h174q-1 42 -7.5 70t-18 44.5t-26.5 23t-33 6.5zM208 -170v125h152v-125h-152z" />
    <glyph glyph-name="uni1EBA" unicode="&#x1eba;" horiz-adv-x="515" 
d="M435 309h-205v-196h235v-113h-385v720h385v-115h-235v-188h205v-108zM400 865q0 -30 -20 -54t-55 -35l-4 -20h-86l-3 58q29 3 49 15.5t20 33.5q0 12 -8 19.5t-22 7.5q-17 0 -28 -11.5t-14 -28.5l-83 18q14 39 45 65.5t89 26.5q22 0 43.5 -5.5t38.5 -16.5t27.5 -29.5
t10.5 -43.5z" />
    <glyph glyph-name="uni1EBB" unicode="&#x1ebb;" horiz-adv-x="546" 
d="M287 91q34 0 53.5 19t25.5 48l127 -20q-8 -27 -24 -53.5t-42 -47.5t-62.5 -34t-85.5 -13q-46 0 -87 15t-72 48t-49 86.5t-18 130.5q0 79 17.5 133.5t48.5 88t72 48.5t88 15q64 0 106 -21.5t67.5 -63.5t36 -102.5t10.5 -138.5h-303q3 -42 11.5 -69t20.5 -42.5t27 -21
t32 -5.5zM283 465q-17 0 -32 -5t-27 -20.5t-20 -44t-10 -74.5h174q-1 42 -7.5 70t-18 44.5t-26.5 23t-33 6.5zM407 714q0 -30 -20 -54t-55 -35l-4 -20h-86l-3 58q29 3 49 15.5t20 33.5q0 12 -8 19.5t-22 7.5q-17 0 -28 -11.5t-14 -28.5l-83 18q14 39 45 65.5t89 26.5
q22 0 43.5 -5.5t38.5 -16.5t27.5 -29.5t10.5 -43.5z" />
    <glyph glyph-name="uni1EBC" unicode="&#x1ebc;" horiz-adv-x="515" 
d="M435 309h-205v-196h235v-113h-385v720h385v-115h-235v-188h205v-108zM339 760q-24 0 -41 6t-31 13t-27.5 13t-30.5 6t-41.5 -9.5t-46.5 -26.5v90q22 16 46.5 24.5t45.5 8.5q24 0 41 -6t31 -13t27.5 -13t30.5 -6t41.5 9.5t46.5 26.5v-90q-22 -16 -46.5 -24.5t-45.5 -8.5z
" />
    <glyph glyph-name="uni1EBD" unicode="&#x1ebd;" horiz-adv-x="546" 
d="M287 91q34 0 53.5 19t25.5 48l127 -20q-8 -27 -24 -53.5t-42 -47.5t-62.5 -34t-85.5 -13q-46 0 -87 15t-72 48t-49 86.5t-18 130.5q0 79 17.5 133.5t48.5 88t72 48.5t88 15q64 0 106 -21.5t67.5 -63.5t36 -102.5t10.5 -138.5h-303q3 -42 11.5 -69t20.5 -42.5t27 -21
t32 -5.5zM283 465q-17 0 -32 -5t-27 -20.5t-20 -44t-10 -74.5h174q-1 42 -7.5 70t-18 44.5t-26.5 23t-33 6.5zM344 610q-24 0 -41 6t-31 13t-27.5 13t-30.5 6t-41.5 -9.5t-46.5 -26.5v90q22 16 46.5 24.5t45.5 8.5q24 0 41 -6t31 -13t27.5 -13t30.5 -6t41.5 9.5t46.5 26.5
v-90q-22 -16 -46.5 -24.5t-45.5 -8.5z" />
    <glyph glyph-name="uni1EBE" unicode="&#x1ebe;" horiz-adv-x="514" 
d="M435 309h-205v-196h235v-113h-385v720h385v-115h-235v-188h205v-108zM463 768h-130l-58 50l-57 -50h-131l120 117h136zM527 945h152l-126 -137h-100z" />
    <glyph glyph-name="uni1EBF" unicode="&#x1ebf;" horiz-adv-x="546" 
d="M287 91q34 0 53.5 19t25.5 48l127 -20q-8 -27 -24 -53.5t-42 -47.5t-62.5 -34t-85.5 -13q-46 0 -87 15t-72 48t-49 86.5t-18 130.5q0 79 17.5 133.5t48.5 88t72 48.5t88 15q64 0 106 -21.5t67.5 -63.5t36 -102.5t10.5 -138.5h-303q3 -42 11.5 -69t20.5 -42.5t27 -21
t32 -5.5zM283 465q-17 0 -32 -5t-27 -20.5t-20 -44t-10 -74.5h174q-1 42 -7.5 70t-18 44.5t-26.5 23t-33 6.5zM471 598h-122l-66 57l-66 -57h-122l120 137h136zM535 775h152l-126 -137h-100z" />
    <glyph glyph-name="uni1EC0" unicode="&#x1ec0;" horiz-adv-x="515" 
d="M436 309h-205v-196h235v-113h-385v720h385v-115h-235v-188h205v-108zM462 768h-130l-58 50l-57 -50h-131l120 117h136zM96 808h-100l-126 137h152z" />
    <glyph glyph-name="uni1EC1" unicode="&#x1ec1;" horiz-adv-x="546" 
d="M287 91q34 0 53.5 19t25.5 48l127 -20q-8 -27 -24 -53.5t-42 -47.5t-62.5 -34t-85.5 -13q-46 0 -87 15t-72 48t-49 86.5t-18 130.5q0 79 17.5 133.5t48.5 88t72 48.5t88 15q64 0 106 -21.5t67.5 -63.5t36 -102.5t10.5 -138.5h-303q3 -42 11.5 -69t20.5 -42.5t27 -21
t32 -5.5zM283 465q-17 0 -32 -5t-27 -20.5t-20 -44t-10 -74.5h174q-1 42 -7.5 70t-18 44.5t-26.5 23t-33 6.5zM471 598h-122l-66 57l-66 -57h-122l120 137h136zM105 638h-100l-126 137h152z" />
    <glyph glyph-name="uni1EC2" unicode="&#x1ec2;" horiz-adv-x="515" 
d="M435 309h-205v-196h235v-113h-385v720h385v-115h-235v-188h205v-108zM460 759h-130l-58 50l-57 -50h-131l120 117h136zM666 865q0 -30 -20 -54t-55 -35l-4 -20h-86l-3 58q29 3 49 15.5t20 33.5q0 12 -8 19.5t-22 7.5q-17 0 -28 -11.5t-14 -28.5l-83 18q14 39 45 65.5
t89 26.5q22 0 43.5 -5.5t38.5 -16.5t27.5 -29.5t10.5 -43.5z" />
    <glyph glyph-name="uni1EC3" unicode="&#x1ec3;" horiz-adv-x="546" 
d="M287 91q34 0 53.5 19t25.5 48l127 -20q-8 -27 -24 -53.5t-42 -47.5t-62.5 -34t-85.5 -13q-46 0 -87 15t-72 48t-49 86.5t-18 130.5q0 79 17.5 133.5t48.5 88t72 48.5t88 15q64 0 106 -21.5t67.5 -63.5t36 -102.5t10.5 -138.5h-303q3 -42 11.5 -69t20.5 -42.5t27 -21
t32 -5.5zM283 465q-17 0 -32 -5t-27 -20.5t-20 -44t-10 -74.5h174q-1 42 -7.5 70t-18 44.5t-26.5 23t-33 6.5zM470 598h-122l-66 57l-66 -57h-122l120 137h136zM674 708q0 -30 -20 -54t-55 -35l-4 -20h-86l-3 58q29 3 49 15.5t20 33.5q0 12 -8 19.5t-22 7.5q-17 0 -28 -11.5
t-14 -28.5l-83 18q14 39 45 65.5t89 26.5q22 0 43.5 -5.5t38.5 -16.5t27.5 -29.5t10.5 -43.5z" />
    <glyph glyph-name="uni1EC4" unicode="&#x1ec4;" horiz-adv-x="515" 
d="M435 297h-205v-184h235v-113h-385v690h385v-115h-235v-170h205v-108zM460 718h-130l-58 43l-57 -43h-131l120 107h136zM336 840q-24 0 -41 6t-31 13t-27.5 13t-30.5 6t-41.5 -9.5t-46.5 -26.5v85q22 16 46.5 24.5t45.5 8.5q24 0 41 -6t31 -13t27.5 -13t30.5 -6t41.5 9.5
t46.5 26.5v-85q-22 -16 -46.5 -24.5t-45.5 -8.5z" />
    <glyph glyph-name="uni1EC5" unicode="&#x1ec5;" horiz-adv-x="546" 
d="M287 91q34 0 53.5 19t25.5 48l127 -20q-8 -27 -24 -53.5t-42 -47.5t-62.5 -34t-85.5 -13q-46 0 -87 15t-72 48t-49 86.5t-18 130.5q0 79 17.5 133.5t48.5 88t72 48.5t88 15q64 0 106 -21.5t67.5 -63.5t36 -102.5t10.5 -138.5h-303q3 -42 11.5 -69t20.5 -42.5t27 -21
t32 -5.5zM283 465q-17 0 -32 -5t-27 -20.5t-20 -44t-10 -74.5h174q-1 42 -7.5 70t-18 44.5t-26.5 23t-33 6.5zM470 598h-122l-66 57l-66 -57h-122l120 137h136zM345 760q-24 0 -41 6t-31 13t-27.5 13t-30.5 6t-41.5 -9.5t-46.5 -26.5v90q22 16 46.5 24.5t45.5 8.5
q24 0 41 -6t31 -13t27.5 -13t30.5 -6t41.5 9.5t46.5 26.5v-90q-22 -16 -46.5 -24.5t-45.5 -8.5z" />
    <glyph glyph-name="uni1EC6" unicode="&#x1ec6;" horiz-adv-x="515" 
d="M435 309h-205v-196h235v-113h-385v720h385v-115h-235v-188h205v-108zM200 -170v125h152v-125h-152zM464 768h-130l-58 50l-57 -50h-131l120 117h136z" />
    <glyph glyph-name="uni1EC7" unicode="&#x1ec7;" horiz-adv-x="546" 
d="M287 91q34 0 53.5 19t25.5 48l127 -20q-8 -27 -24 -53.5t-42 -47.5t-62.5 -34t-85.5 -13q-46 0 -87 15t-72 48t-49 86.5t-18 130.5q0 79 17.5 133.5t48.5 88t72 48.5t88 15q64 0 106 -21.5t67.5 -63.5t36 -102.5t10.5 -138.5h-303q3 -42 11.5 -69t20.5 -42.5t27 -21
t32 -5.5zM283 465q-17 0 -32 -5t-27 -20.5t-20 -44t-10 -74.5h174q-1 42 -7.5 70t-18 44.5t-26.5 23t-33 6.5zM206 -170v125h152v-125h-152zM470 598h-122l-66 57l-66 -57h-122l120 137h136z" />
    <glyph glyph-name="uni1EC8" unicode="&#x1ec8;" horiz-adv-x="310" 
d="M230 720v-720h-150v720h150zM278 865q0 -30 -20 -54t-55 -35l-4 -20h-86l-3 58q29 3 49 15.5t20 33.5q0 12 -8 19.5t-22 7.5q-17 0 -28 -11.5t-14 -28.5l-83 18q14 39 45 65.5t89 26.5q22 0 43.5 -5.5t38.5 -16.5t27.5 -29.5t10.5 -43.5z" />
    <glyph glyph-name="uni1EC9" unicode="&#x1ec9;" horiz-adv-x="280" 
d="M70 0v540h140v-540h-140zM264 709q0 -30 -20 -54t-55 -35l-4 -20h-86l-3 58q29 3 49 15.5t20 33.5q0 12 -8 19.5t-22 7.5q-17 0 -28 -11.5t-14 -28.5l-83 18q14 39 45 65.5t89 26.5q22 0 43.5 -5.5t38.5 -16.5t27.5 -29.5t10.5 -43.5z" />
    <glyph glyph-name="uni1ECA" unicode="&#x1eca;" horiz-adv-x="310" 
d="M230 720v-720h-150v720h150zM79 -170v125h152v-125h-152z" />
    <glyph glyph-name="uni1ECB" unicode="&#x1ecb;" horiz-adv-x="280" 
d="M65 -170v125h152v-125h-152zM70 0v540h140v-540h-140zM64 610v125h152v-125h-152z" />
    <glyph glyph-name="uni1ECC" unicode="&#x1ecc;" horiz-adv-x="683" 
d="M60 360q0 105 21.5 176.5t59 115.5t89 63.5t111.5 19.5t111.5 -19.5t89.5 -63.5t59.5 -115.5t21.5 -176.5t-21.5 -176.5t-59 -115.5t-89 -63.5t-112.5 -19.5t-112.5 19.5t-89 63.5t-58.5 115.5t-21 176.5zM213 360q0 -76 9 -127t25.5 -81.5t40.5 -43.5t53 -13t53 13
t41 44t26 82t9 126t-10 126t-27 82t-41 44.5t-51 13.5t-50.5 -13t-41 -44t-27 -82t-9.5 -127zM265 -170v125h152v-125h-152z" />
    <glyph glyph-name="uni1ECD" unicode="&#x1ecd;" horiz-adv-x="585" 
d="M53 270q0 83 21 138t55 87.5t77 46t87 13.5t87 -13t76.5 -45.5t54.5 -87.5t21 -139t-21 -138t-54.5 -85.5t-76.5 -44t-87 -12.5t-87 12.5t-77 44.5t-55 86t-21 137zM197 270q0 -57 6.5 -92.5t19.5 -56t30.5 -27.5t40.5 -7q22 0 40 7t30 27t18.5 55.5t6.5 93.5t-6.5 94.5
t-19 57.5t-30.5 28.5t-40 7.5q-23 0 -40.5 -8t-30 -29t-19 -57.5t-6.5 -93.5zM217 -170v125h152v-125h-152z" />
    <glyph glyph-name="uni1ECE" unicode="&#x1ece;" horiz-adv-x="683" 
d="M60 360q0 105 21.5 176.5t59 115.5t89 63.5t111.5 19.5t111.5 -19.5t89.5 -63.5t59.5 -115.5t21.5 -176.5t-21.5 -176.5t-59 -115.5t-89 -63.5t-112.5 -19.5t-112.5 19.5t-89 63.5t-58.5 115.5t-21 176.5zM213 360q0 -76 9 -127t25.5 -81.5t40.5 -43.5t53 -13t53 13
t41 44t26 82t9 126t-10 126t-27 82t-41 44.5t-51 13.5t-50.5 -13t-41 -44t-27 -82t-9.5 -127zM461 865q0 -30 -20 -54t-55 -35l-4 -20h-86l-3 58q29 3 49 15.5t20 33.5q0 12 -8 19.5t-22 7.5q-17 0 -28 -11.5t-14 -28.5l-83 18q14 39 45 65.5t89 26.5q22 0 43.5 -5.5
t38.5 -16.5t27.5 -29.5t10.5 -43.5z" />
    <glyph glyph-name="uni1ECF" unicode="&#x1ecf;" horiz-adv-x="585" 
d="M53 270q0 83 21 138t55 87.5t77 46t87 13.5t87 -13t76.5 -45.5t54.5 -87.5t21 -139t-21 -138t-54.5 -85.5t-76.5 -44t-87 -12.5t-87 12.5t-77 44.5t-55 86t-21 137zM197 270q0 -57 6.5 -92.5t19.5 -56t30.5 -27.5t40.5 -7q22 0 40 7t30 27t18.5 55.5t6.5 93.5t-6.5 94.5
t-19 57.5t-30.5 28.5t-40 7.5q-23 0 -40.5 -8t-30 -29t-19 -57.5t-6.5 -93.5zM416 709q0 -30 -20 -54t-55 -35l-4 -20h-86l-3 58q29 3 49 15.5t20 33.5q0 12 -8 19.5t-22 7.5q-17 0 -28 -11.5t-14 -28.5l-83 18q14 39 45 65.5t89 26.5q22 0 43.5 -5.5t38.5 -16.5t27.5 -29.5
t10.5 -43.5z" />
    <glyph glyph-name="uni1ED0" unicode="&#x1ed0;" horiz-adv-x="683" 
d="M60 360q0 105 21.5 176.5t59 115.5t89 63.5t111.5 19.5t111.5 -19.5t89.5 -63.5t59.5 -115.5t21.5 -176.5t-21.5 -176.5t-59 -115.5t-89 -63.5t-112.5 -19.5t-112.5 19.5t-89 63.5t-58.5 115.5t-21 176.5zM213 360q0 -76 9 -127t25.5 -81.5t40.5 -43.5t53 -13t53 13
t41 44t26 82t9 126t-10 126t-27 82t-41 44.5t-51 13.5t-50.5 -13t-41 -44t-27 -82t-9.5 -127zM528 768h-130l-58 50l-57 -50h-131l120 117h136zM592 945h152l-126 -137h-100z" />
    <glyph glyph-name="uni1ED1" unicode="&#x1ed1;" horiz-adv-x="585" 
d="M53 270q0 83 21 138t55 87.5t77 46t87 13.5t87 -13t76.5 -45.5t54.5 -87.5t21 -139t-21 -138t-54.5 -85.5t-76.5 -44t-87 -12.5t-87 12.5t-77 44.5t-55 86t-21 137zM197 270q0 -57 6.5 -92.5t19.5 -56t30.5 -27.5t40.5 -7q22 0 40 7t30 27t18.5 55.5t6.5 93.5t-6.5 94.5
t-19 57.5t-30.5 28.5t-40 7.5q-23 0 -40.5 -8t-30 -29t-19 -57.5t-6.5 -93.5zM482 598h-122l-66 57l-66 -57h-122l120 137h136zM546 775h152l-126 -137h-100z" />
    <glyph glyph-name="uni1ED2" unicode="&#x1ed2;" horiz-adv-x="683" 
d="M60 360q0 105 21.5 176.5t59 115.5t89 63.5t111.5 19.5t111.5 -19.5t89.5 -63.5t59.5 -115.5t21.5 -176.5t-21.5 -176.5t-59 -115.5t-89 -63.5t-112.5 -19.5t-112.5 19.5t-89 63.5t-58.5 115.5t-21 176.5zM213 360q0 -76 9 -127t25.5 -81.5t40.5 -43.5t53 -13t53 13
t41 44t26 82t9 126t-10 126t-27 82t-41 44.5t-51 13.5t-50.5 -13t-41 -44t-27 -82t-9.5 -127zM528 768h-130l-58 50l-57 -50h-131l120 117h136zM162 808h-100l-126 137h152z" />
    <glyph glyph-name="uni1ED3" unicode="&#x1ed3;" horiz-adv-x="585" 
d="M53 270q0 83 21 138t55 87.5t77 46t87 13.5t87 -13t76.5 -45.5t54.5 -87.5t21 -139t-21 -138t-54.5 -85.5t-76.5 -44t-87 -12.5t-87 12.5t-77 44.5t-55 86t-21 137zM197 270q0 -57 6.5 -92.5t19.5 -56t30.5 -27.5t40.5 -7q22 0 40 7t30 27t18.5 55.5t6.5 93.5t-6.5 94.5
t-19 57.5t-30.5 28.5t-40 7.5q-23 0 -40.5 -8t-30 -29t-19 -57.5t-6.5 -93.5zM481 598h-122l-66 57l-66 -57h-122l120 137h136zM115 638h-100l-126 137h152z" />
    <glyph glyph-name="uni1ED4" unicode="&#x1ed4;" horiz-adv-x="683" 
d="M60 360q0 105 21.5 176.5t59 115.5t89 63.5t111.5 19.5t111.5 -19.5t89.5 -63.5t59.5 -115.5t21.5 -176.5t-21.5 -176.5t-59 -115.5t-89 -63.5t-112.5 -19.5t-112.5 19.5t-89 63.5t-58.5 115.5t-21 176.5zM213 360q0 -76 9 -127t25.5 -81.5t40.5 -43.5t53 -13t53 13
t41 44t26 82t9 126t-10 126t-27 82t-41 44.5t-51 13.5t-50.5 -13t-41 -44t-27 -82t-9.5 -127zM529 759h-130l-58 50l-57 -50h-131l120 117h136zM734 865q0 -30 -20 -54t-55 -35l-4 -20h-86l-3 58q29 3 49 15.5t20 33.5q0 12 -8 19.5t-22 7.5q-17 0 -28 -11.5t-14 -28.5
l-83 18q14 39 45 65.5t89 26.5q22 0 43.5 -5.5t38.5 -16.5t27.5 -29.5t10.5 -43.5z" />
    <glyph glyph-name="uni1ED5" unicode="&#x1ed5;" horiz-adv-x="585" 
d="M53 270q0 83 21 138t55 87.5t77 46t87 13.5t87 -13t76.5 -45.5t54.5 -87.5t21 -139t-21 -138t-54.5 -85.5t-76.5 -44t-87 -12.5t-87 12.5t-77 44.5t-55 86t-21 137zM197 270q0 -57 6.5 -92.5t19.5 -56t30.5 -27.5t40.5 -7q22 0 40 7t30 27t18.5 55.5t6.5 93.5t-6.5 94.5
t-19 57.5t-30.5 28.5t-40 7.5q-23 0 -40.5 -8t-30 -29t-19 -57.5t-6.5 -93.5zM483 598h-122l-66 57l-66 -57h-122l120 137h136zM690 708q0 -30 -20 -54t-55 -35l-4 -20h-86l-3 58q29 3 49 15.5t20 33.5q0 12 -8 19.5t-22 7.5q-17 0 -28 -11.5t-14 -28.5l-83 18
q14 39 45 65.5t89 26.5q22 0 43.5 -5.5t38.5 -16.5t27.5 -29.5t10.5 -43.5z" />
    <glyph glyph-name="uni1ED6" unicode="&#x1ed6;" horiz-adv-x="683" 
d="M60 345q0 99 21.5 167.5t59 111.5t89 62t111.5 19t111.5 -19t89.5 -62t59.5 -111.5t21.5 -167.5t-21.5 -167.5t-59 -111t-89 -62t-112.5 -19.5t-112.5 19t-89 62t-58.5 111.5t-21 167.5zM213 345q0 -70 9 -118t25.5 -77t40.5 -42t53 -13t53 13t41 42t26 77t9 118t-10 118
t-27 77.5t-41 42.5t-51 13t-50.5 -13t-41 -42.5t-27 -77.5t-9.5 -118zM526 718h-130l-58 43l-57 -43h-131l120 107h136zM402 840q-24 0 -41 6t-31 13t-27.5 13t-30.5 6t-41.5 -9.5t-46.5 -26.5v85q22 16 46.5 24.5t45.5 8.5q24 0 41 -6t31 -13t27.5 -13t30.5 -6t41.5 9.5
t46.5 26.5v-85q-22 -16 -46.5 -24.5t-45.5 -8.5z" />
    <glyph glyph-name="uni1ED7" unicode="&#x1ed7;" horiz-adv-x="585" 
d="M53 270q0 83 21 138t55 87.5t77 46t87 13.5t87 -13t76.5 -45.5t54.5 -87.5t21 -139t-21 -138t-54.5 -85.5t-76.5 -44t-87 -12.5t-87 12.5t-77 44.5t-55 86t-21 137zM197 270q0 -57 6.5 -92.5t19.5 -56t30.5 -27.5t40.5 -7q22 0 40 7t30 27t18.5 55.5t6.5 93.5t-6.5 94.5
t-19 57.5t-30.5 28.5t-40 7.5q-23 0 -40.5 -8t-30 -29t-19 -57.5t-6.5 -93.5zM480 598h-122l-66 57l-66 -57h-122l120 137h136zM356 760q-24 0 -41 6t-31 13t-27.5 13t-30.5 6t-41.5 -9.5t-46.5 -26.5v90q22 16 46.5 24.5t45.5 8.5q24 0 41 -6t31 -13t27.5 -13t30.5 -6
t41.5 9.5t46.5 26.5v-90q-22 -16 -46.5 -24.5t-45.5 -8.5z" />
    <glyph glyph-name="uni1ED8" unicode="&#x1ed8;" horiz-adv-x="683" 
d="M60 360q0 105 21.5 176.5t59 115.5t89 63.5t111.5 19.5t111.5 -19.5t89.5 -63.5t59.5 -115.5t21.5 -176.5t-21.5 -176.5t-59 -115.5t-89 -63.5t-112.5 -19.5t-112.5 19.5t-89 63.5t-58.5 115.5t-21 176.5zM213 360q0 -76 9 -127t25.5 -81.5t40.5 -43.5t53 -13t53 13
t41 44t26 82t9 126t-10 126t-27 82t-41 44.5t-51 13.5t-50.5 -13t-41 -44t-27 -82t-9.5 -127zM266 -170v125h152v-125h-152zM529 778h-122l-66 57l-66 -57h-122l120 137h136z" />
    <glyph glyph-name="uni1ED9" unicode="&#x1ed9;" horiz-adv-x="585" 
d="M53 270q0 83 21 138t55 87.5t77 46t87 13.5t87 -13t76.5 -45.5t54.5 -87.5t21 -139t-21 -138t-54.5 -85.5t-76.5 -44t-87 -12.5t-87 12.5t-77 44.5t-55 86t-21 137zM197 270q0 -57 6.5 -92.5t19.5 -56t30.5 -27.5t40.5 -7q22 0 40 7t30 27t18.5 55.5t6.5 93.5t-6.5 94.5
t-19 57.5t-30.5 28.5t-40 7.5q-23 0 -40.5 -8t-30 -29t-19 -57.5t-6.5 -93.5zM218 -170v125h152v-125h-152zM482 598h-122l-66 57l-66 -57h-122l120 137h136z" />
    <glyph glyph-name="uni1EDA" unicode="&#x1eda;" horiz-adv-x="729" 
d="M361 915h152l-126 -137h-100zM739 681q0 -30 -12 -56t-30.5 -47t-42 -37t-47.5 -27q16 -63 16 -154q0 -105 -21.5 -176.5t-59 -115.5t-89 -63.5t-112.5 -19.5t-112.5 19.5t-89 63.5t-58.5 115.5t-21 176.5t21.5 176.5t59 115.5t89 63.5t111.5 19.5q78 0 140.5 -33.5
t99.5 -111.5q16 13 23.5 34t7.5 56v75h127v-74zM213 360q0 -76 9 -127t25.5 -81.5t40.5 -43.5t53 -13t53 13t41 44t26 82t9 126t-10 126t-27 82t-41 44.5t-51 13.5t-50.5 -13t-41 -44t-27 -82t-9.5 -127z" />
    <glyph glyph-name="uni1EDB" unicode="&#x1edb;" horiz-adv-x="647" 
d="M303 735h152l-126 -137h-100zM657 486q0 -31 -11.5 -56.5t-29.5 -45.5t-41 -35.5t-46 -25.5q3 -24 3 -53q0 -84 -21 -138t-54.5 -85.5t-76.5 -44t-87 -12.5t-87 12.5t-77 44.5t-55 86t-21 137t21 138t55 87.5t77 46t87 13.5q34 0 67 -7.5t62 -25t52.5 -47t38.5 -72.5
q22 25 22 82v75h122v-74zM197 270q0 -57 6.5 -92.5t19.5 -56t30.5 -27.5t40.5 -7q22 0 40 7t30 27t18.5 55.5t6.5 93.5t-6.5 94.5t-19 57.5t-30.5 28.5t-40 7.5q-23 0 -40.5 -8t-30 -29t-19 -57.5t-6.5 -93.5z" />
    </font>
</defs>
</svg>
