<?xml version="1.0" standalone="no"?>
<!DOCTYPE svg PUBLIC "-//W3C//DTD SVG 1.1//EN" "http://www.w3.org/Graphics/SVG/1.1/DTD/svg11.dtd" >
<svg xmlns="http://www.w3.org/2000/svg" xmlns:xlink="http://www.w3.org/1999/xlink" version="1.1">
<metadata>
Created by FontForge 20150504 at Tue Jul  7 16:15:46 2015
 By Jimmy Wärting
Copyright (c) 2006 by Ralph du Carrois. All rights reserved.
</metadata>
<defs>
<font id="SuzukiPROHeadline" horiz-adv-x="420" >
  <font-face 
    font-family="SuzukiPROHeadline"
    font-weight="700"
    font-stretch="normal"
    units-per-em="1000"
    panose-1="2 11 8 6 5 0 0 2 0 4"
    ascent="798"
    descent="-202"
    x-height="540"
    cap-height="720"
    bbox="-319 -275 870 960"
    underline-thickness="50"
    underline-position="-100"
    unicode-range="U+0020-FB05"
  />
<missing-glyph horiz-adv-x="423" 
d="M35 720h353v-720h-353v720zM270 118v484h-117v-484h117z" />
    <glyph glyph-name="ff" unicode="ff" horiz-adv-x="508" 
d="M436 440v-440h-140v440h-106v-440h-140v440h-50v100h50v30q0 47 15.5 79t40 51t56.5 27t65 8q38 0 68.5 -3.5t56.5 -8.5q18 12 40.5 17t48.5 5q34 0 57.5 -5t39.5 -10v-101q-15 5 -30 7.5t-27 2.5q-26 0 -35.5 -10.5t-9.5 -42.5v-46h81v-100h-81zM190 540h106v40
q0 26 3 47q-23 3 -44 3q-26 0 -45.5 -11t-19.5 -43v-36z" />
    <glyph glyph-name="fi" unicode="fi" horiz-adv-x="472" 
d="M422 613q-13 3 -32 8t-41 9t-46 7t-48 3q-26 0 -45.5 -11t-19.5 -43v-46h247v-540h-140v440h-107v-440h-140v440h-50v100h50v40q0 47 15 79t39.5 51t56 27t64.5 8q64 0 110 -9t87 -20v-103z" />
    <glyph glyph-name="fl" unicode="fl" horiz-adv-x="472" 
d="M297 0v635q-25 5 -42 5q-26 0 -45.5 -11t-19.5 -43v-46h62v-100h-62v-440h-140v440h-50v100h50v40q0 47 15 79t39.5 51t56 27t64.5 8q54 0 104 -10h108v-735h-140z" />
    <glyph glyph-name="ffi" unicode="ffi" horiz-adv-x="719" 
d="M544 0v440h-107v-440h-140v440h-107v-440h-140v440h-50v100h50v30q0 47 15.5 79t40 51t56.5 27t65 8q43 0 77 -4.5t63 -10.5q23 13 50 19t55 6q64 0 110 -9t87 -20v-103q-13 3 -32 8t-41 9t-46 7t-48 3q-26 0 -45.5 -11t-19.5 -43v-46h247v-540h-140zM190 540h107v40
q0 30 4 47q-11 1 -23 2t-23 1q-26 0 -45.5 -11t-19.5 -43v-36z" />
    <glyph glyph-name="ffl" unicode="ffl" horiz-adv-x="719" 
d="M437 440v-440h-140v440h-107v-440h-140v440h-50v100h50v30q0 47 15.5 79t40 51t56.5 27t65 8q43 0 77 -4.5t63 -10.5q23 13 50 19t55 6q54 0 104 -10h108v-735h-140v635q-25 5 -42 5q-26 0 -45.5 -11t-19.5 -43v-46h62v-100h-62zM190 540h107v40q0 30 4 47q-11 1 -23 2
t-23 1q-26 0 -45.5 -11t-19.5 -43v-36z" />
    <glyph glyph-name=".notdef" horiz-adv-x="423" 
d="M35 720h353v-720h-353v720zM270 118v484h-117v-484h117z" />
    <glyph glyph-name=".null" horiz-adv-x="0" 
 />
    <glyph glyph-name="nonmarkingreturn" horiz-adv-x="220" 
 />
    <glyph glyph-name="space" unicode=" " horiz-adv-x="220" 
 />
    <glyph glyph-name="exclam" unicode="!" horiz-adv-x="220" 
d="M35 0v140h150v-140h-150zM52 240l-15 480h146l-15 -480h-116z" />
    <glyph glyph-name="quotedbl" unicode="&#x22;" horiz-adv-x="400" 
d="M180 631l-34 -173h-72l-34 172v105h140v-104zM360 631l-34 -173h-72l-34 172v105h140v-104z" />
    <glyph glyph-name="numbersign" unicode="#" 
d="M384 179h-54l-15 -179h-111l15 179h-54l-15 -179h-111l15 179h-48l8 98h49l13 153h-50l9 98h50l15 172h111l-15 -172h54l15 172h111l-15 -172h53l-9 -98h-53l-13 -153h54zM174 277h54l13 153h-54z" />
    <glyph glyph-name="dollar" unicode="$" 
d="M159 -9q-36 9 -60 28.5t-39.5 43.5t-23 50t-10.5 47l135 20q2 -17 5 -34t8.5 -30.5t14 -21.5t22.5 -8q19 0 32 20t13 77q0 46 -26.5 72.5t-71.5 49.5q-33 17 -58 35t-42.5 41.5t-26 54t-8.5 72.5q0 75 34.5 127.5t101.5 68.5v96h102v-96q33 -8 56 -26t38 -40.5t23 -46.5
t11 -45l-136 -25q-5 39 -14.5 64t-31.5 25t-32.5 -19.5t-10.5 -65.5q0 -35 18 -58t68 -45q75 -33 111 -84t36 -141q0 -85 -33.5 -138.5t-102.5 -68.5v-105h-102v106z" />
    <glyph glyph-name="percent" unicode="%" horiz-adv-x="630" 
d="M233 0h-111l275 700h111zM30 541q0 85 28.5 127t94.5 42t94 -42t28 -127t-28 -126t-94 -41t-94.5 41t-28.5 126zM131 541q0 -30 1 -49t3.5 -30t7 -15t10.5 -4t10.5 4t7 15t3.5 30t1 49q0 60 -4.5 80t-17.5 20t-17.5 -20t-4.5 -80zM355 157q0 85 28.5 127t94.5 42t94 -42
t28 -127t-28 -126t-94 -41t-94.5 41t-28.5 126zM456 157q0 -30 1 -49t3.5 -30t7 -15t10.5 -4t10.5 4t7 15t3.5 30t1 49q0 60 -4.5 80t-17.5 20t-17.5 -20t-4.5 -80z" />
    <glyph glyph-name="ampersand" unicode="&#x26;" horiz-adv-x="596" 
d="M513 354q-5 -54 -17 -103.5t-31 -92.5l131 -158h-157l-45 53q-32 -30 -72.5 -46.5t-92.5 -16.5q-90 0 -142 49t-52 134q0 65 25 109t74 86q-23 31 -38 55t-23 44.5t-11 39.5t-3 40q0 25 8.5 54t28 53t52.5 40t81 16q52 0 84.5 -17.5t51.5 -43.5t26 -56.5t7 -56.5
q0 -51 -28 -93t-73 -80l78 -95q10 46 15 102zM249 105q40 0 72 36l-116 138q-16 -21 -22 -43t-6 -52q0 -42 21.5 -60.5t50.5 -18.5zM197 547q0 -14 1 -26t5 -23.5t11 -24.5t19 -29q22 23 26.5 47.5t4.5 56.5q0 35 -10 48.5t-24 13.5q-16 0 -24.5 -15t-8.5 -48z" />
    <glyph glyph-name="quotesingle" unicode="'" horiz-adv-x="220" 
d="M180 631l-34 -173h-72l-34 172v105h140v-104z" />
    <glyph glyph-name="parenleft" unicode="(" horiz-adv-x="300" 
d="M30 329q0 95 12 166t31 126.5t41 100.5t42 88h124q-21 -46 -41.5 -96t-36.5 -108t-26 -126t-10 -150q0 -95 10 -167.5t26 -131t36.5 -107t41.5 -94.5h-124q-21 43 -43.5 90.5t-40.5 106.5t-30 132.5t-12 169.5z" />
    <glyph glyph-name="parenright" unicode=")" horiz-adv-x="300" 
d="M270 329q0 -96 -12 -169.5t-30 -132.5t-40.5 -106.5t-43.5 -90.5h-124q21 46 41.5 94.5t36.5 107t26 131t10 167.5q0 82 -10 150t-26 126t-36.5 108t-41.5 96h124q20 -43 42 -88t41 -100.5t31 -126.5t12 -166z" />
    <glyph glyph-name="asterisk" unicode="*" horiz-adv-x="450" 
d="M256 595l121 80l43 -133l-145 -7l114 -90l-113 -82l-51 135l-51 -135l-113 82l113 90l-144 7l43 133l120 -80l-38 140h140z" />
    <glyph glyph-name="plus" unicode="+" 
d="M146 262h-116v118h116v129h128v-129h116v-118h-116v-129h-128v129z" />
    <glyph glyph-name="comma" unicode="," horiz-adv-x="225" 
d="M185 1l-84 -163h-81l55 162h-35v135h145v-134z" />
    <glyph glyph-name="hyphen" unicode="-" horiz-adv-x="300" 
d="M30 261v121h240v-121h-240z" />
    <glyph glyph-name="period" unicode="." horiz-adv-x="225" 
d="M40 0v135h145v-135h-145z" />
    <glyph glyph-name="slash" unicode="/" horiz-adv-x="320" 
d="M125 -90h-125l195 820h125z" />
    <glyph glyph-name="zero" unicode="0" 
d="M26 349q0 98 8.5 166.5t29.5 112t56.5 63t90.5 19.5t90.5 -19.5t56.5 -63t29 -112t8 -166.5q0 -96 -8 -164t-29 -111.5t-56.5 -63.5t-90.5 -20t-90.5 20.5t-56.5 64t-29.5 111.5t-8.5 163zM169 349q0 -79 1.5 -129.5t6 -80t12.5 -40.5t22 -11q13 0 21.5 11t12.5 40.5
t5.5 80t1.5 129.5t-1.5 130t-5.5 81t-12.5 41.5t-21.5 11.5q-14 0 -22 -11.5t-12.5 -41.5t-6 -81t-1.5 -130z" />
    <glyph glyph-name="one" unicode="1" 
d="M66 0v107h103v465l-112 -84v130l106 82h141v-593h83v-107h-321z" />
    <glyph glyph-name="two" unicode="2" 
d="M207 602q-11 0 -18.5 -8t-12.5 -21t-8 -30.5t-5 -36.5l-133 17q3 30 14.5 63t33 60.5t55.5 45.5t82 18q37 0 68.5 -10.5t54 -34.5t35 -62.5t12.5 -94.5q0 -27 -5 -53.5t-16.5 -56t-30.5 -64t-47 -79.5l-88 -138h174v-117h-327v117l127 205q18 30 31 53t22 44t13 41.5
t4 44.5q0 32 -2.5 51t-7 29.5t-11 13.5t-14.5 3z" />
    <glyph glyph-name="three" unicode="3" 
d="M202 95q9 0 16.5 4.5t12.5 16t7.5 32t2.5 52.5q0 41 -4.5 65t-13 36.5t-21.5 16t-31 3.5h-30v99h38q10 0 18.5 4t15 14.5t10.5 29t4 47.5q0 28 -2 45.5t-6 27.5t-10 13.5t-14 3.5q-11 0 -18 -7.5t-11.5 -19.5t-6.5 -27t-3 -30l-131 17q11 78 56.5 125t117.5 47
q36 0 67.5 -9t54.5 -31t36 -59.5t13 -94.5q0 -21 -5.5 -44t-16.5 -42.5t-28.5 -34t-41.5 -18.5q50 -5 79 -45q28 -40 28 -129q0 -59 -14 -99.5t-38 -66t-57.5 -36.5t-72.5 -11q-44 0 -74.5 14.5t-51 38.5t-32 55t-16.5 64l131 17q1 -14 3 -29t6.5 -27t12 -20t20.5 -8z" />
    <glyph glyph-name="four" unicode="4" 
d="M338 444v-200h55v-107h-55v-137h-130v137h-184v114l108 449h132l-109 -456h60l22 200h101z" />
    <glyph glyph-name="five" unicode="5" 
d="M201 95q10 0 17.5 5.5t12.5 20t7.5 40.5t2.5 67q0 43 -3 69.5t-8 41.5t-12 20.5t-15 5.5q-9 0 -22.5 -9.5t-20.5 -39.5h-108l19 384h281v-102h-159l-10 -169q12 14 29 24t42 10q28 0 52.5 -12.5t41.5 -40.5t27 -74t10 -112q0 -117 -50 -175.5t-134 -58.5q-47 0 -77.5 16
t-50 40t-29 52.5t-13.5 53.5l131 17q3 -28 11 -51t28 -23z" />
    <glyph glyph-name="six" unicode="6" 
d="M222 612q-10 0 -17.5 -5.5t-12.5 -25.5t-8 -59t-4 -106q16 20 37 33.5t49 13.5q73 0 100.5 -55.5t27.5 -175.5q0 -70 -11.5 -116.5t-34 -74.5t-55 -39.5t-74.5 -11.5q-49 0 -83.5 15t-56.5 54t-32.5 106t-10.5 172q0 123 13.5 196.5t39 113t61 51.5t80.5 12t74 -15.5
t46 -39.5t25 -52t12 -53l-134 -17q-2 35 -8 57t-23 22zM215 355q-8 0 -17 -4t-18 -10q0 -87 2.5 -137t8 -75.5t12.5 -32t16 -6.5t15.5 4t10.5 18.5t5.5 41.5t1.5 74q0 39 -1.5 63.5t-6 38.5t-11.5 19.5t-18 5.5z" />
    <glyph glyph-name="seven" unicode="7" 
d="M211 0h-142l165 590h-201v110h333v-120z" />
    <glyph glyph-name="eight" unicode="8" 
d="M210 -10q-99 0 -143 52t-44 153q0 38 7.5 65.5t20.5 46t29.5 30t33.5 17.5q-37 18 -56.5 58t-19.5 106q0 100 43.5 146t128.5 46q81 0 126.5 -44t45.5 -141q0 -54 -24.5 -88.5t-56.5 -47.5q17 -6 34 -19t31 -35t22.5 -54.5t8.5 -78.5q0 -111 -44 -161.5t-143 -50.5z
M249 202q0 29 -1.5 49t-7 33.5t-16 22.5t-27.5 16q-8 -7 -13 -14t-8 -19.5t-4 -33t-1 -54.5q0 -54 6.5 -82.5t32.5 -28.5t32.5 28.5t6.5 82.5zM244 518q0 33 -2.5 53t-7 31t-11 14.5t-13.5 3.5q-8 0 -14 -3.5t-10.5 -14.5t-7 -31t-2.5 -53q0 -48 13.5 -70.5t33.5 -27.5
q3 3 7 7.5t7 14.5t5 28t2 48z" />
    <glyph glyph-name="nine" unicode="9" 
d="M212 86q10 0 17 6t11.5 27.5t6.5 63t3 113.5q-17 -20 -37.5 -32t-46.5 -12q-36 0 -61 16.5t-40.5 46.5t-22 72.5t-6.5 94.5q0 63 12.5 106.5t36.5 70.5t57.5 39t75.5 12q49 0 82.5 -19t54.5 -61.5t30 -109.5t9 -163q0 -114 -12.5 -186t-36 -112t-57 -54.5t-76.5 -14.5
t-71.5 15.5t-46.5 39.5t-27.5 52t-13.5 53l124 17q2 -35 10 -58t25 -23zM215 355q8 0 16.5 3.5t18.5 8.5q0 87 -3 136t-8 73t-12 29t-16 5t-15.5 -5t-10.5 -19t-5.5 -40.5t-1.5 -68.5q0 -39 1.5 -62.5t6 -37t11.5 -18t18 -4.5z" />
    <glyph glyph-name="colon" unicode=":" horiz-adv-x="225" 
d="M40 0v135h145v-135h-145zM40 405v135h145v-135h-145z" />
    <glyph glyph-name="semicolon" unicode=";" horiz-adv-x="225" 
d="M40 405v135h145v-135h-145zM185 1l-84 -163h-81l55 162h-35v135h145v-134z" />
    <glyph glyph-name="less" unicode="&#x3c;" 
d="M40 259v120l340 147v-135l-212 -75l212 -75v-133z" />
    <glyph glyph-name="equal" unicode="=" 
d="M40 361v120h340v-120h-340zM40 171v120h340v-120h-340z" />
    <glyph glyph-name="greater" unicode="&#x3e;" 
d="M40 108v133l212 75l-212 75v135l340 -147v-120z" />
    <glyph glyph-name="question" unicode="?" horiz-adv-x="400" 
d="M124 0v140h150v-140h-150zM200 632q-19 0 -27.5 -24.5t-10.5 -61.5l-137 17q4 25 14.5 55t31 56t53.5 43.5t83 17.5q36 0 66.5 -9t53 -31t35.5 -58.5t13 -91.5q0 -50 -16.5 -81t-37 -55t-37 -49t-16.5 -63v-57h-139v79q0 30 7.5 51.5t18.5 38.5t24.5 31.5t24.5 32
t18.5 39.5t7.5 54q0 39 -8 52.5t-22 13.5z" />
    <glyph glyph-name="at" unicode="@" horiz-adv-x="783" 
d="M559 96q-40 0 -65.5 21t-33.5 54q-12 -31 -42 -53t-75 -22q-26 0 -47 8t-36 27.5t-23.5 51.5t-8.5 80q0 102 18.5 161.5t45 91t54.5 40.5t47 9q20 0 37.5 -6.5t28.5 -20.5l13 18h85l-26 -237q-2 -16 -4 -39.5t-2 -36.5q0 -20 2.5 -32t6.5 -18t9.5 -8t11.5 -2q27 0 48 48
t21 142q0 80 -12 132t-37.5 82t-64 42t-91.5 12q-48 0 -93.5 -16t-81.5 -54.5t-57.5 -102t-21.5 -158.5q0 -92 19.5 -152.5t51.5 -96t73.5 -50t85.5 -14.5q42 0 72 4.5t63 12.5v-88q-31 -8 -66 -15t-77 -7q-72 0 -135 25.5t-110 76t-74.5 127t-27.5 178.5q0 119 34 200
t88 131t121.5 71.5t135.5 21.5q157 0 240.5 -87t83.5 -271q0 -55 -13 -105.5t-37 -89.5t-58 -62.5t-76 -23.5zM411 479q-17 0 -29 -18t-20 -50t-12 -77t-4 -100q0 -32 6.5 -40.5t17.5 -8.5q32 0 37 55l22 233q-8 6 -18 6z" />
    <glyph glyph-name="A" unicode="A" horiz-adv-x="490" 
d="M329 0l-26 167h-131l-27 -167h-143l159 720h165l162 -720h-159zM188 269h99l-48 316z" />
    <glyph glyph-name="B" unicode="B" horiz-adv-x="471" 
d="M192 720q58 0 102.5 -8.5t74.5 -30.5t45 -58.5t15 -93.5q0 -54 -24.5 -94.5t-75.5 -54.5q25 -3 48 -15.5t40 -33.5t27 -51t10 -69q0 -58 -13.5 -98t-43 -65t-77 -36.5t-114.5 -11.5h-161v720h147zM195 328v-226h18q24 0 40.5 5t27 17.5t15 33.5t4.5 53q0 55 -16 86
t-66 31h-23zM195 618v-194h13q15 0 28 4t22.5 15.5t15.5 31t6 51.5q0 48 -18.5 70t-56.5 22h-10z" />
    <glyph glyph-name="C" unicode="C" horiz-adv-x="452" 
d="M245 94q15 0 24.5 10t15.5 26.5t8.5 37.5t2.5 44l141 -15q-3 -32 -12.5 -69.5t-31.5 -69t-58.5 -52.5t-94.5 -21q-48 0 -86.5 15.5t-65 57.5t-41 115t-14.5 187q0 112 14.5 185t42 115t67.5 58.5t91 16.5q53 0 87 -20.5t54.5 -51t29.5 -65.5t12 -65l-139 -17
q-2 21 -4 40.5t-7 35.5t-13.5 25.5t-22.5 9.5q-17 0 -28 -12t-17 -42t-8 -82t-2 -131q0 -80 2 -131.5t8 -81.5t17 -41.5t28 -11.5z" />
    <glyph glyph-name="D" unicode="D" horiz-adv-x="499" 
d="M207 720q61 0 109 -14t81.5 -53.5t51 -110t17.5 -182.5q0 -113 -18.5 -183t-52.5 -109.5t-81.5 -53.5t-104.5 -14h-164v720h162zM195 612v-503h14q27 0 46 9.5t32 36.5t19 76t6 129q0 79 -6 128.5t-19 77t-33 37t-47 9.5h-12z" />
    <glyph glyph-name="E" unicode="E" horiz-adv-x="392" 
d="M335 309h-140v-196h170v-113h-320v720h320v-115h-170v-188h140v-108z" />
    <glyph glyph-name="F" unicode="F" horiz-adv-x="379" 
d="M332 295h-137v-295h-150v720h317v-113h-167v-204h137v-108z" />
    <glyph glyph-name="G" unicode="G" horiz-adv-x="467" 
d="M425 0h-75l-21 38q-16 -22 -42.5 -37.5t-68.5 -15.5q-39 0 -73 15.5t-59 57.5t-39 115t-14 187q0 112 15.5 185t44 115t69 58.5t90.5 16.5q46 0 78.5 -16t54 -41t33 -55.5t16.5 -59.5l-137 -17q-2 13 -4.5 27.5t-8 26.5t-13.5 20t-21 8q-16 0 -27 -12t-18.5 -42.5
t-11 -82.5t-3.5 -131q0 -80 1.5 -131.5t7.5 -81.5t17 -41.5t31 -11.5q19 0 30 7.5t19 20.5v192h-45v104h174v-418z" />
    <glyph glyph-name="H" unicode="H" horiz-adv-x="500" 
d="M455 720v-720h-150v310h-110v-310h-150v720h150v-302h110v302h150z" />
    <glyph glyph-name="I" unicode="I" horiz-adv-x="240" 
d="M195 720v-720h-150v720h150z" />
    <glyph glyph-name="J" unicode="J" horiz-adv-x="319" 
d="M124 720h150v-518q0 -42 -4.5 -81t-21 -69t-49.5 -48.5t-90 -18.5q-28 0 -54.5 4.5t-44.5 10.5v107q36 -11 64 -11q14 0 23.5 3.5t15.5 14t8.5 30t2.5 51.5v525z" />
    <glyph glyph-name="K" unicode="K" horiz-adv-x="504" 
d="M328 0l-133 297v-297h-150v720h150v-280l117 280h151l-159 -334l197 -386h-173z" />
    <glyph glyph-name="L" unicode="L" horiz-adv-x="394" 
d="M195 720v-603h197v-117h-347v720h150z" />
    <glyph glyph-name="M" unicode="M" horiz-adv-x="652" 
d="M267 0l-96 509v-509h-126v720h195l84 -492l83 492h200v-720h-137v509l-91 -509h-112z" />
    <glyph glyph-name="N" unicode="N" horiz-adv-x="521" 
d="M476 720v-720h-188l-118 523v-523h-125v720h201l105 -516v516h125z" />
    <glyph glyph-name="O" unicode="O" horiz-adv-x="489" 
d="M456 360q0 -105 -11.5 -176.5t-36.5 -115.5t-65.5 -63.5t-97.5 -19.5q-62 0 -103 19.5t-65 63.5t-34 115.5t-10 176.5t11.5 176.5t37 115.5t66 63.5t97.5 19.5t97.5 -19.5t65.5 -63.5t36.5 -115.5t11.5 -176.5zM303 360q0 76 -2 127t-8 82t-17.5 44t-30.5 13
q-20 0 -31.5 -13.5t-17.5 -44.5t-8 -82t-2 -126t2 -126t8.5 -82t18 -44t30.5 -13t30.5 13t17.5 43.5t8 81.5t2 127z" />
    <glyph glyph-name="P" unicode="P" horiz-adv-x="461" 
d="M201 720q57 0 102.5 -9.5t77 -35.5t48.5 -72.5t17 -120.5t-16.5 -120.5t-47.5 -72.5t-75.5 -35.5t-99.5 -9.5h-12v-244h-150v720h156zM195 613v-262h14q19 0 34 5t25.5 19t16 39.5t5.5 67.5t-5 67.5t-15.5 39.5t-27 19t-39.5 5h-8z" />
    <glyph glyph-name="Q" unicode="Q" horiz-adv-x="489" 
d="M33 360q0 105 11.5 176.5t36.5 115.5t65.5 63.5t97.5 19.5t97.5 -19.5t66 -63.5t37 -115.5t11.5 -176.5q0 -164 -29.5 -250.5t-99.5 -108.5l129 -16v-118l-244 67v53q-48 5 -82 27.5t-55.5 67t-31.5 113t-10 165.5zM186 360q0 -76 2 -127t8 -81.5t17.5 -43.5t30.5 -13
t30.5 13t18 44t8.5 82t2 126t-2 126t-8 82t-18 44.5t-31 13.5q-20 0 -31.5 -13t-17.5 -44t-7.5 -82t-1.5 -127z" />
    <glyph glyph-name="R" unicode="R" horiz-adv-x="484" 
d="M312 0l-103 267h-14v-267h-150v720h158q57 0 101.5 -11.5t75 -38t46 -69.5t15.5 -107q0 -76 -26 -121.5t-74 -71.5l138 -301h-167zM195 612v-238h16q37 0 55.5 25.5t18.5 94.5q0 37 -4.5 60.5t-14 36t-25 17t-36.5 4.5h-10z" />
    <glyph glyph-name="S" unicode="S" horiz-adv-x="426" 
d="M211 626q-20 0 -32 -17t-12 -53q0 -18 3.5 -33t15 -30t32.5 -30t56 -33q34 -18 58 -39.5t39.5 -49t22.5 -63t7 -81.5q0 -100 -48.5 -156t-145.5 -56q-52 0 -87 17.5t-57 44.5t-33 58.5t-15 59.5l141 20q2 -36 13.5 -63t38.5 -27q19 0 31.5 18t12.5 70q0 27 -4 45t-16 33
t-33 29.5t-54 33.5q-60 34 -92.5 82.5t-32.5 126.5q0 44 13 81t37.5 64t60.5 42t82 15q48 0 81 -16t54.5 -41t33 -55.5t16.5 -58.5l-139 -25q-5 38 -14 62.5t-34 24.5z" />
    <glyph glyph-name="T" unicode="T" horiz-adv-x="400" 
d="M395 603h-121v-603h-150v603h-119v117h390v-117z" />
    <glyph glyph-name="U" unicode="U" horiz-adv-x="477" 
d="M195 720v-502q0 -37 2.5 -61t7.5 -37.5t14 -19t22 -5.5t22 5.5t14.5 19t8 37.5t2.5 61v502h144v-493q0 -59 -9 -104t-31 -75.5t-59 -46.5t-93 -16t-93.5 16t-60 46.5t-32 75.5t-9.5 104v493h150z" />
    <glyph glyph-name="V" unicode="V" horiz-adv-x="475" 
d="M470 720l-145 -720h-179l-141 720h154l82 -594l86 594h143z" />
    <glyph glyph-name="W" unicode="W" horiz-adv-x="638" 
d="M628 720l-77 -720h-186l-47 595l-49 -595h-182l-77 720h143l37 -590l49 590h167l47 -588l43 588h132z" />
    <glyph glyph-name="X" unicode="X" horiz-adv-x="474" 
d="M317 391l152 -391h-169l-70 242l-81 -242h-144l151 381l-136 339h164l61 -194l66 194h142z" />
    <glyph glyph-name="Y" unicode="Y" horiz-adv-x="452" 
d="M452 720l-154 -432v-288h-144v288l-154 432h162l68 -287l82 287h140z" />
    <glyph glyph-name="Z" unicode="Z" horiz-adv-x="400" 
d="M163 109h217v-109h-370v117l226 494h-203v109h357v-114z" />
    <glyph glyph-name="bracketleft" unicode="[" horiz-adv-x="300" 
d="M270 -170h-220v980h220v-103h-87v-774h87v-103z" />
    <glyph glyph-name="backslash" unicode="\" horiz-adv-x="265" 
d="M-55 730h125l195 -820h-125z" />
    <glyph glyph-name="bracketright" unicode="]" horiz-adv-x="300" 
d="M30 -67h87v774h-87v103h220v-980h-220v103z" />
    <glyph glyph-name="asciicircum" unicode="^" 
d="M147 720h130l123 -320h-130l-59 222l-61 -222h-130z" />
    <glyph glyph-name="underscore" unicode="_" horiz-adv-x="410" 
d="M-2 -150v118h414v-118h-414z" />
    <glyph glyph-name="grave" unicode="`" horiz-adv-x="292" 
d="M262 598h-105l-127 137h152z" />
    <glyph glyph-name="a" unicode="a" horiz-adv-x="400" 
d="M276 0l-28 51q-17 -26 -45 -42.5t-70 -16.5q-27 0 -49 9t-37 28.5t-23.5 51t-8.5 77.5q0 37 7 69t24.5 56.5t46.5 40.5t74 21l58 6v40q0 39 -6 54t-21 15t-21 -18t-8 -48l-135 20q5 22 15.5 47t30 46t50.5 34.5t78 13.5q86 0 121.5 -46t35.5 -143v-366h-89zM192 91
q7 0 15.5 2t17.5 7v169l-25 -3q-23 -3 -33 -24t-10 -66q0 -52 9.5 -68.5t25.5 -16.5z" />
    <glyph glyph-name="b" unicode="b" horiz-adv-x="408" 
d="M35 0v735h140v-233q20 24 43 38.5t51 14.5q30 0 51.5 -12t35.5 -43t20.5 -85.5t6.5 -139.5q0 -74 -6.5 -128t-22 -89t-42.5 -51.5t-69 -16.5q-31 0 -54.5 14t-37.5 35l-31 -39h-85zM211 446q-8 0 -16.5 -3.5t-19.5 -8.5v-354q12 -4 27 -4q14 0 22 8.5t12.5 31.5t5.5 62.5
t1 101.5q0 53 -1 85.5t-4.5 50.5t-10 24t-16.5 6z" />
    <glyph glyph-name="c" unicode="c" horiz-adv-x="386" 
d="M205 457q-10 0 -16.5 -6t-10.5 -25.5t-6 -56t-2 -97.5t2 -97t6 -55.5t10.5 -25.5t15.5 -6q11 0 18 9t10.5 22.5t4.5 30.5t1 34l138 -16q-3 -29 -12 -60.5t-28.5 -57.5t-52 -43t-81.5 -17q-41 0 -73.5 13t-55.5 45.5t-35.5 87.5t-12.5 139q0 146 41 213t135 67
q52 0 84 -18t50 -44t25 -57t10 -56l-133 -20q-2 48 -8.5 72.5t-23.5 24.5z" />
    <glyph glyph-name="d" unicode="d" horiz-adv-x="412" 
d="M25 270q0 74 7 128t23.5 89t44 51.5t69.5 16.5q39 0 68 -24v204h140v-735h-95l-32 57q-21 -29 -46 -48t-57 -19q-30 0 -52.5 12t-38 43t-23.5 85.5t-8 139.5zM203 99q14 0 34 11v354q-20 5 -29 5q-14 0 -22.5 -8.5t-13 -31.5t-6 -62.5t-1.5 -101.5q0 -53 2 -85.5
t6.5 -50.5t11.5 -24t18 -6z" />
    <glyph glyph-name="e" unicode="e" horiz-adv-x="392" 
d="M204 91q16 0 23.5 17.5t10.5 49.5l128 -20q-3 -23 -13 -48.5t-29.5 -48t-49.5 -37t-73 -14.5q-93 0 -134.5 66.5t-41.5 213.5q0 79 10.5 133.5t32 88t54 48.5t77.5 15q60 0 93.5 -22.5t50 -64.5t20.5 -102.5t4 -136.5h-201q1 -45 3.5 -72.5t7 -42t11.5 -19t16 -4.5z
M203 465q-9 0 -16 -5t-11.5 -20t-7 -43.5t-2.5 -75.5h73q0 46 -2.5 74.5t-7 44t-11 20.5t-15.5 5z" />
    <glyph glyph-name="f" unicode="f" horiz-adv-x="262" 
d="M292 629q-15 5 -30 7.5t-27 2.5q-26 0 -35.5 -10.5t-9.5 -42.5v-46h81v-100h-81v-440h-140v440h-50v100h50v40q0 47 10.5 79t29 51t45.5 27t60 8q34 0 57.5 -5t39.5 -10v-101z" />
    <glyph glyph-name="g" unicode="g" horiz-adv-x="410" 
d="M392 513l-85 2q27 -23 44 -61.5t17 -92.5q0 -93 -41.5 -141.5t-131.5 -48.5q-13 0 -25.5 1t-24.5 3q-1 -5 -1.5 -9.5t-0.5 -9.5q0 -17 10.5 -24.5t46.5 -9.5q95 -6 145.5 -42.5t50.5 -123.5q0 -38 -15.5 -67t-43 -48t-65 -28.5t-80.5 -9.5q-81 0 -131.5 33.5t-50.5 96.5
q0 62 63 103q-32 29 -32 78q0 27 11.5 47.5t34.5 37.5q-30 20 -48 59t-18 103q0 107 45 150.5t131 43.5q16 0 33 -3v34l162 29v-102zM165 5q-15 0 -28 3q-12 -21 -12 -50q0 -43 20 -59.5t46 -16.5q10 0 21.5 2.5t22 9.5t17.5 19t7 32q0 12 -3 22t-13 18t-28.5 13t-49.5 7z
M159 361q0 -31 2 -50t6.5 -30t11 -15t16.5 -4t17 4t11 15t5.5 30.5t1.5 49.5q0 62 -7 83t-28 21t-28.5 -21.5t-7.5 -82.5z" />
    <glyph glyph-name="h" unicode="h" horiz-adv-x="423" 
d="M35 0v735h140v-226q21 21 46.5 33.5t56.5 12.5q28 0 49 -9.5t34.5 -31.5t20 -58t6.5 -88v-368h-140v378q0 43 -8.5 55.5t-29.5 12.5q-15 0 -35 -11v-435h-140z" />
    <glyph glyph-name="i" unicode="i" horiz-adv-x="210" 
d="M29 610v125h152v-125h-152zM35 0v540h140v-540h-140z" />
    <glyph glyph-name="j" unicode="j" horiz-adv-x="210" 
d="M29 610v125h152v-125h-152zM-55 -50q11 -3 26 -5.5t24 -2.5q21 0 30.5 9t9.5 42v547h140v-550q0 -79 -33.5 -117t-105.5 -38q-23 0 -49 4.5t-42 10.5v100z" />
    <glyph glyph-name="k" unicode="k" horiz-adv-x="404" 
d="M35 0v735h140v-393l71 198h138l-104 -226l124 -314h-154l-75 251v-251h-140z" />
    <glyph glyph-name="l" unicode="l" horiz-adv-x="210" 
d="M35 735h140v-735h-140v735z" />
    <glyph glyph-name="m" unicode="m" horiz-adv-x="610" 
d="M35 0v540h95l24 -52q23 30 51.5 48.5t64.5 18.5q33 0 54.5 -13.5t33.5 -43.5q21 26 48.5 41.5t63.5 15.5q28 0 48 -9.5t33 -31.5t18.5 -58t5.5 -88v-368h-140v378q0 22 -1 35t-4.5 20.5t-10 10t-16.5 2.5q-14 0 -31 -10q3 -30 3 -68v-368h-140v378q0 22 -1 35t-4.5 20.5
t-10 10t-16.5 2.5t-28 -8v-438h-140z" />
    <glyph glyph-name="n" unicode="n" horiz-adv-x="423" 
d="M35 0v540h95l25 -53q23 30 54 49t69 19q28 0 49 -9.5t34.5 -31.5t20 -58t6.5 -88v-368h-140v378q0 43 -8.5 55.5t-29.5 12.5q-15 0 -35 -11v-435h-140z" />
    <glyph glyph-name="o" unicode="o" horiz-adv-x="419" 
d="M25 270q0 83 13.5 138t38.5 87.5t58.5 46t74.5 13.5q40 0 74 -13t58.5 -45.5t38 -87.5t13.5 -139t-13.5 -138t-38 -85.5t-58.5 -44t-74 -12.5q-41 0 -74.5 12.5t-58.5 44.5t-38.5 86t-13.5 137zM169 270q0 -57 2 -92.5t7 -56t13 -27.5t20 -7t19.5 7t12 27t6.5 55.5
t2 93.5t-2 94.5t-7 57t-13 28t-19 7.5t-19 -8t-13 -28.5t-7 -57t-2 -93.5z" />
    <glyph glyph-name="p" unicode="p" horiz-adv-x="405" 
d="M35 -170v710h95l25 -54q23 31 51 50t60 19q30 0 51.5 -12t35.5 -43t20.5 -85.5t6.5 -139.5q0 -74 -6.5 -128t-22 -89t-42.5 -51.5t-69 -16.5q-38 0 -65 21v-181h-140zM208 446q-13 0 -33 -11v-356q12 -3 24 -3q14 0 22 8.5t12.5 31.5t5.5 62.5t1 101.5q0 53 -1 85.5
t-4.5 50.5t-10 24t-16.5 6z" />
    <glyph glyph-name="q" unicode="q" horiz-adv-x="406" 
d="M25 270q0 74 7 128t23.5 89t44 51.5t69.5 16.5q29 0 52.5 -13.5t37.5 -33.5l27 32h85v-710h-140v203q-18 -20 -39 -31.5t-45 -11.5q-30 0 -52.5 12t-38 43t-23.5 85.5t-8 139.5zM203 99q12 0 28 8v359q-14 3 -23 3q-14 0 -22.5 -8.5t-13 -31.5t-6 -62.5t-1.5 -101.5
q0 -53 2 -85.5t6.5 -50.5t11.5 -24t18 -6z" />
    <glyph glyph-name="r" unicode="r" horiz-adv-x="287" 
d="M35 0v540h95l26 -68q15 36 37.5 57t52.5 21q19 0 31 -4v-137q-9 4 -18 6t-23 2q-20 0 -35 -11.5t-26 -29.5v-376h-140z" />
    <glyph glyph-name="s" unicode="s" horiz-adv-x="373" 
d="M183 -10q-41 0 -71 12.5t-50.5 32t-33 43t-18.5 45.5l135 27q2 -26 11.5 -43.5t27.5 -17.5q17 0 25 14.5t8 39.5q0 17 -4.5 28.5t-15.5 20.5t-29 18.5t-45 22.5q-49 23 -76 61t-27 98q0 41 13 71.5t35.5 51t54 30.5t67.5 10q45 0 74 -12.5t47.5 -32t28.5 -42t16 -43.5
l-131 -26q-2 26 -8.5 42t-23.5 16q-33 0 -33 -49q0 -23 15 -39t57 -33q26 -11 49 -25t40 -33.5t27 -46.5t10 -64q0 -84 -43.5 -130.5t-131.5 -46.5z" />
    <glyph glyph-name="t" unicode="t" horiz-adv-x="273" 
d="M267 5q-19 -6 -40.5 -9t-40.5 -3q-69 0 -101.5 35.5t-32.5 120.5v291h-52v100h53l9 130h130v-130h76v-100h-76v-296q0 -32 7.5 -40t25.5 -8q11 0 22.5 2t19.5 4v-97z" />
    <glyph glyph-name="u" unicode="u" 
d="M175 540v-373q0 -22 1.5 -35t5.5 -20.5t10.5 -10t16.5 -2.5q12 0 36 11v430h140v-540h-105l-19 51q-20 -27 -46.5 -44t-60.5 -17q-63 0 -91 41t-28 137v372h140z" />
    <glyph glyph-name="v" unicode="v" horiz-adv-x="402" 
d="M402 540l-114 -540h-182l-106 540h153l50 -420l55 420h144z" />
    <glyph glyph-name="w" unicode="w" horiz-adv-x="584" 
d="M577 540l-86 -540h-157l-41 410l-55 -410h-159l-72 540h142l20 -439l56 439h145l46 -438l32 438h129z" />
    <glyph glyph-name="x" unicode="x" horiz-adv-x="426" 
d="M290 298l131 -298h-165l-53 179l-52 -179h-146l120 285l-107 255h157l37 -143l35 143h141z" />
    <glyph glyph-name="y" unicode="y" horiz-adv-x="401" 
d="M282 -15q-17 -81 -56 -115.5t-99 -34.5q-37 0 -70 11v100q29 -8 49 -8t34 13.5t19 48.5h-46l-113 540h153l46 -428l63 428h139z" />
    <glyph glyph-name="z" unicode="z" horiz-adv-x="346" 
d="M159 106h162v-106h-311v117l176 317h-157v106h302v-117z" />
    <glyph glyph-name="braceleft" unicode="{" horiz-adv-x="300" 
d="M20 378q36 0 46 23t10 65v157q0 62 13 99t38 56.5t62.5 25.5t85.5 6v-98q-18 0 -31 -2.5t-21 -11t-12 -24t-4 -41.5v-165q0 -35 -3.5 -60t-12 -42t-22.5 -28t-35 -18q42 -14 57.5 -46.5t15.5 -101.5v-165q0 -26 4 -41.5t12 -24t21 -11t31 -2.5v-98q-48 0 -85.5 6
t-62.5 25.5t-38 56.5t-13 99v157q0 42 -10 65.5t-46 23.5v115z" />
    <glyph glyph-name="bar" unicode="|" horiz-adv-x="280" 
d="M206 800v-920h-132v920h132z" />
    <glyph glyph-name="braceright" unicode="}" horiz-adv-x="300" 
d="M280 263q-36 0 -46 -23.5t-10 -65.5v-157q0 -62 -13 -99t-38 -56.5t-62.5 -25.5t-85.5 -6v98q18 0 31 2.5t21 11t12 24t4 41.5v165q0 69 15.5 101.5t57.5 46.5q-21 7 -35 18t-22.5 28t-12 42t-3.5 60v165q0 26 -4 41.5t-12 24t-21 11t-31 2.5v98q48 0 85.5 -6t62.5 -25.5
t38 -56.5t13 -99v-157q0 -42 10 -65t46 -23v-115z" />
    <glyph glyph-name="asciitilde" unicode="~" 
d="M130 290q-29 0 -48.5 -12t-41.5 -31v118q19 15 45.5 27.5t54.5 12.5q27 0 46.5 -8.5t36 -18t32 -18t35.5 -8.5q29 0 48.5 12t41.5 31v-118q-19 -15 -45.5 -27.5t-54.5 -12.5q-27 0 -46.5 8.5t-36 18t-32 18t-35.5 8.5z" />
    <glyph glyph-name="uni00A0" unicode="&#xa0;" horiz-adv-x="0" 
 />
    <glyph glyph-name="exclamdown" unicode="&#xa1;" horiz-adv-x="220" 
d="M185 540v-140h-150v140h150zM168 300l15 -480h-146l15 480h116z" />
    <glyph glyph-name="cent" unicode="&#xa2;" 
d="M166 -5q-31 6 -55 24t-41 51t-26 83.5t-9 121.5q0 127 30.5 194t100.5 81v120h102v-122q33 -9 54 -28.5t33 -43.5t17.5 -49.5t7.5 -46.5l-133 -20q-2 48 -8.5 72.5t-23.5 24.5q-10 0 -16.5 -6t-10.5 -25.5t-6 -56t-2 -97.5t2 -97t6 -55.5t10.5 -25.5t15.5 -6q11 0 18 9
t10.5 22.5t4.5 30.5t1 34l138 -16q-3 -24 -9.5 -50.5t-20 -50t-35 -42t-53.5 -27.5v-113h-102v110z" />
    <glyph glyph-name="sterling" unicode="&#xa3;" 
d="M352 329h-116v-123q0 -27 -11 -52.5t-39 -43.5h201v-110h-372v110q24 0 39 10t23.5 24t11 29.5t2.5 26.5v129h-76v105h76v30q0 58 8 104t28 77.5t54 48t85 16.5q34 0 60.5 -12t44.5 -31.5t29 -44.5t15 -52l-128 -24q-2 29 -7 44t-17 15q-7 0 -12 -4t-8.5 -18.5t-5 -42.5
t-1.5 -76v-30h116v-105z" />
    <glyph glyph-name="currency" unicode="&#xa4;" horiz-adv-x="560" 
d="M91 223q-17 51 -17 117q0 67 16 114l-62 62l74 74l43 -44q28 26 62 37.5t72 11.5t72 -12t62 -38l45 45l74 -74l-64 -64q7 -24 11 -52t4 -60q0 -68 -16 -115l65 -65l-74 -74l-49 48q-27 -23 -60.5 -33.5t-69.5 -10.5t-69.5 10t-60.5 33l-47 -47l-74 74zM200 340
q0 -45 5.5 -74.5t16 -47t25.5 -24.5t33 -7t32.5 7t24.5 24.5t15.5 47t5.5 74.5t-5.5 75t-16 48t-25 26t-32.5 8t-32.5 -8t-25 -26t-16 -48t-5.5 -75z" />
    <glyph glyph-name="yen" unicode="&#xa5;" 
d="M142 0v120h-100v93h100v64h-100v93h85l-118 330h148l59 -261l64 261h131l-116 -330h87v-93h-100v-64h100v-93h-100v-120h-140z" />
    <glyph glyph-name="brokenbar" unicode="&#xa6;" horiz-adv-x="280" 
d="M206 800v-390h-132v390h132zM206 270v-390h-132v390h132z" />
    <glyph glyph-name="section" unicode="&#xa7;" 
d="M205 -94q-38 0 -66.5 13t-49 32.5t-33.5 43t-19 44.5l130 27q2 -26 11 -43.5t29 -17.5q37 0 37 54q0 18 -7 31t-19 22.5t-27.5 17t-32.5 14.5q-60 24 -86.5 64.5t-26.5 98.5q0 38 16.5 69.5t45.5 51.5q-27 23 -42.5 54.5t-15.5 68.5q0 41 15.5 71t39.5 49.5t53.5 29
t58.5 9.5q42 0 71 -12.5t48 -32t30 -42t17 -43.5l-126 -26q-2 26 -10.5 42t-26.5 16q-17 0 -25.5 -12t-8.5 -40q0 -32 15 -49.5t46 -29.5q29 -12 54 -26.5t43 -34.5t28.5 -46t10.5 -61q0 -39 -15 -71t-44 -54q26 -21 41.5 -48.5t15.5 -61.5q0 -33 -10.5 -64t-32 -55
t-54.5 -38.5t-78 -14.5zM251 289q0 25 -15.5 48t-38.5 40q-10 -5 -16 -16.5t-6 -30.5q0 -27 14.5 -51t37.5 -38q24 13 24 48z" />
    <glyph glyph-name="dieresis" unicode="&#xa8;" horiz-adv-x="419" 
d="M50 613v112h130v-112h-130zM239 613v112h130v-112h-130z" />
    <glyph glyph-name="copyright" unicode="&#xa9;" horiz-adv-x="703" 
d="M30 360q0 105 26 176.5t70 115.5t102 63.5t123 19.5q64 0 122.5 -19.5t103 -63.5t70.5 -115.5t26 -176.5t-26 -176.5t-70.5 -115.5t-103 -63.5t-122.5 -19.5q-65 0 -123 19.5t-102 63.5t-70 115.5t-26 176.5zM149 360q0 -76 14.5 -129.5t41 -88t64 -50.5t82.5 -16
t82.5 16t64.5 50.5t41.5 88.5t14.5 129q0 81 -14.5 135.5t-41.5 88t-64.5 47.5t-82.5 14t-82.5 -14.5t-64 -47.5t-41 -87.5t-14.5 -135.5zM355 228q17 0 24.5 16t8.5 41l91 -9q-2 -18 -8.5 -39t-20.5 -39t-38 -30.5t-61 -12.5q-31 0 -56 8.5t-42 31.5t-26.5 63t-9.5 103
q0 62 9 102t27 63t44 32t59 9q34 0 56 -12t35.5 -29.5t19.5 -38t8 -36.5l-90 -9q-2 23 -7.5 38t-22.5 15q-11 0 -18 -5.5t-11 -20t-5.5 -40.5t-1.5 -68q0 -40 1.5 -65.5t5.5 -40.5t11 -21t18 -6z" />
    <glyph glyph-name="ordfeminine" unicode="&#xaa;" horiz-adv-x="400" 
d="M259 318l-23 40q-14 -20 -36.5 -33t-55.5 -13q-21 0 -40 6.5t-33.5 21.5t-22.5 38.5t-8 58.5q0 57 30 94.5t102 45.5l46 5v30q0 29 -6 37t-16 8q-20 0 -23 -43l-111 15q4 16 13 35t25 34.5t41.5 26t62.5 10.5q69 0 102.5 -33.5t33.5 -108.5v-275h-81zM60 0v115h300v-115
h-300zM192 393q13 0 26 7v121l-20 -2q-34 -4 -34 -69q0 -39 7 -48t21 -9z" />
    <glyph glyph-name="guillemotleft" unicode="&#xab;" horiz-adv-x="460" 
d="M30 326l115 205h90l-72 -208l62 -222h-90zM215 326l115 205h90l-72 -208l62 -222h-90z" />
    <glyph glyph-name="logicalnot" unicode="&#xac;" 
d="M252 141v120h-212v121h340v-241h-128z" />
    <glyph glyph-name="uni00AD" unicode="&#xad;" horiz-adv-x="300" 
d="M30 261v121h240v-121h-240z" />
    <glyph glyph-name="registered" unicode="&#xae;" horiz-adv-x="541" 
d="M50 493q0 67 18.5 113.5t49.5 75t70 41t81 12.5t82 -12.5t71 -41t50 -75t19 -113.5t-19 -113t-50 -74t-71 -40.5t-82 -12.5t-81 12.5t-70 40.5t-49.5 74t-18.5 113zM129 493q0 -48 11 -82t30 -55t44.5 -30.5t54.5 -9.5q30 0 56 9.5t45.5 30.5t30.5 55t11 82q0 52 -11 87
t-30.5 55.5t-45.5 29t-56 8.5q-29 0 -54.5 -8.5t-44.5 -29.5t-30 -55.5t-11 -86.5zM297 373l-35 89h-8v-89h-62v255h67q48 0 73.5 -18.5t25.5 -63.5q0 -27 -10 -43.5t-28 -26.5l42 -103h-65zM254 580v-69h7q31 0 31 35q0 34 -33 34h-5z" />
    <glyph glyph-name="macron" unicode="&#xaf;" horiz-adv-x="330" 
d="M30 631v104h270v-104h-270z" />
    <glyph glyph-name="degree" unicode="&#xb0;" horiz-adv-x="365" 
d="M30 546q0 35 10 65t29.5 52t48 34.5t65.5 12.5t65 -12.5t47.5 -34.5t29.5 -52t10 -65t-10 -65t-29.5 -51.5t-47.5 -33.5t-65 -12t-65.5 12t-48 33.5t-29.5 51.5t-10 65zM138 546q0 -81 45 -81q22 0 33.5 21t11.5 60t-11 61t-34 22t-34 -21.5t-11 -61.5z" />
    <glyph glyph-name="plusminus" unicode="&#xb1;" 
d="M146 261h-116v120h116v130h128v-130h116v-120h-116v-95h-128v95zM40 0v120h340v-120h-340z" />
    <glyph glyph-name="twosuperior" unicode="&#xb2;" horiz-adv-x="300" 
d="M149 736q-14 0 -19.5 -11.5t-8.5 -31.5l-92 9q2 16 10 35t23.5 35.5t38 27t54.5 10.5q49 0 82 -24.5t33 -86.5q0 -29 -13 -62t-51 -81l-43 -55h99v-81h-224v81l89 106q26 31 35.5 49.5t9.5 41.5q0 21 -6 29.5t-17 8.5z" />
    <glyph glyph-name="threesuperior" unicode="&#xb3;" horiz-adv-x="300" 
d="M148 487q25 0 25 42q0 22 -3 34.5t-8.5 18t-14 6.5t-19.5 1h-20v66h25q13 0 22 11.5t9 36.5q0 34 -21 34q-14 0 -19 -11t-6 -25l-90 9q7 43 39.5 71.5t78.5 28.5q24 0 45 -5t36.5 -17t25 -33t9.5 -52q0 -23 -14 -47t-44 -29q32 -5 50 -25q18 -23 18 -71q0 -32 -10 -54.5
t-26.5 -36.5t-39 -20t-47.5 -6q-28 0 -49 9t-35 23t-22.5 32t-11.5 36l90 9q2 -12 6 -24t21 -12z" />
    <glyph glyph-name="acute" unicode="&#xb4;" horiz-adv-x="292" 
d="M110 735h152l-127 -137h-105z" />
    <glyph glyph-name="uni00B5" unicode="&#xb5;" 
d="M175 540v-373q0 -22 1.5 -35t5.5 -20.5t10.5 -10t16.5 -2.5q12 0 36 11v430h140v-540h-105l-15 39q-14 -21 -31 -33.5t-40 -12.5q-10 0 -19 4v-167h-140v710h140z" />
    <glyph glyph-name="paragraph" unicode="&#xb6;" horiz-adv-x="480" 
d="M277 700v-700h-116v375q-19 0 -43.5 3.5t-46 19.5t-36.5 48.5t-15 90.5q0 55 15 87t36.5 49t46 22t43.5 5h116zM440 700v-700h-116v700h116z" />
    <glyph glyph-name="periodcentered" unicode="&#xb7;" horiz-adv-x="255" 
d="M55 252v135h145v-135h-145z" />
    <glyph glyph-name="cedilla" unicode="&#xb8;" horiz-adv-x="300" 
d="M270 -142q0 -51 -33 -81t-96 -30q-31 0 -59.5 8.5t-51.5 23.5l37 68q9 -6 23.5 -11.5t32.5 -5.5q23 0 33 11t10 23q0 38 -73 45l40 151h77l-12 -111q38 -11 55 -36.5t17 -54.5z" />
    <glyph glyph-name="onesuperior" unicode="&#xb9;" horiz-adv-x="300" 
d="M46 420v73h67v221l-73 -46v86l69 46h96v-307h54v-73h-213z" />
    <glyph glyph-name="ordmasculine" unicode="&#xba;" horiz-adv-x="395" 
d="M40 521q0 62 11.5 103.5t32.5 66t50 34.5t64 10t64 -10t49.5 -34.5t32 -65.5t11.5 -104t-11.5 -103.5t-32 -64.5t-49.5 -33t-64 -9t-64 9.5t-50 33.5t-32.5 64.5t-11.5 102.5zM165 521q0 -41 2 -66.5t6 -39.5t10.5 -19.5t15.5 -5.5t15.5 5.5t10 19.5t5 39.5t1.5 66.5
q0 40 -2 66t-5.5 41t-10 20.5t-15.5 5.5t-15.5 -5.5t-10 -20.5t-5.5 -41t-2 -66zM57 0v115h288v-115h-288z" />
    <glyph glyph-name="guillemotright" unicode="&#xbb;" horiz-adv-x="460" 
d="M325 101h-90l62 222l-72 208h90l115 -205zM140 101h-90l62 222l-72 208h90l115 -205z" />
    <glyph glyph-name="onequarter" unicode="&#xbc;" horiz-adv-x="720" 
d="M62 321v73h67v221l-73 -46v86l69 46h96v-307h54v-73h-213zM261 -100h-108l340 910h108zM628 241v-95h36v-74h-36v-71h-89v71h-124v78l74 231h92l-74 -235h38l11 95h72z" />
    <glyph glyph-name="onehalf" unicode="&#xbd;" horiz-adv-x="720" 
d="M553 317q-14 0 -19.5 -11.5t-8.5 -31.5l-92 9q2 16 10 35t23.5 35.5t38 27t54.5 10.5q49 0 82 -24.5t33 -86.5q0 -29 -13 -62t-51 -81l-43 -55h99v-81h-224v81l89 106q26 31 35.5 49.5t9.5 41.5q0 21 -6 29.5t-17 8.5zM250 -100h-108l340 910h108zM51 321v73h67v221
l-73 -46v86l69 46h96v-307h54v-73h-213z" />
    <glyph glyph-name="threequarters" unicode="&#xbe;" horiz-adv-x="720" 
d="M171 388q25 0 25 42q0 22 -3 34.5t-8.5 18t-14 6.5t-19.5 1h-20v66h25q13 0 22 11.5t9 36.5q0 34 -21 34q-14 0 -19 -11t-6 -25l-90 9q7 43 39.5 71.5t78.5 28.5q24 0 45 -5t36.5 -17t25 -33t9.5 -52q0 -23 -14 -47t-44 -29q32 -5 50 -25q18 -23 18 -71q0 -32 -10 -54.5
t-26.5 -36.5t-39 -20t-47.5 -6q-28 0 -49 9t-35 23t-22.5 32t-11.5 36l90 9q2 -12 6 -24t21 -12zM260 -100h-108l340 910h108zM632 241v-95h36v-74h-36v-71h-89v71h-124v78l74 231h92l-74 -235h38l11 95h72z" />
    <glyph glyph-name="questiondown" unicode="&#xbf;" horiz-adv-x="400" 
d="M276 540v-140h-150v140h150zM200 -92q19 0 27.5 24.5t10.5 61.5l137 -17q-4 -25 -14.5 -55t-31 -56t-53.5 -43.5t-83 -17.5q-36 0 -66.5 9t-53 31t-35.5 58.5t-13 91.5q0 50 16.5 81t37 55t37 49t16.5 63v57h139v-79q0 -31 -7.5 -52t-18.5 -38t-24.5 -31.5t-24.5 -32
t-18.5 -39.5t-7.5 -54q0 -39 8 -52.5t22 -13.5z" />
    <glyph glyph-name="Agrave" unicode="&#xc0;" horiz-adv-x="490" 
d="M329 0l-26 167h-131l-27 -167h-143l159 720h165l162 -720h-159zM188 269h99l-48 316zM346 768h-110l-122 117h152z" />
    <glyph glyph-name="Aacute" unicode="&#xc1;" horiz-adv-x="490" 
d="M329 0l-26 167h-131l-27 -167h-143l159 720h165l162 -720h-159zM188 269h99l-48 316zM217 885h152l-122 -117h-110z" />
    <glyph glyph-name="Acircumflex" unicode="&#xc2;" horiz-adv-x="490" 
d="M329 0l-26 167h-131l-27 -167h-143l159 720h165l162 -720h-159zM188 269h99l-48 316zM403 768h-125l-38 37l-38 -37h-125l105 117h116z" />
    <glyph glyph-name="Atilde" unicode="&#xc3;" horiz-adv-x="490" 
d="M329 0l-26 167h-131l-27 -167h-143l159 720h165l162 -720h-159zM188 269h99l-48 316zM302 765q-24 0 -41 6t-31 13t-27.5 13t-30.5 6q-33 0 -78 -36v95q22 16 41.5 24.5t40.5 8.5q24 0 41 -6t31 -13t27.5 -13t30.5 -6q33 0 78 36v-95q-22 -16 -41.5 -24.5t-40.5 -8.5z
" />
    <glyph glyph-name="Adieresis" unicode="&#xc4;" horiz-adv-x="490" 
d="M329 0l-26 167h-131l-27 -167h-143l159 720h165l162 -720h-159zM188 269h99l-48 316zM80 773v102h130v-102h-130zM269 773v102h130v-102h-130z" />
    <glyph glyph-name="Aring" unicode="&#xc5;" horiz-adv-x="490" 
d="M117 811q0 57 32.5 88t95.5 31t95 -31t32 -88q0 -32 -12 -56t-34 -38l162 -717h-159l-26 167h-131l-27 -167h-143l158 714q-43 30 -43 97zM188 269h99l-48 316zM215 811q0 -46 30 -46t30 46q0 48 -30 48t-30 -48z" />
    <glyph glyph-name="AE" unicode="&#xc6;" horiz-adv-x="643" 
d="M576 309h-147l21 -196h166v-113h-295l-15 167h-127l-36 -167h-141l194 720h404v-115h-204l21 -188h159v-108zM201 269h96l-28 316z" />
    <glyph glyph-name="Ccedilla" unicode="&#xc7;" horiz-adv-x="452" 
d="M349 -142q0 -51 -32 -81t-99 -30q-31 0 -59.5 8.5t-51.5 23.5l37 71q9 -6 23.5 -11.5t32.5 -5.5q23 0 31.5 9.5t8.5 21.5q0 20 -17 29t-53 13l21 83q-37 7 -66.5 29t-49.5 65t-31 110.5t-11 166.5q0 112 14.5 185t42 115t67.5 58.5t91 16.5q53 0 87 -20.5t54.5 -51
t29.5 -65.5t12 -65l-139 -17q-2 21 -4 40.5t-7 35.5t-13.5 25.5t-22.5 9.5q-17 0 -28 -12t-17 -42t-8 -82t-2 -131q0 -80 2 -131.5t8 -81.5t17 -41.5t28 -11.5q15 0 24.5 10t15.5 26.5t8.5 37.5t2.5 44l141 -15q-3 -29 -11 -62.5t-25.5 -63.5t-46.5 -53t-74 -30l-4 -39
q38 -11 55.5 -36.5t17.5 -54.5z" />
    <glyph glyph-name="Egrave" unicode="&#xc8;" horiz-adv-x="392" 
d="M335 309h-140v-196h170v-113h-320v720h320v-115h-170v-188h140v-108zM292 768h-110l-122 117h152z" />
    <glyph glyph-name="Eacute" unicode="&#xc9;" horiz-adv-x="392" 
d="M335 309h-140v-196h170v-113h-320v720h320v-115h-170v-188h140v-108zM198 888h152l-122 -117h-110z" />
    <glyph glyph-name="Ecircumflex" unicode="&#xca;" horiz-adv-x="392" 
d="M335 309h-140v-196h170v-113h-320v720h320v-115h-170v-188h140v-108zM370 768h-125l-38 37l-38 -37h-125l105 117h116z" />
    <glyph glyph-name="Edieresis" unicode="&#xcb;" horiz-adv-x="392" 
d="M335 309h-140v-196h170v-113h-320v720h320v-115h-170v-188h140v-108zM44 773v102h130v-102h-130zM233 773v102h130v-102h-130z" />
    <glyph glyph-name="Igrave" unicode="&#xcc;" horiz-adv-x="240" 
d="M195 720v-720h-150v720h150zM215 768h-110l-122 117h152z" />
    <glyph glyph-name="Iacute" unicode="&#xcd;" horiz-adv-x="240" 
d="M195 720v-720h-150v720h150zM98 885h152l-122 -117h-110z" />
    <glyph glyph-name="Icircumflex" unicode="&#xce;" horiz-adv-x="240" 
d="M195 720v-720h-150v720h150zM284 768h-125l-38 37l-38 -37h-125l105 117h116z" />
    <glyph glyph-name="Idieresis" unicode="&#xcf;" horiz-adv-x="240" 
d="M195 720v-720h-150v720h150zM-39 773v102h130v-102h-130zM150 773v102h130v-102h-130z" />
    <glyph glyph-name="Eth" unicode="&#xd0;" horiz-adv-x="509" 
d="M55 336h-45v110h45v274h162q61 0 109 -14t81.5 -53.5t51 -110t17.5 -182.5q0 -113 -18.5 -183t-52.5 -109.5t-81.5 -53.5t-104.5 -14h-164v336zM205 336v-227h14q27 0 46 9.5t32 36.5t19 76t6 129q0 79 -6 128.5t-19 77t-33 37t-47 9.5h-12v-166h60v-110h-60z" />
    <glyph glyph-name="Ntilde" unicode="&#xd1;" horiz-adv-x="521" 
d="M476 720v-720h-188l-118 523v-523h-125v720h201l105 -516v516h125zM324 765q-24 0 -41 6t-31 13t-27.5 13t-30.5 6q-33 0 -78 -36v95q22 16 41.5 24.5t40.5 8.5q24 0 41 -6t31 -13t27.5 -13t30.5 -6q33 0 78 36v-95q-22 -16 -41.5 -24.5t-40.5 -8.5z" />
    <glyph glyph-name="Ograve" unicode="&#xd2;" horiz-adv-x="489" 
d="M456 360q0 -105 -11.5 -176.5t-36.5 -115.5t-65.5 -63.5t-97.5 -19.5q-62 0 -103 19.5t-65 63.5t-34 115.5t-10 176.5t11.5 176.5t37 115.5t66 63.5t97.5 19.5t97.5 -19.5t65.5 -63.5t36.5 -115.5t11.5 -176.5zM303 360q0 76 -2 127t-8 82t-17.5 44t-30.5 13
q-20 0 -31.5 -13.5t-17.5 -44.5t-8 -82t-2 -126t2 -126t8.5 -82t18 -44t30.5 -13t30.5 13t17.5 43.5t8 81.5t2 127zM308 768h-110l-122 117h152z" />
    <glyph glyph-name="Oacute" unicode="&#xd3;" horiz-adv-x="489" 
d="M456 360q0 -105 -11.5 -176.5t-36.5 -115.5t-65.5 -63.5t-97.5 -19.5q-62 0 -103 19.5t-65 63.5t-34 115.5t-10 176.5t11.5 176.5t37 115.5t66 63.5t97.5 19.5t97.5 -19.5t65.5 -63.5t36.5 -115.5t11.5 -176.5zM303 360q0 76 -2 127t-8 82t-17.5 44t-30.5 13
q-20 0 -31.5 -13.5t-17.5 -44.5t-8 -82t-2 -126t2 -126t8.5 -82t18 -44t30.5 -13t30.5 13t17.5 43.5t8 81.5t2 127zM261 885h152l-122 -117h-110z" />
    <glyph glyph-name="Ocircumflex" unicode="&#xd4;" horiz-adv-x="489" 
d="M456 360q0 -105 -11.5 -176.5t-36.5 -115.5t-65.5 -63.5t-97.5 -19.5q-62 0 -103 19.5t-65 63.5t-34 115.5t-10 176.5t11.5 176.5t37 115.5t66 63.5t97.5 19.5t97.5 -19.5t65.5 -63.5t36.5 -115.5t11.5 -176.5zM303 360q0 76 -2 127t-8 82t-17.5 44t-30.5 13
q-20 0 -31.5 -13.5t-17.5 -44.5t-8 -82t-2 -126t2 -126t8.5 -82t18 -44t30.5 -13t30.5 13t17.5 43.5t8 81.5t2 127zM406 768h-125l-38 37l-38 -37h-125l105 117h116z" />
    <glyph glyph-name="Otilde" unicode="&#xd5;" horiz-adv-x="489" 
d="M456 360q0 -105 -11.5 -176.5t-36.5 -115.5t-65.5 -63.5t-97.5 -19.5q-62 0 -103 19.5t-65 63.5t-34 115.5t-10 176.5t11.5 176.5t37 115.5t66 63.5t97.5 19.5t97.5 -19.5t65.5 -63.5t36.5 -115.5t11.5 -176.5zM303 360q0 76 -2 127t-8 82t-17.5 44t-30.5 13
q-20 0 -31.5 -13.5t-17.5 -44.5t-8 -82t-2 -126t2 -126t8.5 -82t18 -44t30.5 -13t30.5 13t17.5 43.5t8 81.5t2 127zM308 765q-24 0 -41 6t-31 13t-27.5 13t-30.5 6q-33 0 -78 -36v95q22 16 41.5 24.5t40.5 8.5q24 0 41 -6t31 -13t27.5 -13t30.5 -6q33 0 78 36v-95
q-22 -16 -41.5 -24.5t-40.5 -8.5z" />
    <glyph glyph-name="Odieresis" unicode="&#xd6;" horiz-adv-x="489" 
d="M456 360q0 -105 -11.5 -176.5t-36.5 -115.5t-65.5 -63.5t-97.5 -19.5q-62 0 -103 19.5t-65 63.5t-34 115.5t-10 176.5t11.5 176.5t37 115.5t66 63.5t97.5 19.5t97.5 -19.5t65.5 -63.5t36.5 -115.5t11.5 -176.5zM303 360q0 76 -2 127t-8 82t-17.5 44t-30.5 13
q-20 0 -31.5 -13.5t-17.5 -44.5t-8 -82t-2 -126t2 -126t8.5 -82t18 -44t30.5 -13t30.5 13t17.5 43.5t8 81.5t2 127zM84 773v102h130v-102h-130zM273 773v102h130v-102h-130z" />
    <glyph glyph-name="multiply" unicode="&#xd7;" 
d="M125 321l-92 92l85 85l92 -92l92 92l85 -85l-92 -92l92 -92l-85 -85l-92 92l-92 -92l-85 85z" />
    <glyph glyph-name="Oslash" unicode="&#xd8;" horiz-adv-x="489" 
d="M456 360q0 -105 -11.5 -176.5t-36.5 -115.5t-65.5 -63.5t-97.5 -19.5q-18 0 -34 2t-30 5l-29 -94h-85l39 131q-41 39 -57 119t-16 212q0 105 11.5 176.5t37 115.5t66 63.5t97.5 19.5q32 0 64 -8l29 93h85l-40 -135q38 -41 55.5 -119.5t17.5 -205.5zM186 360v-85
q0 -12 1 -23l92 357q-11 17 -34 17q-20 0 -31.5 -13.5t-17.5 -44.5t-8 -82t-2 -126zM303 360v67q0 11 -1 21l-89 -339q11 -14 32 -14q19 0 30.5 13t17.5 43.5t8 81.5t2 127z" />
    <glyph glyph-name="Ugrave" unicode="&#xd9;" horiz-adv-x="477" 
d="M195 720v-502q0 -37 2.5 -61t7.5 -37.5t14 -19t22 -5.5t22 5.5t14.5 19t8 37.5t2.5 61v502h144v-493q0 -59 -9 -104t-31 -75.5t-59 -46.5t-93 -16t-93.5 16t-60 46.5t-32 75.5t-9.5 104v493h150zM304 768h-110l-122 117h152z" />
    <glyph glyph-name="Uacute" unicode="&#xda;" horiz-adv-x="477" 
d="M195 720v-502q0 -37 2.5 -61t7.5 -37.5t14 -19t22 -5.5t22 5.5t14.5 19t8 37.5t2.5 61v502h144v-493q0 -59 -9 -104t-31 -75.5t-59 -46.5t-93 -16t-93.5 16t-60 46.5t-32 75.5t-9.5 104v493h150zM257 885h152l-122 -117h-110z" />
    <glyph glyph-name="Ucircumflex" unicode="&#xdb;" horiz-adv-x="477" 
d="M195 720v-502q0 -37 2.5 -61t7.5 -37.5t14 -19t22 -5.5t22 5.5t14.5 19t8 37.5t2.5 61v502h144v-493q0 -59 -9 -104t-31 -75.5t-59 -46.5t-93 -16t-93.5 16t-60 46.5t-32 75.5t-9.5 104v493h150zM401 768h-125l-38 37l-38 -37h-125l105 117h116z" />
    <glyph glyph-name="Udieresis" unicode="&#xdc;" horiz-adv-x="477" 
d="M195 720v-502q0 -37 2.5 -61t7.5 -37.5t14 -19t22 -5.5t22 5.5t14.5 19t8 37.5t2.5 61v502h144v-493q0 -59 -9 -104t-31 -75.5t-59 -46.5t-93 -16t-93.5 16t-60 46.5t-32 75.5t-9.5 104v493h150zM81 773v102h130v-102h-130zM270 773v102h130v-102h-130z" />
    <glyph glyph-name="Yacute" unicode="&#xdd;" horiz-adv-x="452" 
d="M452 720l-154 -432v-288h-144v288l-154 432h162l68 -287l82 287h140zM200 885h152l-122 -117h-110z" />
    <glyph glyph-name="Thorn" unicode="&#xde;" horiz-adv-x="479" 
d="M195 720v-115h6q57 0 102.5 -9.5t77 -35.5t48.5 -72.5t17 -120.5t-16.5 -120.5t-47.5 -72.5t-75.5 -35.5t-99.5 -9.5h-12v-129h-150v720h150zM195 498v-262h14q19 0 34 5t25.5 19t16 39.5t5.5 67.5t-5 67.5t-15.5 39.5t-27 19t-39.5 5h-8z" />
    <glyph glyph-name="germandbls" unicode="&#xdf;" horiz-adv-x="479" 
d="M464 175q0 -37 -9 -70.5t-27 -59t-46 -40.5t-67 -15q-38 0 -61.5 9t-41.5 27l50 91q15 -19 34 -19q6 0 12 2.5t10.5 9.5t7.5 20t3 33q0 17 -3 29.5t-9.5 23t-17.5 20.5t-27 22q-28 20 -47.5 51.5t-19.5 87.5q0 48 16 77t47 49q3 12 4 28.5t1 30.5q0 30 -14.5 50t-38.5 20
q-20 0 -32.5 -21t-12.5 -79v-552h-140v533q0 106 47 159t138 53t132.5 -42t41.5 -126q0 -17 -4.5 -47.5t-19.5 -57.5q-23 -4 -36 -18t-13 -34q0 -21 8.5 -32t34.5 -28q48 -30 74 -73t26 -112z" />
    <glyph glyph-name="agrave" unicode="&#xe0;" horiz-adv-x="400" 
d="M276 0l-28 51q-17 -26 -45 -42.5t-70 -16.5q-27 0 -49 9t-37 28.5t-23.5 51t-8.5 77.5q0 37 7 69t24.5 56.5t46.5 40.5t74 21l58 6v40q0 39 -6 54t-21 15t-21 -18t-8 -48l-135 20q5 22 15.5 47t30 46t50.5 34.5t78 13.5q86 0 121.5 -46t35.5 -143v-366h-89zM192 91
q7 0 15.5 2t17.5 7v169l-25 -3q-23 -3 -33 -24t-10 -66q0 -52 9.5 -68.5t25.5 -16.5zM302 598h-105l-127 137h152z" />
    <glyph glyph-name="aacute" unicode="&#xe1;" horiz-adv-x="400" 
d="M276 0l-28 51q-17 -26 -45 -42.5t-70 -16.5q-27 0 -49 9t-37 28.5t-23.5 51t-8.5 77.5q0 37 7 69t24.5 56.5t46.5 40.5t74 21l58 6v40q0 39 -6 54t-21 15t-21 -18t-8 -48l-135 20q5 22 15.5 47t30 46t50.5 34.5t78 13.5q86 0 121.5 -46t35.5 -143v-366h-89zM192 91
q7 0 15.5 2t17.5 7v169l-25 -3q-23 -3 -33 -24t-10 -66q0 -52 9.5 -68.5t25.5 -16.5zM216 735h152l-127 -137h-105z" />
    <glyph glyph-name="acircumflex" unicode="&#xe2;" horiz-adv-x="400" 
d="M276 0l-28 51q-17 -26 -45 -42.5t-70 -16.5q-27 0 -49 9t-37 28.5t-23.5 51t-8.5 77.5q0 37 7 69t24.5 56.5t46.5 40.5t74 21l58 6v40q0 39 -6 54t-21 15t-21 -18t-8 -48l-135 20q5 22 15.5 47t30 46t50.5 34.5t78 13.5q86 0 121.5 -46t35.5 -143v-366h-89zM192 91
q7 0 15.5 2t17.5 7v169l-25 -3q-23 -3 -33 -24t-10 -66q0 -52 9.5 -68.5t25.5 -16.5zM361 598h-122l-41 52l-41 -52h-122l105 137h116z" />
    <glyph glyph-name="atilde" unicode="&#xe3;" horiz-adv-x="400" 
d="M276 0l-28 51q-17 -26 -45 -42.5t-70 -16.5q-27 0 -49 9t-37 28.5t-23.5 51t-8.5 77.5q0 37 7 69t24.5 56.5t46.5 40.5t74 21l58 6v40q0 39 -6 54t-21 15t-21 -18t-8 -48l-135 20q5 22 15.5 47t30 46t50.5 34.5t78 13.5q86 0 121.5 -46t35.5 -143v-366h-89zM192 91
q7 0 15.5 2t17.5 7v169l-25 -3q-23 -3 -33 -24t-10 -66q0 -52 9.5 -68.5t25.5 -16.5zM261 610q-24 0 -41 6t-31 13t-27.5 13t-30.5 6q-33 0 -78 -36v100q22 16 41.5 24.5t40.5 8.5q24 0 41 -6t31 -13t27.5 -13t30.5 -6q33 0 78 36v-100q-22 -16 -41.5 -24.5t-40.5 -8.5z" />
    <glyph glyph-name="adieresis" unicode="&#xe4;" horiz-adv-x="400" 
d="M276 0l-28 51q-17 -26 -45 -42.5t-70 -16.5q-27 0 -49 9t-37 28.5t-23.5 51t-8.5 77.5q0 37 7 69t24.5 56.5t46.5 40.5t74 21l58 6v40q0 39 -6 54t-21 15t-21 -18t-8 -48l-135 20q5 22 15.5 47t30 46t50.5 34.5t78 13.5q86 0 121.5 -46t35.5 -143v-366h-89zM192 91
q7 0 15.5 2t17.5 7v169l-25 -3q-23 -3 -33 -24t-10 -66q0 -52 9.5 -68.5t25.5 -16.5zM50 613v112h130v-112h-130zM239 613v112h130v-112h-130z" />
    <glyph glyph-name="aring" unicode="&#xe5;" horiz-adv-x="400" 
d="M276 0l-28 51q-17 -26 -45 -42.5t-70 -16.5q-27 0 -49 9t-37 28.5t-23.5 51t-8.5 77.5q0 37 7 69t24.5 56.5t46.5 40.5t74 21l58 6v40q0 39 -6 54t-21 15t-21 -18t-8 -48l-135 20q5 22 15.5 47t30 46t50.5 34.5t78 13.5q86 0 121.5 -46t35.5 -143v-366h-89zM192 91
q7 0 15.5 2t17.5 7v169l-25 -3q-23 -3 -33 -24t-10 -66q0 -52 9.5 -68.5t25.5 -16.5zM79 691q0 57 32.5 88t95.5 31t95.5 -31t32.5 -88t-33.5 -87t-94.5 -30t-94.5 30t-33.5 87zM177 691q0 -46 30 -46t30 46q0 48 -30 48t-30 -48z" />
    <glyph glyph-name="ae" unicode="&#xe6;" horiz-adv-x="592" 
d="M404 91q16 0 23.5 17.5t10.5 49.5l128 -20q-3 -23 -13 -48.5t-29.5 -48t-49.5 -37t-73 -14.5q-51 0 -80.5 18t-45.5 60q-14 -35 -49 -55.5t-89 -20.5q-29 0 -52 8.5t-38.5 27.5t-23.5 50t-8 75q0 36 7 66.5t24.5 53.5t46.5 37.5t74 19.5l58 6v55q0 39 -6 54t-21 15
t-21 -18t-8 -48l-135 20q5 22 15.5 47t30 46t50.5 34.5t78 13.5q31 0 56 -10t44 -27q34 37 91 37q60 0 93.5 -22.5t50 -63t20.5 -98t4 -127.5h-203q0 -50 2.5 -80.5t8 -46.5t13 -21t16.5 -5zM192 91q7 0 16 3t17 11v149l-25 -3q-23 -3 -33 -20.5t-10 -59.5q0 -26 2.5 -42
t7 -24.5t11 -11t14.5 -2.5zM403 465q-10 0 -17 -4.5t-11.5 -18.5t-7 -39.5t-3.5 -68.5h75q0 43 -2 68.5t-6.5 39.5t-11 18.5t-16.5 4.5z" />
    <glyph glyph-name="ccedilla" unicode="&#xe7;" horiz-adv-x="386" 
d="M317 -142q0 -51 -33 -81t-96 -30q-31 0 -59.5 8.5t-51.5 23.5l37 68q9 -6 23.5 -11.5t32.5 -5.5q23 0 33 11t10 23q0 38 -73 45l22 84q-32 6 -57.5 23.5t-43 50.5t-27 84t-9.5 124q0 146 41 213t135 67q52 0 84 -18t50 -44t25 -57t10 -56l-133 -20q-2 48 -8.5 72.5
t-23.5 24.5q-10 0 -16.5 -6t-10.5 -25.5t-6 -56t-2 -97.5t2 -97t6 -55.5t10.5 -25.5t15.5 -6q11 0 18 9t10.5 22.5t4.5 30.5t1 34l138 -16q-3 -26 -10 -53t-21 -51t-37 -42.5t-58 -26.5l-5 -46q38 -11 55 -36.5t17 -54.5z" />
    <glyph glyph-name="egrave" unicode="&#xe8;" horiz-adv-x="392" 
d="M204 91q16 0 23.5 17.5t10.5 49.5l128 -20q-3 -23 -13 -48.5t-29.5 -48t-49.5 -37t-73 -14.5q-93 0 -134.5 66.5t-41.5 213.5q0 79 10.5 133.5t32 88t54 48.5t77.5 15q60 0 93.5 -22.5t50 -64.5t20.5 -102.5t4 -136.5h-201q1 -45 3.5 -72.5t7 -42t11.5 -19t16 -4.5z
M203 465q-9 0 -16 -5t-11.5 -20t-7 -43.5t-2.5 -75.5h73q0 46 -2.5 74.5t-7 44t-11 20.5t-15.5 5zM285 598h-105l-127 137h152z" />
    <glyph glyph-name="eacute" unicode="&#xe9;" horiz-adv-x="392" 
d="M204 91q16 0 23.5 17.5t10.5 49.5l128 -20q-3 -23 -13 -48.5t-29.5 -48t-49.5 -37t-73 -14.5q-93 0 -134.5 66.5t-41.5 213.5q0 79 10.5 133.5t32 88t54 48.5t77.5 15q60 0 93.5 -22.5t50 -64.5t20.5 -102.5t4 -136.5h-201q1 -45 3.5 -72.5t7 -42t11.5 -19t16 -4.5z
M203 465q-9 0 -16 -5t-11.5 -20t-7 -43.5t-2.5 -75.5h73q0 46 -2.5 74.5t-7 44t-11 20.5t-15.5 5zM206 735h152l-127 -137h-105z" />
    <glyph glyph-name="ecircumflex" unicode="&#xea;" horiz-adv-x="392" 
d="M204 91q16 0 23.5 17.5t10.5 49.5l128 -20q-3 -23 -13 -48.5t-29.5 -48t-49.5 -37t-73 -14.5q-93 0 -134.5 66.5t-41.5 213.5q0 79 10.5 133.5t32 88t54 48.5t77.5 15q60 0 93.5 -22.5t50 -64.5t20.5 -102.5t4 -136.5h-201q1 -45 3.5 -72.5t7 -42t11.5 -19t16 -4.5z
M203 465q-9 0 -16 -5t-11.5 -20t-7 -43.5t-2.5 -75.5h73q0 46 -2.5 74.5t-7 44t-11 20.5t-15.5 5zM360 598h-122l-41 52l-41 -52h-122l105 137h116z" />
    <glyph glyph-name="edieresis" unicode="&#xeb;" horiz-adv-x="392" 
d="M204 91q16 0 23.5 17.5t10.5 49.5l128 -20q-3 -23 -13 -48.5t-29.5 -48t-49.5 -37t-73 -14.5q-93 0 -134.5 66.5t-41.5 213.5q0 79 10.5 133.5t32 88t54 48.5t77.5 15q60 0 93.5 -22.5t50 -64.5t20.5 -102.5t4 -136.5h-201q1 -45 3.5 -72.5t7 -42t11.5 -19t16 -4.5z
M203 465q-9 0 -16 -5t-11.5 -20t-7 -43.5t-2.5 -75.5h73q0 46 -2.5 74.5t-7 44t-11 20.5t-15.5 5zM43 613v112h130v-112h-130zM232 613v112h130v-112h-130z" />
    <glyph glyph-name="igrave" unicode="&#xec;" horiz-adv-x="210" 
d="M35 0v540h140v-540h-140zM202 598h-105l-127 137h152z" />
    <glyph glyph-name="iacute" unicode="&#xed;" horiz-adv-x="210" 
d="M35 0v540h140v-540h-140zM91 735h152l-127 -137h-105z" />
    <glyph glyph-name="icircumflex" unicode="&#xee;" horiz-adv-x="210" 
d="M269 598h-122l-41 52l-41 -52h-122l105 137h116zM35 0v540h140v-540h-140z" />
    <glyph glyph-name="idieresis" unicode="&#xef;" horiz-adv-x="210" 
d="M35 0v540h140v-540h-140zM-54 613v112h130v-112h-130zM135 613v112h130v-112h-130z" />
    <glyph glyph-name="eth" unicode="&#xf0;" horiz-adv-x="484" 
d="M386 337q0 -105 -10.5 -172t-32.5 -106t-56.5 -54t-83.5 -15q-42 0 -74.5 12.5t-55 41.5t-34 76t-11.5 117q0 120 27.5 178t100.5 58q26 0 46 -11.5t36 -28.5q-10 76 -34 119l-24 -26h-102l78 81q-17 13 -35.5 21t-37.5 15l47 92q26 -8 52.5 -19t50.5 -27l30 31h102
l-76 -79q43 -48 70 -121t27 -183zM207 365q-11 0 -18 -6t-11.5 -21t-6 -40.5t-1.5 -64.5q0 -47 1.5 -75t5.5 -43t10.5 -20t15.5 -5t16 7t12.5 33.5t8 79t2.5 143.5v1q-24 11 -35 11z" />
    <glyph glyph-name="ntilde" unicode="&#xf1;" horiz-adv-x="423" 
d="M35 0v540h95l25 -53q23 30 54 49t69 19q28 0 49 -9.5t34.5 -31.5t20 -58t6.5 -88v-368h-140v378q0 43 -8.5 55.5t-29.5 12.5q-15 0 -35 -11v-435h-140zM274 610q-24 0 -41 6t-31 13t-27.5 13t-30.5 6q-33 0 -78 -36v100q22 16 41.5 24.5t40.5 8.5q24 0 41 -6t31 -13
t27.5 -13t30.5 -6q33 0 78 36v-100q-22 -16 -41.5 -24.5t-40.5 -8.5z" />
    <glyph glyph-name="ograve" unicode="&#xf2;" horiz-adv-x="419" 
d="M25 270q0 83 13.5 138t38.5 87.5t58.5 46t74.5 13.5q40 0 74 -13t58.5 -45.5t38 -87.5t13.5 -139t-13.5 -138t-38 -85.5t-58.5 -44t-74 -12.5q-41 0 -74.5 12.5t-58.5 44.5t-38.5 86t-13.5 137zM169 270q0 -57 2 -92.5t7 -56t13 -27.5t20 -7t19.5 7t12 27t6.5 55.5
t2 93.5t-2 94.5t-7 57t-13 28t-19 7.5t-19 -8t-13 -28.5t-7 -57t-2 -93.5zM285 598h-105l-127 137h152z" />
    <glyph glyph-name="oacute" unicode="&#xf3;" horiz-adv-x="419" 
d="M25 270q0 83 13.5 138t38.5 87.5t58.5 46t74.5 13.5q40 0 74 -13t58.5 -45.5t38 -87.5t13.5 -139t-13.5 -138t-38 -85.5t-58.5 -44t-74 -12.5q-41 0 -74.5 12.5t-58.5 44.5t-38.5 86t-13.5 137zM169 270q0 -57 2 -92.5t7 -56t13 -27.5t20 -7t19.5 7t12 27t6.5 55.5
t2 93.5t-2 94.5t-7 57t-13 28t-19 7.5t-19 -8t-13 -28.5t-7 -57t-2 -93.5zM215 735h152l-127 -137h-105z" />
    <glyph glyph-name="ocircumflex" unicode="&#xf4;" horiz-adv-x="419" 
d="M25 270q0 83 13.5 138t38.5 87.5t58.5 46t74.5 13.5q40 0 74 -13t58.5 -45.5t38 -87.5t13.5 -139t-13.5 -138t-38 -85.5t-58.5 -44t-74 -12.5q-41 0 -74.5 12.5t-58.5 44.5t-38.5 86t-13.5 137zM169 270q0 -57 2 -92.5t7 -56t13 -27.5t20 -7t19.5 7t12 27t6.5 55.5
t2 93.5t-2 94.5t-7 57t-13 28t-19 7.5t-19 -8t-13 -28.5t-7 -57t-2 -93.5zM373 598h-122l-41 52l-41 -52h-122l105 137h116z" />
    <glyph glyph-name="otilde" unicode="&#xf5;" horiz-adv-x="419" 
d="M25 270q0 83 13.5 138t38.5 87.5t58.5 46t74.5 13.5q40 0 74 -13t58.5 -45.5t38 -87.5t13.5 -139t-13.5 -138t-38 -85.5t-58.5 -44t-74 -12.5q-41 0 -74.5 12.5t-58.5 44.5t-38.5 86t-13.5 137zM169 270q0 -57 2 -92.5t7 -56t13 -27.5t20 -7t19.5 7t12 27t6.5 55.5
t2 93.5t-2 94.5t-7 57t-13 28t-19 7.5t-19 -8t-13 -28.5t-7 -57t-2 -93.5zM275 610q-24 0 -41 6t-31 13t-27.5 13t-30.5 6q-33 0 -78 -36v100q22 16 41.5 24.5t40.5 8.5q24 0 41 -6t31 -13t27.5 -13t30.5 -6q33 0 78 36v-100q-22 -16 -41.5 -24.5t-40.5 -8.5z" />
    <glyph glyph-name="odieresis" unicode="&#xf6;" horiz-adv-x="419" 
d="M25 270q0 83 13.5 138t38.5 87.5t58.5 46t74.5 13.5q40 0 74 -13t58.5 -45.5t38 -87.5t13.5 -139t-13.5 -138t-38 -85.5t-58.5 -44t-74 -12.5q-41 0 -74.5 12.5t-58.5 44.5t-38.5 86t-13.5 137zM169 270q0 -57 2 -92.5t7 -56t13 -27.5t20 -7t19.5 7t12 27t6.5 55.5
t2 93.5t-2 94.5t-7 57t-13 28t-19 7.5t-19 -8t-13 -28.5t-7 -57t-2 -93.5zM51 613v112h130v-112h-130zM240 613v112h130v-112h-130z" />
    <glyph glyph-name="divide" unicode="&#xf7;" 
d="M137 51v135h145v-135h-145zM137 456v135h145v-135h-145zM40 261v120h340v-120h-340z" />
    <glyph glyph-name="oslash" unicode="&#xf8;" horiz-adv-x="419" 
d="M25 270q0 83 13.5 138t38.5 87.5t58.5 46t74.5 13.5q27 0 44 -4l25 82h82l-35 -119q32 -30 50 -88.5t18 -155.5q0 -84 -13.5 -138t-38 -85.5t-58.5 -44t-74 -12.5q-27 0 -42 4l-29 -96h-82l38 129q-33 29 -51.5 86.5t-18.5 156.5zM169 270v-51q0 -7 1 -14l62 240
q-8 12 -22 12q-11 0 -19 -8t-13 -28.5t-7 -57t-2 -93.5zM251 270v42q0 7 -1 13l-60 -230q8 -8 21 -8q12 0 19.5 7t12 27t6.5 55.5t2 93.5z" />
    <glyph glyph-name="ugrave" unicode="&#xf9;" 
d="M175 540v-373q0 -22 1.5 -35t5.5 -20.5t10.5 -10t16.5 -2.5q12 0 36 11v430h140v-540h-105l-19 51q-20 -27 -46.5 -44t-60.5 -17q-63 0 -91 41t-28 137v372h140zM288 598h-105l-127 137h152z" />
    <glyph glyph-name="uacute" unicode="&#xfa;" 
d="M175 540v-373q0 -22 1.5 -35t5.5 -20.5t10.5 -10t16.5 -2.5q12 0 36 11v430h140v-540h-105l-19 51q-20 -27 -46.5 -44t-60.5 -17q-63 0 -91 41t-28 137v372h140zM214 735h152l-127 -137h-105z" />
    <glyph glyph-name="ucircumflex" unicode="&#xfb;" 
d="M175 540v-373q0 -22 1.5 -35t5.5 -20.5t10.5 -10t16.5 -2.5q12 0 36 11v430h140v-540h-105l-19 51q-20 -27 -46.5 -44t-60.5 -17q-63 0 -91 41t-28 137v372h140zM373 592h-122l-41 52l-41 -52h-122l105 137h116z" />
    <glyph glyph-name="udieresis" unicode="&#xfc;" 
d="M175 540v-373q0 -22 1.5 -35t5.5 -20.5t10.5 -10t16.5 -2.5q12 0 36 11v430h140v-540h-105l-19 51q-20 -27 -46.5 -44t-60.5 -17q-63 0 -91 41t-28 137v372h140zM50 613v112h130v-112h-130zM239 613v112h130v-112h-130z" />
    <glyph glyph-name="yacute" unicode="&#xfd;" horiz-adv-x="401" 
d="M282 -15q-17 -81 -56 -115.5t-99 -34.5q-37 0 -70 11v100q29 -8 49 -8t34 13.5t19 48.5h-46l-113 540h153l46 -428l63 428h139zM171 735h152l-127 -137h-105z" />
    <glyph glyph-name="thorn" unicode="&#xfe;" horiz-adv-x="405" 
d="M35 -170v905h140v-227q20 21 43 34t48 13q30 0 51.5 -12t35.5 -43t20.5 -85.5t6.5 -139.5q0 -74 -6.5 -128t-22 -89t-42.5 -51.5t-69 -16.5q-38 0 -65 21v-181h-140zM208 446q-13 0 -33 -11v-356q12 -3 24 -3q14 0 22 8.5t12.5 31.5t5.5 62.5t1 101.5q0 53 -1 85.5
t-4.5 50.5t-10 24t-16.5 6z" />
    <glyph glyph-name="ydieresis" unicode="&#xff;" horiz-adv-x="401" 
d="M282 -15q-17 -81 -56 -115.5t-99 -34.5q-37 0 -70 11v100q29 -8 49 -8t34 13.5t19 48.5h-46l-113 540h153l46 -428l63 428h139zM41 613v112h130v-112h-130zM230 613v112h130v-112h-130z" />
    <glyph glyph-name="Amacron" unicode="&#x100;" horiz-adv-x="490" 
d="M329 0l-26 167h-131l-27 -167h-143l159 720h165l162 -720h-159zM188 269h99l-48 316zM104 781v104h270v-104h-270z" />
    <glyph glyph-name="amacron" unicode="&#x101;" horiz-adv-x="400" 
d="M276 0l-28 51q-17 -26 -45 -42.5t-70 -16.5q-27 0 -49 9t-37 28.5t-23.5 51t-8.5 77.5q0 37 7 69t24.5 56.5t46.5 40.5t74 21l58 6v40q0 39 -6 54t-21 15t-21 -18t-8 -48l-135 20q5 22 15.5 47t30 46t50.5 34.5t78 13.5q86 0 121.5 -46t35.5 -143v-366h-89zM192 91
q7 0 15.5 2t17.5 7v169l-25 -3q-23 -3 -33 -24t-10 -66q0 -52 9.5 -68.5t25.5 -16.5zM65 631v104h270v-104h-270z" />
    <glyph glyph-name="Abreve" unicode="&#x102;" horiz-adv-x="490" 
d="M329 0l-26 167h-131l-27 -167h-143l159 720h165l162 -720h-159zM188 269h99l-48 316zM239 756q-25 0 -50.5 7t-46.5 22t-35.5 39.5t-17.5 60.5h119q2 -26 9.5 -36t21.5 -10t21.5 10t9.5 36h119q-3 -36 -17.5 -60.5t-35.5 -39.5t-46.5 -22t-50.5 -7z" />
    <glyph glyph-name="abreve" unicode="&#x103;" horiz-adv-x="400" 
d="M276 0l-28 51q-17 -26 -45 -42.5t-70 -16.5q-27 0 -49 9t-37 28.5t-23.5 51t-8.5 77.5q0 37 7 69t24.5 56.5t46.5 40.5t74 21l58 6v40q0 39 -6 54t-21 15t-21 -18t-8 -48l-135 20q5 22 15.5 47t30 46t50.5 34.5t78 13.5q86 0 121.5 -46t35.5 -143v-366h-89zM192 91
q7 0 15.5 2t17.5 7v169l-25 -3q-23 -3 -33 -24t-10 -66q0 -52 9.5 -68.5t25.5 -16.5zM200 591q-27 0 -53 7.5t-46.5 25t-34 45t-16.5 66.5h119q2 -33 9.5 -47t21.5 -14t21.5 14t9.5 47h119q-3 -39 -16.5 -66.5t-34 -45t-46.5 -25t-53 -7.5z" />
    <glyph glyph-name="Aogonek" unicode="&#x104;" horiz-adv-x="490" 
d="M508 -212q-26 -14 -50.5 -21t-53.5 -7q-69 0 -104 33.5t-35 93.5q0 34 17.5 62.5t46.5 50.5l-26 167h-131l-27 -167h-143l159 720h165l162 -720h-48q-19 -15 -37 -41t-18 -58q0 -22 12 -32.5t32 -10.5q19 0 58 14zM188 269h99l-48 316z" />
    <glyph glyph-name="aogonek" unicode="&#x105;" horiz-adv-x="400" 
d="M409 -212q-26 -14 -49.5 -21t-52.5 -7q-69 0 -103.5 32.5t-34.5 92.5q0 27 9 47t23 35.5t31.5 28t34.5 23.5l-19 32q-17 -26 -45 -42.5t-70 -16.5q-27 0 -49 9t-37 28.5t-23.5 51t-8.5 77.5q0 37 7 69t24.5 56.5t46.5 40.5t74 21l58 6v40q0 39 -6 54t-21 15t-21 -18
t-8 -48l-135 20q5 22 15.5 47t30 46t50.5 34.5t78 13.5q86 0 121.5 -46t35.5 -143v-366q-6 -3 -19 -11.5t-27 -21t-24.5 -29.5t-10.5 -37q0 -22 12.5 -34.5t32.5 -12.5t59 14zM192 91q7 0 15.5 2t17.5 7v169l-25 -3q-23 -3 -33 -24t-10 -66q0 -52 9.5 -68.5t25.5 -16.5z" />
    <glyph glyph-name="Cacute" unicode="&#x106;" horiz-adv-x="452" 
d="M245 94q15 0 24.5 10t15.5 26.5t8.5 37.5t2.5 44l141 -15q-3 -32 -12.5 -69.5t-31.5 -69t-58.5 -52.5t-94.5 -21q-48 0 -86.5 15.5t-65 57.5t-41 115t-14.5 187q0 112 14.5 185t42 115t67.5 58.5t91 16.5q53 0 87 -20.5t54.5 -51t29.5 -65.5t12 -65l-139 -17
q-2 21 -4 40.5t-7 35.5t-13.5 25.5t-22.5 9.5q-17 0 -28 -12t-17 -42t-8 -82t-2 -131q0 -80 2 -131.5t8 -81.5t17 -41.5t28 -11.5zM247 885h152l-122 -117h-110z" />
    <glyph glyph-name="cacute" unicode="&#x107;" horiz-adv-x="386" 
d="M205 457q-10 0 -16.5 -6t-10.5 -25.5t-6 -56t-2 -97.5t2 -97t6 -55.5t10.5 -25.5t15.5 -6q11 0 18 9t10.5 22.5t4.5 30.5t1 34l138 -16q-3 -29 -12 -60.5t-28.5 -57.5t-52 -43t-81.5 -17q-41 0 -73.5 13t-55.5 45.5t-35.5 87.5t-12.5 139q0 146 41 213t135 67
q52 0 84 -18t50 -44t25 -57t10 -56l-133 -20q-2 48 -8.5 72.5t-23.5 24.5zM204 735h152l-127 -137h-105z" />
    <glyph glyph-name="Ccircumflex" unicode="&#x108;" horiz-adv-x="452" 
d="M245 94q15 0 24.5 10t15.5 26.5t8.5 37.5t2.5 44l141 -15q-3 -32 -12.5 -69.5t-31.5 -69t-58.5 -52.5t-94.5 -21q-48 0 -86.5 15.5t-65 57.5t-41 115t-14.5 187q0 112 14.5 185t42 115t67.5 58.5t91 16.5q53 0 87 -20.5t54.5 -51t29.5 -65.5t12 -65l-139 -17
q-2 21 -4 40.5t-7 35.5t-13.5 25.5t-22.5 9.5q-17 0 -28 -12t-17 -42t-8 -82t-2 -131q0 -80 2 -131.5t8 -81.5t17 -41.5t28 -11.5zM407 768h-125l-38 37l-38 -37h-125l105 117h116z" />
    <glyph glyph-name="ccircumflex" unicode="&#x109;" horiz-adv-x="386" 
d="M205 457q-10 0 -16.5 -6t-10.5 -25.5t-6 -56t-2 -97.5t2 -97t6 -55.5t10.5 -25.5t15.5 -6q11 0 18 9t10.5 22.5t4.5 30.5t1 34l138 -16q-3 -29 -12 -60.5t-28.5 -57.5t-52 -43t-81.5 -17q-41 0 -73.5 13t-55.5 45.5t-35.5 87.5t-12.5 139q0 146 41 213t135 67
q52 0 84 -18t50 -44t25 -57t10 -56l-133 -20q-2 48 -8.5 72.5t-23.5 24.5zM368 598h-122l-41 52l-41 -52h-122l105 137h116z" />
    <glyph glyph-name="Cdotaccent" unicode="&#x10a;" horiz-adv-x="452" 
d="M245 94q15 0 24.5 10t15.5 26.5t8.5 37.5t2.5 44l141 -15q-3 -32 -12.5 -69.5t-31.5 -69t-58.5 -52.5t-94.5 -21q-48 0 -86.5 15.5t-65 57.5t-41 115t-14.5 187q0 112 14.5 185t42 115t67.5 58.5t91 16.5q53 0 87 -20.5t54.5 -51t29.5 -65.5t12 -65l-139 -17
q-2 21 -4 40.5t-7 35.5t-13.5 25.5t-22.5 9.5q-17 0 -28 -12t-17 -42t-8 -82t-2 -131q0 -80 2 -131.5t8 -81.5t17 -41.5t28 -11.5zM167 770v115h152v-115h-152z" />
    <glyph glyph-name="cdotaccent" unicode="&#x10b;" horiz-adv-x="386" 
d="M205 457q-10 0 -16.5 -6t-10.5 -25.5t-6 -56t-2 -97.5t2 -97t6 -55.5t10.5 -25.5t15.5 -6q11 0 18 9t10.5 22.5t4.5 30.5t1 34l138 -16q-3 -29 -12 -60.5t-28.5 -57.5t-52 -43t-81.5 -17q-41 0 -73.5 13t-55.5 45.5t-35.5 87.5t-12.5 139q0 146 41 213t135 67
q52 0 84 -18t50 -44t25 -57t10 -56l-133 -20q-2 48 -8.5 72.5t-23.5 24.5zM128 610v125h152v-125h-152z" />
    <glyph glyph-name="Ccaron" unicode="&#x10c;" horiz-adv-x="452" 
d="M245 94q15 0 24.5 10t15.5 26.5t8.5 37.5t2.5 44l141 -15q-3 -32 -12.5 -69.5t-31.5 -69t-58.5 -52.5t-94.5 -21q-48 0 -86.5 15.5t-65 57.5t-41 115t-14.5 187q0 112 14.5 185t42 115t67.5 58.5t91 16.5q53 0 87 -20.5t54.5 -51t29.5 -65.5t12 -65l-139 -17
q-2 21 -4 40.5t-7 35.5t-13.5 25.5t-22.5 9.5q-17 0 -28 -12t-17 -42t-8 -82t-2 -131q0 -80 2 -131.5t8 -81.5t17 -41.5t28 -11.5zM79 885h125l38 -37l38 37h125l-105 -117h-116z" />
    <glyph glyph-name="ccaron" unicode="&#x10d;" horiz-adv-x="386" 
d="M205 457q-10 0 -16.5 -6t-10.5 -25.5t-6 -56t-2 -97.5t2 -97t6 -55.5t10.5 -25.5t15.5 -6q11 0 18 9t10.5 22.5t4.5 30.5t1 34l138 -16q-3 -29 -12 -60.5t-28.5 -57.5t-52 -43t-81.5 -17q-41 0 -73.5 13t-55.5 45.5t-35.5 87.5t-12.5 139q0 146 41 213t135 67
q52 0 84 -18t50 -44t25 -57t10 -56l-133 -20q-2 48 -8.5 72.5t-23.5 24.5zM261 598h-116l-105 137h122l41 -52l41 52h122z" />
    <glyph glyph-name="Dcaron" unicode="&#x10e;" horiz-adv-x="499" 
d="M207 720q61 0 109 -14t81.5 -53.5t51 -110t17.5 -182.5q0 -113 -18.5 -183t-52.5 -109.5t-81.5 -53.5t-104.5 -14h-164v720h162zM195 612v-503h14q27 0 46 9.5t32 36.5t19 76t6 129q0 79 -6 128.5t-19 77t-33 37t-47 9.5h-12zM57 885h125l38 -37l38 37h125l-105 -117
h-116z" />
    <glyph glyph-name="dcaron" unicode="&#x10f;" horiz-adv-x="526" 
d="M25 270q0 74 7 128t23.5 89t44 51.5t69.5 16.5q39 0 68 -24v204h140v-735h-95l-32 57q-21 -29 -46 -48t-57 -19q-30 0 -52.5 12t-38 43t-23.5 85.5t-8 139.5zM203 99q14 0 34 11v354q-20 5 -29 5q-14 0 -22.5 -8.5t-13 -31.5t-6 -62.5t-1.5 -101.5q0 -53 2 -85.5
t6.5 -50.5t11.5 -24t18 -6zM531 617l-59 -101h-70l37 100h-42v120h134v-119z" />
    <glyph glyph-name="Dcroat" unicode="&#x110;" horiz-adv-x="509" 
d="M55 336h-45v110h45v274h162q61 0 109 -14t81.5 -53.5t51 -110t17.5 -182.5q0 -113 -18.5 -183t-52.5 -109.5t-81.5 -53.5t-104.5 -14h-164v336zM205 336v-227h14q27 0 46 9.5t32 36.5t19 76t6 129q0 79 -6 128.5t-19 77t-33 37t-47 9.5h-12v-166h60v-110h-60z" />
    <glyph glyph-name="dcroat" unicode="&#x111;" horiz-adv-x="439" 
d="M25 270q0 74 7 128t23.5 89t44 51.5t69.5 16.5q39 0 68 -24v64h-126v90h126v50h140v-50h52v-90h-52v-595h-95l-32 57q-21 -29 -46 -48t-57 -19q-30 0 -52.5 12t-38 43t-23.5 85.5t-8 139.5zM203 99q14 0 34 11v354q-20 5 -29 5q-14 0 -22.5 -8.5t-13 -31.5t-6 -62.5
t-1.5 -101.5q0 -53 2 -85.5t6.5 -50.5t11.5 -24t18 -6z" />
    <glyph glyph-name="Emacron" unicode="&#x112;" horiz-adv-x="392" 
d="M335 309h-140v-196h170v-113h-320v720h320v-115h-170v-188h140v-108zM66 784v104h270v-104h-270z" />
    <glyph glyph-name="emacron" unicode="&#x113;" horiz-adv-x="392" 
d="M204 91q16 0 23.5 17.5t10.5 49.5l128 -20q-3 -23 -13 -48.5t-29.5 -48t-49.5 -37t-73 -14.5q-93 0 -134.5 66.5t-41.5 213.5q0 79 10.5 133.5t32 88t54 48.5t77.5 15q60 0 93.5 -22.5t50 -64.5t20.5 -102.5t4 -136.5h-201q1 -45 3.5 -72.5t7 -42t11.5 -19t16 -4.5z
M203 465q-9 0 -16 -5t-11.5 -20t-7 -43.5t-2.5 -75.5h73q0 46 -2.5 74.5t-7 44t-11 20.5t-15.5 5zM65 631v104h270v-104h-270z" />
    <glyph glyph-name="Ebreve" unicode="&#x114;" horiz-adv-x="392" 
d="M335 309h-140v-196h170v-113h-320v720h320v-115h-170v-188h140v-108zM204 756q-25 0 -50.5 7t-46.5 22t-35.5 39.5t-17.5 60.5h119q2 -26 9.5 -36t21.5 -10t21.5 10t9.5 36h119q-3 -36 -17.5 -60.5t-35.5 -39.5t-46.5 -22t-50.5 -7z" />
    <glyph glyph-name="ebreve" unicode="&#x115;" horiz-adv-x="392" 
d="M204 91q16 0 23.5 17.5t10.5 49.5l128 -20q-3 -23 -13 -48.5t-29.5 -48t-49.5 -37t-73 -14.5q-93 0 -134.5 66.5t-41.5 213.5q0 79 10.5 133.5t32 88t54 48.5t77.5 15q60 0 93.5 -22.5t50 -64.5t20.5 -102.5t4 -136.5h-201q1 -45 3.5 -72.5t7 -42t11.5 -19t16 -4.5z
M203 465q-9 0 -16 -5t-11.5 -20t-7 -43.5t-2.5 -75.5h73q0 46 -2.5 74.5t-7 44t-11 20.5t-15.5 5zM203 591q-27 0 -53 7.5t-46.5 25t-34 45t-16.5 66.5h119q2 -33 9.5 -47t21.5 -14t21.5 14t9.5 47h119q-3 -39 -16.5 -66.5t-34 -45t-46.5 -25t-53 -7.5z" />
    <glyph glyph-name="Edotaccent" unicode="&#x116;" horiz-adv-x="392" 
d="M335 309h-140v-196h170v-113h-320v720h320v-115h-170v-188h140v-108zM124 774v115h152v-115h-152z" />
    <glyph glyph-name="edotaccent" unicode="&#x117;" horiz-adv-x="392" 
d="M204 91q16 0 23.5 17.5t10.5 49.5l128 -20q-3 -23 -13 -48.5t-29.5 -48t-49.5 -37t-73 -14.5q-93 0 -134.5 66.5t-41.5 213.5q0 79 10.5 133.5t32 88t54 48.5t77.5 15q60 0 93.5 -22.5t50 -64.5t20.5 -102.5t4 -136.5h-201q1 -45 3.5 -72.5t7 -42t11.5 -19t16 -4.5z
M203 465q-9 0 -16 -5t-11.5 -20t-7 -43.5t-2.5 -75.5h73q0 46 -2.5 74.5t-7 44t-11 20.5t-15.5 5zM128 617v125h152v-125h-152z" />
    <glyph glyph-name="Eogonek" unicode="&#x118;" horiz-adv-x="392" 
d="M335 309h-140v-196h170v-113h-35q-19 -7 -35 -18.5t-28 -25t-18.5 -28t-6.5 -27.5q0 -22 12 -32.5t32 -10.5q19 0 58 14l21 -84q-26 -14 -50.5 -21t-53.5 -7q-69 0 -104 33.5t-35 93.5q0 22 9 40.5t22.5 33t30 24.5t31.5 15h-170v720h320v-115h-170v-188h140v-108z" />
    <glyph glyph-name="eogonek" unicode="&#x119;" horiz-adv-x="392" 
d="M338 -212q-26 -14 -49.5 -21t-52.5 -7q-69 0 -103.5 33.5t-34.5 93.5q0 32 18 61.5t49 46.5q-75 8 -107.5 77.5t-32.5 197.5q0 79 10.5 133.5t32 88t54 48.5t77.5 15q60 0 93.5 -22.5t50 -64.5t20.5 -102.5t4 -136.5h-201q1 -45 3.5 -72.5t7 -42t11.5 -19t16 -4.5
q16 0 23.5 17.5t10.5 49.5l128 -20q-3 -18 -9.5 -38t-18.5 -39t-30 -35t-43 -25q-25 -23 -38.5 -48t-13.5 -52q0 -22 12.5 -34.5t32.5 -12.5t59 14zM203 465q-9 0 -16 -5t-11.5 -20t-7 -43.5t-2.5 -75.5h73q0 46 -2.5 74.5t-7 44t-11 20.5t-15.5 5z" />
    <glyph glyph-name="Ecaron" unicode="&#x11a;" horiz-adv-x="392" 
d="M335 309h-140v-196h170v-113h-320v720h320v-115h-170v-188h140v-108zM42 885h125l38 -37l38 37h125l-105 -117h-116z" />
    <glyph glyph-name="ecaron" unicode="&#x11b;" horiz-adv-x="392" 
d="M204 91q16 0 23.5 17.5t10.5 49.5l128 -20q-3 -23 -13 -48.5t-29.5 -48t-49.5 -37t-73 -14.5q-93 0 -134.5 66.5t-41.5 213.5q0 79 10.5 133.5t32 88t54 48.5t77.5 15q60 0 93.5 -22.5t50 -64.5t20.5 -102.5t4 -136.5h-201q1 -45 3.5 -72.5t7 -42t11.5 -19t16 -4.5z
M203 465q-9 0 -16 -5t-11.5 -20t-7 -43.5t-2.5 -75.5h73q0 46 -2.5 74.5t-7 44t-11 20.5t-15.5 5zM260 598h-116l-105 137h122l41 -52l41 52h122z" />
    <glyph glyph-name="Gcircumflex" unicode="&#x11c;" horiz-adv-x="467" 
d="M425 0h-75l-21 38q-16 -22 -42.5 -37.5t-68.5 -15.5q-39 0 -73 15.5t-59 57.5t-39 115t-14 187q0 112 15.5 185t44 115t69 58.5t90.5 16.5q46 0 78.5 -16t54 -41t33 -55.5t16.5 -59.5l-137 -17q-2 13 -4.5 27.5t-8 26.5t-13.5 20t-21 8q-16 0 -27 -12t-18.5 -42.5
t-11 -82.5t-3.5 -131q0 -80 1.5 -131.5t7.5 -81.5t17 -41.5t31 -11.5q19 0 30 7.5t19 20.5v192h-45v104h174v-418zM413 768h-125l-38 37l-38 -37h-125l105 117h116z" />
    <glyph glyph-name="gcircumflex" unicode="&#x11d;" horiz-adv-x="410" 
d="M392 513l-85 2q27 -23 44 -61.5t17 -92.5q0 -93 -41.5 -141.5t-131.5 -48.5q-13 0 -25.5 1t-24.5 3q-1 -5 -1.5 -9.5t-0.5 -9.5q0 -17 10.5 -24.5t46.5 -9.5q95 -6 145.5 -42.5t50.5 -123.5q0 -38 -15.5 -67t-43 -48t-65 -28.5t-80.5 -9.5q-81 0 -131.5 33.5t-50.5 96.5
q0 62 63 103q-32 29 -32 78q0 27 11.5 47.5t34.5 37.5q-30 20 -48 59t-18 103q0 107 45 150.5t131 43.5q16 0 33 -3v34l162 29v-102zM165 5q-15 0 -28 3q-12 -21 -12 -50q0 -43 20 -59.5t46 -16.5q10 0 21.5 2.5t22 9.5t17.5 19t7 32q0 12 -3 22t-13 18t-28.5 13t-49.5 7z
M159 361q0 -31 2 -50t6.5 -30t11 -15t16.5 -4t17 4t11 15t5.5 30.5t1.5 49.5q0 62 -7 83t-28 21t-28.5 -21.5t-7.5 -82.5zM354 619h-125l-38 37l-38 -37h-125l105 117h116z" />
    <glyph glyph-name="Gbreve" unicode="&#x11e;" horiz-adv-x="467" 
d="M425 0h-75l-21 38q-16 -22 -42.5 -37.5t-68.5 -15.5q-39 0 -73 15.5t-59 57.5t-39 115t-14 187q0 112 15.5 185t44 115t69 58.5t90.5 16.5q46 0 78.5 -16t54 -41t33 -55.5t16.5 -59.5l-137 -17q-2 13 -4.5 27.5t-8 26.5t-13.5 20t-21 8q-16 0 -27 -12t-18.5 -42.5
t-11 -82.5t-3.5 -131q0 -80 1.5 -131.5t7.5 -81.5t17 -41.5t31 -11.5q19 0 30 7.5t19 20.5v192h-45v104h174v-418zM247 756q-25 0 -50.5 7t-46.5 22t-35.5 39.5t-17.5 60.5h119q2 -26 9.5 -36t21.5 -10t21.5 10t9.5 36h119q-3 -36 -17.5 -60.5t-35.5 -39.5t-46.5 -22
t-50.5 -7z" />
    <glyph glyph-name="gbreve" unicode="&#x11f;" horiz-adv-x="410" 
d="M392 513l-85 2q27 -23 44 -61.5t17 -92.5q0 -93 -41.5 -141.5t-131.5 -48.5q-13 0 -25.5 1t-24.5 3q-1 -5 -1.5 -9.5t-0.5 -9.5q0 -17 10.5 -24.5t46.5 -9.5q95 -6 145.5 -42.5t50.5 -123.5q0 -38 -15.5 -67t-43 -48t-65 -28.5t-80.5 -9.5q-81 0 -131.5 33.5t-50.5 96.5
q0 62 63 103q-32 29 -32 78q0 27 11.5 47.5t34.5 37.5q-30 20 -48 59t-18 103q0 107 45 150.5t131 43.5q16 0 33 -3v34l162 29v-102zM165 5q-15 0 -28 3q-12 -21 -12 -50q0 -43 20 -59.5t46 -16.5q10 0 21.5 2.5t22 9.5t17.5 19t7 32q0 12 -3 22t-13 18t-28.5 13t-49.5 7z
M159 361q0 -31 2 -50t6.5 -30t11 -15t16.5 -4t17 4t11 15t5.5 30.5t1.5 49.5q0 62 -7 83t-28 21t-28.5 -21.5t-7.5 -82.5zM187 607q-25 0 -50.5 7t-46.5 22t-35.5 39.5t-17.5 60.5h119q2 -26 9.5 -36t21.5 -10t21.5 10t9.5 36h119q-3 -36 -17.5 -60.5t-35.5 -39.5t-46.5 -22
t-50.5 -7z" />
    <glyph glyph-name="Gdotaccent" unicode="&#x120;" horiz-adv-x="467" 
d="M425 0h-75l-21 38q-16 -22 -42.5 -37.5t-68.5 -15.5q-39 0 -73 15.5t-59 57.5t-39 115t-14 187q0 112 15.5 185t44 115t69 58.5t90.5 16.5q46 0 78.5 -16t54 -41t33 -55.5t16.5 -59.5l-137 -17q-2 13 -4.5 27.5t-8 26.5t-13.5 20t-21 8q-16 0 -27 -12t-18.5 -42.5
t-11 -82.5t-3.5 -131q0 -80 1.5 -131.5t7.5 -81.5t17 -41.5t31 -11.5q19 0 30 7.5t19 20.5v192h-45v104h174v-418zM172 770v115h152v-115h-152z" />
    <glyph glyph-name="gdotaccent" unicode="&#x121;" horiz-adv-x="410" 
d="M392 513l-85 2q27 -23 44 -61.5t17 -92.5q0 -93 -41.5 -141.5t-131.5 -48.5q-13 0 -25.5 1t-24.5 3q-1 -5 -1.5 -9.5t-0.5 -9.5q0 -17 10.5 -24.5t46.5 -9.5q95 -6 145.5 -42.5t50.5 -123.5q0 -38 -15.5 -67t-43 -48t-65 -28.5t-80.5 -9.5q-81 0 -131.5 33.5t-50.5 96.5
q0 62 63 103q-32 29 -32 78q0 27 11.5 47.5t34.5 37.5q-30 20 -48 59t-18 103q0 107 45 150.5t131 43.5q16 0 33 -3v34l162 29v-102zM165 5q-15 0 -28 3q-12 -21 -12 -50q0 -43 20 -59.5t46 -16.5q10 0 21.5 2.5t22 9.5t17.5 19t7 32q0 12 -3 22t-13 18t-28.5 13t-49.5 7z
M159 361q0 -31 2 -50t6.5 -30t11 -15t16.5 -4t17 4t11 15t5.5 30.5t1.5 49.5q0 62 -7 83t-28 21t-28.5 -21.5t-7.5 -82.5zM117 610v125h152v-125h-152z" />
    <glyph glyph-name="Gcommaaccent" unicode="&#x122;" horiz-adv-x="467" 
d="M425 0h-75l-21 38q-16 -22 -42.5 -37.5t-68.5 -15.5q-39 0 -73 15.5t-59 57.5t-39 115t-14 187q0 112 15.5 185t44 115t69 58.5t90.5 16.5q46 0 78.5 -16t54 -41t33 -55.5t16.5 -59.5l-137 -17q-2 13 -4.5 27.5t-8 26.5t-13.5 20t-21 8q-16 0 -27 -12t-18.5 -42.5
t-11 -82.5t-3.5 -131q0 -80 1.5 -131.5t7.5 -81.5t17 -41.5t31 -11.5q19 0 30 7.5t19 20.5v192h-45v104h174v-418zM327 -169l-59 -101h-70l37 100h-42v120h134v-119z" />
    <glyph glyph-name="gcommaaccent" unicode="&#x123;" horiz-adv-x="410" 
d="M392 513l-85 2q27 -23 44 -61.5t17 -92.5q0 -93 -41.5 -141.5t-131.5 -48.5q-13 0 -25.5 1t-24.5 3q-1 -5 -1.5 -9.5t-0.5 -9.5q0 -17 10.5 -24.5t46.5 -9.5q95 -6 145.5 -42.5t50.5 -123.5q0 -38 -15.5 -67t-43 -48t-65 -28.5t-80.5 -9.5q-81 0 -131.5 33.5t-50.5 96.5
q0 62 63 103q-32 29 -32 78q0 27 11.5 47.5t34.5 37.5q-30 20 -48 59t-18 103q0 107 45 150.5t131 43.5q16 0 33 -3v34l162 29v-102zM165 5q-15 0 -28 3q-12 -21 -12 -50q0 -43 20 -59.5t46 -16.5q10 0 21.5 2.5t22 9.5t17.5 19t7 32q0 12 -3 22t-13 18t-28.5 13t-49.5 7z
M159 361q0 -31 2 -50t6.5 -30t11 -15t16.5 -4t17 4t11 15t5.5 30.5t1.5 49.5q0 62 -7 83t-28 21t-28.5 -21.5t-7.5 -82.5zM120 719l59 101h70l-37 -100h42v-120h-134v119z" />
    <glyph glyph-name="Hcircumflex" unicode="&#x124;" horiz-adv-x="500" 
d="M455 720v-720h-150v310h-110v-310h-150v720h150v-302h110v302h150zM413 768h-125l-38 37l-38 -37h-125l105 117h116z" />
    <glyph glyph-name="hcircumflex" unicode="&#x125;" horiz-adv-x="423" 
d="M35 0v735h140v-226q21 21 46.5 33.5t56.5 12.5q28 0 49 -9.5t34.5 -31.5t20 -58t6.5 -88v-368h-140v378q0 43 -8.5 55.5t-29.5 12.5q-15 0 -35 -11v-435h-140zM371 768h-125l-38 37l-38 -37h-125l105 117h116z" />
    <glyph glyph-name="Hbar" unicode="&#x126;" horiz-adv-x="510" 
d="M460 720v-83h30v-96h-30v-541h-150v310h-110v-310h-150v541h-30v96h30v83h150v-83h110v83h150zM200 418h110v123h-110v-123z" />
    <glyph glyph-name="hbar" unicode="&#x127;" horiz-adv-x="428" 
d="M40 0v595h-35v90h35v50h140v-50h143v-90h-143v-86q21 21 46.5 33.5t56.5 12.5q28 0 49 -9.5t34.5 -31.5t20 -58t6.5 -88v-368h-140v378q0 43 -8.5 55.5t-29.5 12.5q-15 0 -35 -11v-435h-140z" />
    <glyph glyph-name="Itilde" unicode="&#x128;" horiz-adv-x="240" 
d="M195 720v-720h-150v720h150zM184 765q-24 0 -41 6t-31 13t-27.5 13t-30.5 6q-33 0 -78 -36v95q22 16 41.5 24.5t40.5 8.5q24 0 41 -6t31 -13t27.5 -13t30.5 -6q33 0 78 36v-95q-22 -16 -41.5 -24.5t-40.5 -8.5z" />
    <glyph glyph-name="itilde" unicode="&#x129;" horiz-adv-x="210" 
d="M35 0v540h140v-540h-140zM169 610q-24 0 -41 6t-31 13t-27.5 13t-30.5 6q-33 0 -78 -36v100q22 16 41.5 24.5t40.5 8.5q24 0 41 -6t31 -13t27.5 -13t30.5 -6q33 0 78 36v-100q-22 -16 -41.5 -24.5t-40.5 -8.5z" />
    <glyph glyph-name="Imacron" unicode="&#x12a;" horiz-adv-x="240" 
d="M195 720v-720h-150v720h150zM-14 781v104h270v-104h-270z" />
    <glyph glyph-name="imacron" unicode="&#x12b;" horiz-adv-x="210" 
d="M35 0v540h140v-540h-140zM-29 631v104h270v-104h-270z" />
    <glyph glyph-name="Ibreve" unicode="&#x12c;" horiz-adv-x="240" 
d="M195 720v-720h-150v720h150zM121 756q-25 0 -50.5 7t-46.5 22t-35.5 39.5t-17.5 60.5h119q2 -26 9.5 -36t21.5 -10t21.5 10t9.5 36h119q-3 -36 -17.5 -60.5t-35.5 -39.5t-46.5 -22t-50.5 -7z" />
    <glyph glyph-name="ibreve" unicode="&#x12d;" horiz-adv-x="210" 
d="M35 0v540h140v-540h-140zM103 591q-27 0 -53 7.5t-46.5 25t-34 45t-16.5 66.5h119q2 -33 9.5 -47t21.5 -14t21.5 14t9.5 47h119q-3 -39 -16.5 -66.5t-34 -45t-46.5 -25t-53 -7.5z" />
    <glyph glyph-name="Iogonek" unicode="&#x12e;" horiz-adv-x="240" 
d="M259 -212q-26 -14 -50.5 -21t-53.5 -7q-69 0 -104 33.5t-35 93.5q0 16 5.5 33.5t15 32.5t23 27.5t29.5 19.5h-44v720h150v-720q-8 -5 -18 -13.5t-19 -20.5t-15.5 -28.5t-6.5 -36.5q0 -22 12 -32.5t32 -10.5q19 0 58 14z" />
    <glyph glyph-name="iogonek" unicode="&#x12f;" horiz-adv-x="210" 
d="M175 0q-9 -6 -20 -15t-21 -21t-16.5 -28t-6.5 -35q0 -22 12.5 -34.5t32.5 -12.5t59 14l21 -80q-26 -14 -49.5 -21t-52.5 -7q-69 0 -103.5 33.5t-34.5 93.5q0 35 17.5 63.5t46.5 49.5h-25v540h140v-540zM29 610v125h152v-125h-152z" />
    <glyph glyph-name="Idotaccent" unicode="&#x130;" horiz-adv-x="240" 
d="M195 720v-720h-150v720h150zM42 770v115h152v-115h-152z" />
    <glyph glyph-name="dotlessi" unicode="&#x131;" horiz-adv-x="210" 
d="M35 0v540h140v-540h-140z" />
    <glyph glyph-name="IJ" unicode="&#x132;" horiz-adv-x="549" 
d="M195 720v-720h-150v720h150zM354 720h150v-518q0 -42 -4.5 -81t-21 -69t-49.5 -48.5t-90 -18.5q-28 0 -54.5 4.5t-44.5 10.5v107q36 -11 64 -11q14 0 23.5 3.5t15.5 14t8.5 30t2.5 51.5v525z" />
    <glyph glyph-name="ij" unicode="&#x133;" horiz-adv-x="424" 
d="M30 610v125h152v-125h-152zM157 -50q11 -3 26 -5.5t24 -2.5q21 0 30.5 9t9.5 42v547h140v-550q0 -79 -33.5 -117t-105.5 -38q-23 0 -49 4.5t-42 10.5v100zM240 610v125h152v-125h-152zM36 0v540h140v-540h-140z" />
    <glyph glyph-name="Jcircumflex" unicode="&#x134;" horiz-adv-x="319" 
d="M124 720h150v-518q0 -42 -4.5 -81t-21 -69t-49.5 -48.5t-90 -18.5q-28 0 -54.5 4.5t-44.5 10.5v107q36 -11 64 -11q14 0 23.5 3.5t15.5 14t8.5 30t2.5 51.5v525zM363 768h-125l-38 37l-38 -37h-125l105 117h116z" />
    <glyph glyph-name="jcircumflex" unicode="&#x135;" horiz-adv-x="210" 
d="M-55 -50q11 -3 26 -5.5t24 -2.5q21 0 30.5 9t9.5 42v547h140v-550q0 -79 -33.5 -117t-105.5 -38q-23 0 -49 4.5t-42 10.5v100zM265 598h-122l-41 52l-41 -52h-122l105 137h116z" />
    <glyph glyph-name="Kcommaaccent" unicode="&#x136;" horiz-adv-x="504" 
d="M328 0l-133 297v-297h-150v720h150v-280l117 280h151l-159 -334l197 -386h-173zM315 -152l-59 -101h-70l37 100h-42v120h134v-119z" />
    <glyph glyph-name="kcommaaccent" unicode="&#x137;" horiz-adv-x="404" 
d="M35 0v735h140v-393l71 198h138l-104 -226l124 -314h-154l-75 251v-251h-140zM284 -169l-59 -101h-70l37 100h-42v120h134v-119z" />
    <glyph glyph-name="kgreenlandic" unicode="&#x138;" horiz-adv-x="404" 
d="M35 0v540h140v-198l71 198h138l-104 -226l124 -314h-154l-75 251v-251h-140z" />
    <glyph glyph-name="Lacute" unicode="&#x139;" horiz-adv-x="394" 
d="M195 720v-603h197v-117h-347v720h150zM115 888h152l-122 -117h-110z" />
    <glyph glyph-name="lacute" unicode="&#x13a;" horiz-adv-x="210" 
d="M98 885h152l-122 -117h-110zM35 735h140v-735h-140v735z" />
    <glyph glyph-name="Lcommaaccent" unicode="&#x13b;" horiz-adv-x="394" 
d="M195 720v-603h197v-117h-347v720h150zM289 -169l-59 -101h-70l37 100h-42v120h134v-119z" />
    <glyph glyph-name="lcommaaccent" unicode="&#x13c;" horiz-adv-x="210" 
d="M35 735h140v-735h-140v735zM171 -169l-59 -101h-70l37 100h-42v120h134v-119z" />
    <glyph glyph-name="Lcaron" unicode="&#x13d;" horiz-adv-x="394" 
d="M195 720v-603h197v-117h-347v720h150zM371 601l-59 -101h-70l37 100h-42v120h134v-119z" />
    <glyph glyph-name="lcaron" unicode="&#x13e;" horiz-adv-x="324" 
d="M35 735h140v-735h-140v735zM329 617l-59 -101h-70l37 100h-42v120h134v-119z" />
    <glyph glyph-name="Ldot" unicode="&#x13f;" horiz-adv-x="394" 
d="M195 720v-603h197v-117h-347v720h150zM224 322v125h152v-125h-152z" />
    <glyph glyph-name="ldot" unicode="&#x140;" horiz-adv-x="359" 
d="M209 311v135h145v-135h-145zM35 735h140v-735h-140v735z" />
    <glyph glyph-name="Lslash" unicode="&#x141;" horiz-adv-x="404" 
d="M205 720v-235l100 61v-125l-100 -61v-243h197v-117h-347v268l-45 -27v125l45 27v327h150z" />
    <glyph glyph-name="lslash" unicode="&#x142;" horiz-adv-x="230" 
d="M45 275l-40 -27v120l40 27v340h140v-244l40 27v-120l-40 -27v-371h-140v275z" />
    <glyph glyph-name="Nacute" unicode="&#x143;" horiz-adv-x="521" 
d="M476 720v-720h-188l-118 523v-523h-125v720h201l105 -516v516h125zM271 885h152l-122 -117h-110z" />
    <glyph glyph-name="nacute" unicode="&#x144;" horiz-adv-x="423" 
d="M35 0v540h95l25 -53q23 30 54 49t69 19q28 0 49 -9.5t34.5 -31.5t20 -58t6.5 -88v-368h-140v378q0 43 -8.5 55.5t-29.5 12.5q-15 0 -35 -11v-435h-140zM212 735h152l-127 -137h-105z" />
    <glyph glyph-name="Ncommaaccent" unicode="&#x145;" horiz-adv-x="521" 
d="M476 720v-720h-188l-118 523v-523h-125v720h201l105 -516v516h125zM339 -169l-59 -101h-70l37 100h-42v120h134v-119z" />
    <glyph glyph-name="ncommaaccent" unicode="&#x146;" horiz-adv-x="423" 
d="M35 0v540h95l25 -53q23 30 54 49t69 19q28 0 49 -9.5t34.5 -31.5t20 -58t6.5 -88v-368h-140v378q0 43 -8.5 55.5t-29.5 12.5q-15 0 -35 -11v-435h-140zM278 -169l-59 -101h-70l37 100h-42v120h134v-119z" />
    <glyph glyph-name="Ncaron" unicode="&#x147;" horiz-adv-x="521" 
d="M476 720v-720h-188l-118 523v-523h-125v720h201l105 -516v516h125zM101 885h125l38 -37l38 37h125l-105 -117h-116z" />
    <glyph glyph-name="ncaron" unicode="&#x148;" horiz-adv-x="423" 
d="M35 0v540h95l25 -53q23 30 54 49t69 19q28 0 49 -9.5t34.5 -31.5t20 -58t6.5 -88v-368h-140v378q0 43 -8.5 55.5t-29.5 12.5q-15 0 -35 -11v-435h-140zM273 598h-116l-105 137h122l41 -52l41 52h122z" />
    <glyph glyph-name="napostrophe" unicode="&#x149;" horiz-adv-x="522" 
d="M134 0v540h95l25 -53q23 30 54 49t69 19q28 0 49 -9.5t34.5 -31.5t20 -58t6.5 -88v-368h-140v378q0 43 -8.5 55.5t-29.5 12.5q-15 0 -35 -11v-435h-140zM135 618l-59 -101h-70l37 100h-42v120h134v-119z" />
    <glyph glyph-name="Eng" unicode="&#x14a;" horiz-adv-x="521" 
d="M476 720v-720q0 -43 -4 -76.5t-15 -56.5t-32 -35t-54 -12q-30 0 -56 4.5t-44 10.5v104q27 -7 43 -7q26 0 31 15t5 53h-62l-118 523v-523h-125v720h201l105 -516v516h125z" />
    <glyph glyph-name="eng" unicode="&#x14b;" horiz-adv-x="423" 
d="M388 0q0 -40 -4 -73t-15.5 -57t-32.5 -37t-54 -13q-30 0 -55.5 4.5t-43.5 10.5v98q15 -4 23 -5t16 -1q17 0 21.5 14.5t4.5 58.5v378q0 43 -8.5 55.5t-29.5 12.5q-15 0 -35 -11v-435h-140v540h95l25 -53q23 30 54 49t69 19q28 0 49 -9.5t34.5 -31.5t20 -58t6.5 -88v-368z
" />
    <glyph glyph-name="Omacron" unicode="&#x14c;" horiz-adv-x="489" 
d="M456 360q0 -105 -11.5 -176.5t-36.5 -115.5t-65.5 -63.5t-97.5 -19.5q-62 0 -103 19.5t-65 63.5t-34 115.5t-10 176.5t11.5 176.5t37 115.5t66 63.5t97.5 19.5t97.5 -19.5t65.5 -63.5t36.5 -115.5t11.5 -176.5zM303 360q0 76 -2 127t-8 82t-17.5 44t-30.5 13
q-20 0 -31.5 -13.5t-17.5 -44.5t-8 -82t-2 -126t2 -126t8.5 -82t18 -44t30.5 -13t30.5 13t17.5 43.5t8 81.5t2 127zM109 781v104h270v-104h-270z" />
    <glyph glyph-name="omacron" unicode="&#x14d;" horiz-adv-x="419" 
d="M25 270q0 83 13.5 138t38.5 87.5t58.5 46t74.5 13.5q40 0 74 -13t58.5 -45.5t38 -87.5t13.5 -139t-13.5 -138t-38 -85.5t-58.5 -44t-74 -12.5q-41 0 -74.5 12.5t-58.5 44.5t-38.5 86t-13.5 137zM169 270q0 -57 2 -92.5t7 -56t13 -27.5t20 -7t19.5 7t12 27t6.5 55.5
t2 93.5t-2 94.5t-7 57t-13 28t-19 7.5t-19 -8t-13 -28.5t-7 -57t-2 -93.5zM76 631v104h270v-104h-270z" />
    <glyph glyph-name="Obreve" unicode="&#x14e;" horiz-adv-x="489" 
d="M456 360q0 -105 -11.5 -176.5t-36.5 -115.5t-65.5 -63.5t-97.5 -19.5q-62 0 -103 19.5t-65 63.5t-34 115.5t-10 176.5t11.5 176.5t37 115.5t66 63.5t97.5 19.5t97.5 -19.5t65.5 -63.5t36.5 -115.5t11.5 -176.5zM303 360q0 76 -2 127t-8 82t-17.5 44t-30.5 13
q-20 0 -31.5 -13.5t-17.5 -44.5t-8 -82t-2 -126t2 -126t8.5 -82t18 -44t30.5 -13t30.5 13t17.5 43.5t8 81.5t2 127zM249 756q-25 0 -50.5 7t-46.5 22t-35.5 39.5t-17.5 60.5h119q2 -26 9.5 -36t21.5 -10t21.5 10t9.5 36h119q-3 -36 -17.5 -60.5t-35.5 -39.5t-46.5 -22
t-50.5 -7z" />
    <glyph glyph-name="obreve" unicode="&#x14f;" horiz-adv-x="419" 
d="M25 270q0 83 13.5 138t38.5 87.5t58.5 46t74.5 13.5q40 0 74 -13t58.5 -45.5t38 -87.5t13.5 -139t-13.5 -138t-38 -85.5t-58.5 -44t-74 -12.5q-41 0 -74.5 12.5t-58.5 44.5t-38.5 86t-13.5 137zM169 270q0 -57 2 -92.5t7 -56t13 -27.5t20 -7t19.5 7t12 27t6.5 55.5
t2 93.5t-2 94.5t-7 57t-13 28t-19 7.5t-19 -8t-13 -28.5t-7 -57t-2 -93.5zM210 591q-27 0 -53 7.5t-46.5 25t-34 45t-16.5 66.5h119q2 -33 9.5 -47t21.5 -14t21.5 14t9.5 47h119q-3 -39 -16.5 -66.5t-34 -45t-46.5 -25t-53 -7.5z" />
    <glyph glyph-name="Ohungarumlaut" unicode="&#x150;" horiz-adv-x="489" 
d="M456 360q0 -105 -11.5 -176.5t-36.5 -115.5t-65.5 -63.5t-97.5 -19.5q-62 0 -103 19.5t-65 63.5t-34 115.5t-10 176.5t11.5 176.5t37 115.5t66 63.5t97.5 19.5t97.5 -19.5t65.5 -63.5t36.5 -115.5t11.5 -176.5zM303 360q0 76 -2 127t-8 82t-17.5 44t-30.5 13
q-20 0 -31.5 -13.5t-17.5 -44.5t-8 -82t-2 -126t2 -126t8.5 -82t18 -44t30.5 -13t30.5 13t17.5 43.5t8 81.5t2 127zM171 885h152l-125 -117h-107zM349 885h152l-125 -117h-107z" />
    <glyph glyph-name="ohungarumlaut" unicode="&#x151;" horiz-adv-x="419" 
d="M25 270q0 83 13.5 138t38.5 87.5t58.5 46t74.5 13.5q40 0 74 -13t58.5 -45.5t38 -87.5t13.5 -139t-13.5 -138t-38 -85.5t-58.5 -44t-74 -12.5q-41 0 -74.5 12.5t-58.5 44.5t-38.5 86t-13.5 137zM169 270q0 -57 2 -92.5t7 -56t13 -27.5t20 -7t19.5 7t12 27t6.5 55.5
t2 93.5t-2 94.5t-7 57t-13 28t-19 7.5t-19 -8t-13 -28.5t-7 -57t-2 -93.5zM139 735h142l-127 -137h-95zM307 735h142l-127 -137h-95z" />
    <glyph glyph-name="OE" unicode="&#x152;" horiz-adv-x="653" 
d="M596 309h-151q-1 -63 -5.5 -111.5t-15.5 -84.5h202v-113h-290q-38 -15 -92 -15q-57 0 -97.5 19.5t-65.5 63.5t-36.5 115.5t-11.5 176.5t11.5 176.5t36.5 115.5t65.5 63.5t97.5 19.5q49 0 87 -15h295v-115h-205q11 -35 16.5 -81.5t7.5 -106.5h151v-108zM186 360
q0 -76 2 -127t8 -81.5t17.5 -43.5t30.5 -13t30.5 13t18 44t8.5 82t2 126t-2 126t-8 82t-18 44.5t-31 13.5q-20 0 -31.5 -13t-17.5 -44t-7.5 -82t-1.5 -127z" />
    <glyph glyph-name="oe" unicode="&#x153;" horiz-adv-x="604" 
d="M416 91q16 0 23.5 17.5t10.5 49.5l128 -20q-3 -23 -13 -48.5t-29.5 -48t-49.5 -37t-73 -14.5q-32 0 -60 13t-39 34q-15 -22 -43.5 -34.5t-60.5 -12.5q-44 0 -78.5 12.5t-58 44.5t-36 86t-12.5 137t12.5 138t36 87.5t58 46t78.5 13.5q31 0 59 -12.5t42 -34.5
q15 22 41 34.5t59 12.5q60 0 93.5 -22.5t50 -64.5t20.5 -102.5t4 -136.5h-201q1 -45 3.5 -72.5t7 -42t11.5 -19t16 -4.5zM169 270q0 -57 2 -92.5t7 -56t13 -27.5t20 -7t19.5 7t12 27t6.5 55.5t2 93.5t-2 94.5t-7 57t-13 28t-19 7.5t-19 -8t-13 -28.5t-7 -57t-2 -93.5z
M415 465q-10 0 -17 -5t-11.5 -20t-6.5 -43.5t-2 -75.5h73q0 46 -2 74.5t-6.5 44t-11 20.5t-16.5 5z" />
    <glyph glyph-name="Racute" unicode="&#x154;" horiz-adv-x="484" 
d="M312 0l-103 267h-14v-267h-150v720h158q57 0 101.5 -11.5t75 -38t46 -69.5t15.5 -107q0 -76 -26 -121.5t-74 -71.5l138 -301h-167zM195 612v-238h16q37 0 55.5 25.5t18.5 94.5q0 37 -4.5 60.5t-14 36t-25 17t-36.5 4.5h-10zM206 885h152l-122 -117h-110z" />
    <glyph glyph-name="racute" unicode="&#x155;" horiz-adv-x="287" 
d="M35 0v540h95l26 -68q15 36 37.5 57t52.5 21q19 0 31 -4v-137q-9 4 -18 6t-23 2q-20 0 -35 -11.5t-26 -29.5v-376h-140zM181 735h152l-127 -137h-105z" />
    <glyph glyph-name="Rcommaaccent" unicode="&#x156;" horiz-adv-x="484" 
d="M312 0l-103 267h-14v-267h-150v720h158q57 0 101.5 -11.5t75 -38t46 -69.5t15.5 -107q0 -76 -26 -121.5t-74 -71.5l138 -301h-167zM195 612v-238h16q37 0 55.5 25.5t18.5 94.5q0 37 -4.5 60.5t-14 36t-25 17t-36.5 4.5h-10zM322 -153l-59 -101h-70l37 100h-42v120h134
v-119z" />
    <glyph glyph-name="rcommaaccent" unicode="&#x157;" horiz-adv-x="287" 
d="M35 0v540h95l26 -68q15 36 37.5 57t52.5 21q19 0 31 -4v-137q-9 4 -18 6t-23 2q-20 0 -35 -11.5t-26 -29.5v-376h-140zM171 -169l-59 -101h-70l37 100h-42v120h134v-119z" />
    <glyph glyph-name="Rcaron" unicode="&#x158;" horiz-adv-x="484" 
d="M312 0l-103 267h-14v-267h-150v720h158q57 0 101.5 -11.5t75 -38t46 -69.5t15.5 -107q0 -76 -26 -121.5t-74 -71.5l138 -301h-167zM195 612v-238h16q37 0 55.5 25.5t18.5 94.5q0 37 -4.5 60.5t-14 36t-25 17t-36.5 4.5h-10zM57 885h125l38 -37l38 37h125l-105 -117h-116z
" />
    <glyph glyph-name="rcaron" unicode="&#x159;" horiz-adv-x="287" 
d="M68 0v540h95l26 -68q15 36 37.5 57t52.5 21q19 0 31 -4v-137q-9 4 -18 6t-23 2q-20 0 -35 -11.5t-26 -29.5v-376h-140zM256 598h-116l-105 137h122l41 -52l41 52h122z" />
    <glyph glyph-name="Sacute" unicode="&#x15a;" horiz-adv-x="426" 
d="M211 626q-20 0 -32 -17t-12 -53q0 -18 3.5 -33t15 -30t32.5 -30t56 -33q34 -18 58 -39.5t39.5 -49t22.5 -63t7 -81.5q0 -100 -48.5 -156t-145.5 -56q-52 0 -87 17.5t-57 44.5t-33 58.5t-15 59.5l141 20q2 -36 13.5 -63t38.5 -27q19 0 31.5 18t12.5 70q0 27 -4 45t-16 33
t-33 29.5t-54 33.5q-60 34 -92.5 82.5t-32.5 126.5q0 44 13 81t37.5 64t60.5 42t82 15q48 0 81 -16t54.5 -41t33 -55.5t16.5 -58.5l-139 -25q-5 38 -14 62.5t-34 24.5zM212 885h152l-122 -117h-110z" />
    <glyph glyph-name="sacute" unicode="&#x15b;" horiz-adv-x="373" 
d="M183 -10q-41 0 -71 12.5t-50.5 32t-33 43t-18.5 45.5l135 27q2 -26 11.5 -43.5t27.5 -17.5q17 0 25 14.5t8 39.5q0 17 -4.5 28.5t-15.5 20.5t-29 18.5t-45 22.5q-49 23 -76 61t-27 98q0 41 13 71.5t35.5 51t54 30.5t67.5 10q45 0 74 -12.5t47.5 -32t28.5 -42t16 -43.5
l-131 -26q-2 26 -8.5 42t-23.5 16q-33 0 -33 -49q0 -23 15 -39t57 -33q26 -11 49 -25t40 -33.5t27 -46.5t10 -64q0 -84 -43.5 -130.5t-131.5 -46.5zM190 735h152l-127 -137h-105z" />
    <glyph glyph-name="Scircumflex" unicode="&#x15c;" horiz-adv-x="426" 
d="M211 626q-20 0 -32 -17t-12 -53q0 -18 3.5 -33t15 -30t32.5 -30t56 -33q34 -18 58 -39.5t39.5 -49t22.5 -63t7 -81.5q0 -100 -48.5 -156t-145.5 -56q-52 0 -87 17.5t-57 44.5t-33 58.5t-15 59.5l141 20q2 -36 13.5 -63t38.5 -27q19 0 31.5 18t12.5 70q0 27 -4 45t-16 33
t-33 29.5t-54 33.5q-60 34 -92.5 82.5t-32.5 126.5q0 44 13 81t37.5 64t60.5 42t82 15q48 0 81 -16t54.5 -41t33 -55.5t16.5 -58.5l-139 -25q-5 38 -14 62.5t-34 24.5zM376 765h-125l-38 37l-38 -37h-125l105 117h116z" />
    <glyph glyph-name="scircumflex" unicode="&#x15d;" horiz-adv-x="373" 
d="M183 -10q-41 0 -71 12.5t-50.5 32t-33 43t-18.5 45.5l135 27q2 -26 11.5 -43.5t27.5 -17.5q17 0 25 14.5t8 39.5q0 17 -4.5 28.5t-15.5 20.5t-29 18.5t-45 22.5q-49 23 -76 61t-27 98q0 41 13 71.5t35.5 51t54 30.5t67.5 10q45 0 74 -12.5t47.5 -32t28.5 -42t16 -43.5
l-131 -26q-2 26 -8.5 42t-23.5 16q-33 0 -33 -49q0 -23 15 -39t57 -33q26 -11 49 -25t40 -33.5t27 -46.5t10 -64q0 -84 -43.5 -130.5t-131.5 -46.5zM356 598h-122l-41 52l-41 -52h-122l105 137h116z" />
    <glyph glyph-name="Scedilla" unicode="&#x15e;" horiz-adv-x="426" 
d="M317 -142q0 -51 -32 -81t-99 -30q-31 0 -59.5 8.5t-51.5 23.5l37 71q9 -6 23.5 -11.5t32.5 -5.5q23 0 31.5 9.5t8.5 21.5q0 20 -17 29t-53 13l21 84q-38 7 -64 26t-43 44t-25.5 52.5t-11.5 52.5l141 20q2 -36 13.5 -63t38.5 -27q19 0 31.5 18t12.5 70q0 27 -4 45t-16 33
t-33 29.5t-54 33.5q-60 34 -92.5 82.5t-32.5 126.5q0 44 13 81t37.5 64t60.5 42t82 15q48 0 81 -16t54.5 -41t33 -55.5t16.5 -58.5l-139 -25q-5 38 -14 62.5t-34 24.5q-20 0 -32 -17t-12 -53q0 -18 3.5 -33t15 -30t32.5 -30t56 -33q34 -18 58 -39.5t39.5 -49t22.5 -63
t7 -81.5q0 -88 -38.5 -142.5t-114.5 -66.5l-4 -39q38 -11 55.5 -36.5t17.5 -54.5z" />
    <glyph glyph-name="scedilla" unicode="&#x15f;" horiz-adv-x="373" 
d="M307 -132q0 -51 -33 -81t-96 -30q-31 0 -59.5 8.5t-51.5 23.5l37 68q9 -6 23.5 -11.5t32.5 -5.5q23 0 33 11t10 23q0 38 -73 45l19 74q-32 5 -56 18.5t-41 31.5t-27 39t-15 41l135 27q2 -26 11.5 -43.5t27.5 -17.5q17 0 25 14.5t8 39.5q0 17 -4.5 28.5t-15.5 20.5
t-29 18.5t-45 22.5q-49 23 -76 61t-27 98q0 41 13 71.5t35.5 51t54 30.5t67.5 10q45 0 74 -12.5t47.5 -32t28.5 -42t16 -43.5l-131 -26q-2 26 -8.5 42t-23.5 16q-33 0 -33 -49q0 -23 15 -39t57 -33q26 -11 49 -25t40 -33.5t27 -46.5t10 -64q0 -69 -29.5 -113t-89.5 -58
l-4 -37q38 -11 55 -36.5t17 -54.5z" />
    <glyph glyph-name="Scaron" unicode="&#x160;" horiz-adv-x="426" 
d="M211 626q-20 0 -32 -17t-12 -53q0 -18 3.5 -33t15 -30t32.5 -30t56 -33q34 -18 58 -39.5t39.5 -49t22.5 -63t7 -81.5q0 -100 -48.5 -156t-145.5 -56q-52 0 -87 17.5t-57 44.5t-33 58.5t-15 59.5l141 20q2 -36 13.5 -63t38.5 -27q19 0 31.5 18t12.5 70q0 27 -4 45t-16 33
t-33 29.5t-54 33.5q-60 34 -92.5 82.5t-32.5 126.5q0 44 13 81t37.5 64t60.5 42t82 15q48 0 81 -16t54.5 -41t33 -55.5t16.5 -58.5l-139 -25q-5 38 -14 62.5t-34 24.5zM48 885h125l38 -37l38 37h125l-105 -117h-116z" />
    <glyph glyph-name="scaron" unicode="&#x161;" horiz-adv-x="373" 
d="M183 -10q-41 0 -71 12.5t-50.5 32t-33 43t-18.5 45.5l135 27q2 -26 11.5 -43.5t27.5 -17.5q17 0 25 14.5t8 39.5q0 17 -4.5 28.5t-15.5 20.5t-29 18.5t-45 22.5q-49 23 -76 61t-27 98q0 41 13 71.5t35.5 51t54 30.5t67.5 10q45 0 74 -12.5t47.5 -32t28.5 -42t16 -43.5
l-131 -26q-2 26 -8.5 42t-23.5 16q-33 0 -33 -49q0 -23 15 -39t57 -33q26 -11 49 -25t40 -33.5t27 -46.5t10 -64q0 -84 -43.5 -130.5t-131.5 -46.5zM251 598h-116l-105 137h122l41 -52l41 52h122z" />
    <glyph glyph-name="Tcommaaccent" unicode="&#x162;" horiz-adv-x="400" 
d="M395 603h-121v-603h-150v603h-119v117h390v-117zM265 -169l-59 -101h-70l37 100h-42v120h134v-119z" />
    <glyph glyph-name="tcommaaccent" unicode="&#x163;" horiz-adv-x="273" 
d="M267 5q-19 -6 -40.5 -9t-40.5 -3q-69 0 -101.5 35.5t-32.5 120.5v291h-52v100h53l9 130h130v-130h76v-100h-76v-296q0 -32 7.5 -40t25.5 -8q11 0 22.5 2t19.5 4v-97zM229 -169l-59 -101h-70l37 100h-42v120h134v-119z" />
    <glyph glyph-name="Tcaron" unicode="&#x164;" horiz-adv-x="400" 
d="M395 603h-121v-603h-150v603h-119v117h390v-117zM34 885h125l38 -37l38 37h125l-105 -117h-116z" />
    <glyph glyph-name="tcaron" unicode="&#x165;" horiz-adv-x="378" 
d="M267 5q-19 -6 -40.5 -9t-40.5 -3q-69 0 -101.5 35.5t-32.5 120.5v291h-52v100h53l9 130h130v-130h76v-100h-76v-296q0 -32 7.5 -40t25.5 -8q11 0 22.5 2t19.5 4v-97zM408 618l-59 -101h-70l37 100h-42v120h134v-119z" />
    <glyph glyph-name="Tbar" unicode="&#x166;" 
d="M405 603h-121v-157h70v-95h-70v-351h-150v351h-70v95h70v157h-119v117h390v-117z" />
    <glyph glyph-name="tbar" unicode="&#x167;" horiz-adv-x="283" 
d="M197 440v-40h76v-90h-76v-166q0 -32 7.5 -40t25.5 -8q11 0 22.5 2t19.5 4v-97q-19 -6 -40.5 -9t-40.5 -3q-69 0 -101.5 35.5t-32.5 120.5v161h-52v90h52v40h-52v100h53l9 130h130v-130h76v-100h-76z" />
    <glyph glyph-name="Utilde" unicode="&#x168;" horiz-adv-x="477" 
d="M195 720v-502q0 -37 2.5 -61t7.5 -37.5t14 -19t22 -5.5t22 5.5t14.5 19t8 37.5t2.5 61v502h144v-493q0 -59 -9 -104t-31 -75.5t-59 -46.5t-93 -16t-93.5 16t-60 46.5t-32 75.5t-9.5 104v493h150zM303 765q-24 0 -41 6t-31 13t-27.5 13t-30.5 6q-33 0 -78 -36v95
q22 16 41.5 24.5t40.5 8.5q24 0 41 -6t31 -13t27.5 -13t30.5 -6q33 0 78 36v-95q-22 -16 -41.5 -24.5t-40.5 -8.5z" />
    <glyph glyph-name="utilde" unicode="&#x169;" 
d="M175 540v-373q0 -22 1.5 -35t5.5 -20.5t10.5 -10t16.5 -2.5q12 0 36 11v430h140v-540h-105l-19 51q-20 -27 -46.5 -44t-60.5 -17q-63 0 -91 41t-28 137v372h140zM274 610q-24 0 -41 6t-31 13t-27.5 13t-30.5 6q-33 0 -78 -36v100q22 16 41.5 24.5t40.5 8.5q24 0 41 -6
t31 -13t27.5 -13t30.5 -6q33 0 78 36v-100q-22 -16 -41.5 -24.5t-40.5 -8.5z" />
    <glyph glyph-name="Umacron" unicode="&#x16a;" horiz-adv-x="477" 
d="M195 720v-502q0 -37 2.5 -61t7.5 -37.5t14 -19t22 -5.5t22 5.5t14.5 19t8 37.5t2.5 61v502h144v-493q0 -59 -9 -104t-31 -75.5t-59 -46.5t-93 -16t-93.5 16t-60 46.5t-32 75.5t-9.5 104v493h150zM104 781v104h270v-104h-270z" />
    <glyph glyph-name="umacron" unicode="&#x16b;" 
d="M175 540v-373q0 -22 1.5 -35t5.5 -20.5t10.5 -10t16.5 -2.5q12 0 36 11v430h140v-540h-105l-19 51q-20 -27 -46.5 -44t-60.5 -17q-63 0 -91 41t-28 137v372h140zM77 631v104h270v-104h-270z" />
    <glyph glyph-name="Ubreve" unicode="&#x16c;" horiz-adv-x="477" 
d="M195 720v-502q0 -37 2.5 -61t7.5 -37.5t14 -19t22 -5.5t22 5.5t14.5 19t8 37.5t2.5 61v502h144v-493q0 -59 -9 -104t-31 -75.5t-59 -46.5t-93 -16t-93.5 16t-60 46.5t-32 75.5t-9.5 104v493h150zM239 756q-25 0 -50.5 7t-46.5 22t-35.5 39.5t-17.5 60.5h119
q2 -26 9.5 -36t21.5 -10t21.5 10t9.5 36h119q-3 -36 -17.5 -60.5t-35.5 -39.5t-46.5 -22t-50.5 -7z" />
    <glyph glyph-name="ubreve" unicode="&#x16d;" 
d="M175 540v-373q0 -22 1.5 -35t5.5 -20.5t10.5 -10t16.5 -2.5q12 0 36 11v430h140v-540h-105l-19 51q-20 -27 -46.5 -44t-60.5 -17q-63 0 -91 41t-28 137v372h140zM209 591q-27 0 -53 7.5t-46.5 25t-34 45t-16.5 66.5h119q2 -33 9.5 -47t21.5 -14t21.5 14t9.5 47h119
q-3 -39 -16.5 -66.5t-34 -45t-46.5 -25t-53 -7.5z" />
    <glyph glyph-name="Uring" unicode="&#x16e;" horiz-adv-x="477" 
d="M195 690v-472q0 -37 2.5 -61t7.5 -37.5t14 -19t22 -5.5t22 5.5t14.5 19t8 37.5t2.5 61v472h144v-463q0 -59 -9 -104t-31 -75.5t-59 -46.5t-93 -16t-93.5 16t-60 46.5t-32 75.5t-9.5 104v463h150zM110 841q0 57 32.5 88t95.5 31t95 -31t32 -88t-35.5 -87t-96.5 -30t-92 30
t-31 87zM208 841q0 -46 30 -46t30 46q0 48 -30 48t-30 -48z" />
    <glyph glyph-name="uring" unicode="&#x16f;" 
d="M175 540v-373q0 -22 1.5 -35t5.5 -20.5t10.5 -10t16.5 -2.5q12 0 36 11v430h140v-540h-105l-19 51q-20 -27 -46.5 -44t-60.5 -17q-63 0 -91 41t-28 137v372h140zM81 691q0 57 32.5 88t95.5 31t95.5 -31t32.5 -88t-33.5 -87t-94.5 -30t-94.5 30t-33.5 87zM179 691
q0 -46 30 -46t30 46q0 48 -30 48t-30 -48z" />
    <glyph glyph-name="Uhungarumlaut" unicode="&#x170;" horiz-adv-x="477" 
d="M195 720v-502q0 -37 2.5 -61t7.5 -37.5t14 -19t22 -5.5t22 5.5t14.5 19t8 37.5t2.5 61v502h144v-493q0 -59 -9 -104t-31 -75.5t-59 -46.5t-93 -16t-93.5 16t-60 46.5t-32 75.5t-9.5 104v493h150zM145 885h152l-125 -117h-107zM323 885h152l-125 -117h-107z" />
    <glyph glyph-name="uhungarumlaut" unicode="&#x171;" 
d="M175 540v-373q0 -22 1.5 -35t5.5 -20.5t10.5 -10t16.5 -2.5q12 0 36 11v430h140v-540h-105l-19 51q-20 -27 -46.5 -44t-60.5 -17q-63 0 -91 41t-28 137v372h140zM135 735h142l-127 -137h-95zM303 735h142l-127 -137h-95z" />
    <glyph glyph-name="Uogonek" unicode="&#x172;" horiz-adv-x="477" 
d="M413 -212q-26 -14 -50.5 -21t-53.5 -7q-69 0 -104 33.5t-35 93.5q0 29 13 54t33 45q-49 4 -82 21.5t-52.5 48t-28 73.5t-8.5 98v493h150v-502q0 -37 2.5 -61t7.5 -37.5t14 -19t22 -5.5t22 5.5t14.5 19t8 37.5t2.5 61v502h144v-493q0 -88 -21.5 -145.5t-77.5 -80.5
q-22 -23 -34 -47.5t-12 -51.5q0 -22 13.5 -33t33.5 -11q19 0 58 14z" />
    <glyph glyph-name="uogonek" unicode="&#x173;" 
d="M175 540v-373q0 -22 1.5 -35t5.5 -20.5t10.5 -10t16.5 -2.5q12 0 36 11v430h140v-540q-7 -4 -19.5 -12.5t-24.5 -21t-21 -29t-9 -36.5q0 -22 12.5 -34.5t32.5 -12.5t59 14l21 -80q-26 -14 -49.5 -21t-52.5 -7q-69 0 -103.5 33.5t-34.5 93.5q0 17 7 35.5t18 35.5t26 31
t31 23l-17 39q-20 -27 -46.5 -44t-60.5 -17q-63 0 -91 41t-28 137v372h140z" />
    <glyph glyph-name="Wcircumflex" unicode="&#x174;" horiz-adv-x="638" 
d="M628 720l-77 -720h-186l-47 595l-49 -595h-182l-77 720h143l37 -590l49 590h167l47 -588l43 588h132zM480 764h-125l-38 37l-38 -37h-125l105 117h116z" />
    <glyph glyph-name="wcircumflex" unicode="&#x175;" horiz-adv-x="584" 
d="M577 540l-86 -540h-157l-41 410l-55 -410h-159l-72 540h142l20 -439l56 439h145l46 -438l32 438h129zM456 598h-122l-41 52l-41 -52h-122l105 137h116z" />
    <glyph glyph-name="Ycircumflex" unicode="&#x176;" horiz-adv-x="452" 
d="M452 720l-154 -432v-288h-144v288l-154 432h162l68 -287l82 287h140zM393 768h-125l-38 37l-38 -37h-125l105 117h116z" />
    <glyph glyph-name="ycircumflex" unicode="&#x177;" horiz-adv-x="401" 
d="M282 -15q-17 -81 -56 -115.5t-99 -34.5q-37 0 -70 11v100q29 -8 49 -8t34 13.5t19 48.5h-46l-113 540h153l46 -428l63 428h139zM362 598h-122l-41 52l-41 -52h-122l105 137h116z" />
    <glyph glyph-name="Ydieresis" unicode="&#x178;" horiz-adv-x="452" 
d="M452 720l-154 -432v-288h-144v288l-154 432h162l68 -287l82 287h140zM70 773v102h130v-102h-130zM259 773v102h130v-102h-130z" />
    <glyph glyph-name="Zacute" unicode="&#x179;" horiz-adv-x="400" 
d="M163 109h217v-109h-370v117l226 494h-203v109h357v-114zM210 885h152l-122 -117h-110z" />
    <glyph glyph-name="zacute" unicode="&#x17a;" horiz-adv-x="346" 
d="M159 106h162v-106h-311v117l176 317h-157v106h302v-117zM175 735h152l-127 -137h-105z" />
    <glyph glyph-name="Zdotaccent" unicode="&#x17b;" horiz-adv-x="400" 
d="M163 109h217v-109h-370v117l226 494h-203v109h357v-114zM142 770v115h152v-115h-152z" />
    <glyph glyph-name="zdotaccent" unicode="&#x17c;" horiz-adv-x="346" 
d="M159 106h162v-106h-311v117l176 317h-157v106h302v-117zM113 610v125h152v-125h-152z" />
    <glyph glyph-name="Zcaron" horiz-adv-x="400" 
d="M163 109h217v-109h-370v117l226 494h-203v109h357v-114zM52 883h125l38 -37l38 37h125l-105 -117h-116z" />
    <glyph glyph-name="Zcaron" unicode="&#x17d;" horiz-adv-x="400" 
d="M163 109h217v-109h-370v117l226 494h-203v109h357v-114zM52 883h125l38 -37l38 37h125l-105 -117h-116z" />
    <glyph glyph-name="zcaron" horiz-adv-x="346" 
d="M159 106h162v-106h-311v117l176 317h-157v106h302v-117zM245 598h-116l-105 137h122l41 -52l41 52h122z" />
    <glyph glyph-name="zcaron" unicode="&#x17e;" horiz-adv-x="346" 
d="M159 106h162v-106h-311v117l176 317h-157v106h302v-117zM245 598h-116l-105 137h122l41 -52l41 52h122z" />
    <glyph glyph-name="longs" unicode="&#x17f;" horiz-adv-x="247" 
d="M292 629q-15 5 -30 7.5t-27 2.5q-26 0 -35.5 -10.5t-9.5 -42.5v-586h-140v440h-50v100h50v40q0 47 10.5 79t29 51t45.5 27t60 8q34 0 57.5 -5t39.5 -10v-101z" />
    <glyph glyph-name="florin" unicode="&#x192;" horiz-adv-x="262" 
d="M292 629q-15 5 -30 7.5t-27 2.5q-26 0 -35.5 -10.5t-9.5 -42.5v-46h81v-100h-81v-445q0 -47 -10.5 -79t-29 -51t-45.5 -27t-60 -8q-34 0 -57.5 5t-39.5 10v101q15 -5 30 -7.5t27 -2.5q26 0 35.5 10.5t9.5 42.5v451h-50v100h50v40q0 47 10.5 79t29 51t45.5 27t60 8
q34 0 57.5 -5t39.5 -10v-101z" />
    <glyph glyph-name="Ohorn" unicode="&#x1a0;" horiz-adv-x="567" 
d="M572 681q0 -33 -11 -60t-29 -48t-40 -36.5t-44 -25.5q4 -32 6 -69t2 -82q0 -105 -11.5 -176.5t-36.5 -115.5t-65.5 -63.5t-97.5 -19.5q-62 0 -103 19.5t-65 63.5t-34 115.5t-10 176.5t11.5 176.5t37 115.5t66 63.5t97.5 19.5q73 0 118 -32t68 -107q10 13 14.5 32.5
t4.5 51.5v75h122v-74zM303 360q0 76 -2 127t-8 82t-17.5 44t-30.5 13q-20 0 -31.5 -13.5t-17.5 -44.5t-8 -82t-2 -126t2 -126t8.5 -82t18 -44t30.5 -13t30.5 13t17.5 43.5t8 81.5t2 127z" />
    <glyph glyph-name="ohorn" unicode="&#x1a1;" horiz-adv-x="509" 
d="M514 491q0 -33 -11 -59.5t-28.5 -46.5t-39 -34.5t-43.5 -23.5q1 -14 1.5 -28t0.5 -29q0 -84 -13.5 -138t-38 -85.5t-58.5 -44t-74 -12.5q-41 0 -74.5 12.5t-58.5 44.5t-38.5 86t-13.5 137t13.5 138t38.5 87.5t58.5 46t74.5 13.5q30 0 56.5 -7t48.5 -24t38.5 -45t26.5 -70
q10 13 15 32t5 49v75h114v-74zM169 270q0 -57 2 -92.5t7 -56t13 -27.5t20 -7t19.5 7t12 27t6.5 55.5t2 93.5t-2 94.5t-7 57t-13 28t-19 7.5t-19 -8t-13 -28.5t-7 -57t-2 -93.5z" />
    <glyph glyph-name="Uhorn" unicode="&#x1af;" horiz-adv-x="581" 
d="M586 681q0 -39 -15 -69.5t-38 -53t-50 -37.5t-51 -22v-272q0 -59 -9 -104t-31 -75.5t-59 -46.5t-93 -16t-93.5 16t-60 46.5t-32 75.5t-9.5 104v493h150v-502q0 -37 2.5 -61t7.5 -37.5t14 -19t22 -5.5t22 5.5t14.5 19t8 37.5t2.5 61v502h144v-137q17 13 24.5 34t7.5 63v75
h122v-74z" />
    <glyph glyph-name="uhorn" unicode="&#x1b0;" horiz-adv-x="529" 
d="M385 540v-146q17 13 26 34.5t9 61.5v75h114v-74q0 -39 -14.5 -68t-36.5 -50t-48 -34.5t-50 -20.5v-318h-105l-19 51q-20 -27 -46.5 -44t-60.5 -17q-63 0 -91 41t-28 137v372h140v-373q0 -22 1.5 -35t5.5 -20.5t10.5 -10t16.5 -2.5q12 0 36 11v430h140z" />
    <glyph glyph-name="AEacute" unicode="&#x1fc;" horiz-adv-x="643" 
d="M576 309h-147l21 -196h166v-113h-295l-15 167h-127l-36 -167h-141l194 720h404v-115h-204l21 -188h159v-108zM201 269h96l-28 316zM354 885h152l-122 -117h-110z" />
    <glyph glyph-name="aeacute" unicode="&#x1fd;" horiz-adv-x="592" 
d="M404 91q16 0 23.5 17.5t10.5 49.5l128 -20q-3 -23 -13 -48.5t-29.5 -48t-49.5 -37t-73 -14.5q-51 0 -80.5 18t-45.5 60q-14 -35 -49 -55.5t-89 -20.5q-29 0 -52 8.5t-38.5 27.5t-23.5 50t-8 75q0 36 7 66.5t24.5 53.5t46.5 37.5t74 19.5l58 6v55q0 39 -6 54t-21 15
t-21 -18t-8 -48l-135 20q5 22 15.5 47t30 46t50.5 34.5t78 13.5q31 0 56 -10t44 -27q34 37 91 37q60 0 93.5 -22.5t50 -63t20.5 -98t4 -127.5h-203q0 -50 2.5 -80.5t8 -46.5t13 -21t16.5 -5zM192 91q7 0 16 3t17 11v149l-25 -3q-23 -3 -33 -20.5t-10 -59.5q0 -26 2.5 -42
t7 -24.5t11 -11t14.5 -2.5zM403 465q-10 0 -17 -4.5t-11.5 -18.5t-7 -39.5t-3.5 -68.5h75q0 43 -2 68.5t-6.5 39.5t-11 18.5t-16.5 4.5zM329 735h152l-127 -137h-105z" />
    <glyph glyph-name="Oslashacute" unicode="&#x1fe;" horiz-adv-x="489" 
d="M456 360q0 -105 -11.5 -176.5t-36.5 -115.5t-65.5 -63.5t-97.5 -19.5q-18 0 -34 2t-30 5l-29 -94h-85l39 131q-41 39 -57 119t-16 212q0 105 11.5 176.5t37 115.5t66 63.5t97.5 19.5q44 0 74 -10l29 95h85l-42 -143q35 -42 50 -119t15 -198zM186 360v-86q0 -12 1 -23
l93 356q-12 19 -35 19q-20 0 -31.5 -13.5t-17.5 -44.5t-8 -82t-2 -126zM233 885h152l-122 -117h-110zM303 360v67q0 11 -1 21l-89 -339q11 -14 32 -14q19 0 30.5 13t17.5 43.5t8 81.5t2 127z" />
    <glyph glyph-name="oslashacute" unicode="&#x1ff;" horiz-adv-x="419" 
d="M25 270q0 83 13.5 138t38.5 87.5t58.5 46t74.5 13.5q16 0 30 -1.5t28 -6.5l26 86h82l-38 -131q26 -32 41 -88t15 -144q0 -84 -13.5 -138t-38 -85.5t-58.5 -44t-74 -12.5q-27 0 -42 4l-29 -96h-82l38 129q-33 29 -51.5 86.5t-18.5 156.5zM201 735h152l-127 -137h-105z
M169 270v-56q0 -8 1 -16l68 236q-5 13 -12 18t-16 5q-11 0 -19 -8t-13 -28.5t-7 -57t-2 -93.5zM211 87q12 0 19.5 7t12 27t6.5 55.5t2 93.5v30l-60 -206q7 -7 20 -7z" />
    <glyph glyph-name="Scommaaccent" unicode="&#x218;" horiz-adv-x="426" 
d="M211 626q-20 0 -32 -17t-12 -53q0 -18 3.5 -33t15 -30t32.5 -30t56 -33q34 -18 58 -39.5t39.5 -49t22.5 -63t7 -81.5q-1 -100 -49 -156t-145 -56q-52 0 -87 17.5t-57 44.5t-33 58.5t-15 59.5l141 20q2 -36 13.5 -63t38.5 -27q19 0 31.5 18t12.5 70q0 27 -4 45t-16 33
t-33 29.5t-54 33.5q-60 34 -92.5 82.5t-32.5 126.5q0 44 13 81t37.5 64t60.5 42t82 15q48 0 81 -16t54.5 -41t33 -55.5t16.5 -58.5l-139 -25q-5 38 -14 62.5t-34 24.5zM275 -174l-59 -101h-70l37 100h-42v120h134v-119z" />
    <glyph glyph-name="scommaaccent" unicode="&#x219;" horiz-adv-x="373" 
d="M183 -10q-41 0 -71 12.5t-50.5 32t-33 43t-18.5 45.5l135 27q2 -26 11.5 -43.5t27.5 -17.5q17 0 25 14.5t8 39.5q0 17 -4.5 28.5t-15.5 20.5t-29 18.5t-45 22.5q-49 23 -76 61t-27 98q0 41 13 71.5t35.5 51t54 30.5t67.5 10q45 0 74 -12.5t47.5 -32t28.5 -42t16 -43.5
l-131 -26q-2 26 -8.5 42t-23.5 16q-33 0 -33 -49q0 -23 15 -39t57 -33q26 -11 49 -25t40 -33.5t27 -46.5t10 -64q0 -84 -43.5 -130.5t-131.5 -46.5zM254 -169l-59 -101h-70l37 100h-42v120h134v-119z" />
    <glyph glyph-name="uni021A" unicode="&#x21a;" horiz-adv-x="400" 
d="M395 603h-121v-603h-150v603h-119v117h390v-117zM265 -169l-59 -101h-70l37 100h-42v120h134v-119z" />
    <glyph glyph-name="uni021B" unicode="&#x21b;" horiz-adv-x="273" 
d="M267 5q-19 -6 -40.5 -9t-40.5 -3q-69 0 -101.5 35.5t-32.5 120.5v291h-52v100h53l9 130h130v-130h76v-100h-76v-296q0 -32 7.5 -40t25.5 -8q11 0 22.5 2t19.5 4v-97zM229 -169l-59 -101h-70l37 100h-42v120h134v-119z" />
    <glyph glyph-name="dotlessj" unicode="&#x237;" horiz-adv-x="210" 
d="M-55 -50q11 -3 26 -5.5t24 -2.5q21 0 30.5 9t9.5 42v547h140v-550q0 -79 -33.5 -117t-105.5 -38q-23 0 -49 4.5t-42 10.5v100z" />
    <glyph glyph-name="circumflex" unicode="&#x2c6;" horiz-adv-x="386" 
d="M356 598h-122l-41 52l-41 -52h-122l105 137h116z" />
    <glyph glyph-name="caron" unicode="&#x2c7;" horiz-adv-x="386" 
d="M251 598h-116l-105 137h122l41 -52l41 52h122z" />
    <glyph glyph-name="uni02C9" unicode="&#x2c9;" horiz-adv-x="330" 
d="M30 631v104h270v-104h-270z" />
    <glyph glyph-name="breve" unicode="&#x2d8;" horiz-adv-x="360" 
d="M180 591q-27 0 -53 7.5t-46.5 25t-34 45t-16.5 66.5h119q2 -33 9.5 -47t21.5 -14t21.5 14t9.5 47h119q-3 -39 -16.5 -66.5t-34 -45t-46.5 -25t-53 -7.5z" />
    <glyph glyph-name="dotaccent" unicode="&#x2d9;" horiz-adv-x="212" 
d="M30 610v125h152v-125h-152z" />
    <glyph glyph-name="ring" unicode="&#x2da;" horiz-adv-x="316" 
d="M30 691q0 57 32.5 88t95.5 31t95.5 -31t32.5 -88t-33.5 -87t-94.5 -30t-94.5 30t-33.5 87zM128 691q0 -46 30 -46t30 46q0 48 -30 48t-30 -48z" />
    <glyph glyph-name="ogonek" unicode="&#x2db;" horiz-adv-x="300" 
d="M270 -212q-26 -14 -49.5 -21t-52.5 -7q-69 0 -103.5 33.5t-34.5 93.5q0 28 12.5 52.5t33.5 45t48 36t56 24.5h90q-52 -30 -88.5 -67t-36.5 -77q0 -22 12.5 -34.5t32.5 -12.5t59 14z" />
    <glyph glyph-name="tilde" unicode="&#x2dc;" horiz-adv-x="350" 
d="M238 610q-24 0 -41 6t-31 13t-27.5 13t-30.5 6q-33 0 -78 -36v100q22 16 41.5 24.5t40.5 8.5q24 0 41 -6t31 -13t27.5 -13t30.5 -6q33 0 78 36v-100q-22 -16 -41.5 -24.5t-40.5 -8.5z" />
    <glyph glyph-name="hungarumlaut" unicode="&#x2dd;" horiz-adv-x="450" 
d="M110 735h142l-127 -137h-95zM278 735h142l-127 -137h-95z" />
    <glyph glyph-name="gravecomb" unicode="&#x300;" horiz-adv-x="1" 
d="M-29 598h-95l-101 137h152z" />
    <glyph glyph-name="acutecomb" unicode="&#x301;" horiz-adv-x="1" 
d="M-181 735h152l-101 -137h-95z" />
    <glyph glyph-name="tildecomb" unicode="&#x303;" horiz-adv-x="1" 
d="M-111 610q-24 0 -41 6t-31 13t-27.5 13t-30.5 6q-33 0 -78 -36v90q22 16 41.5 24.5t40.5 8.5q24 0 41 -6t31 -13t27.5 -13t30.5 -6q33 0 78 36v-90q-22 -16 -41.5 -24.5t-40.5 -8.5z" />
    <glyph glyph-name="hookabovecomb" unicode="&#x309;" horiz-adv-x="1" 
d="M-29 708q0 -29 -15 -52.5t-50 -34.5l-4 -21h-76l-3 58q26 5 42 14t16 31q0 31 -30 31q-18 0 -27.5 -11.5t-12.5 -28.5l-79 18q14 43 45.5 67.5t79.5 24.5q22 0 43 -5.5t36.5 -17t25 -30t9.5 -43.5z" />
    <glyph glyph-name="uni0312" unicode="&#x312;" horiz-adv-x="1" 
d="M-289 719l59 101h70l-37 -100h42v-120h-134v119z" />
    <glyph glyph-name="dotbelowcomb" unicode="&#x323;" horiz-adv-x="1" 
d="M-181 -170v125h152v-125h-152z" />
    <glyph glyph-name="uni037E" unicode="&#x37e;" horiz-adv-x="225" 
d="M40 405v135h145v-135h-145zM185 1l-84 -163h-81l55 162h-35v135h145v-134z" />
    <glyph glyph-name="tonos" unicode="&#x384;" horiz-adv-x="250" 
d="M71 735h149l-95 -147h-95z" />
    <glyph glyph-name="dieresistonos" unicode="&#x385;" horiz-adv-x="361" 
d="M30 593v107h120v-107h-120zM211 593v107h120v-107h-120zM148 848h149l-95 -127h-95z" />
    <glyph glyph-name="Alphatonos" unicode="&#x386;" horiz-adv-x="539" 
d="M378 0l-26 167h-131l-27 -167h-143l159 720h165l162 -720h-159zM237 269h99l-48 316zM42 721h149l-95 -147h-95z" />
    <glyph glyph-name="anoteleia" unicode="&#x387;" horiz-adv-x="255" 
d="M55 280v135h145v-135h-145z" />
    <glyph glyph-name="Epsilontonos" unicode="&#x388;" horiz-adv-x="548" 
d="M491 309h-140v-196h170v-113h-320v720h320v-115h-170v-188h140v-108zM32 721h149l-95 -147h-95z" />
    <glyph glyph-name="Etatonos" unicode="&#x389;" horiz-adv-x="664" 
d="M619 720v-720h-150v310h-110v-310h-150v720h150v-302h110v302h150zM42 721h149l-95 -147h-95z" />
    <glyph glyph-name="Iotatonos" unicode="&#x38a;" horiz-adv-x="405" 
d="M360 720v-720h-150v720h150zM42 721h149l-95 -147h-95z" />
    <glyph glyph-name="Omicrontonos" unicode="&#x38c;" horiz-adv-x="602" 
d="M569 360q0 -105 -11.5 -176.5t-36.5 -115.5t-65.5 -63.5t-97.5 -19.5q-62 0 -103 19.5t-65 63.5t-34 115.5t-10 176.5t11.5 176.5t37 115.5t66 63.5t97.5 19.5t97.5 -19.5t65.5 -63.5t36.5 -115.5t11.5 -176.5zM416 360q0 76 -2 127t-8 82t-17.5 44t-30.5 13
q-20 0 -31.5 -13.5t-17.5 -44.5t-8 -82t-2 -126t2 -126t8.5 -82t18 -44t30.5 -13t30.5 13t17.5 43.5t8 81.5t2 127zM42 721h149l-95 -147h-95z" />
    <glyph glyph-name="Upsilontonos" unicode="&#x38e;" horiz-adv-x="657" 
d="M657 720l-154 -432v-288h-144v288l-154 432h162l68 -287l82 287h140zM42 721h149l-95 -147h-95z" />
    <glyph glyph-name="Omegatonos" unicode="&#x38f;" horiz-adv-x="589" 
d="M143 0v108h90q-16 5 -31 19q-13 11 -25.5 30.5t-22 48t-15.5 67t-6 88.5q0 99 10.5 170t35.5 116.5t65 66.5t100 21t100.5 -21t65 -66.5t35.5 -116.5t11 -171q0 -69 -10.5 -115.5t-25.5 -75.5t-32 -43t-29 -18h88v-108h-180v108q11 3 18 14t11 38.5t5.5 75t1.5 124.5
q0 75 -2 126t-8 82t-17.5 44.5t-30.5 13.5q-18 0 -29.5 -11t-18 -41t-9 -81.5t-2.5 -132.5q0 -69 1.5 -116t5.5 -76.5t10.5 -43t17.5 -16.5v-108h-178zM42 721h149l-95 -147h-95z" />
    <glyph glyph-name="iotadieresistonos" unicode="&#x390;" horiz-adv-x="210" 
d="M35 0v540h140v-540h-140zM-44 574v107h120v-107h-120zM137 574v107h120v-107h-120zM74 829h149l-95 -127h-95z" />
    <glyph glyph-name="Alpha" unicode="&#x391;" horiz-adv-x="490" 
d="M329 0l-26 167h-131l-27 -167h-143l159 720h165l162 -720h-159zM188 269h99l-48 316z" />
    <glyph glyph-name="Beta" unicode="&#x392;" horiz-adv-x="471" 
d="M192 720q58 0 102.5 -8.5t74.5 -30.5t45 -58.5t15 -93.5q0 -54 -24.5 -94.5t-75.5 -54.5q25 -3 48 -15.5t40 -33.5t27 -51t10 -69q0 -58 -13.5 -98t-43 -65t-77 -36.5t-114.5 -11.5h-161v720h147zM195 328v-226h18q24 0 40.5 5t27 17.5t15 33.5t4.5 53q0 55 -16 86
t-66 31h-23zM195 618v-194h13q15 0 28 4t22.5 15.5t15.5 31t6 51.5q0 48 -18.5 70t-56.5 22h-10z" />
    <glyph glyph-name="Gamma" unicode="&#x393;" horiz-adv-x="397" 
d="M45 0v720h347v-117h-197v-603h-150z" />
    <glyph glyph-name="Delta" unicode="&#x394;" horiz-adv-x="490" 
d="M2 0l159 720h165l162 -720h-486zM161 102h151l-73 483z" />
    <glyph glyph-name="Epsilon" unicode="&#x395;" horiz-adv-x="392" 
d="M335 309h-140v-196h170v-113h-320v720h320v-115h-170v-188h140v-108z" />
    <glyph glyph-name="Zeta" unicode="&#x396;" horiz-adv-x="400" 
d="M163 109h217v-109h-370v117l226 494h-203v109h357v-114z" />
    <glyph glyph-name="Eta" unicode="&#x397;" horiz-adv-x="500" 
d="M455 720v-720h-150v310h-110v-310h-150v720h150v-302h110v302h150z" />
    <glyph glyph-name="Theta" unicode="&#x398;" horiz-adv-x="529" 
d="M33 360q0 105 14.5 176.5t43.5 115.5t72.5 63.5t100.5 19.5t100.5 -19.5t73 -63.5t44 -115.5t14.5 -176.5t-13 -176.5t-41 -115.5t-72 -63.5t-106 -19.5q-57 0 -100.5 19.5t-72.5 63.5t-43.5 115.5t-14.5 176.5zM186 360q0 -76 5 -127t15 -81.5t24.5 -43.5t33.5 -13
t34 13t25 44t15 82t5 126t-5 126t-15 82t-25 44.5t-34 13.5q-20 0 -34.5 -13t-24 -44t-14.5 -82t-5 -127zM208 416h113v-108h-113v108z" />
    <glyph glyph-name="Iota" unicode="&#x399;" horiz-adv-x="240" 
d="M195 720v-720h-150v720h150z" />
    <glyph glyph-name="Kappa" unicode="&#x39a;" horiz-adv-x="504" 
d="M328 0l-133 297v-297h-150v720h150v-280l117 280h151l-159 -334l197 -386h-173z" />
    <glyph glyph-name="Lambda" unicode="&#x39b;" horiz-adv-x="476" 
d="M315 0l-81 571l-89 -571h-143l151 720h167l154 -720h-159z" />
    <glyph glyph-name="Mu" unicode="&#x39c;" horiz-adv-x="652" 
d="M267 0l-96 509v-509h-126v720h195l84 -492l83 492h200v-720h-137v509l-91 -509h-112z" />
    <glyph glyph-name="Nu" unicode="&#x39d;" horiz-adv-x="521" 
d="M476 720v-720h-188l-118 523v-523h-125v720h201l105 -516v516h125z" />
    <glyph glyph-name="Xi" unicode="&#x39e;" horiz-adv-x="450" 
d="M33 720h384v-127h-384v127zM33 127h384v-127h-384v127zM87 423h276v-122h-276v122z" />
    <glyph glyph-name="Omicron" unicode="&#x39f;" horiz-adv-x="489" 
d="M456 360q0 -105 -11.5 -176.5t-36.5 -115.5t-65.5 -63.5t-97.5 -19.5q-62 0 -103 19.5t-65 63.5t-34 115.5t-10 176.5t11.5 176.5t37 115.5t66 63.5t97.5 19.5t97.5 -19.5t65.5 -63.5t36.5 -115.5t11.5 -176.5zM303 360q0 76 -2 127t-8 82t-17.5 44t-30.5 13
q-20 0 -31.5 -13.5t-17.5 -44.5t-8 -82t-2 -126t2 -126t8.5 -82t18 -44t30.5 -13t30.5 13t17.5 43.5t8 81.5t2 127z" />
    <glyph glyph-name="Pi" unicode="&#x3a0;" horiz-adv-x="500" 
d="M455 720v-720h-150v612h-110v-612h-150v720h410z" />
    <glyph glyph-name="Rho" unicode="&#x3a1;" horiz-adv-x="461" 
d="M201 720q57 0 102.5 -9.5t77 -35.5t48.5 -72.5t17 -120.5t-16.5 -120.5t-47.5 -72.5t-75.5 -35.5t-99.5 -9.5h-12v-244h-150v720h156zM195 613v-262h14q19 0 34 5t25.5 19t16 39.5t5.5 67.5t-5 67.5t-15.5 39.5t-27 19t-39.5 5h-8z" />
    <glyph glyph-name="Sigma" unicode="&#x3a3;" horiz-adv-x="430" 
d="M190 108h210v-108h-370v113l164 252l-164 242v113h370v-108h-210l159 -247z" />
    <glyph glyph-name="Tau" unicode="&#x3a4;" horiz-adv-x="400" 
d="M395 603h-121v-603h-150v603h-119v117h390v-117z" />
    <glyph glyph-name="Upsilon" unicode="&#x3a5;" horiz-adv-x="452" 
d="M452 720l-154 -432v-288h-144v288l-154 432h162l68 -287l82 287h140z" />
    <glyph glyph-name="Phi" unicode="&#x3a6;" horiz-adv-x="622" 
d="M376 750v-78q43 -6 83 -27.5t71 -60t49.5 -94.5t18.5 -132t-18.5 -131.5t-49.5 -93.5t-71 -59t-83 -27v-77h-130v77q-43 6 -83 27t-71 59t-49.5 93.5t-18.5 131.5t18.5 132t49 94.5t70.5 60t84 27.5v78h130zM164 357q0 -46 7 -79.5t18.5 -56.5t26 -37t30.5 -21v394
q-16 -8 -30.5 -23t-26 -39t-18.5 -58t-7 -80zM458 357q0 46 -7 80t-18.5 58t-26 39t-30.5 23v-394q16 7 30.5 21t26 37t18.5 56.5t7 79.5z" />
    <glyph glyph-name="Chi" unicode="&#x3a7;" horiz-adv-x="474" 
d="M317 391l152 -391h-169l-70 242l-81 -242h-144l151 381l-136 339h164l61 -194l66 194h142z" />
    <glyph glyph-name="Psi" unicode="&#x3a8;" horiz-adv-x="602" 
d="M368 720v-451q27 14 44.5 42t17.5 77v332h132v-323q0 -102 -49 -165.5t-145 -80.5v-151h-132v150q-97 17 -146.5 80.5t-49.5 166.5v323h132v-332q0 -51 17.5 -79t46.5 -41v452h132z" />
    <glyph glyph-name="Omega" unicode="&#x3a9;" horiz-adv-x="489" 
d="M43 0v108h90q-16 5 -31 19q-13 11 -25.5 30.5t-22 48t-15.5 67t-6 88.5q0 99 10.5 170t35.5 116.5t65 66.5t100 21t100.5 -21t65 -66.5t35.5 -116.5t11 -171q0 -69 -10.5 -115.5t-25.5 -75.5t-32 -43t-29 -18h88v-108h-180v108q11 3 18 14t11 38.5t5.5 75t1.5 124.5
q0 75 -2 126t-8 82t-17.5 44.5t-30.5 13.5q-18 0 -29.5 -11t-18 -41t-9 -81.5t-2.5 -132.5q0 -69 1.5 -116t5.5 -76.5t10.5 -43t17.5 -16.5v-108h-178z" />
    <glyph glyph-name="Iotadieresis" unicode="&#x3aa;" horiz-adv-x="240" 
d="M-38 763v112h130v-112h-130zM151 763v112h130v-112h-130zM195 720v-720h-150v720h150z" />
    <glyph glyph-name="Upsilondieresis" unicode="&#x3ab;" horiz-adv-x="452" 
d="M452 720l-154 -432v-288h-144v288l-154 432h162l68 -287l82 287h140zM73 773v102h130v-102h-130zM262 773v102h130v-102h-130z" />
    <glyph glyph-name="alphatonos" unicode="&#x3ac;" horiz-adv-x="406" 
d="M277 0l-30 53q-21 -28 -45.5 -45.5t-54.5 -17.5t-52.5 12t-38 43t-23.5 85.5t-8 139.5q0 74 7 128t23.5 89t44 51.5t69.5 16.5q35 0 57.5 -12t34.5 -32l25 29h85v-540h-94zM203 99q12 0 28 8v359q-14 3 -23 3q-14 0 -22.5 -8.5t-13 -31.5t-6 -62.5t-1.5 -101.5
q0 -53 2 -85.5t6.5 -50.5t11.5 -24t18 -6zM212 735h149l-95 -147h-95z" />
    <glyph glyph-name="epsilontonos" unicode="&#x3ad;" horiz-adv-x="403" 
d="M215 89q14 0 22.5 6.5t13.5 17t7 24t3 27.5l127 -17q-5 -31 -17.5 -59.5t-34.5 -50t-53.5 -34.5t-74.5 -13q-82 0 -132.5 40.5t-50.5 121.5q0 57 27 93.5t75 41.5q-23 5 -39.5 17.5t-27 29t-15.5 35t-5 36.5q0 39 13.5 67.5t37 46.5t55.5 27t69 9q32 0 60.5 -10t51 -30
t37.5 -49.5t21 -68.5l-124 -17q-2 30 -11 54t-32 24q-16 0 -26.5 -15.5t-10.5 -52.5q0 -38 15 -50.5t35 -12.5h38v-94h-30q-35 0 -53 -14.5t-18 -50.5q0 -46 14 -62.5t33 -16.5zM188 735h149l-95 -147h-95z" />
    <glyph glyph-name="etatonos" unicode="&#x3ae;" horiz-adv-x="423" 
d="M35 0v540h95l25 -53q23 30 54 49t69 19q28 0 49 -9.5t34.5 -31.5t20 -58t6.5 -88v-538h-140v548q0 43 -8.5 55.5t-29.5 12.5q-15 0 -35 -11v-435h-140zM200 735h149l-95 -147h-95z" />
    <glyph glyph-name="iotatonos" unicode="&#x3af;" horiz-adv-x="210" 
d="M35 0v540h140v-540h-140zM99 735h149l-95 -147h-95z" />
    <glyph glyph-name="upsilondieresistonos" unicode="&#x3b0;" horiz-adv-x="419" 
d="M209 99q13 0 20 6t10.5 15.5t4 22t0.5 24.5v373h140v-372q0 -96 -42.5 -137t-132.5 -41q-89 0 -131.5 41t-42.5 137v372h140v-378q0 -12 0.5 -23.5t4 -20t10.5 -14t19 -5.5zM59 574v107h120v-107h-120zM240 574v107h120v-107h-120zM177 829h149l-95 -127h-95z" />
    <glyph glyph-name="alpha" unicode="&#x3b1;" horiz-adv-x="406" 
d="M277 0l-30 53q-21 -28 -45.5 -45.5t-54.5 -17.5t-52.5 12t-38 43t-23.5 85.5t-8 139.5q0 74 7 128t23.5 89t44 51.5t69.5 16.5q35 0 57.5 -12t34.5 -32l25 29h85v-540h-94zM203 99q12 0 28 8v359q-14 3 -23 3q-14 0 -22.5 -8.5t-13 -31.5t-6 -62.5t-1.5 -101.5
q0 -53 2 -85.5t6.5 -50.5t11.5 -24t18 -6z" />
    <glyph glyph-name="beta" unicode="&#x3b2;" horiz-adv-x="454" 
d="M434 204q0 -50 -8 -89.5t-25.5 -67t-46 -42.5t-69.5 -15q-45 0 -70.5 16.5t-39.5 34.5v-211h-140v693q0 106 51 159t142 53q90 0 132 -50t42 -132q0 -45 -8.5 -74t-23 -47.5t-33 -28t-39.5 -15.5q22 -4 46 -12.5t44 -28t33 -54t13 -89.5zM175 146q3 -9 7.5 -18t12 -17
t18.5 -13t28 -5q31 0 45 26.5t14 89.5q0 39 -5.5 63t-17 37t-29.5 18t-43 7v91q34 3 51 28t17 94q0 40 -12 66.5t-36 26.5q-26 0 -38 -22t-12 -81v-391z" />
    <glyph glyph-name="gamma" unicode="&#x3b3;" horiz-adv-x="402" 
d="M128 -170v182l-128 528h153l51 -397l56 397h142l-134 -528v-182h-140z" />
    <glyph glyph-name="delta" unicode="&#x3b4;" horiz-adv-x="435" 
d="M410 250q0 -75 -15 -125t-40.5 -80t-61 -42.5t-75.5 -12.5q-41 0 -76 12.5t-61 42.5t-41 80t-15 125t14.5 126t37 81.5t49.5 44t52 13.5q21 0 39.5 -6.5t39.5 -26.5q-31 44 -84 78.5t-113 69.5v90h312v-110h-115q50 -31 80.5 -73t46.5 -90t21 -98.5t5 -98.5zM169 250
q0 -50 3.5 -82t10 -50t15.5 -24.5t21 -6.5t21 6.5t15 24t9 49.5t3 83q0 57 -3.5 90t-10 50t-15.5 22t-20 5t-20 -6t-15.5 -23.5t-10 -50.5t-3.5 -87z" />
    <glyph glyph-name="epsilon" unicode="&#x3b5;" horiz-adv-x="403" 
d="M215 89q14 0 22.5 6.5t13.5 17t7 24t3 27.5l127 -17q-5 -31 -17.5 -59.5t-34.5 -50t-53.5 -34.5t-74.5 -13q-82 0 -132.5 40.5t-50.5 121.5q0 57 27 93.5t75 41.5q-23 5 -39.5 17.5t-27 29t-15.5 35t-5 36.5q0 39 13.5 67.5t37 46.5t55.5 27t69 9q32 0 60.5 -10t51 -30
t37.5 -49.5t21 -68.5l-124 -17q-2 30 -11 54t-32 24q-16 0 -26.5 -15.5t-10.5 -52.5q0 -38 15 -50.5t35 -12.5h38v-94h-30q-35 0 -53 -14.5t-18 -50.5q0 -46 14 -62.5t33 -16.5z" />
    <glyph glyph-name="zeta" unicode="&#x3b6;" horiz-adv-x="389" 
d="M184 228q0 -32 4.5 -52t15.5 -33t29 -20t45 -13q32 -7 52.5 -18t32.5 -26.5t16.5 -36t4.5 -47.5q0 -32 -11.5 -70t-36.5 -92l-92 19q10 28 15.5 52t5.5 46q0 13 -2.5 23t-10 17t-21.5 11.5t-37 7.5q-29 4 -57 16t-49.5 37t-34.5 66t-13 104q0 58 11 114.5t33.5 107.5
t55 94t76.5 75h-175v110h322v-90q-49 -29 -83 -77t-55.5 -103.5t-31 -114t-9.5 -107.5z" />
    <glyph glyph-name="eta" unicode="&#x3b7;" horiz-adv-x="423" 
d="M35 0v540h95l25 -53q23 30 54 49t69 19q28 0 49 -9.5t34.5 -31.5t20 -58t6.5 -88v-538h-140v548q0 43 -8.5 55.5t-29.5 12.5q-15 0 -35 -11v-435h-140z" />
    <glyph glyph-name="theta" unicode="&#x3b8;" horiz-adv-x="439" 
d="M25 355q0 118 15.5 192t41.5 116t61.5 57t76.5 15q34 0 69 -15t62.5 -57t45 -116t17.5 -192t-15 -189.5t-41.5 -110.5t-62 -52t-75.5 -13q-41 0 -76.5 13t-61.5 52t-41.5 110.5t-15.5 189.5zM220 637q-11 0 -19.5 -7.5t-15.5 -32t-11 -70t-5 -121.5h102q-1 76 -5 121.5
t-11 70t-16 32t-19 7.5zM221 87q10 0 19 6t15.5 28t10.5 66t5 121h-102q1 -77 5 -121t11 -66t16 -28t20 -6z" />
    <glyph glyph-name="iota" unicode="&#x3b9;" horiz-adv-x="210" 
d="M35 0v540h140v-540h-140z" />
    <glyph glyph-name="kappa" unicode="&#x3ba;" horiz-adv-x="463" 
d="M296 0l-121 221v-221h-140v540h140v-211l111 211h144l-143 -251l176 -289h-167z" />
    <glyph glyph-name="lambda" unicode="&#x3bb;" horiz-adv-x="408" 
d="M405 0h-146l-57 426l-54 -426h-145l103 540h64l-37 195h132z" />
    <glyph glyph-name="mu" unicode="&#x3bc;" 
d="M175 540v-373q0 -22 1.5 -35t5.5 -20.5t10.5 -10t16.5 -2.5q12 0 36 11v430h140v-540h-105l-15 39q-14 -21 -31 -33.5t-40 -12.5q-10 0 -19 4v-167h-140v710h140z" />
    <glyph glyph-name="nu" unicode="&#x3bd;" horiz-adv-x="402" 
d="M402 540l-114 -540h-182l-106 540h153l50 -420l55 420h144z" />
    <glyph glyph-name="xi" unicode="&#x3be;" horiz-adv-x="399" 
d="M183 228q0 -34 6 -54.5t18.5 -32.5t32.5 -18.5t48 -12.5q32 -7 52.5 -18t32.5 -26.5t16.5 -36t4.5 -47.5q0 -32 -11.5 -70t-36.5 -92l-92 19q10 28 15.5 52t5.5 46q0 13 -2.5 23t-10 17t-21.5 11.5t-37 7.5q-30 4 -60 16t-53 37.5t-37.5 66.5t-14.5 103q0 64 25.5 106
t77.5 52q-52 11 -74.5 42.5t-22.5 76.5q0 42 26.5 71t71.5 46h-113v107h308v-100h-15q-67 0 -102.5 -30.5t-35.5 -75.5q0 -27 7 -44.5t19 -27.5t27 -13.5t30 -3.5h53v-109h-75q-20 0 -32.5 -4.5t-19 -15t-9 -27t-2.5 -41.5z" />
    <glyph glyph-name="omicron" unicode="&#x3bf;" horiz-adv-x="419" 
d="M25 270q0 83 13.5 138t38.5 87.5t58.5 46t74.5 13.5q40 0 74 -13t58.5 -45.5t38 -87.5t13.5 -139t-13.5 -138t-38 -85.5t-58.5 -44t-74 -12.5q-41 0 -74.5 12.5t-58.5 44.5t-38.5 86t-13.5 137zM169 270q0 -57 2 -92.5t7 -56t13 -27.5t20 -7t19.5 7t12 27t6.5 55.5
t2 93.5t-2 94.5t-7 57t-13 28t-19 7.5t-19 -8t-13 -28.5t-7 -57t-2 -93.5z" />
    <glyph glyph-name="pi" unicode="&#x3c0;" horiz-adv-x="490" 
d="M470 429h-60v-279q0 -33 5 -41t19 -8q5 0 10 1t7 2l15 -103q-13 -4 -29.5 -6.5t-30.5 -2.5q-36 0 -61 8t-41.5 27t-24 50.5t-7.5 78.5v273h-70v-429h-138v429h-54v111h460v-111z" />
    <glyph glyph-name="rho" unicode="&#x3c1;" horiz-adv-x="415" 
d="M35 -170v550q0 48 15.5 81.5t40 54t54.5 30t60 9.5q52 0 87 -16.5t57 -51t31.5 -87.5t9.5 -125q0 -74 -8 -128t-25.5 -89t-46 -51.5t-70.5 -16.5q-38 0 -65 21v-181h-140zM175 79q12 -3 24 -3q13 0 23 8.5t16 31.5t9 62.5t3 101.5q0 55 -2.5 87.5t-8 50t-13.5 23t-18 5.5
t-16.5 -5.5t-10 -14t-5 -19t-1.5 -20.5v-308z" />
    <glyph glyph-name="sigma1" unicode="&#x3c2;" horiz-adv-x="400" 
d="M215 457q-10 0 -18.5 -6t-14.5 -25.5t-9.5 -56t-3.5 -97.5q0 -45 7.5 -73.5t22 -46t36 -27t49.5 -15.5q32 -7 52.5 -18t32.5 -26.5t16.5 -36t4.5 -47.5q0 -32 -11.5 -70t-36.5 -92l-92 19q10 28 15.5 52t5.5 46q0 13 -2.5 23t-10 17t-21.5 11.5t-37 7.5q-30 4 -61.5 19.5
t-56.5 47.5t-41 83.5t-16 128.5q0 147 45.5 213.5t140.5 66.5q52 0 85.5 -17.5t53.5 -43.5t28.5 -56.5t11.5 -55.5l-133 -20q-5 95 -42 95z" />
    <glyph glyph-name="sigma" unicode="&#x3c3;" 
d="M395 270q0 -83 -13.5 -137.5t-37.5 -86t-58 -44t-75 -12.5t-75 12.5t-58.5 44t-38 86t-13.5 137.5q0 57 7.5 106.5t28.5 87t59 61.5t98 30l179 17v-112h-54q19 -27 35 -72.5t16 -117.5zM170 270q0 -54 2 -89.5t6.5 -56t12.5 -29t21 -8.5t20.5 8.5t12 29t6 56t1.5 89.5
q0 85 -4.5 127.5t-17.5 61.5q-20 -2 -32 -12.5t-18 -33t-8 -57.5t-2 -86z" />
    <glyph glyph-name="tau" unicode="&#x3c4;" horiz-adv-x="380" 
d="M370 431h-111v-431h-139v431h-110v109h360v-109z" />
    <glyph glyph-name="upsilon" unicode="&#x3c5;" horiz-adv-x="419" 
d="M209 99q13 0 20 6t10.5 15.5t4 22t0.5 24.5v373h140v-372q0 -96 -42.5 -137t-132.5 -41q-89 0 -131.5 41t-42.5 137v372h140v-378q0 -12 0.5 -23.5t4 -20t10.5 -14t19 -5.5z" />
    <glyph glyph-name="phi" unicode="&#x3c6;" horiz-adv-x="564" 
d="M539 280q0 -73 -7.5 -125t-29.5 -86.5t-61.5 -52.5t-102.5 -23v-163h-117v164q-56 5 -93.5 22.5t-60.5 51t-32.5 84t-9.5 121.5q0 60 6.5 105t18 78.5t26 57.5t30.5 41l81 -58q-8 -15 -14 -31t-9.5 -40.5t-5 -61t-1.5 -91.5q0 -46 3 -77.5t10.5 -51.5t20 -31t30.5 -15
v430q28 9 63 18t83 9q45 0 77.5 -11.5t53.5 -42t31 -84t10 -137.5zM404 280q0 55 -1.5 91.5t-6.5 58t-14.5 30.5t-25.5 9q-8 0 -18 -2v-371q21 3 34 13t20 31t9.5 55t2.5 85z" />
    <glyph glyph-name="chi" unicode="&#x3c7;" horiz-adv-x="426" 
d="M288 206l133 -376h-160l-57 259l-53 -259h-146l122 363l-109 347h152l42 -235l38 235h138z" />
    <glyph glyph-name="psi" unicode="&#x3c8;" horiz-adv-x="562" 
d="M344 540v-432q26 13 41 38t15 61v333h127v-318q0 -41 -11 -78t-33.5 -67t-57 -51t-81.5 -30v-166h-124v166q-48 8 -83 29t-57.5 51.5t-33.5 68t-11 77.5v318h127v-333q0 -37 15.5 -62t42.5 -38v433h124z" />
    <glyph glyph-name="omega" unicode="&#x3c9;" horiz-adv-x="587" 
d="M397 -10q-37 0 -64.5 18t-39.5 47q-11 -29 -39 -47t-64 -18q-87 0 -126 70t-39 203q0 76 21.5 147.5t72.5 144.5l107 -48q-15 -26 -27.5 -51.5t-21 -55t-13 -64.5t-4.5 -78q0 -161 39 -161q10 0 17 5.5t11 20t5.5 39.5t1.5 65v159h119v-159q0 -40 1.5 -65t5.5 -39.5
t10.5 -20t17.5 -5.5q39 0 39 161q0 43 -4.5 78t-13 64.5t-21 55t-27.5 51.5l107 48q51 -73 72.5 -144.5t21.5 -147.5q0 -133 -38.5 -203t-126.5 -70z" />
    <glyph glyph-name="iotadieresis" unicode="&#x3ca;" horiz-adv-x="210" 
d="M35 0v540h140v-540h-140zM-52 613v112h130v-112h-130zM137 613v112h130v-112h-130z" />
    <glyph glyph-name="upsilondieresis" unicode="&#x3cb;" horiz-adv-x="419" 
d="M209 99q13 0 20 6t10.5 15.5t4 22t0.5 24.5v373h140v-372q0 -96 -42.5 -137t-132.5 -41q-89 0 -131.5 41t-42.5 137v372h140v-378q0 -12 0.5 -23.5t4 -20t10.5 -14t19 -5.5zM50 609v112h130v-112h-130zM239 609v112h130v-112h-130z" />
    <glyph glyph-name="omicrontonos" unicode="&#x3cc;" horiz-adv-x="419" 
d="M25 270q0 83 13.5 138t38.5 87.5t58.5 46t74.5 13.5q40 0 74 -13t58.5 -45.5t38 -87.5t13.5 -139t-13.5 -138t-38 -85.5t-58.5 -44t-74 -12.5q-41 0 -74.5 12.5t-58.5 44.5t-38.5 86t-13.5 137zM169 270q0 -57 2 -92.5t7 -56t13 -27.5t20 -7t19.5 7t12 27t6.5 55.5
t2 93.5t-2 94.5t-7 57t-13 28t-19 7.5t-19 -8t-13 -28.5t-7 -57t-2 -93.5zM197 727h149l-95 -147h-95z" />
    <glyph glyph-name="upsilontonos" unicode="&#x3cd;" horiz-adv-x="419" 
d="M209 99q13 0 20 6t10.5 15.5t4 22t0.5 24.5v373h140v-372q0 -96 -42.5 -137t-132.5 -41q-89 0 -131.5 41t-42.5 137v372h140v-378q0 -12 0.5 -23.5t4 -20t10.5 -14t19 -5.5zM197 735h149l-95 -147h-95z" />
    <glyph glyph-name="omegatonos" unicode="&#x3ce;" horiz-adv-x="587" 
d="M397 -10q-37 0 -64.5 18t-39.5 47q-11 -29 -39 -47t-64 -18q-87 0 -126 70t-39 203q0 76 21.5 147.5t72.5 144.5l107 -48q-15 -26 -27.5 -51.5t-21 -55t-13 -64.5t-4.5 -78q0 -161 39 -161q10 0 17 5.5t11 20t5.5 39.5t1.5 65v159h119v-159q0 -40 1.5 -65t5.5 -39.5
t10.5 -20t17.5 -5.5q39 0 39 161q0 43 -4.5 78t-13 64.5t-21 55t-27.5 51.5l107 48q51 -73 72.5 -144.5t21.5 -147.5q0 -133 -38.5 -203t-126.5 -70zM272 735h149l-95 -147h-95z" />
    <glyph glyph-name="afii10023" unicode="&#x401;" horiz-adv-x="396" 
d="M50 773v102h130v-102h-130zM239 773v102h130v-102h-130zM335 309h-140v-196h170v-113h-320v720h320v-115h-170v-188h140v-108z" />
    <glyph glyph-name="afii10051" unicode="&#x402;" horiz-adv-x="540" 
d="M425 605h-151v-135q47 35 107 35q28 0 51 -13t39.5 -44.5t25 -83t8.5 -129.5q0 -118 -30 -181.5t-99 -63.5q-39 0 -72 10v101q13 -3 23 -3q16 0 22 34t6 106q0 45 -2.5 74t-8 45.5t-13.5 22.5t-18 6q-8 0 -18 -2.5t-21 -6.5v-377h-150v605h-119v115h420v-115z" />
    <glyph glyph-name="afii10052" unicode="&#x403;" horiz-adv-x="397" 
d="M45 0v720h347v-117h-197v-603h-150zM216 885h152l-122 -117h-110z" />
    <glyph glyph-name="afii10053" unicode="&#x404;" horiz-adv-x="480" 
d="M265 94q29 0 39 26.5t17 71.5l139 -25q-6 -30 -17.5 -62t-34 -58.5t-58.5 -44t-90 -17.5q-48 0 -89.5 17t-72 60.5t-48 118t-17.5 188.5q0 107 17 177.5t47.5 112.5t73.5 59t94 17q47 0 80.5 -17t56 -43t35 -56t17.5 -57l-132 -26q-7 42 -21 66.5t-37 24.5
q-15 0 -28 -8.5t-22.5 -31t-15.5 -62t-7 -101.5h179v-106h-180q2 -64 8 -107t15.5 -69t22.5 -37t29 -11z" />
    <glyph glyph-name="afii10054" unicode="&#x405;" horiz-adv-x="426" 
d="M211 626q-20 0 -32 -17t-12 -53q0 -18 3.5 -33t15 -30t32.5 -30t56 -33q34 -18 58 -39.5t39.5 -49t22.5 -63t7 -81.5q0 -100 -48.5 -156t-145.5 -56q-52 0 -87 17.5t-57 44.5t-33 58.5t-15 59.5l141 20q2 -36 13.5 -63t38.5 -27q19 0 31.5 18t12.5 70q0 27 -4 45t-16 33
t-33 29.5t-54 33.5q-60 34 -92.5 82.5t-32.5 126.5q0 44 13 81t37.5 64t60.5 42t82 15q48 0 81 -16t54.5 -41t33 -55.5t16.5 -58.5l-139 -25q-5 38 -14 62.5t-34 24.5z" />
    <glyph glyph-name="afii10055" unicode="&#x406;" horiz-adv-x="240" 
d="M195 720v-720h-150v720h150z" />
    <glyph glyph-name="afii10056" unicode="&#x407;" horiz-adv-x="240" 
d="M-39 773v112h130v-112h-130zM150 773v112h130v-112h-130zM195 720v-720h-150v720h150z" />
    <glyph glyph-name="afii10057" unicode="&#x408;" horiz-adv-x="319" 
d="M124 720h150v-518q0 -42 -4.5 -81t-21 -69t-49.5 -48.5t-90 -18.5q-28 0 -54.5 4.5t-44.5 10.5v107q36 -11 64 -11q14 0 23.5 3.5t15.5 14t8.5 30t2.5 51.5v525z" />
    <glyph glyph-name="afii10058" unicode="&#x409;" horiz-adv-x="733" 
d="M141 720h326v-280h8q67 0 113.5 -14t74.5 -42.5t40.5 -70.5t12.5 -97q0 -58 -12.5 -99t-41 -67t-75 -38t-114.5 -12h-156l3 6v606h-60l-37 -390q-7 -71 -24 -114.5t-43.5 -67.5t-63 -32t-82.5 -8v112q19 0 33 3.5t23.5 15t15.5 31.5t9 53zM467 338v-236h13q47 0 64.5 25
t17.5 89q0 27 -2.5 49.5t-11 38.5t-23.5 25t-40 9h-18z" />
    <glyph glyph-name="afii10059" unicode="&#x40a;" horiz-adv-x="721" 
d="M455 720v-280h8q67 0 113.5 -14t74.5 -42.5t40.5 -70.5t12.5 -97q0 -58 -12.5 -99t-41 -67t-75 -38t-114.5 -12h-156v310h-110v-310h-150v720h150v-302h110v302h150zM455 338v-236h13q47 0 64.5 25t17.5 89q0 27 -2.5 49.5t-11 38.5t-23.5 25t-40 9h-18z" />
    <glyph glyph-name="afii10060" unicode="&#x40b;" horiz-adv-x="540" 
d="M425 605h-151v-146q22 21 48.5 33.5t58.5 12.5q28 0 51 -9t39.5 -31t25 -60.5t8.5 -96.5v-308h-150v318q0 43 -10.5 55.5t-31.5 12.5q-8 0 -18 -2.5t-21 -6.5v-377h-150v605h-119v115h420v-115z" />
    <glyph glyph-name="afii10061" unicode="&#x40c;" horiz-adv-x="504" 
d="M328 0l-133 297v-297h-150v720h150v-280l117 280h151l-159 -334l197 -386h-173zM265 885h152l-122 -117h-110z" />
    <glyph glyph-name="afii10062" unicode="&#x40e;" horiz-adv-x="439" 
d="M222 834q14 0 22 11t10 40h119q-3 -34 -16.5 -57.5t-34.5 -38.5t-47 -21.5t-54 -6.5q-27 0 -53 6.5t-46.5 21.5t-34 38.5t-16.5 57.5h119q2 -29 10 -40t22 -11zM310 145q-9 -40 -22.5 -70t-33.5 -50t-48.5 -30t-68.5 -10q-22 0 -42 5t-35 10v106q13 -6 26 -10t30 -4
q26 0 37 16.5t16 51.5h-49l-115 560h154l60 -446l68 446h147z" />
    <glyph glyph-name="afii10145" unicode="&#x40f;" horiz-adv-x="500" 
d="M190 -135l-9 135h-136v720h150v-612h110v612h150v-720h-137l-8 -135h-120z" />
    <glyph glyph-name="afii10017" unicode="&#x410;" horiz-adv-x="490" 
d="M329 0l-26 167h-131l-27 -167h-143l159 720h165l162 -720h-159zM188 269h99l-48 316z" />
    <glyph glyph-name="afii10018" unicode="&#x411;" horiz-adv-x="471" 
d="M402 610h-207v-180h13q67 0 114 -13.5t76.5 -40.5t42.5 -68.5t13 -96.5q0 -58 -13.5 -98t-43 -65t-77 -36.5t-114.5 -11.5h-161v720h357v-110zM195 328v-226h18q24 0 40.5 5t27 17.5t15 33.5t4.5 53q0 55 -16 86t-66 31h-23z" />
    <glyph glyph-name="afii10019" unicode="&#x412;" horiz-adv-x="471" 
d="M192 720q58 0 102.5 -8.5t74.5 -30.5t45 -58.5t15 -93.5q0 -54 -24.5 -94.5t-75.5 -54.5q25 -3 48 -15.5t40 -33.5t27 -51t10 -69q0 -58 -13.5 -98t-43 -65t-77 -36.5t-114.5 -11.5h-161v720h147zM195 328v-226h18q24 0 40.5 5t27 17.5t15 33.5t4.5 53q0 55 -16 86
t-66 31h-23zM195 618v-194h13q15 0 28 4t22.5 15.5t15.5 31t6 51.5q0 48 -18.5 70t-56.5 22h-10z" />
    <glyph glyph-name="afii10020" unicode="&#x413;" horiz-adv-x="397" 
d="M45 0v720h347v-117h-197v-603h-150z" />
    <glyph glyph-name="afii10021" unicode="&#x414;" horiz-adv-x="533" 
d="M393 -135l-13 135h-237l-13 -135h-120v243h33q25 14 40.5 40.5t19.5 66.5l50 505h330v-612h30v-243h-120zM338 108v504h-62l-33 -354q-5 -59 -24 -93.5t-42 -56.5h161z" />
    <glyph glyph-name="afii10022" unicode="&#x415;" horiz-adv-x="392" 
d="M335 309h-140v-196h170v-113h-320v720h320v-115h-170v-188h140v-108z" />
    <glyph glyph-name="afii10024" unicode="&#x416;" horiz-adv-x="717" 
d="M185 720l100 -303v303h147v-303l100 303h148l-138 -334l172 -386h-166l-116 319v-319h-147v319l-116 -319h-166l172 386l-138 334h148z" />
    <glyph glyph-name="afii10025" unicode="&#x417;" horiz-adv-x="424" 
d="M209 90q21 0 32 27t11 93q0 41 -5 65t-14.5 36t-23 15.5t-31.5 3.5h-25v109h33q10 0 19.5 3t17 12.5t12 27t4.5 46.5q0 57 -9.5 79.5t-27.5 22.5q-11 0 -18 -8t-11.5 -22.5t-7 -33.5t-4.5 -40l-145 17q14 87 60.5 139.5t135.5 52.5q40 0 73.5 -10t58 -33t38 -62t13.5 -96
q0 -24 -5.5 -48t-17.5 -43.5t-30 -33.5t-42 -18q49 -5 78 -47q29 -44 29 -131q0 -118 -52 -173t-143 -55q-48 0 -82 16t-57 42.5t-35.5 61t-17.5 72.5l145 17q1 -18 3.5 -36.5t7 -33.5t12.5 -24.5t21 -9.5z" />
    <glyph glyph-name="afii10026" unicode="&#x418;" horiz-adv-x="536" 
d="M188 720v-416l159 366v50h144v-720h-143v423l-159 -373v-50h-144v720h143z" />
    <glyph glyph-name="afii10027" unicode="&#x419;" horiz-adv-x="536" 
d="M188 720v-416l159 366v50h144v-720h-143v423l-159 -373v-50h-144v720h143zM267 834q14 0 22 11t10 40h119q-3 -34 -16.5 -57.5t-34.5 -38.5t-47 -21.5t-54 -6.5q-27 0 -53 6.5t-46.5 21.5t-34 38.5t-16.5 57.5h119q2 -29 10 -40t22 -11z" />
    <glyph glyph-name="afii10028" unicode="&#x41a;" horiz-adv-x="504" 
d="M328 0l-133 297v-297h-150v720h150v-280l117 280h151l-159 -334l197 -386h-173z" />
    <glyph glyph-name="afii10029" unicode="&#x41b;" horiz-adv-x="512" 
d="M141 720h326v-720h-147v612h-60l-37 -390q-7 -71 -24 -114.5t-43.5 -67.5t-63 -32t-82.5 -8v112q19 0 33 3.5t23.5 15t15.5 31.5t9 53z" />
    <glyph glyph-name="afii10030" unicode="&#x41c;" horiz-adv-x="652" 
d="M267 0l-96 509v-509h-126v720h195l84 -492l83 492h200v-720h-137v509l-91 -509h-112z" />
    <glyph glyph-name="afii10031" unicode="&#x41d;" horiz-adv-x="500" 
d="M455 720v-720h-150v310h-110v-310h-150v720h150v-302h110v302h150z" />
    <glyph glyph-name="afii10032" unicode="&#x41e;" horiz-adv-x="489" 
d="M456 360q0 -105 -11.5 -176.5t-36.5 -115.5t-65.5 -63.5t-97.5 -19.5q-62 0 -103 19.5t-65 63.5t-34 115.5t-10 176.5t11.5 176.5t37 115.5t66 63.5t97.5 19.5t97.5 -19.5t65.5 -63.5t36.5 -115.5t11.5 -176.5zM303 360q0 76 -2 127t-8 82t-17.5 44t-30.5 13
q-20 0 -31.5 -13.5t-17.5 -44.5t-8 -82t-2 -126t2 -126t8.5 -82t18 -44t30.5 -13t30.5 13t17.5 43.5t8 81.5t2 127z" />
    <glyph glyph-name="afii10033" unicode="&#x41f;" horiz-adv-x="500" 
d="M455 720v-720h-150v612h-110v-612h-150v720h410z" />
    <glyph glyph-name="afii10034" unicode="&#x420;" horiz-adv-x="461" 
d="M201 720q57 0 102.5 -9.5t77 -35.5t48.5 -72.5t17 -120.5t-16.5 -120.5t-47.5 -72.5t-75.5 -35.5t-99.5 -9.5h-12v-244h-150v720h156zM195 613v-262h14q19 0 34 5t25.5 19t16 39.5t5.5 67.5t-5 67.5t-15.5 39.5t-27 19t-39.5 5h-8z" />
    <glyph glyph-name="afii10035" unicode="&#x421;" horiz-adv-x="452" 
d="M245 94q15 0 24.5 10t15.5 26.5t8.5 37.5t2.5 44l141 -15q-3 -32 -12.5 -69.5t-31.5 -69t-58.5 -52.5t-94.5 -21q-48 0 -86.5 15.5t-65 57.5t-41 115t-14.5 187q0 112 14.5 185t42 115t67.5 58.5t91 16.5q53 0 87 -20.5t54.5 -51t29.5 -65.5t12 -65l-139 -17
q-2 21 -4 40.5t-7 35.5t-13.5 25.5t-22.5 9.5q-17 0 -28 -12t-17 -42t-8 -82t-2 -131q0 -80 2 -131.5t8 -81.5t17 -41.5t28 -11.5z" />
    <glyph glyph-name="afii10036" unicode="&#x422;" horiz-adv-x="400" 
d="M395 603h-121v-603h-150v603h-119v117h390v-117z" />
    <glyph glyph-name="afii10037" unicode="&#x423;" horiz-adv-x="439" 
d="M310 145q-9 -40 -22.5 -70t-33.5 -50t-48.5 -30t-68.5 -10q-22 0 -42 5t-35 10v106q13 -6 26 -10t30 -4q26 0 37 16.5t16 51.5h-49l-115 560h154l60 -446l68 446h147z" />
    <glyph glyph-name="afii10038" unicode="&#x424;" horiz-adv-x="622" 
d="M376 750v-78q43 -6 83 -27.5t71 -60t49.5 -94.5t18.5 -132t-18.5 -131.5t-49.5 -93.5t-71 -59t-83 -27v-77h-130v77q-43 6 -83 27t-71 59t-49.5 93.5t-18.5 131.5t18.5 132t49 94.5t70.5 60t84 27.5v78h130zM164 357q0 -46 7 -79.5t18.5 -56.5t26 -37t30.5 -21v394
q-16 -8 -30.5 -23t-26 -39t-18.5 -58t-7 -80zM458 357q0 46 -7 80t-18.5 58t-26 39t-30.5 23v-394q16 7 30.5 21t26 37t18.5 56.5t7 79.5z" />
    <glyph glyph-name="afii10039" unicode="&#x425;" horiz-adv-x="474" 
d="M317 391l152 -391h-169l-70 242l-81 -242h-144l151 381l-136 339h164l61 -194l66 194h142z" />
    <glyph glyph-name="afii10040" unicode="&#x426;" horiz-adv-x="503" 
d="M45 0v720h150v-612h110v612h150v-612h25v-243h-120l-11 135h-304z" />
    <glyph glyph-name="afii10041" unicode="&#x427;" horiz-adv-x="478" 
d="M188 243q-41 0 -69.5 11t-46 36.5t-25 66.5t-7.5 102v261h150v-260q0 -37 3 -58.5t8.5 -32t14.5 -13.5t21 -3q31 0 46 4v363h150v-720h-150v252q-18 -4 -41.5 -6.5t-53.5 -2.5z" />
    <glyph glyph-name="afii10042" unicode="&#x428;" horiz-adv-x="703" 
d="M45 0v720h150v-612h87v612h139v-612h87v612h150v-720h-613z" />
    <glyph glyph-name="afii10043" unicode="&#x429;" horiz-adv-x="716" 
d="M45 0v720h150v-612h87v612h139v-612h87v612h150v-612h35v-243h-120l-17 135h-511z" />
    <glyph glyph-name="afii10044" unicode="&#x42a;" horiz-adv-x="539" 
d="M5 720h268v-280h8q67 0 113.5 -14t74.5 -42.5t40.5 -70.5t12.5 -97q0 -58 -12.5 -99t-41 -67t-75 -38t-114.5 -12h-156v610h-118v110zM273 338v-236h13q47 0 64.5 25t17.5 89q0 27 -2.5 49.5t-11 38.5t-23.5 25t-40 9h-18z" />
    <glyph glyph-name="afii10045" unicode="&#x42b;" horiz-adv-x="683" 
d="M195 720v-280h8q67 0 113.5 -14t74.5 -42.5t40.5 -70.5t12.5 -97q0 -58 -12.5 -99t-41 -67t-75 -38t-114.5 -12h-156v720h150zM638 720v-720h-150v720h150zM195 338v-236h13q47 0 64.5 25t17.5 89q0 27 -2.5 49.5t-11 38.5t-23.5 25t-40 9h-18z" />
    <glyph glyph-name="afii10046" unicode="&#x42c;" horiz-adv-x="461" 
d="M195 720v-280h8q67 0 113.5 -14t74.5 -42.5t40.5 -70.5t12.5 -97q0 -58 -12.5 -99t-41 -67t-75 -38t-114.5 -12h-156v720h150zM195 338v-236h13q47 0 64.5 25t17.5 89q0 27 -2.5 49.5t-11 38.5t-23.5 25t-40 9h-18z" />
    <glyph glyph-name="afii10047" unicode="&#x42d;" horiz-adv-x="476" 
d="M219 96q16 0 28.5 10.5t21.5 36t14.5 68t7.5 107.5h-183v106h183q-2 61 -7.5 100.5t-14.5 61.5t-20.5 30.5t-25.5 8.5q-26 0 -42 -23.5t-23 -65.5l-135 27q7 30 21.5 60.5t39.5 55t60.5 40.5t83.5 16q50 0 90 -18t67.5 -60.5t42.5 -113t15 -174.5q0 -107 -15.5 -180.5
t-45 -118.5t-71.5 -65t-94 -20q-49 0 -83 16t-57 42t-36.5 58.5t-20.5 65.5l137 25q7 -45 21 -70.5t41 -25.5z" />
    <glyph glyph-name="afii10048" unicode="&#x42e;" horiz-adv-x="709" 
d="M676 360q0 -105 -11.5 -176.5t-36.5 -115.5t-65.5 -63.5t-97.5 -19.5q-59 0 -98.5 17t-64 55t-36 100.5t-13.5 152.5h-58v-310h-150v720h150v-302h59q3 88 16.5 148.5t39 98t64 54t91.5 16.5q57 0 97.5 -19.5t65.5 -63.5t36.5 -115.5t11.5 -176.5zM523 360q0 76 -2 127
t-8 82t-17.5 44t-30.5 13q-20 0 -31.5 -13.5t-17.5 -44.5t-8 -82t-2 -126t2 -126t8.5 -82t18 -44t30.5 -13t30.5 13t17.5 43.5t8 81.5t2 127z" />
    <glyph glyph-name="afii10049" unicode="&#x42f;" horiz-adv-x="482" 
d="M3 0l138 301q-48 26 -74 71.5t-26 121.5q0 64 15.5 107t46 69.5t75 38t101.5 11.5h158v-720h-150v267h-14l-103 -267h-167zM277 612q-21 0 -36.5 -4.5t-25 -17t-14 -36t-4.5 -60.5q0 -69 18.5 -94.5t55.5 -25.5h16v238h-10z" />
    <glyph glyph-name="afii10065" unicode="&#x430;" horiz-adv-x="400" 
d="M276 0l-28 51q-17 -26 -45 -42.5t-70 -16.5q-27 0 -49 9t-37 28.5t-23.5 51t-8.5 77.5q0 37 7 69t24.5 56.5t46.5 40.5t74 21l58 6v40q0 39 -6 54t-21 15t-21 -18t-8 -48l-135 20q5 22 15.5 47t30 46t50.5 34.5t78 13.5q86 0 121.5 -46t35.5 -143v-366h-89zM192 91
q7 0 15.5 2t17.5 7v169l-25 -3q-23 -3 -33 -24t-10 -66q0 -52 9.5 -68.5t25.5 -16.5z" />
    <glyph glyph-name="afii10066" unicode="&#x431;" horiz-adv-x="421" 
d="M25 270q0 60 3 126.5t17.5 125t43.5 103t81 61.5q23 7 38.5 12.5t24.5 12.5t12.5 16t3.5 23h144q0 -33 -8 -55.5t-25.5 -38t-44 -26t-63.5 -19.5t-66 -34t-45 -68q17 21 40.5 33.5t55.5 12.5t60.5 -13t50 -45.5t34 -87.5t12.5 -139t-13.5 -138t-38 -85.5t-58.5 -44
t-74 -12.5q-41 0 -74.5 12.5t-58.5 44.5t-38.5 86t-13.5 137zM169 270q0 -57 2.5 -92.5t7.5 -56t13 -27.5t19 -7t18.5 7t12.5 27t7 55.5t2 93.5t-2.5 94.5t-7.5 57t-13 28t-18 7.5q-11 0 -18.5 -5.5t-12.5 -24.5t-7.5 -56t-2.5 -101z" />
    <glyph glyph-name="afii10067" unicode="&#x432;" horiz-adv-x="424" 
d="M177 540q53 0 91 -6.5t63 -22.5t36.5 -43.5t11.5 -68.5q0 -40 -22.5 -72t-71.5 -42q24 -3 46 -12t38 -25t25.5 -38.5t9.5 -51.5q0 -40 -10.5 -69.5t-35.5 -49t-68 -29.5t-107 -10h-148v540h142zM175 236v-141h9q33 0 54.5 14.5t21.5 57.5q0 34 -18.5 51.5t-52.5 17.5h-14
zM175 444v-117h13q10 0 20 2t17 8.5t11.5 18.5t4.5 33q0 29 -15 42t-44 13h-7z" />
    <glyph glyph-name="afii10068" unicode="&#x433;" horiz-adv-x="363" 
d="M35 0v540h316v-103h-176v-437h-140z" />
    <glyph glyph-name="afii10069" unicode="&#x434;" horiz-adv-x="456" 
d="M5 -115v220h39q16 13 25 35t14 60l40 340h298v-435h25v-220h-98l-13 115h-217l-12 -115h-101zM285 105v332h-49l-26 -230q-4 -35 -15 -60t-25 -42h115z" />
    <glyph glyph-name="afii10070" unicode="&#x435;" horiz-adv-x="392" 
d="M204 91q16 0 23.5 17.5t10.5 49.5l128 -20q-3 -23 -13 -48.5t-29.5 -48t-49.5 -37t-73 -14.5q-93 0 -134.5 66.5t-41.5 213.5q0 79 10.5 133.5t32 88t54 48.5t77.5 15q60 0 93.5 -22.5t50 -64.5t20.5 -102.5t4 -136.5h-201q1 -45 3.5 -72.5t7 -42t11.5 -19t16 -4.5z
M203 465q-9 0 -16 -5t-11.5 -20t-7 -43.5t-2.5 -75.5h73q0 46 -2.5 74.5t-7 44t-11 20.5t-15.5 5z" />
    <glyph glyph-name="afii10072" unicode="&#x436;" horiz-adv-x="654" 
d="M170 540l93 -229v229h130v-219l93 219h135l-114 -251l147 -289h-153l-108 231v-231h-130v240l-108 -240h-153l147 289l-114 251h135z" />
    <glyph glyph-name="afii10073" unicode="&#x437;" horiz-adv-x="403" 
d="M188 89q19 0 33 16.5t14 62.5q0 36 -18 49.5t-53 13.5h-30v94h38q20 0 35 13.5t15 51.5q0 37 -10.5 52.5t-26.5 15.5q-23 0 -32 -24t-11 -54l-124 17q5 40 20 70t38.5 49.5t53.5 29t64 9.5q36 0 67 -9t53.5 -28t35.5 -47t13 -66q0 -18 -5 -37t-15.5 -36t-27 -29.5
t-39.5 -17.5q48 -5 75 -40.5t27 -92.5q0 -40 -13.5 -70t-36.5 -50.5t-54.5 -31t-67.5 -10.5q-45 0 -78.5 12.5t-57 33.5t-37 49.5t-18.5 61.5l127 17q2 -28 13 -51.5t33 -23.5z" />
    <glyph glyph-name="afii10074" unicode="&#x438;" horiz-adv-x="437" 
d="M167 540v-297l102 267v30h133v-540h-133v292l-102 -262v-30h-132v540h132z" />
    <glyph glyph-name="afii10075" unicode="&#x439;" horiz-adv-x="437" 
d="M218 674q14 0 22 14t10 47h119q-3 -38 -16.5 -62.5t-34.5 -39.5t-47 -21t-54 -6q-27 0 -53 6t-46.5 21t-34 39.5t-16.5 62.5h119q2 -33 10 -47t22 -14zM167 540v-297l102 267v30h133v-540h-133v292l-102 -262v-30h-132v540h132z" />
    <glyph glyph-name="afii10076" unicode="&#x43a;" horiz-adv-x="463" 
d="M296 0l-121 221v-221h-140v540h140v-211l111 211h144l-143 -251l176 -289h-167z" />
    <glyph glyph-name="afii10077" unicode="&#x43b;" horiz-adv-x="447" 
d="M412 0h-136v437h-43l-32 -230q-8 -58 -19 -97.5t-32.5 -64t-56 -35t-88.5 -10.5v105q19 0 31 5.5t19 16.5t11 29t8 44l47 340h291v-540z" />
    <glyph glyph-name="afii10078" unicode="&#x43c;" horiz-adv-x="604" 
d="M246 0l-91 382v-382h-120v540h185l80 -369l79 369h190v-540h-130v382l-87 -382h-106z" />
    <glyph glyph-name="afii10079" unicode="&#x43d;" horiz-adv-x="442" 
d="M407 540v-540h-140v218h-92v-218h-140v540h140v-219h92v219h140z" />
    <glyph glyph-name="afii10080" unicode="&#x43e;" horiz-adv-x="419" 
d="M25 270q0 83 13.5 138t38.5 87.5t58.5 46t74.5 13.5q40 0 74 -13t58.5 -45.5t38 -87.5t13.5 -139t-13.5 -138t-38 -85.5t-58.5 -44t-74 -12.5q-41 0 -74.5 12.5t-58.5 44.5t-38.5 86t-13.5 137zM169 270q0 -57 2 -92.5t7 -56t13 -27.5t20 -7t19.5 7t12 27t6.5 55.5
t2 93.5t-2 94.5t-7 57t-13 28t-19 7.5t-19 -8t-13 -28.5t-7 -57t-2 -93.5z" />
    <glyph glyph-name="afii10081" unicode="&#x43f;" horiz-adv-x="442" 
d="M407 0h-140v437h-92v-437h-140v540h372v-540z" />
    <glyph glyph-name="afii10082" unicode="&#x440;" horiz-adv-x="415" 
d="M35 -170v710h127l2 -42q22 26 47.5 41.5t54.5 15.5q30 0 53 -12.5t38.5 -45t24 -87.5t8.5 -140q0 -74 -8 -127t-25.5 -87t-46 -50t-70.5 -16q-38 0 -65 21v-181h-140zM208 446q-13 0 -33 -11v-356q12 -3 24 -3q13 0 23 7.5t16 29t9 60.5t3 102q0 55 -2.5 88.5t-8 52
t-13.5 24.5t-18 6z" />
    <glyph glyph-name="afii10083" unicode="&#x441;" horiz-adv-x="386" 
d="M205 457q-10 0 -16.5 -6t-10.5 -25.5t-6 -56t-2 -97.5t2 -97t6 -55.5t10.5 -25.5t15.5 -6q11 0 18 9t10.5 22.5t4.5 30.5t1 34l138 -16q-3 -29 -12 -60.5t-28.5 -57.5t-52 -43t-81.5 -17q-41 0 -73.5 13t-55.5 45.5t-35.5 87.5t-12.5 139q0 146 41 213t135 67
q52 0 84 -18t50 -44t25 -57t10 -56l-133 -20q-2 48 -8.5 72.5t-23.5 24.5z" />
    <glyph glyph-name="afii10084" unicode="&#x442;" horiz-adv-x="380" 
d="M370 431h-111v-431h-139v431h-110v109h360v-109z" />
    <glyph glyph-name="afii10085" unicode="&#x443;" horiz-adv-x="401" 
d="M282 -15q-17 -81 -56 -115.5t-99 -34.5q-37 0 -70 11v100q29 -8 49 -8t34 13.5t19 48.5h-46l-113 540h153l46 -428l63 428h139z" />
    <glyph glyph-name="afii10086" unicode="&#x444;" horiz-adv-x="568" 
d="M25 273q0 74 6.5 127.5t22 88t42.5 50.5t69 16q33 0 59 -17v132h120v-132q26 17 59 17q42 0 69 -16t42.5 -50.5t22 -88t6.5 -127.5t-6.5 -127.5t-22 -88t-42.5 -51t-69 -16.5q-34 0 -59 16v-176h-120v176q-26 -16 -59 -16q-42 0 -69 16.5t-42.5 51t-22 88t-6.5 127.5z
M206 469q-14 0 -22.5 -7.5t-13.5 -28.5t-6.5 -59.5t-1.5 -100.5t1.5 -100.5t6.5 -60t13.5 -29t22.5 -7.5h8q4 0 10 2v389q-5 1 -9.5 1.5t-8.5 0.5zM362 76q14 0 22.5 7.5t13.5 29t6.5 60t1.5 100.5t-1.5 100.5t-6.5 59.5t-13.5 28.5t-22.5 7.5q-5 0 -9 -0.5t-9 -1.5v-389
q5 -1 9 -1.5t9 -0.5z" />
    <glyph glyph-name="afii10087" unicode="&#x445;" horiz-adv-x="426" 
d="M290 298l131 -298h-165l-53 179l-52 -179h-146l120 285l-107 255h157l37 -143l35 143h141z" />
    <glyph glyph-name="afii10088" unicode="&#x446;" horiz-adv-x="445" 
d="M328 -115l-11 115h-282v540h140v-437h92v437h140v-436h25v-219h-104z" />
    <glyph glyph-name="afii10089" unicode="&#x447;" horiz-adv-x="422" 
d="M167 540v-223q0 -22 2 -35t6.5 -20.5t12 -10t18.5 -2.5q20 0 41 7v284h140v-540h-140v157q-42 -17 -91 -17q-71 0 -100 41.5t-29 136.5v222h140z" />
    <glyph glyph-name="afii10090" unicode="&#x448;" horiz-adv-x="617" 
d="M35 540h135v-437h75v437h126v-437h76v437h135v-540h-547v540z" />
    <glyph glyph-name="afii10091" unicode="&#x449;" horiz-adv-x="620" 
d="M503 -115l-11 115h-457v540h135v-437h75v437h126v-437h76v437h135v-436h25v-219h-104z" />
    <glyph glyph-name="afii10092" unicode="&#x44a;" horiz-adv-x="474" 
d="M5 540h232v-189h13q113 0 161 -43.5t48 -134.5q0 -40 -11.5 -72t-37 -54.5t-67 -34.5t-100.5 -12h-146v439h-92v101zM237 257v-165h8q33 0 52.5 18.5t19.5 66.5q0 43 -16.5 61.5t-50.5 18.5h-13z" />
    <glyph glyph-name="afii10093" unicode="&#x44b;" horiz-adv-x="594" 
d="M175 540v-189h13q113 0 161 -43.5t48 -134.5q0 -40 -11.5 -72t-37 -54.5t-67 -34.5t-100.5 -12h-146v540h140zM559 540v-540h-138v540h138zM175 257v-165h8q33 0 52.5 18.5t19.5 66.5q0 43 -16.5 61.5t-50.5 18.5h-13z" />
    <glyph glyph-name="afii10094" unicode="&#x44c;" horiz-adv-x="412" 
d="M175 540v-189h13q113 0 161 -43.5t48 -134.5q0 -40 -11.5 -72t-37 -54.5t-67 -34.5t-100.5 -12h-146v540h140zM175 257v-165h8q33 0 52.5 18.5t19.5 66.5q0 43 -16.5 61.5t-50.5 18.5h-13z" />
    <glyph glyph-name="afii10095" unicode="&#x44d;" horiz-adv-x="409" 
d="M96 226v94h149q-2 44 -6 71t-10.5 41.5t-14.5 19.5t-17 5q-19 0 -30.5 -14t-16.5 -53l-129 25q4 21 15 45.5t31.5 45.5t52.5 35t78 14q93 0 139.5 -66.5t46.5 -213.5q0 -84 -15 -139t-40.5 -87.5t-59.5 -45.5t-72 -13q-50 0 -82.5 14t-52.5 35t-30.5 46t-16.5 48l134 21
q2 -27 13 -46.5t34 -19.5q10 0 18 4.5t14.5 19t10.5 42t6 72.5h-149z" />
    <glyph glyph-name="afii10096" unicode="&#x44e;" horiz-adv-x="606" 
d="M175 540v-219h39q4 67 19 112t39 72t55.5 38.5t69.5 11.5q40 0 74 -13t58.5 -45.5t38 -87.5t13.5 -139t-13.5 -138t-38 -85.5t-58.5 -44t-74 -12.5q-38 0 -69.5 10.5t-55.5 36.5t-39 70t-19 111h-39v-218h-140v540h140zM356 270q0 -57 2 -92.5t7 -56t13 -27.5t20 -7
t19.5 7t12 27t6.5 55.5t2 93.5t-2 94.5t-7 57t-13 28t-19 7.5t-19 -8t-13 -28.5t-7 -57t-2 -93.5z" />
    <glyph glyph-name="afii10097" unicode="&#x44f;" horiz-adv-x="425" 
d="M2 0l104 220q-34 20 -53.5 55.5t-19.5 87.5q0 56 15 90.5t43 54t66.5 26t86.5 6.5h146v-540h-140v187h-16l-74 -187h-158zM178 363q0 -42 11 -62t47 -20h14v165h-8q-33 0 -48.5 -18.5t-15.5 -64.5z" />
    <glyph glyph-name="afii10071" unicode="&#x451;" horiz-adv-x="392" 
d="M44 613v112h130v-112h-130zM233 613v112h130v-112h-130z" />
    <glyph glyph-name="afii10099" unicode="&#x452;" horiz-adv-x="453" 
d="M65 0v595h-60v90h60v50h140v-50h118v-90h-118v-96q21 21 46.5 33.5t56.5 12.5q28 0 49 -9.5t34.5 -31.5t20 -58t6.5 -88v-358q0 -39 -7 -72t-22.5 -57t-40 -37t-59.5 -13q-20 0 -40 2.5t-38 7.5v101q13 -3 27 -3q23 0 31.5 17.5t8.5 52.5v369q0 43 -8.5 55.5t-29.5 12.5
q-15 0 -35 -11v-425h-140z" />
    <glyph glyph-name="afii10100" unicode="&#x453;" horiz-adv-x="363" 
d="M35 0v540h316v-103h-176v-437h-140zM198 735h152l-127 -137h-105z" />
    <glyph glyph-name="afii10101" unicode="&#x454;" horiz-adv-x="407" 
d="M166 226q1 -45 5.5 -72.5t11 -42t14.5 -19t17 -4.5q23 0 33.5 19.5t12.5 46.5l132 -21q-6 -23 -16.5 -48t-30 -46t-51 -35t-80.5 -14q-38 0 -72.5 13t-60.5 45.5t-41 87.5t-15 139q0 147 46.5 213.5t139.5 66.5q48 0 79.5 -14t51 -35t29.5 -45.5t15 -45.5l-127 -25
q-4 38 -15 52.5t-28 14.5q-9 0 -17 -5t-15 -19.5t-11.5 -41.5t-6.5 -71h148v-94h-148z" />
    <glyph glyph-name="afii10102" unicode="&#x455;" horiz-adv-x="373" 
d="M183 -10q-41 0 -71 12.5t-50.5 32t-33 43t-18.5 45.5l135 27q2 -26 11.5 -43.5t27.5 -17.5q17 0 25 14.5t8 39.5q0 17 -4.5 28.5t-15.5 20.5t-29 18.5t-45 22.5q-49 23 -76 61t-27 98q0 41 13 71.5t35.5 51t54 30.5t67.5 10q45 0 74 -12.5t47.5 -32t28.5 -42t16 -43.5
l-131 -26q-2 26 -8.5 42t-23.5 16q-33 0 -33 -49q0 -23 15 -39t57 -33q26 -11 49 -25t40 -33.5t27 -46.5t10 -64q0 -84 -43.5 -130.5t-131.5 -46.5z" />
    <glyph glyph-name="afii10103" unicode="&#x456;" horiz-adv-x="210" 
d="M35 0v540h140v-540h-140zM30 610v125h152v-125h-152z" />
    <glyph glyph-name="afii10104" unicode="&#x457;" horiz-adv-x="210" 
d="M35 0v540h140v-540h-140zM-54 613v112h130v-112h-130zM135 613v112h130v-112h-130z" />
    <glyph glyph-name="afii10105" unicode="&#x458;" horiz-adv-x="210" 
d="M-55 -50q11 -3 26 -5.5t24 -2.5q21 0 30.5 9t9.5 42v547h140v-550q0 -79 -33.5 -117t-105.5 -38q-23 0 -49 4.5t-42 10.5v100zM30 610v125h152v-125h-152z" />
    <glyph glyph-name="afii10106" unicode="&#x459;" horiz-adv-x="674" 
d="M412 351h16q65 0 109.5 -11t71.5 -33t38.5 -55.5t11.5 -78.5q0 -40 -12.5 -72t-41 -54.5t-73.5 -34.5t-109 -12h-150l3 6v431h-43l-32 -230q-8 -58 -19 -97.5t-32.5 -64t-56 -35t-88.5 -10.5v105q19 0 31 5.5t19 16.5t11 29t8 44l47 340h291v-189zM412 257v-165h21
q33 0 57.5 18.5t24.5 66.5q0 42 -21.5 61t-55.5 19h-26z" />
    <glyph glyph-name="afii10107" unicode="&#x45a;" horiz-adv-x="668" 
d="M407 540v-189h15q65 0 109.5 -11t71.5 -33t38.5 -55.5t11.5 -78.5q0 -40 -12.5 -72t-41 -54.5t-73.5 -34.5t-109 -12h-150v218h-92v-218h-140v540h140v-219h92v219h140zM407 257v-165h20q33 0 57.5 18.5t24.5 66.5q0 42 -21.5 61t-55.5 19h-25z" />
    <glyph glyph-name="afii10108" unicode="&#x45b;" horiz-adv-x="453" 
d="M65 0v595h-60v90h60v50h140v-50h118v-90h-118v-96q21 21 46.5 33.5t56.5 12.5q28 0 49 -9.5t34.5 -31.5t20 -58t6.5 -88v-358h-140v368q0 43 -8.5 55.5t-29.5 12.5q-15 0 -35 -11v-425h-140z" />
    <glyph glyph-name="afii10109" unicode="&#x45c;" horiz-adv-x="463" 
d="M296 0l-121 221v-221h-140v540h140v-211l111 211h144l-143 -251l176 -289h-167zM212 735h152l-127 -137h-105z" />
    <glyph glyph-name="afii10110" unicode="&#x45e;" horiz-adv-x="401" 
d="M282 -15q-17 -81 -56 -115.5t-99 -34.5q-37 0 -70 11v100q29 -8 49 -8t34 13.5t19 48.5h-46l-113 540h153l46 -428l63 428h139zM198 674q14 0 22 14t10 47h119q-3 -38 -16.5 -62.5t-34.5 -39.5t-47 -21t-54 -6q-27 0 -53 6t-46.5 21t-34 39.5t-16.5 62.5h119
q2 -33 10 -47t22 -14z" />
    <glyph glyph-name="afii10193" unicode="&#x45f;" horiz-adv-x="442" 
d="M168 -115l-6 115h-127v540h140v-437h92v437h140v-540h-126l-5 -115h-108z" />
    <glyph glyph-name="afii10146" unicode="&#x462;" horiz-adv-x="471" 
d="M195 555v-125h13q67 0 114 -13.5t76.5 -40.5t42.5 -68.5t13 -96.5q0 -58 -13.5 -98t-43 -65t-77 -36.5t-114.5 -11.5h-161v555h-40v105h40v60h150v-60h168v-105h-168zM195 328v-226h18q24 0 40.5 5t27 17.5t15 33.5t4.5 53q0 55 -16 86t-66 31h-23z" />
    <glyph glyph-name="afii10194" unicode="&#x463;" horiz-adv-x="441" 
d="M40 0v450h-35v90h35v195h140v-195h123v-90h-123v-99h15q65 0 109.5 -11t71.5 -33t38.5 -55.5t11.5 -78.5q0 -40 -12.5 -72t-40.5 -54.5t-73 -34.5t-109 -12h-151zM180 257v-165h20q33 0 57.5 18.5t24.5 66.5q0 42 -21.5 61t-55.5 19h-25z" />
    <glyph glyph-name="afii10147" unicode="&#x472;" horiz-adv-x="489" 
d="M33 360q0 105 11.5 176.5t36.5 115.5t65.5 63.5t97.5 19.5t97.5 -19.5t66 -63.5t37 -115.5t11.5 -176.5t-10 -176.5t-34 -115.5t-65 -63.5t-103 -19.5q-57 0 -97.5 19.5t-65.5 63.5t-36.5 115.5t-11.5 176.5zM244 95q17 0 28 11t17.5 35.5t9.5 65.5t4 101h-117
q0 -60 2.5 -101t9 -66t17.5 -35.5t29 -10.5zM244 626q-18 0 -29 -10.5t-17.5 -35t-9 -65t-2.5 -99.5h117q-1 59 -3.5 99t-9 65t-17.5 35.5t-29 10.5z" />
    <glyph glyph-name="afii10195" unicode="&#x473;" horiz-adv-x="439" 
d="M25 270q0 83 15.5 138t41.5 87.5t61.5 46t76.5 13.5q40 0 75.5 -13t62 -45.5t41.5 -87.5t15 -139t-15 -138t-41.5 -85.5t-62 -44t-75.5 -12.5q-41 0 -76.5 12.5t-61.5 44.5t-41.5 86t-15.5 137zM220 457q-10 0 -19 -6.5t-16 -22.5t-12 -44t-6 -71h105q-2 44 -6.5 72
t-11 44t-15.5 22t-19 6zM221 87q10 0 18.5 5t15 20t11 41t6.5 68h-104q1 -41 5.5 -67t11.5 -41t16 -20.5t20 -5.5z" />
    <glyph glyph-name="afii10148" unicode="&#x474;" horiz-adv-x="498" 
d="M498 720q-17 -21 -29 -42.5t-21.5 -47t-17 -57t-14.5 -71.5l-91 -502h-179l-141 720h154l79 -591l49 386q10 81 29 131.5t43 73.5h139z" />
    <glyph glyph-name="afii10196" unicode="&#x475;" horiz-adv-x="427" 
d="M427 540q-14 -14 -23.5 -29.5t-17 -36t-13.5 -48t-13 -64.5l-72 -362h-182l-106 540h153l48 -420l35 255q10 72 22 110t33 55h136z" />
    <glyph glyph-name="afii10050" unicode="&#x490;" horiz-adv-x="397" 
d="M392 603h-197v-603h-150v720h232v108h115v-225z" />
    <glyph glyph-name="afii10098" unicode="&#x491;" horiz-adv-x="363" 
d="M353 437h-178v-437h-140v540h218v120h100v-223z" />
    <glyph glyph-name="uni0492" unicode="&#x492;" horiz-adv-x="412" 
d="M55 0v307h-45v96h45v317h347v-117h-197v-200h152v-96h-152v-307h-150z" />
    <glyph glyph-name="uni0493" unicode="&#x493;" horiz-adv-x="373" 
d="M361 437h-176v-136h138v-90h-138v-211h-140v211h-40v90h40v239h316v-103z" />
    <glyph glyph-name="uni0496" unicode="&#x496;" horiz-adv-x="720" 
d="M680 720l-138 -334l124 -278h48v-243h-120l-11 135h-35l-116 319v-319h-147v319l-116 -319h-166l172 386l-138 334h148l100 -303v303h147v-303l100 303h148z" />
    <glyph glyph-name="uni0497" unicode="&#x497;" horiz-adv-x="657" 
d="M621 540l-114 -251l94 -185h53v-219h-104l-11 115h-38l-108 231v-231h-130v240l-108 -240h-153l147 289l-114 251h135l93 -229v229h130v-219l93 219h135z" />
    <glyph glyph-name="uni0498" unicode="&#x498;" horiz-adv-x="424" 
d="M330 -142q0 -51 -32 -81t-99 -30q-31 0 -59.5 8.5t-51.5 23.5l37 71q9 -6 23.5 -11.5t32.5 -5.5q23 0 31.5 9.5t8.5 21.5q0 20 -17 29t-53 13l21 82q-37 6 -64 24t-45.5 43.5t-28.5 57t-14 64.5l145 17q1 -18 3.5 -36.5t7 -33.5t12.5 -24.5t21 -9.5q21 0 32 27t11 93
q0 41 -5 65t-14.5 36t-23 15.5t-31.5 3.5h-25v109h33q10 0 19.5 3t17 12.5t12 27t4.5 46.5q0 57 -9.5 79.5t-27.5 22.5q-11 0 -18 -8t-11.5 -22.5t-7 -33.5t-4.5 -40l-145 17q14 87 60.5 139.5t135.5 52.5q40 0 73.5 -10t58 -33t38 -62t13.5 -96q0 -24 -5.5 -48t-17.5 -43.5
t-30 -33.5t-42 -18q49 -5 78 -47q29 -44 29 -131q0 -102 -38.5 -155.5t-107.5 -67.5l-4 -41q38 -11 55.5 -36.5t17.5 -54.5z" />
    <glyph glyph-name="uni0499" unicode="&#x499;" horiz-adv-x="403" 
d="M188 89q19 0 33 16.5t14 62.5q0 36 -18 49.5t-53 13.5h-30v94h38q20 0 35 13.5t15 51.5q0 37 -10.5 52.5t-26.5 15.5q-23 0 -32 -24t-11 -54l-124 17q5 40 20 70t38.5 49.5t53.5 29t64 9.5q36 0 67 -9t53.5 -28t35.5 -47t13 -66q0 -18 -5 -37t-15.5 -36t-27 -29.5
t-39.5 -17.5q48 -5 75 -40.5t27 -92.5q0 -69 -37 -108.5t-94 -49.5l-5 -45q38 -11 55 -36.5t17 -54.5q0 -51 -33 -81t-96 -30q-31 0 -59.5 8.5t-51.5 23.5l37 68q9 -6 23.5 -11.5t32.5 -5.5q23 0 33 11t10 23q0 38 -73 45l22 85q-66 12 -100.5 54t-43.5 99l127 17
q2 -28 13 -51.5t33 -23.5z" />
    <glyph glyph-name="uni049A" unicode="&#x49a;" horiz-adv-x="507" 
d="M463 720l-159 -334l142 -278h55v-243h-120l-11 135h-42l-133 297v-297h-150v720h150v-280l117 280h151z" />
    <glyph glyph-name="uni049B" unicode="&#x49b;" horiz-adv-x="466" 
d="M430 540l-143 -251l112 -185h64v-219h-104l-11 115h-52l-121 221v-221h-140v540h140v-211l111 211h144z" />
    <glyph glyph-name="uni049C" unicode="&#x49c;" horiz-adv-x="564" 
d="M388 0l-108 295v-161h-60v184h-25v-318h-150v720h150v-309h25v196h60v-163l92 276h151l-129 -334l167 -386h-173z" />
    <glyph glyph-name="uni049D" unicode="&#x49d;" horiz-adv-x="503" 
d="M339 0l-92 184v-133h-55v185h-17v-236h-140v540h140v-214h17v158h55v-106l70 162h143l-121 -251l164 -289h-164z" />
    <glyph glyph-name="uni04A0" unicode="&#x4a0;" horiz-adv-x="514" 
d="M5 720h200v-280l117 280h151l-159 -334l197 -386h-173l-133 297v-297h-150v610h-50v110z" />
    <glyph glyph-name="uni04A1" unicode="&#x4a1;" horiz-adv-x="513" 
d="M35 540h190v-211l111 211h144l-143 -251l176 -289h-167l-121 221v-221h-140v440h-50v100z" />
    <glyph glyph-name="uni04A2" unicode="&#x4a2;" horiz-adv-x="503" 
d="M455 720v-612h25v-243h-120l-11 135h-44v310h-110v-310h-150v720h150v-302h110v302h150z" />
    <glyph glyph-name="uni04A3" unicode="&#x4a3;" horiz-adv-x="445" 
d="M407 540v-436h25v-219h-104l-11 115h-50v218h-92v-218h-140v540h140v-219h92v219h140z" />
    <glyph glyph-name="uni04AA" unicode="&#x4aa;" horiz-adv-x="452" 
d="M395 -212q-26 -14 -50.5 -21t-53.5 -7q-69 0 -104 33.5t-35 93.5q0 37 19 63t40 38q-44 4 -77 24.5t-55.5 63.5t-34 112.5t-11.5 171.5q0 112 14.5 185t42 115t67.5 58.5t91 16.5q53 0 87 -20.5t54.5 -51t29.5 -65.5t12 -65l-139 -17q-2 21 -4 40.5t-7 35.5t-13.5 25.5
t-22.5 9.5q-17 0 -28 -12t-17 -42t-8 -82t-2 -131q0 -80 2 -131.5t8 -81.5t17 -41.5t28 -11.5q15 0 24.5 10t15.5 26.5t8.5 37.5t2.5 44l141 -15q-3 -26 -9.5 -55.5t-20 -57t-35.5 -50.5t-55 -36q-45 -45 -45 -97q0 -22 12 -32.5t32 -10.5q19 0 58 14z" />
    <glyph glyph-name="uni04AB" unicode="&#x4ab;" horiz-adv-x="386" 
d="M205 457q-10 0 -16.5 -6t-10.5 -25.5t-6 -56t-2 -97.5t2 -97t6 -55.5t10.5 -25.5t15.5 -6q11 0 18 9t10.5 22.5t4.5 30.5t1 34l138 -16q-3 -23 -9 -48t-18 -47.5t-31 -41.5t-47 -30q-49 -46 -49 -100q0 -22 12 -32.5t32 -10.5q19 0 58 14l21 -84q-26 -14 -50.5 -21
t-53.5 -7q-69 0 -104 33.5t-35 93.5q0 32 18 61t48 46q-35 5 -62 22.5t-45 51t-27 84.5t-9 123q0 146 41 213t135 67q52 0 84 -18t50 -44t25 -57t10 -56l-133 -20q-2 48 -8.5 72.5t-23.5 24.5z" />
    <glyph glyph-name="uni04AE" unicode="&#x4ae;" horiz-adv-x="452" 
d="M452 720l-154 -432v-288h-144v288l-154 432h162l68 -287l82 287h140z" />
    <glyph glyph-name="uni04AF" unicode="&#x4af;" horiz-adv-x="402" 
d="M128 -170v182l-128 528h153l51 -397l56 397h142l-134 -528v-182h-140z" />
    <glyph glyph-name="uni04B0" unicode="&#x4b0;" horiz-adv-x="466" 
d="M459 720l-151 -424h106v-95h-109v-201h-144v201h-109v95h106l-151 424h162l68 -287l82 287h140z" />
    <glyph glyph-name="uni04B1" unicode="&#x4b1;" horiz-adv-x="402" 
d="M402 540l-120 -472h90v-90h-104v-148h-140v148h-98v90h84l-114 472h153l51 -397l56 397h142z" />
    <glyph glyph-name="uni04B2" unicode="&#x4b2;" horiz-adv-x="477" 
d="M317 391l110 -283h42v-243h-120l-11 135h-38l-70 242l-81 -242h-144l151 381l-136 339h164l61 -194l66 194h142z" />
    <glyph glyph-name="uni04B3" unicode="&#x4b3;" horiz-adv-x="429" 
d="M290 298l85 -194h46v-219h-104l-11 115h-50l-53 179l-52 -179h-146l120 285l-107 255h157l37 -143l35 143h141z" />
    <glyph glyph-name="uni04B8" unicode="&#x4b8;" horiz-adv-x="517" 
d="M198 243q-41 0 -71 11t-49.5 36.5t-28.5 66.5t-9 102v261h150v-260q0 -52 10 -73.5t27 -28.5v249h65v-253q10 1 19 2t17 3v361h144v-720h-144v255l-36 -6v-115h-65v109h-29z" />
    <glyph glyph-name="uni04B9" unicode="&#x4b9;" horiz-adv-x="452" 
d="M167 540v-223q0 -29 7.5 -44t19.5 -20v231h55v-232l28 7v281h140v-540h-140v160q-14 -6 -28 -9v-100h-55v90q-4 -1 -12 -1h-11q-71 0 -107.5 41t-36.5 137v222h140z" />
    <glyph glyph-name="uni04BA" unicode="&#x4ba;" horiz-adv-x="477" 
d="M45 0v720h144v-243q33 10 95 10q41 0 69.5 -11t46 -36.5t25 -66.5t7.5 -102v-271h-150v270q0 37 -3 58.5t-8.5 32t-14.5 13.5t-21 3q-30 0 -46 -4v-373h-144z" />
    <glyph glyph-name="uni04BB" unicode="&#x4bb;" horiz-adv-x="423" 
d="M35 0v735h140v-226q21 21 46.5 33.5t56.5 12.5q28 0 49 -9.5t34.5 -31.5t20 -58t6.5 -88v-368h-140v378q0 43 -8.5 55.5t-29.5 12.5q-15 0 -35 -11v-435h-140z" />
    <glyph glyph-name="uni04C0" unicode="&#x4c0;" horiz-adv-x="240" 
d="M195 720v-720h-150v720h150z" />
    <glyph glyph-name="uni04CB" unicode="&#x4cb;" horiz-adv-x="491" 
d="M433 720v-612h35v-243h-120l-11 135h-54v252q-18 -4 -41.5 -6.5t-53.5 -2.5q-41 0 -69.5 11t-46 36.5t-25 66.5t-7.5 102v261h150v-260q0 -37 3 -58.5t8.5 -32t14.5 -13.5t21 -3q31 0 46 4v363h150z" />
    <glyph glyph-name="uni04CC" unicode="&#x4cc;" horiz-adv-x="433" 
d="M395 540v-436h25v-219h-104l-11 115h-50v157q-42 -17 -91 -17q-71 0 -100 41.5t-29 136.5v222h140v-223q0 -22 2 -35t6.5 -20.5t12 -10t18.5 -2.5q20 0 41 7v284h140z" />
    <glyph glyph-name="uni04CF" unicode="&#x4cf;" horiz-adv-x="240" 
d="M195 720v-720h-150v720h150z" />
    <glyph glyph-name="uni04D8" unicode="&#x4d8;" horiz-adv-x="491" 
d="M246 628q-14 0 -24 -9.5t-17.5 -24.5t-12 -32.5t-5.5 -33.5l-138 20q4 25 14 57.5t32 61.5t57.5 48.5t90.5 19.5q68 0 110 -28t65.5 -78t31.5 -119t8 -150q0 -92 -10 -162t-34 -117.5t-65 -71.5t-104 -24q-56 0 -96 22t-65.5 70.5t-38 125t-12.5 185.5h281
q-2 127 -16.5 183.5t-51.5 56.5zM249 92q13 0 24 8t19.5 29.5t13.5 60t7 98.5h-134q1 -59 7 -96.5t15 -60t21.5 -31t26.5 -8.5z" />
    <glyph glyph-name="afii10846" unicode="&#x4d9;" horiz-adv-x="392" 
d="M188 454q-31 0 -37 -66l-125 20q4 25 14.5 51.5t30 47.5t49 34.5t71.5 13.5q95 0 135.5 -67.5t40.5 -212.5q0 -79 -10.5 -133.5t-32 -88t-54 -48.5t-77.5 -15q-58 0 -91.5 22t-50.5 63t-21.5 101t-4.5 137h203q-1 46 -4 74t-8 43t-12 19.5t-16 4.5zM190 80q10 0 16.5 4.5
t10.5 19.5t6.5 42.5t3.5 74.5h-76q0 -47 2.5 -74.5t7.5 -42.5t12 -19.5t17 -4.5z" />
    <glyph glyph-name="uni04E2" unicode="&#x4e2;" horiz-adv-x="536" 
d="M188 720v-416l159 366v50h144v-720h-143v423l-159 -373v-50h-144v720h143zM133 781v104h270v-104h-270z" />
    <glyph glyph-name="uni04E3" unicode="&#x4e3;" horiz-adv-x="437" 
d="M167 540v-297l102 267v30h133v-540h-133v292l-102 -262v-30h-132v540h132zM83 631v104h270v-104h-270z" />
    <glyph glyph-name="uni04E8" unicode="&#x4e8;" horiz-adv-x="489" 
d="M33 360q0 105 11.5 176.5t36.5 115.5t65.5 63.5t97.5 19.5t97.5 -19.5t66 -63.5t37 -115.5t11.5 -176.5t-10 -176.5t-34 -115.5t-65 -63.5t-103 -19.5q-57 0 -97.5 19.5t-65.5 63.5t-36.5 115.5t-11.5 176.5zM244 95q17 0 28 11t17.5 35.5t9.5 65.5t4 101h-117
q0 -60 2.5 -101t9 -66t17.5 -35.5t29 -10.5zM244 626q-18 0 -29 -10.5t-17.5 -35t-9 -65t-2.5 -99.5h117q-1 59 -3.5 99t-9 65t-17.5 35.5t-29 10.5z" />
    <glyph glyph-name="uni04E9" unicode="&#x4e9;" horiz-adv-x="439" 
d="M25 270q0 83 15.5 138t41.5 87.5t61.5 46t76.5 13.5q40 0 75.5 -13t62 -45.5t41.5 -87.5t15 -139t-15 -138t-41.5 -85.5t-62 -44t-75.5 -12.5q-41 0 -76.5 12.5t-61.5 44.5t-41.5 86t-15.5 137zM220 457q-10 0 -19 -6.5t-16 -22.5t-12 -44t-6 -71h105q-2 44 -6.5 72
t-11 44t-15.5 22t-19 6zM221 87q10 0 18.5 5t15 20t11 41t6.5 68h-104q1 -41 5.5 -67t11.5 -41t16 -20.5t20 -5.5z" />
    <glyph glyph-name="uni04EE" unicode="&#x4ee;" horiz-adv-x="439" 
d="M310 145q-9 -40 -22.5 -70t-33.5 -50t-48.5 -30t-68.5 -10q-22 0 -42 5t-35 10v106q13 -6 26 -10t30 -4q26 0 37 16.5t16 51.5h-49l-115 560h154l60 -446l68 446h147zM84 781v104h270v-104h-270z" />
    <glyph glyph-name="uni04EF" unicode="&#x4ef;" horiz-adv-x="401" 
d="M282 -15q-17 -81 -56 -115.5t-99 -34.5q-37 0 -70 11v100q29 -8 49 -8t34 13.5t19 48.5h-46l-113 540h153l46 -428l63 428h139zM65 631v104h270v-104h-270z" />
    <glyph glyph-name="uni1E02" unicode="&#x1e02;" horiz-adv-x="471" 
d="M192 720q58 0 102.5 -8.5t74.5 -30.5t45 -58.5t15 -93.5q0 -54 -24.5 -94.5t-75.5 -54.5q25 -3 48 -15.5t40 -33.5t27 -51t10 -69q0 -58 -13.5 -98t-43 -65t-77 -36.5t-114.5 -11.5h-161v720h147zM195 328v-226h18q24 0 40.5 5t27 17.5t15 33.5t4.5 53q0 55 -16 86
t-66 31h-23zM195 618v-194h13q15 0 28 4t22.5 15.5t15.5 31t6 51.5q0 48 -18.5 70t-56.5 22h-10zM159 770v115h152v-115h-152z" />
    <glyph glyph-name="uni1E03" unicode="&#x1e03;" horiz-adv-x="408" 
d="M35 0v735h140v-233q20 24 43 38.5t51 14.5q30 0 51.5 -12t35.5 -43t20.5 -85.5t6.5 -139.5q0 -74 -6.5 -128t-22 -89t-42.5 -51.5t-69 -16.5q-31 0 -54.5 14t-37.5 35l-31 -39h-85zM211 446q-8 0 -16.5 -3.5t-19.5 -8.5v-354q12 -4 27 -4q14 0 22 8.5t12.5 31.5t5.5 62.5
t1 101.5q0 53 -1 85.5t-4.5 50.5t-10 24t-16.5 6zM195 621v115h152v-115h-152z" />
    <glyph glyph-name="uni1E0A" unicode="&#x1e0a;" horiz-adv-x="499" 
d="M207 720q61 0 109 -14t81.5 -53.5t51 -110t17.5 -182.5q0 -113 -18.5 -183t-52.5 -109.5t-81.5 -53.5t-104.5 -14h-164v720h162zM195 612v-503h14q27 0 46 9.5t32 36.5t19 76t6 129q0 79 -6 128.5t-19 77t-33 37t-47 9.5h-12zM173 770v115h152v-115h-152z" />
    <glyph glyph-name="uni1E0B" unicode="&#x1e0b;" horiz-adv-x="412" 
d="M25 270q0 74 7 128t23.5 89t44 51.5t69.5 16.5q39 0 68 -24v204h140v-735h-95l-32 57q-21 -29 -46 -48t-57 -19q-30 0 -52.5 12t-38 43t-23.5 85.5t-8 139.5zM203 99q14 0 34 11v354q-20 5 -29 5q-14 0 -22.5 -8.5t-13 -31.5t-6 -62.5t-1.5 -101.5q0 -53 2 -85.5
t6.5 -50.5t11.5 -24t18 -6zM65 621v115h152v-115h-152z" />
    <glyph glyph-name="uni1E1E" unicode="&#x1e1e;" horiz-adv-x="379" 
d="M332 295h-137v-295h-150v720h317v-113h-167v-204h137v-108zM113 770v115h152v-115h-152z" />
    <glyph glyph-name="uni1E1F" unicode="&#x1e1f;" horiz-adv-x="262" 
d="M292 629q-15 5 -30 7.5t-27 2.5q-26 0 -35.5 -10.5t-9.5 -42.5v-46h81v-100h-81v-440h-140v440h-50v100h50v40q0 47 10.5 79t29 51t45.5 27t60 8q34 0 57.5 -5t39.5 -10v-101zM98 770v115h152v-115h-152z" />
    <glyph glyph-name="uni1E40" unicode="&#x1e40;" horiz-adv-x="652" 
d="M267 0l-96 509v-509h-126v720h195l84 -492l83 492h200v-720h-137v509l-91 -509h-112zM250 770v115h152v-115h-152z" />
    <glyph glyph-name="uni1E41" unicode="&#x1e41;" horiz-adv-x="610" 
d="M35 0v540h95l24 -52q23 30 51.5 48.5t64.5 18.5q33 0 54.5 -13.5t33.5 -43.5q21 26 48.5 41.5t63.5 15.5q28 0 48 -9.5t33 -31.5t18.5 -58t5.5 -88v-368h-140v378q0 22 -1 35t-4.5 20.5t-10 10t-16.5 2.5q-14 0 -31 -10q3 -30 3 -68v-368h-140v378q0 22 -1 35t-4.5 20.5
t-10 10t-16.5 2.5t-28 -8v-438h-140zM229 610v125h152v-125h-152z" />
    <glyph glyph-name="uni1E56" unicode="&#x1e56;" horiz-adv-x="461" 
d="M201 720q57 0 102.5 -9.5t77 -35.5t48.5 -72.5t17 -120.5t-16.5 -120.5t-47.5 -72.5t-75.5 -35.5t-99.5 -9.5h-12v-244h-150v720h156zM195 613v-262h14q19 0 34 5t25.5 19t16 39.5t5.5 67.5t-5 67.5t-15.5 39.5t-27 19t-39.5 5h-8zM154 770v115h152v-115h-152z" />
    <glyph glyph-name="uni1E57" unicode="&#x1e57;" horiz-adv-x="405" 
d="M35 -170v710h95l25 -54q23 31 51 50t60 19q30 0 51.5 -12t35.5 -43t20.5 -85.5t6.5 -139.5q0 -74 -6.5 -128t-22 -89t-42.5 -51.5t-69 -16.5q-38 0 -65 21v-181h-140zM208 446q-13 0 -33 -11v-356q12 -3 24 -3q14 0 22 8.5t12.5 31.5t5.5 62.5t1 101.5q0 53 -1 85.5
t-4.5 50.5t-10 24t-16.5 6zM126 610v125h152v-125h-152z" />
    <glyph glyph-name="uni1E60" unicode="&#x1e60;" horiz-adv-x="426" 
d="M211 626q-20 0 -32 -17t-12 -53q0 -18 3.5 -33t15 -30t32.5 -30t56 -33q34 -18 58 -39.5t39.5 -49t22.5 -63t7 -81.5q0 -100 -48.5 -156t-145.5 -56q-52 0 -87 17.5t-57 44.5t-33 58.5t-15 59.5l141 20q2 -36 13.5 -63t38.5 -27q19 0 31.5 18t12.5 70q0 27 -4 45t-16 33
t-33 29.5t-54 33.5q-60 34 -92.5 82.5t-32.5 126.5q0 44 13 81t37.5 64t60.5 42t82 15q48 0 81 -16t54.5 -41t33 -55.5t16.5 -58.5l-139 -25q-5 38 -14 62.5t-34 24.5zM137 770v115h152v-115h-152z" />
    <glyph glyph-name="uni1E61" unicode="&#x1e61;" horiz-adv-x="373" 
d="M183 -10q-41 0 -71 12.5t-50.5 32t-33 43t-18.5 45.5l135 27q2 -26 11.5 -43.5t27.5 -17.5q17 0 25 14.5t8 39.5q0 17 -4.5 28.5t-15.5 20.5t-29 18.5t-45 22.5q-49 23 -76 61t-27 98q0 41 13 71.5t35.5 51t54 30.5t67.5 10q45 0 74 -12.5t47.5 -32t28.5 -42t16 -43.5
l-131 -26q-2 26 -8.5 42t-23.5 16q-33 0 -33 -49q0 -23 15 -39t57 -33q26 -11 49 -25t40 -33.5t27 -46.5t10 -64q0 -84 -43.5 -130.5t-131.5 -46.5zM110 610v125h152v-125h-152z" />
    <glyph glyph-name="uni1E6A" unicode="&#x1e6a;" horiz-adv-x="400" 
d="M395 603h-121v-603h-150v603h-119v117h390v-117zM124 770v115h152v-115h-152z" />
    <glyph glyph-name="uni1E6B" unicode="&#x1e6b;" horiz-adv-x="273" 
d="M267 5q-19 -6 -40.5 -9t-40.5 -3q-69 0 -101.5 35.5t-32.5 120.5v291h-52v100h53l9 130h130v-130h76v-100h-76v-296q0 -32 7.5 -40t25.5 -8q11 0 22.5 2t19.5 4v-97zM50 710v125h152v-125h-152z" />
    <glyph glyph-name="uni1E6C" unicode="&#x1e6c;" horiz-adv-x="400" 
d="M395 603h-121v-603h-150v603h-119v117h390v-117zM124 -170v125h152v-125h-152z" />
    <glyph glyph-name="uni1E6D" unicode="&#x1e6d;" horiz-adv-x="273" 
d="M267 5q-19 -6 -40.5 -9t-40.5 -3q-69 0 -101.5 35.5t-32.5 120.5v291h-52v100h53l9 130h130v-130h76v-100h-76v-296q0 -32 7.5 -40t25.5 -8q11 0 22.5 2t19.5 4v-97zM90 -170v125h152v-125h-152z" />
    <glyph glyph-name="Wgrave" unicode="&#x1e80;" horiz-adv-x="638" 
d="M628 720l-77 -720h-186l-47 595l-49 -595h-182l-77 720h143l37 -590l49 590h167l47 -588l43 588h132zM397 768h-110l-122 117h152z" />
    <glyph glyph-name="wgrave" unicode="&#x1e81;" horiz-adv-x="584" 
d="M577 540l-86 -540h-157l-41 410l-55 -410h-159l-72 540h142l20 -439l56 439h145l46 -438l32 438h129zM386 598h-105l-127 137h152z" />
    <glyph glyph-name="Wacute" unicode="&#x1e82;" horiz-adv-x="638" 
d="M628 720l-77 -720h-186l-47 595l-49 -595h-182l-77 720h143l37 -590l49 590h167l47 -588l43 588h132zM334 885h152l-122 -117h-110z" />
    <glyph glyph-name="wacute" unicode="&#x1e83;" horiz-adv-x="584" 
d="M577 540l-86 -540h-157l-41 410l-55 -410h-159l-72 540h142l20 -439l56 439h145l46 -438l32 438h129zM292 735h152l-127 -137h-105z" />
    <glyph glyph-name="Wdieresis" unicode="&#x1e84;" horiz-adv-x="638" 
d="M628 720l-77 -720h-186l-47 595l-49 -595h-182l-77 720h143l37 -590l49 590h167l47 -588l43 588h132zM160 773v102h130v-102h-130zM349 773v102h130v-102h-130z" />
    <glyph glyph-name="wdieresis" unicode="&#x1e85;" horiz-adv-x="584" 
d="M577 540l-86 -540h-157l-41 410l-55 -410h-159l-72 540h142l20 -439l56 439h145l46 -438l32 438h129zM133 613v112h130v-112h-130zM322 613v112h130v-112h-130z" />
    <glyph glyph-name="uni1EA0" unicode="&#x1ea0;" horiz-adv-x="490" 
d="M329 0l-26 167h-131l-27 -167h-143l159 720h165l162 -720h-159zM188 269h99l-48 316zM169 -170v125h152v-125h-152z" />
    <glyph glyph-name="uni1EA1" unicode="&#x1ea1;" horiz-adv-x="400" 
d="M276 0l-28 51q-17 -26 -45 -42.5t-70 -16.5q-27 0 -49 9t-37 28.5t-23.5 51t-8.5 77.5q0 37 7 69t24.5 56.5t46.5 40.5t74 21l58 6v40q0 39 -6 54t-21 15t-21 -18t-8 -48l-135 20q5 22 15.5 47t30 46t50.5 34.5t78 13.5q86 0 121.5 -46t35.5 -143v-366h-89zM192 91
q7 0 15.5 2t17.5 7v169l-25 -3q-23 -3 -33 -24t-10 -66q0 -52 9.5 -68.5t25.5 -16.5zM124 -170v125h152v-125h-152z" />
    <glyph glyph-name="uni1EA2" unicode="&#x1ea2;" horiz-adv-x="490" 
d="M357 864q0 -29 -15 -52.5t-50 -34.5l-4 -21h-76l-3 58q26 5 42 14t16 31q0 31 -30 31q-18 0 -27.5 -11.5t-12.5 -28.5l-79 18q14 43 45.5 67.5t79.5 24.5q22 0 43 -5.5t36.5 -17t25 -30t9.5 -43.5zM329 0l-26 167h-131l-27 -167h-143l159 720h165l162 -720h-159zM188 269
h99l-48 316z" />
    <glyph glyph-name="uni1EA3" unicode="&#x1ea3;" horiz-adv-x="400" 
d="M276 0l-28 51q-17 -26 -45 -42.5t-70 -16.5q-27 0 -49 9t-37 28.5t-23.5 51t-8.5 77.5q0 37 7 69t24.5 56.5t46.5 40.5t74 21l58 6v40q0 39 -6 54t-21 15t-21 -18t-8 -48l-135 20q5 22 15.5 47t30 46t50.5 34.5t78 13.5q86 0 121.5 -46t35.5 -143v-366h-89zM192 91
q7 0 15.5 2t17.5 7v169l-25 -3q-23 -3 -33 -24t-10 -66q0 -52 9.5 -68.5t25.5 -16.5zM318 708q0 -29 -15 -52.5t-50 -34.5l-4 -21h-76l-3 58q26 5 42 14t16 31q0 31 -30 31q-18 0 -27.5 -11.5t-12.5 -28.5l-79 18q14 43 45.5 67.5t79.5 24.5q22 0 43 -5.5t36.5 -17t25 -30
t9.5 -43.5z" />
    <glyph glyph-name="uni1EA4" unicode="&#x1ea4;" horiz-adv-x="490" 
d="M329 0l-26 167h-131l-27 -167h-143l159 720h165l162 -720h-159zM188 269h99l-48 316zM402 768h-125l-38 37l-38 -37h-125l105 117h116zM436 945h152l-101 -137h-95z" />
    <glyph glyph-name="uni1EA5" unicode="&#x1ea5;" horiz-adv-x="400" 
d="M276 0l-28 51q-17 -26 -45 -42.5t-70 -16.5q-27 0 -49 9t-37 28.5t-23.5 51t-8.5 77.5q0 37 7 69t24.5 56.5t46.5 40.5t74 21l58 6v40q0 39 -6 54t-21 15t-21 -18t-8 -48l-135 20q5 22 15.5 47t30 46t50.5 34.5t78 13.5q86 0 121.5 -46t35.5 -143v-366h-89zM192 91
q7 0 15.5 2t17.5 7v169l-25 -3q-23 -3 -33 -24t-10 -66q0 -52 9.5 -68.5t25.5 -16.5zM363 598h-122l-41 52l-41 -52h-122l105 137h116zM397 775h152l-101 -137h-95z" />
    <glyph glyph-name="uni1EA6" unicode="&#x1ea6;" horiz-adv-x="490" 
d="M329 0l-26 167h-131l-27 -167h-143l159 720h165l162 -720h-159zM188 269h99l-48 316zM402 768h-125l-38 37l-38 -37h-125l105 117h116zM81 808h-95l-101 137h152z" />
    <glyph glyph-name="uni1EA7" unicode="&#x1ea7;" horiz-adv-x="400" 
d="M276 0l-28 51q-17 -26 -45 -42.5t-70 -16.5q-27 0 -49 9t-37 28.5t-23.5 51t-8.5 77.5q0 37 7 69t24.5 56.5t46.5 40.5t74 21l58 6v40q0 39 -6 54t-21 15t-21 -18t-8 -48l-135 20q5 22 15.5 47t30 46t50.5 34.5t78 13.5q86 0 121.5 -46t35.5 -143v-366h-89zM192 91
q7 0 15.5 2t17.5 7v169l-25 -3q-23 -3 -33 -24t-10 -66q0 -52 9.5 -68.5t25.5 -16.5zM365 598h-122l-41 52l-41 -52h-122l105 137h116zM44 638h-95l-101 137h152z" />
    <glyph glyph-name="uni1EA8" unicode="&#x1ea8;" horiz-adv-x="490" 
d="M329 0l-26 167h-131l-27 -167h-143l159 720h165l162 -720h-159zM188 269h99l-48 316zM402 759h-125l-38 37l-38 -37h-125l105 117h116zM578 864q0 -29 -15 -52.5t-50 -34.5l-4 -21h-76l-3 58q26 5 42 14t16 31q0 31 -30 31q-18 0 -27.5 -11.5t-12.5 -28.5l-79 18
q14 43 45.5 67.5t79.5 24.5q22 0 43 -5.5t36.5 -17t25 -30t9.5 -43.5z" />
    <glyph glyph-name="uni1EA9" unicode="&#x1ea9;" horiz-adv-x="400" 
d="M276 0l-28 51q-17 -26 -45 -42.5t-70 -16.5q-27 0 -49 9t-37 28.5t-23.5 51t-8.5 77.5q0 37 7 69t24.5 56.5t46.5 40.5t74 21l58 6v40q0 39 -6 54t-21 15t-21 -18t-8 -48l-135 20q5 22 15.5 47t30 46t50.5 34.5t78 13.5q86 0 121.5 -46t35.5 -143v-366h-89zM192 91
q7 0 15.5 2t17.5 7v169l-25 -3q-23 -3 -33 -24t-10 -66q0 -52 9.5 -68.5t25.5 -16.5zM362 598h-122l-41 52l-41 -52h-122l105 137h116zM538 707q0 -29 -15 -52.5t-50 -34.5l-4 -21h-76l-3 58q26 5 42 14t16 31q0 31 -30 31q-18 0 -27.5 -11.5t-12.5 -28.5l-79 18
q14 43 45.5 67.5t79.5 24.5q22 0 43 -5.5t36.5 -17t25 -30t9.5 -43.5z" />
    <glyph glyph-name="uni1EAA" unicode="&#x1eaa;" horiz-adv-x="490" 
d="M309 840q-24 0 -41 6t-31 13t-27.5 13t-30.5 6q-33 0 -78 -36v85q22 16 41.5 24.5t40.5 8.5q24 0 41 -6t31 -13t27.5 -13t30.5 -6q33 0 78 36v-85q-22 -16 -41.5 -24.5t-40.5 -8.5zM329 0l-26 167h-131l-27 -167h-143l159 690h165l162 -690h-159zM188 269h99l-48 286z
M403 718h-125l-38 37l-38 -37h-125l105 107h116z" />
    <glyph glyph-name="uni1EAB" unicode="&#x1eab;" horiz-adv-x="400" 
d="M276 0l-28 51q-17 -26 -45 -42.5t-70 -16.5q-27 0 -49 9t-37 28.5t-23.5 51t-8.5 77.5q0 37 7 69t24.5 56.5t46.5 40.5t74 21l58 6v40q0 39 -6 54t-21 15t-21 -18t-8 -48l-135 20q5 22 15.5 47t30 46t50.5 34.5t78 13.5q86 0 121.5 -46t35.5 -143v-366h-89zM192 91
q7 0 15.5 2t17.5 7v169l-25 -3q-23 -3 -33 -24t-10 -66q0 -52 9.5 -68.5t25.5 -16.5zM365 599h-125l-38 37l-38 -37h-125l105 117h116zM265 730q-24 0 -41 6t-31 13t-27.5 13t-30.5 6q-33 0 -78 -36v90q22 16 41.5 24.5t40.5 8.5q24 0 41 -6t31 -13t27.5 -13t30.5 -6
q33 0 78 36v-90q-22 -16 -41.5 -24.5t-40.5 -8.5z" />
    <glyph glyph-name="uni1EAC" unicode="&#x1eac;" horiz-adv-x="490" 
d="M329 0l-26 167h-131l-27 -167h-143l159 720h165l162 -720h-159zM188 269h99l-48 316zM169 -170v125h152v-125h-152zM403 768h-125l-38 37l-38 -37h-125l105 117h116z" />
    <glyph glyph-name="uni1EAD" unicode="&#x1ead;" horiz-adv-x="400" 
d="M276 0l-28 51q-17 -26 -45 -42.5t-70 -16.5q-27 0 -49 9t-37 28.5t-23.5 51t-8.5 77.5q0 37 7 69t24.5 56.5t46.5 40.5t74 21l58 6v40q0 39 -6 54t-21 15t-21 -18t-8 -48l-135 20q5 22 15.5 47t30 46t50.5 34.5t78 13.5q86 0 121.5 -46t35.5 -143v-366h-89zM192 91
q7 0 15.5 2t17.5 7v169l-25 -3q-23 -3 -33 -24t-10 -66q0 -52 9.5 -68.5t25.5 -16.5zM124 -170v125h152v-125h-152zM363 598h-122l-41 52l-41 -52h-122l105 137h116z" />
    <glyph glyph-name="uni1EAE" unicode="&#x1eae;" horiz-adv-x="490" 
d="M329 0l-26 167h-131l-27 -167h-143l159 690h165l162 -690h-159zM188 269h99l-48 286zM227 960h152l-101 -122h-95zM240 779q29 0 32 41h119q-3 -30 -16.5 -51.5t-34.5 -35.5t-47 -20.5t-54 -6.5q-27 0 -52.5 6.5t-46.5 20.5t-34.5 35.5t-16.5 51.5h119q3 -41 32 -41z" />
    <glyph glyph-name="uni1EAF" unicode="&#x1eaf;" horiz-adv-x="400" 
d="M276 0l-28 51q-17 -26 -45 -42.5t-70 -16.5q-27 0 -49 9t-37 28.5t-23.5 51t-8.5 77.5q0 37 7 69t24.5 56.5t46.5 40.5t74 21l58 6v40q0 39 -6 54t-21 15t-21 -18t-8 -48l-135 20q5 22 15.5 47t30 46t50.5 34.5t78 13.5q86 0 121.5 -46t35.5 -143v-366h-89zM192 91
q7 0 15.5 2t17.5 7v169l-25 -3q-23 -3 -33 -24t-10 -66q0 -52 9.5 -68.5t25.5 -16.5zM195 587q-25 0 -50.5 7t-46.5 22t-35.5 39.5t-17.5 60.5h119q2 -26 9.5 -36t21.5 -10t21.5 10t9.5 36h119q-3 -36 -17.5 -60.5t-35.5 -39.5t-46.5 -22t-50.5 -7zM172 875h152l-101 -137
h-95z" />
    <glyph glyph-name="uni1EB0" unicode="&#x1eb0;" horiz-adv-x="490" 
d="M329 0l-26 167h-131l-27 -167h-143l159 690h165l162 -690h-159zM188 269h99l-48 276zM297 838h-95l-101 122h152zM240 779q29 0 32 41h119q-3 -30 -16.5 -51.5t-34.5 -35.5t-46.5 -20.5t-52.5 -6.5q-28 0 -54 6.5t-47 20.5t-34.5 35.5t-16.5 51.5h119q3 -41 32 -41z" />
    <glyph glyph-name="uni1EB1" unicode="&#x1eb1;" horiz-adv-x="400" 
d="M276 0l-28 51q-17 -26 -45 -42.5t-70 -16.5q-27 0 -49 9t-37 28.5t-23.5 51t-8.5 77.5q0 37 7 69t24.5 56.5t46.5 40.5t74 21l58 6v40q0 39 -6 54t-21 15t-21 -18t-8 -48l-135 20q5 22 15.5 47t30 46t50.5 34.5t78 13.5q86 0 121.5 -46t35.5 -143v-366h-89zM192 91
q7 0 15.5 2t17.5 7v169l-25 -3q-23 -3 -33 -24t-10 -66q0 -52 9.5 -68.5t25.5 -16.5zM200 587q-25 0 -50.5 7t-46.5 22t-35.5 39.5t-17.5 60.5h119q2 -26 9.5 -36t21.5 -10t21.5 10t9.5 36h119q-3 -36 -17.5 -60.5t-35.5 -39.5t-46.5 -22t-50.5 -7zM265 738h-95l-101 137
h152z" />
    <glyph glyph-name="uni1EB2" unicode="&#x1eb2;" horiz-adv-x="490" 
d="M329 0l-26 167h-131l-27 -167h-143l159 690h165l162 -690h-159zM188 269h99l-48 276zM240 766q20 0 35.5 10.5t17.5 32.5h112q-4 -30 -18.5 -51t-36.5 -33.5t-50 -18.5t-59 -6q-32 0 -60 6t-50.5 18.5t-37 33.5t-18.5 51h112q2 -22 17.5 -32.5t35.5 -10.5zM341 880
q0 -52 -69 -65l-3 -18h-64l-3 43q56 5 56 31q0 25 -32 25q-14 0 -25.5 -9t-16.5 -27l-72 18q14 42 48 62t73 20q48 0 78 -21t30 -59z" />
    <glyph glyph-name="uni1EB3" unicode="&#x1eb3;" horiz-adv-x="400" 
d="M276 0l-28 51q-17 -26 -45 -42.5t-70 -16.5q-27 0 -49 9t-37 28.5t-23.5 51t-8.5 77.5q0 37 7 69t24.5 56.5t46.5 40.5t74 21l58 6v40q0 39 -6 54t-21 15t-21 -18t-8 -48l-135 20q5 22 15.5 47t30 46t50.5 34.5t78 13.5q86 0 121.5 -46t35.5 -143v-366h-89zM192 91
q7 0 15.5 2t17.5 7v169l-25 -3q-23 -3 -33 -24t-10 -66q0 -52 9.5 -68.5t25.5 -16.5zM200 587q-25 0 -50.5 7t-46.5 22t-35.5 39.5t-17.5 60.5h119q2 -26 9.5 -36t21.5 -10t21.5 10t9.5 36h119q-3 -36 -17.5 -60.5t-35.5 -39.5t-46.5 -22t-50.5 -7zM320 848q0 -29 -15 -52.5
t-50 -34.5l-4 -21h-76l-3 58q26 5 42 14t16 31q0 31 -30 31q-18 0 -27.5 -11.5t-12.5 -28.5l-79 18q14 43 45.5 67.5t79.5 24.5q22 0 43 -5.5t36.5 -17t25 -30t9.5 -43.5z" />
    <glyph glyph-name="uni1EB4" unicode="&#x1eb4;" horiz-adv-x="490" 
d="M329 0l-26 167h-131l-27 -167h-143l159 690h165l162 -690h-159zM188 269h99l-48 286zM240 779q29 0 32 41h119q-3 -30 -16.5 -51.5t-34.5 -35.5t-47 -20.5t-54 -6.5q-27 0 -52.5 6.5t-46.5 20.5t-34.5 35.5t-16.5 51.5h119q3 -41 32 -41zM302 840q-24 0 -41 6t-31 13
t-27.5 13t-30.5 6q-33 0 -78 -36v85q22 16 41.5 24.5t40.5 8.5q24 0 41 -6t31 -13t27.5 -13t30.5 -6q33 0 78 36v-85q-22 -16 -41.5 -24.5t-40.5 -8.5z" />
    <glyph glyph-name="uni1EB5" unicode="&#x1eb5;" horiz-adv-x="400" 
d="M276 0l-28 51q-17 -26 -45 -42.5t-70 -16.5q-27 0 -49 9t-37 28.5t-23.5 51t-8.5 77.5q0 37 7 69t24.5 56.5t46.5 40.5t74 21l58 6v40q0 39 -6 54t-21 15t-21 -18t-8 -48l-135 20q5 22 15.5 47t30 46t50.5 34.5t78 13.5q86 0 121.5 -46t35.5 -143v-366h-89zM192 91
q7 0 15.5 2t17.5 7v169l-25 -3q-23 -3 -33 -24t-10 -66q0 -52 9.5 -68.5t25.5 -16.5zM200 591q-27 0 -53 7.5t-46.5 25t-34 45t-16.5 66.5h119q2 -33 9.5 -47t21.5 -14t21.5 14t9.5 47h119q-3 -39 -16.5 -66.5t-34 -45t-46.5 -25t-53 -7.5zM258 760q-24 0 -41 6t-31 13
t-27.5 13t-30.5 6q-33 0 -78 -36v90q22 16 41.5 24.5t40.5 8.5q24 0 41 -6t31 -13t27.5 -13t30.5 -6q33 0 78 36v-90q-22 -16 -41.5 -24.5t-40.5 -8.5z" />
    <glyph glyph-name="uni1EB6" unicode="&#x1eb6;" horiz-adv-x="490" 
d="M329 0l-26 167h-131l-27 -167h-143l159 720h165l162 -720h-159zM188 269h99l-48 316zM163 -170v125h152v-125h-152zM239 756q-25 0 -50.5 7t-46.5 22t-35.5 39.5t-17.5 60.5h119q2 -26 9.5 -36t21.5 -10t21.5 10t9.5 36h119q-3 -36 -17.5 -60.5t-35.5 -39.5t-46.5 -22
t-50.5 -7z" />
    <glyph glyph-name="uni1EB7" unicode="&#x1eb7;" horiz-adv-x="400" 
d="M276 0l-28 51q-17 -26 -45 -42.5t-70 -16.5q-27 0 -49 9t-37 28.5t-23.5 51t-8.5 77.5q0 37 7 69t24.5 56.5t46.5 40.5t74 21l58 6v40q0 39 -6 54t-21 15t-21 -18t-8 -48l-135 20q5 22 15.5 47t30 46t50.5 34.5t78 13.5q86 0 121.5 -46t35.5 -143v-366h-89zM192 91
q7 0 15.5 2t17.5 7v169l-25 -3q-23 -3 -33 -24t-10 -66q0 -52 9.5 -68.5t25.5 -16.5zM124 -170v125h152v-125h-152zM200 591q-27 0 -53 7.5t-46.5 25t-34 45t-16.5 66.5h119q2 -33 9.5 -47t21.5 -14t21.5 14t9.5 47h119q-3 -39 -16.5 -66.5t-34 -45t-46.5 -25t-53 -7.5z" />
    <glyph glyph-name="uni1EB8" unicode="&#x1eb8;" horiz-adv-x="392" 
d="M335 309h-140v-196h170v-113h-320v720h320v-115h-170v-188h140v-108zM129 -170v125h152v-125h-152z" />
    <glyph glyph-name="uni1EB9" unicode="&#x1eb9;" horiz-adv-x="392" 
d="M204 91q16 0 23.5 17.5t10.5 49.5l128 -20q-3 -23 -13 -48.5t-29.5 -48t-49.5 -37t-73 -14.5q-93 0 -134.5 66.5t-41.5 213.5q0 79 10.5 133.5t32 88t54 48.5t77.5 15q60 0 93.5 -22.5t50 -64.5t20.5 -102.5t4 -136.5h-201q1 -45 3.5 -72.5t7 -42t11.5 -19t16 -4.5z
M203 465q-9 0 -16 -5t-11.5 -20t-7 -43.5t-2.5 -75.5h73q0 46 -2.5 74.5t-7 44t-11 20.5t-15.5 5zM126 -170v125h152v-125h-152z" />
    <glyph glyph-name="uni1EBA" unicode="&#x1eba;" horiz-adv-x="392" 
d="M335 309h-140v-196h170v-113h-320v720h320v-115h-170v-188h140v-108zM314 864q0 -29 -15 -52.5t-50 -34.5l-4 -21h-76l-3 58q26 5 42 14t16 31q0 31 -30 31q-18 0 -27.5 -11.5t-12.5 -28.5l-79 18q14 43 45.5 67.5t79.5 24.5q22 0 43 -5.5t36.5 -17t25 -30t9.5 -43.5z
" />
    <glyph glyph-name="uni1EBB" unicode="&#x1ebb;" horiz-adv-x="392" 
d="M204 91q16 0 23.5 17.5t10.5 49.5l128 -20q-3 -23 -13 -48.5t-29.5 -48t-49.5 -37t-73 -14.5q-93 0 -134.5 66.5t-41.5 213.5q0 79 10.5 133.5t32 88t54 48.5t77.5 15q60 0 93.5 -22.5t50 -64.5t20.5 -102.5t4 -136.5h-201q1 -45 3.5 -72.5t7 -42t11.5 -19t16 -4.5z
M203 465q-9 0 -16 -5t-11.5 -20t-7 -43.5t-2.5 -75.5h73q0 46 -2.5 74.5t-7 44t-11 20.5t-15.5 5zM316 708q0 -29 -15 -52.5t-50 -34.5l-4 -21h-76l-3 58q26 5 42 14t16 31q0 31 -30 31q-18 0 -27.5 -11.5t-12.5 -28.5l-79 18q14 43 45.5 67.5t79.5 24.5q22 0 43 -5.5
t36.5 -17t25 -30t9.5 -43.5z" />
    <glyph glyph-name="uni1EBC" unicode="&#x1ebc;" horiz-adv-x="392" 
d="M335 309h-140v-196h170v-113h-320v720h320v-115h-170v-188h140v-108zM265 760q-24 0 -41 6t-31 13t-27.5 13t-30.5 6q-33 0 -78 -36v90q22 16 41.5 24.5t40.5 8.5q24 0 41 -6t31 -13t27.5 -13t30.5 -6q33 0 78 36v-90q-22 -16 -41.5 -24.5t-40.5 -8.5z" />
    <glyph glyph-name="uni1EBD" unicode="&#x1ebd;" horiz-adv-x="392" 
d="M204 91q16 0 23.5 17.5t10.5 49.5l128 -20q-3 -23 -13 -48.5t-29.5 -48t-49.5 -37t-73 -14.5q-93 0 -134.5 66.5t-41.5 213.5q0 79 10.5 133.5t32 88t54 48.5t77.5 15q60 0 93.5 -22.5t50 -64.5t20.5 -102.5t4 -136.5h-201q1 -45 3.5 -72.5t7 -42t11.5 -19t16 -4.5z
M203 465q-9 0 -16 -5t-11.5 -20t-7 -43.5t-2.5 -75.5h73q0 46 -2.5 74.5t-7 44t-11 20.5t-15.5 5zM259 610q-24 0 -41 6t-31 13t-27.5 13t-30.5 6q-33 0 -78 -36v90q22 16 41.5 24.5t40.5 8.5q24 0 41 -6t31 -13t27.5 -13t30.5 -6q33 0 78 36v-90q-22 -16 -41.5 -24.5
t-40.5 -8.5z" />
    <glyph glyph-name="uni1EBE" unicode="&#x1ebe;" horiz-adv-x="392" 
d="M335 309h-140v-196h170v-113h-320v720h320v-115h-170v-188h140v-108zM368 768h-125l-38 37l-38 -37h-125l105 117h116zM402 945h152l-101 -137h-95z" />
    <glyph glyph-name="uni1EBF" unicode="&#x1ebf;" horiz-adv-x="392" 
d="M204 91q16 0 23.5 17.5t10.5 49.5l128 -20q-3 -23 -13 -48.5t-29.5 -48t-49.5 -37t-73 -14.5q-93 0 -134.5 66.5t-41.5 213.5q0 79 10.5 133.5t32 88t54 48.5t77.5 15q60 0 93.5 -22.5t50 -64.5t20.5 -102.5t4 -136.5h-201q1 -45 3.5 -72.5t7 -42t11.5 -19t16 -4.5z
M203 465q-9 0 -16 -5t-11.5 -20t-7 -43.5t-2.5 -75.5h73q0 46 -2.5 74.5t-7 44t-11 20.5t-15.5 5zM363 598h-122l-41 52l-41 -52h-122l105 137h116zM397 775h152l-101 -137h-95z" />
    <glyph glyph-name="uni1EC0" unicode="&#x1ec0;" horiz-adv-x="392" 
d="M335 309h-140v-196h170v-113h-320v720h320v-115h-170v-188h140v-108zM368 768h-125l-38 37l-38 -37h-125l105 117h116zM52 808h-95l-101 137h152z" />
    <glyph glyph-name="uni1EC1" unicode="&#x1ec1;" horiz-adv-x="392" 
d="M204 91q16 0 23.5 17.5t10.5 49.5l128 -20q-3 -23 -13 -48.5t-29.5 -48t-49.5 -37t-73 -14.5q-93 0 -134.5 66.5t-41.5 213.5q0 79 10.5 133.5t32 88t54 48.5t77.5 15q60 0 93.5 -22.5t50 -64.5t20.5 -102.5t4 -136.5h-201q1 -45 3.5 -72.5t7 -42t11.5 -19t16 -4.5z
M203 465q-9 0 -16 -5t-11.5 -20t-7 -43.5t-2.5 -75.5h73q0 46 -2.5 74.5t-7 44t-11 20.5t-15.5 5zM365 598h-122l-41 52l-41 -52h-122l105 137h116zM49 638h-95l-101 137h152z" />
    <glyph glyph-name="uni1EC2" unicode="&#x1ec2;" horiz-adv-x="392" 
d="M335 309h-140v-196h170v-113h-320v720h320v-115h-170v-188h140v-108zM370 759h-125l-38 37l-38 -37h-125l105 117h116zM546 864q0 -29 -15 -52.5t-50 -34.5l-4 -21h-76l-3 58q26 5 42 14t16 31q0 31 -30 31q-18 0 -27.5 -11.5t-12.5 -28.5l-79 18q14 43 45.5 67.5
t79.5 24.5q22 0 43 -5.5t36.5 -17t25 -30t9.5 -43.5z" />
    <glyph glyph-name="uni1EC3" unicode="&#x1ec3;" horiz-adv-x="392" 
d="M204 91q16 0 23.5 17.5t10.5 49.5l128 -20q-3 -23 -13 -48.5t-29.5 -48t-49.5 -37t-73 -14.5q-93 0 -134.5 66.5t-41.5 213.5q0 79 10.5 133.5t32 88t54 48.5t77.5 15q60 0 93.5 -22.5t50 -64.5t20.5 -102.5t4 -136.5h-201q1 -45 3.5 -72.5t7 -42t11.5 -19t16 -4.5z
M203 465q-9 0 -16 -5t-11.5 -20t-7 -43.5t-2.5 -75.5h73q0 46 -2.5 74.5t-7 44t-11 20.5t-15.5 5zM360 598h-122l-41 52l-41 -52h-122l105 137h116zM535 707q0 -29 -15 -52.5t-50 -34.5l-4 -21h-76l-3 58q26 5 42 14t16 31q0 31 -30 31q-18 0 -27.5 -11.5t-12.5 -28.5
l-79 18q14 43 45.5 67.5t79.5 24.5q22 0 43 -5.5t36.5 -17t25 -30t9.5 -43.5z" />
    <glyph glyph-name="uni1EC4" unicode="&#x1ec4;" horiz-adv-x="392" 
d="M335 299h-140v-186h170v-113h-320v690h320v-115h-170v-168h140v-108zM273 840q-24 0 -41 6t-31 13t-27.5 13t-30.5 6q-33 0 -78 -36v85q22 16 41.5 24.5t40.5 8.5q24 0 41 -6t31 -13t27.5 -13t30.5 -6q33 0 78 36v-85q-22 -16 -41.5 -24.5t-40.5 -8.5zM367 718h-125
l-38 37l-38 -37h-125l105 107h116z" />
    <glyph glyph-name="uni1EC5" unicode="&#x1ec5;" horiz-adv-x="392" 
d="M204 91q16 0 23.5 17.5t10.5 49.5l128 -20q-3 -23 -13 -48.5t-29.5 -48t-49.5 -37t-73 -14.5q-93 0 -134.5 66.5t-41.5 213.5q0 79 10.5 133.5t32 88t54 48.5t77.5 15q60 0 93.5 -22.5t50 -64.5t20.5 -102.5t4 -136.5h-201q1 -45 3.5 -72.5t7 -42t11.5 -19t16 -4.5z
M203 465q-9 0 -16 -5t-11.5 -20t-7 -43.5t-2.5 -75.5h73q0 46 -2.5 74.5t-7 44t-11 20.5t-15.5 5zM361 598h-122l-41 52l-41 -52h-122l105 137h116zM261 760q-24 0 -41 6t-31 13t-27.5 13t-30.5 6q-33 0 -78 -36v90q22 16 41.5 24.5t40.5 8.5q24 0 41 -6t31 -13t27.5 -13
t30.5 -6q33 0 78 36v-90q-22 -16 -41.5 -24.5t-40.5 -8.5z" />
    <glyph glyph-name="uni1EC6" unicode="&#x1ec6;" horiz-adv-x="392" 
d="M335 309h-140v-196h170v-113h-320v720h320v-115h-170v-188h140v-108zM130 -170v125h152v-125h-152zM368 768h-125l-38 37l-38 -37h-125l105 117h116z" />
    <glyph glyph-name="uni1EC7" unicode="&#x1ec7;" horiz-adv-x="392" 
d="M204 91q16 0 23.5 17.5t10.5 49.5l128 -20q-3 -23 -13 -48.5t-29.5 -48t-49.5 -37t-73 -14.5q-93 0 -134.5 66.5t-41.5 213.5q0 79 10.5 133.5t32 88t54 48.5t77.5 15q60 0 93.5 -22.5t50 -64.5t20.5 -102.5t4 -136.5h-201q1 -45 3.5 -72.5t7 -42t11.5 -19t16 -4.5z
M203 465q-9 0 -16 -5t-11.5 -20t-7 -43.5t-2.5 -75.5h73q0 46 -2.5 74.5t-7 44t-11 20.5t-15.5 5zM125 -170v125h152v-125h-152zM364 598h-122l-41 52l-41 -52h-122l105 137h116z" />
    <glyph glyph-name="uni1EC8" unicode="&#x1ec8;" horiz-adv-x="240" 
d="M195 720v-720h-150v720h150zM233 864q0 -29 -15 -52.5t-50 -34.5l-4 -21h-76l-3 58q26 5 42 14t16 31q0 31 -30 31q-18 0 -27.5 -11.5t-12.5 -28.5l-79 18q14 43 45.5 67.5t79.5 24.5q22 0 43 -5.5t36.5 -17t25 -30t9.5 -43.5z" />
    <glyph glyph-name="uni1EC9" unicode="&#x1ec9;" horiz-adv-x="210" 
d="M35 0v540h140v-540h-140zM223 708q0 -29 -15 -52.5t-50 -34.5l-4 -21h-76l-3 58q26 5 42 14t16 31q0 31 -30 31q-18 0 -27.5 -11.5t-12.5 -28.5l-79 18q14 43 45.5 67.5t79.5 24.5q22 0 43 -5.5t36.5 -17t25 -30t9.5 -43.5z" />
    <glyph glyph-name="uni1ECA" unicode="&#x1eca;" horiz-adv-x="240" 
d="M195 720v-720h-150v720h150zM44 -170v125h152v-125h-152z" />
    <glyph glyph-name="uni1ECB" unicode="&#x1ecb;" horiz-adv-x="210" 
d="M30 610v125h152v-125h-152zM29 -170v125h152v-125h-152zM35 0v540h140v-540h-140z" />
    <glyph glyph-name="uni1ECC" unicode="&#x1ecc;" horiz-adv-x="489" 
d="M456 360q0 -105 -11.5 -176.5t-36.5 -115.5t-65.5 -63.5t-97.5 -19.5q-62 0 -103 19.5t-65 63.5t-34 115.5t-10 176.5t11.5 176.5t37 115.5t66 63.5t97.5 19.5t97.5 -19.5t65.5 -63.5t36.5 -115.5t11.5 -176.5zM303 360q0 76 -2 127t-8 82t-17.5 44t-30.5 13
q-20 0 -31.5 -13.5t-17.5 -44.5t-8 -82t-2 -126t2 -126t8.5 -82t18 -44t30.5 -13t30.5 13t17.5 43.5t8 81.5t2 127zM168 -170v125h152v-125h-152z" />
    <glyph glyph-name="uni1ECD" unicode="&#x1ecd;" horiz-adv-x="419" 
d="M25 270q0 83 13.5 138t38.5 87.5t58.5 46t74.5 13.5q40 0 74 -13t58.5 -45.5t38 -87.5t13.5 -139t-13.5 -138t-38 -85.5t-58.5 -44t-74 -12.5q-41 0 -74.5 12.5t-58.5 44.5t-38.5 86t-13.5 137zM169 270q0 -57 2 -92.5t7 -56t13 -27.5t20 -7t19.5 7t12 27t6.5 55.5
t2 93.5t-2 94.5t-7 57t-13 28t-19 7.5t-19 -8t-13 -28.5t-7 -57t-2 -93.5zM133 -170v125h152v-125h-152z" />
    <glyph glyph-name="uni1ECE" unicode="&#x1ece;" horiz-adv-x="489" 
d="M456 360q0 -105 -11.5 -176.5t-36.5 -115.5t-65.5 -63.5t-97.5 -19.5q-62 0 -103 19.5t-65 63.5t-34 115.5t-10 176.5t11.5 176.5t37 115.5t66 63.5t97.5 19.5t97.5 -19.5t65.5 -63.5t36.5 -115.5t11.5 -176.5zM303 360q0 76 -2 127t-8 82t-17.5 44t-30.5 13
q-20 0 -31.5 -13.5t-17.5 -44.5t-8 -82t-2 -126t2 -126t8.5 -82t18 -44t30.5 -13t30.5 13t17.5 43.5t8 81.5t2 127zM362 864q0 -29 -15 -52.5t-50 -34.5l-4 -21h-76l-3 58q26 5 42 14t16 31q0 31 -30 31q-18 0 -27.5 -11.5t-12.5 -28.5l-79 18q14 43 45.5 67.5t79.5 24.5
q22 0 43 -5.5t36.5 -17t25 -30t9.5 -43.5z" />
    <glyph glyph-name="uni1ECF" unicode="&#x1ecf;" horiz-adv-x="419" 
d="M25 270q0 83 13.5 138t38.5 87.5t58.5 46t74.5 13.5q40 0 74 -13t58.5 -45.5t38 -87.5t13.5 -139t-13.5 -138t-38 -85.5t-58.5 -44t-74 -12.5q-41 0 -74.5 12.5t-58.5 44.5t-38.5 86t-13.5 137zM169 270q0 -57 2 -92.5t7 -56t13 -27.5t20 -7t19.5 7t12 27t6.5 55.5
t2 93.5t-2 94.5t-7 57t-13 28t-19 7.5t-19 -8t-13 -28.5t-7 -57t-2 -93.5zM326 708q0 -29 -15 -52.5t-50 -34.5l-4 -21h-76l-3 58q26 5 42 14t16 31q0 31 -30 31q-18 0 -27.5 -11.5t-12.5 -28.5l-79 18q14 43 45.5 67.5t79.5 24.5q22 0 43 -5.5t36.5 -17t25 -30t9.5 -43.5z
" />
    <glyph glyph-name="uni1ED0" unicode="&#x1ed0;" horiz-adv-x="489" 
d="M456 360q0 -105 -11.5 -176.5t-36.5 -115.5t-65.5 -63.5t-97.5 -19.5q-62 0 -103 19.5t-65 63.5t-34 115.5t-10 176.5t11.5 176.5t37 115.5t66 63.5t97.5 19.5t97.5 -19.5t65.5 -63.5t36.5 -115.5t11.5 -176.5zM303 360q0 76 -2 127t-8 82t-17.5 44t-30.5 13
q-20 0 -31.5 -13.5t-17.5 -44.5t-8 -82t-2 -126t2 -126t8.5 -82t18 -44t30.5 -13t30.5 13t17.5 43.5t8 81.5t2 127zM405 768h-125l-38 37l-38 -37h-125l105 117h116zM439 945h152l-101 -137h-95z" />
    <glyph glyph-name="uni1ED1" unicode="&#x1ed1;" horiz-adv-x="419" 
d="M25 270q0 83 13.5 138t38.5 87.5t58.5 46t74.5 13.5q40 0 74 -13t58.5 -45.5t38 -87.5t13.5 -139t-13.5 -138t-38 -85.5t-58.5 -44t-74 -12.5q-41 0 -74.5 12.5t-58.5 44.5t-38.5 86t-13.5 137zM169 270q0 -57 2 -92.5t7 -56t13 -27.5t20 -7t19.5 7t12 27t6.5 55.5
t2 93.5t-2 94.5t-7 57t-13 28t-19 7.5t-19 -8t-13 -28.5t-7 -57t-2 -93.5zM374 598h-122l-41 52l-41 -52h-122l105 137h116zM408 775h152l-101 -137h-95z" />
    <glyph glyph-name="uni1ED2" unicode="&#x1ed2;" horiz-adv-x="489" 
d="M456 360q0 -105 -11.5 -176.5t-36.5 -115.5t-65.5 -63.5t-97.5 -19.5q-62 0 -103 19.5t-65 63.5t-34 115.5t-10 176.5t11.5 176.5t37 115.5t66 63.5t97.5 19.5t97.5 -19.5t65.5 -63.5t36.5 -115.5t11.5 -176.5zM303 360q0 76 -2 127t-8 82t-17.5 44t-30.5 13
q-20 0 -31.5 -13.5t-17.5 -44.5t-8 -82t-2 -126t2 -126t8.5 -82t18 -44t30.5 -13t30.5 13t17.5 43.5t8 81.5t2 127zM407 768h-125l-38 37l-38 -37h-125l105 117h116zM91 808h-95l-101 137h152z" />
    <glyph glyph-name="uni1ED3" unicode="&#x1ed3;" horiz-adv-x="419" 
d="M25 270q0 83 13.5 138t38.5 87.5t58.5 46t74.5 13.5q40 0 74 -13t58.5 -45.5t38 -87.5t13.5 -139t-13.5 -138t-38 -85.5t-58.5 -44t-74 -12.5q-41 0 -74.5 12.5t-58.5 44.5t-38.5 86t-13.5 137zM169 270q0 -57 2 -92.5t7 -56t13 -27.5t20 -7t19.5 7t12 27t6.5 55.5
t2 93.5t-2 94.5t-7 57t-13 28t-19 7.5t-19 -8t-13 -28.5t-7 -57t-2 -93.5zM372 598h-122l-41 52l-41 -52h-122l105 137h116zM56 638h-95l-101 137h152z" />
    <glyph glyph-name="uni1ED4" unicode="&#x1ed4;" horiz-adv-x="489" 
d="M456 360q0 -105 -11.5 -176.5t-36.5 -115.5t-65.5 -63.5t-97.5 -19.5q-62 0 -103 19.5t-65 63.5t-34 115.5t-10 176.5t11.5 176.5t37 115.5t66 63.5t97.5 19.5t97.5 -19.5t65.5 -63.5t36.5 -115.5t11.5 -176.5zM303 360q0 76 -2 127t-8 82t-17.5 44t-30.5 13
q-20 0 -31.5 -13.5t-17.5 -44.5t-8 -82t-2 -126t2 -126t8.5 -82t18 -44t30.5 -13t30.5 13t17.5 43.5t8 81.5t2 127zM582 864q0 -29 -15 -52.5t-50 -34.5l-4 -21h-76l-3 58q26 5 42 14t16 31q0 31 -30 31q-18 0 -27.5 -11.5t-12.5 -28.5l-79 18q14 43 45.5 67.5t79.5 24.5
q22 0 43 -5.5t36.5 -17t25 -30t9.5 -43.5zM406 759h-125l-38 37l-38 -37h-125l105 117h116z" />
    <glyph glyph-name="uni1ED5" unicode="&#x1ed5;" horiz-adv-x="419" 
d="M25 270q0 83 13.5 138t38.5 87.5t58.5 46t74.5 13.5q40 0 74 -13t58.5 -45.5t38 -87.5t13.5 -139t-13.5 -138t-38 -85.5t-58.5 -44t-74 -12.5q-41 0 -74.5 12.5t-58.5 44.5t-38.5 86t-13.5 137zM169 270q0 -57 2 -92.5t7 -56t13 -27.5t20 -7t19.5 7t12 27t6.5 55.5
t2 93.5t-2 94.5t-7 57t-13 28t-19 7.5t-19 -8t-13 -28.5t-7 -57t-2 -93.5zM372 598h-122l-41 52l-41 -52h-122l105 137h116zM546 708q0 -29 -15 -52.5t-50 -34.5l-4 -21h-76l-3 58q26 5 42 14t16 31q0 31 -30 31q-18 0 -27.5 -11.5t-12.5 -28.5l-79 18q14 43 45.5 67.5
t79.5 24.5q22 0 43 -5.5t36.5 -17t25 -30t9.5 -43.5z" />
    <glyph glyph-name="uni1ED6" unicode="&#x1ed6;" horiz-adv-x="489" 
d="M456 345q0 -99 -11.5 -167.5t-36.5 -111.5t-65.5 -62t-97.5 -19q-62 0 -103 19t-65 62t-34 111.5t-10 167.5t11.5 167.5t37 111.5t66 62t97.5 19t97.5 -19t65.5 -61.5t36.5 -111.5t11.5 -168zM303 345q0 70 -2 118t-8 77.5t-17.5 42.5t-30.5 13q-20 0 -31.5 -13
t-17.5 -42.5t-8 -77.5t-2 -118t2 -117.5t8.5 -77t18 -42.5t30.5 -13t30.5 13t17.5 42.5t8 77t2 117.5zM315 840q-24 0 -41 6t-31 13t-27.5 13t-30.5 6q-33 0 -78 -36v85q22 16 41.5 24.5t40.5 8.5q24 0 41 -6t31 -13t27.5 -13t30.5 -6q33 0 78 36v-85q-22 -16 -41.5 -24.5
t-40.5 -8.5zM409 718h-125l-38 37l-38 -37h-125l105 107h116z" />
    <glyph glyph-name="uni1ED7" unicode="&#x1ed7;" horiz-adv-x="419" 
d="M25 270q0 83 13.5 138t38.5 87.5t58.5 46t74.5 13.5q40 0 74 -13t58.5 -45.5t38 -87.5t13.5 -139t-13.5 -138t-38 -85.5t-58.5 -44t-74 -12.5q-41 0 -74.5 12.5t-58.5 44.5t-38.5 86t-13.5 137zM169 270q0 -57 2 -92.5t7 -56t13 -27.5t20 -7t19.5 7t12 27t6.5 55.5
t2 93.5t-2 94.5t-7 57t-13 28t-19 7.5t-19 -8t-13 -28.5t-7 -57t-2 -93.5zM372 598h-122l-41 52l-41 -52h-122l105 137h116zM271 760q-24 0 -41 6t-31 13t-27.5 13t-30.5 6q-33 0 -78 -36v90q22 16 41.5 24.5t40.5 8.5q24 0 41 -6t31 -13t27.5 -13t30.5 -6q33 0 78 36v-90
q-22 -16 -41.5 -24.5t-40.5 -8.5z" />
    <glyph glyph-name="uni1ED8" unicode="&#x1ed8;" horiz-adv-x="489" 
d="M456 360q0 -105 -11.5 -176.5t-36.5 -115.5t-65.5 -63.5t-97.5 -19.5q-62 0 -103 19.5t-65 63.5t-34 115.5t-10 176.5t11.5 176.5t37 115.5t66 63.5t97.5 19.5t97.5 -19.5t65.5 -63.5t36.5 -115.5t11.5 -176.5zM303 360q0 76 -2 127t-8 82t-17.5 44t-30.5 13
q-20 0 -31.5 -13.5t-17.5 -44.5t-8 -82t-2 -126t2 -126t8.5 -82t18 -44t30.5 -13t30.5 13t17.5 43.5t8 81.5t2 127zM168 -170v125h152v-125h-152zM407 778h-122l-41 52l-41 -52h-122l105 137h116z" />
    <glyph glyph-name="uni1ED9" unicode="&#x1ed9;" horiz-adv-x="419" 
d="M25 270q0 83 13.5 138t38.5 87.5t58.5 46t74.5 13.5q40 0 74 -13t58.5 -45.5t38 -87.5t13.5 -139t-13.5 -138t-38 -85.5t-58.5 -44t-74 -12.5q-41 0 -74.5 12.5t-58.5 44.5t-38.5 86t-13.5 137zM169 270q0 -57 2 -92.5t7 -56t13 -27.5t20 -7t19.5 7t12 27t6.5 55.5
t2 93.5t-2 94.5t-7 57t-13 28t-19 7.5t-19 -8t-13 -28.5t-7 -57t-2 -93.5zM133 -170v125h152v-125h-152zM372 598h-122l-41 52l-41 -52h-122l105 137h116z" />
    <glyph glyph-name="uni1EDA" unicode="&#x1eda;" horiz-adv-x="567" 
d="M232 915h152l-101 -137h-95zM572 681q0 -33 -11 -60t-29 -48t-40 -36.5t-44 -25.5q4 -32 6 -69t2 -82q0 -105 -11.5 -176.5t-36.5 -115.5t-65.5 -63.5t-97.5 -19.5q-62 0 -103 19.5t-65 63.5t-34 115.5t-10 176.5t11.5 176.5t37 115.5t66 63.5t97.5 19.5q73 0 118 -32
t68 -107q10 13 14.5 32.5t4.5 51.5v75h122v-74zM303 360q0 76 -2 127t-8 82t-17.5 44t-30.5 13q-20 0 -31.5 -13.5t-17.5 -44.5t-8 -82t-2 -126t2 -126t8.5 -82t18 -44t30.5 -13t30.5 13t17.5 43.5t8 81.5t2 127z" />
    <glyph glyph-name="uni1EDB" unicode="&#x1edb;" horiz-adv-x="509" 
d="M197 735h152l-101 -137h-95zM514 491q0 -33 -11 -59.5t-28.5 -46.5t-39 -34.5t-43.5 -23.5q1 -14 1.5 -28t0.5 -29q0 -84 -13.5 -138t-38 -85.5t-58.5 -44t-74 -12.5q-41 0 -74.5 12.5t-58.5 44.5t-38.5 86t-13.5 137t13.5 138t38.5 87.5t58.5 46t74.5 13.5q30 0 56.5 -7
t48.5 -24t38.5 -45t26.5 -70q10 13 15 32t5 49v75h114v-74zM169 270q0 -57 2 -92.5t7 -56t13 -27.5t20 -7t19.5 7t12 27t6.5 55.5t2 93.5t-2 94.5t-7 57t-13 28t-19 7.5t-19 -8t-13 -28.5t-7 -57t-2 -93.5z" />
    <glyph glyph-name="uni1EDC" unicode="&#x1edc;" horiz-adv-x="567" 
d="M302 778h-95l-101 137h152zM572 681q0 -33 -11 -60t-29 -48t-40 -36.5t-44 -25.5q4 -32 6 -69t2 -82q0 -105 -11.5 -176.5t-36.5 -115.5t-65.5 -63.5t-97.5 -19.5q-62 0 -103 19.5t-65 63.5t-34 115.5t-10 176.5t11.5 176.5t37 115.5t66 63.5t97.5 19.5q73 0 118 -32
t68 -107q10 13 14.5 32.5t4.5 51.5v75h122v-74zM303 360q0 76 -2 127t-8 82t-17.5 44t-30.5 13q-20 0 -31.5 -13.5t-17.5 -44.5t-8 -82t-2 -126t2 -126t8.5 -82t18 -44t30.5 -13t30.5 13t17.5 43.5t8 81.5t2 127z" />
    <glyph glyph-name="uni1EDD" unicode="&#x1edd;" horiz-adv-x="509" 
d="M269 598h-95l-101 137h152zM514 491q0 -33 -11 -59.5t-28.5 -46.5t-39 -34.5t-43.5 -23.5q1 -14 1.5 -28t0.5 -29q0 -84 -13.5 -138t-38 -85.5t-58.5 -44t-74 -12.5q-41 0 -74.5 12.5t-58.5 44.5t-38.5 86t-13.5 137t13.5 138t38.5 87.5t58.5 46t74.5 13.5q30 0 56.5 -7
t48.5 -24t38.5 -45t26.5 -70q10 13 15 32t5 49v75h114v-74zM169 270q0 -57 2 -92.5t7 -56t13 -27.5t20 -7t19.5 7t12 27t6.5 55.5t2 93.5t-2 94.5t-7 57t-13 28t-19 7.5t-19 -8t-13 -28.5t-7 -57t-2 -93.5z" />
    <glyph glyph-name="uni1EDE" unicode="&#x1ede;" horiz-adv-x="567" 
d="M355 864q0 -29 -15 -52.5t-50 -34.5l-4 -21h-76l-3 58q26 5 42 14t16 31q0 31 -30 31q-18 0 -27.5 -11.5t-12.5 -28.5l-79 18q14 43 45.5 67.5t79.5 24.5q22 0 43 -5.5t36.5 -17t25 -30t9.5 -43.5zM572 681q0 -33 -11 -60t-29 -48t-40 -36.5t-44 -25.5q4 -32 6 -69t2 -82
q0 -105 -11.5 -176.5t-36.5 -115.5t-65.5 -63.5t-97.5 -19.5q-62 0 -103 19.5t-65 63.5t-34 115.5t-10 176.5t11.5 176.5t37 115.5t66 63.5t97.5 19.5q73 0 118 -32t68 -107q10 13 14.5 32.5t4.5 51.5v75h122v-74zM303 360q0 76 -2 127t-8 82t-17.5 44t-30.5 13
q-20 0 -31.5 -13.5t-17.5 -44.5t-8 -82t-2 -126t2 -126t8.5 -82t18 -44t30.5 -13t30.5 13t17.5 43.5t8 81.5t2 127z" />
    <glyph glyph-name="uni1EDF" unicode="&#x1edf;" horiz-adv-x="509" 
d="M322 708q0 -29 -15 -52.5t-50 -34.5l-4 -21h-76l-3 58q26 5 42 14t16 31q0 31 -30 31q-18 0 -27.5 -11.5t-12.5 -28.5l-79 18q14 43 45.5 67.5t79.5 24.5q22 0 43 -5.5t36.5 -17t25 -30t9.5 -43.5zM514 491q0 -33 -11 -59.5t-28.5 -46.5t-39 -34.5t-43.5 -23.5
q1 -14 1.5 -28t0.5 -29q0 -84 -13.5 -138t-38 -85.5t-58.5 -44t-74 -12.5q-41 0 -74.5 12.5t-58.5 44.5t-38.5 86t-13.5 137t13.5 138t38.5 87.5t58.5 46t74.5 13.5q30 0 56.5 -7t48.5 -24t38.5 -45t26.5 -70q10 13 15 32t5 49v75h114v-74zM169 270q0 -57 2 -92.5t7 -56
t13 -27.5t20 -7t19.5 7t12 27t6.5 55.5t2 93.5t-2 94.5t-7 57t-13 28t-19 7.5t-19 -8t-13 -28.5t-7 -57t-2 -93.5z" />
    <glyph glyph-name="uni1EE0" unicode="&#x1ee0;" horiz-adv-x="567" 
d="M304 790q-24 0 -41 6t-31 13t-27.5 13t-30.5 6q-33 0 -78 -36v90q22 16 41.5 24.5t40.5 8.5q24 0 41 -6t31 -13t27.5 -13t30.5 -6q33 0 78 36v-90q-22 -16 -41.5 -24.5t-40.5 -8.5zM572 681q0 -33 -11 -60t-29 -48t-40 -36.5t-44 -25.5q4 -32 6 -69t2 -82
q0 -105 -11.5 -176.5t-36.5 -115.5t-65.5 -63.5t-97.5 -19.5q-62 0 -103 19.5t-65 63.5t-34 115.5t-10 176.5t11.5 176.5t37 115.5t66 63.5t97.5 19.5q73 0 118 -32t68 -107q10 13 14.5 32.5t4.5 51.5v75h122v-74zM303 360q0 76 -2 127t-8 82t-17.5 44t-30.5 13
q-20 0 -31.5 -13.5t-17.5 -44.5t-8 -82t-2 -126t2 -126t8.5 -82t18 -44t30.5 -13t30.5 13t17.5 43.5t8 81.5t2 127z" />
    <glyph glyph-name="uni1EE1" unicode="&#x1ee1;" horiz-adv-x="509" 
d="M273 610q-24 0 -41 6t-31 13t-27.5 13t-30.5 6q-33 0 -78 -36v90q22 16 41.5 24.5t40.5 8.5q24 0 41 -6t31 -13t27.5 -13t30.5 -6q33 0 78 36v-90q-22 -16 -41.5 -24.5t-40.5 -8.5zM514 491q0 -33 -11 -59.5t-28.5 -46.5t-39 -34.5t-43.5 -23.5q1 -14 1.5 -28t0.5 -29
q0 -84 -13.5 -138t-38 -85.5t-58.5 -44t-74 -12.5q-41 0 -74.5 12.5t-58.5 44.5t-38.5 86t-13.5 137t13.5 138t38.5 87.5t58.5 46t74.5 13.5q30 0 56.5 -7t48.5 -24t38.5 -45t26.5 -70q10 13 15 32t5 49v75h114v-74zM169 270q0 -57 2 -92.5t7 -56t13 -27.5t20 -7t19.5 7
t12 27t6.5 55.5t2 93.5t-2 94.5t-7 57t-13 28t-19 7.5t-19 -8t-13 -28.5t-7 -57t-2 -93.5z" />
    <glyph glyph-name="uni1EE2" unicode="&#x1ee2;" horiz-adv-x="567" 
d="M168 -170v125h152v-125h-152zM572 681q0 -33 -11 -60t-29 -48t-40 -36.5t-44 -25.5q4 -32 6 -69t2 -82q0 -105 -11.5 -176.5t-36.5 -115.5t-65.5 -63.5t-97.5 -19.5q-62 0 -103 19.5t-65 63.5t-34 115.5t-10 176.5t11.5 176.5t37 115.5t66 63.5t97.5 19.5q73 0 118 -32
t68 -107q10 13 14.5 32.5t4.5 51.5v75h122v-74zM303 360q0 76 -2 127t-8 82t-17.5 44t-30.5 13q-20 0 -31.5 -13.5t-17.5 -44.5t-8 -82t-2 -126t2 -126t8.5 -82t18 -44t30.5 -13t30.5 13t17.5 43.5t8 81.5t2 127z" />
    <glyph glyph-name="uni1EE3" unicode="&#x1ee3;" horiz-adv-x="509" 
d="M136 -170v125h152v-125h-152zM514 491q0 -33 -11 -59.5t-28.5 -46.5t-39 -34.5t-43.5 -23.5q1 -14 1.5 -28t0.5 -29q0 -84 -13.5 -138t-38 -85.5t-58.5 -44t-74 -12.5q-41 0 -74.5 12.5t-58.5 44.5t-38.5 86t-13.5 137t13.5 138t38.5 87.5t58.5 46t74.5 13.5
q30 0 56.5 -7t48.5 -24t38.5 -45t26.5 -70q10 13 15 32t5 49v75h114v-74zM169 270q0 -57 2 -92.5t7 -56t13 -27.5t20 -7t19.5 7t12 27t6.5 55.5t2 93.5t-2 94.5t-7 57t-13 28t-19 7.5t-19 -8t-13 -28.5t-7 -57t-2 -93.5z" />
    <glyph glyph-name="uni1EE4" unicode="&#x1ee4;" horiz-adv-x="477" 
d="M195 720v-502q0 -37 2.5 -61t7.5 -37.5t14 -19t22 -5.5t22 5.5t14.5 19t8 37.5t2.5 61v502h144v-493q0 -59 -9 -104t-31 -75.5t-59 -46.5t-93 -16t-93.5 16t-60 46.5t-32 75.5t-9.5 104v493h150zM164 -170v125h152v-125h-152z" />
    <glyph glyph-name="uni1EE5" unicode="&#x1ee5;" 
d="M175 540v-373q0 -22 1.5 -35t5.5 -20.5t10.5 -10t16.5 -2.5q12 0 36 11v430h140v-540h-105l-19 51q-20 -27 -46.5 -44t-60.5 -17q-63 0 -91 41t-28 137v372h140zM134 -170v125h152v-125h-152z" />
    </font>
</defs>
</svg>
