<?xml version="1.0" standalone="no"?>
<!DOCTYPE svg PUBLIC "-//W3C//DTD SVG 1.1//EN" "http://www.w3.org/Graphics/SVG/1.1/DTD/svg11.dtd" >
<svg xmlns="http://www.w3.org/2000/svg" xmlns:xlink="http://www.w3.org/1999/xlink" version="1.1">
<metadata>
Created by FontForge 20141024 at Tue Jul  7 16:15:51 2015
 By Jimmy Warting
Copyright (c) 2006 by Ralph du Carrois. All rights reserved.
</metadata>
<defs>
<font id="SuzukiPRORegular" horiz-adv-x="540" >
  <font-face 
    font-family="SuzukiPRORegular"
    font-weight="400"
    font-stretch="normal"
    units-per-em="1000"
    panose-1="2 11 5 6 4 0 0 2 0 4"
    ascent="798"
    descent="-202"
    x-height="540"
    cap-height="720"
    bbox="-319 -275 990 960"
    underline-thickness="50"
    underline-position="-50"
    unicode-range="U+0020-FB05"
  />
<missing-glyph horiz-adv-x="548" 
d="M80 720h388v-720h-388v720zM400 68v584h-252v-584h252z" />
    <glyph glyph-name="ff" unicode="ff" horiz-adv-x="578" 
d="M459 475v-475h-80v475h-199v-475h-80v475h-80v65h80v47q0 64 43.5 106t129.5 42q51 0 89 -6t64 -12q32 26 84 26q50 0 88 -11v-65q-19 5 -38 7t-34 2q-33 0 -50 -15t-17 -50v-71h116v-65h-116zM180 540h199v65q0 15 1.5 29t6.5 28q-22 3 -48.5 5.5t-57.5 2.5
q-54 0 -77.5 -19t-23.5 -58v-53z" />
    <glyph glyph-name="fi" unicode="fi" horiz-adv-x="539" 
d="M441 660q-23 5 -64 11.5t-96 6.5q-54 0 -77.5 -19t-23.5 -58v-61h279v-540h-80v475h-199v-475h-80v475h-80v65h80v55q0 64 43.5 106t129.5 42q60 0 101.5 -7t66.5 -13v-63z" />
    <glyph glyph-name="fl" unicode="fl" horiz-adv-x="539" 
d="M379 0v669q-20 4 -44.5 6.5t-57.5 2.5q-97 0 -97 -77v-61h101v-65h-101v-475h-80v475h-80v65h80v55q0 64 43.5 106t125.5 42q57 0 104.5 -6t85.5 -14v-723h-80z" />
    <glyph glyph-name="ffi" unicode="ffi" horiz-adv-x="818" 
d="M658 0v475h-199v-475h-80v475h-199v-475h-80v475h-80v65h80v47q0 64 43.5 106t129.5 42q57 0 99.5 -7t67.5 -14q43 29 112 29q60 0 102 -7.5t66 -12.5v-63q-22 5 -63.5 11.5t-96.5 6.5q-54 0 -77.5 -19t-23.5 -58v-61h279v-540h-80zM180 540h199v55q0 36 14 66
q-23 4 -51 6.5t-61 2.5q-54 0 -77.5 -19t-23.5 -58v-53z" />
    <glyph glyph-name="ffl" unicode="ffl" horiz-adv-x="808" 
d="M648 0v672q-20 2 -41.5 4t-46.5 2q-54 0 -77.5 -19t-23.5 -58v-61h93v-65h-93v-475h-80v475h-199v-475h-80v475h-80v65h80v47q0 64 43.5 106t129.5 42q57 0 99.5 -7t67.5 -14q43 29 112 29q63 0 107.5 -8.5t68.5 -14.5v-720h-80zM180 540h199v55q0 36 14 66
q-23 4 -51 6.5t-61 2.5q-54 0 -77.5 -19t-23.5 -58v-53z" />
    <glyph glyph-name=".notdef" horiz-adv-x="548" 
d="M80 720h388v-720h-388v720zM400 68v584h-252v-584h252z" />
    <glyph glyph-name=".null" horiz-adv-x="0" 
 />
    <glyph glyph-name="nonmarkingreturn" horiz-adv-x="220" 
 />
    <glyph glyph-name="space" unicode=" " horiz-adv-x="300" 
 />
    <glyph glyph-name="exclam" unicode="!" horiz-adv-x="270" 
d="M98 240l-10 480h90l-10 -480h-70zM85 0v100h100v-100h-100z" />
    <glyph glyph-name="quotedbl" unicode="&#x22;" horiz-adv-x="400" 
d="M150 502h-50l-25 140v93h100v-92zM300 502h-50l-25 140v93h100v-92z" />
    <glyph glyph-name="numbersign" unicode="#" horiz-adv-x="575" 
d="M498 197h-84l-17 -197h-71l17 197h-142l-17 -197h-71l17 197h-79l4 61h80l17 189h-81l6 61h80l17 192h71l-17 -192h142l17 192h71l-17 -192h83l-6 -61h-82l-17 -189h83zM206 258h142l17 189h-142z" />
    <glyph glyph-name="dollar" unicode="$" 
d="M280 644q-24 0 -46 -6t-38.5 -19t-26.5 -33.5t-10 -48.5q0 -21 5.5 -38.5t21 -33.5t43.5 -31.5t72 -31.5q36 -13 70.5 -30t60.5 -42.5t42 -61t16 -86.5q0 -35 -12 -67.5t-34.5 -58.5t-55 -44t-72.5 -24v-123h-72v122q-42 5 -74.5 21t-56.5 38.5t-39.5 48.5t-22.5 51
l78 14q6 -20 17 -39t29 -34t44 -24.5t61 -9.5q20 0 42.5 6.5t41 21.5t31 38t12.5 56q0 38 -11 63t-33.5 43t-57 33t-81.5 34q-78 31 -112 77t-34 103q0 75 43.5 122.5t122.5 57.5v112h72v-113q35 -5 63 -19.5t49 -34.5t35 -44.5t22 -49.5l-74 -14q-12 39 -43.5 69t-87.5 30z
" />
    <glyph glyph-name="percent" unicode="%" horiz-adv-x="740" 
d="M268 0h-74l275 700h74zM60 541q0 42 11 74t30 53t43 31.5t51 10.5t51.5 -10.5t43 -31.5t30 -53t11.5 -74t-11.5 -73.5t-30.5 -52.5t-43.5 -31t-50.5 -10t-50.5 10t-43.5 31t-30 52.5t-11 73.5zM130 541q0 -60 18 -86t47 -26t48 26t19 86t-19 86t-48 26t-47 -26t-18 -86z
M409 159q0 42 11 74t30 53t43 31.5t51 10.5t51.5 -10.5t43 -31.5t30 -53t11.5 -74t-11.5 -73.5t-30.5 -52.5t-43.5 -31t-50.5 -10t-50.5 10t-43.5 31t-30 52.5t-11 73.5zM479 159q0 -60 18 -86t47 -26t48 26t19 86t-19 86t-48 26t-47 -26t-18 -86z" />
    <glyph glyph-name="ampersand" unicode="&#x26;" horiz-adv-x="697" 
d="M600 349q-6 -60 -20.5 -112.5t-38.5 -97.5l136 -139h-98l-79 80q-37 -42 -89 -66t-122 -24q-45 0 -83.5 14t-66.5 38.5t-43.5 58t-15.5 72.5q0 36 9 64t26.5 51.5t42 43.5t56.5 40q-43 44 -71.5 85.5t-28.5 94.5q0 30 10.5 58.5t32.5 50.5t55.5 35.5t78.5 13.5
q43 0 75.5 -12.5t54.5 -33.5t33.5 -48t11.5 -55q0 -34 -9 -61t-27 -50t-45 -43.5t-63 -41.5l167 -172q18 38 28.5 82t14.5 90zM301 55q48 0 84.5 20.5t65.5 55.5l-192 196q-52 -33 -74 -66t-22 -81q0 -23 7 -45t23.5 -40t43 -29t64.5 -11zM192 552q0 -17 4.5 -32t15 -31
t26.5 -35t40 -44q35 20 57.5 37.5t36 34.5t18.5 35.5t5 40.5q0 45 -30 68t-72 23q-51 0 -76 -25.5t-25 -71.5z" />
    <glyph glyph-name="quotesingle" unicode="'" horiz-adv-x="250" 
d="M150 502h-50l-25 140v93h100v-92z" />
    <glyph glyph-name="parenleft" unicode="(" horiz-adv-x="340" 
d="M75 330q0 91 12.5 161.5t33 127t46.5 102.5t54 89h64q-25 -46 -49 -96t-43 -107.5t-30.5 -126t-11.5 -150.5q0 -83 11.5 -151t30.5 -126t43 -107.5t49 -95.5h-64q-28 43 -54 89t-46.5 102.5t-33 126.5t-12.5 162z" />
    <glyph glyph-name="parenright" unicode=")" horiz-adv-x="340" 
d="M265 329q0 -92 -12.5 -162.5t-33 -127t-46.5 -102.5t-54 -89h-64q25 46 49 96t43 108t30.5 126t11.5 151q0 82 -11.5 150.5t-30.5 126.5t-43 108t-49 96h64q28 -42 54 -88.5t46.5 -103t33 -127.5t12.5 -162z" />
    <glyph glyph-name="asterisk" unicode="*" horiz-adv-x="470" 
d="M258 584l139 60l23 -72l-146 -33l99 -112l-62 -44l-76 128l-76 -129l-61 45l98 112l-147 32l24 72l138 -60l-14 152h76z" />
    <glyph glyph-name="plus" unicode="+" 
d="M231 288h-166v70h166v163h78v-163h166v-70h-166v-166h-78v166z" />
    <glyph glyph-name="comma" unicode="," horiz-adv-x="230" 
d="M95 -142h-56l55 142h-29v100h100v-99z" />
    <glyph glyph-name="hyphen" unicode="-" horiz-adv-x="425" 
d="M60 287v72h305v-72h-305z" />
    <glyph glyph-name="period" unicode="." horiz-adv-x="230" 
d="M65 0v100h100v-100h-100z" />
    <glyph glyph-name="slash" unicode="/" horiz-adv-x="265" 
d="M66 -90h-76l209 810h76z" />
    <glyph glyph-name="zero" unicode="0" 
d="M67 344q0 98 14.5 166t41 110t64 61t84.5 19t84.5 -19t64 -61t40.5 -110t14 -166q0 -96 -14.5 -163.5t-40.5 -109.5t-64 -61.5t-84 -19.5q-47 0 -84.5 19.5t-64 62t-41 110t-14.5 162.5zM149 344q0 -79 8 -134t24 -90t38.5 -51t51.5 -16t51.5 16t38.5 51t24 90t8 134
t-8.5 134.5t-24 90.5t-38.5 51.5t-51 16.5q-29 0 -51.5 -16.5t-38 -51.5t-24 -90.5t-8.5 -134.5z" />
    <glyph glyph-name="one" unicode="1" 
d="M135 0v69h133v555l-142 -84v78l136 82h85v-631h109v-69h-321z" />
    <glyph glyph-name="two" unicode="2" 
d="M274 646q-51 0 -81 -34t-36 -86l-78 12q7 36 23.5 67.5t41.5 55t59.5 36.5t77.5 13q35 0 69 -11t60.5 -34t42.5 -59t16 -85q0 -29 -7.5 -57.5t-23.5 -58.5t-40.5 -64t-58.5 -74l-163 -196h287v-71h-380v71l205 253q27 33 46 59t31.5 48.5t18 44.5t5.5 47q0 54 -27.5 88.5
t-87.5 34.5z" />
    <glyph glyph-name="three" unicode="3" 
d="M263 53q23 0 45 7t39.5 23t28 43t10.5 67q0 41 -9 68t-25 43.5t-38 23t-48 6.5h-56v67h54q46 0 74 32t28 92q0 66 -29.5 95.5t-77.5 29.5q-26 0 -45.5 -10.5t-33.5 -26t-22 -35t-11 -37.5l-73 12q8 41 27 71t45 49t56 28t61 9q37 0 71 -11.5t59 -34t40 -55.5t15 -76
q0 -66 -32.5 -108t-86.5 -51q28 -3 53 -16.5t44 -36t30.5 -54t11.5 -71.5q0 -53 -17.5 -92t-46.5 -64.5t-65.5 -37.5t-74.5 -12q-69 0 -122 42t-72 116l73 11q3 -18 12.5 -37t25 -34t36 -25t46.5 -10z" />
    <glyph glyph-name="four" unicode="4" 
d="M389 444v-242h96v-65h-96v-137h-77v137h-236v72l138 491h79l-140 -498h161l17 242h58z" />
    <glyph glyph-name="five" unicode="5" 
d="M258 54q19 0 41 6.5t40.5 25.5t30.5 52t12 87q0 45 -8.5 76.5t-23.5 51.5t-35.5 29t-45.5 9q-40 0 -69 -20.5t-42 -50.5h-60l19 380h305v-64h-233l-12 -230q20 20 48 31.5t63 11.5t67 -11t56.5 -37.5t39 -70t14.5 -109.5q0 -52 -14.5 -94.5t-41.5 -73t-65.5 -47
t-86.5 -16.5q-35 0 -65.5 11.5t-54.5 31.5t-40.5 47t-23.5 58l74 11q8 -39 35.5 -67t75.5 -28z" />
    <glyph glyph-name="six" unicode="6" 
d="M301 651q-26 0 -50.5 -12t-44 -43.5t-31.5 -85.5t-13 -137q26 32 62.5 52t81.5 20q44 0 76 -16.5t53 -46t31 -71t10 -90.5q0 -59 -16 -102t-43 -72t-62 -43t-73 -14q-102 0 -151 86t-49 269q0 115 22 186.5t55 111t71 53.5t71 14q34 0 61.5 -10.5t48 -28t34.5 -39.5
t22 -45l-72 -13q-16 43 -42 60t-52 17zM289 382q-40 0 -72 -20.5t-55 -46.5q2 -75 10 -125t23 -80.5t37 -43.5t51 -13q21 0 41.5 7t36 25.5t25 50t9.5 79.5q0 90 -28.5 128.5t-77.5 38.5z" />
    <glyph glyph-name="seven" unicode="7" 
d="M246 0h-88l232 630h-288v70h364v-80z" />
    <glyph glyph-name="eight" unicode="8" 
d="M270 -10q-50 0 -88.5 14.5t-65.5 40t-41 59.5t-14 73q0 46 15 79t36.5 55t45.5 34.5t41 18.5q-18 8 -38.5 21.5t-37.5 34t-28.5 48t-11.5 62.5q0 48 16 82t42 55.5t59.5 32t69.5 10.5t69.5 -9.5t59.5 -30t42 -53.5t16 -80q0 -36 -13 -63.5t-32 -47t-39.5 -31.5t-36.5 -18
q17 -6 41.5 -19.5t47 -36.5t38.5 -57t16 -80q0 -42 -14 -77.5t-41 -61.5t-66 -40.5t-88 -14.5zM393 184q0 39 -16.5 66t-39.5 44.5t-48 27.5t-42 16q-19 -11 -37 -22.5t-32 -28.5t-22.5 -41.5t-8.5 -61.5q0 -57 32.5 -94.5t90.5 -37.5t90.5 34.5t32.5 97.5zM376 535
q0 30 -8.5 52.5t-23 36.5t-34 21t-40.5 7t-40.5 -6.5t-34.5 -20.5t-24 -36.5t-9 -53.5q0 -33 15.5 -56t36.5 -38.5t42 -24.5t32 -13q7 4 22 14t29.5 26.5t25.5 39t11 52.5z" />
    <glyph glyph-name="nine" unicode="9" 
d="M268 51q31 0 55 14.5t40.5 47.5t25 86.5t9.5 131.5q-22 -31 -56 -51t-83 -20q-46 0 -79 16t-54.5 45t-31.5 69.5t-10 89.5q0 58 15.5 101t42.5 71.5t62.5 43t76.5 14.5q52 0 89 -20t61 -62t35.5 -107.5t11.5 -155.5q0 -114 -17 -187t-45.5 -115t-66.5 -57.5t-81 -15.5
q-67 0 -108.5 32.5t-58.5 80.5l73 15q14 -40 40.5 -53.5t53.5 -13.5zM273 320q40 0 71 21.5t53 48.5q-2 75 -9.5 125.5t-22 81t-35.5 43t-49 12.5q-21 0 -42 -8t-37.5 -27.5t-26.5 -51.5t-10 -79q0 -88 28.5 -127t79.5 -39z" />
    <glyph glyph-name="colon" unicode=":" horiz-adv-x="230" 
d="M65 0v100h100v-100h-100zM65 439v100h100v-100h-100z" />
    <glyph glyph-name="semicolon" unicode=";" horiz-adv-x="230" 
d="M65 439v100h100v-100h-100zM95 -142h-56l55 142h-29v100h100v-99z" />
    <glyph glyph-name="less" unicode="&#x3c;" 
d="M65 281v90l410 170v-80l-347 -136l347 -154v-80z" />
    <glyph glyph-name="equal" unicode="=" 
d="M65 391v70h410v-70h-410zM65 191v70h410v-70h-410z" />
    <glyph glyph-name="greater" unicode="&#x3e;" 
d="M65 91v80l347 154l-347 136v80l410 -170v-90z" />
    <glyph glyph-name="question" unicode="?" horiz-adv-x="484" 
d="M249 670q-45 0 -76.5 -29.5t-38.5 -74.5l-79 12q9 36 27.5 65t44.5 49.5t58 31.5t67 11q81 0 129 -42.5t48 -120.5q0 -36 -10.5 -62t-26 -47t-34 -37.5t-34 -33.5t-26 -36t-10.5 -43v-93h-82v107q0 28 10.5 49.5t26 40t33.5 35t33.5 34.5t26 39t10.5 49q0 18 -5.5 35.5
t-17 31t-30 21.5t-44.5 8zM197 0v105h105v-105h-105z" />
    <glyph glyph-name="at" unicode="@" horiz-adv-x="920" 
d="M654 98q-25 0 -43.5 7.5t-30.5 19.5t-18.5 27.5t-8.5 31.5q-14 -34 -45.5 -59t-85.5 -25q-27 0 -52 9.5t-44.5 31.5t-31 56.5t-11.5 84.5q0 81 18.5 135t47 86.5t62.5 46t66 13.5q27 0 47 -8.5t36 -22.5l10 24h61l-31 -258q-1 -5 -2 -14t-1.5 -18t-1 -17.5t-0.5 -12.5
q0 -45 14 -65t42 -20q21 0 41 14t35.5 41.5t24.5 68.5t9 95q0 147 -69 227.5t-206 80.5q-54 0 -112 -21.5t-106 -66t-78.5 -114t-30.5 -165.5q0 -85 24 -149t65 -106.5t95 -64t115 -21.5q50 0 82.5 4.5t64.5 10.5v-58q-31 -7 -68.5 -12.5t-86.5 -5.5q-78 0 -145.5 27
t-117.5 78.5t-78.5 126.5t-28.5 171q0 117 39 197.5t98.5 130.5t131 72.5t137.5 22.5q79 0 144 -22.5t111.5 -67.5t72.5 -113.5t26 -160.5q0 -50 -12 -98.5t-35.5 -87.5t-58.5 -63t-80 -24zM441 157q30 0 53 24.5t31 89.5l26 219q-10 9 -22 13.5t-33 4.5q-23 0 -46.5 -9.5
t-43.5 -35.5t-32.5 -71.5t-12.5 -116.5q0 -36 6.5 -59t18 -36t26 -18t29.5 -5z" />
    <glyph glyph-name="A" unicode="A" horiz-adv-x="553" 
d="M453 0l-52 187h-254l-53 -187h-84l216 720h102l215 -720h-90zM165 252h218l-107 390z" />
    <glyph glyph-name="B" unicode="B" horiz-adv-x="559" 
d="M259 720q112 0 169.5 -47.5t57.5 -138.5q0 -57 -30.5 -98t-78.5 -56q27 -6 51 -19.5t42 -35.5t28.5 -53.5t10.5 -72.5q0 -58 -22 -96t-58 -61t-81 -32.5t-91 -9.5h-167v720h169zM175 347v-282h97q30 0 56.5 6.5t47 21.5t32.5 41t12 65q0 34 -7.5 61t-24.5 46.5t-44.5 30
t-66.5 10.5h-102zM175 661v-253h98q69 0 98.5 33t29.5 93q0 64 -36.5 95.5t-97.5 31.5h-92z" />
    <glyph glyph-name="C" unicode="C" horiz-adv-x="582" 
d="M318 53q54 0 86.5 29t49.5 83l83 -8q-24 -77 -77 -124.5t-144 -47.5q-40 0 -83.5 16t-79.5 57.5t-59.5 114.5t-23.5 187q0 112 23 185t59 115t80.5 58.5t87.5 16.5q47 0 82.5 -14.5t60.5 -37.5t41 -52t24 -57l-82 -11q-15 48 -44.5 76.5t-81.5 28.5q-34 0 -63.5 -14.5
t-51.5 -50t-34.5 -94.5t-12.5 -149q0 -89 13 -148t34.5 -94t50.5 -50t62 -15z" />
    <glyph glyph-name="D" unicode="D" horiz-adv-x="611" 
d="M237 720q53 0 107 -14t98 -53.5t71.5 -110t27.5 -182.5q0 -113 -30.5 -183t-76 -109.5t-99 -53.5t-99.5 -14h-146v720h147zM175 657v-591h66q39 0 77.5 11.5t68.5 43.5t49 89.5t19 149.5t-20 150t-51.5 90.5t-69.5 44.5t-75 12h-64z" />
    <glyph glyph-name="E" unicode="E" horiz-adv-x="500" 
d="M410 333h-235v-265h265v-68h-350v720h350v-68h-265v-253h235v-66z" />
    <glyph glyph-name="F" unicode="F" horiz-adv-x="470" 
d="M400 312h-225v-312h-85v720h340v-68h-255v-272h225v-68z" />
    <glyph glyph-name="G" unicode="G" horiz-adv-x="598" 
d="M521 0h-50l-13 51q-28 -33 -66.5 -49t-81.5 -16q-42 0 -84.5 15.5t-77 57.5t-56.5 115t-22 187q0 115 24.5 188t62 114.5t82 57t84.5 15.5q41 0 73.5 -12t57.5 -32.5t41.5 -47t25.5 -56.5l-82 -12q-11 39 -37.5 67t-78.5 28q-30 0 -59.5 -14t-53.5 -49.5t-38.5 -95.5
t-14.5 -151q0 -89 12.5 -148t33.5 -95t49 -51t60 -15q92 0 133 62v215h-123v68h199v-397z" />
    <glyph glyph-name="H" unicode="H" horiz-adv-x="620" 
d="M530 720v-720h-85v330h-270v-330h-85v720h85v-322h270v322h85z" />
    <glyph glyph-name="I" unicode="I" horiz-adv-x="265" 
d="M175 720v-720h-85v720h85z" />
    <glyph glyph-name="J" unicode="J" horiz-adv-x="324" 
d="M154 720h85v-555q0 -96 -34 -137.5t-104 -41.5q-26 0 -47 4t-39 10v69q17 -5 39.5 -9t36.5 -4q17 0 29 4t19.5 16t11 33.5t3.5 57.5v553z" />
    <glyph glyph-name="K" unicode="K" horiz-adv-x="543" 
d="M424 0l-249 335v-335h-85v720h85v-314l226 314h95l-251 -343l283 -377h-104z" />
    <glyph glyph-name="L" unicode="L" horiz-adv-x="472" 
d="M175 720v-646h277v-74h-362v720h85z" />
    <glyph glyph-name="M" unicode="M" horiz-adv-x="747" 
d="M341 0l-170 569v-569h-81v720h111l180 -606l166 606h110v-720h-84v569l-157 -569h-75z" />
    <glyph glyph-name="N" unicode="N" horiz-adv-x="601" 
d="M511 720v-720h-111l-229 603v-603h-81v720h114l228 -596v596h79z" />
    <glyph glyph-name="O" unicode="O" horiz-adv-x="658" 
d="M70 360q0 105 22 176.5t58 115.5t82.5 63.5t96.5 19.5q49 0 96 -19.5t83 -63.5t58 -115.5t22 -176.5t-22 -176.5t-58 -115.5t-83 -63.5t-96 -19.5q-50 0 -96.5 19.5t-82.5 63.5t-58 115.5t-22 176.5zM157 360q0 -153 42.5 -231.5t129.5 -78.5t129.5 78.5t42.5 231.5
t-42.5 231.5t-129.5 78.5t-129.5 -78.5t-42.5 -231.5z" />
    <glyph glyph-name="P" unicode="P" horiz-adv-x="528" 
d="M244 720q53 0 98.5 -13.5t79 -42t52.5 -72t19 -103.5q0 -59 -20 -101.5t-54.5 -70t-80.5 -40.5t-98 -13h-65v-264h-85v720h154zM175 655v-326h67q79 0 121.5 39t42.5 121q0 78 -42.5 122t-117.5 44h-71z" />
    <glyph glyph-name="Q" unicode="Q" horiz-adv-x="658" 
d="M70 360q0 105 22 176.5t58 115.5t82.5 63.5t96.5 19.5q49 0 96 -19.5t83 -63.5t58 -115.5t22 -176.5q0 -83 -14.5 -146t-39.5 -107t-58.5 -71t-72.5 -38l163 -6v-78l-252 38v34q-48 3 -92 24t-77.5 65t-54 114t-20.5 171zM157 360q0 -153 42.5 -231.5t129.5 -78.5
t129.5 78.5t42.5 231.5t-42.5 231.5t-129.5 78.5t-129.5 -78.5t-42.5 -231.5z" />
    <glyph glyph-name="R" unicode="R" horiz-adv-x="557" 
d="M441 0l-161 282h-105v-282h-85v720h147q53 0 99 -13t80 -40.5t53.5 -69.5t19.5 -99q0 -41 -10 -72.5t-27 -55.5t-40 -41t-49 -28l179 -301h-101zM175 655v-308h67q72 0 116 37.5t44 113.5t-44 116.5t-119 40.5h-64z" />
    <glyph glyph-name="S" unicode="S" horiz-adv-x="548" 
d="M277 669q-24 0 -46 -6.5t-38.5 -20t-26.5 -34.5t-10 -49q0 -26 7 -45.5t23.5 -35.5t43.5 -30.5t67 -29.5q39 -15 73.5 -33t60.5 -44.5t41.5 -63.5t15.5 -90q0 -41 -15.5 -78t-43.5 -64.5t-67.5 -43.5t-88.5 -16q-52 0 -91.5 15t-67.5 38.5t-45 52t-24 55.5l79 14
q6 -20 16.5 -39t28 -34t43.5 -24.5t62 -9.5q24 0 47 7.5t41 23t29.5 40t11.5 58.5q0 39 -9.5 63.5t-30 43t-53.5 33.5t-79 34q-81 33 -119.5 80.5t-38.5 116.5q0 38 14 71.5t40 58t63.5 38.5t84.5 14q45 0 80 -13t60.5 -34.5t42.5 -48.5t26 -55l-75 -14q-12 39 -45 69
t-87 30z" />
    <glyph glyph-name="T" unicode="T" horiz-adv-x="475" 
d="M450 646h-171v-646h-85v646h-169v74h425v-74z" />
    <glyph glyph-name="U" unicode="U" horiz-adv-x="609" 
d="M170 720v-506q0 -75 31.5 -118t104.5 -43t105 43t32 118v506h81v-497q0 -118 -56.5 -178t-162.5 -60t-163 60t-57 178v497h85z" />
    <glyph glyph-name="V" unicode="V" horiz-adv-x="525" 
d="M515 720l-194 -720h-114l-197 720h88l167 -659l172 659h78z" />
    <glyph glyph-name="W" unicode="W" horiz-adv-x="759" 
d="M734 720l-120 -720h-102l-127 624l-131 -624h-109l-120 720h87l95 -626l127 626h109l119 -624l94 624h78z" />
    <glyph glyph-name="X" unicode="X" horiz-adv-x="550" 
d="M320 375l195 -375h-97l-144 292l-152 -292h-87l197 372l-179 348h95l133 -268l139 268h88z" />
    <glyph glyph-name="Y" unicode="Y" horiz-adv-x="512" 
d="M502 720l-202 -432v-288h-84v288l-206 432h93l157 -344l159 344h83z" />
    <glyph glyph-name="Z" unicode="Z" horiz-adv-x="500" 
d="M129 67h311v-67h-400v75l322 578h-299v67h387v-72z" />
    <glyph glyph-name="bracketleft" unicode="[" horiz-adv-x="340" 
d="M278 -170h-203v980h203v-68h-125v-844h125v-68z" />
    <glyph glyph-name="backslash" unicode="\" horiz-adv-x="340" 
d="M65 720h76l209 -810h-76z" />
    <glyph glyph-name="bracketright" unicode="]" horiz-adv-x="340" 
d="M62 -102h125v844h-125v68h203v-980h-203v68z" />
    <glyph glyph-name="asciicircum" unicode="^" horiz-adv-x="500" 
d="M207 720h90l163 -320h-84l-124 258l-128 -258h-84z" />
    <glyph glyph-name="underscore" unicode="_" horiz-adv-x="480" 
d="M-2 -120v68h484v-68h-484z" />
    <glyph glyph-name="grave" unicode="`" horiz-adv-x="270" 
d="M240 598h-71l-139 137h113z" />
    <glyph glyph-name="a" unicode="a" horiz-adv-x="506" 
d="M372 0l-18 64q-23 -32 -60.5 -53t-97.5 -21q-25 0 -52.5 7.5t-50.5 25t-38 47t-15 74.5t18 77.5t47.5 55t68 35.5t79.5 19l93 14v37q0 23 -5 44t-16.5 36.5t-30.5 24.5t-47 9q-43 0 -71 -24t-37 -60l-79 14q22 57 70.5 93t121.5 36q84 0 129 -46t45 -137v-372h-54z
M220 54q40 0 71 16t55 42v176l-72 -12q-72 -12 -111.5 -40.5t-39.5 -85.5q0 -51 27 -73.5t70 -22.5z" />
    <glyph glyph-name="b" unicode="b" horiz-adv-x="528" 
d="M80 0v735h80v-244q25 30 59 47t79 17q34 0 64 -15t53 -48.5t36.5 -86.5t13.5 -129q0 -140 -52.5 -213t-146.5 -73q-38 0 -65.5 14.5t-46.5 37.5l-9 -42h-65zM265 489q-31 0 -57 -16.5t-48 -39.5v-340q18 -19 40.5 -32t49.5 -13q29 0 53 12.5t41.5 40.5t27 72.5t9.5 107.5
q0 60 -8.5 100t-24 64t-37 34t-46.5 10z" />
    <glyph glyph-name="c" unicode="c" horiz-adv-x="509" 
d="M277 490q-27 0 -51 -12t-41.5 -38.5t-27.5 -68.5t-10 -103t10.5 -102t27.5 -66t40 -35.5t49 -10.5q25 0 45 8.5t34 23t22.5 33t12.5 39.5l81 -10q-7 -29 -22 -57t-39.5 -50.5t-58.5 -36.5t-77 -14q-35 0 -72 12.5t-67.5 44t-50 86t-19.5 138.5q0 77 18.5 131t48.5 88
t68 49.5t77 15.5q45 0 78 -14t56.5 -36t37 -49.5t19.5 -54.5l-80 -12q-10 45 -34 73t-75 28z" />
    <glyph glyph-name="d" unicode="d" horiz-adv-x="533" 
d="M63 271q0 140 54 212t148 72q35 0 61.5 -11.5t46.5 -31.5v223h80v-735h-58l-17 61q-25 -34 -61 -52.5t-84 -18.5q-34 0 -64.5 15.5t-54 49t-37.5 87t-14 129.5zM266 56q31 0 57.5 17t49.5 41v341q-19 17 -42 29t-50 12q-29 0 -53.5 -12t-42.5 -39.5t-28 -71.5t-10 -107
q0 -60 9 -100t25 -64.5t37.5 -35t47.5 -10.5z" />
    <glyph glyph-name="e" unicode="e" horiz-adv-x="534" 
d="M282 54q25 0 44.5 7.5t33.5 19.5t23.5 27t14.5 30l70 -15q-9 -26 -25.5 -50t-40 -42.5t-55 -29.5t-70.5 -11q-38 0 -76 13.5t-69 45.5t-50 86t-19 135q0 82 18.5 136.5t48 87.5t66.5 47t75 14q103 0 155.5 -71t52.5 -227h-334q1 -63 13 -102.5t31 -62t43 -30.5t50 -8z
M276 495q-52 0 -87 -41.5t-43 -135.5h252q-2 87 -33.5 132t-88.5 45z" />
    <glyph glyph-name="f" unicode="f" horiz-adv-x="299" 
d="M319 667q-19 5 -38 7t-34 2q-33 0 -50 -15t-17 -50v-71h116v-65h-116v-475h-80v475h-80v65h80v65q0 29 7.5 54t23.5 44t40.5 29.5t59.5 10.5q50 0 88 -11v-65z" />
    <glyph glyph-name="g" unicode="g" horiz-adv-x="508" 
d="M468 528l-121 5q42 -20 69.5 -59.5t27.5 -102.5q0 -47 -17.5 -81.5t-45.5 -57t-63 -33.5t-69 -11q-47 0 -92 19q-16 -13 -16 -33q0 -9 1.5 -18.5t12 -17.5t32.5 -14t63 -9q51 -3 92 -12.5t70.5 -27.5t45.5 -46.5t16 -70.5q0 -31 -14.5 -59t-43 -49.5t-71.5 -34
t-100 -12.5q-99 0 -152 39t-53 103q0 45 21.5 74.5t56.5 47.5q-25 14 -34.5 33.5t-9.5 42.5q0 29 14.5 49.5t36.5 32.5q-32 23 -53 59t-21 87q0 52 19.5 87.5t48.5 57t64 30.5t67 9q23 0 43 -4v31l175 20v-74zM131 371q0 -57 32 -91t86 -34t84.5 34t30.5 91q0 60 -31 93
t-85 33t-85.5 -34.5t-31.5 -91.5zM220 41q-14 1 -27.5 2.5t-26.5 5.5q-20 -17 -33 -38.5t-13 -52.5q0 -19 6 -37t20.5 -32t38 -22.5t59.5 -8.5q43 0 71 9t44.5 23t23 31t6.5 32q0 19 -6.5 33.5t-24.5 25.5t-51 18t-87 11z" />
    <glyph glyph-name="h" unicode="h" horiz-adv-x="548" 
d="M80 0v735h80v-258q32 42 71.5 60t76.5 18q79 0 119.5 -49.5t40.5 -155.5v-350h-80v354q0 73 -24.5 104.5t-78.5 31.5q-37 0 -68.5 -22t-56.5 -52v-416h-80z" />
    <glyph glyph-name="i" unicode="i" horiz-adv-x="240" 
d="M74 638v97h92v-97h-92zM80 0v540h80v-540h-80z" />
    <glyph glyph-name="j" unicode="j" horiz-adv-x="240" 
d="M74 638v97h92v-97h-92zM-44 -89q13 -3 29.5 -5.5t28.5 -2.5q35 0 50.5 17t15.5 66v554h80v-564q0 -62 -31 -100.5t-99 -38.5q-16 0 -36.5 3t-37.5 8v63z" />
    <glyph glyph-name="k" unicode="k" horiz-adv-x="505" 
d="M80 0v735h80v-420l198 225h104l-215 -235l248 -305h-100l-235 285v-285h-80z" />
    <glyph glyph-name="l" unicode="l" horiz-adv-x="240" 
d="M80 735h80v-735h-80v735z" />
    <glyph glyph-name="m" unicode="m" horiz-adv-x="825" 
d="M80 0v540h58l14 -64q32 43 73.5 61t76.5 18q100 0 132 -86q30 47 73.5 66.5t87.5 19.5q76 0 113 -49.5t37 -155.5v-350h-80v354q0 73 -21 104.5t-72 31.5q-39 0 -70 -22.5t-54 -53.5q2 -14 3 -30.5t1 -33.5v-350h-80v354q0 73 -21 104.5t-72 31.5q-37 0 -66.5 -20.5
t-52.5 -49.5v-420h-80z" />
    <glyph glyph-name="n" unicode="n" horiz-adv-x="548" 
d="M80 0v540h58l15 -66q33 44 76 62.5t79 18.5q79 0 119.5 -49.5t40.5 -155.5v-350h-80v354q0 73 -24.5 104.5t-78.5 31.5q-38 0 -69 -21.5t-56 -51.5v-417h-80z" />
    <glyph glyph-name="o" unicode="o" horiz-adv-x="565" 
d="M63 270q0 83 20 138t51.5 87.5t71 46t77.5 13.5t77 -13t70.5 -45.5t51.5 -87.5t20 -139t-20 -138t-51.5 -85.5t-70.5 -44t-77 -12.5t-77.5 12.5t-71 44.5t-51.5 86t-20 137zM147 270q0 -114 37.5 -166.5t99.5 -52.5q63 0 99 51.5t36 167.5q0 115 -38 169.5t-98 54.5
q-59 0 -97.5 -55t-38.5 -169z" />
    <glyph glyph-name="p" unicode="p" horiz-adv-x="528" 
d="M80 -170v710h58l14 -55q25 34 61.5 52t84.5 18q34 0 64 -15t53 -48.5t36.5 -86.5t13.5 -129q0 -140 -52.5 -213t-146.5 -73q-69 0 -106 42v-202h-80zM265 489q-31 0 -57 -16.5t-48 -39.5v-344q17 -17 39 -29t51 -12t53 12.5t41.5 40.5t27 72.5t9.5 107.5q0 60 -8.5 100
t-24 64t-37 34t-46.5 10z" />
    <glyph glyph-name="q" unicode="q" horiz-adv-x="548" 
d="M63 269q0 140 54 213t148 73q45 0 77 -19.5t52 -51.5l19 56h55v-710h-80v241q-25 -38 -62.5 -59.5t-92.5 -21.5q-34 0 -64.5 15t-54 48.5t-37.5 86.5t-14 129zM266 56q36 0 67 22.5t55 51.5v309q-20 21 -46.5 39t-60.5 18q-29 0 -53.5 -12.5t-42.5 -40t-28 -72
t-10 -107.5q0 -60 9 -100t25 -64t37.5 -34t47.5 -10z" />
    <glyph glyph-name="r" unicode="r" horiz-adv-x="332" 
d="M80 0v540h58l18 -79q38 92 119 92q11 0 21 -1t16 -3v-78q-9 2 -18 3.5t-21 1.5q-20 0 -37 -8.5t-31 -23t-25 -34t-20 -40.5v-370h-80z" />
    <glyph glyph-name="s" unicode="s" horiz-adv-x="457" 
d="M223 -10q-70 0 -118.5 31t-69.5 82l75 22q14 -32 44.5 -50.5t70.5 -18.5t70 22.5t30 67.5q0 26 -12 44t-31.5 30t-44 20.5t-49.5 16.5q-72 22 -103.5 57.5t-31.5 89.5q0 37 14 65t38 47t55 29t65 10q36 0 64.5 -9t50 -25t36.5 -36.5t23 -43.5l-72 -22q-9 31 -33.5 52.5
t-69.5 21.5q-18 0 -34 -5t-29 -14.5t-20.5 -24.5t-7.5 -36t8 -35.5t24 -25t41 -19t58 -18.5q66 -20 104 -57.5t38 -103.5q0 -37 -13 -67t-37 -51.5t-58 -33.5t-75 -12z" />
    <glyph glyph-name="t" unicode="t" horiz-adv-x="329" 
d="M299 5q-18 -5 -35 -8t-40 -3q-66 0 -95 38t-29 101v342h-80v65h81l6 130h73v-130h116v-65h-116v-344q0 -35 13 -52.5t44 -17.5q15 0 29 2t33 7v-65z" />
    <glyph glyph-name="u" unicode="u" horiz-adv-x="536" 
d="M160 540v-354q0 -39 7 -64t20.5 -40t31.5 -21t41 -6q40 0 68 19.5t48 50.5v415h80v-540h-55l-18 68q-26 -40 -61.5 -59t-77.5 -19q-75 0 -119.5 47t-44.5 151v352h80z" />
    <glyph glyph-name="v" unicode="v" horiz-adv-x="465" 
d="M455 540l-164 -540h-119l-162 540h86l137 -486l141 486h81z" />
    <glyph glyph-name="w" unicode="w" horiz-adv-x="720" 
d="M700 540l-132 -540h-100l-107 450l-106 -450h-103l-132 540h82l104 -455l106 455h103l105 -453l101 453h79z" />
    <glyph glyph-name="x" unicode="x" horiz-adv-x="500" 
d="M290 289l190 -289h-98l-139 222l-138 -222h-85l181 284l-168 256h96l119 -191l117 191h82z" />
    <glyph glyph-name="y" unicode="y" horiz-adv-x="458" 
d="M292 -14q-11 -37 -22 -65t-26.5 -46.5t-38.5 -28t-59 -9.5q-29 0 -65 9v63q17 -4 32 -6t31 -2q36 0 50 24t26 75h-38l-172 540h85l144 -487l133 487h76z" />
    <glyph glyph-name="z" unicode="z" horiz-adv-x="449" 
d="M127 69h262v-69h-349v82l276 390h-257v68h340v-82z" />
    <glyph glyph-name="braceleft" unicode="{" horiz-adv-x="340" 
d="M34 358q36 0 57.5 20t21.5 68v197q0 85 42.5 126t141.5 41v-60q-60 0 -84.5 -19.5t-24.5 -72.5v-190q0 -66 -20.5 -99.5t-58.5 -47.5q38 -14 58.5 -48t20.5 -100v-191q0 -53 24.5 -72.5t84.5 -19.5v-60q-99 0 -141.5 41t-42.5 126v198q0 48 -21.5 68t-57.5 20v75z" />
    <glyph glyph-name="bar" unicode="|" horiz-adv-x="320" 
d="M201 800v-920h-82v920h82z" />
    <glyph glyph-name="braceright" unicode="}" horiz-adv-x="340" 
d="M306 283q-36 0 -57.5 -20t-21.5 -68v-198q0 -85 -42.5 -126t-141.5 -41v60q60 0 84.5 19.5t24.5 72.5v191q0 66 20.5 100t58.5 48q-38 14 -58.5 47.5t-20.5 99.5v190q0 53 -24.5 72.5t-84.5 19.5v60q99 0 141.5 -41t42.5 -126v-197q0 -48 21.5 -68t57.5 -20v-75z" />
    <glyph glyph-name="asciitilde" unicode="~" horiz-adv-x="560" 
d="M184 309q-36 0 -61.5 -12t-47.5 -31v78q19 15 52 27.5t68 12.5q31 0 54 -8.5t43 -18t39.5 -18t43.5 -8.5q36 0 62 12t48 31v-78q-19 -15 -52 -27.5t-68 -12.5q-31 0 -54 8.5t-43.5 18t-40 18t-43.5 8.5z" />
    <glyph glyph-name="uni00A0" unicode="&#xa0;" horiz-adv-x="0" 
 />
    <glyph glyph-name="exclamdown" unicode="&#xa1;" horiz-adv-x="270" 
d="M172 300l10 -480h-90l10 480h70zM185 540v-100h-100v100h100z" />
    <glyph glyph-name="cent" unicode="&#xa2;" 
d="M244 -7q-33 4 -64.5 20t-57 48t-41 83.5t-15.5 126.5q0 68 15 118.5t39.5 84.5t56.5 53t67 25v138h72v-138q36 -6 62 -21t44 -36t29.5 -45.5t17.5 -48.5l-80 -12q-10 45 -34 73t-75 28q-27 0 -51 -12t-41.5 -38.5t-27.5 -68.5t-10 -103t10.5 -102t27.5 -66t40 -35.5
t49 -10.5q25 0 45 8.5t34 23t22.5 33t12.5 39.5l81 -10q-6 -26 -18.5 -51t-32 -46t-45.5 -36t-60 -21v-129h-72v128z" />
    <glyph glyph-name="sterling" unicode="&#xa3;" 
d="M427 354h-196v-182q0 -37 -12 -63.5t-38 -42.5h291v-66h-412v66h7q35 2 58 25.5t23 74.5v188h-78v60h78v85q0 55 15 95t39.5 66t57 38t68.5 12q70 0 111.5 -35.5t56.5 -89.5l-76 -18q-7 35 -27.5 58t-63.5 23q-45 0 -71.5 -33.5t-26.5 -115.5v-85h196v-60z" />
    <glyph glyph-name="currency" unicode="&#xa4;" horiz-adv-x="600" 
d="M105 191q-19 28 -30 64.5t-11 84.5q0 45 10 81.5t28 65.5l-61 62l48 48l58 -58q33 28 73 41.5t79 13.5t79 -14t73 -43l60 60l48 -48l-64 -64q17 -29 27.5 -64.5t10.5 -80.5q0 -48 -10.5 -83.5t-29.5 -64.5l66 -65l-48 -48l-63 63q-33 -26 -72 -38.5t-77 -12.5t-77 12
t-71 38l-62 -62l-48 48zM134 340q0 -91 46.5 -139.5t119.5 -48.5t118 48.5t45 139.5q0 45 -12 80.5t-33.5 60t-52 38t-66.5 13.5t-66.5 -13.5t-52.5 -38t-34 -60t-12 -80.5z" />
    <glyph glyph-name="yen" unicode="&#xa5;" 
d="M236 0v140h-156v60h156v80h-156v59h129l-173 361h90l149 -342l151 342h82l-171 -360h123v-60h-149v-80h149v-60h-149v-140h-75z" />
    <glyph glyph-name="brokenbar" unicode="&#xa6;" horiz-adv-x="320" 
d="M201 800v-380h-82v380h82zM201 260v-380h-82v380h82z" />
    <glyph glyph-name="section" unicode="&#xa7;" 
d="M81 308q0 46 24 77t62 49q-27 17 -46 48t-19 79q0 37 14.5 64.5t39 46.5t56 28.5t65.5 9.5q33 0 61.5 -9t50.5 -25t37.5 -36.5t23.5 -43.5l-67 -21q-9 31 -36.5 53t-72.5 22q-18 0 -35 -5t-30.5 -14.5t-21.5 -24.5t-8 -36q0 -45 32 -68t93 -38q69 -17 112 -56t43 -106
q0 -48 -24.5 -78.5t-62.5 -48.5q28 -17 47 -47.5t19 -78.5q0 -37 -15 -65t-39.5 -46.5t-56 -28t-65.5 -9.5q-33 0 -61 9t-50.5 25t-38 36.5t-23.5 43.5l67 21q9 -31 37 -53t73 -22q18 0 35 5t30.5 14.5t21.5 24.5t8 36q0 45 -32 68t-93 38q-69 17 -112 56t-43 106zM160 316
q0 -29 11.5 -48t31 -31t45.5 -20t56 -16q30 9 53 32t23 61q0 29 -11.5 47.5t-31 30.5t-46 20.5t-55.5 16.5q-30 -10 -53 -32.5t-23 -60.5z" />
    <glyph glyph-name="dieresis" unicode="&#xa8;" horiz-adv-x="360" 
d="M30 635v90h95v-90h-95zM235 635v90h95v-90h-95z" />
    <glyph glyph-name="copyright" unicode="&#xa9;" horiz-adv-x="843" 
d="M426 207q35 0 49.5 20.5t20.5 47.5l63 -9q-5 -23 -15.5 -43t-27.5 -35t-41 -24t-55 -9q-23 0 -47.5 8.5t-45.5 31.5t-34.5 63t-13.5 103q0 62 13.5 102t34.5 63t47 32t50 9q30 0 52 -9t37.5 -24t25 -34t14.5 -39l-64 -9q-6 25 -19.5 44.5t-46.5 19.5q-15 0 -28.5 -7.5
t-24.5 -25.5t-17.5 -47.5t-6.5 -74.5t7 -74.5t18.5 -47t25.5 -25t29 -7.5zM783 360q0 -99 -32 -169.5t-83.5 -116.5t-116.5 -67.5t-130 -21.5t-130 21.5t-116.5 67.5t-83.5 116.5t-32 169.5t32 169.5t83.5 116.5t116.5 67.5t130 21.5t130 -21.5t116.5 -67.5t83.5 -116.5
t32 -169.5zM715 360q0 81 -25 141.5t-66 100t-94 59.5t-109 20t-109 -20t-94 -59.5t-66 -100t-25 -141.5t25 -141.5t66 -100t94 -59.5t109 -20t109 20t94 59.5t66 100t25 141.5z" />
    <glyph glyph-name="ordfeminine" unicode="&#xaa;" horiz-adv-x="475" 
d="M343 318l-19 49q-20 -25 -49.5 -40t-72.5 -15q-54 0 -90 29.5t-36 80.5q0 39 14.5 65t37 42.5t50 24.5t53.5 11l84 11v36q0 12 -4 24.5t-12 22.5t-21 16.5t-32 6.5q-24 0 -45.5 -14.5t-30.5 -41.5l-74 9q14 42 54 71t103 29q61 0 101 -34t40 -103v-280h-51zM95 0v70h305
v-70h-305zM233 366q27 0 47 11.5t35 28.5v120l-58 -8q-46 -6 -74 -24.5t-28 -61.5q0 -20 7.5 -32.5t18.5 -20t25 -10.5t27 -3z" />
    <glyph glyph-name="guillemotleft" unicode="&#xab;" horiz-adv-x="490" 
d="M60 326l117 205h64l-92 -208l82 -222h-64zM239 326l117 205h64l-92 -208l82 -222h-64z" />
    <glyph glyph-name="logicalnot" unicode="&#xac;" 
d="M402 141v147h-337v70h410v-217h-73z" />
    <glyph glyph-name="uni00AD" unicode="&#xad;" horiz-adv-x="425" 
d="M60 287v72h305v-72h-305z" />
    <glyph glyph-name="registered" unicode="&#xae;" horiz-adv-x="614" 
d="M544 493q0 -65 -22 -111t-56.5 -75t-76.5 -42.5t-82 -13.5t-82 13.5t-76.5 42.5t-56.5 75t-22 111t22 111t56.5 75t76.5 42.5t82 13.5t82 -13.5t76.5 -42.5t56.5 -75t22 -111zM485 493q0 52 -15 89t-40 60t-57 33.5t-66 10.5t-66 -10.5t-57 -33.5t-40 -60t-15 -89
q0 -53 15 -89.5t40 -59.5t57 -33.5t66 -10.5t66 10.5t57 33.5t40 59.5t15 89.5zM349 367l-50 93h-17v-93h-50v255h74q38 0 64 -20t26 -59q0 -26 -12.5 -44t-33.5 -28l57 -104h-58zM282 582v-81h23q17 0 27.5 11.5t10.5 30.5q0 18 -10.5 28.5t-29.5 10.5h-21z" />
    <glyph glyph-name="macron" unicode="&#xaf;" horiz-adv-x="330" 
d="M30 646v69h270v-69h-270z" />
    <glyph glyph-name="degree" unicode="&#xb0;" horiz-adv-x="355" 
d="M40 566q0 35 11.5 62t30.5 45t44 27.5t52 9.5t52 -9.5t44 -27.5t30 -45t11 -62t-11 -61.5t-30 -44.5t-44 -27t-52 -9t-52 9t-44 27t-30.5 44.5t-11.5 61.5zM108 566q0 -42 18.5 -66t51.5 -24t51.5 24t18.5 66t-18.5 67t-51.5 25t-51.5 -25t-18.5 -67z" />
    <glyph glyph-name="plusminus" unicode="&#xb1;" 
d="M231 288h-166v70h166v163h78v-163h166v-70h-166v-146h-78v146zM65 0v70h410v-70h-410z" />
    <glyph glyph-name="twosuperior" unicode="&#xb2;" horiz-adv-x="340" 
d="M169 754q-24 0 -39 -16.5t-19 -35.5l-71 10q11 42 46 70t89 28q25 0 47.5 -6.5t39.5 -20.5t27.5 -36t10.5 -53q0 -38 -25.5 -70.5t-57.5 -64.5l-79 -79h160v-60h-251v60l132 134q16 16 30.5 37.5t14.5 45.5q0 21 -12 39t-43 18z" />
    <glyph glyph-name="threesuperior" unicode="&#xb3;" horiz-adv-x="340" 
d="M167 469q31 0 45.5 18.5t14.5 48.5q0 37 -20 48t-47 11h-13v51h18q22 0 37 14.5t15 43.5q0 20 -14 35t-39 15q-24 0 -39 -14.5t-20 -38.5l-69 9q12 48 50 74t85 26q21 0 42.5 -6t38.5 -19t27.5 -33t10.5 -47q0 -26 -15 -48t-46 -32q14 -3 27.5 -10t24 -18t16.5 -27.5
t6 -38.5q0 -29 -10.5 -50.5t-29 -36.5t-43 -22.5t-52.5 -7.5q-53 0 -88.5 29.5t-43.5 70.5l71 9q4 -20 18.5 -37t41.5 -17z" />
    <glyph glyph-name="acute" unicode="&#xb4;" horiz-adv-x="270" 
d="M127 735h113l-140 -137h-70z" />
    <glyph glyph-name="uni00B5" unicode="&#xb5;" horiz-adv-x="536" 
d="M160 540v-354q0 -39 7 -64.5t20.5 -40t31.5 -20.5t41 -6q42 0 69 20t47 51v414h80v-540h-55l-17 65q-23 -40 -55.5 -57.5t-74.5 -17.5q-29 0 -53 11t-41 28v-199h-80v710h80z" />
    <glyph glyph-name="paragraph" unicode="&#xb6;" horiz-adv-x="550" 
d="M211 0v375q-19 0 -44.5 3.5t-48.5 19.5t-39 48.5t-16 90.5q0 55 16 87t39 49t48.5 22t44.5 5h76v-700h-76zM450 700v-700h-76v700h76z" />
    <glyph glyph-name="periodcentered" unicode="&#xb7;" horiz-adv-x="315" 
d="M107 273v100h100v-100h-100z" />
    <glyph glyph-name="cedilla" unicode="&#xb8;" horiz-adv-x="279" 
d="M249 -142q0 -45 -33 -72t-84 -27q-29 0 -56 7t-46 18l30 45q11 -5 27.5 -9t31.5 -4q23 0 41 9.5t18 36.5q0 24 -25.5 34.5t-62.5 15.5l20 108h62l-5 -71q42 -9 62 -34t20 -57z" />
    <glyph glyph-name="onesuperior" unicode="&#xb9;" horiz-adv-x="340" 
d="M54 420v62h92v246l-95 -56v73l91 55h73v-318h74v-62h-235z" />
    <glyph glyph-name="ordmasculine" unicode="&#xba;" horiz-adv-x="475" 
d="M70 521q0 59 14 100t37 66.5t53.5 36.5t63.5 11t63 -11t53.5 -36.5t37 -66.5t13.5 -100t-13.5 -99.5t-36.5 -65t-53.5 -35t-63.5 -10.5t-63.5 10.5t-54 35t-37 65t-13.5 99.5zM150 521q0 -81 25.5 -117.5t63.5 -36.5t62.5 36.5t24.5 117.5t-24.5 119t-63.5 38t-63.5 -38
t-24.5 -119zM87 0v70h303v-70h-303z" />
    <glyph glyph-name="guillemotright" unicode="&#xbb;" horiz-adv-x="490" 
d="M323 101h-64l82 222l-92 208h64l117 -205zM144 101h-64l82 222l-92 208h64l117 -205z" />
    <glyph glyph-name="onequarter" unicode="&#xbc;" horiz-adv-x="840" 
d="M79 321v62h92v246l-95 -56v73l91 55h73v-318h74v-62h-235zM707 241v-111h56v-58h-56v-71h-66v71h-147v62l84 247h71l-88 -251h82l11 111h53zM244 -100h-86l467 910h86z" />
    <glyph glyph-name="onehalf" unicode="&#xbd;" horiz-adv-x="840" 
d="M639 335q-24 0 -39 -16.5t-19 -35.5l-71 10q11 42 46 70t89 28q25 0 47.5 -6.5t39.5 -20.5t27.5 -36t10.5 -53q0 -38 -25.5 -70.5t-57.5 -64.5l-79 -79h160v-60h-251v60l132 134q16 16 30.5 37.5t14.5 45.5q0 21 -12 39t-43 18zM72 321v62h92v246l-95 -56v73l91 55h73
v-318h74v-62h-235zM237 -100h-86l467 910h86z" />
    <glyph glyph-name="threequarters" unicode="&#xbe;" horiz-adv-x="840" 
d="M205 370q31 0 45.5 18.5t14.5 48.5q0 37 -20 48t-47 11h-13v51h18q22 0 37 14.5t15 43.5q0 20 -14 35t-39 15q-24 0 -39 -14.5t-20 -38.5l-69 9q12 48 50 74t85 26q21 0 42.5 -6t38.5 -19t27.5 -33t10.5 -47q0 -26 -15 -48t-46 -32q14 -3 27.5 -10t24 -18t16.5 -27.5
t6 -38.5q0 -29 -10.5 -50.5t-29 -36.5t-43 -22.5t-52.5 -7.5q-53 0 -88.5 29.5t-43.5 70.5l71 9q4 -20 18.5 -37t41.5 -17zM710 241v-111h56v-58h-56v-71h-66v71h-147v62l84 247h71l-88 -251h82l11 111h53zM247 -100h-86l467 910h86z" />
    <glyph glyph-name="questiondown" unicode="&#xbf;" horiz-adv-x="484" 
d="M235 -130q45 0 76.5 29.5t38.5 74.5l79 -12q-9 -36 -27.5 -65t-44.5 -49.5t-58 -31.5t-67 -11q-81 0 -129 42.5t-48 120.5q0 36 10.5 62t26 47t34 37.5t34 33.5t26 35.5t10.5 43.5v93h82v-107q0 -28 -10.5 -49.5t-26 -40t-33.5 -35t-33.5 -34.5t-26 -39.5t-10.5 -48.5
q0 -18 5.5 -35.5t17 -31t30 -21.5t44.5 -8zM287 540v-105h-105v105h105z" />
    <glyph glyph-name="Agrave" unicode="&#xc0;" horiz-adv-x="553" 
d="M453 0l-52 187h-254l-53 -187h-84l216 720h102l215 -720h-90zM165 252h218l-107 390zM344 768h-72l-142 117h119z" />
    <glyph glyph-name="Aacute" unicode="&#xc1;" horiz-adv-x="553" 
d="M453 0l-52 187h-254l-53 -187h-84l216 720h102l215 -720h-90zM165 252h218l-107 390zM304 885h119l-142 -117h-72z" />
    <glyph glyph-name="Acircumflex" unicode="&#xc2;" horiz-adv-x="553" 
d="M453 0l-52 187h-254l-53 -187h-84l216 720h102l215 -720h-90zM165 252h218l-107 390zM434 768h-90l-68 51l-68 -51h-90l119 117h78z" />
    <glyph glyph-name="Atilde" unicode="&#xc3;" horiz-adv-x="553" 
d="M453 0l-52 187h-254l-53 -187h-84l216 720h102l215 -720h-90zM165 252h218l-107 390zM338 768q-24 0 -39.5 6t-27.5 13t-24 13t-29 6t-40 -10t-45 -27v71q22 16 45 25t44 9q24 0 39.5 -6t27.5 -13t24 -13t29 -6t38 10t43 27v-71q-22 -16 -43 -25t-42 -9z" />
    <glyph glyph-name="Adieresis" unicode="&#xc4;" horiz-adv-x="553" 
d="M453 0l-52 187h-254l-53 -187h-84l216 720h102l215 -720h-90zM165 252h218l-107 390zM127 785v90h95v-90h-95zM332 785v90h95v-90h-95z" />
    <glyph glyph-name="Aring" unicode="&#xc5;" horiz-adv-x="553" 
d="M160 806q0 54 33.5 84t84.5 30t84 -28.5t33 -85.5q0 -38 -17 -63.5t-46 -38.5l211 -704h-90l-52 187h-254l-53 -187h-84l211 705q-28 13 -44.5 38.5t-16.5 62.5zM165 252h218l-107 390zM223 806q0 -30 15 -46.5t40 -16.5t39.5 16.5t14.5 46.5t-14.5 47.5t-39.5 17.5
t-40 -17.5t-15 -47.5z" />
    <glyph glyph-name="AE" unicode="&#xc6;" horiz-adv-x="820" 
d="M760 0h-303l-40 187h-256l-67 -187h-84l275 720h440v-65h-328l58 -258h265v-64h-251l59 -268h232v-65zM185 252h218l-80 382z" />
    <glyph glyph-name="Ccedilla" unicode="&#xc7;" horiz-adv-x="582" 
d="M423 -142q0 -45 -33 -72t-84 -27q-29 0 -56 7t-46 18l30 47q11 -5 27.5 -9t31.5 -4q23 0 41 8.5t18 35.5q0 24 -25.5 34.5t-62.5 15.5l14 76q-37 6 -74 27t-67 64t-48.5 111.5t-18.5 169.5q0 112 23 185t59 115t80.5 58.5t87.5 16.5q47 0 82.5 -14.5t60.5 -37.5t41 -52
t24 -57l-82 -11q-15 48 -44.5 76.5t-81.5 28.5q-34 0 -63.5 -14.5t-51.5 -50t-34.5 -94.5t-12.5 -149q0 -89 13 -148t34.5 -94t50.5 -50t62 -15q54 0 86.5 29t49.5 83l83 -8q-23 -72 -69 -117.5t-125 -53.5l-2 -37q42 -9 62 -34t20 -57z" />
    <glyph glyph-name="Egrave" unicode="&#xc8;" horiz-adv-x="500" 
d="M410 333h-235v-265h265v-68h-350v720h350v-68h-265v-253h235v-66zM332 768h-72l-142 117h119z" />
    <glyph glyph-name="Eacute" unicode="&#xc9;" horiz-adv-x="500" 
d="M410 333h-235v-265h265v-68h-350v720h350v-68h-265v-253h235v-66zM286 888h119l-142 -117h-72z" />
    <glyph glyph-name="Ecircumflex" unicode="&#xca;" horiz-adv-x="500" 
d="M410 333h-235v-265h265v-68h-350v720h350v-68h-265v-253h235v-66zM424 768h-90l-68 51l-68 -51h-90l119 117h78z" />
    <glyph glyph-name="Edieresis" unicode="&#xcb;" horiz-adv-x="500" 
d="M410 333h-235v-265h265v-68h-350v720h350v-68h-265v-253h235v-66zM116 785v90h95v-90h-95zM321 785v90h95v-90h-95z" />
    <glyph glyph-name="Igrave" unicode="&#xcc;" horiz-adv-x="265" 
d="M175 720v-720h-85v720h85zM210 768h-72l-142 117h119z" />
    <glyph glyph-name="Iacute" unicode="&#xcd;" horiz-adv-x="265" 
d="M175 720v-720h-85v720h85zM151 885h119l-142 -117h-72z" />
    <glyph glyph-name="Icircumflex" unicode="&#xce;" horiz-adv-x="265" 
d="M175 720v-720h-85v720h85zM291 768h-90l-68 51l-68 -51h-90l119 117h78z" />
    <glyph glyph-name="Idieresis" unicode="&#xcf;" horiz-adv-x="265" 
d="M175 720v-720h-85v720h85zM-16 785v90h95v-90h-95zM189 785v90h95v-90h-95z" />
    <glyph glyph-name="Eth" unicode="&#xd0;" horiz-adv-x="621" 
d="M100 351h-70v65h70v304h147q53 0 107 -14t98 -53.5t71.5 -110t27.5 -182.5q0 -113 -30.5 -183t-76 -109.5t-99 -53.5t-99.5 -14h-146v351zM185 351v-285h66q39 0 77.5 11.5t68.5 43.5t49 89.5t19 149.5t-20 150t-51.5 90.5t-69.5 44.5t-75 12h-64v-241h184v-65h-184z" />
    <glyph glyph-name="Ntilde" unicode="&#xd1;" horiz-adv-x="601" 
d="M511 720v-720h-111l-229 603v-603h-81v720h114l228 -596v596h79zM364 772q-24 0 -39.5 6t-27.5 13t-24 13t-29 6t-40 -10t-45 -27v71q22 16 45 25t44 9q24 0 39.5 -6t27.5 -13t24 -13t29 -6t38 10t43 27v-71q-22 -16 -43 -25t-42 -9z" />
    <glyph glyph-name="Ograve" unicode="&#xd2;" horiz-adv-x="658" 
d="M70 360q0 105 22 176.5t58 115.5t82.5 63.5t96.5 19.5q49 0 96 -19.5t83 -63.5t58 -115.5t22 -176.5t-22 -176.5t-58 -115.5t-83 -63.5t-96 -19.5q-50 0 -96.5 19.5t-82.5 63.5t-58 115.5t-22 176.5zM157 360q0 -153 42.5 -231.5t129.5 -78.5t129.5 78.5t42.5 231.5
t-42.5 231.5t-129.5 78.5t-129.5 -78.5t-42.5 -231.5zM386 768h-72l-142 117h119z" />
    <glyph glyph-name="Oacute" unicode="&#xd3;" horiz-adv-x="658" 
d="M70 360q0 105 22 176.5t58 115.5t82.5 63.5t96.5 19.5q49 0 96 -19.5t83 -63.5t58 -115.5t22 -176.5t-22 -176.5t-58 -115.5t-83 -63.5t-96 -19.5q-50 0 -96.5 19.5t-82.5 63.5t-58 115.5t-22 176.5zM157 360q0 -153 42.5 -231.5t129.5 -78.5t129.5 78.5t42.5 231.5
t-42.5 231.5t-129.5 78.5t-129.5 -78.5t-42.5 -231.5zM365 885h119l-142 -117h-72z" />
    <glyph glyph-name="Ocircumflex" unicode="&#xd4;" horiz-adv-x="658" 
d="M70 360q0 105 22 176.5t58 115.5t82.5 63.5t96.5 19.5q49 0 96 -19.5t83 -63.5t58 -115.5t22 -176.5t-22 -176.5t-58 -115.5t-83 -63.5t-96 -19.5q-50 0 -96.5 19.5t-82.5 63.5t-58 115.5t-22 176.5zM157 360q0 -153 42.5 -231.5t129.5 -78.5t129.5 78.5t42.5 231.5
t-42.5 231.5t-129.5 78.5t-129.5 -78.5t-42.5 -231.5zM487 768h-90l-68 51l-68 -51h-90l119 117h78z" />
    <glyph glyph-name="Otilde" unicode="&#xd5;" horiz-adv-x="658" 
d="M70 360q0 105 22 176.5t58 115.5t82.5 63.5t96.5 19.5q49 0 96 -19.5t83 -63.5t58 -115.5t22 -176.5t-22 -176.5t-58 -115.5t-83 -63.5t-96 -19.5q-50 0 -96.5 19.5t-82.5 63.5t-58 115.5t-22 176.5zM157 360q0 -153 42.5 -231.5t129.5 -78.5t129.5 78.5t42.5 231.5
t-42.5 231.5t-129.5 78.5t-129.5 -78.5t-42.5 -231.5zM389 770q-24 0 -39.5 6t-27.5 13t-24 13t-29 6t-40 -10t-45 -27v71q22 16 45 25t44 9q24 0 39.5 -6t27.5 -13t24 -13t29 -6t38 10t43 27v-71q-22 -16 -43 -25t-42 -9z" />
    <glyph glyph-name="Odieresis" unicode="&#xd6;" horiz-adv-x="658" 
d="M70 360q0 105 22 176.5t58 115.5t82.5 63.5t96.5 19.5q49 0 96 -19.5t83 -63.5t58 -115.5t22 -176.5t-22 -176.5t-58 -115.5t-83 -63.5t-96 -19.5q-50 0 -96.5 19.5t-82.5 63.5t-58 115.5t-22 176.5zM157 360q0 -153 42.5 -231.5t129.5 -78.5t129.5 78.5t42.5 231.5
t-42.5 231.5t-129.5 78.5t-129.5 -78.5t-42.5 -231.5zM178 785v90h95v-90h-95zM383 785v90h95v-90h-95z" />
    <glyph glyph-name="multiply" unicode="&#xd7;" 
d="M270 267l-136 -136l-54 54l136 136l-136 136l54 54l136 -136l136 136l54 -54l-136 -136l136 -136l-54 -54z" />
    <glyph glyph-name="Oslash" unicode="&#xd8;" horiz-adv-x="658" 
d="M70 360q0 105 22 176.5t58 115.5t82.5 63.5t96.5 19.5q25 0 49.5 -4.5t47.5 -15.5l39 105h70l-52 -141q47 -42 76 -119.5t29 -199.5q0 -105 -22 -176.5t-58 -115.5t-83 -63.5t-96 -19.5q-52 0 -96 19l-39 -106h-70l52 142q-47 42 -76.5 119.5t-29.5 200.5zM157 360
q0 -170 52 -246l194 536q-32 20 -74 20q-87 0 -129.5 -78.5t-42.5 -231.5zM501 360q0 165 -52 244l-195 -534q35 -20 75 -20q87 0 129.5 78.5t42.5 231.5z" />
    <glyph glyph-name="Ugrave" unicode="&#xd9;" horiz-adv-x="609" 
d="M170 720v-506q0 -75 31.5 -118t104.5 -43t105 43t32 118v506h81v-497q0 -118 -56.5 -178t-162.5 -60t-163 60t-57 178v497h85zM363 768h-72l-142 117h119z" />
    <glyph glyph-name="Uacute" unicode="&#xda;" horiz-adv-x="609" 
d="M170 720v-506q0 -75 31.5 -118t104.5 -43t105 43t32 118v506h81v-497q0 -118 -56.5 -178t-162.5 -60t-163 60t-57 178v497h85zM344 885h119l-142 -117h-72z" />
    <glyph glyph-name="Ucircumflex" unicode="&#xdb;" horiz-adv-x="609" 
d="M170 720v-506q0 -75 31.5 -118t104.5 -43t105 43t32 118v506h81v-497q0 -118 -56.5 -178t-162.5 -60t-163 60t-57 178v497h85zM463 766h-90l-68 51l-68 -51h-90l119 117h78z" />
    <glyph glyph-name="Udieresis" unicode="&#xdc;" horiz-adv-x="609" 
d="M170 720v-506q0 -75 31.5 -118t104.5 -43t105 43t32 118v506h81v-497q0 -118 -56.5 -178t-162.5 -60t-163 60t-57 178v497h85zM156 785v90h95v-90h-95zM361 785v90h95v-90h-95z" />
    <glyph glyph-name="Yacute" unicode="&#xdd;" horiz-adv-x="512" 
d="M502 720l-202 -432v-288h-84v288l-206 432h93l157 -344l159 344h83zM308 885h119l-142 -117h-72z" />
    <glyph glyph-name="Thorn" unicode="&#xde;" horiz-adv-x="563" 
d="M175 720v-124h69q53 0 98.5 -13.5t79 -42t52.5 -73t19 -106.5q0 -61 -20 -104.5t-54.5 -71t-80.5 -40.5t-98 -13h-65v-132h-85v720h85zM175 531v-334h67q79 0 121.5 38t42.5 126q0 85 -42.5 127.5t-117.5 42.5h-71z" />
    <glyph glyph-name="germandbls" unicode="&#xdf;" horiz-adv-x="574" 
d="M529 160q0 -43 -13.5 -75t-37 -53t-54 -31.5t-63.5 -10.5q-32 0 -57 7t-44.5 18.5t-33 25.5t-21.5 28l70 32q10 -17 31.5 -31.5t54.5 -14.5q18 0 34 6.5t28.5 19t20 31.5t7.5 43q0 22 -7 38t-18.5 29t-27 23t-33.5 20q-20 11 -38.5 23.5t-32.5 28.5t-22.5 36t-8.5 46
q0 29 8.5 49.5t22.5 35t32 23.5t37 15q5 16 7.5 31t2.5 39q0 39 -26.5 65.5t-74.5 26.5q-54 0 -83 -36t-29 -96v-552h-80v533q0 52 14 92t39.5 66.5t61 40t77.5 13.5q81 0 125.5 -42.5t44.5 -115.5q0 -17 -3.5 -47.5t-20.5 -63.5q-36 -6 -57.5 -21.5t-21.5 -45.5
q0 -15 4.5 -26t15 -21t27.5 -20t41 -23q42 -22 72 -59t30 -100z" />
    <glyph glyph-name="agrave" unicode="&#xe0;" horiz-adv-x="506" 
d="M372 0l-18 64q-23 -32 -60.5 -53t-97.5 -21q-25 0 -52.5 7.5t-50.5 25t-38 47t-15 74.5t18 77.5t47.5 55t68 35.5t79.5 19l93 14v37q0 23 -5 44t-16.5 36.5t-30.5 24.5t-47 9q-43 0 -71 -24t-37 -60l-79 14q22 57 70.5 93t121.5 36q84 0 129 -46t45 -137v-372h-54z
M220 54q40 0 71 16t55 42v176l-72 -12q-72 -12 -111.5 -40.5t-39.5 -85.5q0 -51 27 -73.5t70 -22.5zM304 598h-71l-139 137h113z" />
    <glyph glyph-name="aacute" unicode="&#xe1;" horiz-adv-x="506" 
d="M372 0l-18 64q-23 -32 -60.5 -53t-97.5 -21q-25 0 -52.5 7.5t-50.5 25t-38 47t-15 74.5t18 77.5t47.5 55t68 35.5t79.5 19l93 14v37q0 23 -5 44t-16.5 36.5t-30.5 24.5t-47 9q-43 0 -71 -24t-37 -60l-79 14q22 57 70.5 93t121.5 36q84 0 129 -46t45 -137v-372h-54z
M220 54q40 0 71 16t55 42v176l-72 -12q-72 -12 -111.5 -40.5t-39.5 -85.5q0 -51 27 -73.5t70 -22.5zM298 735h113l-140 -137h-70z" />
    <glyph glyph-name="acircumflex" unicode="&#xe2;" horiz-adv-x="506" 
d="M372 0l-18 64q-23 -32 -60.5 -53t-97.5 -21q-25 0 -52.5 7.5t-50.5 25t-38 47t-15 74.5t18 77.5t47.5 55t68 35.5t79.5 19l93 14v37q0 23 -5 44t-16.5 36.5t-30.5 24.5t-47 9q-43 0 -71 -24t-37 -60l-79 14q22 57 70.5 93t121.5 36q84 0 129 -46t45 -137v-372h-54z
M220 54q40 0 71 16t55 42v176l-72 -12q-72 -12 -111.5 -40.5t-39.5 -85.5q0 -51 27 -73.5t70 -22.5zM405 599h-85l-73 66l-73 -66h-85l122 136h72z" />
    <glyph glyph-name="atilde" unicode="&#xe3;" horiz-adv-x="506" 
d="M372 0l-18 64q-23 -32 -60.5 -53t-97.5 -21q-25 0 -52.5 7.5t-50.5 25t-38 47t-15 74.5t18 77.5t47.5 55t68 35.5t79.5 19l93 14v37q0 23 -5 44t-16.5 36.5t-30.5 24.5t-47 9q-43 0 -71 -24t-37 -60l-79 14q22 57 70.5 93t121.5 36q84 0 129 -46t45 -137v-372h-54z
M220 54q40 0 71 16t55 42v176l-72 -12q-72 -12 -111.5 -40.5t-39.5 -85.5q0 -51 27 -73.5t70 -22.5zM305 622q-24 0 -39.5 6t-27.5 13t-24 13t-29 6t-40 -10t-45 -27v71q22 16 45 25t44 9q24 0 39.5 -6t27.5 -13t24 -13t29 -6t38 10t43 27v-71q-22 -16 -43 -25t-42 -9z" />
    <glyph glyph-name="adieresis" unicode="&#xe4;" horiz-adv-x="506" 
d="M372 0l-18 64q-23 -32 -60.5 -53t-97.5 -21q-25 0 -52.5 7.5t-50.5 25t-38 47t-15 74.5t18 77.5t47.5 55t68 35.5t79.5 19l93 14v37q0 23 -5 44t-16.5 36.5t-30.5 24.5t-47 9q-43 0 -71 -24t-37 -60l-79 14q22 57 70.5 93t121.5 36q84 0 129 -46t45 -137v-372h-54z
M220 54q40 0 71 16t55 42v176l-72 -12q-72 -12 -111.5 -40.5t-39.5 -85.5q0 -51 27 -73.5t70 -22.5zM97 635v90h95v-90h-95zM302 635v90h95v-90h-95z" />
    <glyph glyph-name="aring" unicode="&#xe5;" horiz-adv-x="506" 
d="M372 0l-18 64q-23 -32 -60.5 -53t-97.5 -21q-25 0 -52.5 7.5t-50.5 25t-38 47t-15 74.5t18 77.5t47.5 55t68 35.5t79.5 19l93 14v37q0 23 -5 44t-16.5 36.5t-30.5 24.5t-47 9q-43 0 -71 -24t-37 -60l-79 14q22 57 70.5 93t121.5 36q84 0 129 -46t45 -137v-372h-54z
M220 54q40 0 71 16t55 42v176l-72 -12q-72 -12 -111.5 -40.5t-39.5 -85.5q0 -51 27 -73.5t70 -22.5zM130 696q0 54 33.5 84t84.5 30t84 -28.5t33 -85.5q0 -54 -33 -83t-84 -29t-84.5 29t-33.5 83zM193 696q0 -30 15 -46.5t40 -16.5t39.5 16.5t14.5 46.5t-14.5 47.5
t-39.5 17.5t-40 -17.5t-15 -47.5z" />
    <glyph glyph-name="ae" unicode="&#xe6;" horiz-adv-x="809" 
d="M557 54q25 0 44.5 7.5t33.5 19.5t23.5 27t14.5 30l70 -15q-9 -26 -25.5 -50t-40 -42.5t-55 -29.5t-70.5 -11q-49 0 -93.5 22t-74.5 78q-12 -20 -28.5 -38t-39.5 -32t-53 -22t-69 -8q-26 0 -53 7.5t-49.5 25t-37 47t-14.5 74.5t18 77.5t47.5 55t68 35.5t79.5 19l93 14v37
q0 23 -5 43.5t-16.5 35.5t-30.5 24t-47 9q-43 0 -71 -23.5t-37 -59.5l-79 13q22 57 71 93t121 36q103 0 143 -79q28 45 67 63t84 18q103 0 155.5 -71t52.5 -227h-334q1 -63 13 -102.5t31 -62t43 -30.5t50 -8zM220 54q48 0 78 19.5t48 50.5v164l-72 -12q-72 -11 -111.5 -42.5
t-39.5 -83.5q0 -51 27 -73.5t70 -22.5zM551 495q-52 0 -87 -41.5t-43 -135.5h252q-2 87 -33.5 132t-88.5 45z" />
    <glyph glyph-name="ccedilla" unicode="&#xe7;" horiz-adv-x="509" 
d="M380 -142q0 -45 -33 -72t-84 -27q-29 0 -56 7t-46 18l30 45q11 -5 27.5 -9t31.5 -4q23 0 41 9.5t18 36.5q0 24 -25.5 34.5t-62.5 15.5l15 81q-32 5 -63 21.5t-55.5 49t-39.5 83t-15 124.5q0 77 18.5 131t48.5 88t68 49.5t77 15.5q45 0 78 -14t56.5 -36t37 -49.5
t19.5 -54.5l-80 -12q-10 45 -34 73t-75 28q-27 0 -51 -12t-41.5 -38.5t-27.5 -68.5t-10 -103t10.5 -102t27.5 -66t40 -35.5t49 -10.5q25 0 45 8.5t34 23t22.5 33t12.5 39.5l81 -10q-7 -27 -20.5 -53t-34 -47.5t-49 -36.5t-64.5 -19l-3 -43q42 -9 62 -34t20 -57z" />
    <glyph glyph-name="egrave" unicode="&#xe8;" horiz-adv-x="534" 
d="M282 54q25 0 44.5 7.5t33.5 19.5t23.5 27t14.5 30l70 -15q-9 -26 -25.5 -50t-40 -42.5t-55 -29.5t-70.5 -11q-38 0 -76 13.5t-69 45.5t-50 86t-19 135q0 82 18.5 136.5t48 87.5t66.5 47t75 14q103 0 155.5 -71t52.5 -227h-334q1 -63 13 -102.5t31 -62t43 -30.5t50 -8z
M276 495q-52 0 -87 -41.5t-43 -135.5h252q-2 87 -33.5 132t-88.5 45zM332 598h-71l-139 137h113z" />
    <glyph glyph-name="eacute" unicode="&#xe9;" horiz-adv-x="534" 
d="M282 54q25 0 44.5 7.5t33.5 19.5t23.5 27t14.5 30l70 -15q-9 -26 -25.5 -50t-40 -42.5t-55 -29.5t-70.5 -11q-38 0 -76 13.5t-69 45.5t-50 86t-19 135q0 82 18.5 136.5t48 87.5t66.5 47t75 14q103 0 155.5 -71t52.5 -227h-334q1 -63 13 -102.5t31 -62t43 -30.5t50 -8z
M276 495q-52 0 -87 -41.5t-43 -135.5h252q-2 87 -33.5 132t-88.5 45zM316 735h113l-140 -137h-70z" />
    <glyph glyph-name="ecircumflex" unicode="&#xea;" horiz-adv-x="534" 
d="M282 54q25 0 44.5 7.5t33.5 19.5t23.5 27t14.5 30l70 -15q-9 -26 -25.5 -50t-40 -42.5t-55 -29.5t-70.5 -11q-38 0 -76 13.5t-69 45.5t-50 86t-19 135q0 82 18.5 136.5t48 87.5t66.5 47t75 14q103 0 155.5 -71t52.5 -227h-334q1 -63 13 -102.5t31 -62t43 -30.5t50 -8z
M276 495q-52 0 -87 -41.5t-43 -135.5h252q-2 87 -33.5 132t-88.5 45zM435 599h-85l-73 66l-73 -66h-85l122 136h72z" />
    <glyph glyph-name="edieresis" unicode="&#xeb;" horiz-adv-x="534" 
d="M282 54q25 0 44.5 7.5t33.5 19.5t23.5 27t14.5 30l70 -15q-9 -26 -25.5 -50t-40 -42.5t-55 -29.5t-70.5 -11q-38 0 -76 13.5t-69 45.5t-50 86t-19 135q0 82 18.5 136.5t48 87.5t66.5 47t75 14q103 0 155.5 -71t52.5 -227h-334q1 -63 13 -102.5t31 -62t43 -30.5t50 -8z
M276 495q-52 0 -87 -41.5t-43 -135.5h252q-2 87 -33.5 132t-88.5 45zM127 635v90h95v-90h-95zM332 635v90h95v-90h-95z" />
    <glyph glyph-name="igrave" unicode="&#xec;" horiz-adv-x="240" 
d="M80 0v540h80v-540h-80zM186 598h-71l-139 137h113z" />
    <glyph glyph-name="iacute" unicode="&#xed;" horiz-adv-x="240" 
d="M80 0v540h80v-540h-80zM152 735h113l-140 -137h-70z" />
    <glyph glyph-name="icircumflex" unicode="&#xee;" horiz-adv-x="240" 
d="M279 599h-85l-73 66l-73 -66h-85l122 136h72zM80 0v540h80v-540h-80z" />
    <glyph glyph-name="idieresis" unicode="&#xef;" horiz-adv-x="240" 
d="M80 0v540h80v-540h-80zM-29 635v90h95v-90h-95zM176 635v90h95v-90h-95z" />
    <glyph glyph-name="eth" unicode="&#xf0;" horiz-adv-x="484" 
d="M434 345q0 -171 -47 -263t-156 -92q-38 0 -72.5 15t-61 45.5t-42 75.5t-15.5 105q0 48 9.5 91.5t30.5 76t53.5 52t79.5 19.5q46 0 80.5 -20t58.5 -49q-7 66 -31 113t-56 79l-35 -37h-82l70 73q-29 19 -58 29.5t-54 15.5l23 61q30 -8 66 -21t71 -34l38 40h82l-71 -75
q25 -21 46.5 -49.5t37.5 -65t25.5 -82.5t9.5 -103zM227 407q-51 0 -78.5 -45.5t-27.5 -136.5q0 -48 9.5 -81.5t25.5 -54t36.5 -29.5t41.5 -9q61 0 89.5 68t30.5 224q-24 24 -56.5 44t-70.5 20z" />
    <glyph glyph-name="ntilde" unicode="&#xf1;" horiz-adv-x="548" 
d="M80 0v540h58l15 -66q33 44 76 62.5t79 18.5q79 0 119.5 -49.5t40.5 -155.5v-350h-80v354q0 73 -24.5 104.5t-78.5 31.5q-38 0 -69 -21.5t-56 -51.5v-417h-80zM338 618q-24 0 -39.5 6t-27.5 13t-24 13t-29 6t-40 -10t-45 -27v71q22 16 45 25t44 9q24 0 39.5 -6t27.5 -13
t24 -13t29 -6t38 10t43 27v-71q-22 -16 -43 -25t-42 -9z" />
    <glyph glyph-name="ograve" unicode="&#xf2;" horiz-adv-x="565" 
d="M63 270q0 83 20 138t51.5 87.5t71 46t77.5 13.5t77 -13t70.5 -45.5t51.5 -87.5t20 -139t-20 -138t-51.5 -85.5t-70.5 -44t-77 -12.5t-77.5 12.5t-71 44.5t-51.5 86t-20 137zM147 270q0 -114 37.5 -166.5t99.5 -52.5q63 0 99 51.5t36 167.5q0 115 -38 169.5t-98 54.5
q-59 0 -97.5 -55t-38.5 -169zM339 598h-71l-139 137h113z" />
    <glyph glyph-name="oacute" unicode="&#xf3;" horiz-adv-x="565" 
d="M63 270q0 83 20 138t51.5 87.5t71 46t77.5 13.5t77 -13t70.5 -45.5t51.5 -87.5t20 -139t-20 -138t-51.5 -85.5t-70.5 -44t-77 -12.5t-77.5 12.5t-71 44.5t-51.5 86t-20 137zM147 270q0 -114 37.5 -166.5t99.5 -52.5q63 0 99 51.5t36 167.5q0 115 -38 169.5t-98 54.5
q-59 0 -97.5 -55t-38.5 -169zM323 735h113l-140 -137h-70z" />
    <glyph glyph-name="ocircumflex" unicode="&#xf4;" horiz-adv-x="565" 
d="M63 270q0 83 20 138t51.5 87.5t71 46t77.5 13.5t77 -13t70.5 -45.5t51.5 -87.5t20 -139t-20 -138t-51.5 -85.5t-70.5 -44t-77 -12.5t-77.5 12.5t-71 44.5t-51.5 86t-20 137zM147 270q0 -114 37.5 -166.5t99.5 -52.5q63 0 99 51.5t36 167.5q0 115 -38 169.5t-98 54.5
q-59 0 -97.5 -55t-38.5 -169zM441 599h-85l-73 66l-73 -66h-85l122 136h72z" />
    <glyph glyph-name="otilde" unicode="&#xf5;" horiz-adv-x="565" 
d="M63 270q0 83 20 138t51.5 87.5t71 46t77.5 13.5t77 -13t70.5 -45.5t51.5 -87.5t20 -139t-20 -138t-51.5 -85.5t-70.5 -44t-77 -12.5t-77.5 12.5t-71 44.5t-51.5 86t-20 137zM147 270q0 -114 37.5 -166.5t99.5 -52.5q63 0 99 51.5t36 167.5q0 115 -38 169.5t-98 54.5
q-59 0 -97.5 -55t-38.5 -169zM343 620q-24 0 -39.5 6t-27.5 13t-24 13t-29 6t-40 -10t-45 -27v71q22 16 45 25t44 9q24 0 39.5 -6t27.5 -13t24 -13t29 -6t38 10t43 27v-71q-22 -16 -43 -25t-42 -9z" />
    <glyph glyph-name="odieresis" unicode="&#xf6;" horiz-adv-x="565" 
d="M63 270q0 83 20 138t51.5 87.5t71 46t77.5 13.5t77 -13t70.5 -45.5t51.5 -87.5t20 -139t-20 -138t-51.5 -85.5t-70.5 -44t-77 -12.5t-77.5 12.5t-71 44.5t-51.5 86t-20 137zM147 270q0 -114 37.5 -166.5t99.5 -52.5q63 0 99 51.5t36 167.5q0 115 -38 169.5t-98 54.5
q-59 0 -97.5 -55t-38.5 -169zM133 635v90h95v-90h-95zM338 635v90h95v-90h-95z" />
    <glyph glyph-name="divide" unicode="&#xf7;" 
d="M220 51v100h100v-100h-100zM220 489v100h100v-100h-100zM65 288v70h410v-70h-410z" />
    <glyph glyph-name="oslash" unicode="&#xf8;" horiz-adv-x="565" 
d="M63 270q0 83 20 138t51.5 87.5t71 46t77.5 13.5q48 0 90 -19l45 97h70l-61 -133q33 -32 54 -87.5t21 -142.5q0 -84 -20 -138t-51.5 -85.5t-70.5 -44t-77 -12.5q-21 0 -43 3.5t-42 11.5l-50 -107h-72l66 142q-35 31 -57 86.5t-22 143.5zM147 270q0 -54 8.5 -93.5
t24.5 -65.5l167 363q-29 20 -64 20q-59 0 -97.5 -55t-38.5 -169zM419 270q0 51 -8.5 89.5t-22.5 66.5l-165 -360q27 -15 61 -15q63 0 99 51.5t36 167.5z" />
    <glyph glyph-name="ugrave" unicode="&#xf9;" horiz-adv-x="536" 
d="M160 540v-354q0 -39 7 -64t20.5 -40t31.5 -21t41 -6q40 0 68 19.5t48 50.5v415h80v-540h-55l-18 68q-26 -40 -61.5 -59t-77.5 -19q-75 0 -119.5 47t-44.5 151v352h80zM322 598h-71l-139 137h113z" />
    <glyph glyph-name="uacute" unicode="&#xfa;" horiz-adv-x="536" 
d="M160 540v-354q0 -39 7 -64t20.5 -40t31.5 -21t41 -6q40 0 68 19.5t48 50.5v415h80v-540h-55l-18 68q-26 -40 -61.5 -59t-77.5 -19q-75 0 -119.5 47t-44.5 151v352h80zM331 735h113l-140 -137h-70z" />
    <glyph glyph-name="ucircumflex" unicode="&#xfb;" horiz-adv-x="536" 
d="M160 540v-354q0 -39 7 -64t20.5 -40t31.5 -21t41 -6q40 0 68 19.5t48 50.5v415h80v-540h-55l-18 68q-26 -40 -61.5 -59t-77.5 -19q-75 0 -119.5 47t-44.5 151v352h80zM425 593h-85l-73 66l-73 -66h-85l122 136h72z" />
    <glyph glyph-name="udieresis" unicode="&#xfc;" horiz-adv-x="536" 
d="M160 540v-354q0 -39 7 -64t20.5 -40t31.5 -21t41 -6q40 0 68 19.5t48 50.5v415h80v-540h-55l-18 68q-26 -40 -61.5 -59t-77.5 -19q-75 0 -119.5 47t-44.5 151v352h80zM118 635v90h95v-90h-95zM323 635v90h95v-90h-95z" />
    <glyph glyph-name="yacute" unicode="&#xfd;" horiz-adv-x="458" 
d="M292 -14q-11 -37 -22 -65t-26.5 -46.5t-38.5 -28t-59 -9.5q-29 0 -65 9v63q17 -4 32 -6t31 -2q36 0 50 24t26 75h-38l-172 540h85l144 -487l133 487h76zM282 735h113l-140 -137h-70z" />
    <glyph glyph-name="thorn" unicode="&#xfe;" horiz-adv-x="528" 
d="M80 -170v905h80v-244q25 30 59 47t79 17q34 0 64 -15t53 -48.5t36.5 -86.5t13.5 -129q0 -140 -52.5 -213t-146.5 -73q-69 0 -106 42v-202h-80zM265 489q-31 0 -57 -16.5t-48 -39.5v-340q18 -19 40.5 -32t49.5 -13q29 0 53 12.5t41.5 40.5t27 72.5t9.5 107.5
q0 60 -8.5 100t-24 64t-37 34t-46.5 10z" />
    <glyph glyph-name="ydieresis" unicode="&#xff;" horiz-adv-x="458" 
d="M292 -14q-11 -37 -22 -65t-26.5 -46.5t-38.5 -28t-59 -9.5q-29 0 -65 9v63q17 -4 32 -6t31 -2q36 0 50 24t26 75h-38l-172 540h85l144 -487l133 487h76zM80 635v90h95v-90h-95zM285 635v90h95v-90h-95z" />
    <glyph glyph-name="Amacron" unicode="&#x100;" horiz-adv-x="553" 
d="M453 0l-52 187h-254l-53 -187h-84l216 720h102l215 -720h-90zM165 252h218l-107 390zM142 796v69h270v-69h-270z" />
    <glyph glyph-name="amacron" unicode="&#x101;" horiz-adv-x="506" 
d="M372 0l-18 64q-23 -32 -60.5 -53t-97.5 -21q-25 0 -52.5 7.5t-50.5 25t-38 47t-15 74.5t18 77.5t47.5 55t68 35.5t79.5 19l93 14v37q0 23 -5 44t-16.5 36.5t-30.5 24.5t-47 9q-43 0 -71 -24t-37 -60l-79 14q22 57 70.5 93t121.5 36q84 0 129 -46t45 -137v-372h-54z
M220 54q40 0 71 16t55 42v176l-72 -12q-72 -12 -111.5 -40.5t-39.5 -85.5q0 -51 27 -73.5t70 -22.5zM113 646v69h270v-69h-270z" />
    <glyph glyph-name="Abreve" unicode="&#x102;" horiz-adv-x="553" 
d="M453 0l-52 187h-254l-53 -187h-84l216 720h102l215 -720h-90zM165 252h218l-107 390zM278 762q-26 0 -50.5 6.5t-45.5 20.5t-36.5 37.5t-22.5 58.5h83q5 -28 22.5 -44.5t49.5 -16.5t49.5 16.5t22.5 44.5h83q-7 -34 -22.5 -57.5t-36.5 -38t-46 -21t-50 -6.5z" />
    <glyph glyph-name="abreve" unicode="&#x103;" horiz-adv-x="506" 
d="M372 0l-18 64q-23 -32 -60.5 -53t-97.5 -21q-25 0 -52.5 7.5t-50.5 25t-38 47t-15 74.5t18 77.5t47.5 55t68 35.5t79.5 19l93 14v37q0 23 -5 44t-16.5 36.5t-30.5 24.5t-47 9q-43 0 -71 -24t-37 -60l-79 14q22 57 70.5 93t121.5 36q84 0 129 -46t45 -137v-372h-54z
M220 54q40 0 71 16t55 42v176l-72 -12q-72 -12 -111.5 -40.5t-39.5 -85.5q0 -51 27 -73.5t70 -22.5zM248 602q-26 0 -50.5 7t-45.5 23t-36.5 41.5t-22.5 61.5h83q5 -33 22.5 -52t49.5 -19t49.5 19t22.5 52h83q-7 -36 -22.5 -61.5t-36.5 -41.5t-46 -23t-50 -7z" />
    <glyph glyph-name="Aogonek" unicode="&#x104;" horiz-adv-x="553" 
d="M564 -212q-26 -14 -50.5 -20t-53.5 -6q-21 0 -41 6.5t-36.5 19.5t-26.5 33.5t-10 49.5q0 26 9.5 46t25 35.5t34.5 27t38 20.5l-52 187h-254l-53 -187h-84l216 720h102l215 -720h-15q-19 -10 -38 -22.5t-34 -27.5t-24.5 -32.5t-9.5 -37.5q0 -22 15.5 -38t42.5 -16
q11 0 27 3t36 11zM165 252h218l-107 390z" />
    <glyph glyph-name="aogonek" unicode="&#x105;" horiz-adv-x="506" 
d="M426 0q-19 -10 -37.5 -22.5t-33.5 -27.5t-24.5 -32.5t-9.5 -37.5q0 -22 14 -39t46 -17q11 0 27 3t36 11l21 -50q-26 -14 -50.5 -20t-53.5 -6q-21 0 -41 6.5t-36.5 19.5t-26.5 33.5t-10 49.5q0 24 11 46t28 40.5t39 33t43 23.5l-14 50q-23 -32 -60.5 -53t-97.5 -21
q-25 0 -52.5 7.5t-50.5 25t-38 47t-15 74.5t18 77.5t47.5 55t68 35.5t79.5 19l93 14v37q0 23 -5 44t-16.5 36.5t-30.5 24.5t-47 9q-43 0 -71 -24t-37 -60l-79 14q22 57 70.5 93t121.5 36q84 0 129 -46t45 -137v-372zM220 54q40 0 71 16t55 42v176l-72 -12
q-72 -11 -111.5 -42.5t-39.5 -83.5q0 -51 27 -73.5t70 -22.5z" />
    <glyph glyph-name="Cacute" unicode="&#x106;" horiz-adv-x="582" 
d="M318 53q54 0 86.5 29t49.5 83l83 -8q-24 -77 -77 -124.5t-144 -47.5q-40 0 -83.5 16t-79.5 57.5t-59.5 114.5t-23.5 187q0 112 23 185t59 115t80.5 58.5t87.5 16.5q47 0 82.5 -14.5t60.5 -37.5t41 -52t24 -57l-82 -11q-15 48 -44.5 76.5t-81.5 28.5q-34 0 -63.5 -14.5
t-51.5 -50t-34.5 -94.5t-12.5 -149q0 -89 13 -148t34.5 -94t50.5 -50t62 -15zM355 885h119l-142 -117h-72z" />
    <glyph glyph-name="cacute" unicode="&#x107;" horiz-adv-x="509" 
d="M277 490q-27 0 -51 -12t-41.5 -38.5t-27.5 -68.5t-10 -103t10.5 -102t27.5 -66t40 -35.5t49 -10.5q25 0 45 8.5t34 23t22.5 33t12.5 39.5l81 -10q-7 -29 -22 -57t-39.5 -50.5t-58.5 -36.5t-77 -14q-35 0 -72 12.5t-67.5 44t-50 86t-19.5 138.5q0 77 18.5 131t48.5 88
t68 49.5t77 15.5q45 0 78 -14t56.5 -36t37 -49.5t19.5 -54.5l-80 -12q-10 45 -34 73t-75 28zM319 735h113l-140 -137h-70z" />
    <glyph glyph-name="Ccircumflex" unicode="&#x108;" horiz-adv-x="582" 
d="M318 53q54 0 86.5 29t49.5 83l83 -8q-24 -77 -77 -124.5t-144 -47.5q-40 0 -83.5 16t-79.5 57.5t-59.5 114.5t-23.5 187q0 112 23 185t59 115t80.5 58.5t87.5 16.5q47 0 82.5 -14.5t60.5 -37.5t41 -52t24 -57l-82 -11q-15 48 -44.5 76.5t-81.5 28.5q-34 0 -63.5 -14.5
t-51.5 -50t-34.5 -94.5t-12.5 -149q0 -89 13 -148t34.5 -94t50.5 -50t62 -15zM477 768h-90l-68 51l-68 -51h-90l119 117h78z" />
    <glyph glyph-name="ccircumflex" unicode="&#x109;" horiz-adv-x="509" 
d="M277 490q-27 0 -51 -12t-41.5 -38.5t-27.5 -68.5t-10 -103t10.5 -102t27.5 -66t40 -35.5t49 -10.5q25 0 45 8.5t34 23t22.5 33t12.5 39.5l81 -10q-7 -29 -22 -57t-39.5 -50.5t-58.5 -36.5t-77 -14q-35 0 -72 12.5t-67.5 44t-50 86t-19.5 138.5q0 77 18.5 131t48.5 88
t68 49.5t77 15.5q45 0 78 -14t56.5 -36t37 -49.5t19.5 -54.5l-80 -12q-10 45 -34 73t-75 28zM437 599h-85l-73 66l-73 -66h-85l122 136h72z" />
    <glyph glyph-name="Cdotaccent" unicode="&#x10a;" horiz-adv-x="582" 
d="M318 53q54 0 86.5 29t49.5 83l83 -8q-24 -77 -77 -124.5t-144 -47.5q-40 0 -83.5 16t-79.5 57.5t-59.5 114.5t-23.5 187q0 112 23 185t59 115t80.5 58.5t87.5 16.5q47 0 82.5 -14.5t60.5 -37.5t41 -52t24 -57l-82 -11q-15 48 -44.5 76.5t-81.5 28.5q-34 0 -63.5 -14.5
t-51.5 -50t-34.5 -94.5t-12.5 -149q0 -89 13 -148t34.5 -94t50.5 -50t62 -15zM276 788v97h92v-97h-92z" />
    <glyph glyph-name="cdotaccent" unicode="&#x10b;" horiz-adv-x="509" 
d="M277 490q-27 0 -51 -12t-41.5 -38.5t-27.5 -68.5t-10 -103t10.5 -102t27.5 -66t40 -35.5t49 -10.5q25 0 45 8.5t34 23t22.5 33t12.5 39.5l81 -10q-7 -29 -22 -57t-39.5 -50.5t-58.5 -36.5t-77 -14q-35 0 -72 12.5t-67.5 44t-50 86t-19.5 138.5q0 77 18.5 131t48.5 88
t68 49.5t77 15.5q45 0 78 -14t56.5 -36t37 -49.5t19.5 -54.5l-80 -12q-10 45 -34 73t-75 28zM232 638v97h92v-97h-92z" />
    <glyph glyph-name="Ccaron" unicode="&#x10c;" horiz-adv-x="582" 
d="M318 53q54 0 86.5 29t49.5 83l83 -8q-24 -77 -77 -124.5t-144 -47.5q-40 0 -83.5 16t-79.5 57.5t-59.5 114.5t-23.5 187q0 112 23 185t59 115t80.5 58.5t87.5 16.5q47 0 82.5 -14.5t60.5 -37.5t41 -52t24 -57l-82 -11q-15 48 -44.5 76.5t-81.5 28.5q-34 0 -63.5 -14.5
t-51.5 -50t-34.5 -94.5t-12.5 -149q0 -89 13 -148t34.5 -94t50.5 -50t62 -15zM357 768h-78l-119 117h90l68 -51l68 51h90z" />
    <glyph glyph-name="ccaron" unicode="&#x10d;" horiz-adv-x="509" 
d="M277 490q-27 0 -51 -12t-41.5 -38.5t-27.5 -68.5t-10 -103t10.5 -102t27.5 -66t40 -35.5t49 -10.5q25 0 45 8.5t34 23t22.5 33t12.5 39.5l81 -10q-7 -29 -22 -57t-39.5 -50.5t-58.5 -36.5t-77 -14q-35 0 -72 12.5t-67.5 44t-50 86t-19.5 138.5q0 77 18.5 131t48.5 88
t68 49.5t77 15.5q45 0 78 -14t56.5 -36t37 -49.5t19.5 -54.5l-80 -12q-10 45 -34 73t-75 28zM313 599h-72l-122 136h85l73 -65l73 65h85z" />
    <glyph glyph-name="Dcaron" unicode="&#x10e;" horiz-adv-x="611" 
d="M237 720q53 0 107 -14t98 -53.5t71.5 -110t27.5 -182.5q0 -113 -30.5 -183t-76 -109.5t-99 -53.5t-99.5 -14h-146v720h147zM175 657v-591h66q39 0 77.5 11.5t68.5 43.5t49 89.5t19 149.5t-20 150t-51.5 90.5t-69.5 44.5t-75 12h-64zM319 768h-78l-119 117h90l68 -51
l68 51h90z" />
    <glyph glyph-name="dcaron" unicode="&#x10f;" horiz-adv-x="599" 
d="M63 271q0 140 54 212t148 72q35 0 61.5 -11.5t46.5 -31.5v223h80v-735h-58l-17 61q-25 -34 -61 -52.5t-84 -18.5q-34 0 -64.5 15.5t-54 49t-37.5 87t-14 129.5zM266 56q31 0 57.5 17t49.5 41v341q-19 17 -42 29t-50 12q-29 0 -53.5 -12t-42.5 -39.5t-28 -71.5t-10 -107
q0 -60 9 -100t25 -64.5t37.5 -35t47.5 -10.5zM565 536h-56l29 100h-29v100h100v-99z" />
    <glyph glyph-name="Dcroat" unicode="&#x110;" horiz-adv-x="621" 
d="M100 351h-70v65h70v304h147q53 0 107 -14t98 -53.5t71.5 -110t27.5 -182.5q0 -113 -30.5 -183t-76 -109.5t-99 -53.5t-99.5 -14h-146v351zM185 351v-285h66q39 0 77.5 11.5t68.5 43.5t49 89.5t19 149.5t-20 150t-51.5 90.5t-69.5 44.5t-75 12h-64v-241h184v-65h-184z" />
    <glyph glyph-name="dcroat" unicode="&#x111;" horiz-adv-x="564" 
d="M63 271q0 140 54 212t148 72q35 0 61.5 -11.5t46.5 -31.5v101h-173v62h173v60h80v-60h81v-62h-81v-613h-58l-17 61q-25 -34 -61 -52.5t-84 -18.5q-34 0 -64.5 15.5t-54 49t-37.5 87t-14 129.5zM266 56q31 0 57.5 17t49.5 41v341q-19 17 -42 29t-50 12q-29 0 -53.5 -12
t-42.5 -39.5t-28 -71.5t-10 -107q0 -60 9 -100t25 -64.5t37.5 -35t47.5 -10.5z" />
    <glyph glyph-name="Emacron" unicode="&#x112;" horiz-adv-x="500" 
d="M410 333h-235v-265h265v-68h-350v720h350v-68h-265v-253h235v-66zM131 799v69h270v-69h-270z" />
    <glyph glyph-name="emacron" unicode="&#x113;" horiz-adv-x="534" 
d="M282 54q25 0 44.5 7.5t33.5 19.5t23.5 27t14.5 30l70 -15q-9 -26 -25.5 -50t-40 -42.5t-55 -29.5t-70.5 -11q-38 0 -76 13.5t-69 45.5t-50 86t-19 135q0 82 18.5 136.5t48 87.5t66.5 47t75 14q103 0 155.5 -71t52.5 -227h-334q1 -63 13 -102.5t31 -62t43 -30.5t50 -8z
M276 495q-52 0 -87 -41.5t-43 -135.5h252q-2 87 -33.5 132t-88.5 45zM139 646v69h270v-69h-270z" />
    <glyph glyph-name="Ebreve" unicode="&#x114;" horiz-adv-x="500" 
d="M410 333h-235v-265h265v-68h-350v720h350v-68h-265v-253h235v-66zM264 762q-26 0 -50.5 6.5t-45.5 20.5t-36.5 37.5t-22.5 58.5h83q5 -28 22.5 -44.5t49.5 -16.5t49.5 16.5t22.5 44.5h83q-7 -34 -22.5 -57.5t-36.5 -38t-46 -21t-50 -6.5z" />
    <glyph glyph-name="ebreve" unicode="&#x115;" horiz-adv-x="534" 
d="M282 54q25 0 44.5 7.5t33.5 19.5t23.5 27t14.5 30l70 -15q-9 -26 -25.5 -50t-40 -42.5t-55 -29.5t-70.5 -11q-38 0 -76 13.5t-69 45.5t-50 86t-19 135q0 82 18.5 136.5t48 87.5t66.5 47t75 14q103 0 155.5 -71t52.5 -227h-334q1 -63 13 -102.5t31 -62t43 -30.5t50 -8z
M276 495q-52 0 -87 -41.5t-43 -135.5h252q-2 87 -33.5 132t-88.5 45zM278 602q-26 0 -50.5 7t-45.5 23t-36.5 41.5t-22.5 61.5h83q5 -33 22.5 -52t49.5 -19t49.5 19t22.5 52h83q-7 -36 -22.5 -61.5t-36.5 -41.5t-46 -23t-50 -7z" />
    <glyph glyph-name="Edotaccent" unicode="&#x116;" horiz-adv-x="500" 
d="M410 333h-235v-265h265v-68h-350v720h350v-68h-265v-253h235v-66zM222 788v97h92v-97h-92z" />
    <glyph glyph-name="edotaccent" unicode="&#x117;" horiz-adv-x="534" 
d="M282 54q25 0 44.5 7.5t33.5 19.5t23.5 27t14.5 30l70 -15q-9 -26 -25.5 -50t-40 -42.5t-55 -29.5t-70.5 -11q-38 0 -76 13.5t-69 45.5t-50 86t-19 135q0 82 18.5 136.5t48 87.5t66.5 47t75 14q103 0 155.5 -71t52.5 -227h-334q1 -63 13 -102.5t31 -62t43 -30.5t50 -8z
M276 495q-52 0 -87 -41.5t-43 -135.5h252q-2 87 -33.5 132t-88.5 45zM232 645v97h92v-97h-92z" />
    <glyph glyph-name="Eogonek" unicode="&#x118;" horiz-adv-x="500" 
d="M410 333h-235v-265h265v-68h-41q-18 -10 -36.5 -22.5t-32.5 -27.5t-23 -32.5t-9 -37.5q0 -22 15.5 -38t42.5 -16q11 0 27 3t36 11l21 -52q-26 -14 -50.5 -20t-53.5 -6q-21 0 -41 6.5t-36.5 19.5t-26.5 33.5t-10 49.5q0 21 8.5 39.5t22 35t31 30t35.5 24.5h-229v720h350
v-68h-265v-253h235v-66z" />
    <glyph glyph-name="eogonek" unicode="&#x119;" horiz-adv-x="534" 
d="M414 -212q-26 -14 -50.5 -20t-53.5 -6q-21 0 -41 6.5t-36.5 19.5t-26.5 33.5t-10 49.5q0 36 19.5 67t48.5 53q-37 2 -73 16.5t-64.5 47t-46 85t-17.5 130.5q0 82 18.5 136.5t48 87.5t66.5 47t75 14q103 0 155.5 -71t52.5 -227h-334q1 -63 13 -102.5t31 -62t43 -30.5
t50 -8q25 0 44.5 7.5t33.5 19.5t23.5 27t14.5 30l70 -15q-14 -37 -40.5 -69t-69.5 -49q-35 -20 -61.5 -51t-26.5 -74q0 -22 14 -39t46 -17q11 0 27 3t36 11zM276 495q-52 0 -87 -41.5t-43 -135.5h252q-2 87 -33.5 132t-88.5 45z" />
    <glyph glyph-name="Ecaron" unicode="&#x11a;" horiz-adv-x="500" 
d="M410 333h-235v-265h265v-68h-350v720h350v-68h-265v-253h235v-66zM311 768h-78l-119 117h90l68 -51l68 51h90z" />
    <glyph glyph-name="ecaron" unicode="&#x11b;" horiz-adv-x="534" 
d="M282 54q25 0 44.5 7.5t33.5 19.5t23.5 27t14.5 30l70 -15q-9 -26 -25.5 -50t-40 -42.5t-55 -29.5t-70.5 -11q-38 0 -76 13.5t-69 45.5t-50 86t-19 135q0 82 18.5 136.5t48 87.5t66.5 47t75 14q103 0 155.5 -71t52.5 -227h-334q1 -63 13 -102.5t31 -62t43 -30.5t50 -8z
M276 495q-52 0 -87 -41.5t-43 -135.5h252q-2 87 -33.5 132t-88.5 45zM313 599h-72l-122 136h85l73 -65l73 65h85z" />
    <glyph glyph-name="Gcircumflex" unicode="&#x11c;" horiz-adv-x="598" 
d="M521 0h-50l-13 51q-28 -33 -66.5 -49t-81.5 -16q-42 0 -84.5 15.5t-77 57.5t-56.5 115t-22 187q0 115 24.5 188t62 114.5t82 57t84.5 15.5q41 0 73.5 -12t57.5 -32.5t41.5 -47t25.5 -56.5l-82 -12q-11 39 -37.5 67t-78.5 28q-30 0 -59.5 -14t-53.5 -49.5t-38.5 -95.5
t-14.5 -151q0 -89 12.5 -148t33.5 -95t49 -51t60 -15q92 0 133 62v215h-123v68h199v-397zM481 768h-90l-68 51l-68 -51h-90l119 117h78z" />
    <glyph glyph-name="gcircumflex" unicode="&#x11d;" horiz-adv-x="508" 
d="M468 528l-121 5q42 -20 69.5 -59.5t27.5 -102.5q0 -47 -17.5 -81.5t-45.5 -57t-63 -33.5t-69 -11q-47 0 -92 19q-16 -13 -16 -33q0 -9 1.5 -18.5t12 -17.5t32.5 -14t63 -9q51 -3 92 -12.5t70.5 -27.5t45.5 -46.5t16 -70.5q0 -31 -14.5 -59t-43 -49.5t-71.5 -34
t-100 -12.5q-99 0 -152 39t-53 103q0 45 21.5 74.5t56.5 47.5q-25 14 -34.5 33.5t-9.5 42.5q0 29 14.5 49.5t36.5 32.5q-32 23 -53 59t-21 87q0 52 19.5 87.5t48.5 57t64 30.5t67 9q23 0 43 -4v31l175 20v-74zM131 371q0 -57 32 -91t86 -34t84.5 34t30.5 91q0 60 -31 93
t-85 33t-85.5 -34.5t-31.5 -91.5zM220 41q-14 1 -27.5 2.5t-26.5 5.5q-20 -17 -33 -38.5t-13 -52.5q0 -19 6 -37t20.5 -32t38 -22.5t59.5 -8.5q43 0 71 9t44.5 23t23 31t6.5 32q0 19 -6.5 33.5t-24.5 25.5t-51 18t-87 11zM406 619h-90l-68 51l-68 -51h-90l119 117h78z" />
    <glyph glyph-name="Gbreve" unicode="&#x11e;" horiz-adv-x="598" 
d="M521 0h-50l-13 51q-28 -33 -66.5 -49t-81.5 -16q-42 0 -84.5 15.5t-77 57.5t-56.5 115t-22 187q0 115 24.5 188t62 114.5t82 57t84.5 15.5q41 0 73.5 -12t57.5 -32.5t41.5 -47t25.5 -56.5l-82 -12q-11 39 -37.5 67t-78.5 28q-30 0 -59.5 -14t-53.5 -49.5t-38.5 -95.5
t-14.5 -151q0 -89 12.5 -148t33.5 -95t49 -51t60 -15q92 0 133 62v215h-123v68h199v-397zM324 762q-26 0 -50.5 6.5t-45.5 20.5t-36.5 37.5t-22.5 58.5h83q5 -28 22.5 -44.5t49.5 -16.5t49.5 16.5t22.5 44.5h83q-7 -34 -22.5 -57.5t-36.5 -38t-46 -21t-50 -6.5z" />
    <glyph glyph-name="gbreve" unicode="&#x11f;" horiz-adv-x="508" 
d="M468 528l-121 5q42 -20 69.5 -59.5t27.5 -102.5q0 -47 -17.5 -81.5t-45.5 -57t-63 -33.5t-69 -11q-47 0 -92 19q-16 -13 -16 -33q0 -9 1.5 -18.5t12 -17.5t32.5 -14t63 -9q51 -3 92 -12.5t70.5 -27.5t45.5 -46.5t16 -70.5q0 -31 -14.5 -59t-43 -49.5t-71.5 -34
t-100 -12.5q-99 0 -152 39t-53 103q0 45 21.5 74.5t56.5 47.5q-25 14 -34.5 33.5t-9.5 42.5q0 29 14.5 49.5t36.5 32.5q-32 23 -53 59t-21 87q0 52 19.5 87.5t48.5 57t64 30.5t67 9q23 0 43 -4v31l175 20v-74zM131 371q0 -57 32 -91t86 -34t84.5 34t30.5 91q0 60 -31 93
t-85 33t-85.5 -34.5t-31.5 -91.5zM220 41q-14 1 -27.5 2.5t-26.5 5.5q-20 -17 -33 -38.5t-13 -52.5q0 -19 6 -37t20.5 -32t38 -22.5t59.5 -8.5q43 0 71 9t44.5 23t23 31t6.5 32q0 19 -6.5 33.5t-24.5 25.5t-51 18t-87 11zM247 613q-26 0 -50.5 6.5t-45.5 20.5t-36.5 37.5
t-22.5 58.5h83q5 -28 22.5 -44.5t49.5 -16.5t49.5 16.5t22.5 44.5h83q-7 -34 -22.5 -57.5t-36.5 -38t-46 -21t-50 -6.5z" />
    <glyph glyph-name="Gdotaccent" unicode="&#x120;" horiz-adv-x="598" 
d="M521 0h-50l-13 51q-28 -33 -66.5 -49t-81.5 -16q-42 0 -84.5 15.5t-77 57.5t-56.5 115t-22 187q0 115 24.5 188t62 114.5t82 57t84.5 15.5q41 0 73.5 -12t57.5 -32.5t41.5 -47t25.5 -56.5l-82 -12q-11 39 -37.5 67t-78.5 28q-30 0 -59.5 -14t-53.5 -49.5t-38.5 -95.5
t-14.5 -151q0 -89 12.5 -148t33.5 -95t49 -51t60 -15q92 0 133 62v215h-123v68h199v-397zM276 788v97h92v-97h-92z" />
    <glyph glyph-name="gdotaccent" unicode="&#x121;" horiz-adv-x="508" 
d="M468 528l-121 5q42 -20 69.5 -59.5t27.5 -102.5q0 -47 -17.5 -81.5t-45.5 -57t-63 -33.5t-69 -11q-47 0 -92 19q-16 -13 -16 -33q0 -9 1.5 -18.5t12 -17.5t32.5 -14t63 -9q51 -3 92 -12.5t70.5 -27.5t45.5 -46.5t16 -70.5q0 -31 -14.5 -59t-43 -49.5t-71.5 -34
t-100 -12.5q-99 0 -152 39t-53 103q0 45 21.5 74.5t56.5 47.5q-25 14 -34.5 33.5t-9.5 42.5q0 29 14.5 49.5t36.5 32.5q-32 23 -53 59t-21 87q0 52 19.5 87.5t48.5 57t64 30.5t67 9q23 0 43 -4v31l175 20v-74zM131 371q0 -57 32 -91t86 -34t84.5 34t30.5 91q0 60 -31 93
t-85 33t-85.5 -34.5t-31.5 -91.5zM220 41q-14 1 -27.5 2.5t-26.5 5.5q-20 -17 -33 -38.5t-13 -52.5q0 -19 6 -37t20.5 -32t38 -22.5t59.5 -8.5q43 0 71 9t44.5 23t23 31t6.5 32q0 19 -6.5 33.5t-24.5 25.5t-51 18t-87 11zM202 639v97h92v-97h-92z" />
    <glyph glyph-name="Gcommaaccent" unicode="&#x122;" horiz-adv-x="598" 
d="M521 0h-50l-13 51q-28 -33 -66.5 -49t-81.5 -16q-42 0 -84.5 15.5t-77 57.5t-56.5 115t-22 187q0 115 24.5 188t62 114.5t82 57t84.5 15.5q41 0 73.5 -12t57.5 -32.5t41.5 -47t25.5 -56.5l-82 -12q-11 39 -37.5 67t-78.5 28q-30 0 -59.5 -14t-53.5 -49.5t-38.5 -95.5
t-14.5 -151q0 -89 12.5 -148t33.5 -95t49 -51t60 -15q92 0 133 62v215h-123v68h199v-397zM330 -270h-56l29 100h-29v100h100v-99z" />
    <glyph glyph-name="gcommaaccent" unicode="&#x123;" horiz-adv-x="508" 
d="M468 528l-121 5q42 -20 69.5 -59.5t27.5 -102.5q0 -47 -17.5 -81.5t-45.5 -57t-63 -33.5t-69 -11q-47 0 -92 19q-16 -13 -16 -33q0 -9 1.5 -18.5t12 -17.5t32.5 -14t63 -9q51 -3 92 -12.5t70.5 -27.5t45.5 -46.5t16 -70.5q0 -31 -14.5 -59t-43 -49.5t-71.5 -34
t-100 -12.5q-99 0 -152 39t-53 103q0 45 21.5 74.5t56.5 47.5q-25 14 -34.5 33.5t-9.5 42.5q0 29 14.5 49.5t36.5 32.5q-32 23 -53 59t-21 87q0 52 19.5 87.5t48.5 57t64 30.5t67 9q23 0 43 -4v31l175 20v-74zM131 371q0 -57 32 -91t86 -34t84.5 34t30.5 91q0 60 -31 93
t-85 33t-85.5 -34.5t-31.5 -91.5zM220 41q-14 1 -27.5 2.5t-26.5 5.5q-20 -17 -33 -38.5t-13 -52.5q0 -19 6 -37t20.5 -32t38 -22.5t59.5 -8.5q43 0 71 9t44.5 23t23 31t6.5 32q0 19 -6.5 33.5t-24.5 25.5t-51 18t-87 11zM237 800h56l-29 -100h29v-100h-100v99z" />
    <glyph glyph-name="Hcircumflex" unicode="&#x124;" horiz-adv-x="620" 
d="M530 720v-720h-85v330h-270v-330h-85v720h85v-322h270v322h85zM466 768h-90l-68 51l-68 -51h-90l119 117h78z" />
    <glyph glyph-name="hcircumflex" unicode="&#x125;" horiz-adv-x="548" 
d="M80 0v735h80v-258q32 42 71.5 60t76.5 18q79 0 119.5 -49.5t40.5 -155.5v-350h-80v354q0 73 -24.5 104.5t-78.5 31.5q-37 0 -68.5 -22t-56.5 -52v-416h-80zM425 768h-90l-68 51l-68 -51h-90l119 117h78z" />
    <glyph glyph-name="Hbar" unicode="&#x126;" horiz-adv-x="664" 
d="M535 720v-95h75v-61h-75v-564h-85v330h-270v-330h-85v564h-70v61h70v95h85v-95h270v95h85zM180 398h270v166h-270v-166z" />
    <glyph glyph-name="hbar" unicode="&#x127;" horiz-adv-x="553" 
d="M85 0v613h-54v62h54v60h80v-60h200v-62h-200v-136q32 42 71.5 60t76.5 18q79 0 119.5 -49.5t40.5 -155.5v-350h-80v354q0 73 -24.5 104.5t-78.5 31.5q-37 0 -68.5 -22t-56.5 -52v-416h-80z" />
    <glyph glyph-name="Itilde" unicode="&#x128;" horiz-adv-x="265" 
d="M175 720v-720h-85v720h85zM194 770q-24 0 -39.5 6t-27.5 13t-24 13t-29 6t-40 -10t-45 -27v71q22 16 45 25t44 9q24 0 39.5 -6t27.5 -13t24 -13t29 -6t38 10t43 27v-71q-22 -16 -43 -25t-42 -9z" />
    <glyph glyph-name="itilde" unicode="&#x129;" horiz-adv-x="240" 
d="M80 0v540h80v-540h-80zM181 620q-24 0 -39.5 6t-27.5 13t-24 13t-29 6t-40 -10t-45 -27v71q22 16 45 25t44 9q24 0 39.5 -6t27.5 -13t24 -13t29 -6t38 10t43 27v-71q-22 -16 -43 -25t-42 -9z" />
    <glyph glyph-name="Imacron" unicode="&#x12a;" horiz-adv-x="265" 
d="M175 720v-720h-85v720h85zM-1 796v69h270v-69h-270z" />
    <glyph glyph-name="imacron" unicode="&#x12b;" horiz-adv-x="240" 
d="M80 0v540h80v-540h-80zM-14 646v69h270v-69h-270z" />
    <glyph glyph-name="Ibreve" unicode="&#x12c;" horiz-adv-x="265" 
d="M175 720v-720h-85v720h85zM134 762q-26 0 -50.5 6.5t-45.5 20.5t-36.5 37.5t-22.5 58.5h83q5 -28 22.5 -44.5t49.5 -16.5t49.5 16.5t22.5 44.5h83q-7 -34 -22.5 -57.5t-36.5 -38t-46 -21t-50 -6.5z" />
    <glyph glyph-name="ibreve" unicode="&#x12d;" horiz-adv-x="240" 
d="M80 0v540h80v-540h-80zM121 602q-26 0 -50.5 7t-45.5 23t-36.5 41.5t-22.5 61.5h83q5 -33 22.5 -52t49.5 -19t49.5 19t22.5 52h83q-7 -36 -22.5 -61.5t-36.5 -41.5t-46 -23t-50 -7z" />
    <glyph glyph-name="Iogonek" unicode="&#x12e;" horiz-adv-x="265" 
d="M175 0q-19 -10 -36.5 -22.5t-31.5 -27.5t-22.5 -32.5t-8.5 -37.5q0 -22 14.5 -38t41.5 -16q11 0 27 3t36 11l21 -52q-26 -14 -50.5 -20t-53.5 -6q-21 0 -41 6.5t-35.5 19.5t-25.5 33.5t-10 49.5q0 21 9 39.5t23 34.5t32 30t36 25h-10v720h85v-720z" />
    <glyph glyph-name="iogonek" unicode="&#x12f;" horiz-adv-x="240" 
d="M160 0q-19 -10 -37 -22.5t-32.5 -27.5t-23.5 -32.5t-9 -37.5q0 -22 12.5 -39t44.5 -17q11 0 27 3t36 11l21 -50q-26 -14 -50.5 -20t-53.5 -6q-21 0 -40.5 6.5t-35.5 19.5t-25.5 33.5t-9.5 49.5q0 21 9 39.5t23 35t32.5 30t37.5 24.5h-6v540h80v-540zM74 638v97h92v-97
h-92z" />
    <glyph glyph-name="Idotaccent" unicode="&#x130;" horiz-adv-x="265" 
d="M175 720v-720h-85v720h85zM87 788v97h92v-97h-92z" />
    <glyph glyph-name="dotlessi" unicode="&#x131;" horiz-adv-x="240" 
d="M80 0v540h80v-540h-80z" />
    <glyph glyph-name="IJ" unicode="&#x132;" horiz-adv-x="577" 
d="M407 720h85v-555q0 -96 -34 -137.5t-104 -41.5q-26 0 -47 4t-39 10v69q17 -5 39.5 -9t36.5 -4q17 0 29 4t19.5 16t11 33.5t3.5 57.5v553zM175 720v-720h-85v720h85z" />
    <glyph glyph-name="ij" unicode="&#x133;" horiz-adv-x="488" 
d="M75 638v97h92v-97h-92zM202 -89q13 -3 29.5 -5.5t28.5 -2.5q35 0 50.5 17t15.5 66v554h80v-564q0 -62 -31 -100.5t-99 -38.5q-16 0 -36.5 3t-37.5 8v63zM321 638v97h92v-97h-92zM81 0v540h80v-540h-80z" />
    <glyph glyph-name="Jcircumflex" unicode="&#x134;" horiz-adv-x="324" 
d="M154 720h85v-555q0 -96 -34 -137.5t-104 -41.5q-26 0 -47 4t-39 10v69q17 -5 39.5 -9t36.5 -4q17 0 29 4t19.5 16t11 33.5t3.5 57.5v553zM353 768h-90l-68 51l-68 -51h-90l119 117h78z" />
    <glyph glyph-name="jcircumflex" unicode="&#x135;" horiz-adv-x="240" 
d="M-44 -89q13 -3 29.5 -5.5t28.5 -2.5q35 0 50.5 17t15.5 66v554h80v-564q0 -62 -31 -100.5t-99 -38.5q-16 0 -36.5 3t-37.5 8v63zM279 599h-85l-73 66l-73 -66h-85l122 136h72z" />
    <glyph glyph-name="Kcommaaccent" unicode="&#x136;" horiz-adv-x="543" 
d="M424 0l-249 335v-335h-85v720h85v-314l226 314h95l-251 -343l283 -377h-104zM293 -253h-56l29 100h-29v100h100v-99z" />
    <glyph glyph-name="kcommaaccent" unicode="&#x137;" horiz-adv-x="505" 
d="M80 0v735h80v-420l198 225h104l-215 -235l248 -305h-100l-235 285v-285h-80zM278 -270h-56l29 100h-29v100h100v-99z" />
    <glyph glyph-name="kgreenlandic" unicode="&#x138;" horiz-adv-x="505" 
d="M80 0v540h80v-225l198 225h104l-215 -235l248 -305h-100l-235 285v-285h-80z" />
    <glyph glyph-name="Lacute" unicode="&#x139;" horiz-adv-x="472" 
d="M175 720v-646h277v-74h-362v720h85zM163 888h119l-142 -117h-72z" />
    <glyph glyph-name="lacute" unicode="&#x13a;" horiz-adv-x="240" 
d="M148 885h119l-142 -117h-72zM80 735h80v-735h-80v735z" />
    <glyph glyph-name="Lcommaaccent" unicode="&#x13b;" horiz-adv-x="472" 
d="M175 720v-646h277v-74h-362v720h85zM289 -270h-56l29 100h-29v100h100v-99z" />
    <glyph glyph-name="lcommaaccent" unicode="&#x13c;" horiz-adv-x="260" 
d="M87 735h80v-735h-80v735zM136 -270h-56l29 100h-29v100h100v-99z" />
    <glyph glyph-name="Lcaron" unicode="&#x13d;" horiz-adv-x="472" 
d="M175 720v-646h277v-74h-362v720h85zM311 520h-56l29 100h-29v100h100v-99z" />
    <glyph glyph-name="lcaron" unicode="&#x13e;" horiz-adv-x="310" 
d="M80 735h80v-735h-80v735zM276 536h-56l29 100h-29v100h100v-99z" />
    <glyph glyph-name="Ldot" unicode="&#x13f;" horiz-adv-x="472" 
d="M175 720v-646h277v-74h-362v720h85zM271 350v97h92v-97h-92z" />
    <glyph glyph-name="ldot" unicode="&#x140;" horiz-adv-x="333" 
d="M80 735h80v-735h-80v735zM221 350v97h92v-97h-92z" />
    <glyph glyph-name="Lslash" unicode="&#x141;" horiz-adv-x="482" 
d="M185 720v-271l135 81v-75l-135 -81v-300h277v-74h-362v323l-70 -42v75l70 42v322h85z" />
    <glyph glyph-name="lslash" unicode="&#x142;" horiz-adv-x="260" 
d="M90 322l-65 -44v70l65 44v343h80v-288l65 45v-70l-65 -45v-377h-80v322z" />
    <glyph glyph-name="Nacute" unicode="&#x143;" horiz-adv-x="601" 
d="M511 720v-720h-111l-229 603v-603h-81v720h114l228 -596v596h79zM342 885h119l-142 -117h-72z" />
    <glyph glyph-name="nacute" unicode="&#x144;" horiz-adv-x="548" 
d="M80 0v540h58l15 -66q33 44 76 62.5t79 18.5q79 0 119.5 -49.5t40.5 -155.5v-350h-80v354q0 73 -24.5 104.5t-78.5 31.5q-38 0 -69 -21.5t-56 -51.5v-417h-80zM325 735h113l-140 -137h-70z" />
    <glyph glyph-name="Ncommaaccent" unicode="&#x145;" horiz-adv-x="601" 
d="M511 720v-720h-111l-229 603v-603h-81v720h114l228 -596v596h79zM323 -270h-56l29 100h-29v100h100v-99z" />
    <glyph glyph-name="ncommaaccent" unicode="&#x146;" horiz-adv-x="548" 
d="M80 0v540h58l15 -66q33 44 76 62.5t79 18.5q79 0 119.5 -49.5t40.5 -155.5v-350h-80v354q0 73 -24.5 104.5t-78.5 31.5q-38 0 -69 -21.5t-56 -51.5v-417h-80zM288 -270h-56l29 100h-29v100h100v-99z" />
    <glyph glyph-name="Ncaron" unicode="&#x147;" horiz-adv-x="601" 
d="M511 720v-720h-111l-229 603v-603h-81v720h114l228 -596v596h79zM341 768h-78l-119 117h90l68 -51l68 51h90z" />
    <glyph glyph-name="ncaron" unicode="&#x148;" horiz-adv-x="548" 
d="M80 0v540h58l15 -66q33 44 76 62.5t79 18.5q79 0 119.5 -49.5t40.5 -155.5v-350h-80v354q0 73 -24.5 104.5t-78.5 31.5q-38 0 -69 -21.5t-56 -51.5v-417h-80zM320 599h-72l-122 136h85l73 -65l73 65h85z" />
    <glyph glyph-name="napostrophe" unicode="&#x149;" horiz-adv-x="568" 
d="M100 0v540h58l15 -66q33 44 76 62.5t79 18.5q79 0 119.5 -49.5t40.5 -155.5v-350h-80v354q0 73 -24.5 104.5t-78.5 31.5q-38 0 -69 -21.5t-56 -51.5v-417h-80zM57 536h-56l29 100h-29v100h100v-99z" />
    <glyph glyph-name="Eng" unicode="&#x14a;" horiz-adv-x="601" 
d="M511 720v-744q0 -62 -31 -100.5t-99 -38.5q-16 0 -36.5 3t-37.5 8v66q13 -3 29.5 -5.5t28.5 -2.5q35 0 51.5 15.5t16.5 64.5v14h-33l-229 603v-603h-81v720h114l228 -596v596h79z" />
    <glyph glyph-name="eng" unicode="&#x14b;" horiz-adv-x="548" 
d="M468 -24q0 -62 -30 -100.5t-98 -38.5q-16 0 -35.5 3t-36.5 8v66q13 -3 28.5 -5.5t27.5 -2.5q35 0 49.5 15.5t14.5 64.5v368q0 73 -24.5 104.5t-78.5 31.5q-38 0 -69 -21.5t-56 -51.5v-417h-80v540h58l15 -66q33 44 76 62.5t79 18.5q79 0 119.5 -49.5t40.5 -155.5v-374z
" />
    <glyph glyph-name="Omacron" unicode="&#x14c;" horiz-adv-x="658" 
d="M70 360q0 105 22 176.5t58 115.5t82.5 63.5t96.5 19.5q49 0 96 -19.5t83 -63.5t58 -115.5t22 -176.5t-22 -176.5t-58 -115.5t-83 -63.5t-96 -19.5q-50 0 -96.5 19.5t-82.5 63.5t-58 115.5t-22 176.5zM157 360q0 -153 42.5 -231.5t129.5 -78.5t129.5 78.5t42.5 231.5
t-42.5 231.5t-129.5 78.5t-129.5 -78.5t-42.5 -231.5zM193 796v69h270v-69h-270z" />
    <glyph glyph-name="omacron" unicode="&#x14d;" horiz-adv-x="565" 
d="M63 270q0 83 20 138t51.5 87.5t71 46t77.5 13.5t77 -13t70.5 -45.5t51.5 -87.5t20 -139t-20 -138t-51.5 -85.5t-70.5 -44t-77 -12.5t-77.5 12.5t-71 44.5t-51.5 86t-20 137zM147 270q0 -114 37.5 -166.5t99.5 -52.5q63 0 99 51.5t36 167.5q0 115 -38 169.5t-98 54.5
q-59 0 -97.5 -55t-38.5 -169zM148 646v69h270v-69h-270z" />
    <glyph glyph-name="Obreve" unicode="&#x14e;" horiz-adv-x="658" 
d="M70 360q0 105 22 176.5t58 115.5t82.5 63.5t96.5 19.5q49 0 96 -19.5t83 -63.5t58 -115.5t22 -176.5t-22 -176.5t-58 -115.5t-83 -63.5t-96 -19.5q-50 0 -96.5 19.5t-82.5 63.5t-58 115.5t-22 176.5zM157 360q0 -153 42.5 -231.5t129.5 -78.5t129.5 78.5t42.5 231.5
t-42.5 231.5t-129.5 78.5t-129.5 -78.5t-42.5 -231.5zM328 762q-26 0 -50.5 6.5t-45.5 20.5t-36.5 37.5t-22.5 58.5h83q5 -28 22.5 -44.5t49.5 -16.5t49.5 16.5t22.5 44.5h83q-7 -34 -22.5 -57.5t-36.5 -38t-46 -21t-50 -6.5z" />
    <glyph glyph-name="obreve" unicode="&#x14f;" horiz-adv-x="565" 
d="M63 270q0 83 20 138t51.5 87.5t71 46t77.5 13.5t77 -13t70.5 -45.5t51.5 -87.5t20 -139t-20 -138t-51.5 -85.5t-70.5 -44t-77 -12.5t-77.5 12.5t-71 44.5t-51.5 86t-20 137zM147 270q0 -114 37.5 -166.5t99.5 -52.5q63 0 99 51.5t36 167.5q0 115 -38 169.5t-98 54.5
q-59 0 -97.5 -55t-38.5 -169zM283 608q-26 0 -50.5 7t-45.5 23t-36.5 41.5t-22.5 61.5h83q5 -33 22.5 -52t49.5 -19t49.5 19t22.5 52h83q-7 -36 -22.5 -61.5t-36.5 -41.5t-46 -23t-50 -7z" />
    <glyph glyph-name="Ohungarumlaut" unicode="&#x150;" horiz-adv-x="658" 
d="M70 360q0 105 22 176.5t58 115.5t82.5 63.5t96.5 19.5q49 0 96 -19.5t83 -63.5t58 -115.5t22 -176.5t-22 -176.5t-58 -115.5t-83 -63.5t-96 -19.5q-50 0 -96.5 19.5t-82.5 63.5t-58 115.5t-22 176.5zM157 360q0 -153 42.5 -231.5t129.5 -78.5t129.5 78.5t42.5 231.5
t-42.5 231.5t-129.5 78.5t-129.5 -78.5t-42.5 -231.5zM297 885h119l-142 -117h-72zM456 885h119l-142 -117h-72z" />
    <glyph glyph-name="ohungarumlaut" unicode="&#x151;" horiz-adv-x="565" 
d="M63 270q0 83 20 138t51.5 87.5t71 46t77.5 13.5t77 -13t70.5 -45.5t51.5 -87.5t20 -139t-20 -138t-51.5 -85.5t-70.5 -44t-77 -12.5t-77.5 12.5t-71 44.5t-51.5 86t-20 137zM147 270q0 -114 37.5 -166.5t99.5 -52.5q63 0 99 51.5t36 167.5q0 115 -38 169.5t-98 54.5
q-59 0 -97.5 -55t-38.5 -169zM249 735h117l-145 -137h-69zM408 735h117l-145 -137h-69z" />
    <glyph glyph-name="OE" unicode="&#x152;" horiz-adv-x="894" 
d="M834 0h-420q-41 -15 -85 -15q-50 0 -96.5 19.5t-82.5 63.5t-58 115.5t-22 176.5t22 176.5t58 115.5t82.5 63.5t96.5 19.5q44 0 85 -15h420v-65h-330q34 -42 55 -104.5t25 -153.5h220v-64h-220q-3 -97 -24.5 -161.5t-55.5 -106.5h330v-65zM157 360q0 -153 42.5 -231.5
t129.5 -78.5t129.5 78.5t42.5 231.5t-42.5 231.5t-129.5 78.5t-129.5 -78.5t-42.5 -231.5z" />
    <glyph glyph-name="oe" unicode="&#x153;" horiz-adv-x="884" 
d="M632 54q25 0 44.5 7.5t33.5 19.5t23.5 27t14.5 30l70 -15q-9 -26 -25.5 -50t-40 -42.5t-55 -29.5t-70.5 -11q-51 0 -97 23.5t-75 84.5q-24 -55 -71.5 -81.5t-100.5 -26.5q-38 0 -77.5 12.5t-71 44.5t-51.5 86t-20 137t20 138t51.5 87.5t71 46t77.5 13.5q52 0 98.5 -25.5
t72.5 -83.5q27 60 71.5 84.5t95.5 24.5q103 0 155.5 -71t52.5 -227h-334q1 -63 13 -102.5t31 -62t43 -30.5t50 -8zM147 270q0 -114 37.5 -165.5t99.5 -51.5t98.5 50.5t36.5 166.5t-38 169t-98 53q-59 0 -97.5 -54t-38.5 -168zM626 495q-52 0 -87 -41.5t-43 -135.5h252
q-2 87 -33.5 132t-88.5 45z" />
    <glyph glyph-name="Racute" unicode="&#x154;" horiz-adv-x="557" 
d="M441 0l-161 282h-105v-282h-85v720h147q53 0 99 -13t80 -40.5t53.5 -69.5t19.5 -99q0 -41 -10 -72.5t-27 -55.5t-40 -41t-49 -28l179 -301h-101zM175 655v-308h67q72 0 116 37.5t44 113.5t-44 116.5t-119 40.5h-64zM312 885h119l-142 -117h-72z" />
    <glyph glyph-name="racute" unicode="&#x155;" horiz-adv-x="332" 
d="M80 0v540h58l18 -79q38 92 119 92q11 0 21 -1t16 -3v-78q-9 2 -18 3.5t-21 1.5q-20 0 -37 -8.5t-31 -23t-25 -34t-20 -40.5v-370h-80zM233 735h113l-140 -137h-70z" />
    <glyph glyph-name="Rcommaaccent" unicode="&#x156;" horiz-adv-x="557" 
d="M441 0l-161 282h-105v-282h-85v720h147q53 0 99 -13t80 -40.5t53.5 -69.5t19.5 -99q0 -41 -10 -72.5t-27 -55.5t-40 -41t-49 -28l179 -301h-101zM175 655v-308h67q72 0 116 37.5t44 113.5t-44 116.5t-119 40.5h-64zM314 -254h-56l29 100h-29v100h100v-99z" />
    <glyph glyph-name="rcommaaccent" unicode="&#x157;" horiz-adv-x="332" 
d="M80 0v540h58l18 -79q38 92 119 92q11 0 21 -1t16 -3v-78q-9 2 -18 3.5t-21 1.5q-20 0 -37 -8.5t-31 -23t-25 -34t-20 -40.5v-370h-80zM131 -270h-56l29 100h-29v100h100v-99z" />
    <glyph glyph-name="Rcaron" unicode="&#x158;" horiz-adv-x="557" 
d="M441 0l-161 282h-105v-282h-85v720h147q53 0 99 -13t80 -40.5t53.5 -69.5t19.5 -99q0 -41 -10 -72.5t-27 -55.5t-40 -41t-49 -28l179 -301h-101zM175 655v-308h67q72 0 116 37.5t44 113.5t-44 116.5t-119 40.5h-64zM315 768h-78l-119 117h90l68 -51l68 51h90z" />
    <glyph glyph-name="rcaron" unicode="&#x159;" horiz-adv-x="332" 
d="M121 0v540h58l18 -79q38 92 119 92q11 0 21 -1t16 -3v-78q-9 2 -18 3.5t-21 1.5q-20 0 -37 -8.5t-31 -23t-25 -34t-20 -40.5v-370h-80zM274 599h-72l-122 136h85l73 -65l73 65h85z" />
    <glyph glyph-name="Sacute" unicode="&#x15a;" horiz-adv-x="548" 
d="M277 669q-24 0 -46 -6.5t-38.5 -20t-26.5 -34.5t-10 -49q0 -26 7 -45.5t23.5 -35.5t43.5 -30.5t67 -29.5q39 -15 73.5 -33t60.5 -44.5t41.5 -63.5t15.5 -90q0 -41 -15.5 -78t-43.5 -64.5t-67.5 -43.5t-88.5 -16q-52 0 -91.5 15t-67.5 38.5t-45 52t-24 55.5l79 14
q6 -20 16.5 -39t28 -34t43.5 -24.5t62 -9.5q24 0 47 7.5t41 23t29.5 40t11.5 58.5q0 39 -9.5 63.5t-30 43t-53.5 33.5t-79 34q-81 33 -119.5 80.5t-38.5 116.5q0 38 14 71.5t40 58t63.5 38.5t84.5 14q45 0 80 -13t60.5 -34.5t42.5 -48.5t26 -55l-75 -14q-12 39 -45 69
t-87 30zM314 885h119l-142 -117h-72z" />
    <glyph glyph-name="sacute" unicode="&#x15b;" horiz-adv-x="457" 
d="M223 -10q-70 0 -118.5 31t-69.5 82l75 22q14 -32 44.5 -50.5t70.5 -18.5t70 22.5t30 67.5q0 26 -12 44t-31.5 30t-44 20.5t-49.5 16.5q-72 22 -103.5 57.5t-31.5 89.5q0 37 14 65t38 47t55 29t65 10q36 0 64.5 -9t50 -25t36.5 -36.5t23 -43.5l-72 -22q-9 31 -33.5 52.5
t-69.5 21.5q-18 0 -34 -5t-29 -14.5t-20.5 -24.5t-7.5 -36t8 -35.5t24 -25t41 -19t58 -18.5q66 -20 104 -57.5t38 -103.5q0 -37 -13 -67t-37 -51.5t-58 -33.5t-75 -12zM267 735h113l-140 -137h-70z" />
    <glyph glyph-name="Scircumflex" unicode="&#x15c;" horiz-adv-x="548" 
d="M277 669q-24 0 -46 -6.5t-38.5 -20t-26.5 -34.5t-10 -49q0 -26 7 -45.5t23.5 -35.5t43.5 -30.5t67 -29.5q39 -15 73.5 -33t60.5 -44.5t41.5 -63.5t15.5 -90q0 -41 -15.5 -78t-43.5 -64.5t-67.5 -43.5t-88.5 -16q-52 0 -91.5 15t-67.5 38.5t-45 52t-24 55.5l79 14
q6 -20 16.5 -39t28 -34t43.5 -24.5t62 -9.5q24 0 47 7.5t41 23t29.5 40t11.5 58.5q0 39 -9.5 63.5t-30 43t-53.5 33.5t-79 34q-81 33 -119.5 80.5t-38.5 116.5q0 38 14 71.5t40 58t63.5 38.5t84.5 14q45 0 80 -13t60.5 -34.5t42.5 -48.5t26 -55l-75 -14q-12 39 -45 69
t-87 30zM435 767h-90l-68 51l-68 -51h-90l119 117h78z" />
    <glyph glyph-name="scircumflex" unicode="&#x15d;" horiz-adv-x="457" 
d="M223 -10q-70 0 -118.5 31t-69.5 82l75 22q14 -32 44.5 -50.5t70.5 -18.5t70 22.5t30 67.5q0 26 -12 44t-31.5 30t-44 20.5t-49.5 16.5q-72 22 -103.5 57.5t-31.5 89.5q0 37 14 65t38 47t55 29t65 10q36 0 64.5 -9t50 -25t36.5 -36.5t23 -43.5l-72 -22q-9 31 -33.5 52.5
t-69.5 21.5q-18 0 -34 -5t-29 -14.5t-20.5 -24.5t-7.5 -36t8 -35.5t24 -25t41 -19t58 -18.5q66 -20 104 -57.5t38 -103.5q0 -37 -13 -67t-37 -51.5t-58 -33.5t-75 -12zM381 599h-85l-73 66l-73 -66h-85l122 136h72z" />
    <glyph glyph-name="Scedilla" unicode="&#x15e;" horiz-adv-x="548" 
d="M376 -142q0 -45 -33 -72t-84 -27q-29 0 -56 7t-46 18l30 47q11 -5 27.5 -9t31.5 -4q23 0 41 8.5t18 35.5q0 24 -25.5 34.5t-62.5 15.5l14 76q-42 6 -73.5 22.5t-54 38.5t-37 47.5t-21.5 49.5l79 14q6 -20 16.5 -39t28 -34t43.5 -24.5t62 -9.5q24 0 47 7.5t41 23t29.5 40
t11.5 58.5q0 39 -9.5 63.5t-30 43t-53.5 33.5t-79 34q-81 33 -119.5 80.5t-38.5 116.5q0 38 14 71.5t40 58t63.5 38.5t84.5 14q45 0 80 -13t60.5 -34.5t42.5 -48.5t26 -55l-75 -14q-12 39 -45 69t-87 30q-24 0 -46 -6.5t-38.5 -20t-26.5 -34.5t-10 -49q0 -26 7 -45.5
t23.5 -35.5t43.5 -30.5t67 -29.5q39 -15 73.5 -33t60.5 -44.5t41.5 -63.5t15.5 -90q0 -39 -13.5 -73.5t-38.5 -61.5t-60.5 -44.5t-79.5 -21.5l-2 -37q42 -9 62 -34t20 -57z" />
    <glyph glyph-name="scedilla" unicode="&#x15f;" horiz-adv-x="457" 
d="M332 -132q0 -45 -33 -72t-84 -27q-29 0 -56 7t-46 18l30 45q11 -5 27.5 -9t31.5 -4q23 0 41 9.5t18 36.5q0 24 -25.5 34.5t-62.5 15.5l13 71q-57 8 -95 36.5t-56 73.5l75 22q14 -32 44.5 -50.5t70.5 -18.5t70 22.5t30 67.5q0 25 -12 42t-31.5 29t-44 20.5t-49.5 16.5
q-72 22 -103.5 59t-31.5 91q0 37 14 65t38 47t55 29t65 10q36 0 64.5 -9t50 -25t36.5 -36.5t23 -43.5l-72 -22q-9 31 -33.5 52.5t-69.5 21.5q-18 0 -34 -5t-29 -14.5t-20.5 -24.5t-7.5 -36t8 -36t24 -26t41 -20t58 -19q66 -20 104 -56.5t38 -101.5q0 -67 -41 -110.5
t-113 -51.5l-2 -33q42 -9 62 -34t20 -57z" />
    <glyph glyph-name="Scaron" unicode="&#x160;" horiz-adv-x="548" 
d="M277 669q-24 0 -46 -6.5t-38.5 -20t-26.5 -34.5t-10 -49q0 -26 7 -45.5t23.5 -35.5t43.5 -30.5t67 -29.5q39 -15 73.5 -33t60.5 -44.5t41.5 -63.5t15.5 -90q0 -41 -15.5 -78t-43.5 -64.5t-67.5 -43.5t-88.5 -16q-52 0 -91.5 15t-67.5 38.5t-45 52t-24 55.5l79 14
q6 -20 16.5 -39t28 -34t43.5 -24.5t62 -9.5q24 0 47 7.5t41 23t29.5 40t11.5 58.5q0 39 -9.5 63.5t-30 43t-53.5 33.5t-79 34q-81 33 -119.5 80.5t-38.5 116.5q0 38 14 71.5t40 58t63.5 38.5t84.5 14q45 0 80 -13t60.5 -34.5t42.5 -48.5t26 -55l-75 -14q-12 39 -45 69
t-87 30zM318 768h-78l-119 117h90l68 -51l68 51h90z" />
    <glyph glyph-name="scaron" unicode="&#x161;" horiz-adv-x="457" 
d="M223 -10q-70 0 -118.5 31t-69.5 82l75 22q14 -32 44.5 -50.5t70.5 -18.5t70 22.5t30 67.5q0 26 -12 44t-31.5 30t-44 20.5t-49.5 16.5q-72 22 -103.5 57.5t-31.5 89.5q0 37 14 65t38 47t55 29t65 10q36 0 64.5 -9t50 -25t36.5 -36.5t23 -43.5l-72 -22q-9 31 -33.5 52.5
t-69.5 21.5q-18 0 -34 -5t-29 -14.5t-20.5 -24.5t-7.5 -36t8 -35.5t24 -25t41 -19t58 -18.5q66 -20 104 -57.5t38 -103.5q0 -37 -13 -67t-37 -51.5t-58 -33.5t-75 -12zM259 599h-72l-122 136h85l73 -65l73 65h85z" />
    <glyph glyph-name="Tcommaaccent" unicode="&#x162;" horiz-adv-x="475" 
d="M450 646h-171v-646h-85v646h-169v74h425v-74zM241 -270h-56l29 100h-29v100h100v-99z" />
    <glyph glyph-name="tcommaaccent" unicode="&#x163;" horiz-adv-x="329" 
d="M299 5q-18 -5 -35 -8t-40 -3q-66 0 -95 38t-29 101v342h-80v65h81l6 130h73v-130h116v-65h-116v-344q0 -35 13 -52.5t44 -17.5q15 0 29 2t33 7v-65zM200 -270h-56l29 100h-29v100h100v-99z" />
    <glyph glyph-name="Tcaron" unicode="&#x164;" horiz-adv-x="475" 
d="M450 646h-171v-646h-85v646h-169v74h425v-74zM275 768h-78l-119 117h90l68 -51l68 51h90z" />
    <glyph glyph-name="tcaron" unicode="&#x165;" horiz-adv-x="386" 
d="M299 5q-18 -5 -35 -8t-40 -3q-66 0 -95 38t-29 101v342h-80v65h81l6 130h73v-130h116v-65h-116v-344q0 -35 13 -52.5t44 -17.5q15 0 29 2t33 7v-65zM382 536h-56l29 100h-29v100h100v-99z" />
    <glyph glyph-name="Tbar" unicode="&#x166;" horiz-adv-x="495" 
d="M460 646h-171v-210h119v-65h-119v-371h-85v371h-119v65h119v210h-169v74h425v-74z" />
    <glyph glyph-name="tbar" unicode="&#x167;" horiz-adv-x="344" 
d="M185 475v-85h116v-62h-116v-197q0 -35 13 -52.5t44 -17.5q15 0 29 2t33 7v-65q-18 -5 -35 -8t-40 -3q-66 0 -95 38t-29 101v195h-80v62h80v85h-80v65h81l6 130h73v-130h116v-65h-116z" />
    <glyph glyph-name="Utilde" unicode="&#x168;" horiz-adv-x="609" 
d="M170 720v-506q0 -75 31.5 -118t104.5 -43t105 43t32 118v506h81v-497q0 -118 -56.5 -178t-162.5 -60t-163 60t-57 178v497h85zM366 770q-24 0 -39.5 6t-27.5 13t-24 13t-29 6t-40 -10t-45 -27v71q22 16 45 25t44 9q24 0 39.5 -6t27.5 -13t24 -13t29 -6t38 10t43 27v-71
q-22 -16 -43 -25t-42 -9z" />
    <glyph glyph-name="utilde" unicode="&#x169;" horiz-adv-x="536" 
d="M160 540v-354q0 -39 7 -64t20.5 -40t31.5 -21t41 -6q40 0 68 19.5t48 50.5v415h80v-540h-55l-18 68q-26 -40 -61.5 -59t-77.5 -19q-75 0 -119.5 47t-44.5 151v352h80zM328 630q-24 0 -39.5 6t-27.5 13t-24 13t-29 6t-40 -10t-45 -27v71q22 16 45 25t44 9q24 0 39.5 -6
t27.5 -13t24 -13t29 -6t38 10t43 27v-71q-22 -16 -43 -25t-42 -9z" />
    <glyph glyph-name="Umacron" unicode="&#x16a;" horiz-adv-x="609" 
d="M170 720v-506q0 -75 31.5 -118t104.5 -43t105 43t32 118v506h81v-497q0 -118 -56.5 -178t-162.5 -60t-163 60t-57 178v497h85zM172 796v69h270v-69h-270z" />
    <glyph glyph-name="umacron" unicode="&#x16b;" horiz-adv-x="536" 
d="M160 540v-354q0 -39 7 -64t20.5 -40t31.5 -21t41 -6q40 0 68 19.5t48 50.5v415h80v-540h-55l-18 68q-26 -40 -61.5 -59t-77.5 -19q-75 0 -119.5 47t-44.5 151v352h80zM134 646v69h270v-69h-270z" />
    <glyph glyph-name="Ubreve" unicode="&#x16c;" horiz-adv-x="609" 
d="M170 720v-506q0 -75 31.5 -118t104.5 -43t105 43t32 118v506h81v-497q0 -118 -56.5 -178t-162.5 -60t-163 60t-57 178v497h85zM304 762q-26 0 -50.5 6.5t-45.5 20.5t-36.5 37.5t-22.5 58.5h83q5 -28 22.5 -44.5t49.5 -16.5t49.5 16.5t22.5 44.5h83q-7 -34 -22.5 -57.5
t-36.5 -38t-46 -21t-50 -6.5z" />
    <glyph glyph-name="ubreve" unicode="&#x16d;" horiz-adv-x="536" 
d="M160 540v-354q0 -39 7 -64t20.5 -40t31.5 -21t41 -6q40 0 68 19.5t48 50.5v415h80v-540h-55l-18 68q-26 -40 -61.5 -59t-77.5 -19q-75 0 -119.5 47t-44.5 151v352h80zM267 602q-26 0 -50.5 7t-45.5 23t-36.5 41.5t-22.5 61.5h83q5 -33 22.5 -52t49.5 -19t49.5 19t22.5 52
h83q-7 -36 -22.5 -61.5t-36.5 -41.5t-46 -23t-50 -7z" />
    <glyph glyph-name="Uring" unicode="&#x16e;" horiz-adv-x="609" 
d="M170 720v-506q0 -75 31.5 -118t104.5 -43t105 43t32 118v506h81v-497q0 -118 -56.5 -178t-162.5 -60t-163 60t-57 178v497h85zM189 846q0 54 33.5 84t84.5 30t84 -28.5t33 -85.5q0 -54 -33 -83t-84 -29t-84.5 29t-33.5 83zM252 846q0 -30 15 -46.5t40 -16.5t39.5 16.5
t14.5 46.5t-14.5 47.5t-39.5 17.5t-40 -17.5t-15 -47.5z" />
    <glyph glyph-name="uring" unicode="&#x16f;" horiz-adv-x="536" 
d="M160 540v-354q0 -39 7 -64t20.5 -40t31.5 -21t41 -6q40 0 68 19.5t48 50.5v415h80v-540h-55l-18 68q-26 -40 -61.5 -59t-77.5 -19q-75 0 -119.5 47t-44.5 151v352h80zM153 696q0 54 33.5 84t84.5 30t84 -28.5t33 -85.5q0 -54 -33 -83t-84 -29t-84.5 29t-33.5 83zM216 696
q0 -30 15 -46.5t40 -16.5t39.5 16.5t14.5 46.5t-14.5 47.5t-39.5 17.5t-40 -17.5t-15 -47.5z" />
    <glyph glyph-name="Uhungarumlaut" unicode="&#x170;" horiz-adv-x="609" 
d="M170 720v-506q0 -75 31.5 -118t104.5 -43t105 43t32 118v506h81v-497q0 -118 -56.5 -178t-162.5 -60t-163 60t-57 178v497h85zM274 885h119l-142 -117h-72zM433 885h119l-142 -117h-72z" />
    <glyph glyph-name="uhungarumlaut" unicode="&#x171;" horiz-adv-x="536" 
d="M160 540v-354q0 -39 7 -64t20.5 -40t31.5 -21t41 -6q40 0 68 19.5t48 50.5v415h80v-540h-55l-18 68q-26 -40 -61.5 -59t-77.5 -19q-75 0 -119.5 47t-44.5 151v352h80zM240 735h117l-145 -137h-69zM399 735h117l-145 -137h-69z" />
    <glyph glyph-name="Uogonek" unicode="&#x172;" horiz-adv-x="609" 
d="M459 -212q-26 -14 -50.5 -20t-53.5 -6q-21 0 -41 6.5t-36.5 19.5t-26.5 33.5t-10 49.5q0 34 19.5 63.5t47.5 50.5h-3q-106 0 -163 60t-57 178v497h85v-506q0 -75 31.5 -118t104.5 -43t105 43t32 118v506h81v-497q0 -174 -122 -221q-33 -20 -58.5 -50t-25.5 -72
q0 -22 15 -38t42 -16q11 0 27 3t36 11z" />
    <glyph glyph-name="uogonek" unicode="&#x173;" horiz-adv-x="536" 
d="M160 540v-354q0 -39 7 -64t20.5 -40t31.5 -21t41 -6q40 0 68 19.5t48 50.5v415h80v-540q-11 -5 -28.5 -14.5t-34 -24.5t-29 -35t-12.5 -46q0 -22 14 -39t46 -17q11 0 27 3t36 11l21 -50q-26 -14 -50.5 -20t-53.5 -6q-21 0 -41 6.5t-36.5 19.5t-26.5 33.5t-10 49.5
q0 24 10.5 46t28 40.5t39 32.5t42.5 23l-15 55q-26 -40 -61.5 -59t-77.5 -19q-75 0 -119.5 47t-44.5 151v352h80z" />
    <glyph glyph-name="Wcircumflex" unicode="&#x174;" horiz-adv-x="759" 
d="M734 720l-120 -720h-102l-127 624l-131 -624h-109l-120 720h87l95 -626l127 626h109l119 -624l94 624h78zM545 764h-90l-68 51l-68 -51h-90l119 117h78z" />
    <glyph glyph-name="wcircumflex" unicode="&#x175;" horiz-adv-x="720" 
d="M700 540l-132 -540h-100l-107 450l-106 -450h-103l-132 540h82l104 -455l106 455h103l105 -453l101 453h79zM522 599h-85l-73 66l-73 -66h-85l122 136h72z" />
    <glyph glyph-name="Ycircumflex" unicode="&#x176;" horiz-adv-x="512" 
d="M502 720l-202 -432v-288h-84v288l-206 432h93l157 -344l159 344h83zM415 768h-90l-68 51l-68 -51h-90l119 117h78z" />
    <glyph glyph-name="ycircumflex" unicode="&#x177;" horiz-adv-x="458" 
d="M292 -14q-11 -37 -22 -65t-26.5 -46.5t-38.5 -28t-59 -9.5q-29 0 -65 9v63q17 -4 32 -6t31 -2q36 0 50 24t26 75h-38l-172 540h85l144 -487l133 487h76zM391 599h-85l-73 66l-73 -66h-85l122 136h72z" />
    <glyph glyph-name="Ydieresis" unicode="&#x178;" horiz-adv-x="512" 
d="M502 720l-202 -432v-288h-84v288l-206 432h93l157 -344l159 344h83zM108 785v90h95v-90h-95zM313 785v90h95v-90h-95z" />
    <glyph glyph-name="Zacute" unicode="&#x179;" horiz-adv-x="500" 
d="M129 67h311v-67h-400v75l322 578h-299v67h387v-72zM293 885h119l-142 -117h-72z" />
    <glyph glyph-name="zacute" unicode="&#x17a;" horiz-adv-x="449" 
d="M127 69h262v-69h-349v82l276 390h-257v68h340v-82zM282 735h113l-140 -137h-70z" />
    <glyph glyph-name="Zdotaccent" unicode="&#x17b;" horiz-adv-x="500" 
d="M129 67h311v-67h-400v75l322 578h-299v67h387v-72zM218 788v97h92v-97h-92z" />
    <glyph glyph-name="zdotaccent" unicode="&#x17c;" horiz-adv-x="449" 
d="M127 69h262v-69h-349v82l276 390h-257v68h340v-82zM187 638v97h92v-97h-92z" />
    <glyph glyph-name="Zcaron" horiz-adv-x="500" 
d="M129 67h311v-67h-400v75l322 578h-299v67h387v-72zM303 766h-78l-119 117h90l68 -51l68 51h90z" />
    <glyph glyph-name="Zcaron" unicode="&#x17d;" horiz-adv-x="500" 
d="M129 67h311v-67h-400v75l322 578h-299v67h387v-72zM303 766h-78l-119 117h90l68 -51l68 51h90z" />
    <glyph glyph-name="zcaron" horiz-adv-x="449" 
d="M127 69h262v-69h-349v82l276 390h-257v68h340v-82zM277 599h-72l-122 136h85l73 -65l73 65h85z" />
    <glyph glyph-name="zcaron" unicode="&#x17e;" horiz-adv-x="449" 
d="M127 69h262v-69h-349v82l276 390h-257v68h340v-82zM277 599h-72l-122 136h85l73 -65l73 65h85z" />
    <glyph glyph-name="longs" unicode="&#x17f;" horiz-adv-x="279" 
d="M319 667q-19 5 -38 7t-34 2q-33 0 -50 -15t-17 -50v-611h-80v475h-80v65h80v65q0 29 7.5 54t23.5 44t40.5 29.5t59.5 10.5q50 0 88 -11v-65z" />
    <glyph glyph-name="florin" unicode="&#x192;" horiz-adv-x="299" 
d="M-39 -94q19 -5 38 -7t34 -2q33 0 50 15t17 50v513h-80v65h80v65q0 29 7.5 54t23.5 44t40.5 29.5t59.5 10.5q50 0 88 -11v-65q-19 5 -38 7t-34 2q-33 0 -50 -15t-17 -50v-71h116v-65h-116v-507q0 -29 -7.5 -54t-23.5 -44t-41 -29.5t-59 -10.5q-50 0 -88 11v65z" />
    <glyph glyph-name="Ohorn" unicode="&#x1a0;" horiz-adv-x="666" 
d="M676 681q0 -31 -9.5 -54.5t-24.5 -41.5t-35 -30.5t-41 -20.5q22 -70 22 -174q0 -105 -22 -176.5t-58 -115.5t-83 -63.5t-96 -19.5q-50 0 -96.5 19.5t-82.5 63.5t-58 115.5t-22 176.5t22 176.5t58 115.5t82.5 63.5t96.5 19.5q34 0 66 -8.5t60.5 -27t52.5 -48t42 -71.5
q23 11 34.5 34.5t11.5 65.5v75h80v-74zM157 360q0 -153 42.5 -231.5t129.5 -78.5t129.5 78.5t42.5 231.5t-42.5 231.5t-129.5 78.5t-129.5 -78.5t-42.5 -231.5z" />
    <glyph glyph-name="ohorn" unicode="&#x1a1;" horiz-adv-x="586" 
d="M63 270q0 83 20 138t51.5 87.5t71 46t77.5 13.5q28 0 56.5 -7t54.5 -23.5t48 -43.5t37 -66q21 11 31.5 32t10.5 63v65h75v-64q0 -30 -8.5 -53.5t-23 -41t-33 -30t-38.5 -19.5q4 -21 6.5 -45.5t2.5 -51.5q0 -84 -20 -138t-51.5 -85.5t-70.5 -44t-77 -12.5t-77.5 12.5
t-71 44.5t-51.5 86t-20 137zM147 270q0 -114 37.5 -166.5t99.5 -52.5q63 0 99 51.5t36 167.5q0 115 -38 169.5t-98 54.5q-59 0 -97.5 -55t-38.5 -169z" />
    <glyph glyph-name="Uhorn" unicode="&#x1af;" horiz-adv-x="656" 
d="M170 720v-506q0 -75 31.5 -118t104.5 -43t105 43t32 118v506h81v-147q31 11 46.5 34t15.5 73v75h80v-74q0 -37 -13 -64.5t-34 -46t-46 -29.5t-49 -16v-302q0 -118 -56.5 -178t-162.5 -60t-163 60t-57 178v497h85z" />
    <glyph glyph-name="uhorn" unicode="&#x1b0;" horiz-adv-x="576" 
d="M160 540v-354q0 -39 7 -64t20.5 -40t31.5 -21t41 -6q40 0 68 19.5t48 50.5v415h80v-132q28 11 41.5 33t13.5 69v65h75v-64q0 -35 -11.5 -61t-30 -44t-42 -29.5t-46.5 -17.5v-359h-55l-18 68q-26 -40 -61.5 -59t-77.5 -19q-75 0 -119.5 47t-44.5 151v352h80z" />
    <glyph glyph-name="AEacute" unicode="&#x1fc;" horiz-adv-x="820" 
d="M760 0h-303l-40 187h-256l-67 -187h-84l275 720h440v-65h-328l58 -258h265v-64h-251l59 -268h232v-65zM185 252h218l-80 382zM513 885h119l-142 -117h-72z" />
    <glyph glyph-name="aeacute" unicode="&#x1fd;" horiz-adv-x="809" 
d="M557 54q25 0 44.5 7.5t33.5 19.5t23.5 27t14.5 30l70 -15q-9 -26 -25.5 -50t-40 -42.5t-55 -29.5t-70.5 -11q-49 0 -93.5 22t-74.5 78q-12 -20 -28.5 -38t-39.5 -32t-53 -22t-69 -8q-26 0 -53 7.5t-49.5 25t-37 47t-14.5 74.5t18 77.5t47.5 55t68 35.5t79.5 19l93 14v37
q0 23 -5 43.5t-16.5 35.5t-30.5 24t-47 9q-43 0 -71 -23.5t-37 -59.5l-79 13q22 57 71 93t121 36q103 0 143 -79q28 45 67 63t84 18q103 0 155.5 -71t52.5 -227h-334q1 -63 13 -102.5t31 -62t43 -30.5t50 -8zM220 54q48 0 78 19.5t48 50.5v164l-72 -12q-72 -11 -111.5 -42.5
t-39.5 -83.5q0 -51 27 -73.5t70 -22.5zM551 495q-52 0 -87 -41.5t-43 -135.5h252q-2 87 -33.5 132t-88.5 45zM452 735h113l-140 -137h-70z" />
    <glyph glyph-name="Oslashacute" unicode="&#x1fe;" horiz-adv-x="658" 
d="M70 360q0 105 22 176.5t58 115.5t82.5 63.5t96.5 19.5q25 0 49.5 -4.5t47.5 -15.5l39 105h70l-52 -141q47 -42 76 -119.5t29 -199.5q0 -105 -22 -176.5t-58 -115.5t-83 -63.5t-96 -19.5q-52 0 -96 19l-39 -106h-70l52 142q-47 42 -76.5 119.5t-29.5 200.5zM157 360
q0 -170 52 -246l194 536q-32 20 -74 20q-87 0 -129.5 -78.5t-42.5 -231.5zM501 360q0 165 -52 244l-195 -534q35 -20 75 -20q87 0 129.5 78.5t42.5 231.5zM355 885h119l-142 -117h-72z" />
    <glyph glyph-name="oslashacute" unicode="&#x1ff;" horiz-adv-x="565" 
d="M63 270q0 83 20 138t51.5 87.5t71 46t77.5 13.5q48 0 90 -19l45 97h70l-61 -133q33 -32 54 -87.5t21 -142.5q0 -84 -20 -138t-51.5 -85.5t-70.5 -44t-77 -12.5q-21 0 -43 3.5t-42 11.5l-50 -107h-72l66 142q-35 31 -57 86.5t-22 143.5zM147 270q0 -54 8.5 -93.5
t24.5 -65.5l167 363q-29 20 -64 20q-59 0 -97.5 -55t-38.5 -169zM419 270q0 51 -8.5 89.5t-22.5 66.5l-165 -360q27 -15 61 -15q63 0 99 51.5t36 167.5zM325 735h113l-139 -137h-71z" />
    <glyph glyph-name="Scommaaccent" unicode="&#x218;" horiz-adv-x="548" 
d="M277 669q-24 0 -46 -6.5t-38.5 -20t-26.5 -34.5t-10 -49q0 -26 7 -45.5t23.5 -35.5t43.5 -30.5t67 -29.5q39 -15 73.5 -33t60.5 -44.5t41.5 -63.5t15.5 -90q0 -41 -15.5 -78t-43.5 -64.5t-67.5 -43.5t-88.5 -16q-52 0 -91.5 15t-67.5 38.5t-45 52t-24 55.5l79 14
q6 -20 16.5 -39t28 -34t43.5 -24.5t62 -9.5q24 0 47 7.5t41 23t29.5 40t11.5 58.5q0 39 -9.5 63.5t-30 43t-53.5 33.5t-79 34q-81 33 -119.5 80.5t-38.5 116.5q0 38 14 71.5t40 58t63.5 38.5t84.5 14q45 0 80 -13t60.5 -34.5t42.5 -48.5t26 -55l-75 -14q-12 39 -45 69
t-87 30zM290 -275h-56l29 100h-29v100h100v-99z" />
    <glyph glyph-name="scommaaccent" unicode="&#x219;" horiz-adv-x="457" 
d="M223 -10q-70 0 -118.5 31t-69.5 82l75 22q14 -32 44.5 -50.5t70.5 -18.5t70 22.5t30 67.5q0 26 -12 44t-31.5 30t-44 20.5t-49.5 16.5q-72 22 -103.5 57.5t-31.5 89.5q0 37 14 65t38 47t55 29t65 10q36 0 64.5 -9t50 -25t36.5 -36.5t23 -43.5l-72 -22q-9 31 -33.5 52.5
t-69.5 21.5q-18 0 -34 -5t-29 -14.5t-20.5 -24.5t-7.5 -36t8 -35.5t24 -25t41 -19t58 -18.5q66 -20 104 -57.5t38 -103.5q0 -37 -13 -67t-37 -51.5t-58 -33.5t-75 -12zM238 -270h-56l29 100h-29v100h100v-99z" />
    <glyph glyph-name="uni021A" unicode="&#x21a;" horiz-adv-x="475" 
d="M450 646h-171v-646h-85v646h-169v74h425v-74zM241 -270h-56l29 100h-29v100h100v-99z" />
    <glyph glyph-name="uni021B" unicode="&#x21b;" horiz-adv-x="329" 
d="M299 5q-18 -5 -35 -8t-40 -3q-66 0 -95 38t-29 101v342h-80v65h81l6 130h73v-130h116v-65h-116v-344q0 -35 13 -52.5t44 -17.5q15 0 29 2t33 7v-65zM200 -270h-56l29 100h-29v100h100v-99z" />
    <glyph glyph-name="dotlessj" unicode="&#x237;" horiz-adv-x="240" 
d="M-44 -89q13 -3 29.5 -5.5t28.5 -2.5q35 0 50.5 17t15.5 66v554h80v-564q0 -62 -31 -100.5t-99 -38.5q-16 0 -36.5 3t-37.5 8v63z" />
    <glyph glyph-name="circumflex" unicode="&#x2c6;" horiz-adv-x="376" 
d="M346 599h-85l-73 66l-73 -66h-85l122 136h72z" />
    <glyph glyph-name="caron" unicode="&#x2c7;" horiz-adv-x="376" 
d="M224 599h-72l-122 136h85l73 -65l73 65h85z" />
    <glyph glyph-name="uni02C9" unicode="&#x2c9;" horiz-adv-x="330" 
d="M30 646v69h270v-69h-270z" />
    <glyph glyph-name="breve" unicode="&#x2d8;" horiz-adv-x="370" 
d="M185 602q-26 0 -50.5 7t-45.5 23t-36.5 41.5t-22.5 61.5h83q5 -33 22.5 -52t49.5 -19t49.5 19t22.5 52h83q-7 -36 -22.5 -61.5t-36.5 -41.5t-46 -23t-50 -7z" />
    <glyph glyph-name="dotaccent" unicode="&#x2d9;" horiz-adv-x="152" 
d="M30 638v97h92v-97h-92z" />
    <glyph glyph-name="ring" unicode="&#x2da;" horiz-adv-x="295" 
d="M30 696q0 54 33.5 84t84.5 30t84 -28.5t33 -85.5q0 -54 -33 -83t-84 -29t-84.5 29t-33.5 83zM93 696q0 -30 15 -46.5t40 -16.5t39.5 16.5t14.5 46.5t-14.5 47.5t-39.5 17.5t-40 -17.5t-15 -47.5z" />
    <glyph glyph-name="ogonek" unicode="&#x2db;" horiz-adv-x="278" 
d="M248 -212q-26 -14 -50.5 -20t-53.5 -6q-21 0 -41 6.5t-36.5 19.5t-26.5 33.5t-10 49.5q0 26 14 50t35 43.5t46 34t48 21.5h75q-21 -10 -46 -23.5t-46.5 -31t-36.5 -39t-15 -46.5q0 -22 14 -39t46 -17q11 0 27 3t36 11z" />
    <glyph glyph-name="tilde" unicode="&#x2dc;" horiz-adv-x="350" 
d="M235 620q-24 0 -39.5 6t-27.5 13t-24 13t-29 6t-40 -10t-45 -27v71q22 16 45 25t44 9q24 0 39.5 -6t27.5 -13t24 -13t29 -6t38 10t43 27v-71q-22 -16 -43 -25t-42 -9z" />
    <glyph glyph-name="hungarumlaut" unicode="&#x2dd;" horiz-adv-x="433" 
d="M127 735h117l-145 -137h-69zM286 735h117l-145 -137h-69z" />
    <glyph glyph-name="gravecomb" unicode="&#x300;" horiz-adv-x="1" 
d="M-29 598h-68l-117 137h110z" />
    <glyph glyph-name="acutecomb" unicode="&#x301;" horiz-adv-x="1" 
d="M-139 735h110l-117 -137h-68z" />
    <glyph glyph-name="tildecomb" unicode="&#x303;" horiz-adv-x="1" 
d="M-114 625q-24 0 -39.5 6t-27.5 12.5t-24 12.5t-29 6t-40 -10t-45 -27v67q22 16 45 24.5t44 8.5q24 0 39.5 -6t27.5 -12.5t24 -12.5t29 -6t38 10t43 27v-67q-22 -16 -43 -24.5t-42 -8.5z" />
    <glyph glyph-name="hookabovecomb" unicode="&#x309;" horiz-adv-x="1" 
d="M-29 712q0 -34 -20.5 -55t-55.5 -32l-3 -22h-56l-3 60q29 4 47 14.5t18 33.5q0 22 -12 29t-24 7q-35 0 -47 -46l-67 14q14 39 42 63t79 24q45 0 73.5 -24t28.5 -66z" />
    <glyph glyph-name="uni0312" unicode="&#x312;" horiz-adv-x="1" 
d="M-270 800h56l-29 -100h29v-100h-100v99z" />
    <glyph glyph-name="dotbelowcomb" unicode="&#x323;" horiz-adv-x="1" 
d="M-125 -170v92h96v-92h-96z" />
    <glyph glyph-name="uni037E" unicode="&#x37e;" horiz-adv-x="230" 
d="M65 439v100h100v-100h-100zM95 -142h-56l55 142h-29v100h100v-99z" />
    <glyph glyph-name="tonos" unicode="&#x384;" horiz-adv-x="220" 
d="M80 735h110l-92 -147h-68z" />
    <glyph glyph-name="dieresistonos" unicode="&#x385;" horiz-adv-x="360" 
d="M30 606v90h95v-90h-95zM235 606v90h95v-90h-95zM197 848h110l-92 -127h-68z" />
    <glyph glyph-name="Alphatonos" unicode="&#x386;" horiz-adv-x="538" 
d="M439 0l-52 187h-254l-53 -187h-84l216 720h102l215 -720h-90zM151 252h218l-107 390zM52 721h110l-92 -147h-68z" />
    <glyph glyph-name="anoteleia" unicode="&#x387;" horiz-adv-x="315" 
d="M107 298v100h100v-100h-100z" />
    <glyph glyph-name="Epsilontonos" unicode="&#x388;" horiz-adv-x="605" 
d="M515 333h-235v-265h265v-68h-350v720h350v-68h-265v-253h235v-66zM46 721h110l-92 -147h-68z" />
    <glyph glyph-name="Etatonos" unicode="&#x389;" horiz-adv-x="725" 
d="M635 720v-720h-85v330h-270v-330h-85v720h85v-322h270v322h85zM46 721h110l-92 -147h-68z" />
    <glyph glyph-name="Iotatonos" unicode="&#x38a;" horiz-adv-x="415" 
d="M280 720v-720h-85v720h85zM46 721h110l-92 -147h-68z" />
    <glyph glyph-name="Omicrontonos" unicode="&#x38c;" horiz-adv-x="703" 
d="M115 360q0 105 22 176.5t58 115.5t82.5 63.5t96.5 19.5q49 0 96 -19.5t83 -63.5t58 -115.5t22 -176.5t-22 -176.5t-58 -115.5t-83 -63.5t-96 -19.5q-50 0 -96.5 19.5t-82.5 63.5t-58 115.5t-22 176.5zM202 360q0 -153 42.5 -231.5t129.5 -78.5t129.5 78.5t42.5 231.5
t-42.5 231.5t-129.5 78.5t-129.5 -78.5t-42.5 -231.5zM46 721h110l-92 -147h-68z" />
    <glyph glyph-name="Upsilontonos" unicode="&#x38e;" horiz-adv-x="687" 
d="M677 720l-202 -432v-288h-84v288l-206 432h93l157 -344l159 344h83zM46 721h110l-92 -147h-68z" />
    <glyph glyph-name="Omegatonos" unicode="&#x38f;" horiz-adv-x="708" 
d="M379 670q-87 0 -129.5 -78.5t-42.5 -231.5q0 -59 5.5 -107.5t18.5 -86t35 -62t54 -34.5v-70h-190v70h87q-21 15 -39 38t-31 57t-20 81.5t-7 113.5q0 105 22 176.5t58 115.5t82.5 63.5t96.5 19.5q49 0 96 -19.5t83 -63.5t58 -115.5t22 -176.5q0 -65 -7.5 -113t-20.5 -82.5
t-31 -57t-40 -37.5h89v-70h-191v70q32 10 53.5 34.5t35 62t19.5 86t6 107.5q0 153 -42.5 231.5t-129.5 78.5zM51 721h110l-92 -147h-68z" />
    <glyph glyph-name="iotadieresistonos" unicode="&#x390;" horiz-adv-x="240" 
d="M-28 587v90h95v-90h-95zM177 587v90h95v-90h-95zM139 829h110l-92 -127h-68zM80 0v540h80v-540h-80z" />
    <glyph glyph-name="Alpha" unicode="&#x391;" horiz-adv-x="553" 
d="M453 0l-52 187h-254l-53 -187h-84l216 720h102l215 -720h-90zM165 252h218l-107 390z" />
    <glyph glyph-name="Beta" unicode="&#x392;" horiz-adv-x="559" 
d="M259 720q112 0 169.5 -47.5t57.5 -138.5q0 -57 -30.5 -98t-78.5 -56q27 -6 51 -19.5t42 -35.5t28.5 -53.5t10.5 -72.5q0 -58 -22 -96t-58 -61t-81 -32.5t-91 -9.5h-167v720h169zM175 347v-282h97q30 0 56.5 6.5t47 21.5t32.5 41t12 65q0 34 -7.5 61t-24.5 46.5t-44.5 30
t-66.5 10.5h-102zM175 661v-253h98q69 0 98.5 33t29.5 93q0 64 -36.5 95.5t-97.5 31.5h-92z" />
    <glyph glyph-name="Gamma" unicode="&#x393;" horiz-adv-x="477" 
d="M90 0v720h362v-74h-277v-646h-85z" />
    <glyph glyph-name="Delta" unicode="&#x394;" horiz-adv-x="553" 
d="M10 0l216 720h102l215 -720h-533zM113 67h321l-158 577z" />
    <glyph glyph-name="Epsilon" unicode="&#x395;" horiz-adv-x="500" 
d="M410 333h-235v-265h265v-68h-350v720h350v-68h-265v-253h235v-66z" />
    <glyph glyph-name="Zeta" unicode="&#x396;" horiz-adv-x="500" 
d="M129 67h311v-67h-400v75l322 578h-299v67h387v-72z" />
    <glyph glyph-name="Eta" unicode="&#x397;" horiz-adv-x="620" 
d="M530 720v-720h-85v330h-270v-330h-85v720h85v-322h270v322h85z" />
    <glyph glyph-name="Theta" unicode="&#x398;" horiz-adv-x="668" 
d="M213 394h244v-64h-244v64zM70 360q0 105 22.5 176.5t59.5 115.5t84.5 63.5t97.5 19.5t97.5 -19.5t84.5 -63.5t59.5 -115.5t22.5 -176.5t-22.5 -176.5t-60 -115.5t-85 -63.5t-96.5 -19.5q-50 0 -97 19.5t-84.5 63.5t-60 115.5t-22.5 176.5zM157 360q0 -153 45 -231.5
t132 -78.5t132 78.5t45 231.5t-45 231.5t-132 78.5t-132 -78.5t-45 -231.5z" />
    <glyph glyph-name="Iota" unicode="&#x399;" horiz-adv-x="265" 
d="M175 720v-720h-85v720h85z" />
    <glyph glyph-name="Kappa" unicode="&#x39a;" horiz-adv-x="543" 
d="M424 0l-249 335v-335h-85v720h85v-314l226 314h95l-251 -343l283 -377h-104z" />
    <glyph glyph-name="Lambda" unicode="&#x39b;" horiz-adv-x="533" 
d="M432 0l-166 636l-170 -636h-86l205 720h103l205 -720h-91z" />
    <glyph glyph-name="Mu" unicode="&#x39c;" horiz-adv-x="747" 
d="M341 0l-170 569v-569h-81v720h111l180 -606l166 606h110v-720h-84v569l-157 -569h-75z" />
    <glyph glyph-name="Nu" unicode="&#x39d;" horiz-adv-x="601" 
d="M511 720v-720h-111l-229 603v-603h-81v720h114l228 -596v596h79z" />
    <glyph glyph-name="Xi" unicode="&#x39e;" horiz-adv-x="555" 
d="M70 720h415v-80h-415v80zM70 80h415v-80h-415v80zM130 399h295v-74h-295v74z" />
    <glyph glyph-name="Omicron" unicode="&#x39f;" horiz-adv-x="658" 
d="M70 360q0 105 22 176.5t58 115.5t82.5 63.5t96.5 19.5q49 0 96 -19.5t83 -63.5t58 -115.5t22 -176.5t-22 -176.5t-58 -115.5t-83 -63.5t-96 -19.5q-50 0 -96.5 19.5t-82.5 63.5t-58 115.5t-22 176.5zM157 360q0 -153 42.5 -231.5t129.5 -78.5t129.5 78.5t42.5 231.5
t-42.5 231.5t-129.5 78.5t-129.5 -78.5t-42.5 -231.5z" />
    <glyph glyph-name="Pi" unicode="&#x3a0;" horiz-adv-x="610" 
d="M520 720v-720h-85v651h-260v-651h-85v720h430z" />
    <glyph glyph-name="Rho" unicode="&#x3a1;" horiz-adv-x="528" 
d="M244 720q53 0 98.5 -13.5t79 -42t52.5 -72t19 -103.5q0 -59 -20 -101.5t-54.5 -70t-80.5 -40.5t-98 -13h-65v-264h-85v720h154zM175 655v-326h67q79 0 121.5 39t42.5 121q0 78 -42.5 122t-117.5 44h-71z" />
    <glyph glyph-name="Sigma" unicode="&#x3a3;" horiz-adv-x="499" 
d="M141 70h308v-70h-399v73l219 292l-219 282v73h399v-70h-308l221 -285z" />
    <glyph glyph-name="Tau" unicode="&#x3a4;" horiz-adv-x="475" 
d="M450 646h-171v-646h-85v646h-169v74h425v-74z" />
    <glyph glyph-name="Upsilon" unicode="&#x3a5;" horiz-adv-x="512" 
d="M502 720l-202 -432v-288h-84v288l-206 432h93l157 -344l159 344h83z" />
    <glyph glyph-name="Phi" unicode="&#x3a6;" horiz-adv-x="775" 
d="M427 750v-102q46 -3 97 -18.5t93.5 -49t70 -86.5t27.5 -131t-27.5 -131.5t-70 -87t-93.5 -49t-97 -18.5v-107h-79v107q-47 3 -97.5 18.5t-93 49t-70 87t-27.5 131.5t27.5 131t70 86.5t93 49t97.5 18.5v102h79zM630 363q0 67 -20 109t-50.5 66.5t-66 34.5t-66.5 12v-442
q31 2 66.5 11.5t66 33.5t50.5 66t20 109zM145 363q0 -67 20 -109t50.5 -66t66 -33.5t66.5 -11.5v442q-31 -2 -66.5 -12t-66 -34.5t-50.5 -66.5t-20 -109z" />
    <glyph glyph-name="Chi" unicode="&#x3a7;" horiz-adv-x="550" 
d="M320 375l195 -375h-97l-144 292l-152 -292h-87l197 372l-179 348h95l133 -268l139 268h88z" />
    <glyph glyph-name="Psi" unicode="&#x3a8;" horiz-adv-x="762" 
d="M421 720v-495q49 4 83.5 20t56.5 41.5t31.5 59t9.5 72.5v302h80v-293q0 -55 -15.5 -102t-47.5 -83t-81.5 -58t-116.5 -27v-157h-78v157q-68 5 -118 27t-82 58t-47.5 83t-15.5 102v293h80v-302q0 -39 9.5 -72.5t31.5 -59t57 -41.5t85 -20v495h78z" />
    <glyph glyph-name="Omega" unicode="&#x3a9;" horiz-adv-x="658" 
d="M329 670q-87 0 -129.5 -78.5t-42.5 -231.5q0 -59 5.5 -107.5t18.5 -86t35 -62t54 -34.5v-70h-190v70h87q-21 15 -39 38t-31 57t-20 81.5t-7 113.5q0 105 22 176.5t58 115.5t82.5 63.5t96.5 19.5q49 0 96 -19.5t83 -63.5t58 -115.5t22 -176.5q0 -65 -7.5 -113t-20.5 -82.5
t-31 -57t-40 -37.5h89v-70h-191v70q32 10 53.5 34.5t35 62t19.5 86t6 107.5q0 153 -42.5 231.5t-129.5 78.5z" />
    <glyph glyph-name="Iotadieresis" unicode="&#x3aa;" horiz-adv-x="265" 
d="M-16 785v90h95v-90h-95zM189 785v90h95v-90h-95zM175 720v-720h-85v720h85z" />
    <glyph glyph-name="Upsilondieresis" unicode="&#x3ab;" horiz-adv-x="512" 
d="M502 720l-202 -432v-288h-84v288l-206 432h93l157 -344l159 344h83zM106 785v90h95v-90h-95zM311 785v90h95v-90h-95z" />
    <glyph glyph-name="alphatonos" unicode="&#x3ac;" horiz-adv-x="548" 
d="M63 269q0 140 54 213t148 73q45 0 77 -19.5t52 -51.5l19 56h55v-540h-55l-20 74q-23 -39 -60.5 -61.5t-94.5 -22.5q-37 0 -69 15t-55.5 48.5t-37 86.5t-13.5 129zM266 56q38 0 68.5 21.5t53.5 50.5v311q-20 21 -46.5 39t-60.5 18q-28 0 -52.5 -12.5t-42.5 -40t-28.5 -72
t-10.5 -107.5q0 -60 9 -100t25 -64t37.5 -34t47.5 -10zM281 735h110l-92 -147h-68z" />
    <glyph glyph-name="epsilontonos" unicode="&#x3ad;" horiz-adv-x="486" 
d="M249 53q27 0 47.5 7.5t35 20.5t23 29.5t11.5 33.5l80 -13q-6 -29 -21.5 -55t-41 -45t-60 -30t-79.5 -11q-40 0 -76 10t-63.5 29.5t-43.5 49.5t-16 70q0 34 10.5 59.5t27.5 42.5t39 26.5t45 11.5q-51 10 -80 45t-29 78q0 32 14 58.5t39 45t59 29t75 10.5q73 0 123 -32.5
t71 -107.5l-78 -13q-7 37 -33.5 65t-78.5 28q-48 0 -77 -22.5t-29 -68.5q0 -42 28 -64.5t66 -22.5h57v-64h-59q-48 0 -76 -29t-28 -68q0 -51 31.5 -77t86.5 -26zM249 735h110l-92 -147h-68z" />
    <glyph glyph-name="etatonos" unicode="&#x3ae;" horiz-adv-x="548" 
d="M80 0v540h58l15 -66q33 44 76 62.5t79 18.5q79 0 119.5 -49.5t40.5 -155.5v-520h-80v524q0 73 -24.5 104.5t-78.5 31.5q-38 0 -69 -21.5t-56 -51.5v-417h-80zM287 735h110l-92 -147h-68z" />
    <glyph glyph-name="iotatonos" unicode="&#x3af;" horiz-adv-x="240" 
d="M130 735h110l-92 -147h-68zM80 0v540h80v-540h-80z" />
    <glyph glyph-name="upsilondieresistonos" unicode="&#x3b0;" horiz-adv-x="537" 
d="M268 54q51 0 80 33.5t29 90.5v362h80v-359q0 -43 -13 -78t-37.5 -60t-59.5 -39t-79 -14q-88 0 -138 50t-50 137v363h80v-366q0 -57 28.5 -88.5t79.5 -31.5zM116 587v90h95v-90h-95zM321 587v90h95v-90h-95zM283 829h110l-92 -127h-68z" />
    <glyph glyph-name="alpha" unicode="&#x3b1;" horiz-adv-x="548" 
d="M63 269q0 140 54 213t148 73q45 0 77 -19.5t52 -51.5l19 56h55v-540h-55l-20 74q-23 -39 -60.5 -61.5t-94.5 -22.5q-37 0 -69 15t-55.5 48.5t-37 86.5t-13.5 129zM266 56q38 0 68.5 21.5t53.5 50.5v311q-20 21 -46.5 39t-60.5 18q-28 0 -52.5 -12.5t-42.5 -40t-28.5 -72
t-10.5 -107.5q0 -60 9 -100t25 -64t37.5 -34t47.5 -10z" />
    <glyph glyph-name="beta" unicode="&#x3b2;" horiz-adv-x="577" 
d="M522 194q0 -41 -12.5 -78t-38 -65t-63.5 -44.5t-88 -16.5q-32 0 -57.5 6t-45 15.5t-34 20.5t-23.5 22v-224h-80v671q0 122 55.5 178t149.5 56q41 0 78 -12.5t65 -35.5t44.5 -56t16.5 -74q0 -38 -11 -66.5t-29 -49t-41 -33.5t-46 -19q22 -4 50 -16t52.5 -35t41 -58
t16.5 -86zM160 118q7 -9 20 -21t31 -22.5t41 -18t52 -7.5q35 0 60 11.5t41 32t23.5 47.5t7.5 58q0 46 -14 76t-37 48t-54 26t-64 9v58q32 4 58 12t45 24t29 40.5t10 62.5q0 22 -7 44t-22 39.5t-39 28.5t-58 11q-29 0 -51.5 -8.5t-38.5 -28t-24.5 -51.5t-8.5 -79v-392z" />
    <glyph glyph-name="gamma" unicode="&#x3b3;" horiz-adv-x="465" 
d="M192 -170v184l-182 526h86l138 -435l140 435h81l-183 -526v-184h-80z" />
    <glyph glyph-name="delta" unicode="&#x3b4;" horiz-adv-x="552" 
d="M489 250q0 -71 -16.5 -120.5t-45.5 -80.5t-67.5 -45t-82.5 -14q-45 0 -84 17t-68 50t-45.5 81.5t-16.5 111.5q0 65 16.5 114.5t43.5 83t61.5 50.5t71.5 17t66 -11t55 -39q-21 42 -53.5 75.5t-70 58t-78 40t-77.5 21.5v60h352v-70h-172q96 -44 153.5 -142t57.5 -258z
M148 250q0 -50 10 -87.5t27.5 -62t41 -36.5t51.5 -12q56 0 91.5 48t35.5 150q0 54 -10 92.5t-27.5 62.5t-40.5 35.5t-50 11.5q-26 0 -49.5 -11.5t-41 -35.5t-28 -62.5t-10.5 -92.5z" />
    <glyph glyph-name="epsilon" unicode="&#x3b5;" horiz-adv-x="486" 
d="M249 53q27 0 47.5 7.5t35 20.5t23 29.5t11.5 33.5l80 -13q-6 -29 -21.5 -55t-41 -45t-60 -30t-79.5 -11q-40 0 -76 10t-63.5 29.5t-43.5 49.5t-16 70q0 34 10.5 59.5t27.5 42.5t39 26.5t45 11.5q-51 10 -80 45t-29 78q0 32 14 58.5t39 45t59 29t75 10.5q73 0 123 -32.5
t71 -107.5l-78 -13q-7 37 -33.5 65t-78.5 28q-48 0 -77 -22.5t-29 -68.5q0 -42 28 -64.5t66 -22.5h57v-64h-59q-48 0 -76 -29t-28 -68q0 -51 31.5 -77t86.5 -26z" />
    <glyph glyph-name="zeta" unicode="&#x3b6;" horiz-adv-x="465" 
d="M294 0q-41 4 -81.5 15.5t-73.5 37t-53.5 70t-20.5 114.5q0 72 17.5 135.5t48.5 116t73 93.5t92 68h-233v70h373v-61q-58 -24 -110 -62t-91.5 -90t-62.5 -117t-23 -143q0 -44 9.5 -75t31 -51.5t57 -32.5t86.5 -18q34 -4 56 -13t34.5 -22t17 -30t4.5 -36q0 -32 -14 -71.5
t-39 -75.5l-66 15q15 26 27 52.5t12 48.5q0 29 -14.5 43t-56.5 19z" />
    <glyph glyph-name="eta" unicode="&#x3b7;" horiz-adv-x="548" 
d="M80 0v540h58l15 -66q33 44 76 62.5t79 18.5q79 0 119.5 -49.5t40.5 -155.5v-520h-80v524q0 73 -24.5 104.5t-78.5 31.5q-38 0 -69 -21.5t-56 -51.5v-417h-80z" />
    <glyph glyph-name="theta" unicode="&#x3b8;" horiz-adv-x="575" 
d="M63 360q0 111 21 183t53.5 115t72.5 60t78 17t78 -17t72.5 -60t53 -115t20.5 -183t-20.5 -182.5t-53 -113t-72.5 -58t-78 -16.5t-78 16.5t-72.5 58t-53.5 113t-21 182.5zM289 51q30 0 54.5 14t42.5 47t29 86.5t13 131.5h-281q2 -78 13 -131.5t30 -86.5t44 -47t55 -14z
M288 674q-28 0 -53 -15t-44 -48.5t-30.5 -87t-13.5 -131.5h281q-2 78 -13.5 131.5t-30.5 87t-43.5 48.5t-52.5 15z" />
    <glyph glyph-name="iota" unicode="&#x3b9;" horiz-adv-x="240" 
d="M80 0v540h80v-540h-80z" />
    <glyph glyph-name="kappa" unicode="&#x3ba;" horiz-adv-x="493" 
d="M80 0v540h80v-238l197 238h98l-217 -252l245 -288h-103l-220 259v-259h-80z" />
    <glyph glyph-name="lambda" unicode="&#x3bb;" horiz-adv-x="465" 
d="M453 0h-82l-142 482l-134 -482h-83l161 540h41l-57 195h75z" />
    <glyph glyph-name="mu" unicode="&#x3bc;" horiz-adv-x="536" 
d="M160 540v-354q0 -39 7 -64.5t20.5 -40t31.5 -20.5t41 -6q42 0 69 20t47 51v414h80v-540h-55l-17 65q-23 -40 -55.5 -57.5t-74.5 -17.5q-29 0 -53 11t-41 28v-199h-80v710h80z" />
    <glyph glyph-name="nu" unicode="&#x3bd;" horiz-adv-x="465" 
d="M455 540l-164 -540h-119l-162 540h86l137 -486l141 486h81z" />
    <glyph glyph-name="xi" unicode="&#x3be;" horiz-adv-x="480" 
d="M445 -31q0 -36 -14.5 -72.5t-38.5 -74.5l-66 15q15 26 27 52.5t12 48.5q0 13 -2 23.5t-9 18t-21.5 12.5t-38.5 8q-42 5 -82.5 18t-72.5 37t-51.5 60.5t-19.5 89.5q0 60 29.5 100t68.5 57q19 12 46 15q-20 3 -38 14q-32 16 -56.5 47t-24.5 71q0 52 26 86.5t74 54.5h-130
v70h360v-63h-24q-44 0 -84.5 -9.5t-72 -27t-50 -43.5t-18.5 -59q0 -55 41 -84.5t116 -29.5h38v-67h-58q-35 0 -64.5 -6t-50.5 -20t-33 -37t-12 -57q0 -40 13 -65.5t36.5 -41.5t57 -25t75.5 -16q29 -5 50.5 -12t35 -18t20 -28t6.5 -42z" />
    <glyph glyph-name="omicron" unicode="&#x3bf;" horiz-adv-x="565" 
d="M63 270q0 83 20 138t51.5 87.5t71 46t77.5 13.5t77 -13t70.5 -45.5t51.5 -87.5t20 -139t-20 -138t-51.5 -85.5t-70.5 -44t-77 -12.5t-77.5 12.5t-71 44.5t-51.5 86t-20 137zM147 270q0 -114 37.5 -166.5t99.5 -52.5q63 0 99 51.5t36 167.5q0 115 -38 169.5t-98 54.5
q-59 0 -97.5 -55t-38.5 -169z" />
    <glyph glyph-name="pi" unicode="&#x3c0;" horiz-adv-x="527" 
d="M502 471h-80v-363q0 -32 7.5 -40.5t21.5 -8.5q8 0 14 1t8 2l15 -61q-13 -4 -24.5 -6.5t-25.5 -2.5q-29 0 -47.5 10t-29 28t-14 42.5t-3.5 53.5v343h-160v-475h-78v472h-84v68h480v-63z" />
    <glyph glyph-name="rho" unicode="&#x3c1;" horiz-adv-x="526" 
d="M80 -170v525q0 47 14 84t38.5 63t58.5 39.5t74 13.5q39 0 75 -12.5t63 -44t43.5 -85.5t16.5 -137q0 -148 -53.5 -217t-142.5 -69q-34 0 -60.5 11.5t-46.5 31.5v-203h-80zM160 89q17 -17 39.5 -29t51.5 -12q60 0 96 54.5t36 176.5q0 111 -30.5 160.5t-88.5 49.5
q-28 0 -47.5 -10t-32 -26.5t-18.5 -38.5t-6 -47v-278z" />
    <glyph glyph-name="sigma1" unicode="&#x3c2;" horiz-adv-x="506" 
d="M291 0q-48 5 -89.5 20.5t-72.5 47t-48.5 81t-17.5 122.5q0 77 18.5 131t48.5 88t68 49.5t77 15.5q45 0 78 -14t56.5 -36t37 -49.5t19.5 -54.5l-80 -12q-10 45 -34 73t-75 28q-27 0 -51 -12t-41.5 -38.5t-27.5 -68.5t-10 -103q0 -58 11.5 -94.5t34 -58.5t57 -32.5
t80.5 -15.5q34 -4 56 -12.5t34.5 -21t17 -29t4.5 -35.5q0 -32 -14 -71.5t-39 -75.5l-66 15q15 26 27 52.5t12 48.5q0 29 -14.5 43t-56.5 19z" />
    <glyph glyph-name="sigma" unicode="&#x3c3;" horiz-adv-x="571" 
d="M502 270q0 -84 -19.5 -138t-51 -85.5t-70 -44t-77.5 -12.5t-78 12.5t-71 44.5t-52 86t-20 137q0 87 21 141.5t54.5 85.5t74 43t79.5 15l226 14v-75h-89q11 -12 24 -31t24 -46t18 -63.5t7 -83.5zM147 270q0 -63 11.5 -105t30 -67.5t43.5 -36t52 -10.5t51.5 10.5t43 36
t29.5 67.5t11 105q0 48 -6.5 84.5t-16 64t-22 46t-24.5 29.5h-18q-34 0 -67 -6t-59.5 -29t-42.5 -67.5t-16 -121.5z" />
    <glyph glyph-name="tau" unicode="&#x3c4;" horiz-adv-x="436" 
d="M411 473h-154v-473h-79v473h-153v67h386v-67z" />
    <glyph glyph-name="upsilon" unicode="&#x3c5;" horiz-adv-x="537" 
d="M268 54q51 0 80 33.5t29 90.5v362h80v-359q0 -43 -13 -78t-37.5 -60t-59.5 -39t-79 -14q-88 0 -138 50t-50 137v363h80v-366q0 -57 28.5 -88.5t79.5 -31.5z" />
    <glyph glyph-name="phi" unicode="&#x3c6;" horiz-adv-x="733" 
d="M670 273q0 -68 -14.5 -119t-46.5 -85.5t-83.5 -53.5t-125.5 -23v-162h-75v162q-72 4 -122 23t-81 53.5t-45 85.5t-14 119q0 63 12.5 111t31.5 82.5t41 56.5t41 32l56 -35q-20 -14 -39 -33.5t-33.5 -48.5t-23.5 -69.5t-9 -95.5q0 -60 12.5 -100.5t36.5 -65.5t58 -36.5
t78 -14.5v472q37 12 80 19.5t89 7.5q85 0 130.5 -66.5t45.5 -215.5zM593 273q0 73 -10.5 116.5t-27 66t-36.5 29.5t-39 7q-17 0 -41 -3.5t-39 -9.5v-423q46 3 81.5 14.5t60.5 36.5t38 65.5t13 100.5z" />
    <glyph glyph-name="chi" unicode="&#x3c7;" horiz-adv-x="500" 
d="M291 203l189 -373h-94l-143 297l-140 -297h-83l180 370l-167 340h92l123 -266l119 266h80z" />
    <glyph glyph-name="psi" unicode="&#x3c8;" horiz-adv-x="712" 
d="M394 540v-485q86 9 123 54.5t37 112.5v318h78v-303q0 -44 -11 -86t-38 -75.5t-73 -56t-116 -27.5v-162h-76v162q-70 5 -116 28t-73 57t-38 75.5t-11 84.5v303h78v-318q0 -67 37 -112t123 -54v484h76z" />
    <glyph glyph-name="omega" unicode="&#x3c9;" horiz-adv-x="752" 
d="M376 89q-7 -15 -17.5 -32.5t-26.5 -32t-39 -24.5t-56 -10q-81 0 -127.5 66t-46.5 207q0 81 28 157.5t86 134.5l62 -36q-43 -44 -67 -106t-24 -155q0 -99 23.5 -152t71.5 -53q52 0 72.5 46.5t20.5 127.5v159h80v-159q0 -81 20.5 -127.5t72.5 -46.5q48 0 71.5 53t23.5 152
q0 93 -24 155t-67 106l62 36q58 -58 86 -134.5t28 -157.5q0 -141 -46.5 -207t-127.5 -66q-33 0 -56 10t-39 24.5t-26.5 32t-17.5 32.5z" />
    <glyph glyph-name="iotadieresis" unicode="&#x3ca;" horiz-adv-x="240" 
d="M-28 635v90h95v-90h-95zM177 635v90h95v-90h-95zM80 0v540h80v-540h-80z" />
    <glyph glyph-name="upsilondieresis" unicode="&#x3cb;" horiz-adv-x="537" 
d="M268 54q51 0 80 33.5t29 90.5v362h80v-359q0 -43 -13 -78t-37.5 -60t-59.5 -39t-79 -14q-88 0 -138 50t-50 137v363h80v-366q0 -57 28.5 -88.5t79.5 -31.5zM117 631v90h95v-90h-95zM322 631v90h95v-90h-95z" />
    <glyph glyph-name="omicrontonos" unicode="&#x3cc;" horiz-adv-x="565" 
d="M63 270q0 83 20 138t51.5 87.5t71 46t77.5 13.5t77 -13t70.5 -45.5t51.5 -87.5t20 -139t-20 -138t-51.5 -85.5t-70.5 -44t-77 -12.5t-77.5 12.5t-71 44.5t-51.5 86t-20 137zM147 270q0 -114 37.5 -166.5t99.5 -52.5q63 0 99 51.5t36 167.5q0 115 -38 169.5t-98 54.5
q-59 0 -97.5 -55t-38.5 -169zM291 735h110l-92 -147h-68z" />
    <glyph glyph-name="upsilontonos" unicode="&#x3cd;" horiz-adv-x="537" 
d="M268 54q51 0 80 33.5t29 90.5v362h80v-359q0 -43 -13 -78t-37.5 -60t-59.5 -39t-79 -14q-88 0 -138 50t-50 137v363h80v-366q0 -57 28.5 -88.5t79.5 -31.5zM277 735h110l-92 -147h-68z" />
    <glyph glyph-name="omegatonos" unicode="&#x3ce;" horiz-adv-x="752" 
d="M376 89q-7 -15 -17.5 -32.5t-26.5 -32t-39 -24.5t-56 -10q-81 0 -127.5 66t-46.5 207q0 81 28 157.5t86 134.5l62 -36q-43 -44 -67 -106t-24 -155q0 -99 23.5 -152t71.5 -53q52 0 72.5 46.5t20.5 127.5v159h80v-159q0 -81 20.5 -127.5t72.5 -46.5q48 0 71.5 53t23.5 152
q0 93 -24 155t-67 106l62 36q58 -58 86 -134.5t28 -157.5q0 -141 -46.5 -207t-127.5 -66q-33 0 -56 10t-39 24.5t-26.5 32t-17.5 32.5zM379 735h110l-92 -147h-68z" />
    <glyph glyph-name="afii10023" unicode="&#x401;" horiz-adv-x="500" 
d="M116 785v90h95v-90h-95zM321 785v90h95v-90h-95zM410 333h-235v-265h265v-68h-350v720h350v-68h-265v-253h235v-66z" />
    <glyph glyph-name="afii10051" unicode="&#x402;" horiz-adv-x="681" 
d="M369 62q6 -2 16 -3.5t20.5 -3t20.5 -2t16 -0.5q48 0 65 47.5t17 146.5q0 53 -7 89t-21 58t-34 31.5t-47 9.5q-42 0 -76 -25t-60 -57v-353h-85v646h-169v74h445v-74h-191v-217q16 20 35.5 34.5t40 23.5t41.5 13.5t39 4.5q79 0 127.5 -62.5t48.5 -199.5q0 -80 -11.5 -130
t-32 -78.5t-48.5 -38.5t-61 -10q-8 0 -19.5 0.5t-24.5 2t-25 3.5t-20 5v65z" />
    <glyph glyph-name="afii10052" unicode="&#x403;" horiz-adv-x="477" 
d="M90 0v720h362v-74h-277v-646h-85zM292 885h119l-142 -117h-72z" />
    <glyph glyph-name="afii10053" unicode="&#x404;" horiz-adv-x="582" 
d="M425 335h-267q2 -81 15.5 -135t35 -87t49.5 -46.5t60 -13.5q57 0 88.5 25.5t48.5 79.5l82 -11q-25 -78 -77.5 -120t-143.5 -42q-40 0 -83.5 16t-79.5 57.5t-59.5 114.5t-23.5 187q0 112 23 185t59 115t80.5 58.5t87.5 16.5q46 0 81.5 -13t61 -34t41.5 -48.5t24 -55.5
l-82 -13q-30 97 -126 97q-32 0 -60.5 -13t-50 -43.5t-35 -82t-16.5 -128.5h267v-66z" />
    <glyph glyph-name="afii10054" unicode="&#x405;" horiz-adv-x="548" 
d="M277 669q-24 0 -46 -6.5t-38.5 -20t-26.5 -34.5t-10 -49q0 -26 7 -45.5t23.5 -35.5t43.5 -30.5t67 -29.5q39 -15 73.5 -33t60.5 -44.5t41.5 -63.5t15.5 -90q0 -41 -15.5 -78t-43.5 -64.5t-67.5 -43.5t-88.5 -16q-52 0 -91.5 15t-67.5 38.5t-45 52t-24 55.5l79 14
q6 -20 16.5 -39t28 -34t43.5 -24.5t62 -9.5q24 0 47 7.5t41 23t29.5 40t11.5 58.5q0 39 -9.5 63.5t-30 43t-53.5 33.5t-79 34q-81 33 -119.5 80.5t-38.5 116.5q0 38 14 71.5t40 58t63.5 38.5t84.5 14q45 0 80 -13t60.5 -34.5t42.5 -48.5t26 -55l-75 -14q-12 39 -45 69
t-87 30z" />
    <glyph glyph-name="afii10055" unicode="&#x406;" horiz-adv-x="265" 
d="M175 720v-720h-85v720h85z" />
    <glyph glyph-name="afii10056" unicode="&#x407;" horiz-adv-x="265" 
d="M-16 795v90h95v-90h-95zM189 795v90h95v-90h-95zM175 720v-720h-85v720h85z" />
    <glyph glyph-name="afii10057" unicode="&#x408;" horiz-adv-x="324" 
d="M154 720h85v-555q0 -96 -34 -137.5t-104 -41.5q-26 0 -47 4t-39 10v69q17 -5 39.5 -9t36.5 -4q17 0 29 4t19.5 16t11 33.5t3.5 57.5v553z" />
    <glyph glyph-name="afii10058" unicode="&#x409;" horiz-adv-x="916" 
d="M197 720h340v-294h98q44 0 86.5 -12t75.5 -38t53.5 -66.5t20.5 -98.5t-21 -98t-56.5 -65t-81 -36.5t-93.5 -11.5h-167v651h-184l-62 -449q-8 -57 -21 -95.5t-35.5 -62.5t-55 -34t-79.5 -10v69q25 0 42.5 5.5t29.5 18.5t19.5 35.5t12.5 56.5zM537 360v-295h97
q69 0 108.5 34t39.5 112q0 69 -35.5 109t-107.5 40h-102z" />
    <glyph glyph-name="afii10059" unicode="&#x40a;" horiz-adv-x="909" 
d="M530 720v-294h98q44 0 86.5 -12t75.5 -38t53.5 -66.5t20.5 -98.5t-21 -98t-56.5 -65t-81 -36.5t-93.5 -11.5h-167v330h-270v-330h-85v720h85v-322h270v322h85zM530 360v-295h97q69 0 108.5 34t39.5 112q0 69 -35.5 109t-107.5 40h-102z" />
    <glyph glyph-name="afii10060" unicode="&#x40b;" horiz-adv-x="677" 
d="M512 0v299q0 73 -24.5 104.5t-78.5 31.5q-38 0 -71 -23t-59 -54v-358h-85v646h-169v74h425v-74h-171v-222q31 45 71 63t82 18q79 0 122 -49.5t43 -155.5v-300h-85z" />
    <glyph glyph-name="afii10061" unicode="&#x40c;" horiz-adv-x="543" 
d="M424 0l-249 335v-335h-85v720h85v-314l226 314h95l-251 -343l283 -377h-104zM333 885h119l-142 -117h-72z" />
    <glyph glyph-name="afii10062" unicode="&#x40e;" horiz-adv-x="484" 
d="M250 769q-23 0 -47 4.5t-45 17t-37 35.5t-23 59h79q5 -32 23 -45.5t50 -13.5t50 13.5t23 45.5h79q-7 -36 -23 -59t-37 -35.5t-45 -17t-47 -4.5zM310 146q-11 -38 -23 -67.5t-30 -50.5t-43.5 -32t-64.5 -11q-29 0 -65 9v67q17 -4 32 -6t31 -2q37 0 55 27.5t31 79.5h-41
l-182 560h89l152 -508l142 508h81z" />
    <glyph glyph-name="afii10145" unicode="&#x40f;" horiz-adv-x="610" 
d="M90 0v720h85v-651h260v651h85v-720h-172l-7 -135h-70l-7 135h-174z" />
    <glyph glyph-name="afii10017" unicode="&#x410;" horiz-adv-x="553" 
d="M453 0l-52 187h-254l-53 -187h-84l216 720h102l215 -720h-90zM165 252h218l-107 390z" />
    <glyph glyph-name="afii10018" unicode="&#x411;" horiz-adv-x="559" 
d="M447 648h-272v-222h98q44 0 86.5 -12t75.5 -38t53.5 -66.5t20.5 -98.5t-21 -98t-56.5 -65t-81 -36.5t-93.5 -11.5h-167v720h357v-72zM175 360v-295h97q69 0 108.5 34t39.5 112q0 69 -35.5 109t-107.5 40h-102z" />
    <glyph glyph-name="afii10019" unicode="&#x412;" horiz-adv-x="559" 
d="M259 720q112 0 169.5 -47.5t57.5 -138.5q0 -57 -30.5 -98t-78.5 -56q27 -6 51 -19.5t42 -35.5t28.5 -53.5t10.5 -72.5q0 -58 -22 -96t-58 -61t-81 -32.5t-91 -9.5h-167v720h169zM175 347v-282h97q30 0 56.5 6.5t47 21.5t32.5 41t12 65q0 34 -7.5 61t-24.5 46.5t-44.5 30
t-66.5 10.5h-102zM175 661v-253h98q69 0 98.5 33t29.5 93q0 64 -36.5 95.5t-97.5 31.5h-92z" />
    <glyph glyph-name="afii10020" unicode="&#x413;" horiz-adv-x="477" 
d="M90 0v720h362v-74h-277v-646h-85z" />
    <glyph glyph-name="afii10021" unicode="&#x414;" horiz-adv-x="637" 
d="M15 -135v204h35q14 3 28 9t26 19t21 34t14 54l82 535h331v-651h40v-204h-66l-19 135h-408l-18 -135h-66zM226 202q-8 -54 -23.5 -85t-35.5 -48h300v582h-175z" />
    <glyph glyph-name="afii10022" unicode="&#x415;" horiz-adv-x="500" 
d="M410 333h-235v-265h265v-68h-350v720h350v-68h-265v-253h235v-66z" />
    <glyph glyph-name="afii10024" unicode="&#x416;" horiz-adv-x="735" 
d="M15 0l249 377l-217 343h93l188 -317v317h79v-317l188 317h93l-217 -343l249 -377h-97l-216 338v-338h-79v338l-216 -338h-97z" />
    <glyph glyph-name="afii10025" unicode="&#x417;" horiz-adv-x="531" 
d="M261 53q24 0 47.5 7.5t42 24.5t30 44.5t11.5 67.5q0 43 -9.5 72t-26 47t-40 26t-51.5 8h-57v71h55q106 0 106 127q0 33 -9 56.5t-24.5 38t-35.5 21t-42 6.5q-32 0 -54 -10.5t-36.5 -27t-22.5 -37t-12 -39.5l-80 13q8 41 27.5 72t47.5 52t62.5 31.5t71.5 10.5t72 -11
t62 -34t43.5 -57.5t16.5 -80.5q0 -69 -32.5 -111.5t-86.5 -51.5q30 -3 56 -16.5t45.5 -37.5t31 -58t11.5 -77q0 -53 -17 -93t-46 -67t-68.5 -41t-84.5 -14q-47 0 -83.5 13t-64 36t-45.5 54.5t-27 68.5l85 12q3 -19 11.5 -39.5t24 -37.5t39 -28t56.5 -11z" />
    <glyph glyph-name="afii10026" unicode="&#x418;" horiz-adv-x="645" 
d="M175 720v-519l294 462v57h86v-720h-85v523l-294 -466v-57h-86v720h85z" />
    <glyph glyph-name="afii10027" unicode="&#x419;" horiz-adv-x="645" 
d="M175 720v-519l294 462v57h86v-720h-85v523l-294 -466v-57h-86v720h85zM320 769q-23 0 -47 4.5t-45 17t-37 35.5t-23 59h79q5 -32 23 -45.5t50 -13.5t50 13.5t23 45.5h79q-7 -36 -23 -59t-37 -35.5t-45 -17t-47 -4.5z" />
    <glyph glyph-name="afii10028" unicode="&#x41a;" horiz-adv-x="543" 
d="M424 0l-249 335v-335h-85v720h85v-314l226 314h95l-251 -343l283 -377h-104z" />
    <glyph glyph-name="afii10029" unicode="&#x41b;" horiz-adv-x="627" 
d="M197 720h340v-720h-85v651h-184l-62 -449q-8 -57 -21 -95.5t-35.5 -62.5t-55 -34t-79.5 -10v69q25 0 42.5 5.5t29.5 18.5t19.5 35.5t12.5 56.5z" />
    <glyph glyph-name="afii10030" unicode="&#x41c;" horiz-adv-x="747" 
d="M341 0l-170 569v-569h-81v720h111l180 -606l166 606h110v-720h-84v569l-157 -569h-75z" />
    <glyph glyph-name="afii10031" unicode="&#x41d;" horiz-adv-x="620" 
d="M530 720v-720h-85v330h-270v-330h-85v720h85v-322h270v322h85z" />
    <glyph glyph-name="afii10032" unicode="&#x41e;" horiz-adv-x="658" 
d="M70 360q0 105 22 176.5t58 115.5t82.5 63.5t96.5 19.5q49 0 96 -19.5t83 -63.5t58 -115.5t22 -176.5t-22 -176.5t-58 -115.5t-83 -63.5t-96 -19.5q-50 0 -96.5 19.5t-82.5 63.5t-58 115.5t-22 176.5zM157 360q0 -153 42.5 -231.5t129.5 -78.5t129.5 78.5t42.5 231.5
t-42.5 231.5t-129.5 78.5t-129.5 -78.5t-42.5 -231.5z" />
    <glyph glyph-name="afii10033" unicode="&#x41f;" horiz-adv-x="610" 
d="M520 720v-720h-85v651h-260v-651h-85v720h430z" />
    <glyph glyph-name="afii10034" unicode="&#x420;" horiz-adv-x="528" 
d="M244 720q53 0 98.5 -13.5t79 -42t52.5 -72t19 -103.5q0 -59 -20 -101.5t-54.5 -70t-80.5 -40.5t-98 -13h-65v-264h-85v720h154zM175 655v-326h67q79 0 121.5 39t42.5 121q0 78 -42.5 122t-117.5 44h-71z" />
    <glyph glyph-name="afii10035" unicode="&#x421;" horiz-adv-x="582" 
d="M318 53q54 0 86.5 29t49.5 83l83 -8q-24 -77 -77 -124.5t-144 -47.5q-40 0 -83.5 16t-79.5 57.5t-59.5 114.5t-23.5 187q0 112 23 185t59 115t80.5 58.5t87.5 16.5q47 0 82.5 -14.5t60.5 -37.5t41 -52t24 -57l-82 -11q-15 48 -44.5 76.5t-81.5 28.5q-34 0 -63.5 -14.5
t-51.5 -50t-34.5 -94.5t-12.5 -149q0 -89 13 -148t34.5 -94t50.5 -50t62 -15z" />
    <glyph glyph-name="afii10036" unicode="&#x422;" horiz-adv-x="475" 
d="M450 646h-171v-646h-85v646h-169v74h425v-74z" />
    <glyph glyph-name="afii10037" unicode="&#x423;" horiz-adv-x="484" 
d="M310 146q-11 -38 -23 -67.5t-30 -50.5t-43.5 -32t-64.5 -11q-29 0 -65 9v67q17 -4 32 -6t31 -2q37 0 55 27.5t31 79.5h-41l-182 560h89l152 -508l142 508h81z" />
    <glyph glyph-name="afii10038" unicode="&#x424;" horiz-adv-x="775" 
d="M427 750v-102q46 -3 97 -18.5t93.5 -49t70 -86.5t27.5 -131t-27.5 -131.5t-70 -87t-93.5 -49t-97 -18.5v-107h-79v107q-47 3 -97.5 18.5t-93 49t-70 87t-27.5 131.5t27.5 131t70 86.5t93 49t97.5 18.5v102h79zM630 363q0 67 -20 109t-50.5 66.5t-66 34.5t-66.5 12v-442
q31 2 66.5 11.5t66 33.5t50.5 66t20 109zM145 363q0 -67 20 -109t50.5 -66t66 -33.5t66.5 -11.5v442q-31 -2 -66.5 -12t-66 -34.5t-50.5 -66.5t-20 -109z" />
    <glyph glyph-name="afii10039" unicode="&#x425;" horiz-adv-x="550" 
d="M320 375l195 -375h-97l-144 292l-152 -292h-87l197 372l-179 348h95l133 -268l139 268h88z" />
    <glyph glyph-name="afii10040" unicode="&#x426;" horiz-adv-x="605" 
d="M470 0h-380v720h85v-651h250v651h85v-651h45v-204h-66z" />
    <glyph glyph-name="afii10041" unicode="&#x427;" horiz-adv-x="590" 
d="M270 253q-36 0 -70 8.5t-60 31t-42 61.5t-16 100v266h85v-265q0 -38 7 -63t22.5 -40.5t41.5 -22t65 -6.5q25 0 55.5 3t56.5 7v387h85v-720h-85v267q-28 -5 -65.5 -9.5t-79.5 -4.5z" />
    <glyph glyph-name="afii10042" unicode="&#x428;" horiz-adv-x="851" 
d="M90 0v720h83v-651h212v651h81v-651h212v651h83v-720h-671z" />
    <glyph glyph-name="afii10043" unicode="&#x429;" horiz-adv-x="855" 
d="M720 0h-630v720h83v-651h212v651h81v-651h212v651h83v-651h44v-204h-66z" />
    <glyph glyph-name="afii10044" unicode="&#x42a;" horiz-adv-x="574" 
d="M20 720h185v-294h86q44 0 86.5 -12t76.5 -38t54.5 -66.5t20.5 -98.5t-21.5 -98t-57 -65t-81.5 -36.5t-94 -11.5h-155v651h-100v69zM205 360v-295h85q69 0 109.5 34t40.5 112q0 69 -36.5 109t-108.5 40h-90z" />
    <glyph glyph-name="afii10045" unicode="&#x42b;" horiz-adv-x="769" 
d="M679 720v-720h-85v720h85zM175 720v-294h86q44 0 86.5 -12t76.5 -38t54.5 -66.5t20.5 -98.5t-21.5 -98t-57 -65t-81.5 -36.5t-94 -11.5h-155v720h85zM175 360v-295h85q69 0 109.5 34t40.5 112q0 69 -36.5 109t-108.5 40h-90z" />
    <glyph glyph-name="afii10046" unicode="&#x42c;" horiz-adv-x="544" 
d="M175 720v-294h86q44 0 86.5 -12t76.5 -38t54.5 -66.5t20.5 -98.5t-21.5 -98t-57 -65t-81.5 -36.5t-94 -11.5h-155v720h85zM175 360v-295h85q69 0 109.5 34t40.5 112q0 69 -36.5 109t-108.5 40h-90z" />
    <glyph glyph-name="afii10047" unicode="&#x42d;" horiz-adv-x="584" 
d="M157 403h270q-3 76 -16 127t-33.5 82t-48 43.5t-59.5 12.5q-49 0 -84 -24.5t-50 -72.5l-82 13q9 28 27.5 55.5t45.5 48.5t63 34t80 13q46 0 89.5 -16.5t78 -58.5t55.5 -115t21 -185q0 -114 -22.5 -187t-58 -115t-79.5 -57.5t-87 -15.5q-90 0 -143.5 41t-78.5 119l82 11
q25 -103 138 -103q31 0 60 13.5t51 46.5t36 87.5t16 136.5h-271v66z" />
    <glyph glyph-name="afii10048" unicode="&#x42e;" horiz-adv-x="881" 
d="M175 720v-322h119q4 93 27 157.5t58.5 104.5t80 57.5t92.5 17.5q49 0 96 -19.5t83 -63.5t58 -115.5t22 -176.5t-22 -176.5t-58 -115.5t-83 -63.5t-96 -19.5q-48 0 -93 18t-81 58.5t-59 106.5t-26 162h-118v-330h-85v720h85zM380 360q0 -153 42.5 -231.5t129.5 -78.5
t129.5 78.5t42.5 231.5t-42.5 231.5t-129.5 78.5t-129.5 -78.5t-42.5 -231.5z" />
    <glyph glyph-name="afii10049" unicode="&#x42f;" horiz-adv-x="557" 
d="M15 0l179 301q-26 11 -49 28t-40 41t-27 55.5t-10 72.5q0 57 19.5 99t53.5 69.5t80 40.5t99 13h147v-720h-85v282h-105l-161 -282h-101zM318 655q-75 0 -119 -40.5t-44 -116.5t44 -113.5t116 -37.5h67v308h-64z" />
    <glyph glyph-name="afii10065" unicode="&#x430;" horiz-adv-x="506" 
d="M372 0l-18 64q-23 -32 -60.5 -53t-97.5 -21q-25 0 -52.5 7.5t-50.5 25t-38 47t-15 74.5t18 77.5t47.5 55t68 35.5t79.5 19l93 14v37q0 23 -5 44t-16.5 36.5t-30.5 24.5t-47 9q-43 0 -71 -24t-37 -60l-79 14q22 57 70.5 93t121.5 36q84 0 129 -46t45 -137v-372h-54z
M220 54q40 0 71 16t55 42v176l-72 -12q-72 -12 -111.5 -40.5t-39.5 -85.5q0 -51 27 -73.5t70 -22.5z" />
    <glyph glyph-name="afii10066" unicode="&#x431;" 
d="M298 617q-27 -4 -51 -12t-43 -23t-32.5 -40t-19.5 -63q22 33 54.5 54.5t86.5 21.5q38 0 71.5 -14t58 -47.5t38.5 -88t14 -135.5q0 -147 -56 -213.5t-152 -66.5q-102 0 -153 73t-51 207q0 110 11 184t35.5 121t63 70.5t92.5 32.5q61 10 85 25t24 47h85q0 -30 -8 -52
t-26.5 -38t-49.5 -26.5t-77 -16.5zM146 270q0 -99 29.5 -158t92.5 -59q60 0 92 52.5t32 164.5q0 109 -25.5 166t-90.5 57q-27 0 -50.5 -12.5t-41 -39.5t-28 -69.5t-10.5 -101.5z" />
    <glyph glyph-name="afii10067" unicode="&#x432;" horiz-adv-x="526" 
d="M246 540q109 0 158.5 -35t49.5 -105q0 -42 -27 -74t-72 -40q25 -3 47 -12.5t38.5 -26t26 -40t9.5 -54.5q0 -44 -18 -73t-49.5 -47t-74.5 -25.5t-92 -7.5h-162v540h166zM159 253v-189h97q28 0 52.5 3.5t43 13t29 27t10.5 45.5q0 49 -28 74.5t-102 25.5h-102zM159 481v-168
h98q65 0 90.5 21t25.5 66q0 48 -32 64.5t-90 16.5h-92z" />
    <glyph glyph-name="afii10068" unicode="&#x433;" horiz-adv-x="423" 
d="M80 0v540h318v-67h-238v-473h-80z" />
    <glyph glyph-name="afii10069" unicode="&#x434;" horiz-adv-x="550" 
d="M470 66h40v-181h-61l-21 115h-331l-21 -115h-61v181h47q26 12 37.5 36t18.5 63l62 375h290v-474zM199 171q-7 -40 -19.5 -65t-29.5 -40h240v408h-143z" />
    <glyph glyph-name="afii10070" unicode="&#x435;" horiz-adv-x="546" 
d="M282 54q25 0 44.5 7.5t33.5 19.5t23.5 27t14.5 30l70 -15q-9 -26 -25.5 -50t-40 -42.5t-55 -29.5t-70.5 -11q-38 0 -76 13.5t-69 45.5t-50 86t-19 135q0 82 18.5 136.5t48 87.5t66.5 47t75 14q103 0 155.5 -71t52.5 -227h-334q1 -63 13 -102.5t31 -62t43 -30.5t50 -8z
M276 495q-52 0 -87 -41.5t-43 -135.5h252q-2 87 -33.5 132t-88.5 45z" />
    <glyph glyph-name="afii10072" unicode="&#x436;" horiz-adv-x="662" 
d="M129 540l165 -236v236h75v-235l164 235h91l-185 -253l213 -287h-94l-189 258v-258h-75v259l-190 -259h-94l213 287l-185 253h91z" />
    <glyph glyph-name="afii10073" unicode="&#x437;" horiz-adv-x="482" 
d="M231 53q55 0 87 26t32 77q0 39 -28 67t-76 28h-59v64h57q38 0 65.5 23.5t27.5 65.5q0 46 -30.5 68.5t-78.5 22.5t-76.5 -28t-35.5 -65l-75 13q10 37 30 63.5t46.5 43.5t57 25t62.5 8q40 0 74 -11.5t59 -31t38.5 -45.5t13.5 -55q0 -43 -28.5 -79t-79.5 -46q23 -2 45 -11
t39.5 -26t28 -42t10.5 -59q0 -40 -17 -70t-45 -49.5t-64 -29.5t-73 -10q-82 0 -133.5 39t-64.5 100l77 13q3 -17 11.5 -33t22.5 -28.5t34 -20t46 -7.5z" />
    <glyph glyph-name="afii10074" unicode="&#x438;" horiz-adv-x="553" 
d="M157 540v-385l238 350v35h78v-540h-78v378l-238 -343v-35h-77v540h77z" />
    <glyph glyph-name="afii10075" unicode="&#x439;" horiz-adv-x="553" 
d="M273 614q-26 0 -50.5 5.5t-45.5 19t-36.5 37t-22.5 59.5h83q10 -63 72 -63t72 63h83q-7 -36 -22.5 -59.5t-36.5 -37t-46 -19t-50 -5.5zM157 540v-385l238 350v35h78v-540h-78v378l-238 -343v-35h-77v540h77z" />
    <glyph glyph-name="afii10076" unicode="&#x43a;" horiz-adv-x="493" 
d="M80 0v540h80v-238l197 238h98l-217 -252l245 -288h-103l-220 259v-259h-80z" />
    <glyph glyph-name="afii10077" unicode="&#x43b;" horiz-adv-x="541" 
d="M461 0h-80v474h-145l-50 -308q-7 -44 -19 -75.5t-31.5 -51.5t-49 -29.5t-71.5 -9.5v65q45 1 64 22t27 73l62 380h293v-540z" />
    <glyph glyph-name="afii10078" unicode="&#x43c;" horiz-adv-x="657" 
d="M300 0l-145 435v-435h-75v540h113l137 -422l137 422h110v-540h-78v435l-146 -435h-53z" />
    <glyph glyph-name="afii10079" unicode="&#x43d;" horiz-adv-x="562" 
d="M482 540v-540h-80v239h-242v-239h-80v540h80v-236h242v236h80z" />
    <glyph glyph-name="afii10080" unicode="&#x43e;" horiz-adv-x="565" 
d="M63 270q0 83 20 138t51.5 87.5t71 46t77.5 13.5t77 -13t70.5 -45.5t51.5 -87.5t20 -139t-20 -138t-51.5 -85.5t-70.5 -44t-77 -12.5t-77.5 12.5t-71 44.5t-51.5 86t-20 137zM147 270q0 -114 37.5 -166.5t99.5 -52.5q63 0 99 51.5t36 167.5q0 115 -38 169.5t-98 54.5
q-59 0 -97.5 -55t-38.5 -169z" />
    <glyph glyph-name="afii10081" unicode="&#x43f;" horiz-adv-x="562" 
d="M482 0h-80v474h-242v-474h-80v540h402v-540z" />
    <glyph glyph-name="afii10082" unicode="&#x440;" horiz-adv-x="518" 
d="M80 -170v710h75l2 -46q23 29 55 45t74 16q34 0 64.5 -15t53.5 -48.5t37 -86.5t14 -129q0 -140 -47.5 -213t-141.5 -73q-35 0 -61 12.5t-45 32.5v-205h-80zM260 489q-30 0 -55 -15.5t-45 -38.5v-346q17 -17 39 -29t51 -12q28 0 50.5 12.5t38 40.5t24 72.5t8.5 107.5
q0 60 -8 100t-22 64t-35 34t-46 10z" />
    <glyph glyph-name="afii10083" unicode="&#x441;" horiz-adv-x="509" 
d="M277 490q-27 0 -51 -12t-41.5 -38.5t-27.5 -68.5t-10 -103t10.5 -102t27.5 -66t40 -35.5t49 -10.5q25 0 45 8.5t34 23t22.5 33t12.5 39.5l81 -10q-7 -29 -22 -57t-39.5 -50.5t-58.5 -36.5t-77 -14q-35 0 -72 12.5t-67.5 44t-50 86t-19.5 138.5q0 77 18.5 131t48.5 88
t68 49.5t77 15.5q45 0 78 -14t56.5 -36t37 -49.5t19.5 -54.5l-80 -12q-10 45 -34 73t-75 28z" />
    <glyph glyph-name="afii10084" unicode="&#x442;" horiz-adv-x="436" 
d="M411 473h-154v-473h-79v473h-153v67h386v-67z" />
    <glyph glyph-name="afii10085" unicode="&#x443;" horiz-adv-x="458" 
d="M292 -14q-11 -37 -22 -65t-26.5 -46.5t-38.5 -28t-59 -9.5q-29 0 -65 9v63q17 -4 32 -6t31 -2q36 0 50 24t26 75h-38l-172 540h85l144 -487l133 487h76z" />
    <glyph glyph-name="afii10086" unicode="&#x444;" horiz-adv-x="776" 
d="M350 -170v216q-48 -56 -123 -56q-34 0 -63.5 15.5t-52 49t-35.5 87t-13 129.5t13 130t35.5 88t52 50t63.5 16q75 0 123 -57v172h76v-172q46 57 123 57q34 0 63.5 -16t52 -50t35.5 -88t13 -130t-13 -129.5t-35.5 -87t-52 -49t-63.5 -15.5q-76 0 -123 56v-216h-76zM147 271
q0 -60 6.5 -101t19.5 -66.5t32 -36.5t45 -11q30 0 55 15.5t45 38.5v325q-20 23 -45 38.5t-55 15.5q-51 0 -77 -50t-26 -168zM629 271q0 118 -26 168t-77 50q-30 0 -55 -15.5t-45 -38.5v-325q20 -23 45 -38.5t55 -15.5q25 0 44.5 11t32.5 36.5t19.5 66.5t6.5 101z" />
    <glyph glyph-name="afii10087" unicode="&#x445;" horiz-adv-x="500" 
d="M290 289l190 -289h-98l-139 222l-138 -222h-85l181 284l-168 256h96l119 -191l117 191h82z" />
    <glyph glyph-name="afii10088" unicode="&#x446;" horiz-adv-x="557" 
d="M430 0h-350v540h80v-474h232v474h80v-474h40v-181h-61z" />
    <glyph glyph-name="afii10089" unicode="&#x447;" horiz-adv-x="532" 
d="M152 540v-233q0 -53 20 -77.5t79 -24.5q25 0 58 3.5t63 11.5v320h80v-540h-80v163q-29 -11 -65 -17t-68 -6q-38 0 -68.5 8.5t-52.5 28t-34 51.5t-12 80v232h80z" />
    <glyph glyph-name="afii10090" unicode="&#x448;" horiz-adv-x="770" 
d="M690 0h-610v540h79v-474h187v474h78v-474h187v474h79v-540z" />
    <glyph glyph-name="afii10091" unicode="&#x449;" horiz-adv-x="775" 
d="M648 0h-568v540h79v-474h187v474h78v-474h187v474h79v-474h40v-181h-61z" />
    <glyph glyph-name="afii10092" unicode="&#x44a;" horiz-adv-x="531" 
d="M20 540h160v-199h92q59 0 100.5 -13.5t68 -36.5t38.5 -54.5t12 -68.5q0 -43 -17 -74.5t-48 -52.5t-74 -31t-95 -10h-157v477h-80v63zM180 277v-213h91q60 0 97.5 24.5t37.5 78.5q0 25 -6.5 45t-21.5 34.5t-40 22.5t-62 8h-96z" />
    <glyph glyph-name="afii10093" unicode="&#x44b;" horiz-adv-x="723" 
d="M643 540v-540h-78v540h78zM160 540v-199h92q59 0 100.5 -13.5t68 -36.5t38.5 -54.5t12 -68.5q0 -43 -17 -74.5t-48 -52.5t-74 -31t-95 -10h-157v540h80zM160 277v-213h91q60 0 97.5 24.5t37.5 78.5q0 25 -6.5 45t-21.5 34.5t-40 22.5t-62 8h-96z" />
    <glyph glyph-name="afii10094" unicode="&#x44c;" horiz-adv-x="511" 
d="M160 540v-199h92q59 0 100.5 -13.5t68 -36.5t38.5 -54.5t12 -68.5q0 -43 -17 -74.5t-48 -52.5t-74 -31t-95 -10h-157v540h80zM160 277v-213h91q60 0 97.5 24.5t37.5 78.5q0 25 -6.5 45t-21.5 34.5t-40 22.5t-62 8h-96z" />
    <glyph glyph-name="afii10095" unicode="&#x44d;" horiz-adv-x="508" 
d="M151 243v63h211q-5 100 -37 142t-87 42q-42 0 -69.5 -18t-43.5 -63l-80 12q9 28 27 52.5t43 42.5t56.5 28.5t68.5 10.5q40 0 77.5 -15.5t65.5 -49.5t45 -88t17 -131q0 -83 -20 -137t-51 -86t-68.5 -45t-72.5 -13q-42 0 -74 10.5t-55.5 29.5t-39 44t-24.5 54l83 10
q8 -32 33.5 -58t74.5 -26q24 0 46.5 10t40.5 32.5t30 58.5t14 88h-211z" />
    <glyph glyph-name="afii10096" unicode="&#x44e;" horiz-adv-x="747" 
d="M160 540v-236h86q4 72 25 120.5t52 77.5t68.5 41t73.5 12q38 0 77 -13t70.5 -45.5t51.5 -87.5t20 -139t-20 -138t-51.5 -85.5t-70.5 -44t-77 -12.5q-36 0 -73.5 11.5t-68.5 39.5t-52 76t-25 122h-86v-239h-80v540h80zM329 270q0 -114 37.5 -166.5t99.5 -52.5
q63 0 99 51.5t36 167.5q0 115 -38 169.5t-98 54.5q-59 0 -97.5 -55t-38.5 -169z" />
    <glyph glyph-name="afii10097" unicode="&#x44f;" horiz-adv-x="493" 
d="M10 0l142 215q-48 17 -79.5 55t-31.5 99q0 48 17 81t45.5 53t64.5 28.5t74 8.5h171v-540h-80v201h-97l-130 -201h-96zM126 369q0 -26 9.5 -45.5t25 -32.5t35.5 -20t41 -7h96v214h-90q-21 0 -42 -5t-37.5 -18t-27 -34t-10.5 -52z" />
    <glyph glyph-name="afii10071" unicode="&#x451;" horiz-adv-x="534" 
d="M126 635v90h95v-90h-95zM331 635v90h95v-90h-95zM282 54q25 0 44.5 7.5t33.5 19.5t23.5 27t14.5 30l70 -15q-9 -26 -25.5 -50t-40 -42.5t-55 -29.5t-70.5 -11q-38 0 -76 13.5t-69 45.5t-50 86t-19 135q0 82 18.5 136.5t48 87.5t66.5 47t75 14q103 0 155.5 -71t52.5 -227
h-334q1 -63 13 -102.5t31 -62t43 -30.5t50 -8zM276 495q-52 0 -87 -41.5t-43 -135.5h252q-2 87 -33.5 132t-88.5 45z" />
    <glyph glyph-name="afii10099" unicode="&#x452;" horiz-adv-x="553" 
d="M85 0v613h-54v62h54v60h75v-60h205v-62h-205v-143q32 45 73.5 65t79.5 20q79 0 119.5 -49.5t40.5 -155.5v-374q0 -62 -31 -100.5t-99 -38.5q-16 0 -36.5 3t-37.5 8v63q13 -3 29.5 -5.5t28.5 -2.5q35 0 50.5 17t15.5 66v368q0 73 -24.5 104.5t-78.5 31.5q-38 0 -71 -24
t-59 -56v-410h-75z" />
    <glyph glyph-name="afii10100" unicode="&#x453;" horiz-adv-x="423" 
d="M80 0v540h318v-67h-238v-473h-80zM283 735h113l-140 -137h-70z" />
    <glyph glyph-name="afii10101" unicode="&#x454;" horiz-adv-x="506" 
d="M147 243q2 -54 13.5 -90t29.5 -58t40.5 -31.5t46.5 -9.5q49 0 74.5 26t33.5 58l81 -10q-9 -29 -24 -54t-37.5 -44t-54.5 -29.5t-75 -10.5q-35 0 -72.5 12.5t-68.5 44t-51 86t-20 138.5q0 77 18.5 131t48.5 88t68 49.5t77 15.5q40 0 71.5 -10.5t55 -28.5t38.5 -42.5
t23 -52.5l-80 -12q-13 45 -38.5 63t-67.5 18q-25 0 -47 -10t-39.5 -32t-28.5 -57t-14 -85h209v-63h-210z" />
    <glyph glyph-name="afii10102" unicode="&#x455;" horiz-adv-x="457" 
d="M223 -10q-70 0 -118.5 31t-69.5 82l75 22q14 -32 44.5 -50.5t70.5 -18.5t70 22.5t30 67.5q0 26 -12 44t-31.5 30t-44 20.5t-49.5 16.5q-72 22 -103.5 57.5t-31.5 89.5q0 37 14 65t38 47t55 29t65 10q36 0 64.5 -9t50 -25t36.5 -36.5t23 -43.5l-72 -22q-9 31 -33.5 52.5
t-69.5 21.5q-18 0 -34 -5t-29 -14.5t-20.5 -24.5t-7.5 -36t8 -35.5t24 -25t41 -19t58 -18.5q66 -20 104 -57.5t38 -103.5q0 -37 -13 -67t-37 -51.5t-58 -33.5t-75 -12z" />
    <glyph glyph-name="afii10103" unicode="&#x456;" horiz-adv-x="240" 
d="M80 0v540h80v-540h-80zM75 638v97h92v-97h-92z" />
    <glyph glyph-name="afii10104" unicode="&#x457;" horiz-adv-x="240" 
d="M80 0v540h80v-540h-80zM-29 635v90h95v-90h-95zM176 635v90h95v-90h-95z" />
    <glyph glyph-name="afii10105" unicode="&#x458;" horiz-adv-x="240" 
d="M-44 -89q13 -3 29.5 -5.5t28.5 -2.5q35 0 50.5 17t15.5 66v554h80v-564q0 -62 -31 -100.5t-99 -38.5q-16 0 -36.5 3t-37.5 8v63zM75 638v97h92v-97h-92z" />
    <glyph glyph-name="afii10106" unicode="&#x459;" horiz-adv-x="817" 
d="M461 335h97q59 0 100.5 -13.5t68 -36.5t38.5 -54.5t12 -68.5q0 -44 -17 -74.5t-48 -50t-74 -28.5t-95 -9h-162v474h-145l-50 -308q-7 -44 -19 -75.5t-31.5 -51.5t-49 -29.5t-71.5 -9.5v65q45 1 64 22t27 73l62 380h293v-205zM461 271v-207h96q28 0 52.5 5t43 16t29 30
t10.5 47q0 25 -6.5 45t-21.5 34t-40 22t-62 8h-101z" />
    <glyph glyph-name="afii10107" unicode="&#x45a;" horiz-adv-x="845" 
d="M482 540v-205h104q59 0 100.5 -13.5t68 -36.5t38.5 -54.5t12 -68.5q0 -44 -17 -74.5t-48 -50t-74 -28.5t-95 -9h-169v239h-242v-239h-80v540h80v-236h242v236h80zM482 271v-207h103q28 0 52.5 5t43 16t29 30t10.5 47q0 25 -6.5 45t-21.5 34t-40 22t-62 8h-108z" />
    <glyph glyph-name="afii10108" unicode="&#x45b;" horiz-adv-x="553" 
d="M85 0v613h-54v62h54v60h80v-60h200v-62h-200v-136q32 42 71.5 60t76.5 18q79 0 119.5 -49.5t40.5 -155.5v-350h-80v354q0 73 -24.5 104.5t-78.5 31.5q-37 0 -68.5 -22t-56.5 -52v-416h-80z" />
    <glyph glyph-name="afii10109" unicode="&#x45c;" horiz-adv-x="493" 
d="M80 0v540h80v-238l197 238h98l-217 -252l245 -288h-103l-220 259v-259h-80zM306 735h113l-140 -137h-70z" />
    <glyph glyph-name="afii10110" unicode="&#x45e;" horiz-adv-x="458" 
d="M228 614q-26 0 -50.5 5.5t-45.5 19t-36.5 37t-22.5 59.5h83q10 -63 72 -63t72 63h83q-7 -36 -22.5 -59.5t-36.5 -37t-46 -19t-50 -5.5zM292 -14q-11 -37 -22 -65t-26.5 -46.5t-38.5 -28t-59 -9.5q-29 0 -65 9v63q17 -4 32 -6t31 -2q36 0 50 24t26 75h-38l-172 540h85
l144 -487l133 487h76z" />
    <glyph glyph-name="afii10193" unicode="&#x45f;" horiz-adv-x="562" 
d="M80 0v540h80v-474h242v474h80v-540h-160l-11 -115h-60l-11 115h-160z" />
    <glyph glyph-name="afii10146" unicode="&#x462;" horiz-adv-x="554" 
d="M175 564v-140h96q44 0 86.5 -11.5t76.5 -37t54.5 -66t20.5 -98.5t-21.5 -98t-57 -65t-81.5 -36.5t-94 -11.5h-165v564h-65v61h65v95h85v-95h188v-61h-188zM175 360v-295h95q69 0 109.5 34t40.5 112q0 69 -36.5 109t-108.5 40h-100z" />
    <glyph glyph-name="afii10194" unicode="&#x463;" horiz-adv-x="528" 
d="M85 540v195h80v-195h200v-62h-200v-143h104q59 0 100.5 -13.5t68 -36.5t38.5 -54.5t12 -68.5q0 -44 -17 -74.5t-48 -50t-74 -28.5t-95 -9h-169v478h-54v62h54zM165 271v-207h103q28 0 52.5 5t43 16t29 30t10.5 47q0 25 -6.5 45t-21.5 34t-40 22t-62 8h-108z" />
    <glyph glyph-name="afii10147" unicode="&#x472;" horiz-adv-x="668" 
d="M70 360q0 105 22.5 176.5t59.5 115.5t84.5 63.5t97.5 19.5t97.5 -19.5t84.5 -63.5t59.5 -115.5t22.5 -176.5t-22.5 -176.5t-60 -115.5t-85 -63.5t-96.5 -19.5q-50 0 -97 19.5t-84.5 63.5t-60 115.5t-22.5 176.5zM334 50q81 0 126 71t50 209h-353q5 -139 50.5 -209.5
t126.5 -70.5zM334 670q-81 0 -126.5 -69.5t-50.5 -206.5h353q-5 136 -50 206t-126 70z" />
    <glyph glyph-name="afii10195" unicode="&#x473;" horiz-adv-x="575" 
d="M63 270q0 83 21 138t53.5 87.5t72.5 46t78 13.5t78 -13t72.5 -45.5t53 -87.5t20.5 -139t-20.5 -138t-53 -85.5t-72.5 -44t-78 -12.5t-78 12.5t-72.5 44.5t-53.5 86t-21 137zM288 494q-56 0 -95 -47t-45 -145h280q-6 98 -45.5 145t-94.5 47zM289 51q58 0 96 44.5t43 144.5
h-280q5 -98 43.5 -143.5t97.5 -45.5z" />
    <glyph glyph-name="afii10148" unicode="&#x474;" horiz-adv-x="577" 
d="M381 545q19 79 42 120.5t51 54.5h103q-28 -11 -47.5 -31t-33 -45.5t-22.5 -54.5t-16 -57l-137 -532h-114l-197 720h90l165 -659z" />
    <glyph glyph-name="afii10196" unicode="&#x475;" horiz-adv-x="502" 
d="M328 395q17 63 33 97.5t42 47.5h99q-23 -10 -39 -26.5t-27 -37.5t-18.5 -45t-14.5 -49l-112 -382h-119l-162 540h90l133 -486z" />
    <glyph glyph-name="afii10050" unicode="&#x490;" horiz-adv-x="477" 
d="M452 646h-277v-646h-85v720h284v108h78v-182z" />
    <glyph glyph-name="afii10098" unicode="&#x491;" horiz-adv-x="423" 
d="M398 473h-238v-473h-80v540h248v120h70v-187z" />
    <glyph glyph-name="uni0492" unicode="&#x492;" horiz-adv-x="487" 
d="M462 646h-277v-243h178v-65h-178v-338h-85v338h-70v65h70v317h362v-74z" />
    <glyph glyph-name="uni0493" unicode="&#x493;" horiz-adv-x="433" 
d="M408 473h-238v-185h152v-65h-152v-223h-80v223h-65v65h65v252h318v-67z" />
    <glyph glyph-name="uni0496" unicode="&#x496;" horiz-adv-x="740" 
d="M407 720v-317l188 317h93l-217 -343l203 -308h46v-204h-66l-19 135h-12l-216 338v-338h-79v338l-216 -338h-97l249 377l-217 343h93l188 -317v317h79z" />
    <glyph glyph-name="uni0497" unicode="&#x497;" horiz-adv-x="667" 
d="M624 540l-185 -253l164 -221h49v-181h-61l-21 115h-12l-189 258v-258h-75v259l-190 -259h-94l213 287l-185 253h91l165 -236v236h75v-235l164 235h91z" />
    <glyph glyph-name="uni0498" unicode="&#x498;" horiz-adv-x="541" 
d="M391 -146q0 -45 -33 -72t-84 -27q-29 0 -56 7t-46 18l30 47q11 -5 27.5 -9t31.5 -4q23 0 41 8.5t18 35.5q0 24 -25.5 34.5t-62.5 15.5l14 78q-80 8 -127 55.5t-64 115.5l85 12q3 -19 11.5 -39.5t24 -37.5t39 -28t56.5 -11q24 0 47.5 7.5t42 24.5t30 44.5t11.5 67.5
q0 43 -9.5 72t-26 47t-40 26t-51.5 8h-57v71h55q106 0 106 127q0 33 -9 56.5t-24.5 38t-35.5 21t-42 6.5q-32 0 -54 -10.5t-36.5 -27t-22.5 -37t-12 -39.5l-80 13q8 41 27.5 72t47.5 52t62.5 31.5t71.5 10.5t72 -11t62 -34t43.5 -57.5t16.5 -80.5q0 -69 -32.5 -111.5
t-86.5 -51.5q30 -3 56 -16.5t45.5 -37.5t31 -58t11.5 -77q0 -48 -13.5 -85t-37.5 -63.5t-57 -42.5t-71 -21l-3 -43q42 -9 62 -34t20 -57z" />
    <glyph glyph-name="uni0499" unicode="&#x499;" horiz-adv-x="482" 
d="M231 53q55 0 87 26t32 77q0 39 -28 67t-76 28h-59v64h57q38 0 65.5 23.5t27.5 65.5q0 46 -30.5 68.5t-78.5 22.5t-76.5 -28t-35.5 -65l-75 13q10 37 30 63.5t46.5 43.5t57 25t62.5 8q40 0 74 -11.5t59 -31t38.5 -45.5t13.5 -55q0 -43 -28.5 -79t-79.5 -46q23 -2 45 -11
t39.5 -26t28 -42t10.5 -59q0 -36 -14 -63.5t-37 -47t-53 -31t-63 -15.5l-3 -43q42 -9 62 -34t20 -57q0 -45 -33 -72t-84 -27q-29 0 -56 7t-46 18l30 45q11 -5 27.5 -9t31.5 -4q23 0 41 9.5t18 36.5q0 24 -25.5 34.5t-62.5 15.5l15 80q-69 8 -111.5 45t-53.5 92l77 13
q3 -17 11.5 -33t22.5 -28.5t34 -20t46 -7.5z" />
    <glyph glyph-name="uni049A" unicode="&#x49a;" horiz-adv-x="548" 
d="M496 720l-251 -343l231 -308h52v-204h-61l-22 135h-21l-249 335v-335h-85v720h85v-314l226 314h95z" />
    <glyph glyph-name="uni049B" unicode="&#x49b;" horiz-adv-x="508" 
d="M455 540l-217 -252l189 -222h66v-181h-61l-21 115h-31l-220 259v-259h-80v540h80v-238l197 238h98z" />
    <glyph glyph-name="uni049C" unicode="&#x49c;" horiz-adv-x="583" 
d="M466 0l-195 334v-190h-60v191h-36v-335h-85v720h85v-316h36v193h60v-189l172 312h93l-200 -345l232 -375h-102z" />
    <glyph glyph-name="uni049D" unicode="&#x49d;" horiz-adv-x="491" 
d="M80 0v540h80v-221h27v135h51v-135l120 221h95l-144 -252l172 -288h-98l-145 246v-145h-51v149h-27v-250h-80z" />
    <glyph glyph-name="uni04A0" unicode="&#x4a0;" horiz-adv-x="553" 
d="M20 720h165v-314l226 314h95l-251 -343l283 -377h-104l-249 335v-335h-85v651h-80v69z" />
    <glyph glyph-name="uni04A1" unicode="&#x4a1;" horiz-adv-x="563" 
d="M80 540h150v-238l197 238h98l-217 -252l245 -288h-103l-220 259v-259h-80v477h-70v63z" />
    <glyph glyph-name="uni04A2" unicode="&#x4a2;" horiz-adv-x="625" 
d="M530 720v-651h45v-204h-66l-19 135h-45v330h-270v-330h-85v720h85v-322h270v322h85z" />
    <glyph glyph-name="uni04A3" unicode="&#x4a3;" horiz-adv-x="567" 
d="M482 540v-474h40v-181h-61l-21 115h-38v239h-242v-239h-80v540h80v-236h242v236h80z" />
    <glyph glyph-name="uni04AA" unicode="&#x4aa;" horiz-adv-x="582" 
d="M467 -212q-26 -14 -50.5 -20t-53.5 -6q-21 0 -41 6.5t-36.5 19.5t-26.5 33.5t-10 49.5q0 34 19 63.5t47 50.5q-40 0 -83 15.5t-79 57.5t-59.5 115t-23.5 187q0 112 23 185t59 115t80.5 58.5t87.5 16.5q47 0 82.5 -14.5t60.5 -37.5t41 -52t24 -57l-82 -11
q-15 48 -44.5 76.5t-81.5 28.5q-34 0 -63.5 -14.5t-51.5 -50t-34.5 -94.5t-12.5 -149q0 -89 13 -148t34.5 -94t50.5 -50t62 -15q54 0 86.5 29t49.5 83l83 -8q-18 -57 -49 -96.5t-80 -59.5q-33 -20 -58 -49.5t-25 -71.5q0 -22 15.5 -38t42.5 -16q11 0 27 3t36 11z" />
    <glyph glyph-name="uni04AB" unicode="&#x4ab;" horiz-adv-x="509" 
d="M412 -212q-26 -14 -50.5 -20t-53.5 -6q-21 0 -40.5 6.5t-35.5 19.5t-25.5 33.5t-9.5 49.5q0 36 23 67t56 52h-4q-35 0 -72 12.5t-67.5 44t-50 86t-19.5 138.5q0 77 18.5 131t48.5 88t68 49.5t77 15.5q45 0 78 -14t56.5 -36t37 -49.5t19.5 -54.5l-80 -12q-10 45 -34 73
t-75 28q-27 0 -51 -12t-41.5 -38.5t-27.5 -68.5t-10 -103t10.5 -102t27.5 -66t40 -35.5t49 -10.5q25 0 45 8.5t34 23t22.5 33t12.5 39.5l81 -10q-11 -42 -38 -81t-75 -60q-34 -20 -58.5 -51t-24.5 -76q0 -22 14 -38t41 -16q11 0 27 3t36 11z" />
    <glyph glyph-name="uni04AE" unicode="&#x4ae;" horiz-adv-x="512" 
d="M502 720l-202 -432v-288h-84v288l-206 432h93l157 -344l159 344h83z" />
    <glyph glyph-name="uni04AF" unicode="&#x4af;" horiz-adv-x="465" 
d="M192 -170v184l-182 526h86l138 -435l140 435h81l-183 -526v-184h-80z" />
    <glyph glyph-name="uni04B0" unicode="&#x4b0;" horiz-adv-x="522" 
d="M507 720l-201 -429h134v-65h-135v-226h-84v226h-136v65h134l-204 429h93l157 -344l159 344h83z" />
    <glyph glyph-name="uni04B1" unicode="&#x4b1;" horiz-adv-x="465" 
d="M455 540l-172 -493h119v-63h-130v-154h-80v154h-128v63h116l-170 493h86l138 -435l140 435h81z" />
    <glyph glyph-name="uni04B2" unicode="&#x4b2;" horiz-adv-x="555" 
d="M320 375l159 -306h36v-204h-66l-19 135h-12l-144 292l-152 -292h-87l197 372l-179 348h95l133 -268l139 268h88z" />
    <glyph glyph-name="uni04B3" unicode="&#x4b3;" horiz-adv-x="505" 
d="M290 289l144 -220h46v-184h-63l-18 115h-17l-139 222l-138 -222h-85l181 284l-168 256h96l119 -191l117 191h82z" />
    <glyph glyph-name="uni04B8" unicode="&#x4b8;" horiz-adv-x="590" 
d="M326 323q22 2 45.5 4.5t43.5 5.5v387h85v-720h-85v267q-19 -3 -41.5 -6.5t-47.5 -5.5v-121h-60v119q-36 0 -69 9t-58.5 31.5t-41 61.5t-15.5 99v266h85v-265q0 -65 21.5 -95t77.5 -36v283h60v-284z" />
    <glyph glyph-name="uni04B9" unicode="&#x4b9;" horiz-adv-x="532" 
d="M286 206q20 2 42.5 5.5t43.5 8.5v320h80v-540h-80v163q-20 -7 -41.5 -12t-44.5 -8v-92h-50v89q-38 0 -68 9t-51.5 28.5t-33 51.5t-11.5 79v232h80v-233q0 -50 17 -74.5t67 -27.5v279h50v-278z" />
    <glyph glyph-name="uni04BA" unicode="&#x4ba;" horiz-adv-x="593" 
d="M90 0v720h85v-248q28 5 65.5 10t79.5 5q36 0 70 -8.5t60 -31t42 -61.5t16 -100v-286h-85v285q0 37 -7 62.5t-22.5 41t-41.5 22t-65 6.5q-25 0 -56 -3t-56 -7v-407h-85z" />
    <glyph glyph-name="uni04BB" unicode="&#x4bb;" horiz-adv-x="548" 
d="M80 0v735h80v-258q32 42 71.5 60t76.5 18q79 0 119.5 -49.5t40.5 -155.5v-350h-80v354q0 73 -24.5 104.5t-78.5 31.5q-37 0 -68.5 -22t-56.5 -52v-416h-80z" />
    <glyph glyph-name="uni04C0" unicode="&#x4c0;" horiz-adv-x="265" 
d="M175 720v-720h-85v720h85z" />
    <glyph glyph-name="uni04CB" unicode="&#x4cb;" horiz-adv-x="598" 
d="M503 720v-651h45v-204h-66l-19 135h-45v267q-28 -5 -65.5 -9.5t-79.5 -4.5q-36 0 -70 8.5t-60 31t-42 61.5t-16 100v266h85v-265q0 -38 7 -63t22.5 -40.5t41.5 -22t65 -6.5q25 0 55.5 3t56.5 7v387h85z" />
    <glyph glyph-name="uni04CC" unicode="&#x4cc;" horiz-adv-x="545" 
d="M460 540v-474h40v-181h-61l-21 115h-38v163q-29 -11 -65 -17t-68 -6q-38 0 -68.5 8.5t-52.5 28t-34 51.5t-12 80v232h80v-233q0 -53 20 -77.5t79 -24.5q25 0 58 3.5t63 11.5v320h80z" />
    <glyph glyph-name="uni04CF" unicode="&#x4cf;" horiz-adv-x="265" 
d="M175 720v-720h-85v720h85z" />
    <glyph glyph-name="uni04D8" unicode="&#x4d8;" horiz-adv-x="656" 
d="M316 671q-39 0 -66 -12t-45 -30t-28.5 -38.5t-16.5 -38.5l-78 12q10 30 29 60.5t48 55t69 40t93 15.5q67 0 117 -27.5t83 -76t49 -116.5t16 -149q0 -82 -15.5 -151.5t-47 -120.5t-80 -80t-115.5 -29q-77 0 -126.5 33t-79 88t-41 127t-11.5 149h429q-1 64 -11 117t-32 91
t-56.5 59.5t-83.5 21.5zM323 51q49 0 82 21.5t53 58.5t29 85t11 101h-344q0 -44 8.5 -91t28 -86t52 -64t80.5 -25z" />
    <glyph glyph-name="afii10846" unicode="&#x4d9;" horiz-adv-x="534" 
d="M252 493q-25 0 -44.5 -8t-34.5 -20.5t-24 -27.5t-13 -30l-70 15q9 26 25.5 50t40 42.5t55 29.5t70.5 11q38 0 76 -13.5t69 -45.5t50 -86t19 -135q0 -82 -18.5 -136.5t-48 -87.5t-67 -47t-74.5 -14q-103 0 -155.5 71t-52.5 227h334q-2 63 -13.5 102.5t-30.5 62.5t-43 31.5
t-50 8.5zM258 53q52 0 87 40.5t42 133.5h-251q5 -174 122 -174z" />
    <glyph glyph-name="uni04E2" unicode="&#x4e2;" horiz-adv-x="645" 
d="M175 720v-519l294 462v57h86v-720h-85v523l-294 -466v-57h-86v720h85zM210 796v69h270v-69h-270z" />
    <glyph glyph-name="uni04E3" unicode="&#x4e3;" horiz-adv-x="553" 
d="M157 540v-385l238 350v35h78v-540h-78v378l-238 -343v-35h-77v540h77zM152 646v69h270v-69h-270z" />
    <glyph glyph-name="uni04E8" unicode="&#x4e8;" horiz-adv-x="668" 
d="M70 360q0 105 22.5 176.5t59.5 115.5t84.5 63.5t97.5 19.5t97.5 -19.5t84.5 -63.5t59.5 -115.5t22.5 -176.5t-22.5 -176.5t-60 -115.5t-85 -63.5t-96.5 -19.5q-50 0 -97 19.5t-84.5 63.5t-60 115.5t-22.5 176.5zM334 50q81 0 126 71t50 209h-353q5 -139 50.5 -209.5
t126.5 -70.5zM334 670q-81 0 -126.5 -69.5t-50.5 -206.5h353q-5 136 -50 206t-126 70z" />
    <glyph glyph-name="uni04E9" unicode="&#x4e9;" horiz-adv-x="575" 
d="M63 270q0 83 21 138t53.5 87.5t72.5 46t78 13.5t78 -13t72.5 -45.5t53 -87.5t20.5 -139t-20.5 -138t-53 -85.5t-72.5 -44t-78 -12.5t-78 12.5t-72.5 44.5t-53.5 86t-21 137zM288 494q-56 0 -95 -47t-45 -145h280q-6 98 -45.5 145t-94.5 47zM289 51q58 0 96 44.5t43 144.5
h-280q5 -98 43.5 -143.5t97.5 -45.5z" />
    <glyph glyph-name="uni04EE" unicode="&#x4ee;" horiz-adv-x="484" 
d="M310 146q-11 -38 -23 -67.5t-30 -50.5t-43.5 -32t-64.5 -11q-29 0 -65 9v67q17 -4 32 -6t31 -2q37 0 55 27.5t31 79.5h-41l-182 560h89l152 -508l142 508h81zM119 796v69h270v-69h-270z" />
    <glyph glyph-name="uni04EF" unicode="&#x4ef;" horiz-adv-x="458" 
d="M97 657v69h270v-69h-270zM292 -14q-11 -37 -22 -65t-26.5 -46.5t-38.5 -28t-59 -9.5q-29 0 -65 9v63q17 -4 32 -6t31 -2q36 0 50 24t26 75h-38l-172 540h85l144 -487l133 487h76z" />
    <glyph glyph-name="uni1E02" unicode="&#x1e02;" horiz-adv-x="559" 
d="M259 720q112 0 169.5 -47.5t57.5 -138.5q0 -57 -30.5 -98t-78.5 -56q27 -6 51 -19.5t42 -35.5t28.5 -53.5t10.5 -72.5q0 -58 -22 -96t-58 -61t-81 -32.5t-91 -9.5h-167v720h169zM175 347v-282h97q30 0 56.5 6.5t47 21.5t32.5 41t12 65q0 34 -7.5 61t-24.5 46.5t-44.5 30
t-66.5 10.5h-102zM175 661v-253h98q69 0 98.5 33t29.5 93q0 64 -36.5 95.5t-97.5 31.5h-92zM217 788v97h92v-97h-92z" />
    <glyph glyph-name="uni1E03" unicode="&#x1e03;" horiz-adv-x="528" 
d="M80 0v735h80v-244q25 30 59 47t79 17q34 0 64 -15t53 -48.5t36.5 -86.5t13.5 -129q0 -140 -52.5 -213t-146.5 -73q-38 0 -65.5 14.5t-46.5 37.5l-9 -42h-65zM265 489q-31 0 -57 -16.5t-48 -39.5v-340q18 -19 40.5 -32t49.5 -13q29 0 53 12.5t41.5 40.5t27 72.5t9.5 107.5
q0 60 -8.5 100t-24 64t-37 34t-46.5 10zM240 639v97h92v-97h-92z" />
    <glyph glyph-name="uni1E0A" unicode="&#x1e0a;" horiz-adv-x="611" 
d="M237 720q53 0 107 -14t98 -53.5t71.5 -110t27.5 -182.5q0 -113 -30.5 -183t-76 -109.5t-99 -53.5t-99.5 -14h-146v720h147zM175 657v-591h66q39 0 77.5 11.5t68.5 43.5t49 89.5t19 149.5t-20 150t-51.5 90.5t-69.5 44.5t-75 12h-64zM223 788v97h92v-97h-92z" />
    <glyph glyph-name="uni1E0B" unicode="&#x1e0b;" horiz-adv-x="563" 
d="M63 271q0 140 54 212t148 72q35 0 61.5 -11.5t46.5 -31.5v223h80v-735h-58l-17 61q-25 -34 -61 -52.5t-84 -18.5q-34 0 -64.5 15.5t-54 49t-37.5 87t-14 129.5zM266 56q31 0 57.5 17t49.5 41v341q-19 17 -42 29t-50 12q-29 0 -53.5 -12t-42.5 -39.5t-28 -71.5t-10 -107
q0 -60 9 -100t25 -64.5t37.5 -35t47.5 -10.5zM201 639v97h92v-97h-92z" />
    <glyph glyph-name="uni1E1E" unicode="&#x1e1e;" horiz-adv-x="470" 
d="M400 312h-225v-312h-85v720h340v-68h-255v-272h225v-68zM218 788v97h92v-97h-92z" />
    <glyph glyph-name="uni1E1F" unicode="&#x1e1f;" horiz-adv-x="299" 
d="M319 667q-19 5 -38 7t-34 2q-33 0 -50 -15t-17 -50v-71h116v-65h-116v-475h-80v475h-80v65h80v65q0 29 7.5 54t23.5 44t40.5 29.5t59.5 10.5q50 0 88 -11v-65zM168 788v97h92v-97h-92z" />
    <glyph glyph-name="uni1E40" unicode="&#x1e40;" horiz-adv-x="747" 
d="M341 0l-170 569v-569h-81v720h111l180 -606l166 606h110v-720h-84v569l-157 -569h-75zM334 781v97h92v-97h-92z" />
    <glyph glyph-name="uni1E41" unicode="&#x1e41;" horiz-adv-x="825" 
d="M80 0v540h58l14 -64q32 43 73.5 61t76.5 18q100 0 132 -86q30 47 73.5 66.5t87.5 19.5q76 0 113 -49.5t37 -155.5v-350h-80v354q0 73 -21 104.5t-72 31.5q-39 0 -70 -22.5t-54 -53.5q2 -14 3 -30.5t1 -33.5v-350h-80v354q0 73 -21 104.5t-72 31.5q-37 0 -66.5 -20.5
t-52.5 -49.5v-420h-80zM374 638v97h92v-97h-92z" />
    <glyph glyph-name="uni1E56" unicode="&#x1e56;" horiz-adv-x="528" 
d="M244 720q53 0 98.5 -13.5t79 -42t52.5 -72t19 -103.5q0 -59 -20 -101.5t-54.5 -70t-80.5 -40.5t-98 -13h-65v-264h-85v720h154zM175 655v-326h67q79 0 121.5 39t42.5 121q0 78 -42.5 122t-117.5 44h-71zM210 788v97h92v-97h-92z" />
    <glyph glyph-name="uni1E57" unicode="&#x1e57;" horiz-adv-x="528" 
d="M80 -170v710h58l14 -55q25 34 61.5 52t84.5 18q34 0 64 -15t53 -48.5t36.5 -86.5t13.5 -129q0 -140 -52.5 -213t-146.5 -73q-69 0 -106 42v-202h-80zM265 489q-31 0 -57 -16.5t-48 -39.5v-344q17 -17 39 -29t51 -12t53 12.5t41.5 40.5t27 72.5t9.5 107.5q0 60 -8.5 100
t-24 64t-37 34t-46.5 10zM225 638v97h92v-97h-92z" />
    <glyph glyph-name="uni1E60" unicode="&#x1e60;" horiz-adv-x="548" 
d="M277 669q-24 0 -46 -6.5t-38.5 -20t-26.5 -34.5t-10 -49q0 -26 7 -45.5t23.5 -35.5t43.5 -30.5t67 -29.5q39 -15 73.5 -33t60.5 -44.5t41.5 -63.5t15.5 -90q0 -41 -15.5 -78t-43.5 -64.5t-67.5 -43.5t-88.5 -16q-52 0 -91.5 15t-67.5 38.5t-45 52t-24 55.5l79 14
q6 -20 16.5 -39t28 -34t43.5 -24.5t62 -9.5q24 0 47 7.5t41 23t29.5 40t11.5 58.5q0 39 -9.5 63.5t-30 43t-53.5 33.5t-79 34q-81 33 -119.5 80.5t-38.5 116.5q0 38 14 71.5t40 58t63.5 38.5t84.5 14q45 0 80 -13t60.5 -34.5t42.5 -48.5t26 -55l-75 -14q-12 39 -45 69
t-87 30zM227 788v97h92v-97h-92z" />
    <glyph glyph-name="uni1E61" unicode="&#x1e61;" horiz-adv-x="457" 
d="M223 -10q-70 0 -118.5 31t-69.5 82l75 22q14 -32 44.5 -50.5t70.5 -18.5t70 22.5t30 67.5q0 26 -12 44t-31.5 30t-44 20.5t-49.5 16.5q-72 22 -103.5 57.5t-31.5 89.5q0 37 14 65t38 47t55 29t65 10q36 0 64.5 -9t50 -25t36.5 -36.5t23 -43.5l-72 -22q-9 31 -33.5 52.5
t-69.5 21.5q-18 0 -34 -5t-29 -14.5t-20.5 -24.5t-7.5 -36t8 -35.5t24 -25t41 -19t58 -18.5q66 -20 104 -57.5t38 -103.5q0 -37 -13 -67t-37 -51.5t-58 -33.5t-75 -12zM177 638v97h92v-97h-92z" />
    <glyph glyph-name="uni1E6A" unicode="&#x1e6a;" horiz-adv-x="475" 
d="M450 646h-171v-646h-85v646h-169v74h425v-74zM189 788v97h92v-97h-92z" />
    <glyph glyph-name="uni1E6B" unicode="&#x1e6b;" horiz-adv-x="329" 
d="M299 5q-18 -5 -35 -8t-40 -3q-66 0 -95 38t-29 101v342h-80v65h81l6 130h73v-130h116v-65h-116v-344q0 -35 13 -52.5t44 -17.5q15 0 29 2t33 7v-65zM97 738v97h92v-97h-92z" />
    <glyph glyph-name="uni1E6C" unicode="&#x1e6c;" horiz-adv-x="475" 
d="M450 646h-171v-646h-85v646h-169v74h425v-74zM188 -170v92h96v-92h-96z" />
    <glyph glyph-name="uni1E6D" unicode="&#x1e6d;" horiz-adv-x="329" 
d="M299 5q-18 -5 -35 -8t-40 -3q-66 0 -95 38t-29 101v342h-80v65h81l6 130h73v-130h116v-65h-116v-344q0 -35 13 -52.5t44 -17.5q15 0 29 2t33 7v-65zM149 -170v92h96v-92h-96z" />
    <glyph glyph-name="Wgrave" unicode="&#x1e80;" horiz-adv-x="759" 
d="M734 720l-120 -720h-102l-127 624l-131 -624h-109l-120 720h87l95 -626l127 626h109l119 -624l94 624h78zM458 768h-72l-142 117h119z" />
    <glyph glyph-name="wgrave" unicode="&#x1e81;" horiz-adv-x="720" 
d="M700 540l-132 -540h-100l-107 450l-106 -450h-103l-132 540h82l104 -455l106 455h103l105 -453l101 453h79zM432 598h-71l-139 137h113z" />
    <glyph glyph-name="Wacute" unicode="&#x1e82;" horiz-adv-x="759" 
d="M734 720l-120 -720h-102l-127 624l-131 -624h-109l-120 720h87l95 -626l127 626h109l119 -624l94 624h78zM418 885h119l-142 -117h-72z" />
    <glyph glyph-name="wacute" unicode="&#x1e83;" horiz-adv-x="720" 
d="M700 540l-132 -540h-100l-107 450l-106 -450h-103l-132 540h82l104 -455l106 455h103l105 -453l101 453h79zM397 735h113l-140 -137h-70z" />
    <glyph glyph-name="Wdieresis" unicode="&#x1e84;" horiz-adv-x="759" 
d="M734 720l-120 -720h-102l-127 624l-131 -624h-109l-120 720h87l95 -626l127 626h109l119 -624l94 624h78zM241 785v90h95v-90h-95zM446 785v90h95v-90h-95z" />
    <glyph glyph-name="wdieresis" unicode="&#x1e85;" horiz-adv-x="720" 
d="M700 540l-132 -540h-100l-107 450l-106 -450h-103l-132 540h82l104 -455l106 455h103l105 -453l101 453h79zM215 635v90h95v-90h-95zM420 635v90h95v-90h-95z" />
    <glyph glyph-name="uni1EA0" unicode="&#x1ea0;" horiz-adv-x="553" 
d="M453 0l-52 187h-254l-53 -187h-84l216 720h102l215 -720h-90zM165 252h218l-107 390zM233 -170v92h96v-92h-96z" />
    <glyph glyph-name="uni1EA1" unicode="&#x1ea1;" horiz-adv-x="506" 
d="M372 0l-18 64q-23 -32 -60.5 -53t-97.5 -21q-25 0 -52.5 7.5t-50.5 25t-38 47t-15 74.5t18 77.5t47.5 55t68 35.5t79.5 19l93 14v37q0 23 -5 44t-16.5 36.5t-30.5 24.5t-47 9q-43 0 -71 -24t-37 -60l-79 14q22 57 70.5 93t121.5 36q84 0 129 -46t45 -137v-372h-54z
M220 54q40 0 71 16t55 42v176l-72 -12q-72 -12 -111.5 -40.5t-39.5 -85.5q0 -51 27 -73.5t70 -22.5zM200 -170v92h96v-92h-96z" />
    <glyph glyph-name="uni1EA2" unicode="&#x1ea2;" horiz-adv-x="553" 
d="M453 0l-52 187h-254l-53 -187h-84l216 720h102l215 -720h-90zM165 252h218l-107 390zM387 870q0 -34 -20.5 -55t-55.5 -32l-3 -22h-56l-3 60q29 4 47 14.5t18 33.5q0 22 -12 29t-24 7q-35 0 -47 -46l-67 14q14 39 42 63t79 24q45 0 73.5 -24t28.5 -66z" />
    <glyph glyph-name="uni1EA3" unicode="&#x1ea3;" horiz-adv-x="506" 
d="M372 0l-18 64q-23 -32 -60.5 -53t-97.5 -21q-25 0 -52.5 7.5t-50.5 25t-38 47t-15 74.5t18 77.5t47.5 55t68 35.5t79.5 19l93 14v37q0 23 -5 44t-16.5 36.5t-30.5 24.5t-47 9q-43 0 -71 -24t-37 -60l-79 14q22 57 70.5 93t121.5 36q84 0 129 -46t45 -137v-372h-54z
M220 54q40 0 71 16t55 42v176l-72 -12q-72 -12 -111.5 -40.5t-39.5 -85.5q0 -51 27 -73.5t70 -22.5zM355 712q0 -34 -20.5 -55t-55.5 -32l-3 -22h-56l-3 60q29 4 47 14.5t18 33.5q0 22 -12 29t-24 7q-35 0 -47 -46l-67 14q14 39 42 63t79 24q45 0 73.5 -24t28.5 -66z" />
    <glyph glyph-name="uni1EA4" unicode="&#x1ea4;" horiz-adv-x="553" 
d="M453 0l-52 187h-254l-53 -187h-84l216 720h102l215 -720h-90zM165 252h218l-107 390zM435 768h-90l-68 51l-68 -51h-90l119 117h78zM500 945h110l-117 -137h-68z" />
    <glyph glyph-name="uni1EA5" unicode="&#x1ea5;" horiz-adv-x="506" 
d="M372 0l-18 64q-23 -32 -60.5 -53t-97.5 -21q-25 0 -52.5 7.5t-50.5 25t-38 47t-15 74.5t18 77.5t47.5 55t68 35.5t79.5 19l93 14v37q0 23 -5 44t-16.5 36.5t-30.5 24.5t-47 9q-43 0 -71 -24t-37 -60l-79 14q22 57 70.5 93t121.5 36q84 0 129 -46t45 -137v-372h-54z
M220 54q40 0 71 16t55 42v176l-72 -12q-72 -12 -111.5 -40.5t-39.5 -85.5q0 -51 27 -73.5t70 -22.5zM406 599h-85l-73 66l-73 -66h-85l122 136h72zM471 776h110l-117 -137h-68z" />
    <glyph glyph-name="uni1EA6" unicode="&#x1ea6;" horiz-adv-x="553" 
d="M453 0l-52 187h-254l-53 -187h-84l216 720h102l215 -720h-90zM165 252h218l-107 390zM435 768h-90l-68 51l-68 -51h-90l119 117h78zM130 808h-68l-117 137h110z" />
    <glyph glyph-name="uni1EA7" unicode="&#x1ea7;" horiz-adv-x="506" 
d="M372 0l-18 64q-23 -32 -60.5 -53t-97.5 -21q-25 0 -52.5 7.5t-50.5 25t-38 47t-15 74.5t18 77.5t47.5 55t68 35.5t79.5 19l93 14v37q0 23 -5 44t-16.5 36.5t-30.5 24.5t-47 9q-43 0 -71 -24t-37 -60l-79 14q22 57 70.5 93t121.5 36q84 0 129 -46t45 -137v-372h-54z
M220 54q40 0 71 16t55 42v176l-72 -12q-72 -12 -111.5 -40.5t-39.5 -85.5q0 -51 27 -73.5t70 -22.5zM407 599h-85l-73 66l-73 -66h-85l122 136h72zM105 638h-68l-117 137h110z" />
    <glyph glyph-name="uni1EA8" unicode="&#x1ea8;" horiz-adv-x="553" 
d="M453 0l-52 187h-254l-53 -187h-84l216 720h102l215 -720h-90zM165 252h218l-107 390zM434 768h-90l-68 51l-68 -51h-90l119 117h78zM611 870q0 -34 -20.5 -55t-55.5 -32l-3 -22h-56l-3 60q29 4 47 14.5t18 33.5q0 22 -12 29t-24 7q-35 0 -47 -46l-67 14q14 39 42 63
t79 24q45 0 73.5 -24t28.5 -66z" />
    <glyph glyph-name="uni1EA9" unicode="&#x1ea9;" horiz-adv-x="506" 
d="M372 0l-18 64q-23 -32 -60.5 -53t-97.5 -21q-25 0 -52.5 7.5t-50.5 25t-38 47t-15 74.5t18 77.5t47.5 55t68 35.5t79.5 19l93 14v37q0 23 -5 44t-16.5 36.5t-30.5 24.5t-47 9q-43 0 -71 -24t-37 -60l-79 14q22 57 70.5 93t121.5 36q84 0 129 -46t45 -137v-372h-54z
M220 54q40 0 71 16t55 42v176l-72 -12q-72 -12 -111.5 -40.5t-39.5 -85.5q0 -51 27 -73.5t70 -22.5zM405 599h-85l-73 66l-73 -66h-85l122 136h72zM597 693q0 -34 -20.5 -55t-55.5 -32l-3 -22h-56l-3 60q29 4 47 14.5t18 33.5q0 22 -12 29t-24 7q-35 0 -47 -46l-67 14
q14 39 42 63t79 24q45 0 73.5 -24t28.5 -66z" />
    <glyph glyph-name="uni1EAA" unicode="&#x1eaa;" horiz-adv-x="553" 
d="M453 0l-52 187h-254l-53 -187h-84l216 690h102l215 -690h-90zM165 252h218l-107 360zM435 723h-90l-68 51l-68 -51h-90l119 117h78zM339 860q-24 0 -39.5 6t-27.5 12.5t-24 12.5t-29 6t-40 -10t-45 -27v67q22 16 45 24.5t44 8.5q24 0 39.5 -6t27.5 -12.5t24 -12.5t29 -6
t38 10t43 27v-67q-22 -16 -43 -24.5t-42 -8.5z" />
    <glyph glyph-name="uni1EAB" unicode="&#x1eab;" horiz-adv-x="506" 
d="M372 0l-18 64q-23 -32 -60.5 -53t-97.5 -21q-25 0 -52.5 7.5t-50.5 25t-38 47t-15 74.5t18 77.5t47.5 55t68 35.5t79.5 19l93 14v37q0 23 -5 44t-16.5 36.5t-30.5 24.5t-47 9q-43 0 -71 -24t-37 -60l-79 14q22 57 70.5 93t121.5 36q84 0 129 -46t45 -137v-372h-54z
M220 54q40 0 71 16t55 42v176l-72 -12q-72 -12 -111.5 -40.5t-39.5 -85.5q0 -51 27 -73.5t70 -22.5zM407 599h-90l-68 51l-68 -51h-90l119 117h78zM310 745q-24 0 -39.5 6t-27.5 12.5t-24 12.5t-29 6t-40 -10t-45 -27v67q22 16 45 24.5t44 8.5q24 0 39.5 -6t27.5 -12.5
t24 -12.5t29 -6t38 10t43 27v-67q-22 -16 -43 -24.5t-42 -8.5z" />
    <glyph glyph-name="uni1EAC" unicode="&#x1eac;" horiz-adv-x="553" 
d="M453 0l-52 187h-254l-53 -187h-84l216 720h102l215 -720h-90zM165 252h218l-107 390zM230 -170v92h96v-92h-96zM436 768h-90l-68 51l-68 -51h-90l119 117h78z" />
    <glyph glyph-name="uni1EAD" unicode="&#x1ead;" horiz-adv-x="506" 
d="M372 0l-18 64q-23 -32 -60.5 -53t-97.5 -21q-25 0 -52.5 7.5t-50.5 25t-38 47t-15 74.5t18 77.5t47.5 55t68 35.5t79.5 19l93 14v37q0 23 -5 44t-16.5 36.5t-30.5 24.5t-47 9q-43 0 -71 -24t-37 -60l-79 14q22 57 70.5 93t121.5 36q84 0 129 -46t45 -137v-372h-54z
M220 54q40 0 71 16t55 42v176l-72 -12q-72 -12 -111.5 -40.5t-39.5 -85.5q0 -51 27 -73.5t70 -22.5zM198 -170v92h96v-92h-96zM404 599h-85l-73 66l-73 -66h-85l122 136h72z" />
    <glyph glyph-name="uni1EAE" unicode="&#x1eae;" horiz-adv-x="553" 
d="M453 0l-52 187h-254l-53 -187h-84l216 690h102l215 -690h-90zM165 252h218l-107 360zM277 717q-26 0 -50.5 5.5t-45.5 18.5t-36.5 34t-22.5 53h83q5 -20 22.5 -37t49.5 -17t49.5 17t22.5 37h83q-7 -32 -22.5 -53t-36.5 -34t-46 -18.5t-50 -5.5zM294 960h110l-107 -122
h-68z" />
    <glyph glyph-name="uni1EAF" unicode="&#x1eaf;" horiz-adv-x="506" 
d="M372 0l-18 64q-23 -32 -60.5 -53t-97.5 -21q-25 0 -52.5 7.5t-50.5 25t-38 47t-15 74.5t18 77.5t47.5 55t68 35.5t79.5 19l93 14v37q0 23 -5 44t-16.5 36.5t-30.5 24.5t-47 9q-43 0 -71 -24t-37 -60l-79 14q22 57 70.5 93t121.5 36q84 0 129 -46t45 -137v-372h-54z
M220 54q40 0 71 16t55 42v176l-72 -12q-72 -12 -111.5 -40.5t-39.5 -85.5q0 -51 27 -73.5t70 -22.5zM250 593q-26 0 -50.5 6.5t-45.5 20.5t-36.5 37.5t-22.5 58.5h83q5 -28 22.5 -44.5t49.5 -16.5t49.5 16.5t22.5 44.5h83q-7 -34 -22.5 -57.5t-36.5 -38t-46 -21t-50 -6.5z
M273 875h110l-117 -137h-68z" />
    <glyph glyph-name="uni1EB0" unicode="&#x1eb0;" horiz-adv-x="553" 
d="M453 0l-52 187h-254l-53 -187h-84l216 690h102l215 -690h-90zM165 252h218l-107 360zM277 717q-26 0 -50.5 5.5t-45.5 18.5t-36.5 34t-22.5 53h83q5 -20 22.5 -37t49.5 -17t49.5 17t22.5 37h83q-7 -32 -22.5 -53t-36.5 -34t-46 -18.5t-50 -5.5zM325 838h-68l-107 122h110
z" />
    <glyph glyph-name="uni1EB1" unicode="&#x1eb1;" horiz-adv-x="506" 
d="M372 0l-18 64q-23 -32 -60.5 -53t-97.5 -21q-25 0 -52.5 7.5t-50.5 25t-38 47t-15 74.5t18 77.5t47.5 55t68 35.5t79.5 19l93 14v37q0 23 -5 44t-16.5 36.5t-30.5 24.5t-47 9q-43 0 -71 -24t-37 -60l-79 14q22 57 70.5 93t121.5 36q84 0 129 -46t45 -137v-372h-54z
M220 54q40 0 71 16t55 42v176l-72 -12q-72 -12 -111.5 -40.5t-39.5 -85.5q0 -51 27 -73.5t70 -22.5zM250 593q-26 0 -50.5 6.5t-45.5 20.5t-36.5 37.5t-22.5 58.5h83q5 -28 22.5 -44.5t49.5 -16.5t49.5 16.5t22.5 44.5h83q-7 -34 -22.5 -57.5t-36.5 -38t-46 -21t-50 -6.5z
M294 738h-68l-117 137h110z" />
    <glyph glyph-name="uni1EB2" unicode="&#x1eb2;" horiz-adv-x="553" 
d="M453 0l-52 187h-254l-53 -187h-84l216 690h102l215 -690h-90zM165 252h218l-107 360zM385 885q0 -32 -21 -47t-55 -23l-3 -22h-56l-3 51q29 3 48 9t19 25q0 14 -11 20.5t-25 6.5t-26.5 -5.5t-22.5 -25.5l-65 18q17 36 48 52t71 16q43 0 72.5 -19.5t29.5 -55.5zM277 707
q-26 0 -50.5 5.5t-45.5 18.5t-36.5 34t-22.5 53h83q5 -20 22.5 -37t49.5 -17t49.5 17t22.5 37h83q-7 -32 -22.5 -53t-36.5 -34t-46 -18.5t-50 -5.5z" />
    <glyph glyph-name="uni1EB3" unicode="&#x1eb3;" horiz-adv-x="506" 
d="M372 0l-18 64q-23 -32 -60.5 -53t-97.5 -21q-25 0 -52.5 7.5t-50.5 25t-38 47t-15 74.5t18 77.5t47.5 55t68 35.5t79.5 19l93 14v37q0 23 -5 44t-16.5 36.5t-30.5 24.5t-47 9q-43 0 -71 -24t-37 -60l-79 14q22 57 70.5 93t121.5 36q84 0 129 -46t45 -137v-372h-54z
M220 54q40 0 71 16t55 42v176l-72 -12q-72 -12 -111.5 -40.5t-39.5 -85.5q0 -51 27 -73.5t70 -22.5zM249 593q-26 0 -50.5 6.5t-45.5 20.5t-36.5 37.5t-22.5 58.5h83q5 -28 22.5 -44.5t49.5 -16.5t49.5 16.5t22.5 44.5h83q-7 -34 -22.5 -57.5t-36.5 -38t-46 -21t-50 -6.5z
M358 852q0 -34 -20.5 -55t-55.5 -32l-3 -22h-56l-3 60q29 4 47 14.5t18 33.5q0 22 -12 29t-24 7q-35 0 -47 -46l-67 14q14 39 42 63t79 24q45 0 73.5 -24t28.5 -66z" />
    <glyph glyph-name="uni1EB4" unicode="&#x1eb4;" horiz-adv-x="553" 
d="M453 0l-52 187h-254l-53 -187h-84l216 690h102l215 -690h-90zM165 252h218l-107 360zM277 717q-26 0 -50.5 5.5t-45.5 18.5t-36.5 34t-22.5 53h83q5 -20 22.5 -37t49.5 -17t49.5 17t22.5 37h83q-7 -32 -22.5 -53t-36.5 -34t-46 -18.5t-50 -5.5zM338 860q-24 0 -39.5 6
t-27.5 12.5t-24 12.5t-29 6t-40 -10t-45 -27v67q22 16 45 24.5t44 8.5q24 0 39.5 -6t27.5 -12.5t24 -12.5t29 -6t38 10t43 27v-67q-22 -16 -43 -24.5t-42 -8.5z" />
    <glyph glyph-name="uni1EB5" unicode="&#x1eb5;" horiz-adv-x="506" 
d="M372 0l-18 64q-23 -32 -60.5 -53t-97.5 -21q-25 0 -52.5 7.5t-50.5 25t-38 47t-15 74.5t18 77.5t47.5 55t68 35.5t79.5 19l93 14v37q0 23 -5 44t-16.5 36.5t-30.5 24.5t-47 9q-43 0 -71 -24t-37 -60l-79 14q22 57 70.5 93t121.5 36q84 0 129 -46t45 -137v-372h-54z
M220 54q40 0 71 16t55 42v176l-72 -12q-72 -12 -111.5 -40.5t-39.5 -85.5q0 -51 27 -73.5t70 -22.5zM247 602q-26 0 -50.5 7t-45.5 23t-36.5 41.5t-22.5 61.5h83q5 -33 22.5 -52t49.5 -19t49.5 19t22.5 52h83q-7 -36 -22.5 -61.5t-36.5 -41.5t-46 -23t-50 -7zM306 775
q-24 0 -39.5 6t-27.5 12.5t-24 12.5t-29 6t-40 -10t-45 -27v67q22 16 45 24.5t44 8.5q24 0 39.5 -6t27.5 -12.5t24 -12.5t29 -6t38 10t43 27v-67q-22 -16 -43 -24.5t-42 -8.5z" />
    <glyph glyph-name="uni1EB6" unicode="&#x1eb6;" horiz-adv-x="553" 
d="M453 0l-52 187h-254l-53 -187h-84l216 720h102l215 -720h-90zM165 252h218l-107 390zM230 -170v92h96v-92h-96zM277 762q-26 0 -50.5 6.5t-45.5 20.5t-36.5 37.5t-22.5 58.5h83q5 -28 22.5 -44.5t49.5 -16.5t49.5 16.5t22.5 44.5h83q-7 -34 -22.5 -57.5t-36.5 -38
t-46 -21t-50 -6.5z" />
    <glyph glyph-name="uni1EB7" unicode="&#x1eb7;" horiz-adv-x="506" 
d="M372 0l-18 64q-23 -32 -60.5 -53t-97.5 -21q-25 0 -52.5 7.5t-50.5 25t-38 47t-15 74.5t18 77.5t47.5 55t68 35.5t79.5 19l93 14v37q0 23 -5 44t-16.5 36.5t-30.5 24.5t-47 9q-43 0 -71 -24t-37 -60l-79 14q22 57 70.5 93t121.5 36q84 0 129 -46t45 -137v-372h-54z
M220 54q40 0 71 16t55 42v176l-72 -12q-72 -12 -111.5 -40.5t-39.5 -85.5q0 -51 27 -73.5t70 -22.5zM202 -170v92h96v-92h-96zM249 602q-26 0 -50.5 7t-45.5 23t-36.5 41.5t-22.5 61.5h83q5 -33 22.5 -52t49.5 -19t49.5 19t22.5 52h83q-7 -36 -22.5 -61.5t-36.5 -41.5
t-46 -23t-50 -7z" />
    <glyph glyph-name="uni1EB8" unicode="&#x1eb8;" horiz-adv-x="500" 
d="M410 333h-235v-265h265v-68h-350v720h350v-68h-265v-253h235v-66zM222 -170v92h96v-92h-96z" />
    <glyph glyph-name="uni1EB9" unicode="&#x1eb9;" horiz-adv-x="534" 
d="M282 54q25 0 44.5 7.5t33.5 19.5t23.5 27t14.5 30l70 -15q-9 -26 -25.5 -50t-40 -42.5t-55 -29.5t-70.5 -11q-38 0 -76 13.5t-69 45.5t-50 86t-19 135q0 82 18.5 136.5t48 87.5t66.5 47t75 14q103 0 155.5 -71t52.5 -227h-334q1 -63 13 -102.5t31 -62t43 -30.5t50 -8z
M276 495q-52 0 -87 -41.5t-43 -135.5h252q-2 87 -33.5 132t-88.5 45zM228 -170v92h96v-92h-96z" />
    <glyph glyph-name="uni1EBA" unicode="&#x1eba;" horiz-adv-x="500" 
d="M410 333h-235v-265h265v-68h-350v720h350v-68h-265v-253h235v-66zM373 870q0 -34 -20.5 -55t-55.5 -32l-3 -22h-56l-3 60q29 4 47 14.5t18 33.5q0 22 -12 29t-24 7q-35 0 -47 -46l-67 14q14 39 42 63t79 24q45 0 73.5 -24t28.5 -66z" />
    <glyph glyph-name="uni1EBB" unicode="&#x1ebb;" horiz-adv-x="534" 
d="M282 54q25 0 44.5 7.5t33.5 19.5t23.5 27t14.5 30l70 -15q-9 -26 -25.5 -50t-40 -42.5t-55 -29.5t-70.5 -11q-38 0 -76 13.5t-69 45.5t-50 86t-19 135q0 82 18.5 136.5t48 87.5t66.5 47t75 14q103 0 155.5 -71t52.5 -227h-334q1 -63 13 -102.5t31 -62t43 -30.5t50 -8z
M276 495q-52 0 -87 -41.5t-43 -135.5h252q-2 87 -33.5 132t-88.5 45zM380 717q0 -34 -20.5 -55t-55.5 -32l-3 -22h-56l-3 60q29 4 47 14.5t18 33.5q0 22 -12 29t-24 7q-35 0 -47 -46l-67 14q14 39 42 63t79 24q45 0 73.5 -24t28.5 -66z" />
    <glyph glyph-name="uni1EBC" unicode="&#x1ebc;" horiz-adv-x="500" 
d="M410 333h-235v-265h265v-68h-350v720h350v-68h-265v-253h235v-66zM326 775q-24 0 -39.5 6t-27.5 12.5t-24 12.5t-29 6t-40 -10t-45 -27v67q22 16 45 24.5t44 8.5q24 0 39.5 -6t27.5 -12.5t24 -12.5t29 -6t38 10t43 27v-67q-22 -16 -43 -24.5t-42 -8.5z" />
    <glyph glyph-name="uni1EBD" unicode="&#x1ebd;" horiz-adv-x="534" 
d="M282 54q25 0 44.5 7.5t33.5 19.5t23.5 27t14.5 30l70 -15q-9 -26 -25.5 -50t-40 -42.5t-55 -29.5t-70.5 -11q-38 0 -76 13.5t-69 45.5t-50 86t-19 135q0 82 18.5 136.5t48 87.5t66.5 47t75 14q103 0 155.5 -71t52.5 -227h-334q1 -63 13 -102.5t31 -62t43 -30.5t50 -8z
M276 495q-52 0 -87 -41.5t-43 -135.5h252q-2 87 -33.5 132t-88.5 45zM331 625q-24 0 -39.5 6t-27.5 12.5t-24 12.5t-29 6t-40 -10t-45 -27v67q22 16 45 24.5t44 8.5q24 0 39.5 -6t27.5 -12.5t24 -12.5t29 -6t38 10t43 27v-67q-22 -16 -43 -24.5t-42 -8.5z" />
    <glyph glyph-name="uni1EBE" unicode="&#x1ebe;" horiz-adv-x="500" 
d="M410 333h-235v-265h265v-68h-350v720h350v-68h-265v-253h235v-66zM413 768h-90l-68 51l-68 -51h-90l119 117h78zM478 945h110l-117 -137h-68z" />
    <glyph glyph-name="uni1EBF" unicode="&#x1ebf;" horiz-adv-x="534" 
d="M282 54q25 0 44.5 7.5t33.5 19.5t23.5 27t14.5 30l70 -15q-9 -26 -25.5 -50t-40 -42.5t-55 -29.5t-70.5 -11q-38 0 -76 13.5t-69 45.5t-50 86t-19 135q0 82 18.5 136.5t48 87.5t66.5 47t75 14q103 0 155.5 -71t52.5 -227h-334q1 -63 13 -102.5t31 -62t43 -30.5t50 -8z
M276 495q-52 0 -87 -41.5t-43 -135.5h252q-2 87 -33.5 132t-88.5 45zM435 599h-85l-73 66l-73 -66h-85l122 136h72zM500 776h110l-117 -137h-68z" />
    <glyph glyph-name="uni1EC0" unicode="&#x1ec0;" horiz-adv-x="500" 
d="M410 333h-235v-265h265v-68h-350v720h350v-68h-265v-253h235v-66zM421 768h-90l-68 51l-68 -51h-90l119 117h78zM115 808h-68l-117 137h110z" />
    <glyph glyph-name="uni1EC1" unicode="&#x1ec1;" horiz-adv-x="534" 
d="M282 54q25 0 44.5 7.5t33.5 19.5t23.5 27t14.5 30l70 -15q-9 -26 -25.5 -50t-40 -42.5t-55 -29.5t-70.5 -11q-38 0 -76 13.5t-69 45.5t-50 86t-19 135q0 82 18.5 136.5t48 87.5t66.5 47t75 14q103 0 155.5 -71t52.5 -227h-334q1 -63 13 -102.5t31 -62t43 -30.5t50 -8z
M276 495q-52 0 -87 -41.5t-43 -135.5h252q-2 87 -33.5 132t-88.5 45zM434 599h-85l-73 66l-73 -66h-85l122 136h72zM128 639h-68l-117 137h110z" />
    <glyph glyph-name="uni1EC2" unicode="&#x1ec2;" horiz-adv-x="500" 
d="M410 333h-235v-265h265v-68h-350v720h350v-68h-265v-253h235v-66zM414 768h-90l-68 51l-68 -51h-90l119 117h78zM590 870q0 -34 -20.5 -55t-55.5 -32l-3 -22h-56l-3 60q29 4 47 14.5t18 33.5q0 22 -12 29t-24 7q-35 0 -47 -46l-67 14q14 39 42 63t79 24q45 0 73.5 -24
t28.5 -66z" />
    <glyph glyph-name="uni1EC3" unicode="&#x1ec3;" horiz-adv-x="534" 
d="M282 54q25 0 44.5 7.5t33.5 19.5t23.5 27t14.5 30l70 -15q-9 -26 -25.5 -50t-40 -42.5t-55 -29.5t-70.5 -11q-38 0 -76 13.5t-69 45.5t-50 86t-19 135q0 82 18.5 136.5t48 87.5t66.5 47t75 14q103 0 155.5 -71t52.5 -227h-334q1 -63 13 -102.5t31 -62t43 -30.5t50 -8z
M276 495q-52 0 -87 -41.5t-43 -135.5h252q-2 87 -33.5 132t-88.5 45zM430 599h-85l-73 66l-73 -66h-85l122 136h72zM595 709q0 -34 -20.5 -55t-55.5 -32l-3 -22h-56l-3 60q29 4 47 14.5t18 33.5q0 22 -12 29t-24 7q-35 0 -47 -46l-67 14q14 39 42 63t79 24q45 0 73.5 -24
t28.5 -66z" />
    <glyph glyph-name="uni1EC4" unicode="&#x1ec4;" horiz-adv-x="500" 
d="M410 321h-235v-253h265v-68h-350v690h350v-68h-265v-235h235v-66zM424 723h-90l-68 51l-68 -51h-90l119 117h78zM328 860q-24 0 -39.5 6t-27.5 12.5t-24 12.5t-29 6t-40 -10t-45 -27v67q22 16 45 24.5t44 8.5q24 0 39.5 -6t27.5 -12.5t24 -12.5t29 -6t38 10t43 27v-67
q-22 -16 -43 -24.5t-42 -8.5z" />
    <glyph glyph-name="uni1EC5" unicode="&#x1ec5;" horiz-adv-x="534" 
d="M282 54q25 0 44.5 7.5t33.5 19.5t23.5 27t14.5 30l70 -15q-9 -26 -25.5 -50t-40 -42.5t-55 -29.5t-70.5 -11q-38 0 -76 13.5t-69 45.5t-50 86t-19 135q0 82 18.5 136.5t48 87.5t66.5 47t75 14q103 0 155.5 -71t52.5 -227h-334q1 -63 13 -102.5t31 -62t43 -30.5t50 -8z
M276 495q-52 0 -87 -41.5t-43 -135.5h252q-2 87 -33.5 132t-88.5 45zM433 599h-85l-73 66l-73 -66h-85l122 136h72zM336 775q-24 0 -39.5 6t-27.5 12.5t-24 12.5t-29 6t-40 -10t-45 -27v67q22 16 45 24.5t44 8.5q24 0 39.5 -6t27.5 -12.5t24 -12.5t29 -6t38 10t43 27v-67
q-22 -16 -43 -24.5t-42 -8.5z" />
    <glyph glyph-name="uni1EC6" unicode="&#x1ec6;" horiz-adv-x="500" 
d="M410 333h-235v-265h265v-68h-350v720h350v-68h-265v-253h235v-66zM200 -170v92h96v-92h-96zM424 768h-90l-68 51l-68 -51h-90l119 117h78z" />
    <glyph glyph-name="uni1EC7" unicode="&#x1ec7;" horiz-adv-x="534" 
d="M282 54q25 0 44.5 7.5t33.5 19.5t23.5 27t14.5 30l70 -15q-9 -26 -25.5 -50t-40 -42.5t-55 -29.5t-70.5 -11q-38 0 -76 13.5t-69 45.5t-50 86t-19 135q0 82 18.5 136.5t48 87.5t66.5 47t75 14q103 0 155.5 -71t52.5 -227h-334q1 -63 13 -102.5t31 -62t43 -30.5t50 -8z
M276 495q-52 0 -87 -41.5t-43 -135.5h252q-2 87 -33.5 132t-88.5 45zM229 -170v92h96v-92h-96zM433 599h-85l-73 66l-73 -66h-85l122 136h72z" />
    <glyph glyph-name="uni1EC8" unicode="&#x1ec8;" horiz-adv-x="265" 
d="M175 720v-720h-85v720h85zM239 870q0 -34 -20.5 -55t-55.5 -32l-3 -22h-56l-3 60q29 4 47 14.5t18 33.5q0 22 -12 29t-24 7q-35 0 -47 -46l-67 14q14 39 42 63t79 24q45 0 73.5 -24t28.5 -66z" />
    <glyph glyph-name="uni1EC9" unicode="&#x1ec9;" horiz-adv-x="240" 
d="M80 0v540h80v-540h-80zM227 712q0 -34 -20.5 -55t-55.5 -32l-3 -22h-56l-3 60q29 4 47 14.5t18 33.5q0 22 -12 29t-24 7q-35 0 -47 -46l-67 14q14 39 42 63t79 24q45 0 73.5 -24t28.5 -66z" />
    <glyph glyph-name="uni1ECA" unicode="&#x1eca;" horiz-adv-x="265" 
d="M175 720v-720h-85v720h85zM85 -170v92h96v-92h-96z" />
    <glyph glyph-name="uni1ECB" unicode="&#x1ecb;" horiz-adv-x="240" 
d="M73 -170v92h96v-92h-96zM80 0v540h80v-540h-80zM74 638v97h92v-97h-92z" />
    <glyph glyph-name="uni1ECC" unicode="&#x1ecc;" horiz-adv-x="658" 
d="M70 360q0 105 22 176.5t58 115.5t82.5 63.5t96.5 19.5q49 0 96 -19.5t83 -63.5t58 -115.5t22 -176.5t-22 -176.5t-58 -115.5t-83 -63.5t-96 -19.5q-50 0 -96.5 19.5t-82.5 63.5t-58 115.5t-22 176.5zM157 360q0 -153 42.5 -231.5t129.5 -78.5t129.5 78.5t42.5 231.5
t-42.5 231.5t-129.5 78.5t-129.5 -78.5t-42.5 -231.5zM279 -170v92h96v-92h-96z" />
    <glyph glyph-name="uni1ECD" unicode="&#x1ecd;" horiz-adv-x="565" 
d="M63 270q0 83 20 138t51.5 87.5t71 46t77.5 13.5t77 -13t70.5 -45.5t51.5 -87.5t20 -139t-20 -138t-51.5 -85.5t-70.5 -44t-77 -12.5t-77.5 12.5t-71 44.5t-51.5 86t-20 137zM147 270q0 -114 37.5 -166.5t99.5 -52.5q63 0 99 51.5t36 167.5q0 115 -38 169.5t-98 54.5
q-59 0 -97.5 -55t-38.5 -169zM236 -170v92h96v-92h-96z" />
    <glyph glyph-name="uni1ECE" unicode="&#x1ece;" horiz-adv-x="658" 
d="M70 360q0 105 22 176.5t58 115.5t82.5 63.5t96.5 19.5q49 0 96 -19.5t83 -63.5t58 -115.5t22 -176.5t-22 -176.5t-58 -115.5t-83 -63.5t-96 -19.5q-50 0 -96.5 19.5t-82.5 63.5t-58 115.5t-22 176.5zM157 360q0 -153 42.5 -231.5t129.5 -78.5t129.5 78.5t42.5 231.5
t-42.5 231.5t-129.5 78.5t-129.5 -78.5t-42.5 -231.5zM436 870q0 -34 -20.5 -55t-55.5 -32l-3 -22h-56l-3 60q29 4 47 14.5t18 33.5q0 22 -12 29t-24 7q-35 0 -47 -46l-67 14q14 39 42 63t79 24q45 0 73.5 -24t28.5 -66z" />
    <glyph glyph-name="uni1ECF" unicode="&#x1ecf;" horiz-adv-x="565" 
d="M63 270q0 83 20 138t51.5 87.5t71 46t77.5 13.5t77 -13t70.5 -45.5t51.5 -87.5t20 -139t-20 -138t-51.5 -85.5t-70.5 -44t-77 -12.5t-77.5 12.5t-71 44.5t-51.5 86t-20 137zM147 270q0 -114 37.5 -166.5t99.5 -52.5q63 0 99 51.5t36 167.5q0 115 -38 169.5t-98 54.5
q-59 0 -97.5 -55t-38.5 -169zM390 712q0 -34 -20.5 -55t-55.5 -32l-3 -22h-56l-3 60q29 4 47 14.5t18 33.5q0 22 -12 29t-24 7q-35 0 -47 -46l-67 14q14 39 42 63t79 24q45 0 73.5 -24t28.5 -66z" />
    <glyph glyph-name="uni1ED0" unicode="&#x1ed0;" horiz-adv-x="658" 
d="M70 360q0 105 22 176.5t58 115.5t82.5 63.5t96.5 19.5q49 0 96 -19.5t83 -63.5t58 -115.5t22 -176.5t-22 -176.5t-58 -115.5t-83 -63.5t-96 -19.5q-50 0 -96.5 19.5t-82.5 63.5t-58 115.5t-22 176.5zM157 360q0 -153 42.5 -231.5t129.5 -78.5t129.5 78.5t42.5 231.5
t-42.5 231.5t-129.5 78.5t-129.5 -78.5t-42.5 -231.5zM490 768h-90l-68 51l-68 -51h-90l119 117h78zM555 945h110l-117 -137h-68z" />
    <glyph glyph-name="uni1ED1" unicode="&#x1ed1;" horiz-adv-x="565" 
d="M63 270q0 83 20 138t51.5 87.5t71 46t77.5 13.5t77 -13t70.5 -45.5t51.5 -87.5t20 -139t-20 -138t-51.5 -85.5t-70.5 -44t-77 -12.5t-77.5 12.5t-71 44.5t-51.5 86t-20 137zM147 270q0 -114 37.5 -166.5t99.5 -52.5q63 0 99 51.5t36 167.5q0 115 -38 169.5t-98 54.5
q-59 0 -97.5 -55t-38.5 -169zM440 599h-85l-73 66l-73 -66h-85l122 136h72zM505 776h110l-117 -137h-68z" />
    <glyph glyph-name="uni1ED2" unicode="&#x1ed2;" horiz-adv-x="658" 
d="M70 360q0 105 22 176.5t58 115.5t82.5 63.5t96.5 19.5q49 0 96 -19.5t83 -63.5t58 -115.5t22 -176.5t-22 -176.5t-58 -115.5t-83 -63.5t-96 -19.5q-50 0 -96.5 19.5t-82.5 63.5t-58 115.5t-22 176.5zM157 360q0 -153 42.5 -231.5t129.5 -78.5t129.5 78.5t42.5 231.5
t-42.5 231.5t-129.5 78.5t-129.5 -78.5t-42.5 -231.5zM488 768h-90l-68 51l-68 -51h-90l119 117h78zM182 808h-68l-117 137h110z" />
    <glyph glyph-name="uni1ED3" unicode="&#x1ed3;" horiz-adv-x="565" 
d="M63 270q0 83 20 138t51.5 87.5t71 46t77.5 13.5t77 -13t70.5 -45.5t51.5 -87.5t20 -139t-20 -138t-51.5 -85.5t-70.5 -44t-77 -12.5t-77.5 12.5t-71 44.5t-51.5 86t-20 137zM147 270q0 -114 37.5 -166.5t99.5 -52.5q63 0 99 51.5t36 167.5q0 115 -38 169.5t-98 54.5
q-59 0 -97.5 -55t-38.5 -169zM441 599h-85l-73 66l-73 -66h-85l122 136h72zM135 639h-68l-117 137h110z" />
    <glyph glyph-name="uni1ED4" unicode="&#x1ed4;" horiz-adv-x="658" 
d="M70 360q0 105 22 176.5t58 115.5t82.5 63.5t96.5 19.5q49 0 96 -19.5t83 -63.5t58 -115.5t22 -176.5t-22 -176.5t-58 -115.5t-83 -63.5t-96 -19.5q-50 0 -96.5 19.5t-82.5 63.5t-58 115.5t-22 176.5zM157 360q0 -153 42.5 -231.5t129.5 -78.5t129.5 78.5t42.5 231.5
t-42.5 231.5t-129.5 78.5t-129.5 -78.5t-42.5 -231.5zM486 768h-90l-68 51l-68 -51h-90l119 117h78zM661 870q0 -34 -20.5 -55t-55.5 -32l-3 -22h-56l-3 60q29 4 47 14.5t18 33.5q0 22 -12 29t-24 7q-35 0 -47 -46l-67 14q14 39 42 63t79 24q45 0 73.5 -24t28.5 -66z" />
    <glyph glyph-name="uni1ED5" unicode="&#x1ed5;" horiz-adv-x="565" 
d="M63 270q0 83 20 138t51.5 87.5t71 46t77.5 13.5t77 -13t70.5 -45.5t51.5 -87.5t20 -139t-20 -138t-51.5 -85.5t-70.5 -44t-77 -12.5t-77.5 12.5t-71 44.5t-51.5 86t-20 137zM147 270q0 -114 37.5 -166.5t99.5 -52.5q63 0 99 51.5t36 167.5q0 115 -38 169.5t-98 54.5
q-59 0 -97.5 -55t-38.5 -169zM441 599h-85l-73 66l-73 -66h-85l122 136h72zM616 709q0 -34 -20.5 -55t-55.5 -32l-3 -22h-56l-3 60q29 4 47 14.5t18 33.5q0 22 -12 29t-24 7q-35 0 -47 -46l-67 14q14 39 42 63t79 24q45 0 73.5 -24t28.5 -66z" />
    <glyph glyph-name="uni1ED6" unicode="&#x1ed6;" horiz-adv-x="658" 
d="M70 345q0 99 22 167.5t58 111.5t82.5 62t96.5 19q49 0 96 -19t83 -62t58 -111.5t22 -167.5t-22 -167.5t-58 -111.5t-83 -62t-96 -19q-50 0 -96.5 19t-82.5 62t-58 111.5t-22 167.5zM157 345q0 -153 42.5 -224t129.5 -71t129.5 71t42.5 224q0 142 -42.5 218.5t-129.5 76.5
t-129.5 -76.5t-42.5 -218.5zM487 723h-90l-68 51l-68 -51h-90l119 117h78zM391 860q-24 0 -39.5 6t-27.5 12.5t-24 12.5t-29 6t-40 -10t-45 -27v67q22 16 45 24.5t44 8.5q24 0 39.5 -6t27.5 -12.5t24 -12.5t29 -6t38 10t43 27v-67q-22 -16 -43 -24.5t-42 -8.5z" />
    <glyph glyph-name="uni1ED7" unicode="&#x1ed7;" horiz-adv-x="565" 
d="M63 270q0 83 20 138t51.5 87.5t71 46t77.5 13.5t77 -13t70.5 -45.5t51.5 -87.5t20 -139t-20 -138t-51.5 -85.5t-70.5 -44t-77 -12.5t-77.5 12.5t-71 44.5t-51.5 86t-20 137zM147 270q0 -114 37.5 -166.5t99.5 -52.5q63 0 99 51.5t36 167.5q0 115 -38 169.5t-98 54.5
q-59 0 -97.5 -55t-38.5 -169zM442 599h-85l-73 66l-73 -66h-85l122 136h72zM344 775q-24 0 -39.5 6t-27.5 12.5t-24 12.5t-29 6t-40 -10t-45 -27v67q22 16 45 24.5t44 8.5q24 0 39.5 -6t27.5 -12.5t24 -12.5t29 -6t38 10t43 27v-67q-22 -16 -43 -24.5t-42 -8.5z" />
    <glyph glyph-name="uni1ED8" unicode="&#x1ed8;" horiz-adv-x="658" 
d="M70 360q0 105 22 176.5t58 115.5t82.5 63.5t96.5 19.5q49 0 96 -19.5t83 -63.5t58 -115.5t22 -176.5t-22 -176.5t-58 -115.5t-83 -63.5t-96 -19.5q-50 0 -96.5 19.5t-82.5 63.5t-58 115.5t-22 176.5zM157 360q0 -153 42.5 -231.5t129.5 -78.5t129.5 78.5t42.5 231.5
t-42.5 231.5t-129.5 78.5t-129.5 -78.5t-42.5 -231.5zM281 -170v92h96v-92h-96zM485 779h-85l-73 66l-73 -66h-85l122 136h72z" />
    <glyph glyph-name="uni1ED9" unicode="&#x1ed9;" horiz-adv-x="565" 
d="M63 270q0 83 20 138t51.5 87.5t71 46t77.5 13.5t77 -13t70.5 -45.5t51.5 -87.5t20 -139t-20 -138t-51.5 -85.5t-70.5 -44t-77 -12.5t-77.5 12.5t-71 44.5t-51.5 86t-20 137zM147 270q0 -114 37.5 -166.5t99.5 -52.5q63 0 99 51.5t36 167.5q0 115 -38 169.5t-98 54.5
q-59 0 -97.5 -55t-38.5 -169zM235 -170v92h96v-92h-96zM441 599h-85l-73 66l-73 -66h-85l122 136h72z" />
    <glyph glyph-name="uni1EDA" unicode="&#x1eda;" horiz-adv-x="666" 
d="M362 915h110l-117 -137h-68zM676 681q0 -31 -9.5 -54.5t-24.5 -41.5t-35 -30.5t-41 -20.5q22 -70 22 -174q0 -105 -22 -176.5t-58 -115.5t-83 -63.5t-96 -19.5q-50 0 -96.5 19.5t-82.5 63.5t-58 115.5t-22 176.5t22 176.5t58 115.5t82.5 63.5t96.5 19.5q34 0 66 -8.5
t60.5 -27t52.5 -48t42 -71.5q23 11 34.5 34.5t11.5 65.5v75h80v-74zM157 360q0 -153 42.5 -231.5t129.5 -78.5t129.5 78.5t42.5 231.5t-42.5 231.5t-129.5 78.5t-129.5 -78.5t-42.5 -231.5z" />
    <glyph glyph-name="uni1EDB" unicode="&#x1edb;" horiz-adv-x="586" 
d="M314 735h110l-117 -137h-68zM63 270q0 83 20 138t51.5 87.5t71 46t77.5 13.5q28 0 56.5 -7t54.5 -23.5t48 -43.5t37 -66q21 11 31.5 32t10.5 63v65h75v-64q0 -30 -8.5 -53.5t-23 -41t-33 -30t-38.5 -19.5q4 -21 6.5 -45.5t2.5 -51.5q0 -84 -20 -138t-51.5 -85.5
t-70.5 -44t-77 -12.5t-77.5 12.5t-71 44.5t-51.5 86t-20 137zM147 270q0 -114 37.5 -166.5t99.5 -52.5q63 0 99 51.5t36 167.5q0 115 -38 169.5t-98 54.5q-59 0 -97.5 -55t-38.5 -169z" />
    <glyph glyph-name="uni1EDC" unicode="&#x1edc;" horiz-adv-x="666" 
d="M375 778h-68l-117 137h110zM676 681q0 -31 -9.5 -54.5t-24.5 -41.5t-35 -30.5t-41 -20.5q22 -70 22 -174q0 -105 -22 -176.5t-58 -115.5t-83 -63.5t-96 -19.5q-50 0 -96.5 19.5t-82.5 63.5t-58 115.5t-22 176.5t22 176.5t58 115.5t82.5 63.5t96.5 19.5q34 0 66 -8.5
t60.5 -27t52.5 -48t42 -71.5q23 11 34.5 34.5t11.5 65.5v75h80v-74zM157 360q0 -153 42.5 -231.5t129.5 -78.5t129.5 78.5t42.5 231.5t-42.5 231.5t-129.5 78.5t-129.5 -78.5t-42.5 -231.5z" />
    <glyph glyph-name="uni1EDD" unicode="&#x1edd;" horiz-adv-x="586" 
d="M325 598h-68l-117 137h110zM63 270q0 83 20 138t51.5 87.5t71 46t77.5 13.5q28 0 56.5 -7t54.5 -23.5t48 -43.5t37 -66q21 11 31.5 32t10.5 63v65h75v-64q0 -30 -8.5 -53.5t-23 -41t-33 -30t-38.5 -19.5q4 -21 6.5 -45.5t2.5 -51.5q0 -84 -20 -138t-51.5 -85.5t-70.5 -44
t-77 -12.5t-77.5 12.5t-71 44.5t-51.5 86t-20 137zM147 270q0 -114 37.5 -166.5t99.5 -52.5q63 0 99 51.5t36 167.5q0 115 -38 169.5t-98 54.5q-59 0 -97.5 -55t-38.5 -169z" />
    <glyph glyph-name="uni1EDE" unicode="&#x1ede;" horiz-adv-x="666" 
d="M435 870q0 -34 -20.5 -55t-55.5 -32l-3 -22h-56l-3 60q29 4 47 14.5t18 33.5q0 22 -12 29t-24 7q-35 0 -47 -46l-67 14q14 39 42 63t79 24q45 0 73.5 -24t28.5 -66zM676 681q0 -31 -9.5 -54.5t-24.5 -41.5t-35 -30.5t-41 -20.5q22 -70 22 -174q0 -105 -22 -176.5
t-58 -115.5t-83 -63.5t-96 -19.5q-50 0 -96.5 19.5t-82.5 63.5t-58 115.5t-22 176.5t22 176.5t58 115.5t82.5 63.5t96.5 19.5q34 0 66 -8.5t60.5 -27t52.5 -48t42 -71.5q23 11 34.5 34.5t11.5 65.5v75h80v-74zM157 360q0 -153 42.5 -231.5t129.5 -78.5t129.5 78.5
t42.5 231.5t-42.5 231.5t-129.5 78.5t-129.5 -78.5t-42.5 -231.5z" />
    <glyph glyph-name="uni1EDF" unicode="&#x1edf;" horiz-adv-x="586" 
d="M389 712q0 -34 -20.5 -55t-55.5 -32l-3 -22h-56l-3 60q29 4 47 14.5t18 33.5q0 22 -12 29t-24 7q-35 0 -47 -46l-67 14q14 39 42 63t79 24q45 0 73.5 -24t28.5 -66zM63 270q0 83 20 138t51.5 87.5t71 46t77.5 13.5q28 0 56.5 -7t54.5 -23.5t48 -43.5t37 -66
q21 11 31.5 32t10.5 63v65h75v-64q0 -30 -8.5 -53.5t-23 -41t-33 -30t-38.5 -19.5q4 -21 6.5 -45.5t2.5 -51.5q0 -84 -20 -138t-51.5 -85.5t-70.5 -44t-77 -12.5t-77.5 12.5t-71 44.5t-51.5 86t-20 137zM147 270q0 -114 37.5 -166.5t99.5 -52.5q63 0 99 51.5t36 167.5
q0 115 -38 169.5t-98 54.5q-59 0 -97.5 -55t-38.5 -169z" />
    <glyph glyph-name="uni1EE0" unicode="&#x1ee0;" horiz-adv-x="666" 
d="M390 805q-24 0 -39.5 6t-27.5 12.5t-24 12.5t-29 6t-40 -10t-45 -27v67q22 16 45 24.5t44 8.5q24 0 39.5 -6t27.5 -12.5t24 -12.5t29 -6t38 10t43 27v-67q-22 -16 -43 -24.5t-42 -8.5zM676 681q0 -31 -9.5 -54.5t-24.5 -41.5t-35 -30.5t-41 -20.5q22 -70 22 -174
q0 -105 -22 -176.5t-58 -115.5t-83 -63.5t-96 -19.5q-50 0 -96.5 19.5t-82.5 63.5t-58 115.5t-22 176.5t22 176.5t58 115.5t82.5 63.5t96.5 19.5q34 0 66 -8.5t60.5 -27t52.5 -48t42 -71.5q23 11 34.5 34.5t11.5 65.5v75h80v-74zM157 360q0 -153 42.5 -231.5t129.5 -78.5
t129.5 78.5t42.5 231.5t-42.5 231.5t-129.5 78.5t-129.5 -78.5t-42.5 -231.5z" />
    <glyph glyph-name="uni1EE1" unicode="&#x1ee1;" horiz-adv-x="586" 
d="M344 625q-24 0 -39.5 6t-27.5 12.5t-24 12.5t-29 6t-40 -10t-45 -27v67q22 16 45 24.5t44 8.5q24 0 39.5 -6t27.5 -12.5t24 -12.5t29 -6t38 10t43 27v-67q-22 -16 -43 -24.5t-42 -8.5zM63 270q0 83 20 138t51.5 87.5t71 46t77.5 13.5q28 0 56.5 -7t54.5 -23.5t48 -43.5
t37 -66q21 11 31.5 32t10.5 63v65h75v-64q0 -30 -8.5 -53.5t-23 -41t-33 -30t-38.5 -19.5q4 -21 6.5 -45.5t2.5 -51.5q0 -84 -20 -138t-51.5 -85.5t-70.5 -44t-77 -12.5t-77.5 12.5t-71 44.5t-51.5 86t-20 137zM147 270q0 -114 37.5 -166.5t99.5 -52.5q63 0 99 51.5
t36 167.5q0 115 -38 169.5t-98 54.5q-59 0 -97.5 -55t-38.5 -169z" />
    <glyph glyph-name="uni1EE2" unicode="&#x1ee2;" horiz-adv-x="666" 
d="M283 -170v92h96v-92h-96zM676 681q0 -31 -9.5 -54.5t-24.5 -41.5t-35 -30.5t-41 -20.5q22 -70 22 -174q0 -105 -22 -176.5t-58 -115.5t-83 -63.5t-96 -19.5q-50 0 -96.5 19.5t-82.5 63.5t-58 115.5t-22 176.5t22 176.5t58 115.5t82.5 63.5t96.5 19.5q34 0 66 -8.5
t60.5 -27t52.5 -48t42 -71.5q23 11 34.5 34.5t11.5 65.5v75h80v-74zM157 360q0 -153 42.5 -231.5t129.5 -78.5t129.5 78.5t42.5 231.5t-42.5 231.5t-129.5 78.5t-129.5 -78.5t-42.5 -231.5z" />
    <glyph glyph-name="uni1EE3" unicode="&#x1ee3;" horiz-adv-x="586" 
d="M234 -170v92h96v-92h-96zM63 270q0 83 20 138t51.5 87.5t71 46t77.5 13.5q28 0 56.5 -7t54.5 -23.5t48 -43.5t37 -66q21 11 31.5 32t10.5 63v65h75v-64q0 -30 -8.5 -53.5t-23 -41t-33 -30t-38.5 -19.5q4 -21 6.5 -45.5t2.5 -51.5q0 -84 -20 -138t-51.5 -85.5t-70.5 -44
t-77 -12.5t-77.5 12.5t-71 44.5t-51.5 86t-20 137zM147 270q0 -114 37.5 -166.5t99.5 -52.5q63 0 99 51.5t36 167.5q0 115 -38 169.5t-98 54.5q-59 0 -97.5 -55t-38.5 -169z" />
    <glyph glyph-name="uni1EE4" unicode="&#x1ee4;" horiz-adv-x="609" 
d="M170 720v-506q0 -75 31.5 -118t104.5 -43t105 43t32 118v506h81v-497q0 -118 -56.5 -178t-162.5 -60t-163 60t-57 178v497h85zM259 -170v92h96v-92h-96z" />
    <glyph glyph-name="uni1EE5" unicode="&#x1ee5;" horiz-adv-x="536" 
d="M160 540v-354q0 -39 7 -64t20.5 -40t31.5 -21t41 -6q40 0 68 19.5t48 50.5v415h80v-540h-55l-18 68q-26 -40 -61.5 -59t-77.5 -19q-75 0 -119.5 47t-44.5 151v352h80zM219 -170v92h96v-92h-96z" />
    <glyph glyph-name="uni1EE6" unicode="&#x1ee6;" horiz-adv-x="609" 
d="M170 720v-506q0 -75 31.5 -118t104.5 -43t105 43t32 118v506h81v-497q0 -118 -56.5 -178t-162.5 -60t-163 60t-57 178v497h85zM411 870q0 -34 -20.5 -55t-55.5 -32l-3 -22h-56l-3 60q29 4 47 14.5t18 33.5q0 22 -12 29t-24 7q-35 0 -47 -46l-67 14q14 39 42 63t79 24
q45 0 73.5 -24t28.5 -66z" />
    <glyph glyph-name="uni1EE7" unicode="&#x1ee7;" horiz-adv-x="536" 
d="M160 540v-354q0 -39 7 -64t20.5 -40t31.5 -21t41 -6q40 0 68 19.5t48 50.5v415h80v-540h-55l-18 68q-26 -40 -61.5 -59t-77.5 -19q-75 0 -119.5 47t-44.5 151v352h80zM376 715q0 -34 -20.5 -55t-55.5 -32l-3 -22h-56l-3 60q29 4 47 14.5t18 33.5q0 22 -12 29t-24 7
q-35 0 -47 -46l-67 14q14 39 42 63t79 24q45 0 73.5 -24t28.5 -66z" />
    <glyph glyph-name="uni1EE8" unicode="&#x1ee8;" horiz-adv-x="656" 
d="M336 915h110l-117 -137h-68zM170 720v-506q0 -75 31.5 -118t104.5 -43t105 43t32 118v506h81v-147q31 11 46.5 34t15.5 73v75h80v-74q0 -37 -13 -64.5t-34 -46t-46 -29.5t-49 -16v-302q0 -118 -56.5 -178t-162.5 -60t-163 60t-57 178v497h85z" />
    <glyph glyph-name="uni1EE9" unicode="&#x1ee9;" horiz-adv-x="576" 
d="M312 735h110l-117 -137h-68zM160 540v-354q0 -39 7 -64t20.5 -40t31.5 -21t41 -6q40 0 68 19.5t48 50.5v415h80v-132q28 11 41.5 33t13.5 69v65h75v-64q0 -35 -11.5 -61t-30 -44t-42 -29.5t-46.5 -17.5v-359h-55l-18 68q-26 -40 -61.5 -59t-77.5 -19q-75 0 -119.5 47
t-44.5 151v352h80z" />
    <glyph glyph-name="uni1EEA" unicode="&#x1eea;" horiz-adv-x="656" 
d="M351 778h-68l-117 137h110zM170 720v-506q0 -75 31.5 -118t104.5 -43t105 43t32 118v506h81v-147q31 11 46.5 34t15.5 73v75h80v-74q0 -37 -13 -64.5t-34 -46t-46 -29.5t-49 -16v-302q0 -118 -56.5 -178t-162.5 -60t-163 60t-57 178v497h85z" />
    <glyph glyph-name="uni1EEB" unicode="&#x1eeb;" horiz-adv-x="576" 
d="M318 598h-68l-117 137h110zM160 540v-354q0 -39 7 -64t20.5 -40t31.5 -21t41 -6q40 0 68 19.5t48 50.5v415h80v-132q28 11 41.5 33t13.5 69v65h75v-64q0 -35 -11.5 -61t-30 -44t-42 -29.5t-46.5 -17.5v-359h-55l-18 68q-26 -40 -61.5 -59t-77.5 -19q-75 0 -119.5 47
t-44.5 151v352h80z" />
    <glyph glyph-name="uni1EEC" unicode="&#x1eec;" horiz-adv-x="656" 
d="M410 870q0 -34 -20.5 -55t-55.5 -32l-3 -22h-56l-3 60q29 4 47 14.5t18 33.5q0 22 -12 29t-24 7q-35 0 -47 -46l-67 14q14 39 42 63t79 24q45 0 73.5 -24t28.5 -66zM170 720v-506q0 -75 31.5 -118t104.5 -43t105 43t32 118v506h81v-147q31 11 46.5 34t15.5 73v75h80v-74
q0 -37 -13 -64.5t-34 -46t-46 -29.5t-49 -16v-302q0 -118 -56.5 -178t-162.5 -60t-163 60t-57 178v497h85z" />
    </font>
</defs>
</svg>
